<?xml version="1.0" encoding="UTF-8"?>
<svg xmlns="http://www.w3.org/2000/svg" viewBox="0 0 647 336">
  <defs>
    <style>
      .cls-1, .cls-2 {
        fill: #fff;
      }

      .cls-1, .cls-3 {
        stroke: #000;
        stroke-miterlimit: 10;
      }

      .cls-4 {
        fill: #666;
      }

      .cls-3 {
        fill: none;
      }
    </style>
  </defs>
  <g id="Layer_3" data-name="Layer 3">
    <rect class="cls-2" width="647" height="336"/>
  </g>
  <g id="_07" data-name="07">
    <rect class="cls-1" x="133.5" y="21" width="105" height="42"/>
    <rect class="cls-1" x="373" y="139" width="122" height="42"/>
    <rect class="cls-1" x="22.5" y="139" width="83" height="42"/>
    <rect class="cls-1" x="279" y="150" width="20" height="20"/>
    <g>
      <path d="M49.564,155.9h1.67l2.475,7.277,2.458-7.277h1.659v8.607h-1.113v-5.08c0-.176.004-.467.012-.873s.012-.842.012-1.307l-2.458,7.26h-1.155l-2.481-7.26v.264c0,.211.006.532.018.964s.018.749.018.952v5.08h-1.113v-8.607Z"/>
      <path d="M60.503,158.232v4.166c0,.32.049.582.148.785.183.375.523.562,1.021.562.715,0,1.202-.328,1.461-.984.141-.352.211-.834.211-1.447v-3.082h1.055v6.275h-.996l.012-.926c-.134.238-.301.439-.5.604-.395.328-.874.492-1.437.492-.878,0-1.476-.299-1.794-.896-.172-.32-.259-.748-.259-1.283v-4.266h1.078Z"/>
      <path d="M70.669,158.858c.555.539.832,1.331.832,2.377,0,1.011-.245,1.846-.733,2.506-.488.659-1.247.989-2.274.989-.857,0-1.538-.292-2.042-.875-.504-.584-.756-1.367-.756-2.351,0-1.054.266-1.894.797-2.518.532-.624,1.245-.937,2.141-.937.803,0,1.482.27,2.037.808ZM70.015,163.029c.257-.529.385-1.117.385-1.765,0-.585-.093-1.062-.278-1.428-.293-.578-.799-.866-1.518-.866-.638,0-1.101.245-1.391.737-.29.491-.435,1.085-.435,1.779,0,.667.145,1.223.435,1.668.29.444.749.667,1.379.667.691,0,1.166-.265,1.422-.793Z"/>
      <path d="M72.796,158.232h1.002v.891c.297-.367.611-.631.943-.791s.701-.24,1.107-.24c.891,0,1.492.311,1.805.932.172.34.258.826.258,1.459v4.025h-1.072v-3.955c0-.383-.057-.691-.17-.926-.188-.391-.527-.586-1.02-.586-.25,0-.455.025-.615.076-.289.086-.543.258-.762.516-.176.207-.29.421-.343.642s-.079.536-.079.946v3.287h-1.055v-6.275Z"/>
    </g>
    <path d="M284.886,155.9l1.623,6.993,1.946-6.993h1.26l1.95,7.006,1.623-7.006h1.278l-2.262,8.607h-1.225l-1.986-7.137-1.998,7.137h-1.225l-2.25-8.607h1.266Z"/>
    <rect class="cls-1" x="296.5" y="89" width="20" height="20"/>
    <path d="M303.924,94.9h5.971v1.055h-4.805v2.613h4.225v1.025h-4.225v3.914h-1.166v-8.607Z"/>
    <rect class="cls-1" x="424" y="91" width="20" height="20"/>
    <path d="M429.985,96.621l1.622,6.993,1.946-6.993h1.26l1.95,7.006,1.623-7.006h1.278l-2.262,8.607h-1.225l-1.986-7.137-1.998,7.137h-1.225l-2.25-8.607h1.266Z"/>
    <rect class="cls-1" x="326" y="150" width="20" height="20"/>
    <path d="M333.424,155.9h5.971v1.055h-4.805v2.613h4.225v1.025h-4.225v3.914h-1.166v-8.607Z"/>
    <rect class="cls-1" x="326.5" y="199" width="20" height="20"/>
    <path d="M332.386,204.9l1.623,6.993,1.946-6.993h1.26l1.95,7.006,1.623-7.006h1.278l-2.262,8.607h-1.225l-1.986-7.137-1.998,7.137h-1.225l-2.25-8.607h1.266Z"/>
    <rect class="cls-1" x="548.5" y="226.5" width="20" height="20"/>
    <path d="M554.386,232.725l1.622,6.993,1.946-6.993h1.26l1.95,7.006,1.623-7.006h1.278l-2.262,8.607h-1.225l-1.986-7.137-1.998,7.137h-1.225l-2.25-8.607h1.266Z"/>
    <g>
      <path d="M169.364,43.73c.026.488.137.885.333,1.189.373.57,1.029.855,1.97.855.421,0,.805-.062,1.151-.188.67-.242,1.005-.676,1.005-1.301,0-.469-.142-.803-.426-1.002-.288-.195-.738-.365-1.351-.51l-1.129-.264c-.738-.172-1.26-.361-1.566-.568-.53-.359-.795-.896-.795-1.611,0-.773.26-1.408.781-1.904.521-.496,1.258-.744,2.212-.744.878,0,1.624.218,2.238.653s.921,1.132.921,2.089h-1.096c-.056-.461-.176-.814-.359-1.061-.341-.449-.919-.674-1.736-.674-.659,0-1.133.145-1.421.434-.289.289-.433.625-.433,1.008,0,.422.17.73.511.926.224.125.729.281,1.516.469l1.169.275c.564.133.999.314,1.306.545.53.402.795.986.795,1.752,0,.953-.338,1.635-1.014,2.045s-1.462.615-2.357.615c-1.044,0-1.861-.273-2.451-.82-.591-.543-.88-1.279-.869-2.209h1.096Z"/>
      <path d="M176.577,37.9h1.67l2.475,7.277,2.458-7.277h1.659v8.607h-1.113v-5.08c0-.176.004-.467.012-.873s.012-.842.012-1.307l-2.458,7.26h-1.155l-2.481-7.26v.264c0,.211.006.532.018.964s.018.749.018.952v5.08h-1.113v-8.607Z"/>
      <path d="M186.713,37.9h6.246v1.055h-5.109v2.613h4.723v.996h-4.723v2.918h5.197v1.025h-6.334v-8.607Z"/>
      <path d="M194.577,37.9h1.67l2.475,7.277,2.458-7.277h1.659v8.607h-1.113v-5.08c0-.176.004-.467.012-.873s.012-.842.012-1.307l-2.458,7.26h-1.155l-2.481-7.26v.264c0,.211.006.532.018.964s.018.749.018.952v5.08h-1.113v-8.607Z"/>
    </g>
    <rect class="cls-1" x="253.5" y="21" width="105.5" height="42"/>
    <g>
      <path d="M271.332,38.146c.843.449,1.359,1.236,1.548,2.361h-1.154c-.138-.629-.423-1.087-.855-1.374s-.978-.431-1.635-.431c-.78,0-1.438.299-1.971.896s-.8,1.488-.8,2.672c0,1.023.22,1.856.66,2.499.44.643,1.158.964,2.153.964.762,0,1.393-.226,1.892-.677s.755-1.181.767-2.188h-2.695v-.967h3.779v4.605h-.75l-.281-1.107c-.388.434-.732.734-1.032.902-.503.289-1.143.434-1.919.434-1.003,0-1.866-.33-2.588-.99-.788-.828-1.182-1.965-1.182-3.41s.385-2.588,1.155-3.439c.731-.812,1.679-1.219,2.841-1.219.797,0,1.486.156,2.067.469Z"/>
      <path d="M278.671,40.405c.416.209.732.479.949.812.21.316.35.686.419,1.107.062.289.093.75.093,1.383h-4.564c.02.639.168,1.15.448,1.536.279.386.711.579,1.296.579.546,0,.982-.183,1.308-.548.182-.212.311-.457.387-.735h1.037c-.027.23-.118.487-.272.771s-.327.515-.517.694c-.318.312-.711.523-1.18.633-.252.062-.537.094-.855.094-.776,0-1.434-.284-1.974-.853-.54-.568-.81-1.364-.81-2.388,0-1.008.271-1.826.815-2.455.543-.629,1.254-.943,2.131-.943.442,0,.872.104,1.287.313ZM279.049,42.869c-.042-.457-.142-.822-.296-1.096-.287-.508-.765-.762-1.435-.762-.48,0-.883.175-1.208.524s-.498.794-.517,1.333h3.457Z"/>
      <path d="M281.469,40.232h1.043v.891c.25-.309.477-.533.68-.674.348-.238.742-.357,1.184-.357.5,0,.902.123,1.207.369.172.141.328.348.469.621.234-.336.51-.585.826-.747s.672-.243,1.066-.243c.844,0,1.418.305,1.723.914.164.328.246.77.246,1.324v4.178h-1.096v-4.359c0-.418-.104-.705-.313-.861s-.464-.234-.765-.234c-.414,0-.771.139-1.069.416s-.448.74-.448,1.389v3.65h-1.072v-4.096c0-.426-.051-.736-.152-.932-.16-.293-.459-.439-.896-.439-.398,0-.761.154-1.087.463s-.489.867-.489,1.676v3.328h-1.055v-6.275Z"/>
      <path d="M291.465,40.232h1.043v.891c.25-.309.477-.533.68-.674.348-.238.742-.357,1.184-.357.5,0,.902.123,1.207.369.172.141.328.348.469.621.234-.336.51-.585.826-.747s.672-.243,1.066-.243c.844,0,1.418.305,1.723.914.164.328.246.77.246,1.324v4.178h-1.096v-4.359c0-.418-.104-.705-.313-.861s-.464-.234-.765-.234c-.414,0-.771.139-1.069.416s-.448.74-.448,1.389v3.65h-1.072v-4.096c0-.426-.051-.736-.152-.932-.16-.293-.459-.439-.896-.439-.398,0-.761.154-1.087.463s-.489.867-.489,1.676v3.328h-1.055v-6.275Z"/>
      <path d="M301.461,37.9h1.072v1.195h-1.072v-1.195ZM301.461,40.262h1.072v6.246h-1.072v-6.246Z"/>
      <path d="M304.127,40.232h1.002v.891c.297-.367.611-.631.943-.791s.701-.24,1.107-.24c.891,0,1.492.311,1.805.932.172.34.258.826.258,1.459v4.025h-1.072v-3.955c0-.383-.057-.691-.17-.926-.188-.391-.527-.586-1.02-.586-.25,0-.455.025-.615.076-.289.086-.543.258-.762.516-.176.207-.29.421-.343.642s-.079.536-.079.946v3.287h-1.055v-6.275Z"/>
      <path d="M310.801,37.9h1.072v1.195h-1.072v-1.195ZM310.801,40.262h1.072v6.246h-1.072v-6.246Z"/>
      <path d="M316.913,37.9h1.67l2.475,7.277,2.458-7.277h1.659v8.607h-1.113v-5.08c0-.176.004-.467.012-.873s.012-.842.012-1.307l-2.458,7.26h-1.155l-2.481-7.26v.264c0,.211.006.532.018.964s.018.749.018.952v5.08h-1.113v-8.607Z"/>
      <path d="M326.909,37.9h1.67l2.475,7.277,2.458-7.277h1.659v8.607h-1.113v-5.08c0-.176.004-.467.012-.873s.012-.842.012-1.307l-2.458,7.26h-1.155l-2.481-7.26v.264c0,.211.006.532.018.964s.018.749.018.952v5.08h-1.113v-8.607Z"/>
      <path d="M337.198,37.9h1.178v8.607h-1.178v-8.607Z"/>
      <path d="M347.358,39.131c.57.762.855,1.736.855,2.924,0,1.285-.326,2.354-.979,3.205-.766,1-1.857,1.5-3.275,1.5-1.324,0-2.365-.438-3.123-1.312-.676-.844-1.014-1.91-1.014-3.199,0-1.164.289-2.16.867-2.988.742-1.062,1.84-1.594,3.293-1.594,1.52,0,2.645.488,3.375,1.465ZM346.33,44.617c.459-.737.688-1.585.688-2.542,0-1.013-.265-1.828-.794-2.445-.529-.618-1.253-.927-2.171-.927-.891,0-1.617.306-2.18.918-.562.611-.844,1.514-.844,2.706,0,.954.241,1.758.724,2.413s1.265.982,2.347.982c1.027,0,1.771-.368,2.229-1.105Z"/>
    </g>
    <rect class="cls-1" x="373" y="21" width="122" height="42"/>
    <g>
      <path d="M395.483,32.146c.843.449,1.359,1.236,1.548,2.361h-1.154c-.138-.629-.423-1.087-.855-1.374-.432-.287-.978-.431-1.635-.431-.78,0-1.438.299-1.972.896-.533.598-.8,1.488-.8,2.672,0,1.023.22,1.856.66,2.499s1.158.964,2.153.964c.762,0,1.393-.226,1.892-.677.5-.451.756-1.181.768-2.188h-2.695v-.967h3.779v4.605h-.75l-.281-1.107c-.389.434-.732.734-1.032.902-.503.289-1.143.434-1.919.434-1.003,0-1.866-.33-2.588-.99-.788-.828-1.182-1.965-1.182-3.41s.385-2.588,1.154-3.439c.731-.812,1.679-1.219,2.842-1.219.797,0,1.486.156,2.067.469Z"/>
      <path d="M402.823,34.405c.415.209.731.479.949.812.21.316.35.686.419,1.107.062.289.094.75.094,1.383h-4.564c.02.639.168,1.15.447,1.536s.711.579,1.297.579c.546,0,.982-.183,1.308-.548.183-.212.312-.457.388-.735h1.037c-.027.23-.118.487-.272.771s-.327.515-.517.694c-.318.312-.712.523-1.181.633-.252.062-.537.094-.854.094-.776,0-1.435-.284-1.974-.853-.54-.568-.81-1.364-.81-2.388,0-1.008.271-1.826.815-2.455.543-.629,1.254-.943,2.131-.943.442,0,.872.104,1.287.313ZM403.201,36.869c-.043-.457-.142-.822-.297-1.096-.286-.508-.765-.762-1.435-.762-.48,0-.884.175-1.209.524s-.497.794-.517,1.333h3.457Z"/>
      <path d="M405.621,34.232h1.043v.891c.25-.309.477-.533.68-.674.348-.238.742-.357,1.184-.357.5,0,.902.123,1.207.369.172.141.328.348.469.621.234-.336.51-.585.826-.747s.672-.243,1.066-.243c.844,0,1.418.305,1.723.914.164.328.246.77.246,1.324v4.178h-1.096v-4.359c0-.418-.104-.705-.313-.861s-.464-.234-.765-.234c-.414,0-.771.139-1.069.416s-.448.74-.448,1.389v3.65h-1.072v-4.096c0-.426-.051-.736-.152-.932-.16-.293-.459-.439-.896-.439-.398,0-.761.154-1.087.463s-.489.867-.489,1.676v3.328h-1.055v-6.275Z"/>
      <path d="M415.617,34.232h1.043v.891c.25-.309.477-.533.68-.674.348-.238.742-.357,1.184-.357.5,0,.902.123,1.207.369.172.141.328.348.469.621.234-.336.51-.585.826-.747s.672-.243,1.066-.243c.844,0,1.418.305,1.723.914.164.328.246.77.246,1.324v4.178h-1.096v-4.359c0-.418-.104-.705-.313-.861s-.464-.234-.765-.234c-.414,0-.771.139-1.069.416s-.448.74-.448,1.389v3.65h-1.072v-4.096c0-.426-.051-.736-.152-.932-.16-.293-.459-.439-.896-.439-.398,0-.761.154-1.087.463s-.489.867-.489,1.676v3.328h-1.055v-6.275Z"/>
      <path d="M425.613,31.9h1.072v1.195h-1.072v-1.195ZM425.613,34.262h1.072v6.246h-1.072v-6.246Z"/>
      <path d="M428.279,34.232h1.002v.891c.297-.367.611-.631.943-.791s.701-.24,1.107-.24c.891,0,1.492.311,1.805.932.172.34.258.826.258,1.459v4.025h-1.072v-3.955c0-.383-.057-.691-.17-.926-.188-.391-.527-.586-1.02-.586-.25,0-.455.025-.615.076-.289.086-.543.258-.762.516-.176.207-.29.421-.343.642s-.079.536-.079.946v3.287h-1.055v-6.275Z"/>
      <path d="M434.953,31.9h1.072v1.195h-1.072v-1.195ZM434.953,34.262h1.072v6.246h-1.072v-6.246Z"/>
      <path d="M441.855,37.73c.026.488.137.885.333,1.189.372.57,1.029.855,1.97.855.421,0,.805-.062,1.151-.188.67-.242,1.005-.676,1.005-1.301,0-.469-.143-.803-.426-1.002-.288-.195-.738-.365-1.352-.51l-1.129-.264c-.738-.172-1.261-.361-1.566-.568-.53-.359-.795-.896-.795-1.611,0-.773.26-1.408.781-1.904.521-.496,1.258-.744,2.212-.744.878,0,1.624.218,2.238.653.613.436.921,1.132.921,2.089h-1.096c-.057-.461-.177-.814-.359-1.061-.341-.449-.92-.674-1.736-.674-.659,0-1.133.145-1.421.434-.289.289-.433.625-.433,1.008,0,.422.17.73.511.926.224.125.729.281,1.516.469l1.17.275c.563.133.999.314,1.306.545.529.402.795.986.795,1.752,0,.953-.338,1.635-1.015,2.045-.676.41-1.462.615-2.357.615-1.044,0-1.86-.273-2.451-.82-.591-.543-.88-1.279-.868-2.209h1.096Z"/>
      <path d="M453.103,34.566c.443.344.71.936.8,1.775h-1.025c-.062-.387-.205-.708-.428-.964s-.58-.384-1.072-.384c-.672,0-1.152.327-1.441.983-.188.425-.281.949-.281,1.574s.133,1.156.398,1.586c.266.429.684.644,1.254.644.438,0,.784-.134,1.04-.4s.433-.631.53-1.094h1.025c-.117.832-.41,1.44-.879,1.825s-1.068.577-1.799.577c-.82,0-1.475-.3-1.963-.899s-.732-1.349-.732-2.247c0-1.102.268-1.959.803-2.572s1.217-.92,2.045-.92c.707,0,1.282.172,1.726.516Z"/>
      <path d="M458.32,36.71c.242-.031.404-.133.486-.305.047-.094.07-.229.07-.405,0-.361-.128-.623-.383-.785-.256-.163-.621-.244-1.097-.244-.55,0-.939.149-1.17.447-.129.165-.212.41-.251.736h-.984c.02-.775.27-1.315.752-1.619.481-.304,1.041-.455,1.677-.455.737,0,1.336.141,1.797.422.456.281.685.719.685,1.312v3.615c0,.109.022.197.067.264s.14.1.284.1c.047,0,.1-.003.158-.009s.121-.015.188-.026v.779c-.164.047-.289.076-.375.088s-.203.018-.352.018c-.363,0-.627-.129-.791-.387-.086-.137-.146-.33-.182-.58-.215.281-.523.525-.926.732s-.846.311-1.33.311c-.582,0-1.058-.177-1.427-.53-.369-.353-.554-.795-.554-1.325,0-.581.182-1.032.545-1.352.363-.32.84-.518,1.43-.591l1.682-.211ZM456.1,39.559c.223.176.486.264.791.264.371,0,.73-.086,1.078-.258.586-.284.879-.751.879-1.398v-.848c-.129.082-.295.15-.497.206-.203.055-.401.094-.597.117l-.638.082c-.382.051-.669.13-.861.239-.326.184-.489.476-.489.877,0,.304.111.544.334.719Z"/>
      <path d="M461.66,31.9h1.055v8.607h-1.055v-8.607Z"/>
      <path d="M464.297,31.9h1.072v1.195h-1.072v-1.195ZM464.297,34.262h1.072v6.246h-1.072v-6.246Z"/>
      <path d="M466.963,34.232h1.002v.891c.297-.367.611-.631.943-.791s.701-.24,1.107-.24c.891,0,1.492.311,1.805.932.172.34.258.826.258,1.459v4.025h-1.072v-3.955c0-.383-.057-.691-.17-.926-.188-.391-.527-.586-1.02-.586-.25,0-.455.025-.615.076-.289.086-.543.258-.762.516-.176.207-.29.421-.343.642s-.079.536-.079.946v3.287h-1.055v-6.275Z"/>
      <path d="M477.125,34.484c.198.137.401.336.607.598v-.791h.973v5.707c0,.797-.117,1.426-.351,1.887-.437.852-1.26,1.277-2.47,1.277-.674,0-1.24-.151-1.7-.454-.459-.303-.716-.776-.771-1.421h1.072c.05.281.151.498.303.65.237.234.61.352,1.119.352.804,0,1.33-.285,1.579-.855.147-.336.216-.936.204-1.799-.21.32-.463.559-.759.715s-.687.234-1.173.234c-.678,0-1.27-.241-1.777-.724s-.762-1.28-.762-2.394c0-1.051.256-1.871.768-2.461s1.129-.885,1.853-.885c.49,0,.919.121,1.284.363ZM477.254,35.615c-.318-.375-.725-.562-1.218-.562-.739,0-1.244.348-1.516,1.043-.145.371-.216.857-.216,1.459,0,.707.143,1.245.429,1.614.285.369.669.554,1.151.554.753,0,1.284-.342,1.591-1.025.171-.387.257-.838.257-1.354,0-.777-.159-1.354-.479-1.729Z"/>
      <path d="M394.875,43.9h5.971v1.055h-4.805v2.613h4.225v1.025h-4.225v3.914h-1.166v-8.607Z"/>
      <path d="M405.316,48.71c.242-.031.404-.133.486-.305.047-.094.07-.229.07-.405,0-.361-.128-.623-.383-.785-.256-.163-.621-.244-1.097-.244-.55,0-.939.149-1.17.447-.129.165-.212.41-.251.736h-.984c.02-.775.27-1.315.752-1.619.481-.304,1.041-.455,1.677-.455.737,0,1.336.141,1.797.422.456.281.685.719.685,1.312v3.615c0,.109.022.197.067.264s.14.1.284.1c.047,0,.1-.003.158-.009s.121-.015.188-.026v.779c-.164.047-.289.076-.375.088s-.203.018-.352.018c-.363,0-.627-.129-.791-.387-.086-.137-.146-.33-.182-.58-.215.281-.523.525-.926.732s-.846.311-1.33.311c-.582,0-1.058-.177-1.427-.53-.369-.353-.554-.795-.554-1.325,0-.581.182-1.032.545-1.352.363-.32.84-.518,1.43-.591l1.682-.211ZM403.096,51.559c.223.176.486.264.791.264.371,0,.73-.086,1.078-.258.586-.284.879-.751.879-1.398v-.848c-.129.082-.295.15-.497.206-.203.055-.401.094-.597.117l-.638.082c-.382.051-.669.13-.861.239-.326.184-.489.476-.489.877,0,.304.111.544.334.719Z"/>
      <path d="M412.772,46.566c.443.344.71.936.8,1.775h-1.025c-.062-.387-.205-.708-.428-.964s-.58-.384-1.072-.384c-.672,0-1.152.327-1.441.983-.188.425-.281.949-.281,1.574s.133,1.156.398,1.586c.266.429.684.644,1.254.644.438,0,.784-.134,1.04-.4s.433-.631.53-1.094h1.025c-.117.832-.41,1.44-.879,1.825s-1.068.577-1.799.577c-.82,0-1.475-.3-1.963-.899s-.732-1.349-.732-2.247c0-1.102.268-1.959.803-2.572s1.217-.92,2.045-.92c.707,0,1.282.172,1.726.516Z"/>
      <path d="M414.838,44.48h1.066v1.752h1.002v.861h-1.002v4.096c0,.219.074.365.223.439.082.043.219.064.41.064.051,0,.105-.002.164-.004.059-.003.127-.01.205-.02v.838c-.121.035-.247.061-.378.076s-.272.023-.425.023c-.492,0-.826-.126-1.002-.378s-.264-.579-.264-.981v-4.154h-.85v-.861h.85v-1.752Z"/>
      <path d="M422.508,46.858c.555.539.832,1.331.832,2.377,0,1.011-.245,1.846-.733,2.506-.488.659-1.247.989-2.274.989-.857,0-1.538-.292-2.043-.875-.504-.584-.756-1.367-.756-2.351,0-1.054.266-1.894.797-2.518s1.245-.937,2.141-.937c.804,0,1.482.27,2.037.808ZM421.853,51.029c.257-.529.386-1.117.386-1.765,0-.585-.093-1.062-.278-1.428-.294-.578-.8-.866-1.518-.866-.638,0-1.102.245-1.391.737-.29.491-.435,1.085-.435,1.779,0,.667.145,1.223.435,1.668.289.444.749.667,1.379.667.691,0,1.165-.265,1.422-.793Z"/>
      <path d="M424.664,46.232h1.002v1.084c.082-.211.283-.468.604-.771s.689-.454,1.107-.454c.02,0,.053.002.1.006s.127.012.24.023v1.113c-.062-.012-.12-.02-.173-.023s-.11-.006-.173-.006c-.531,0-.939.171-1.225.513s-.428.735-.428,1.181v3.609h-1.055v-6.275Z"/>
      <path d="M432.076,43.9h1.67l2.476,7.277,2.457-7.277h1.659v8.607h-1.113v-5.08c0-.176.004-.467.012-.873s.012-.842.012-1.307l-2.458,7.26h-1.155l-2.48-7.26v.264c0,.211.006.532.018.964s.018.749.018.952v5.08h-1.113v-8.607Z"/>
      <path d="M445.837,46.405c.415.209.731.479.949.812.21.316.35.686.419,1.107.062.289.094.75.094,1.383h-4.564c.02.639.168,1.15.447,1.536s.711.579,1.297.579c.546,0,.982-.183,1.308-.548.183-.212.312-.457.388-.735h1.037c-.027.23-.118.487-.272.771s-.327.515-.517.694c-.318.312-.712.523-1.181.633-.252.062-.537.094-.854.094-.776,0-1.435-.284-1.974-.853-.54-.568-.81-1.364-.81-2.388,0-1.008.271-1.826.815-2.455.543-.629,1.254-.943,2.131-.943.442,0,.872.104,1.287.313ZM446.215,48.869c-.043-.457-.142-.822-.297-1.096-.286-.508-.765-.762-1.435-.762-.48,0-.884.175-1.209.524s-.497.794-.517,1.333h3.457Z"/>
      <path d="M448.635,46.232h1.043v.891c.25-.309.477-.533.68-.674.348-.238.742-.357,1.184-.357.5,0,.902.123,1.207.369.172.141.328.348.469.621.234-.336.51-.585.826-.747s.672-.243,1.066-.243c.844,0,1.418.305,1.723.914.164.328.246.77.246,1.324v4.178h-1.096v-4.359c0-.418-.104-.705-.313-.861s-.464-.234-.765-.234c-.414,0-.771.139-1.069.416s-.448.74-.448,1.389v3.65h-1.072v-4.096c0-.426-.051-.736-.152-.932-.16-.293-.459-.439-.896-.439-.398,0-.761.154-1.087.463s-.489.867-.489,1.676v3.328h-1.055v-6.275Z"/>
      <path d="M463.178,46.858c.555.539.832,1.331.832,2.377,0,1.011-.245,1.846-.733,2.506-.488.659-1.247.989-2.274.989-.857,0-1.538-.292-2.043-.875-.504-.584-.756-1.367-.756-2.351,0-1.054.266-1.894.797-2.518s1.245-.937,2.141-.937c.804,0,1.482.27,2.037.808ZM462.522,51.029c.257-.529.386-1.117.386-1.765,0-.585-.093-1.062-.278-1.428-.294-.578-.8-.866-1.518-.866-.638,0-1.102.245-1.391.737-.29.491-.435,1.085-.435,1.779,0,.667.145,1.223.435,1.668.289.444.749.667,1.379.667.691,0,1.165-.265,1.422-.793Z"/>
      <path d="M465.334,46.232h1.002v1.084c.082-.211.283-.468.604-.771s.689-.454,1.107-.454c.02,0,.053.002.1.006s.127.012.24.023v1.113c-.062-.012-.12-.02-.173-.023s-.11-.006-.173-.006c-.531,0-.939.171-1.225.513s-.428.735-.428,1.181v3.609h-1.055v-6.275Z"/>
      <path d="M473.224,46.232h1.166c-.148.402-.479,1.32-.99,2.755-.383,1.079-.703,1.958-.961,2.638-.609,1.601-1.038,2.576-1.288,2.928s-.679.527-1.288.527c-.148,0-.263-.006-.343-.018-.079-.012-.178-.033-.295-.064v-.961c.183.051.315.082.397.094s.154.018.217.018c.194,0,.338-.032.43-.097s.169-.144.231-.237c.019-.031.089-.19.21-.479.121-.288.209-.503.264-.643l-2.32-6.46h1.195l1.682,5.111,1.693-5.111Z"/>
    </g>
    <g>
      <path d="M409.849,156.527c.594.574.925,1.227.99,1.957h-1.137c-.127-.555-.379-.994-.757-1.318s-.908-.486-1.591-.486c-.833,0-1.505.298-2.018.895-.512.596-.768,1.51-.768,2.741,0,1.009.23,1.826.693,2.454.462.628,1.152.941,2.069.941.844,0,1.487-.33,1.928-.99.234-.348.409-.805.524-1.371h1.137c-.101.906-.433,1.666-.996,2.279-.676.738-1.587,1.107-2.734,1.107-.988,0-1.818-.303-2.49-.909-.885-.801-1.326-2.038-1.326-3.711,0-1.271.332-2.312.996-3.125.718-.884,1.708-1.325,2.971-1.325,1.077,0,1.913.287,2.508.861Z"/>
      <path d="M412.427,155.9h1.166v7.582h4.318v1.025h-5.484v-8.607Z"/>
      <path d="M425.188,156.527c.594.574.925,1.227.99,1.957h-1.137c-.127-.555-.379-.994-.757-1.318s-.908-.486-1.591-.486c-.833,0-1.505.298-2.018.895-.512.596-.768,1.51-.768,2.741,0,1.009.23,1.826.693,2.454.462.628,1.152.941,2.069.941.844,0,1.487-.33,1.928-.99.234-.348.409-.805.524-1.371h1.137c-.101.906-.433,1.666-.996,2.279-.676.738-1.587,1.107-2.734,1.107-.988,0-1.818-.303-2.49-.909-.885-.801-1.326-2.038-1.326-3.711,0-1.271.332-2.312.996-3.125.718-.884,1.708-1.325,2.971-1.325,1.077,0,1.913.287,2.508.861Z"/>
      <path d="M427.737,155.9h3.722c1.014,0,1.735.301,2.164.902.252.355.378.766.378,1.23,0,.543-.154.988-.463,1.336-.16.184-.391.352-.691.504.441.168.771.357.99.568.387.375.58.893.58,1.553,0,.555-.175,1.057-.525,1.506-.522.672-1.354,1.008-2.493,1.008h-3.661v-8.607ZM431.023,159.539c.497,0,.884-.068,1.16-.205.434-.215.651-.602.651-1.16,0-.562-.231-.941-.693-1.137-.26-.109-.647-.164-1.16-.164h-2.102v2.666h2.144ZM431.417,163.512c.722,0,1.236-.207,1.544-.621.193-.262.29-.578.29-.949,0-.625-.282-1.051-.846-1.277-.3-.121-.696-.182-1.189-.182h-2.336v3.029h2.537Z"/>
      <path d="M436.685,158.232v4.166c0,.32.049.582.148.785.183.375.522.562,1.021.562.715,0,1.202-.328,1.461-.984.141-.352.211-.834.211-1.447v-3.082h1.055v6.275h-.996l.012-.926c-.135.238-.302.439-.501.604-.395.328-.874.492-1.437.492-.878,0-1.477-.299-1.794-.896-.173-.32-.259-.748-.259-1.283v-4.266h1.078Z"/>
      <path d="M442.931,162.539c.031.352.121.621.269.809.271.34.742.51,1.412.51.398,0,.749-.085,1.052-.255.304-.17.455-.433.455-.788,0-.27-.121-.475-.363-.615-.155-.086-.461-.186-.917-.299l-.852-.211c-.544-.133-.945-.281-1.203-.445-.46-.285-.69-.68-.69-1.184,0-.594.217-1.074.65-1.441.433-.367,1.016-.551,1.748-.551.958,0,1.649.277,2.072.832.266.352.395.73.387,1.137h-.996c-.021-.237-.106-.453-.258-.647-.248-.275-.678-.413-1.29-.413-.408,0-.717.075-.927.228-.21.151-.314.353-.314.602,0,.272.138.49.414.653.158.098.394.184.704.258l.71.17c.772.184,1.29.361,1.553.533.41.27.615.693.615,1.271,0,.559-.215,1.041-.644,1.447-.43.406-1.083.609-1.961.609-.945,0-1.614-.212-2.008-.636s-.604-.948-.632-1.573h1.014Z"/>
      <path d="M454.415,155.76c-.613,1.191-1.012,2.068-1.195,2.631-.277.855-.416,1.844-.416,2.965,0,1.133.158,2.168.475,3.105.195.578.58,1.41,1.154,2.496h-.709c-.57-.891-.924-1.459-1.061-1.705s-.285-.58-.445-1.002c-.219-.578-.371-1.195-.457-1.852-.043-.34-.064-.664-.064-.973,0-1.156.182-2.186.545-3.088.23-.574.711-1.434,1.441-2.578h.732Z"/>
      <path d="M456.003,159.598c-.309-.312-.463-.719-.463-1.219,0-.625.226-1.162.679-1.611.452-.449,1.095-.674,1.926-.674.804,0,1.434.212,1.891.636.456.424.685.919.685,1.485,0,.523-.133.947-.398,1.271-.148.184-.379.363-.691.539.35.16.624.344.824.551.372.391.559.898.559,1.523,0,.738-.248,1.364-.744,1.878s-1.197.771-2.104.771c-.816,0-1.507-.222-2.071-.665s-.847-1.087-.847-1.931c0-.496.121-.925.363-1.286s.602-.638,1.078-.829c-.293-.125-.521-.271-.686-.439ZM459.404,163.392c.322-.264.483-.657.483-1.181,0-.543-.166-.955-.498-1.236s-.758-.422-1.277-.422c-.504,0-.915.144-1.233.431s-.478.685-.478,1.192c0,.438.146.815.437,1.134s.741.478,1.351.478c.488,0,.894-.132,1.216-.396ZM459.209,159.242c.261-.261.392-.57.392-.931,0-.313-.125-.602-.374-.863-.25-.263-.63-.394-1.141-.394-.507,0-.873.131-1.1.394-.227.262-.339.569-.339.922,0,.396.146.704.438.928.292.224.638.335,1.035.335.464,0,.826-.13,1.088-.391Z"/>
      <path d="M461.95,166.957c.621-1.211,1.021-2.094,1.201-2.648.273-.84.41-1.824.41-2.953s-.158-2.162-.475-3.1c-.195-.578-.58-1.41-1.154-2.496h.709c.602.961.966,1.554,1.093,1.778s.265.534.413.929c.188.488.321.971.401,1.447s.12.936.12,1.377c0,1.156-.184,2.188-.551,3.094-.23.582-.709,1.439-1.436,2.572h-.732Z"/>
    </g>
    <rect class="cls-1" x="373.5" y="257" width="122" height="42"/>
    <g>
      <path d="M413.686,274.527c.594.574.925,1.227.99,1.957h-1.137c-.127-.555-.379-.994-.757-1.318s-.908-.486-1.591-.486c-.833,0-1.505.298-2.018.895-.512.596-.768,1.51-.768,2.741,0,1.009.23,1.826.693,2.454.462.628,1.152.941,2.069.941.844,0,1.487-.33,1.928-.99.234-.348.409-.805.524-1.371h1.137c-.101.906-.433,1.666-.996,2.279-.676.738-1.587,1.107-2.734,1.107-.988,0-1.818-.303-2.49-.909-.885-.801-1.326-2.038-1.326-3.711,0-1.271.332-2.312.996-3.125.718-.884,1.708-1.325,2.971-1.325,1.077,0,1.913.287,2.508.861Z"/>
      <path d="M422.352,274.527c.594.574.925,1.227.99,1.957h-1.137c-.127-.555-.379-.994-.757-1.318s-.908-.486-1.591-.486c-.833,0-1.505.298-2.018.895-.512.596-.768,1.51-.768,2.741,0,1.009.23,1.826.693,2.454.462.628,1.152.941,2.069.941.844,0,1.487-.33,1.928-.99.234-.348.409-.805.524-1.371h1.137c-.101.906-.433,1.666-.996,2.279-.676.738-1.587,1.107-2.734,1.107-.988,0-1.818-.303-2.49-.909-.885-.801-1.326-2.038-1.326-3.711,0-1.271.332-2.312.996-3.125.718-.884,1.708-1.325,2.971-1.325,1.077,0,1.913.287,2.508.861Z"/>
      <path d="M424.9,273.9h3.722c1.014,0,1.735.301,2.164.902.252.355.378.766.378,1.23,0,.543-.154.988-.463,1.336-.16.184-.391.352-.691.504.441.168.771.357.99.568.387.375.58.893.58,1.553,0,.555-.175,1.057-.525,1.506-.522.672-1.354,1.008-2.493,1.008h-3.661v-8.607ZM428.187,277.539c.497,0,.884-.068,1.16-.205.434-.215.651-.602.651-1.16,0-.562-.231-.941-.693-1.137-.26-.109-.647-.164-1.16-.164h-2.102v2.666h2.144ZM428.58,281.512c.722,0,1.236-.207,1.544-.621.193-.262.29-.578.29-.949,0-.625-.282-1.051-.846-1.277-.3-.121-.696-.182-1.189-.182h-2.336v3.029h2.537Z"/>
      <path d="M433.848,276.232v4.166c0,.32.049.582.148.785.183.375.522.562,1.021.562.715,0,1.202-.328,1.461-.984.141-.352.211-.834.211-1.447v-3.082h1.055v6.275h-.996l.012-.926c-.135.238-.302.439-.501.604-.395.328-.874.492-1.437.492-.878,0-1.477-.299-1.794-.896-.173-.32-.259-.748-.259-1.283v-4.266h1.078Z"/>
      <path d="M440.094,280.539c.031.352.121.621.269.809.271.34.742.51,1.412.51.398,0,.749-.085,1.052-.255.304-.17.455-.433.455-.788,0-.27-.121-.475-.363-.615-.155-.086-.461-.186-.917-.299l-.852-.211c-.544-.133-.945-.281-1.203-.445-.46-.285-.69-.68-.69-1.184,0-.594.217-1.074.65-1.441.433-.367,1.016-.551,1.748-.551.958,0,1.649.277,2.072.832.266.352.395.73.387,1.137h-.996c-.021-.237-.106-.453-.258-.647-.248-.275-.678-.413-1.29-.413-.408,0-.717.075-.927.228-.21.151-.314.353-.314.602,0,.272.138.49.414.653.158.098.394.184.704.258l.71.17c.772.184,1.29.361,1.553.533.41.27.615.693.615,1.271,0,.559-.215,1.041-.644,1.447-.43.406-1.083.609-1.961.609-.945,0-1.614-.212-2.008-.636s-.604-.948-.632-1.573h1.014Z"/>
      <path d="M451.578,273.76c-.613,1.191-1.012,2.068-1.195,2.631-.277.855-.416,1.844-.416,2.965,0,1.133.158,2.168.475,3.105.195.578.58,1.41,1.154,2.496h-.709c-.57-.891-.924-1.459-1.061-1.705s-.285-.58-.445-1.002c-.219-.578-.371-1.195-.457-1.852-.043-.34-.064-.664-.064-.973,0-1.156.182-2.186.545-3.088.23-.574.711-1.434,1.441-2.578h.732Z"/>
      <path d="M453.166,277.598c-.309-.312-.463-.719-.463-1.219,0-.625.226-1.162.679-1.611.452-.449,1.095-.674,1.926-.674.804,0,1.434.212,1.891.636.456.424.685.919.685,1.485,0,.523-.133.947-.398,1.271-.148.184-.379.363-.691.539.35.16.624.344.824.551.372.391.559.898.559,1.523,0,.738-.248,1.364-.744,1.878s-1.197.771-2.104.771c-.816,0-1.507-.222-2.071-.665s-.847-1.087-.847-1.931c0-.496.121-.925.363-1.286s.602-.638,1.078-.829c-.293-.125-.521-.271-.686-.439ZM456.567,281.392c.322-.264.483-.657.483-1.181,0-.543-.166-.955-.498-1.236s-.758-.422-1.277-.422c-.504,0-.915.144-1.233.431s-.478.685-.478,1.192c0,.438.146.815.437,1.134s.741.478,1.351.478c.488,0,.894-.132,1.216-.396ZM456.372,277.242c.261-.261.392-.57.392-.931,0-.313-.125-.602-.374-.863-.25-.263-.63-.394-1.141-.394-.507,0-.873.131-1.1.394-.227.262-.339.569-.339.922,0,.396.146.704.438.928.292.224.638.335,1.035.335.464,0,.826-.13,1.088-.391Z"/>
      <path d="M459.113,284.957c.621-1.211,1.021-2.094,1.201-2.648.273-.84.41-1.824.41-2.953s-.158-2.162-.475-3.1c-.195-.578-.58-1.41-1.154-2.496h.709c.602.961.966,1.554,1.093,1.778s.265.534.413.929c.188.488.321.971.401,1.447s.12.936.12,1.377c0,1.156-.184,2.188-.551,3.094-.23.582-.709,1.439-1.436,2.572h-.732Z"/>
    </g>
    <rect class="cls-1" x="145.5" y="257" width="122" height="42"/>
    <g>
      <path d="M190.018,274.527c.594.574.925,1.227.99,1.957h-1.137c-.126-.555-.379-.994-.757-1.318s-.908-.486-1.591-.486c-.833,0-1.505.298-2.017.895-.512.596-.768,1.51-.768,2.741,0,1.009.231,1.826.693,2.454s1.152.941,2.069.941c.844,0,1.487-.33,1.928-.99.234-.348.409-.805.524-1.371h1.137c-.101.906-.433,1.666-.996,2.279-.676.738-1.587,1.107-2.734,1.107-.989,0-1.819-.303-2.491-.909-.884-.801-1.326-2.038-1.326-3.711,0-1.271.332-2.312.996-3.125.718-.884,1.708-1.325,2.971-1.325,1.077,0,1.913.287,2.508.861Z"/>
      <path d="M192.567,273.9h3.722c1.014,0,1.736.301,2.165.902.251.355.377.766.377,1.23,0,.543-.154.988-.463,1.336-.16.184-.391.352-.691.504.441.168.771.357.99.568.387.375.58.893.58,1.553,0,.555-.175,1.057-.525,1.506-.522.672-1.354,1.008-2.494,1.008h-3.661v-8.607ZM195.853,277.539c.497,0,.884-.068,1.16-.205.434-.215.651-.602.651-1.16,0-.562-.231-.941-.693-1.137-.26-.109-.647-.164-1.16-.164h-2.102v2.666h2.144ZM196.247,281.512c.722,0,1.236-.207,1.543-.621.193-.262.29-.578.29-.949,0-.625-.282-1.051-.846-1.277-.3-.121-.696-.182-1.189-.182h-2.336v3.029h2.538Z"/>
      <path d="M201.514,276.232v4.166c0,.32.049.582.148.785.183.375.523.562,1.021.562.715,0,1.202-.328,1.461-.984.141-.352.211-.834.211-1.447v-3.082h1.055v6.275h-.996l.012-.926c-.134.238-.301.439-.5.604-.395.328-.874.492-1.437.492-.878,0-1.476-.299-1.794-.896-.172-.32-.259-.748-.259-1.283v-4.266h1.078Z"/>
      <path d="M207.76,280.539c.032.352.122.621.269.809.271.34.742.51,1.412.51.398,0,.749-.085,1.052-.255s.455-.433.455-.788c0-.27-.121-.475-.363-.615-.155-.086-.46-.186-.917-.299l-.852-.211c-.544-.133-.945-.281-1.203-.445-.46-.285-.691-.68-.691-1.184,0-.594.217-1.074.65-1.441.433-.367,1.016-.551,1.749-.551.958,0,1.649.277,2.072.832.265.352.394.73.386,1.137h-.996c-.02-.237-.106-.453-.258-.647-.248-.275-.678-.413-1.29-.413-.408,0-.717.075-.927.228-.21.151-.315.353-.315.602,0,.272.138.49.414.653.159.098.394.184.704.258l.71.17c.772.184,1.29.361,1.552.533.41.27.615.693.615,1.271,0,.559-.215,1.041-.644,1.447-.429.406-1.083.609-1.961.609-.945,0-1.614-.212-2.008-.636s-.604-.948-.632-1.573h1.014Z"/>
      <path d="M219.245,273.76c-.613,1.191-1.012,2.068-1.195,2.631-.277.855-.416,1.844-.416,2.965,0,1.133.158,2.168.475,3.105.195.578.58,1.41,1.154,2.496h-.709c-.57-.891-.924-1.459-1.061-1.705s-.285-.58-.445-1.002c-.219-.578-.371-1.195-.457-1.852-.043-.34-.064-.664-.064-.973,0-1.156.182-2.186.545-3.088.23-.574.711-1.434,1.441-2.578h.732Z"/>
      <path d="M220.833,277.598c-.309-.312-.463-.719-.463-1.219,0-.625.226-1.162.679-1.611s1.095-.674,1.926-.674c.804,0,1.434.212,1.891.636.456.424.685.919.685,1.485,0,.523-.133.947-.398,1.271-.148.184-.379.363-.691.539.349.16.624.344.824.551.372.391.559.898.559,1.523,0,.738-.248,1.364-.744,1.878s-1.197.771-2.104.771c-.816,0-1.507-.222-2.071-.665s-.847-1.087-.847-1.931c0-.496.121-.925.363-1.286s.602-.638,1.078-.829c-.293-.125-.521-.271-.686-.439ZM224.234,281.392c.322-.264.483-.657.483-1.181,0-.543-.166-.955-.498-1.236s-.758-.422-1.277-.422c-.504,0-.915.144-1.233.431s-.478.685-.478,1.192c0,.438.146.815.437,1.134s.741.478,1.351.478c.488,0,.894-.132,1.216-.396ZM224.039,277.242c.261-.261.392-.57.392-.931,0-.313-.125-.602-.374-.863-.25-.263-.63-.394-1.141-.394-.507,0-.873.131-1.1.394-.226.262-.339.569-.339.922,0,.396.146.704.438.928s.638.335,1.035.335c.464,0,.827-.13,1.088-.391Z"/>
      <path d="M226.78,284.957c.621-1.211,1.021-2.094,1.201-2.648.273-.84.41-1.824.41-2.953s-.158-2.162-.475-3.1c-.195-.578-.58-1.41-1.154-2.496h.709c.602.961.966,1.554,1.093,1.778s.265.534.413.929c.188.488.321.971.401,1.447s.12.936.12,1.377c0,1.156-.184,2.188-.551,3.094-.23.582-.709,1.439-1.436,2.572h-.732Z"/>
    </g>
    <rect class="cls-1" x="22.5" y="257" width="83" height="42"/>
    <g>
      <path d="M46.069,273.9h3.913c.644,0,1.175.096,1.594.287.794.367,1.191,1.045,1.191,2.033,0,.516-.106.938-.319,1.266s-.511.592-.894.791c.336.137.589.316.759.539s.265.584.284,1.084l.041,1.154c.012.328.039.572.082.732.07.273.195.449.375.527v.193h-1.43c-.039-.074-.07-.17-.094-.287s-.043-.344-.059-.68l-.07-1.436c-.026-.562-.229-.939-.609-1.131-.217-.105-.556-.158-1.019-.158h-2.579v3.691h-1.166v-8.607ZM49.856,277.844c.532,0,.953-.109,1.262-.328s.464-.613.464-1.184c0-.613-.216-1.031-.649-1.254-.232-.117-.542-.176-.929-.176h-2.77v2.941h2.621Z"/>
      <path d="M59,276.858c.555.539.832,1.331.832,2.377,0,1.011-.245,1.846-.733,2.506-.488.659-1.247.989-2.274.989-.857,0-1.538-.292-2.042-.875-.504-.584-.756-1.367-.756-2.351,0-1.054.266-1.894.797-2.518.532-.624,1.245-.937,2.141-.937.803,0,1.482.27,2.037.808ZM58.346,281.029c.257-.529.385-1.117.385-1.765,0-.585-.093-1.062-.278-1.428-.293-.578-.799-.866-1.518-.866-.638,0-1.101.245-1.391.737-.29.491-.435,1.085-.435,1.779,0,.667.145,1.223.435,1.668.29.444.749.667,1.379.667.691,0,1.166-.265,1.422-.793Z"/>
      <path d="M65.273,276.566c.443.344.71.936.8,1.775h-1.025c-.062-.387-.205-.708-.428-.964s-.58-.384-1.072-.384c-.672,0-1.152.327-1.441.983-.188.425-.281.949-.281,1.574s.133,1.156.398,1.586c.266.429.684.644,1.254.644.438,0,.784-.134,1.04-.4s.433-.631.53-1.094h1.025c-.117.832-.41,1.44-.879,1.825s-1.068.577-1.799.577c-.82,0-1.475-.3-1.963-.899s-.732-1.349-.732-2.247c0-1.102.268-1.959.803-2.572s1.217-.92,2.045-.92c.707,0,1.282.172,1.726.516Z"/>
      <path d="M67.104,273.9h1.014v4.997l2.705-2.665h1.347l-2.412,2.333,2.547,3.942h-1.347l-1.974-3.193-.866.838v2.355h-1.014v-8.607Z"/>
      <path d="M77.003,276.405c.416.209.732.479.949.812.21.316.35.686.419,1.107.062.289.093.75.093,1.383h-4.564c.02.639.168,1.15.448,1.536.279.386.711.579,1.296.579.546,0,.982-.183,1.308-.548.182-.212.311-.457.387-.735h1.037c-.027.23-.118.487-.272.771s-.327.515-.517.694c-.318.312-.711.523-1.18.633-.252.062-.537.094-.855.094-.776,0-1.434-.284-1.974-.853-.54-.568-.81-1.364-.81-2.388,0-1.008.271-1.826.815-2.455.543-.629,1.254-.943,2.131-.943.442,0,.872.104,1.287.313ZM77.381,278.869c-.042-.457-.142-.822-.296-1.096-.287-.508-.765-.762-1.435-.762-.48,0-.883.175-1.208.524s-.498.794-.517,1.333h3.457Z"/>
      <path d="M80.012,274.48h1.066v1.752h1.002v.861h-1.002v4.096c0,.219.074.365.223.439.082.043.219.064.41.064.051,0,.105-.002.164-.004.059-.003.127-.01.205-.02v.838c-.121.035-.247.061-.378.076s-.272.023-.425.023c-.492,0-.826-.126-1.002-.378s-.264-.579-.264-.981v-4.154h-.85v-.861h.85v-1.752Z"/>
    </g>
    <rect class="cls-1" x="22.5" y="198" width="83" height="42"/>
    <g>
      <path d="M49.564,214.9h1.67l2.475,7.277,2.458-7.277h1.659v8.607h-1.113v-5.08c0-.176.004-.467.012-.873s.012-.842.012-1.307l-2.458,7.26h-1.155l-2.481-7.26v.264c0,.211.006.532.018.964s.018.749.018.952v5.08h-1.113v-8.607Z"/>
      <path d="M60.503,217.232v4.166c0,.32.049.582.148.785.183.375.523.562,1.021.562.715,0,1.202-.328,1.461-.984.141-.352.211-.834.211-1.447v-3.082h1.055v6.275h-.996l.012-.926c-.134.238-.301.439-.5.604-.395.328-.874.492-1.437.492-.878,0-1.476-.299-1.794-.896-.172-.32-.259-.748-.259-1.283v-4.266h1.078Z"/>
      <path d="M70.669,217.858c.555.539.832,1.331.832,2.377,0,1.011-.245,1.846-.733,2.506-.488.659-1.247.989-2.274.989-.857,0-1.538-.292-2.042-.875-.504-.584-.756-1.367-.756-2.351,0-1.054.266-1.894.797-2.518.532-.624,1.245-.937,2.141-.937.803,0,1.482.27,2.037.808ZM70.015,222.029c.257-.529.385-1.117.385-1.765,0-.585-.093-1.062-.278-1.428-.293-.578-.799-.866-1.518-.866-.638,0-1.101.245-1.391.737-.29.491-.435,1.085-.435,1.779,0,.667.145,1.223.435,1.668.29.444.749.667,1.379.667.691,0,1.166-.265,1.422-.793Z"/>
      <path d="M72.796,217.232h1.002v.891c.297-.367.611-.631.943-.791s.701-.24,1.107-.24c.891,0,1.492.311,1.805.932.172.34.258.826.258,1.459v4.025h-1.072v-3.955c0-.383-.057-.691-.17-.926-.188-.391-.527-.586-1.02-.586-.25,0-.455.025-.615.076-.289.086-.543.258-.762.516-.176.207-.29.421-.343.642s-.079.536-.079.946v3.287h-1.055v-6.275Z"/>
    </g>
    <g>
      <line class="cls-3" x1="106" y1="160" x2="141.412" y2="160"/>
      <polygon points="140.682 162.493 145 160 140.682 157.507 140.682 162.493"/>
    </g>
    <g>
      <line class="cls-3" x1="106" y1="219" x2="141.412" y2="219"/>
      <polygon points="140.682 221.493 145 219 140.682 216.507 140.682 221.493"/>
    </g>
    <g>
      <line class="cls-3" x1="105.997" y1="278.005" x2="141.409" y2="278.005"/>
      <polygon points="140.679 280.498 144.997 278.005 140.679 275.511 140.679 280.498"/>
    </g>
    <line class="cls-3" x1="122.733" y1="221.979" x2="128.781" y2="215.931"/>
    <g>
      <path class="cls-4" d="M115.771,228.879v-.674c.635-.062,1.078-.165,1.328-.31.25-.146.438-.487.562-1.028h.693v6.963h-.938v-4.951h-1.646Z"/>
      <path class="cls-4" d="M124.934,227.417c.308.405.461.822.461,1.252h-.869c-.052-.276-.135-.493-.249-.649-.211-.293-.532-.439-.962-.439-.492,0-.882.228-1.172.682s-.451,1.104-.483,1.95c.202-.296.456-.518.762-.664.28-.13.592-.195.938-.195.586,0,1.097.188,1.533.562.436.375.654.933.654,1.675,0,.635-.207,1.197-.62,1.688-.414.489-1.002.734-1.768.734-.654,0-1.219-.248-1.694-.744-.475-.497-.713-1.332-.713-2.508,0-.869.106-1.606.317-2.212.407-1.158,1.151-1.738,2.231-1.738.781,0,1.326.203,1.633.608ZM124.275,232.764c.229-.312.344-.678.344-1.102,0-.357-.103-.699-.308-1.022-.205-.324-.578-.486-1.118-.486-.377,0-.709.126-.994.376-.285.251-.427.629-.427,1.133,0,.443.129.814.388,1.116.259.301.618.451,1.077.451.462,0,.808-.155,1.038-.466Z"/>
      <path class="cls-4" d="M126.084,228.601h1.138l1.201,1.841,1.216-1.841,1.069.024-1.763,2.524,1.841,2.681h-1.123l-1.299-1.963-1.26,1.963h-1.113l1.841-2.681-1.748-2.549Z"/>
      <path class="cls-4" d="M134.258,233.83v-1.709h-3.066v-.859l3.203-4.443h.742v4.536h1.03v.767h-1.03v1.709h-.879ZM134.243,231.354v-3.176l-2.241,3.176h2.241Z"/>
    </g>
    <line class="cls-3" x1="169.733" y1="231.979" x2="175.781" y2="225.931"/>
    <line class="cls-3" x1="169.733" y1="172.979" x2="175.781" y2="166.931"/>
    <g>
      <path class="cls-4" d="M162.771,179.879v-.674c.635-.062,1.078-.165,1.328-.31.25-.146.438-.487.562-1.028h.693v6.963h-.938v-4.951h-1.646Z"/>
      <path class="cls-4" d="M171.934,178.417c.308.405.461.822.461,1.252h-.869c-.052-.276-.135-.493-.249-.649-.211-.293-.532-.439-.962-.439-.492,0-.882.228-1.172.682s-.451,1.104-.483,1.95c.202-.296.456-.518.762-.664.28-.13.592-.195.938-.195.586,0,1.097.188,1.533.562.436.375.654.933.654,1.675,0,.635-.207,1.197-.62,1.688-.414.489-1.002.734-1.768.734-.654,0-1.219-.248-1.694-.744-.475-.497-.713-1.332-.713-2.508,0-.869.106-1.606.317-2.212.407-1.158,1.151-1.738,2.231-1.738.781,0,1.326.203,1.633.608ZM171.275,183.764c.229-.312.344-.678.344-1.102,0-.357-.103-.699-.308-1.022-.205-.324-.578-.486-1.118-.486-.377,0-.709.126-.994.376-.285.251-.427.629-.427,1.133,0,.443.129.814.388,1.116.259.301.618.451,1.077.451.462,0,.808-.155,1.038-.466Z"/>
      <path class="cls-4" d="M173.084,179.601h1.138l1.201,1.841,1.216-1.841,1.069.024-1.763,2.524,1.841,2.681h-1.123l-1.299-1.963-1.26,1.963h-1.113l1.841-2.681-1.748-2.549Z"/>
      <path class="cls-4" d="M181.258,184.83v-1.709h-3.066v-.859l3.203-4.443h.742v4.536h1.03v.767h-1.03v1.709h-.879ZM181.243,182.354v-3.176l-2.241,3.176h2.241Z"/>
    </g>
    <g>
      <path class="cls-4" d="M162.771,238.879v-.674c.635-.062,1.078-.165,1.328-.31.25-.146.438-.487.562-1.028h.693v6.963h-.938v-4.951h-1.646Z"/>
      <path class="cls-4" d="M171.934,237.417c.308.405.461.822.461,1.252h-.869c-.052-.276-.135-.493-.249-.649-.211-.293-.532-.439-.962-.439-.492,0-.882.228-1.172.682s-.451,1.104-.483,1.95c.202-.296.456-.518.762-.664.28-.13.592-.195.938-.195.586,0,1.097.188,1.533.562.436.375.654.933.654,1.675,0,.635-.207,1.197-.62,1.688-.414.489-1.002.734-1.768.734-.654,0-1.219-.248-1.694-.744-.475-.497-.713-1.332-.713-2.508,0-.869.106-1.606.317-2.212.407-1.158,1.151-1.738,2.231-1.738.781,0,1.326.203,1.633.608ZM171.275,242.764c.229-.312.344-.678.344-1.102,0-.357-.103-.699-.308-1.022-.205-.324-.578-.486-1.118-.486-.377,0-.709.126-.994.376-.285.251-.427.629-.427,1.133,0,.443.129.814.388,1.116.259.301.618.451,1.077.451.462,0,.808-.155,1.038-.466Z"/>
      <path class="cls-4" d="M173.084,238.601h1.138l1.201,1.841,1.216-1.841,1.069.024-1.763,2.524,1.841,2.681h-1.123l-1.299-1.963-1.26,1.963h-1.113l1.841-2.681-1.748-2.549Z"/>
      <path class="cls-4" d="M181.258,243.83v-1.709h-3.066v-.859l3.203-4.443h.742v4.536h1.03v.767h-1.03v1.709h-.879ZM181.243,241.354v-3.176l-2.241,3.176h2.241Z"/>
    </g>
    <line class="cls-3" x1="122.733" y1="280.979" x2="128.781" y2="274.931"/>
    <path class="cls-4" d="M123.828,288.738c-.257-.26-.386-.599-.386-1.016,0-.521.188-.968.566-1.343.377-.374.912-.562,1.604-.562.67,0,1.195.177,1.575.53.38.353.571.766.571,1.237,0,.437-.111.79-.332,1.06-.124.153-.315.303-.576.449.291.134.52.287.686.459.311.326.466.749.466,1.27,0,.615-.207,1.137-.62,1.565-.414.428-.998.642-1.753.642-.68,0-1.256-.185-1.726-.554-.47-.37-.706-.906-.706-1.609,0-.413.101-.771.303-1.071.202-.302.501-.531.898-.691-.244-.104-.435-.226-.571-.366ZM126.663,291.9c.269-.22.403-.548.403-.984,0-.452-.138-.796-.415-1.03s-.631-.352-1.064-.352c-.42,0-.763.12-1.028.359s-.398.57-.398.993c0,.365.121.68.364.945.243.265.618.397,1.125.397.407,0,.745-.109,1.013-.329ZM126.5,288.442c.218-.217.327-.476.327-.775,0-.262-.104-.501-.312-.72s-.524-.328-.95-.328c-.422,0-.728.109-.916.328s-.283.475-.283.769c0,.329.122.587.365.773.244.186.531.278.863.278.387,0,.688-.108.906-.325Z"/>
    <line class="cls-3" x1="122.733" y1="163.479" x2="128.781" y2="157.431"/>
    <g>
      <path class="cls-4" d="M115.771,170.379v-.674c.635-.062,1.078-.165,1.328-.31.25-.146.438-.487.562-1.028h.693v6.963h-.938v-4.951h-1.646Z"/>
      <path class="cls-4" d="M124.934,168.917c.308.405.461.822.461,1.252h-.869c-.052-.276-.135-.493-.249-.649-.211-.293-.532-.439-.962-.439-.492,0-.882.228-1.172.682s-.451,1.104-.483,1.95c.202-.296.456-.518.762-.664.28-.13.592-.195.938-.195.586,0,1.097.188,1.533.562.436.375.654.933.654,1.675,0,.635-.207,1.197-.62,1.688-.414.489-1.002.734-1.768.734-.654,0-1.219-.248-1.694-.744-.475-.497-.713-1.332-.713-2.508,0-.869.106-1.606.317-2.212.407-1.158,1.151-1.738,2.231-1.738.781,0,1.326.203,1.633.608ZM124.275,174.264c.229-.312.344-.678.344-1.102,0-.357-.103-.699-.308-1.022-.205-.324-.578-.486-1.118-.486-.377,0-.709.126-.994.376-.285.251-.427.629-.427,1.133,0,.443.129.814.388,1.116.259.301.618.451,1.077.451.462,0,.808-.155,1.038-.466Z"/>
      <path class="cls-4" d="M126.084,170.101h1.138l1.201,1.841,1.216-1.841,1.069.024-1.763,2.524,1.841,2.681h-1.123l-1.299-1.963-1.26,1.963h-1.113l1.841-2.681-1.748-2.549Z"/>
      <path class="cls-4" d="M134.258,175.33v-1.709h-3.066v-.859l3.203-4.443h.742v4.536h1.03v.767h-1.03v1.709h-.879ZM134.243,172.854v-3.176l-2.241,3.176h2.241Z"/>
    </g>
    <line class="cls-3" x1="261.233" y1="163.479" x2="267.281" y2="157.431"/>
    <path class="cls-4" d="M264.696,175.33v-1.709h-3.066v-.859l3.203-4.443h.742v4.536h1.03v.767h-1.03v1.709h-.879ZM264.682,172.854v-3.176l-2.241,3.176h2.241Z"/>
    <path class="cls-4" d="M309.328,171.238c-.257-.26-.386-.599-.386-1.016,0-.521.188-.968.566-1.343.377-.374.912-.562,1.604-.562.67,0,1.195.177,1.575.53.38.353.571.766.571,1.237,0,.437-.111.79-.332,1.06-.124.153-.315.303-.576.449.291.134.52.287.686.459.311.326.466.749.466,1.27,0,.615-.207,1.137-.62,1.565-.414.428-.998.642-1.753.642-.68,0-1.256-.185-1.726-.554-.47-.37-.706-.906-.706-1.609,0-.413.101-.771.303-1.071.202-.302.501-.531.898-.691-.244-.104-.435-.226-.571-.366ZM312.163,174.4c.269-.22.403-.548.403-.984,0-.452-.138-.796-.415-1.03s-.631-.352-1.064-.352c-.42,0-.763.12-1.028.359s-.398.57-.398.993c0,.365.121.68.364.945.243.265.618.397,1.125.397.407,0,.745-.109,1.013-.329ZM312,170.942c.218-.217.327-.476.327-.775,0-.262-.104-.501-.312-.72s-.524-.328-.95-.328c-.422,0-.728.109-.916.328s-.283.475-.283.769c0,.329.122.587.365.773.244.186.531.278.863.278.387,0,.688-.108.906-.325Z"/>
    <line class="cls-3" x1="169.733" y1="83.479" x2="175.781" y2="77.431"/>
    <line class="cls-3" x1="182.733" y1="83.479" x2="188.781" y2="77.431"/>
    <line class="cls-3" x1="195.733" y1="100.479" x2="201.781" y2="94.431"/>
    <line class="cls-3" x1="169.733" y1="212.479" x2="175.781" y2="206.431"/>
    <g>
      <line class="cls-3" x1="252.5" y1="160" x2="274.912" y2="160"/>
      <polygon points="274.182 162.493 278.5 160 274.182 157.507 274.182 162.493"/>
    </g>
    <g>
      <polyline class="cls-3" points="159.5 170 212 170 212 150 233.912 150"/>
      <polygon points="233.182 152.493 237.5 150 233.182 147.507 233.182 152.493"/>
    </g>
    <line class="cls-3" x1="308.233" y1="163.479" x2="314.281" y2="157.431"/>
    <g>
      <line class="cls-3" x1="299.5" y1="160" x2="321.912" y2="160"/>
      <polygon points="321.182 162.493 325.5 160 321.182 157.507 321.182 162.493"/>
    </g>
    <path class="cls-4" d="M356.328,171.238c-.257-.26-.386-.599-.386-1.016,0-.521.188-.968.566-1.343.377-.374.912-.562,1.604-.562.67,0,1.195.177,1.575.53.38.353.571.766.571,1.237,0,.437-.111.79-.332,1.06-.124.153-.315.303-.576.449.291.134.52.287.686.459.311.326.466.749.466,1.27,0,.615-.207,1.137-.62,1.565-.414.428-.998.642-1.753.642-.68,0-1.256-.185-1.726-.554-.47-.37-.706-.906-.706-1.609,0-.413.101-.771.303-1.071.202-.302.501-.531.898-.691-.244-.104-.435-.226-.571-.366ZM359.163,174.4c.269-.22.403-.548.403-.984,0-.452-.138-.796-.415-1.03s-.631-.352-1.064-.352c-.42,0-.763.12-1.028.359s-.398.57-.398.993c0,.365.121.68.364.945.243.265.618.397,1.125.397.407,0,.745-.109,1.013-.329ZM359,170.942c.218-.217.327-.476.327-.775,0-.262-.104-.501-.312-.72s-.524-.328-.95-.328c-.422,0-.728.109-.916.328s-.283.475-.283.769c0,.329.122.587.365.773.244.186.531.278.863.278.387,0,.688-.108.906-.325Z"/>
    <line class="cls-3" x1="355.233" y1="163.479" x2="361.281" y2="157.431"/>
    <path class="cls-4" d="M356.328,137.238c-.257-.26-.386-.599-.386-1.016,0-.521.188-.968.566-1.343.377-.374.912-.562,1.604-.562.67,0,1.195.177,1.575.53.38.353.571.766.571,1.237,0,.437-.111.79-.332,1.06-.124.153-.315.303-.576.449.291.134.52.287.686.459.311.326.466.749.466,1.27,0,.615-.207,1.137-.62,1.565-.414.428-.998.642-1.753.642-.68,0-1.256-.185-1.726-.554-.47-.37-.706-.906-.706-1.609,0-.413.101-.771.303-1.071.202-.302.501-.531.898-.691-.244-.104-.435-.226-.571-.366ZM359.163,140.4c.269-.22.403-.548.403-.984,0-.452-.138-.796-.415-1.03s-.631-.352-1.064-.352c-.42,0-.763.12-1.028.359s-.398.57-.398.993c0,.365.121.68.364.945.243.265.618.397,1.125.397.407,0,.745-.109,1.013-.329ZM359,136.942c.218-.217.327-.476.327-.775,0-.262-.104-.501-.312-.72s-.524-.328-.95-.328c-.422,0-.728.109-.916.328s-.283.475-.283.769c0,.329.122.587.365.773.244.186.531.278.863.278.387,0,.688-.108.906-.325Z"/>
    <line class="cls-3" x1="355.233" y1="129.479" x2="361.281" y2="123.431"/>
    <path class="cls-4" d="M385.328,219.599c-.257-.26-.386-.599-.386-1.016,0-.521.188-.968.566-1.343.377-.374.912-.562,1.604-.562.67,0,1.194.177,1.575.53.38.353.57.766.57,1.237,0,.437-.11.79-.332,1.06-.123.153-.315.303-.575.449.291.134.52.287.686.459.311.326.466.749.466,1.27,0,.615-.206,1.137-.62,1.565-.413.428-.997.642-1.753.642-.68,0-1.256-.185-1.726-.554-.471-.37-.706-.906-.706-1.609,0-.413.102-.771.303-1.071.202-.302.501-.531.898-.691-.244-.104-.435-.226-.571-.366ZM388.163,222.761c.269-.22.402-.548.402-.984,0-.452-.138-.796-.415-1.03-.276-.234-.631-.352-1.064-.352-.42,0-.763.12-1.027.359-.266.239-.398.57-.398.993,0,.365.121.68.364.945.242.265.617.397,1.125.397.407,0,.745-.109,1.014-.329ZM388,219.303c.218-.217.326-.476.326-.775,0-.262-.104-.501-.312-.72s-.524-.328-.95-.328c-.423,0-.728.109-.916.328s-.283.475-.283.769c0,.329.122.587.365.773.244.186.531.278.863.278.387,0,.688-.108.906-.325Z"/>
    <line class="cls-3" x1="384.233" y1="212" x2="390.281" y2="205.952"/>
    <path class="cls-4" d="M318.328,285.599c-.257-.26-.386-.599-.386-1.016,0-.521.188-.968.566-1.343.377-.374.912-.562,1.604-.562.67,0,1.195.177,1.575.53.38.353.571.766.571,1.237,0,.437-.111.79-.332,1.06-.124.153-.315.303-.576.449.291.134.52.287.686.459.311.326.466.749.466,1.27,0,.615-.207,1.137-.62,1.565-.414.428-.998.642-1.753.642-.68,0-1.256-.185-1.726-.554-.47-.37-.706-.906-.706-1.609,0-.413.101-.771.303-1.071.202-.302.501-.531.898-.691-.244-.104-.435-.226-.571-.366ZM321.163,288.761c.269-.22.403-.548.403-.984,0-.452-.138-.796-.415-1.03s-.631-.352-1.064-.352c-.42,0-.763.12-1.028.359s-.398.57-.398.993c0,.365.121.68.364.945.243.265.618.397,1.125.397.407,0,.745-.109,1.013-.329ZM321,285.303c.218-.217.327-.476.327-.775,0-.262-.104-.501-.312-.72s-.524-.328-.95-.328c-.422,0-.728.109-.916.328s-.283.475-.283.769c0,.329.122.587.365.773.244.186.531.278.863.278.387,0,.688-.108.906-.325Z"/>
    <line class="cls-3" x1="317.233" y1="276" x2="323.281" y2="269.952"/>
    <line class="cls-3" x1="278.233" y1="291" x2="284.281" y2="284.952"/>
    <path class="cls-4" d="M278.696,223.69v-1.709h-3.066v-.859l3.203-4.443h.742v4.536h1.03v.767h-1.03v1.709h-.879ZM278.682,221.215v-3.176l-2.241,3.176h2.241Z"/>
    <line class="cls-3" x1="275.233" y1="212" x2="281.281" y2="205.952"/>
    <g>
      <line class="cls-3" x1="346.5" y1="160" x2="368.912" y2="160"/>
      <polygon points="368.182 162.493 372.5 160 368.182 157.507 368.182 162.493"/>
    </g>
    <g>
      <line class="cls-3" x1="306.5" y1="89.5" x2="306.5" y2="67.088"/>
      <polygon points="308.993 67.818 306.5 63.5 304.007 67.818 308.993 67.818"/>
    </g>
    <g>
      <polyline class="cls-3" points="350.588 209 425 209 425 224.5"/>
      <polygon points="351.318 211.493 347 209 351.318 206.507 351.318 211.493"/>
    </g>
    <g>
      <line class="cls-3" x1="445" y1="224.5" x2="445" y2="185.088"/>
      <polygon points="447.493 185.818 445 181.5 442.507 185.818 447.493 185.818"/>
    </g>
    <g>
      <path class="cls-4" d="M144.771,79.379v-.674c.635-.062,1.078-.165,1.328-.31.25-.146.438-.487.562-1.028h.693v6.963h-.938v-4.951h-1.646Z"/>
      <path class="cls-4" d="M153.934,77.917c.308.405.461.822.461,1.252h-.869c-.052-.276-.135-.493-.249-.649-.211-.293-.532-.439-.962-.439-.492,0-.882.228-1.172.682s-.451,1.104-.483,1.95c.202-.296.456-.518.762-.664.28-.13.592-.195.938-.195.586,0,1.097.188,1.533.562.436.375.654.933.654,1.675,0,.635-.207,1.197-.62,1.688-.414.489-1.002.734-1.768.734-.654,0-1.219-.248-1.694-.744-.475-.497-.713-1.332-.713-2.508,0-.869.106-1.606.317-2.212.407-1.158,1.151-1.738,2.231-1.738.781,0,1.326.203,1.633.608ZM153.275,83.264c.229-.312.344-.678.344-1.102,0-.357-.103-.699-.308-1.022-.205-.324-.578-.486-1.118-.486-.377,0-.709.126-.994.376-.285.251-.427.629-.427,1.133,0,.443.129.814.388,1.116.259.301.618.451,1.077.451.462,0,.808-.155,1.038-.466Z"/>
      <path class="cls-4" d="M155.084,79.101h1.138l1.201,1.841,1.216-1.841,1.069.024-1.763,2.524,1.841,2.681h-1.123l-1.299-1.963-1.26,1.963h-1.113l1.841-2.681-1.748-2.549Z"/>
      <path class="cls-4" d="M163.258,84.33v-1.709h-3.066v-.859l3.203-4.443h.742v4.536h1.03v.767h-1.03v1.709h-.879ZM163.243,81.854v-3.176l-2.241,3.176h2.241Z"/>
    </g>
    <path class="cls-4" d="M208.196,101.33v-1.709h-3.066v-.859l3.203-4.443h.742v4.536h1.03v.767h-1.03v1.709h-.879ZM208.182,98.854v-3.176l-2.241,3.176h2.241Z"/>
    <line class="cls-3" x1="432" y1="252.5" x2="438.048" y2="246.452"/>
    <path class="cls-4" d="M441.828,249.238c-.257-.26-.386-.599-.386-1.016,0-.521.188-.968.566-1.343.377-.374.912-.562,1.604-.562.67,0,1.194.177,1.575.53.38.353.57.766.57,1.237,0,.437-.11.79-.332,1.06-.123.153-.315.303-.575.449.291.134.52.287.686.459.311.326.466.749.466,1.27,0,.615-.206,1.137-.62,1.565-.413.428-.997.642-1.753.642-.68,0-1.256-.185-1.726-.554-.471-.37-.706-.906-.706-1.609,0-.413.102-.771.303-1.071.202-.302.501-.531.898-.691-.244-.104-.435-.226-.571-.366ZM444.663,252.4c.269-.22.402-.548.402-.984,0-.452-.138-.796-.415-1.03-.276-.234-.631-.352-1.064-.352-.42,0-.763.12-1.027.359-.266.239-.398.57-.398.993,0,.365.121.68.364.945.242.265.617.397,1.125.397.407,0,.745-.109,1.014-.329ZM444.5,248.942c.218-.217.326-.476.326-.775,0-.262-.104-.501-.312-.72s-.524-.328-.95-.328c-.423,0-.728.109-.916.328s-.283.475-.283.769c0,.329.122.587.365.773.244.186.531.278.863.278.387,0,.688-.108.906-.325Z"/>
    <line class="cls-3" x1="442" y1="207.5" x2="448.048" y2="201.452"/>
    <path class="cls-4" d="M451.828,204.238c-.257-.26-.386-.599-.386-1.016,0-.521.188-.968.566-1.343.377-.374.912-.562,1.604-.562.67,0,1.194.177,1.575.53.38.353.57.766.57,1.237,0,.437-.11.79-.332,1.06-.123.153-.315.303-.575.449.291.134.52.287.686.459.311.326.466.749.466,1.27,0,.615-.206,1.137-.62,1.565-.413.428-.997.642-1.753.642-.68,0-1.256-.185-1.726-.554-.471-.37-.706-.906-.706-1.609,0-.413.102-.771.303-1.071.202-.302.501-.531.898-.691-.244-.104-.435-.226-.571-.366ZM454.663,207.4c.269-.22.402-.548.402-.984,0-.452-.138-.796-.415-1.03-.276-.234-.631-.352-1.064-.352-.42,0-.763.12-1.027.359-.266.239-.398.57-.398.993,0,.365.121.68.364.945.242.265.617.397,1.125.397.407,0,.745-.109,1.014-.329ZM454.5,203.942c.218-.217.326-.476.326-.775,0-.262-.104-.501-.312-.72s-.524-.328-.95-.328c-.423,0-.728.109-.916.328s-.283.475-.283.769c0,.329.122.587.365.773.244.186.531.278.863.278.387,0,.688-.108.906-.325Z"/>
    <polygon class="cls-3" points="159.5 140.5 159.5 157.588 159.5 161.313 159.5 179.5 145.5 171.261 145.5 148.739 159.5 140.5"/>
    <polygon class="cls-3" points="159.5 199.5 159.5 216.588 159.5 220.313 159.5 238.5 145.5 230.261 145.5 207.739 159.5 199.5"/>
    <polygon class="cls-3" points="238 179.5 238 162.412 238 158.687 238 140.5 252 148.739 252 171.261 238 179.5"/>
    <polygon class="cls-3" points="415.5 225 454.5 225 446.261 239 423.739 239 415.5 225"/>
    <g>
      <polyline class="cls-3" points="170.5 150 159.5 150 173 150 173 67.088"/>
      <polygon points="175.493 67.818 173 63.5 170.506 67.818 175.493 67.818"/>
    </g>
    <g>
      <line class="cls-3" x1="435" y1="256.5" x2="435" y2="243.088"/>
      <polygon points="437.493 243.818 435 239.5 432.507 243.818 437.493 243.818"/>
    </g>
    <g>
      <line class="cls-3" x1="434" y1="90.5" x2="434" y2="67.088"/>
      <polygon points="436.493 67.818 434 63.5 431.507 67.818 436.493 67.818"/>
    </g>
    <line class="cls-3" x1="431" y1="129.5" x2="437.048" y2="123.452"/>
    <path class="cls-4" d="M440.828,125.238c-.257-.26-.386-.599-.386-1.016,0-.521.188-.968.566-1.343.377-.374.912-.562,1.604-.562.67,0,1.194.177,1.575.53.38.353.57.766.57,1.237,0,.437-.11.79-.332,1.06-.123.153-.315.303-.575.449.291.134.52.287.686.459.311.326.466.749.466,1.27,0,.615-.206,1.137-.62,1.565-.413.428-.997.642-1.753.642-.68,0-1.256-.185-1.726-.554-.471-.37-.706-.906-.706-1.609,0-.413.102-.771.303-1.071.202-.302.501-.531.898-.691-.244-.104-.435-.226-.571-.366ZM443.663,128.4c.269-.22.402-.548.402-.984,0-.452-.138-.796-.415-1.03-.276-.234-.631-.352-1.064-.352-.42,0-.763.12-1.027.359-.266.239-.398.57-.398.993,0,.365.121.68.364.945.242.265.617.397,1.125.397.407,0,.745-.109,1.014-.329ZM443.5,124.942c.218-.217.326-.476.326-.775,0-.262-.104-.501-.312-.72s-.524-.328-.95-.328c-.423,0-.728.109-.916.328s-.283.475-.283.769c0,.329.122.587.365.773.244.186.531.278.863.278.387,0,.688-.108.906-.325Z"/>
    <line class="cls-3" x1="303.5" y1="80.5" x2="309.548" y2="74.452"/>
    <path class="cls-4" d="M315.696,80.33v-1.709h-3.066v-.859l3.203-4.443h.742v4.536h1.03v.767h-1.03v1.709h-.879ZM315.682,77.854v-3.176l-2.241,3.176h2.241Z"/>
    <line class="cls-3" x1="431" y1="80.5" x2="437.048" y2="74.452"/>
    <g>
      <path class="cls-4" d="M441.898,73.707c.402-.429.954-.643,1.656-.643.649,0,1.169.184,1.56.55s.586.834.586,1.403c0,.346-.071.625-.213.84s-.432.531-.87.947c-.319.303-.527.56-.623.77-.097.21-.145.52-.145.93h-.869c0-.465.055-.841.166-1.125.11-.285.356-.611.738-.979l.398-.386c.12-.11.217-.226.291-.347.136-.211.203-.431.203-.659,0-.318-.098-.596-.292-.83s-.516-.352-.965-.352c-.555,0-.938.202-1.151.605-.119.225-.188.549-.204.972h-.869c0-.703.201-1.269.603-1.696ZM442.961,79.314h.972v1.016h-.972v-1.016Z"/>
      <path class="cls-4" d="M447.46,73.707c.402-.429.954-.643,1.656-.643.649,0,1.169.184,1.56.55s.586.834.586,1.403c0,.346-.071.625-.213.84s-.432.531-.87.947c-.319.303-.527.56-.623.77-.097.21-.145.52-.145.93h-.869c0-.465.055-.841.166-1.125.11-.285.356-.611.738-.979l.398-.386c.12-.11.217-.226.291-.347.136-.211.203-.431.203-.659,0-.318-.098-.596-.292-.83s-.516-.352-.965-.352c-.555,0-.938.202-1.151.605-.119.225-.188.549-.204.972h-.869c0-.703.201-1.269.603-1.696ZM448.522,79.314h.972v1.016h-.972v-1.016Z"/>
      <path class="cls-4" d="M453.021,73.707c.402-.429.954-.643,1.656-.643.649,0,1.169.184,1.56.55s.586.834.586,1.403c0,.346-.071.625-.213.84s-.432.531-.87.947c-.319.303-.527.56-.623.77-.097.21-.145.52-.145.93h-.869c0-.465.055-.841.166-1.125.11-.285.356-.611.738-.979l.398-.386c.12-.11.217-.226.291-.347.136-.211.203-.431.203-.659,0-.318-.098-.596-.292-.83s-.516-.352-.965-.352c-.555,0-.938.202-1.151.605-.119.225-.188.549-.204.972h-.869c0-.703.201-1.269.603-1.696ZM454.084,79.314h.972v1.016h-.972v-1.016Z"/>
      <path class="cls-4" d="M458.583,73.707c.402-.429.954-.643,1.656-.643.649,0,1.169.184,1.56.55s.586.834.586,1.403c0,.346-.071.625-.213.84s-.432.531-.87.947c-.319.303-.527.56-.623.77-.097.21-.145.52-.145.93h-.869c0-.465.055-.841.166-1.125.11-.285.356-.611.738-.979l.398-.386c.12-.11.217-.226.291-.347.136-.211.203-.431.203-.659,0-.318-.098-.596-.292-.83s-.516-.352-.965-.352c-.555,0-.938.202-1.151.605-.119.225-.188.549-.204.972h-.869c0-.703.201-1.269.603-1.696ZM459.646,79.314h.972v1.016h-.972v-1.016Z"/>
    </g>
    <g>
      <line class="cls-3" x1="434" y1="138.5" x2="434" y2="115.088"/>
      <polygon points="436.493 115.818 434 111.5 431.507 115.818 436.493 115.818"/>
    </g>
    <g>
      <polyline class="cls-3" points="408 138.5 408 126 306.5 126 306.5 113.088"/>
      <polygon points="308.993 113.818 306.5 109.5 304.007 113.818 308.993 113.818"/>
    </g>
    <g>
      <polyline class="cls-3" points="268 268 320.5 268 320.5 278 369.412 278"/>
      <polygon points="368.682 280.493 373 278 368.682 275.507 368.682 280.493"/>
    </g>
    <g>
      <polyline class="cls-3" points="159.5 209 171.5 209 186 209.002 186 67.09"/>
      <polygon points="188.493 67.82 186 63.502 183.506 67.82 188.493 67.82"/>
    </g>
    <g>
      <polyline class="cls-3" points="326.5 209 199 209.002 199 67.09"/>
      <polygon points="201.493 67.82 199 63.502 196.506 67.82 201.493 67.82"/>
    </g>
    <g>
      <polyline class="cls-3" points="159.5 229 225 229 225 170 233.912 170"/>
      <polygon points="233.182 172.493 237.5 170 233.182 167.507 233.182 172.493"/>
    </g>
    <g>
      <polyline class="cls-3" points="268 288 294.5 288 294.5 302.912"/>
      <polygon points="292.007 302.182 294.5 306.5 296.993 302.182 292.007 302.182"/>
    </g>
    <g>
      <path class="cls-4" d="M264.035,312.852c.57.762.855,1.736.855,2.924,0,1.285-.326,2.354-.979,3.205-.766,1-1.857,1.5-3.275,1.5-1.324,0-2.365-.438-3.123-1.312-.676-.844-1.014-1.91-1.014-3.199,0-1.164.289-2.16.867-2.988.742-1.062,1.84-1.594,3.293-1.594,1.52,0,2.645.488,3.375,1.465ZM263.007,318.338c.459-.737.688-1.585.688-2.542,0-1.013-.265-1.828-.794-2.445-.529-.618-1.253-.927-2.171-.927-.891,0-1.617.306-2.18.918-.562.611-.844,1.514-.844,2.706,0,.954.241,1.758.724,2.413s1.265.982,2.347.982c1.027,0,1.771-.368,2.229-1.105Z"/>
      <path class="cls-4" d="M266.35,312.201h1.066v1.752h1.002v.861h-1.002v4.096c0,.219.074.365.223.439.082.043.219.064.41.064.051,0,.105-.002.164-.004.059-.003.127-.01.205-.02v.838c-.121.035-.247.061-.378.076s-.272.023-.425.023c-.492,0-.826-.126-1.002-.378s-.264-.579-.264-.981v-4.154h-.85v-.861h.85v-1.752Z"/>
      <path class="cls-4" d="M269.473,311.592h1.055v3.211c.25-.316.475-.539.674-.668.34-.223.764-.334,1.271-.334.91,0,1.527.318,1.852.955.176.348.264.83.264,1.447v4.025h-1.084v-3.955c0-.461-.059-.799-.176-1.014-.191-.344-.551-.516-1.078-.516-.438,0-.834.15-1.189.451s-.533.869-.533,1.705v3.328h-1.055v-8.637Z"/>
      <path class="cls-4" d="M280.022,314.126c.416.209.732.479.949.812.21.316.35.686.419,1.107.062.289.093.75.093,1.383h-4.564c.02.639.168,1.15.448,1.536.279.386.711.579,1.296.579.546,0,.982-.183,1.308-.548.182-.212.311-.457.387-.735h1.037c-.027.23-.118.487-.272.771s-.327.515-.517.694c-.318.312-.711.523-1.18.633-.252.062-.537.094-.855.094-.776,0-1.434-.284-1.974-.853-.54-.568-.81-1.364-.81-2.388,0-1.008.271-1.826.815-2.455.543-.629,1.254-.943,2.131-.943.442,0,.872.104,1.287.313ZM280.4,316.59c-.042-.457-.142-.822-.296-1.096-.287-.508-.765-.762-1.435-.762-.48,0-.883.175-1.208.524s-.498.794-.517,1.333h3.457Z"/>
      <path class="cls-4" d="M282.85,313.953h1.002v1.084c.082-.211.283-.468.604-.771s.689-.454,1.107-.454c.02,0,.053.002.1.006s.127.012.24.023v1.113c-.062-.012-.12-.02-.173-.023s-.11-.006-.173-.006c-.531,0-.939.171-1.225.513s-.428.735-.428,1.181v3.609h-1.055v-6.275Z"/>
      <path class="cls-4" d="M296.379,312.248c.594.574.925,1.227.99,1.957h-1.137c-.126-.555-.379-.994-.757-1.318s-.908-.486-1.591-.486c-.833,0-1.505.298-2.017.895-.512.596-.768,1.51-.768,2.741,0,1.009.231,1.826.693,2.454s1.152.941,2.069.941c.844,0,1.487-.33,1.928-.99.234-.348.409-.805.524-1.371h1.137c-.101.906-.433,1.666-.996,2.279-.676.738-1.587,1.107-2.734,1.107-.989,0-1.819-.303-2.491-.909-.884-.801-1.326-2.038-1.326-3.711,0-1.271.332-2.312.996-3.125.718-.884,1.708-1.325,2.971-1.325,1.077,0,1.913.287,2.508.861Z"/>
      <path class="cls-4" d="M298.846,311.621h1.055v8.607h-1.055v-8.607Z"/>
      <path class="cls-4" d="M302.537,313.953v4.166c0,.32.049.582.148.785.183.375.523.562,1.021.562.715,0,1.202-.328,1.461-.984.141-.352.211-.834.211-1.447v-3.082h1.055v6.275h-.996l.012-.926c-.134.238-.301.439-.5.604-.395.328-.874.492-1.437.492-.878,0-1.476-.299-1.794-.896-.172-.32-.259-.748-.259-1.283v-4.266h1.078Z"/>
      <path class="cls-4" d="M308.783,318.26c.032.352.122.621.269.809.271.34.742.51,1.412.51.398,0,.749-.085,1.052-.255s.455-.433.455-.788c0-.27-.121-.475-.363-.615-.155-.086-.46-.186-.917-.299l-.852-.211c-.544-.133-.945-.281-1.203-.445-.46-.285-.691-.68-.691-1.184,0-.594.217-1.074.65-1.441.433-.367,1.016-.551,1.749-.551.958,0,1.649.277,2.072.832.265.352.394.73.386,1.137h-.996c-.02-.237-.106-.453-.258-.647-.248-.275-.678-.413-1.29-.413-.408,0-.717.075-.927.228-.21.151-.315.353-.315.602,0,.272.138.49.414.653.159.098.394.184.704.258l.71.17c.772.184,1.29.361,1.552.533.41.27.615.693.615,1.271,0,.559-.215,1.041-.644,1.447-.429.406-1.083.609-1.961.609-.945,0-1.614-.212-2.008-.636s-.604-.948-.632-1.573h1.014Z"/>
      <path class="cls-4" d="M314.367,312.201h1.066v1.752h1.002v.861h-1.002v4.096c0,.219.074.365.223.439.082.043.219.064.41.064.051,0,.105-.002.164-.004.059-.003.127-.01.205-.02v.838c-.121.035-.247.061-.378.076s-.272.023-.425.023c-.492,0-.826-.126-1.002-.378s-.264-.579-.264-.981v-4.154h-.85v-.861h.85v-1.752Z"/>
      <path class="cls-4" d="M321.366,314.126c.416.209.732.479.949.812.21.316.35.686.419,1.107.062.289.093.75.093,1.383h-4.564c.02.639.168,1.15.448,1.536.279.386.711.579,1.296.579.546,0,.982-.183,1.308-.548.182-.212.311-.457.387-.735h1.037c-.027.23-.118.487-.272.771s-.327.515-.517.694c-.318.312-.711.523-1.18.633-.252.062-.537.094-.855.094-.776,0-1.434-.284-1.974-.853-.54-.568-.81-1.364-.81-2.388,0-1.008.271-1.826.815-2.455.543-.629,1.254-.943,2.131-.943.442,0,.872.104,1.287.313ZM321.744,316.59c-.042-.457-.142-.822-.296-1.096-.287-.508-.765-.762-1.435-.762-.48,0-.883.175-1.208.524s-.498.794-.517,1.333h3.457Z"/>
      <path class="cls-4" d="M324.193,313.953h1.002v1.084c.082-.211.283-.468.604-.771s.689-.454,1.107-.454c.02,0,.053.002.1.006s.127.012.24.023v1.113c-.062-.012-.12-.02-.173-.023s-.11-.006-.173-.006c-.531,0-.939.171-1.225.513s-.428.735-.428,1.181v3.609h-1.055v-6.275Z"/>
      <path class="cls-4" d="M328.787,318.26c.032.352.122.621.269.809.271.34.742.51,1.412.51.398,0,.749-.085,1.052-.255s.455-.433.455-.788c0-.27-.121-.475-.363-.615-.155-.086-.46-.186-.917-.299l-.852-.211c-.544-.133-.945-.281-1.203-.445-.46-.285-.691-.68-.691-1.184,0-.594.217-1.074.65-1.441.433-.367,1.016-.551,1.749-.551.958,0,1.649.277,2.072.832.265.352.394.73.386,1.137h-.996c-.02-.237-.106-.453-.258-.647-.248-.275-.678-.413-1.29-.413-.408,0-.717.075-.927.228-.21.151-.315.353-.315.602,0,.272.138.49.414.653.159.098.394.184.704.258l.71.17c.772.184,1.29.361,1.552.533.41.27.615.693.615,1.271,0,.559-.215,1.041-.644,1.447-.429.406-1.083.609-1.961.609-.945,0-1.614-.212-2.008-.636s-.604-.948-.632-1.573h1.014Z"/>
    </g>
    <g>
      <path d="M548.449,254.018l1.352,5.827,1.622-5.827h1.05l1.625,5.838,1.353-5.838h1.065l-1.885,7.172h-1.021l-1.655-5.947-1.665,5.947h-1.021l-1.875-7.172h1.055Z"/>
      <path d="M557.294,254.018h.894v.996h-.894v-.996ZM557.294,255.984h.894v5.205h-.894v-5.205Z"/>
      <path d="M562.389,256.121c.156.098.333.27.53.514v-2.643h.845v7.197h-.791v-.727c-.204.322-.445.555-.725.697-.279.144-.599.215-.958.215-.581,0-1.083-.244-1.508-.734s-.638-1.142-.638-1.955c0-.762.194-1.422.581-1.98.388-.559.941-.838,1.661-.838.399,0,.733.085,1.002.254ZM560.427,260.043c.236.377.616.566,1.138.566.404,0,.737-.176.998-.525s.391-.852.391-1.506c0-.661-.134-1.15-.403-1.468-.269-.317-.601-.476-.995-.476-.441,0-.798.169-1.071.508-.274.338-.411.836-.411,1.494,0,.56.118,1.028.354,1.406Z"/>
      <path d="M565.253,254.5h.889v1.461h.835v.717h-.835v3.414c0,.182.062.304.186.365.068.036.183.055.342.055.043,0,.088-.002.137-.004s.106-.008.171-.016v.697c-.101.029-.206.051-.314.064-.109.013-.228.02-.354.02-.41,0-.688-.105-.835-.315s-.22-.482-.22-.817v-3.463h-.708v-.717h.708v-1.461Z"/>
      <path d="M567.855,253.992h.879v2.676c.209-.264.396-.449.562-.557.283-.186.637-.277,1.06-.277.759,0,1.273.265,1.543.795.146.29.22.692.22,1.207v3.354h-.903v-3.295c0-.385-.049-.666-.146-.846-.159-.286-.459-.43-.898-.43-.364,0-.694.126-.991.377-.296.25-.444.724-.444,1.42v2.773h-.879v-7.197Z"/>
      <path d="M576.789,254.018l1.352,5.827,1.622-5.827h1.05l1.625,5.838,1.353-5.838h1.065l-1.885,7.172h-1.021l-1.655-5.947-1.665,5.947h-1.021l-1.875-7.172h1.055Z"/>
      <path d="M585.634,254.018h.894v.996h-.894v-.996ZM585.634,255.984h.894v5.205h-.894v-5.205Z"/>
      <path d="M590.729,256.121c.156.098.333.27.53.514v-2.643h.845v7.197h-.791v-.727c-.204.322-.445.555-.725.697-.279.144-.599.215-.958.215-.581,0-1.083-.244-1.508-.734s-.638-1.142-.638-1.955c0-.762.194-1.422.581-1.98.388-.559.941-.838,1.661-.838.399,0,.733.085,1.002.254ZM588.767,260.043c.236.377.616.566,1.138.566.404,0,.737-.176.998-.525s.391-.852.391-1.506c0-.661-.134-1.15-.403-1.468-.269-.317-.601-.476-.995-.476-.441,0-.798.169-1.071.508-.274.338-.411.836-.411,1.494,0,.56.118,1.028.354,1.406Z"/>
      <path d="M596.324,256.17c.166.114.334.28.506.498v-.658h.811v4.756c0,.664-.097,1.188-.292,1.572-.363.709-1.05,1.064-2.059,1.064-.561,0-1.033-.127-1.416-.379s-.597-.646-.643-1.184h.894c.042.234.126.414.253.541.197.195.508.293.933.293.67,0,1.108-.237,1.315-.713.123-.279.18-.779.17-1.498-.175.267-.386.465-.632.596-.247.13-.572.195-.978.195-.564,0-1.059-.201-1.481-.604s-.635-1.066-.635-1.994c0-.876.214-1.56.64-2.051.427-.492.941-.738,1.544-.738.409,0,.766.102,1.07.303ZM596.432,257.113c-.266-.312-.604-.469-1.015-.469-.615,0-1.037.289-1.264.869-.119.309-.18.714-.18,1.215,0,.59.119,1.038.357,1.346s.558.461.959.461c.629,0,1.07-.284,1.326-.854.143-.322.214-.699.214-1.129,0-.647-.133-1.127-.398-1.439Z"/>
      <path d="M602.209,256.104c.346.175.609.399.791.677.175.264.291.57.35.922.052.241.077.625.077,1.152h-3.804c.017.533.141.959.373,1.281.232.321.593.482,1.081.482.455,0,.818-.152,1.09-.457.151-.176.259-.381.322-.613h.864c-.022.192-.099.406-.227.643-.129.236-.272.429-.431.578-.265.261-.593.437-.983.527-.21.053-.447.078-.713.078-.646,0-1.195-.236-1.645-.71-.45-.474-.675-1.137-.675-1.989,0-.84.227-1.522.68-2.047.453-.523,1.045-.785,1.776-.785.368,0,.726.086,1.072.261ZM602.523,258.158c-.035-.381-.117-.686-.247-.914-.238-.423-.637-.635-1.195-.635-.4,0-.736.146-1.008.438-.271.291-.414.662-.431,1.111h2.881Z"/>
      <path d="M604.716,254.5h.889v1.461h.835v.717h-.835v3.414c0,.182.062.304.186.365.068.036.183.055.342.055.043,0,.088-.002.137-.004s.106-.008.171-.016v.697c-.101.029-.206.051-.314.064-.109.013-.228.02-.354.02-.41,0-.688-.105-.835-.315s-.22-.482-.22-.817v-3.463h-.708v-.717h.708v-1.461Z"/>
    </g>
    <rect class="cls-1" x="548.5" y="279.5" width="20" height="20"/>
    <path d="M555.924,285.725h5.971v1.055h-4.805v2.613h4.225v1.025h-4.225v3.914h-1.166v-8.607Z"/>
    <g>
      <path d="M548.065,307.018h4.976v.879h-4.004v2.178h3.521v.854h-3.521v3.262h-.972v-7.172Z"/>
      <path d="M553.988,308.961h.835v.902c.068-.176.236-.389.503-.642.268-.253.575-.378.923-.378.017,0,.044,0,.083.004.039.004.106.01.2.02v.928c-.052-.01-.1-.016-.144-.02-.044-.003-.092-.004-.145-.004-.442,0-.782.143-1.021.427-.237.284-.356.612-.356.983v3.008h-.879v-5.229Z"/>
      <path d="M560.097,311.025c.202-.026.337-.111.405-.254.039-.078.059-.191.059-.338,0-.301-.106-.52-.319-.654-.213-.136-.517-.203-.913-.203-.458,0-.783.124-.975.373-.107.137-.177.342-.21.613h-.82c.017-.646.226-1.097.627-1.35s.867-.379,1.397-.379c.614,0,1.113.117,1.497.352.38.234.57.599.57,1.094v3.012c0,.092.019.165.057.221.037.055.116.082.236.082.039,0,.083-.002.132-.007s.102-.013.156-.022v.65c-.137.039-.24.062-.312.072-.071.01-.169.016-.293.016-.303,0-.522-.107-.659-.322-.071-.114-.122-.275-.151-.484-.179.234-.436.438-.771.611-.335.172-.704.258-1.108.258-.484,0-.881-.146-1.188-.441-.308-.293-.462-.662-.462-1.104,0-.484.151-.86.454-1.127s.7-.431,1.191-.492l1.401-.176ZM558.246,313.399c.186.146.405.22.659.22.31,0,.609-.072.898-.215.488-.237.732-.625.732-1.165v-.707c-.107.068-.245.126-.414.171-.169.047-.335.078-.497.098l-.531.068c-.318.043-.558.109-.718.2-.272.153-.408.396-.408.731,0,.253.093.453.278.599Z"/>
      <path d="M565.763,309.17c.166.114.334.28.506.498v-.658h.811v4.756c0,.664-.097,1.188-.292,1.572-.363.709-1.05,1.064-2.059,1.064-.561,0-1.033-.127-1.416-.379s-.597-.646-.643-1.184h.894c.042.234.126.414.253.541.197.195.508.293.933.293.67,0,1.108-.237,1.315-.713.123-.279.18-.779.17-1.498-.175.267-.386.465-.632.596-.247.13-.572.195-.978.195-.564,0-1.059-.201-1.481-.604s-.635-1.066-.635-1.994c0-.876.214-1.56.64-2.051.427-.492.941-.738,1.544-.738.409,0,.766.102,1.07.303ZM565.87,310.113c-.266-.312-.604-.469-1.015-.469-.615,0-1.037.289-1.264.869-.119.309-.18.714-.18,1.215,0,.59.119,1.038.357,1.346s.558.461.959.461c.629,0,1.07-.284,1.326-.854.143-.322.214-.699.214-1.129,0-.647-.133-1.127-.398-1.439Z"/>
      <path d="M568.417,308.961h.869v.742c.209-.258.397-.445.566-.562.29-.198.619-.297.986-.297.417,0,.752.102,1.006.307.144.117.273.29.391.518.195-.279.425-.486.688-.622s.561-.202.889-.202c.703,0,1.182.254,1.436.762.137.273.205.641.205,1.104v3.48h-.913v-3.633c0-.348-.087-.587-.261-.717-.175-.131-.387-.195-.638-.195-.345,0-.642.115-.891.346-.249.231-.374.617-.374,1.158v3.041h-.894v-3.412c0-.355-.042-.614-.127-.777-.133-.244-.382-.365-.747-.365-.332,0-.634.128-.905.385-.272.258-.408.723-.408,1.396v2.773h-.879v-5.229Z"/>
      <path d="M579.978,309.104c.346.175.609.399.791.677.175.264.291.57.35.922.052.241.077.625.077,1.152h-3.804c.017.533.141.959.373,1.281.232.321.593.482,1.081.482.455,0,.818-.152,1.09-.457.151-.176.259-.381.322-.613h.864c-.022.192-.099.406-.227.643-.129.236-.272.429-.431.578-.265.261-.593.437-.983.527-.21.053-.447.078-.713.078-.646,0-1.195-.236-1.645-.71-.45-.474-.675-1.137-.675-1.989,0-.84.227-1.522.68-2.047.453-.523,1.045-.785,1.776-.785.368,0,.726.086,1.072.261ZM580.292,311.158c-.035-.381-.117-.686-.247-.914-.238-.423-.637-.635-1.195-.635-.4,0-.736.146-1.008.438-.271.291-.414.662-.431,1.111h2.881Z"/>
      <path d="M582.309,308.961h.835v.742c.248-.307.51-.526.786-.66.277-.133.585-.199.923-.199.742,0,1.244.258,1.504.775.144.283.215.689.215,1.217v3.354h-.894v-3.295c0-.319-.047-.576-.142-.771-.156-.326-.439-.488-.85-.488-.208,0-.379.021-.513.062-.24.072-.452.215-.635.43-.146.173-.241.352-.285.535s-.066.447-.066.789v2.738h-.879v-5.229Z"/>
      <path d="M588.046,307.5h.889v1.461h.835v.717h-.835v3.414c0,.182.062.304.186.365.068.036.183.055.342.055.043,0,.088-.002.137-.004s.106-.008.171-.016v.697c-.101.029-.206.051-.314.064-.109.013-.228.02-.354.02-.41,0-.688-.105-.835-.315s-.22-.482-.22-.817v-3.463h-.708v-.717h.708v-1.461Z"/>
      <path d="M593.879,309.104c.346.175.609.399.791.677.175.264.291.57.35.922.052.241.077.625.077,1.152h-3.804c.017.533.141.959.373,1.281.232.321.593.482,1.081.482.455,0,.818-.152,1.09-.457.151-.176.259-.381.322-.613h.864c-.022.192-.099.406-.227.643-.129.236-.272.429-.431.578-.265.261-.593.437-.983.527-.21.053-.447.078-.713.078-.646,0-1.195-.236-1.645-.71-.45-.474-.675-1.137-.675-1.989,0-.84.227-1.522.68-2.047.453-.523,1.045-.785,1.776-.785.368,0,.726.086,1.072.261ZM594.193,311.158c-.035-.381-.117-.686-.247-.914-.238-.423-.637-.635-1.195-.635-.4,0-.736.146-1.008.438-.271.291-.414.662-.431,1.111h2.881Z"/>
      <path d="M596.234,308.961h.835v.902c.068-.176.236-.389.503-.642.268-.253.575-.378.923-.378.017,0,.044,0,.083.004.039.004.106.01.2.02v.928c-.052-.01-.1-.016-.144-.02-.044-.003-.092-.004-.145-.004-.442,0-.782.143-1.021.427-.237.284-.356.612-.356.983v3.008h-.879v-5.229Z"/>
    </g>
  </g>
</svg>