<?xml version="1.0" encoding="UTF-8"?>
<svg id="Layer_2" data-name="Layer 2" xmlns="http://www.w3.org/2000/svg" viewBox="0 0 460.75 206.45">
  <defs>
    <style>
      .cls-1 {
        stroke-dasharray: 0 4;
        stroke-linecap: round;
      }

      .cls-1, .cls-2, .cls-3, .cls-4, .cls-5, .cls-6, .cls-7, .cls-8, .cls-9, .cls-10, .cls-11, .cls-12 {
        stroke-miterlimit: 10;
      }

      .cls-1, .cls-2, .cls-5, .cls-6, .cls-7, .cls-9 {
        fill: none;
      }

      .cls-1, .cls-2, .cls-9, .cls-10, .cls-11, .cls-12 {
        stroke: #231f20;
      }

      .cls-3, .cls-4, .cls-5, .cls-6, .cls-8 {
        stroke: #6d6e71;
      }

      .cls-3, .cls-4, .cls-13, .cls-10, .cls-11, .cls-12 {
        fill: #fff;
      }

      .cls-3, .cls-6, .cls-8, .cls-9, .cls-12 {
        stroke-width: .5px;
      }

      .cls-4, .cls-11 {
        stroke-width: .7px;
      }

      .cls-14, .cls-8 {
        fill: #231f20;
      }

      .cls-15 {
        fill: #6d6e71;
      }

      .cls-7 {
        stroke: #bcbec0;
        stroke-dasharray: 2;
      }
    </style>
  </defs>
  <g id="Layer_2-2" data-name="Layer 2">
    <line class="cls-7" x1="336.45" y1="194.21" x2="336.45" y2="48.09"/>
    <g>
      <path class="cls-14" d="M68.3,2.44c.47.63.71,1.45.71,2.44,0,1.07-.27,1.96-.82,2.67-.64.83-1.55,1.25-2.73,1.25-1.1,0-1.97-.37-2.6-1.09-.56-.7-.84-1.59-.84-2.67,0-.97.24-1.8.72-2.49.62-.89,1.53-1.33,2.74-1.33s2.2.41,2.81,1.22ZM67.44,7.01c.38-.61.57-1.32.57-2.12,0-.84-.22-1.52-.66-2.04-.44-.51-1.04-.77-1.81-.77s-1.35.25-1.82.76-.7,1.26-.7,2.25c0,.79.2,1.47.6,2.01.4.54,1.05.82,1.96.82.86,0,1.48-.31,1.86-.92Z"/>
      <path class="cls-14" d="M69.98,3.38h.86v.69c.18-.24.37-.42.58-.55.3-.2.65-.29,1.05-.29.59,0,1.1.23,1.51.68.41.45.62,1.1.62,1.95,0,1.14-.3,1.95-.9,2.44-.38.31-.82.46-1.32.46-.4,0-.73-.09-1-.26-.16-.1-.33-.27-.52-.5v2.67h-.88V3.38ZM73.28,7.48c.27-.34.41-.86.41-1.54,0-.42-.06-.78-.18-1.07-.23-.58-.65-.86-1.25-.86s-1.03.3-1.25.91c-.12.33-.18.74-.18,1.24,0,.4.06.75.18,1.03.23.54.65.81,1.25.81.41,0,.75-.17,1.03-.52Z"/>
      <path class="cls-14" d="M78.84,3.5c.35.17.61.4.79.68.17.26.29.57.35.92.05.24.08.62.08,1.15h-3.8c.02.53.14.96.37,1.28s.59.48,1.08.48c.46,0,.82-.15,1.09-.46.15-.18.26-.38.32-.61h.86c-.02.19-.1.41-.23.64-.13.24-.27.43-.43.58-.26.26-.59.44-.98.53-.21.05-.45.08-.71.08-.65,0-1.2-.24-1.64-.71-.45-.47-.67-1.14-.67-1.99s.23-1.52.68-2.05c.45-.52,1.04-.79,1.78-.79.37,0,.73.09,1.07.26ZM79.16,5.55c-.04-.38-.12-.69-.25-.91-.24-.42-.64-.63-1.2-.63-.4,0-.74.15-1.01.44-.27.29-.42.66-.43,1.11h2.88Z"/>
      <path class="cls-14" d="M81.2,3.36h.83v.9c.07-.18.24-.39.5-.64.27-.25.57-.38.92-.38.02,0,.04,0,.08,0,.04,0,.11,0,.2.02v.93c-.05,0-.1-.02-.14-.02-.04,0-.09,0-.14,0-.44,0-.78.14-1.02.43-.24.29-.36.61-.36.98v3.01h-.88V3.36Z"/>
      <path class="cls-14" d="M87.31,5.42c.2-.03.34-.11.41-.25.04-.08.06-.19.06-.34,0-.3-.11-.52-.32-.65s-.52-.2-.91-.2c-.46,0-.78.12-.97.37-.11.14-.18.34-.21.61h-.82c.02-.65.23-1.1.63-1.35.4-.25.87-.38,1.4-.38.61,0,1.11.12,1.5.35.38.23.57.6.57,1.09v3.01c0,.09.02.16.06.22.04.05.12.08.24.08.04,0,.08,0,.13,0s.1-.01.16-.02v.65c-.14.04-.24.06-.31.07s-.17.01-.29.01c-.3,0-.52-.11-.66-.32-.07-.11-.12-.28-.15-.48-.18.23-.44.44-.77.61-.34.17-.71.26-1.11.26-.49,0-.88-.15-1.19-.44-.31-.29-.46-.66-.46-1.1,0-.48.15-.86.45-1.13s.7-.43,1.19-.49l1.4-.18ZM85.46,7.8c.19.15.41.22.66.22.31,0,.61-.07.9-.21.49-.24.73-.62.73-1.17v-.71c-.11.07-.25.13-.41.17s-.33.08-.5.1l-.53.07c-.32.04-.56.11-.72.2-.27.15-.41.4-.41.73,0,.25.09.45.28.6Z"/>
      <path class="cls-14" d="M90.06,3.36h.83v.74c.25-.31.51-.53.79-.66.28-.13.58-.2.92-.2.74,0,1.24.26,1.5.78.14.28.21.69.21,1.22v3.35h-.89v-3.3c0-.32-.05-.58-.14-.77-.16-.33-.44-.49-.85-.49-.21,0-.38.02-.51.06-.24.07-.45.21-.63.43-.15.17-.24.35-.29.53-.04.18-.07.45-.07.79v2.74h-.88V3.36Z"/>
      <path class="cls-14" d="M98.5,3.52c.16.1.33.27.53.51V1.39h.84v7.2h-.79v-.73c-.2.32-.45.55-.72.7-.28.14-.6.21-.96.21-.58,0-1.08-.25-1.51-.74-.43-.49-.64-1.14-.64-1.96,0-.76.19-1.42.58-1.98.39-.56.94-.84,1.66-.84.4,0,.73.08,1,.25ZM96.54,7.44c.24.38.62.57,1.14.57.41,0,.74-.17,1-.53.26-.35.39-.85.39-1.51s-.13-1.15-.4-1.47c-.27-.32-.6-.48-1-.48-.44,0-.8.17-1.07.51-.27.34-.41.84-.41,1.49,0,.56.12,1.03.35,1.41Z"/>
      <path class="cls-14" d="M109.16,1.94c.5.48.77,1.02.83,1.63h-.95c-.11-.46-.32-.83-.63-1.1-.32-.27-.76-.41-1.33-.41-.69,0-1.25.25-1.68.75-.43.5-.64,1.26-.64,2.28,0,.84.19,1.52.58,2.05.39.52.96.78,1.72.78.7,0,1.24-.28,1.61-.83.2-.29.34-.67.44-1.14h.95c-.08.75-.36,1.39-.83,1.9-.56.62-1.32.92-2.28.92-.82,0-1.52-.25-2.08-.76-.74-.67-1.11-1.7-1.11-3.09,0-1.06.28-1.93.83-2.6.6-.74,1.42-1.1,2.48-1.1.9,0,1.59.24,2.09.72Z"/>
      <path class="cls-14" d="M114.98,3.88c.46.45.69,1.11.69,1.98s-.2,1.54-.61,2.09c-.41.55-1.04.82-1.9.82-.71,0-1.28-.24-1.7-.73s-.63-1.14-.63-1.96c0-.88.22-1.58.66-2.1s1.04-.78,1.78-.78c.67,0,1.23.22,1.7.67ZM114.43,7.35c.21-.44.32-.93.32-1.47,0-.49-.08-.88-.23-1.19-.24-.48-.67-.72-1.26-.72-.53,0-.92.21-1.16.61-.24.41-.36.9-.36,1.48s.12,1.02.36,1.39c.24.37.62.56,1.15.56.58,0,.97-.22,1.18-.66Z"/>
      <path class="cls-14" d="M116.77,1.41h.88v7.17h-.88V1.41Z"/>
      <path class="cls-14" d="M119,1.41h.88v7.17h-.88V1.41Z"/>
      <path class="cls-14" d="M124.42,3.5c.35.17.61.4.79.68.18.26.29.57.35.92.05.24.08.62.08,1.15h-3.8c.02.53.14.96.37,1.28s.59.48,1.08.48c.46,0,.82-.15,1.09-.46.15-.18.26-.38.32-.61h.86c-.02.19-.1.41-.23.64-.13.24-.27.43-.43.58-.27.26-.59.44-.98.53-.21.05-.45.08-.71.08-.65,0-1.2-.24-1.65-.71-.45-.47-.67-1.14-.67-1.99s.23-1.52.68-2.05c.45-.52,1.04-.79,1.78-.79.37,0,.73.09,1.07.26ZM124.74,5.55c-.04-.38-.12-.69-.25-.91-.24-.42-.64-.63-1.2-.63-.4,0-.74.15-1.01.44-.27.29-.41.66-.43,1.11h2.88Z"/>
      <path class="cls-14" d="M130.21,3.64c.37.29.59.78.67,1.48h-.85c-.05-.32-.17-.59-.36-.8-.19-.21-.48-.32-.89-.32-.56,0-.96.27-1.2.82-.16.35-.23.79-.23,1.31s.11.96.33,1.32c.22.36.57.54,1.04.54.36,0,.65-.11.87-.33.21-.22.36-.53.44-.91h.85c-.1.69-.34,1.2-.73,1.52-.39.32-.89.48-1.5.48-.68,0-1.23-.25-1.64-.75-.41-.5-.61-1.12-.61-1.87,0-.92.22-1.63.67-2.14.45-.51,1.01-.77,1.7-.77.59,0,1.07.14,1.44.43Z"/>
      <path class="cls-14" d="M131.93,1.9h.89v1.46h.83v.72h-.83v3.41c0,.18.06.3.19.37.07.04.18.05.34.05.04,0,.09,0,.14,0,.05,0,.11,0,.17-.02v.7c-.1.03-.21.05-.32.06-.11.01-.23.02-.35.02-.41,0-.69-.11-.83-.32s-.22-.48-.22-.82v-3.46h-.71v-.72h.71v-1.46Z"/>
      <path class="cls-14" d="M138.32,3.88c.46.45.69,1.11.69,1.98s-.2,1.54-.61,2.09c-.41.55-1.04.82-1.9.82-.71,0-1.28-.24-1.7-.73-.42-.49-.63-1.14-.63-1.96,0-.88.22-1.58.66-2.1s1.04-.78,1.79-.78c.67,0,1.23.22,1.7.67ZM137.78,7.35c.21-.44.32-.93.32-1.47,0-.49-.08-.88-.23-1.19-.25-.48-.67-.72-1.27-.72-.53,0-.92.21-1.16.61-.24.41-.36.9-.36,1.48s.12,1.02.36,1.39c.24.37.62.56,1.15.56.58,0,.97-.22,1.19-.66Z"/>
      <path class="cls-14" d="M140.12,3.36h.83v.9c.07-.18.24-.39.5-.64.27-.25.58-.38.92-.38.02,0,.04,0,.08,0,.04,0,.11,0,.2.02v.93c-.05,0-.1-.02-.14-.02-.04,0-.09,0-.14,0-.44,0-.78.14-1.02.43-.24.29-.36.61-.36.98v3.01h-.88V3.36Z"/>
      <path class="cls-14" d="M143.89,3.43h1.02v1.06h-1.02v-1.06ZM143.89,7.52h1.02v1.06h-1.02v-1.06Z"/>
      <path class="cls-14" d="M149.07,1.41h1.39l2.06,6.06,2.05-6.06h1.38v7.17h-.93v-4.23c0-.15,0-.39,0-.73,0-.34,0-.7,0-1.09l-2.05,6.05h-.96l-2.07-6.05v.22c0,.18,0,.44.01.8,0,.36.01.62.01.79v4.23h-.93V1.41Z"/>
      <path class="cls-14" d="M157.31,1.41h.89v1h-.89v-1ZM157.31,3.38h.89v5.21h-.89V3.38Z"/>
      <path class="cls-14" d="M159.53,3.36h.83v.74c.25-.31.51-.53.79-.66.28-.13.58-.2.92-.2.74,0,1.24.26,1.5.78.14.28.21.69.21,1.22v3.35h-.89v-3.3c0-.32-.05-.58-.14-.77-.16-.33-.44-.49-.85-.49-.21,0-.38.02-.51.06-.24.07-.45.21-.63.43-.15.17-.24.35-.29.53-.04.18-.07.45-.07.79v2.74h-.88V3.36Z"/>
      <path class="cls-14" d="M165.09,1.41h.89v1h-.89v-1ZM165.09,3.38h.89v5.21h-.89V3.38Z"/>
      <path class="cls-14" d="M167.32,3.36h.87v.74c.21-.26.4-.44.57-.56.29-.2.62-.3.99-.3.42,0,.75.1,1.01.31.14.12.27.29.39.52.2-.28.42-.49.69-.62.26-.13.56-.2.89-.2.7,0,1.18.25,1.44.76.14.27.21.64.21,1.1v3.48h-.91v-3.63c0-.35-.09-.59-.26-.72-.17-.13-.39-.2-.64-.2-.34,0-.64.12-.89.35-.25.23-.37.62-.37,1.16v3.04h-.89v-3.41c0-.36-.04-.61-.13-.78-.13-.24-.38-.37-.75-.37-.33,0-.63.13-.91.39-.27.26-.41.72-.41,1.4v2.77h-.88V3.36Z"/>
      <path class="cls-14" d="M178.45,5.42c.2-.03.34-.11.41-.25.04-.08.06-.19.06-.34,0-.3-.11-.52-.32-.65s-.52-.2-.91-.2c-.46,0-.78.12-.97.37-.11.14-.18.34-.21.61h-.82c.02-.65.23-1.1.63-1.35.4-.25.87-.38,1.4-.38.61,0,1.11.12,1.5.35.38.23.57.6.57,1.09v3.01c0,.09.02.16.06.22.04.05.12.08.24.08.04,0,.08,0,.13,0s.1-.01.16-.02v.65c-.14.04-.24.06-.31.07s-.17.01-.29.01c-.3,0-.52-.11-.66-.32-.07-.11-.12-.28-.15-.48-.18.23-.44.44-.77.61-.34.17-.71.26-1.11.26-.49,0-.88-.15-1.19-.44-.31-.29-.46-.66-.46-1.1,0-.48.15-.86.45-1.13s.7-.43,1.19-.49l1.4-.18ZM176.6,7.8c.19.15.41.22.66.22.31,0,.61-.07.9-.21.49-.24.73-.62.73-1.17v-.71c-.11.07-.25.13-.41.17s-.33.08-.5.1l-.53.07c-.32.04-.56.11-.72.2-.27.15-.41.4-.41.73,0,.25.09.45.28.6Z"/>
      <path class="cls-14" d="M181.23,1.41h.88v7.17h-.88V1.41Z"/>
    </g>
  </g>
  <g id="Layer_1-2" data-name="Layer 1">
    <g>
      <line class="cls-6" x1="146.28" y1="65.53" x2="157.08" y2="65.53"/>
      <polygon class="cls-15" points="156.72 66.78 158.87 65.53 156.72 64.29 156.72 66.78"/>
    </g>
    <g>
      <line class="cls-6" x1="146.28" y1="96.11" x2="157.08" y2="96.11"/>
      <polygon class="cls-15" points="156.72 97.36 158.87 96.11 156.72 94.86 156.72 97.36"/>
    </g>
    <g>
      <line class="cls-6" x1="146.28" y1="126.69" x2="157.08" y2="126.69"/>
      <polygon class="cls-15" points="156.72 127.94 158.87 126.69 156.72 125.44 156.72 127.94"/>
    </g>
    <rect class="cls-4" x="242.61" y="54.45" width="27.49" height="133.32"/>
    <g>
      <line class="cls-8" x1="248.6" y1="64.47" x2="264.12" y2="177.81"/>
      <line class="cls-8" x1="264.12" y1="64.42" x2="248.6" y2="177.76"/>
    </g>
    <rect class="cls-12" x="283.04" y="59.99" width="40.48" height="11.08"/>
    <g>
      <polyline class="cls-6" points="447.81 121.07 460.5 121.07 460.5 31.3 146.28 31.3 146.28 176.6 157.08 176.6"/>
      <polygon class="cls-15" points="156.72 177.85 158.87 176.6 156.72 175.35 156.72 177.85"/>
    </g>
    <g>
      <path class="cls-14" d="M287.13,53.37h.67v.72c.05-.14.19-.31.4-.51.21-.2.46-.3.74-.3.01,0,.04,0,.07,0,.03,0,.08,0,.16.02v.74s-.08-.01-.12-.02c-.04,0-.07,0-.12,0-.35,0-.63.11-.82.34-.19.23-.29.49-.29.79v2.41h-.7v-4.18Z"/>
      <path class="cls-14" d="M290.19,56.25c.02.23.08.41.18.54.18.23.49.34.94.34.27,0,.5-.06.7-.17s.3-.29.3-.53c0-.18-.08-.32-.24-.41-.1-.06-.31-.12-.61-.2l-.57-.14c-.36-.09-.63-.19-.8-.3-.31-.19-.46-.45-.46-.79,0-.4.14-.72.43-.96.29-.25.68-.37,1.17-.37.64,0,1.1.18,1.38.55.18.23.26.49.26.76h-.66c-.01-.16-.07-.3-.17-.43-.17-.18-.45-.28-.86-.28-.27,0-.48.05-.62.15s-.21.24-.21.4c0,.18.09.33.28.44.11.06.26.12.47.17l.47.11c.51.12.86.24,1.03.36.27.18.41.46.41.85s-.14.69-.43.96c-.29.27-.72.41-1.31.41-.63,0-1.08-.14-1.34-.42-.26-.28-.4-.63-.42-1.05h.68Z"/>
      <path class="cls-14" d="M294.02,53.6v-.54c.51-.05.86-.13,1.06-.25.2-.12.35-.39.45-.82h.55v5.57h-.75v-3.96h-1.32Z"/>
      <path class="cls-14" d="M302.74,53.5c.12.08.27.21.42.41v-2.11h.68v5.76h-.63v-.58c-.16.26-.36.44-.58.56-.22.11-.48.17-.77.17-.46,0-.87-.2-1.21-.59-.34-.39-.51-.91-.51-1.56,0-.61.16-1.14.46-1.58.31-.45.75-.67,1.33-.67.32,0,.59.07.8.2ZM301.17,56.64c.19.3.49.45.91.45.32,0,.59-.14.8-.42.21-.28.31-.68.31-1.21s-.11-.92-.32-1.17-.48-.38-.8-.38c-.35,0-.64.13-.86.41-.22.27-.33.67-.33,1.2,0,.45.09.82.28,1.12Z"/>
      <path class="cls-14" d="M307.14,55.03c.16-.02.27-.09.32-.2.03-.06.05-.15.05-.27,0-.24-.08-.41-.25-.52-.17-.11-.41-.16-.73-.16-.37,0-.63.1-.78.3-.09.11-.14.27-.17.49h-.66c.01-.52.18-.88.5-1.08.32-.2.69-.3,1.12-.3.49,0,.89.09,1.2.28.3.19.46.48.46.88v2.41c0,.07.02.13.04.18.03.04.09.07.19.07.03,0,.07,0,.11,0s.08,0,.12-.02v.52c-.11.03-.19.05-.25.06-.06,0-.13.01-.23.01-.24,0-.42-.09-.53-.26-.06-.09-.1-.22-.12-.39-.14.19-.35.35-.62.49-.27.14-.56.21-.89.21-.39,0-.71-.12-.95-.35s-.37-.53-.37-.88c0-.39.12-.69.36-.9s.56-.34.95-.39l1.12-.14ZM305.66,56.92c.15.12.32.18.53.18.25,0,.49-.06.72-.17.39-.19.59-.5.59-.93v-.57c-.09.05-.2.1-.33.14-.13.04-.27.06-.4.08l-.42.05c-.25.04-.45.09-.58.16-.22.12-.33.32-.33.58,0,.2.07.36.22.48Z"/>
      <path class="cls-14" d="M309.48,52.21h.71v1.17h.67v.57h-.67v2.73c0,.15.05.24.15.29.05.03.15.04.27.04.03,0,.07,0,.11,0,.04,0,.08,0,.14-.01v.56c-.08.02-.16.04-.25.05-.09,0-.18.02-.28.02-.33,0-.55-.08-.67-.25s-.18-.39-.18-.65v-2.77h-.57v-.57h.57v-1.17Z"/>
      <path class="cls-14" d="M313.81,55.03c.16-.02.27-.09.32-.2.03-.06.05-.15.05-.27,0-.24-.08-.41-.25-.52-.17-.11-.41-.16-.73-.16-.37,0-.63.1-.78.3-.09.11-.14.27-.17.49h-.66c.01-.52.18-.88.5-1.08.32-.2.69-.3,1.12-.3.49,0,.89.09,1.2.28.3.19.46.48.46.88v2.41c0,.07.02.13.04.18.03.04.09.07.19.07.03,0,.07,0,.11,0s.08,0,.12-.02v.52c-.11.03-.19.05-.25.06-.06,0-.13.01-.23.01-.24,0-.42-.09-.53-.26-.06-.09-.1-.22-.12-.39-.14.19-.35.35-.62.49-.27.14-.56.21-.89.21-.39,0-.71-.12-.95-.35s-.37-.53-.37-.88c0-.39.12-.69.36-.9s.56-.34.95-.39l1.12-.14ZM312.33,56.92c.15.12.32.18.53.18.25,0,.49-.06.72-.17.39-.19.59-.5.59-.93v-.57c-.09.05-.2.1-.33.14-.13.04-.27.06-.4.08l-.42.05c-.25.04-.45.09-.58.16-.22.12-.33.32-.33.58,0,.2.07.36.22.48Z"/>
    </g>
    <g>
      <path class="cls-14" d="M287.13,108.04h.67v.72c.05-.14.19-.31.4-.51.21-.2.46-.3.74-.3.01,0,.04,0,.07,0,.03,0,.08,0,.16.02v.74s-.08-.01-.12-.02c-.04,0-.07,0-.12,0-.35,0-.63.11-.82.34-.19.23-.29.49-.29.79v2.41h-.7v-4.18Z"/>
      <path class="cls-14" d="M290.19,110.92c.02.23.08.41.18.54.18.23.49.34.94.34.27,0,.5-.06.7-.17s.3-.29.3-.53c0-.18-.08-.32-.24-.41-.1-.06-.31-.12-.61-.2l-.57-.14c-.36-.09-.63-.19-.8-.3-.31-.19-.46-.45-.46-.79,0-.4.14-.72.43-.96.29-.25.68-.37,1.17-.37.64,0,1.1.18,1.38.55.18.23.26.49.26.76h-.66c-.01-.16-.07-.3-.17-.43-.17-.18-.45-.28-.86-.28-.27,0-.48.05-.62.15-.14.1-.21.24-.21.4,0,.18.09.33.28.44.11.07.26.12.47.17l.47.11c.51.12.86.24,1.03.36.27.18.41.46.41.85s-.14.69-.43.96c-.29.27-.72.41-1.31.41-.63,0-1.08-.14-1.34-.42-.26-.28-.4-.63-.42-1.05h.68Z"/>
      <path class="cls-14" d="M293.81,110.97c.17-.36.51-.68,1.01-.97l.75-.43c.34-.2.57-.36.71-.5.21-.22.32-.46.32-.74,0-.33-.1-.58-.29-.78-.2-.19-.46-.29-.78-.29-.48,0-.81.18-1,.55-.1.2-.15.47-.16.82h-.71c0-.49.1-.88.27-1.19.3-.54.84-.81,1.61-.81.64,0,1.11.17,1.4.52.3.35.44.73.44,1.16,0,.45-.16.83-.47,1.15-.18.18-.51.41-.98.67l-.54.3c-.25.14-.46.27-.6.4-.26.23-.42.48-.49.75h3.05v.66h-3.84c.03-.48.13-.9.3-1.26Z"/>
      <path class="cls-14" d="M302.74,108.17c.12.08.27.21.42.41v-2.11h.68v5.76h-.63v-.58c-.16.26-.36.44-.58.56-.22.11-.48.17-.77.17-.46,0-.87-.2-1.21-.59-.34-.39-.51-.91-.51-1.56,0-.61.16-1.14.46-1.58.31-.45.75-.67,1.33-.67.32,0,.59.07.8.2ZM301.17,111.31c.19.3.49.45.91.45.32,0,.59-.14.8-.42.21-.28.31-.68.31-1.21s-.11-.92-.32-1.17-.48-.38-.8-.38c-.35,0-.64.13-.86.41-.22.27-.33.67-.33,1.2,0,.45.09.82.28,1.12Z"/>
      <path class="cls-14" d="M307.14,109.7c.16-.02.27-.09.32-.2.03-.06.05-.15.05-.27,0-.24-.08-.41-.25-.52-.17-.11-.41-.16-.73-.16-.37,0-.63.1-.78.3-.09.11-.14.27-.17.49h-.66c.01-.52.18-.88.5-1.08.32-.2.69-.3,1.12-.3.49,0,.89.09,1.2.28.3.19.46.48.46.88v2.41c0,.07.02.13.04.18.03.04.09.07.19.07.03,0,.07,0,.11,0s.08,0,.12-.02v.52c-.11.03-.19.05-.25.06-.06,0-.13.01-.23.01-.24,0-.42-.09-.53-.26-.06-.09-.1-.22-.12-.39-.14.19-.35.35-.62.49-.27.14-.56.21-.89.21-.39,0-.71-.12-.95-.35s-.37-.53-.37-.88c0-.39.12-.69.36-.9.24-.21.56-.34.95-.39l1.12-.14ZM305.66,111.6c.15.12.32.18.53.18.25,0,.49-.06.72-.17.39-.19.59-.5.59-.93v-.57c-.09.05-.2.1-.33.14s-.27.06-.4.08l-.42.05c-.25.03-.45.09-.58.16-.22.12-.33.32-.33.58,0,.2.07.36.22.48Z"/>
      <path class="cls-14" d="M309.48,106.88h.71v1.17h.67v.57h-.67v2.73c0,.15.05.24.15.29.05.03.15.04.27.04.03,0,.07,0,.11,0s.08,0,.14-.01v.56c-.08.02-.16.04-.25.05-.09,0-.18.02-.28.02-.33,0-.55-.08-.67-.25s-.18-.39-.18-.65v-2.77h-.57v-.57h.57v-1.17Z"/>
      <path class="cls-14" d="M313.81,109.7c.16-.02.27-.09.32-.2.03-.06.05-.15.05-.27,0-.24-.08-.41-.25-.52-.17-.11-.41-.16-.73-.16-.37,0-.63.1-.78.3-.09.11-.14.27-.17.49h-.66c.01-.52.18-.88.5-1.08.32-.2.69-.3,1.12-.3.49,0,.89.09,1.2.28.3.19.46.48.46.88v2.41c0,.07.02.13.04.18.03.04.09.07.19.07.03,0,.07,0,.11,0s.08,0,.12-.02v.52c-.11.03-.19.05-.25.06-.06,0-.13.01-.23.01-.24,0-.42-.09-.53-.26-.06-.09-.1-.22-.12-.39-.14.19-.35.35-.62.49-.27.14-.56.21-.89.21-.39,0-.71-.12-.95-.35s-.37-.53-.37-.88c0-.39.12-.69.36-.9.24-.21.56-.34.95-.39l1.12-.14ZM312.33,111.6c.15.12.32.18.53.18.25,0,.49-.06.72-.17.39-.19.59-.5.59-.93v-.57c-.09.05-.2.1-.33.14s-.27.06-.4.08l-.42.05c-.25.03-.45.09-.58.16-.22.12-.33.32-.33.58,0,.2.07.36.22.48Z"/>
    </g>
    <g>
      <path class="cls-14" d="M287.13,164.32h.67v.72c.05-.14.19-.31.4-.51.21-.2.46-.3.74-.3.01,0,.04,0,.07,0,.03,0,.08,0,.16.02v.74s-.08-.01-.12-.02c-.04,0-.07,0-.12,0-.35,0-.63.11-.82.34-.19.23-.29.49-.29.79v2.41h-.7v-4.18Z"/>
      <path class="cls-14" d="M290.19,167.19c.02.23.08.41.18.54.18.23.49.34.94.34.27,0,.5-.06.7-.17s.3-.29.3-.53c0-.18-.08-.32-.24-.41-.1-.06-.31-.12-.61-.2l-.57-.14c-.36-.09-.63-.19-.8-.3-.31-.19-.46-.45-.46-.79,0-.4.14-.72.43-.96.29-.24.68-.37,1.17-.37.64,0,1.1.19,1.38.55.18.23.26.49.26.76h-.66c-.01-.16-.07-.3-.17-.43-.17-.18-.45-.28-.86-.28-.27,0-.48.05-.62.15-.14.1-.21.23-.21.4,0,.18.09.33.28.44.11.06.26.12.47.17l.47.11c.51.12.86.24,1.03.36.27.18.41.46.41.85s-.14.69-.43.96c-.29.27-.72.41-1.31.41-.63,0-1.08-.14-1.34-.42-.26-.28-.4-.63-.42-1.05h.68Z"/>
      <path class="cls-14" d="M293.9,168.11c-.3-.36-.45-.8-.45-1.33h.73c.03.36.1.62.2.79.18.29.51.44.99.44.37,0,.67-.1.89-.3.22-.2.34-.45.34-.77,0-.38-.12-.65-.35-.81-.24-.15-.56-.23-.98-.23-.05,0-.09,0-.14,0-.05,0-.1,0-.15,0v-.62c.07,0,.13.01.18.02.05,0,.1,0,.16,0,.26,0,.48-.04.65-.12.3-.15.45-.41.45-.78,0-.28-.1-.49-.3-.64-.2-.15-.43-.23-.69-.23-.47,0-.79.16-.97.47-.1.17-.15.42-.17.73h-.7c0-.42.08-.77.25-1.06.29-.52.79-.78,1.51-.78.57,0,1.01.13,1.32.38s.47.62.47,1.1c0,.34-.09.62-.28.84-.11.13-.26.24-.45.31.29.08.52.24.69.47.17.23.25.51.25.85,0,.53-.18.97-.53,1.3s-.85.5-1.5.5-1.14-.18-1.44-.54Z"/>
      <path class="cls-14" d="M302.74,164.45c.12.08.27.21.42.41v-2.11h.68v5.76h-.63v-.58c-.16.26-.36.44-.58.56-.22.12-.48.17-.77.17-.46,0-.87-.2-1.21-.59-.34-.39-.51-.91-.51-1.56,0-.61.16-1.14.46-1.58.31-.45.75-.67,1.33-.67.32,0,.59.07.8.2ZM301.17,167.58c.19.3.49.45.91.45.32,0,.59-.14.8-.42.21-.28.31-.68.31-1.21s-.11-.92-.32-1.17-.48-.38-.8-.38c-.35,0-.64.14-.86.41-.22.27-.33.67-.33,1.2,0,.45.09.82.28,1.12Z"/>
      <path class="cls-14" d="M307.14,165.97c.16-.02.27-.09.32-.2.03-.06.05-.15.05-.27,0-.24-.08-.42-.25-.52-.17-.11-.41-.16-.73-.16-.37,0-.63.1-.78.3-.09.11-.14.27-.17.49h-.66c.01-.52.18-.88.5-1.08s.69-.3,1.12-.3c.49,0,.89.09,1.2.28.3.19.46.48.46.88v2.41c0,.07.02.13.04.18.03.04.09.07.19.07.03,0,.07,0,.11,0s.08,0,.12-.02v.52c-.11.03-.19.05-.25.06-.06,0-.13.01-.23.01-.24,0-.42-.09-.53-.26-.06-.09-.1-.22-.12-.39-.14.19-.35.35-.62.49-.27.14-.56.21-.89.21-.39,0-.71-.12-.95-.35s-.37-.53-.37-.88c0-.39.12-.69.36-.9s.56-.34.95-.39l1.12-.14ZM305.66,167.87c.15.12.32.17.53.17.25,0,.49-.06.72-.17.39-.19.59-.5.59-.93v-.57c-.09.05-.2.1-.33.14-.13.04-.27.06-.4.08l-.42.05c-.25.03-.45.09-.58.16-.22.12-.33.32-.33.58,0,.2.07.36.22.48Z"/>
      <path class="cls-14" d="M309.48,163.15h.71v1.17h.67v.57h-.67v2.73c0,.15.05.24.15.29.05.03.15.04.27.04.03,0,.07,0,.11,0,.04,0,.08,0,.14-.01v.56c-.08.02-.16.04-.25.05-.09.01-.18.02-.28.02-.33,0-.55-.08-.67-.25s-.18-.39-.18-.65v-2.77h-.57v-.57h.57v-1.17Z"/>
      <path class="cls-14" d="M313.81,165.97c.16-.02.27-.09.32-.2.03-.06.05-.15.05-.27,0-.24-.08-.42-.25-.52-.17-.11-.41-.16-.73-.16-.37,0-.63.1-.78.3-.09.11-.14.27-.17.49h-.66c.01-.52.18-.88.5-1.08s.69-.3,1.12-.3c.49,0,.89.09,1.2.28.3.19.46.48.46.88v2.41c0,.07.02.13.04.18.03.04.09.07.19.07.03,0,.07,0,.11,0s.08,0,.12-.02v.52c-.11.03-.19.05-.25.06-.06,0-.13.01-.23.01-.24,0-.42-.09-.53-.26-.06-.09-.1-.22-.12-.39-.14.19-.35.35-.62.49-.27.14-.56.21-.89.21-.39,0-.71-.12-.95-.35s-.37-.53-.37-.88c0-.39.12-.69.36-.9s.56-.34.95-.39l1.12-.14ZM312.33,167.87c.15.12.32.17.53.17.25,0,.49-.06.72-.17.39-.19.59-.5.59-.93v-.57c-.09.05-.2.1-.33.14-.13.04-.27.06-.4.08l-.42.05c-.25.03-.45.09-.58.16-.22.12-.33.32-.33.58,0,.2.07.36.22.48Z"/>
    </g>
    <g>
      <rect class="cls-10" x="349.38" y="54.45" width="74.84" height="22.15"/>
      <g>
        <path class="cls-14" d="M370.37,62.88h3.98v.7h-3.2v1.74h2.82v.68h-2.82v2.61h-.78v-5.74Z"/>
        <path class="cls-14" d="M375.26,62.88h2.57c.51,0,.92.14,1.23.43.31.29.47.69.47,1.21,0,.45-.14.84-.42,1.17-.28.33-.7.5-1.28.5h-1.79v2.43h-.78v-5.74ZM378.27,63.67c-.17-.08-.4-.12-.7-.12h-1.54v1.99h1.54c.35,0,.63-.07.84-.22s.32-.41.32-.79c0-.42-.15-.71-.46-.86Z"/>
        <path class="cls-14" d="M381.36,62.88v3.55c0,.42.08.76.24,1.04.23.42.63.62,1.18.62.66,0,1.12-.23,1.35-.68.13-.25.19-.57.19-.99v-3.55h.79v3.22c0,.71-.09,1.25-.29,1.63-.35.69-1.01,1.04-1.98,1.04s-1.63-.35-1.98-1.04c-.19-.38-.29-.92-.29-1.63v-3.22h.79Z"/>
        <path class="cls-14" d="M388.59,62.88h2.57c.51,0,.92.14,1.23.43.31.29.47.69.47,1.21,0,.45-.14.84-.42,1.17-.28.33-.7.5-1.28.5h-1.79v2.43h-.78v-5.74ZM391.61,63.67c-.17-.08-.4-.12-.7-.12h-1.54v1.99h1.54c.35,0,.63-.07.84-.22s.32-.41.32-.79c0-.42-.15-.71-.46-.86Z"/>
        <path class="cls-14" d="M393.76,62.88h.71v.8h-.71v-.8ZM393.76,64.46h.71v4.16h-.71v-4.16Z"/>
        <path class="cls-14" d="M395.48,64.46h.69v.55c.14-.19.29-.34.46-.44.24-.16.52-.23.84-.23.47,0,.88.18,1.21.54s.5.88.5,1.56c0,.91-.24,1.56-.72,1.95-.3.25-.66.37-1.06.37-.32,0-.58-.07-.8-.21-.12-.08-.27-.21-.42-.4v2.14h-.7v-5.83ZM398.12,67.74c.22-.28.33-.69.33-1.23,0-.33-.05-.62-.14-.86-.18-.46-.52-.69-1-.69s-.82.24-1,.73c-.1.26-.15.59-.15.99,0,.32.05.6.15.82.18.43.52.65,1,.65.33,0,.6-.14.82-.41Z"/>
        <path class="cls-14" d="M402.57,64.55c.28.14.49.32.63.54.14.21.23.46.28.74.04.19.06.5.06.92h-3.04c.01.43.11.77.3,1.02.19.26.47.39.86.39.36,0,.66-.12.87-.37.12-.14.21-.3.26-.49h.69c-.02.15-.08.32-.18.51-.1.19-.22.34-.34.46-.21.21-.47.35-.79.42-.17.04-.36.06-.57.06-.52,0-.96-.19-1.32-.57s-.54-.91-.54-1.59.18-1.22.54-1.64c.36-.42.84-.63,1.42-.63.29,0,.58.07.86.21ZM402.82,66.2c-.03-.3-.09-.55-.2-.73-.19-.34-.51-.51-.96-.51-.32,0-.59.12-.8.35-.22.23-.33.53-.35.89h2.3Z"/>
      </g>
    </g>
    <polygon class="cls-11" points="447.81 138.09 437.61 141.87 437.61 100.27 447.81 104.04 447.81 138.09"/>
    <line class="cls-1" x1="191.02" y1="155.28" x2="191.02" y2="147.04"/>
    <g>
      <path class="cls-14" d="M289.1,64.35l-1.31,3.75h-.55l1.84-5.02h.06l1.84,5.02h-.58l-1.3-3.75ZM289.97,66.66h-1.81l.11-.43h1.57l.13.43Z"/>
      <path class="cls-14" d="M293.1,64.35l-1.31,3.75h-.55l1.84-5.02h.06l1.84,5.02h-.58l-1.3-3.75ZM293.97,66.66h-1.81l.11-.43h1.57l.13.43Z"/>
      <path class="cls-14" d="M295.5,68.1v-4.98h1.42c.29,0,.54.03.74.09s.38.14.52.25c.14.11.24.23.3.38.06.15.1.31.1.49,0,.16-.03.31-.08.46-.06.15-.14.28-.25.39s-.24.2-.4.26c.14.05.26.11.38.2.11.09.21.19.3.3.08.11.15.24.19.37.05.13.07.27.07.4,0,.21-.04.4-.11.57-.07.17-.19.32-.34.44s-.35.22-.58.28c-.23.07-.51.1-.83.1h-1.41ZM296.05,65.18h.78c.29,0,.52-.04.7-.1s.29-.16.37-.28.11-.25.11-.4c0-.11-.02-.22-.06-.31-.04-.1-.1-.18-.19-.25-.09-.07-.2-.13-.34-.17-.14-.04-.31-.06-.5-.06h-.87v1.59ZM296.05,67.61h.95c.23,0,.44-.03.62-.09.18-.06.31-.16.41-.3s.15-.32.15-.55c0-.2-.04-.37-.13-.52-.09-.15-.22-.27-.41-.36s-.45-.13-.77-.13h-.82v1.96Z"/>
      <path class="cls-14" d="M299.5,68.1v-4.98h1.42c.29,0,.54.03.74.09s.38.14.52.25c.14.11.24.23.3.38.06.15.1.31.1.49,0,.16-.03.31-.08.46-.06.15-.14.28-.25.39s-.24.2-.4.26c.14.05.26.11.38.2.11.09.21.19.3.3.08.11.15.24.19.37.05.13.07.27.07.4,0,.21-.04.4-.11.57-.07.17-.19.32-.34.44s-.35.22-.58.28c-.23.07-.51.1-.83.1h-1.41ZM300.05,65.18h.78c.29,0,.52-.04.7-.1s.29-.16.37-.28.11-.25.11-.4c0-.11-.02-.22-.06-.31-.04-.1-.1-.18-.19-.25-.09-.07-.2-.13-.34-.17-.14-.04-.31-.06-.5-.06h-.87v1.59ZM300.05,67.61h.95c.23,0,.44-.03.62-.09.18-.06.31-.16.41-.3s.15-.32.15-.55c0-.2-.04-.37-.13-.52-.09-.15-.22-.27-.41-.36s-.45-.13-.77-.13h-.82v1.96Z"/>
      <path class="cls-14" d="M304.63,68.04c-.24-.1-.44-.25-.62-.46s-.32-.47-.42-.79c-.1-.32-.15-.7-.15-1.14,0-.39.04-.73.11-1.02.07-.29.18-.54.3-.73s.27-.35.44-.47c.17-.12.34-.2.52-.26s.36-.08.54-.08c.36,0,.67.09.93.27.26.18.45.42.58.71l-.48.22-.07.03-.02-.06s.02-.08,0-.12c-.02-.03-.04-.09-.09-.16-.13-.18-.27-.3-.41-.36-.14-.06-.29-.09-.44-.09-.21,0-.4.05-.56.14-.17.09-.31.23-.43.41s-.21.4-.27.65c-.06.26-.09.55-.09.87s.04.6.11.86c.07.26.17.48.3.66.12.19.27.33.44.43.17.1.35.15.54.15.13,0,.26-.02.39-.07.12-.05.24-.12.35-.21.11-.09.2-.2.27-.32l.42.27c-.16.27-.35.47-.58.61-.22.14-.5.21-.82.21-.27,0-.53-.05-.76-.15Z"/>
      <path class="cls-14" d="M308.63,68.04c-.24-.1-.44-.25-.62-.46s-.32-.47-.42-.79c-.1-.32-.15-.7-.15-1.14,0-.39.04-.73.11-1.02.07-.29.18-.54.3-.73s.27-.35.44-.47c.17-.12.34-.2.52-.26s.36-.08.54-.08c.36,0,.67.09.93.27.26.18.45.42.58.71l-.48.22-.07.03-.02-.06s.02-.08,0-.12c-.02-.03-.04-.09-.09-.16-.13-.18-.27-.3-.41-.36-.14-.06-.29-.09-.44-.09-.21,0-.4.05-.56.14-.17.09-.31.23-.43.41s-.21.4-.27.65c-.06.26-.09.55-.09.87s.04.6.11.86c.07.26.17.48.3.66.12.19.27.33.44.43.17.1.35.15.54.15.13,0,.26-.02.39-.07.12-.05.24-.12.35-.21.11-.09.2-.2.27-.32l.42.27c-.16.27-.35.47-.58.61-.22.14-.5.21-.82.21-.27,0-.53-.05-.76-.15Z"/>
      <path class="cls-14" d="M311.54,68.1v-4.98h1.16c.29,0,.53.03.73.08.2.05.37.13.5.23s.26.22.37.37c.11.15.2.32.28.5.07.19.13.39.16.61.04.22.05.46.05.72-.02.38-.07.73-.15,1.03-.09.3-.21.56-.38.77-.17.21-.39.38-.66.49-.27.11-.6.17-.99.17h-1.06ZM312.07,67.66h.51c.38,0,.7-.08.94-.23.24-.15.42-.38.54-.68s.17-.66.17-1.09c0-.44-.05-.81-.16-1.12s-.27-.54-.5-.71c-.23-.16-.53-.25-.9-.25h-.6v4.07Z"/>
      <path class="cls-14" d="M315.54,68.1v-4.98h1.16c.29,0,.53.03.73.08.2.05.37.13.5.23s.26.22.37.37c.11.15.2.32.28.5.07.19.13.39.16.61.04.22.05.46.05.72-.02.38-.07.73-.15,1.03-.09.3-.21.56-.38.77-.17.21-.39.38-.66.49-.27.11-.6.17-.99.17h-1.06ZM316.07,67.66h.51c.38,0,.7-.08.94-.23.24-.15.42-.38.54-.68s.17-.66.17-1.09c0-.44-.05-.81-.16-1.12s-.27-.54-.5-.71c-.23-.16-.53-.25-.9-.25h-.6v4.07Z"/>
    </g>
    <rect class="cls-12" x="283.04" y="115.67" width="40.48" height="11.08"/>
    <g>
      <path class="cls-14" d="M289.1,120.03l-1.31,3.75h-.55l1.84-5.02h.06l1.84,5.02h-.58l-1.3-3.75ZM289.97,122.34h-1.81l.11-.43h1.57l.13.43Z"/>
      <path class="cls-14" d="M293.1,120.03l-1.31,3.75h-.55l1.84-5.02h.06l1.84,5.02h-.58l-1.3-3.75ZM293.97,122.34h-1.81l.11-.43h1.57l.13.43Z"/>
      <path class="cls-14" d="M295.5,123.78v-4.98h1.42c.29,0,.54.03.74.09s.38.14.52.25c.14.11.24.24.3.38.06.15.1.31.1.49,0,.16-.03.31-.08.46-.06.15-.14.28-.25.39-.11.11-.24.2-.4.26.14.05.26.11.38.2.11.09.21.19.3.3.08.11.15.24.19.37.05.13.07.27.07.4,0,.21-.04.4-.11.57-.07.17-.19.32-.34.44-.15.12-.35.22-.58.28-.23.07-.51.1-.83.1h-1.41ZM296.05,120.86h.78c.29,0,.52-.04.7-.1s.29-.16.37-.28.11-.25.11-.4c0-.11-.02-.22-.06-.31s-.1-.18-.19-.25c-.09-.07-.2-.13-.34-.17s-.31-.06-.5-.06h-.87v1.59ZM296.05,123.29h.95c.23,0,.44-.03.62-.09.18-.06.31-.16.41-.3s.15-.32.15-.55c0-.2-.04-.37-.13-.52-.09-.15-.22-.27-.41-.36s-.45-.13-.77-.13h-.82v1.96Z"/>
      <path class="cls-14" d="M299.5,123.78v-4.98h1.42c.29,0,.54.03.74.09s.38.14.52.25c.14.11.24.24.3.38.06.15.1.31.1.49,0,.16-.03.31-.08.46-.06.15-.14.28-.25.39-.11.11-.24.2-.4.26.14.05.26.11.38.2.11.09.21.19.3.3.08.11.15.24.19.37.05.13.07.27.07.4,0,.21-.04.4-.11.57-.07.17-.19.32-.34.44-.15.12-.35.22-.58.28-.23.07-.51.1-.83.1h-1.41ZM300.05,120.86h.78c.29,0,.52-.04.7-.1s.29-.16.37-.28.11-.25.11-.4c0-.11-.02-.22-.06-.31s-.1-.18-.19-.25c-.09-.07-.2-.13-.34-.17s-.31-.06-.5-.06h-.87v1.59ZM300.05,123.29h.95c.23,0,.44-.03.62-.09.18-.06.31-.16.41-.3s.15-.32.15-.55c0-.2-.04-.37-.13-.52-.09-.15-.22-.27-.41-.36s-.45-.13-.77-.13h-.82v1.96Z"/>
      <path class="cls-14" d="M304.63,123.72c-.24-.1-.44-.25-.62-.46s-.32-.47-.42-.79c-.1-.32-.15-.7-.15-1.14,0-.39.04-.73.11-1.02.07-.29.18-.53.3-.73s.27-.35.44-.47c.17-.12.34-.2.52-.26.18-.05.36-.08.54-.08.36,0,.67.09.93.27.26.18.45.42.58.72l-.48.22-.07.03-.02-.06s.02-.08,0-.12c-.02-.03-.04-.09-.09-.16-.13-.18-.27-.3-.41-.36-.14-.06-.29-.09-.44-.09-.21,0-.4.05-.56.14-.17.09-.31.23-.43.41s-.21.4-.27.65c-.06.26-.09.55-.09.87s.04.6.11.86c.07.26.17.48.3.66.12.19.27.33.44.43s.35.15.54.15c.13,0,.26-.02.39-.07.12-.05.24-.12.35-.21.11-.09.2-.2.27-.32l.42.27c-.16.27-.35.47-.58.61-.22.14-.5.21-.82.21-.27,0-.53-.05-.76-.15Z"/>
      <path class="cls-14" d="M308.63,123.72c-.24-.1-.44-.25-.62-.46s-.32-.47-.42-.79c-.1-.32-.15-.7-.15-1.14,0-.39.04-.73.11-1.02.07-.29.18-.53.3-.73s.27-.35.44-.47c.17-.12.34-.2.52-.26.18-.05.36-.08.54-.08.36,0,.67.09.93.27.26.18.45.42.58.72l-.48.22-.07.03-.02-.06s.02-.08,0-.12c-.02-.03-.04-.09-.09-.16-.13-.18-.27-.3-.41-.36-.14-.06-.29-.09-.44-.09-.21,0-.4.05-.56.14-.17.09-.31.23-.43.41s-.21.4-.27.65c-.06.26-.09.55-.09.87s.04.6.11.86c.07.26.17.48.3.66.12.19.27.33.44.43s.35.15.54.15c.13,0,.26-.02.39-.07.12-.05.24-.12.35-.21.11-.09.2-.2.27-.32l.42.27c-.16.27-.35.47-.58.61-.22.14-.5.21-.82.21-.27,0-.53-.05-.76-.15Z"/>
      <path class="cls-14" d="M311.54,123.78v-4.98h1.16c.29,0,.53.03.73.08.2.05.37.13.5.23s.26.22.37.37c.11.15.2.32.28.5.07.19.13.39.16.61.04.22.05.46.05.72-.02.38-.07.73-.15,1.03-.09.3-.21.56-.38.77-.17.21-.39.38-.66.49s-.6.17-.99.17h-1.06ZM312.07,123.34h.51c.38,0,.7-.08.94-.23.24-.15.42-.38.54-.68s.17-.66.17-1.09c0-.44-.05-.81-.16-1.12-.11-.31-.27-.55-.5-.71s-.53-.25-.9-.25h-.6v4.07Z"/>
      <path class="cls-14" d="M315.54,123.78v-4.98h1.16c.29,0,.53.03.73.08.2.05.37.13.5.23s.26.22.37.37c.11.15.2.32.28.5.07.19.13.39.16.61.04.22.05.46.05.72-.02.38-.07.73-.15,1.03-.09.3-.21.56-.38.77-.17.21-.39.38-.66.49s-.6.17-.99.17h-1.06ZM316.07,123.34h.51c.38,0,.7-.08.94-.23.24-.15.42-.38.54-.68s.17-.66.17-1.09c0-.44-.05-.81-.16-1.12-.11-.31-.27-.55-.5-.71s-.53-.25-.9-.25h-.6v4.07Z"/>
    </g>
    <rect class="cls-12" x="283.04" y="171.35" width="40.48" height="11.08"/>
    <g>
      <path class="cls-14" d="M289.1,175.71l-1.31,3.75h-.55l1.84-5.02h.06l1.84,5.02h-.58l-1.3-3.75ZM289.97,178.02h-1.81l.11-.43h1.57l.13.43Z"/>
      <path class="cls-14" d="M293.1,175.71l-1.31,3.75h-.55l1.84-5.02h.06l1.84,5.02h-.58l-1.3-3.75ZM293.97,178.02h-1.81l.11-.43h1.57l.13.43Z"/>
      <path class="cls-14" d="M295.5,179.46v-4.98h1.42c.29,0,.54.03.74.09s.38.14.52.25c.14.11.24.24.3.38.06.15.1.31.1.49,0,.15-.03.31-.08.46-.06.15-.14.28-.25.39-.11.11-.24.2-.4.26.14.05.26.12.38.2.11.09.21.19.3.3.08.12.15.24.19.37.05.13.07.27.07.4,0,.21-.04.4-.11.57-.07.17-.19.32-.34.44-.15.12-.35.22-.58.28s-.51.1-.83.1h-1.41ZM296.05,176.54h.78c.29,0,.52-.04.7-.1.17-.07.29-.16.37-.29.07-.12.11-.25.11-.4,0-.11-.02-.22-.06-.31-.04-.1-.1-.18-.19-.25-.09-.07-.2-.13-.34-.17-.14-.04-.31-.06-.5-.06h-.87v1.59ZM296.05,178.97h.95c.23,0,.44-.03.62-.09.18-.06.31-.16.41-.3s.15-.32.15-.55c0-.2-.04-.37-.13-.52-.09-.15-.22-.27-.41-.36s-.45-.13-.77-.13h-.82v1.96Z"/>
      <path class="cls-14" d="M299.5,179.46v-4.98h1.42c.29,0,.54.03.74.09s.38.14.52.25c.14.11.24.24.3.38.06.15.1.31.1.49,0,.15-.03.31-.08.46-.06.15-.14.28-.25.39-.11.11-.24.2-.4.26.14.05.26.12.38.2.11.09.21.19.3.3.08.12.15.24.19.37.05.13.07.27.07.4,0,.21-.04.4-.11.57-.07.17-.19.32-.34.44-.15.12-.35.22-.58.28s-.51.1-.83.1h-1.41ZM300.05,176.54h.78c.29,0,.52-.04.7-.1.17-.07.29-.16.37-.29.07-.12.11-.25.11-.4,0-.11-.02-.22-.06-.31-.04-.1-.1-.18-.19-.25-.09-.07-.2-.13-.34-.17-.14-.04-.31-.06-.5-.06h-.87v1.59ZM300.05,178.97h.95c.23,0,.44-.03.62-.09.18-.06.31-.16.41-.3s.15-.32.15-.55c0-.2-.04-.37-.13-.52-.09-.15-.22-.27-.41-.36s-.45-.13-.77-.13h-.82v1.96Z"/>
      <path class="cls-14" d="M304.63,179.4c-.24-.1-.44-.25-.62-.46-.18-.21-.32-.47-.42-.79-.1-.32-.15-.7-.15-1.14,0-.39.04-.73.11-1.02.07-.29.18-.53.3-.73s.27-.35.44-.47c.17-.12.34-.2.52-.26.18-.05.36-.08.54-.08.36,0,.67.09.93.27.26.18.45.42.58.72l-.48.22-.07.03-.02-.06s.02-.08,0-.12c-.02-.03-.04-.09-.09-.16-.13-.18-.27-.3-.41-.37-.14-.06-.29-.09-.44-.09-.21,0-.4.05-.56.14s-.31.23-.43.41c-.12.18-.21.4-.27.65-.06.26-.09.55-.09.87s.04.6.11.86c.07.26.17.48.3.66.12.19.27.33.44.43.17.1.35.15.54.15.13,0,.26-.02.39-.07.12-.05.24-.12.35-.21s.2-.2.27-.32l.42.27c-.16.27-.35.47-.58.61-.22.14-.5.21-.82.21-.27,0-.53-.05-.76-.15Z"/>
      <path class="cls-14" d="M308.63,179.4c-.24-.1-.44-.25-.62-.46-.18-.21-.32-.47-.42-.79-.1-.32-.15-.7-.15-1.14,0-.39.04-.73.11-1.02.07-.29.18-.53.3-.73s.27-.35.44-.47c.17-.12.34-.2.52-.26.18-.05.36-.08.54-.08.36,0,.67.09.93.27.26.18.45.42.58.72l-.48.22-.07.03-.02-.06s.02-.08,0-.12c-.02-.03-.04-.09-.09-.16-.13-.18-.27-.3-.41-.37-.14-.06-.29-.09-.44-.09-.21,0-.4.05-.56.14s-.31.23-.43.41c-.12.18-.21.4-.27.65-.06.26-.09.55-.09.87s.04.6.11.86c.07.26.17.48.3.66.12.19.27.33.44.43.17.1.35.15.54.15.13,0,.26-.02.39-.07.12-.05.24-.12.35-.21s.2-.2.27-.32l.42.27c-.16.27-.35.47-.58.61-.22.14-.5.21-.82.21-.27,0-.53-.05-.76-.15Z"/>
      <path class="cls-14" d="M311.54,179.46v-4.98h1.16c.29,0,.53.03.73.08s.37.13.5.23c.14.1.26.22.37.37.11.15.2.32.28.5.07.19.13.39.16.61.04.22.05.46.05.72-.02.38-.07.73-.15,1.03-.09.3-.21.56-.38.77-.17.21-.39.38-.66.49-.27.12-.6.17-.99.17h-1.06ZM312.07,179.02h.51c.38,0,.7-.08.94-.23.24-.15.42-.38.54-.68.12-.3.17-.66.17-1.09,0-.44-.05-.81-.16-1.12-.11-.31-.27-.55-.5-.71s-.53-.25-.9-.25h-.6v4.07Z"/>
      <path class="cls-14" d="M315.54,179.46v-4.98h1.16c.29,0,.53.03.73.08s.37.13.5.23c.14.1.26.22.37.37.11.15.2.32.28.5.07.19.13.39.16.61.04.22.05.46.05.72-.02.38-.07.73-.15,1.03-.09.3-.21.56-.38.77-.17.21-.39.38-.66.49-.27.12-.6.17-.99.17h-1.06ZM316.07,179.02h.51c.38,0,.7-.08.94-.23.24-.15.42-.38.54-.68.12-.3.17-.66.17-1.09,0-.44-.05-.81-.16-1.12-.11-.31-.27-.55-.5-.71s-.53-.25-.9-.25h-.6v4.07Z"/>
    </g>
    <g>
      <line class="cls-6" x1="270.1" y1="176.89" x2="281.24" y2="176.89"/>
      <polygon class="cls-15" points="280.88 178.14 283.04 176.89 280.88 175.65 280.88 178.14"/>
    </g>
    <g>
      <line class="cls-6" x1="270.1" y1="121.21" x2="281.24" y2="121.21"/>
      <polygon class="cls-15" points="280.88 122.46 283.04 121.21 280.88 119.97 280.88 122.46"/>
    </g>
    <g>
      <line class="cls-6" x1="270.1" y1="65.53" x2="281.24" y2="65.53"/>
      <polygon class="cls-15" points="280.88 66.78 283.04 65.53 280.88 64.29 280.88 66.78"/>
    </g>
    <g>
      <line class="cls-6" x1="223.16" y1="68.35" x2="230.55" y2="68.35"/>
      <polygon class="cls-15" points="230.19 69.6 232.35 68.35 230.19 67.11 230.19 69.6"/>
    </g>
    <polygon class="cls-3" points="236.74 61.96 232.35 59.99 232.35 71.07 236.74 69.1 236.74 61.96"/>
    <g>
      <line class="cls-6" x1="236.74" y1="65.53" x2="240.82" y2="65.53"/>
      <polygon class="cls-15" points="240.45 66.78 242.61 65.53 240.45 64.29 240.45 66.78"/>
    </g>
    <g>
      <line class="cls-6" x1="223.16" y1="98.93" x2="230.55" y2="98.93"/>
      <polygon class="cls-15" points="230.19 100.18 232.35 98.93 230.19 97.68 230.19 100.18"/>
    </g>
    <g>
      <line class="cls-6" x1="227.17" y1="93.45" x2="230.55" y2="93.45"/>
      <polygon class="cls-15" points="230.19 94.7 232.35 93.45 230.19 92.21 230.19 94.7"/>
    </g>
    <polygon class="cls-3" points="236.74 92.54 232.35 90.57 232.35 101.65 236.74 99.68 236.74 92.54"/>
    <g>
      <line class="cls-6" x1="236.74" y1="96.11" x2="240.82" y2="96.11"/>
      <polygon class="cls-15" points="240.45 97.36 242.61 96.11 240.45 94.86 240.45 97.36"/>
    </g>
    <g>
      <line class="cls-6" x1="223.16" y1="129.51" x2="230.55" y2="129.51"/>
      <polygon class="cls-15" points="230.19 130.76 232.35 129.51 230.19 128.26 230.19 130.76"/>
    </g>
    <g>
      <line class="cls-6" x1="227.17" y1="124.03" x2="230.55" y2="124.03"/>
      <polygon class="cls-15" points="230.19 125.28 232.35 124.03 230.19 122.79 230.19 125.28"/>
    </g>
    <polygon class="cls-3" points="236.74 123.12 232.35 121.15 232.35 132.23 236.74 130.26 236.74 123.12"/>
    <g>
      <line class="cls-6" x1="236.74" y1="126.69" x2="240.82" y2="126.69"/>
      <polygon class="cls-15" points="240.45 127.94 242.61 126.69 240.45 125.44 240.45 127.94"/>
    </g>
    <g>
      <line class="cls-6" x1="223.16" y1="179.56" x2="230.55" y2="179.56"/>
      <polygon class="cls-15" points="230.19 180.81 232.35 179.56 230.19 178.32 230.19 180.81"/>
    </g>
    <g>
      <line class="cls-6" x1="227.17" y1="174.09" x2="230.55" y2="174.09"/>
      <polygon class="cls-15" points="230.19 175.33 232.35 174.09 230.19 172.84 230.19 175.33"/>
    </g>
    <polygon class="cls-3" points="236.74 173.17 232.35 171.2 232.35 182.28 236.74 180.31 236.74 173.17"/>
    <g>
      <line class="cls-6" x1="236.74" y1="176.74" x2="240.82" y2="176.74"/>
      <polygon class="cls-15" points="240.45 177.99 242.61 176.74 240.45 175.49 240.45 177.99"/>
    </g>
    <g>
      <line class="cls-6" x1="336.45" y1="139.58" x2="347.59" y2="139.58"/>
      <polygon class="cls-15" points="347.23 140.82 349.38 139.58 347.23 138.33 347.23 140.82"/>
    </g>
    <g>
      <line class="cls-6" x1="336.45" y1="102.55" x2="347.59" y2="102.55"/>
      <polygon class="cls-15" points="347.23 103.8 349.38 102.55 347.23 101.31 347.23 103.8"/>
    </g>
    <g>
      <line class="cls-6" x1="336.45" y1="65.53" x2="347.59" y2="65.53"/>
      <polygon class="cls-15" points="347.23 66.78 349.38 65.53 347.23 64.29 347.23 66.78"/>
    </g>
    <g>
      <line class="cls-6" x1="336.45" y1="176.6" x2="347.59" y2="176.6"/>
      <polygon class="cls-15" points="347.23 177.85 349.38 176.6 347.23 175.35 347.23 177.85"/>
    </g>
    <g>
      <line class="cls-6" x1="323.51" y1="121.21" x2="334.65" y2="121.21"/>
      <polygon class="cls-15" points="334.29 122.46 336.45 121.21 334.29 119.97 334.29 122.46"/>
    </g>
    <g>
      <line class="cls-6" x1="323.51" y1="65.53" x2="334.65" y2="65.53"/>
      <polygon class="cls-15" points="334.29 66.78 336.45 65.53 334.29 64.29 334.29 66.78"/>
    </g>
    <g>
      <line class="cls-6" x1="323.51" y1="176.6" x2="334.65" y2="176.6"/>
      <polygon class="cls-15" points="334.29 177.85 336.45 176.6 334.29 175.35 334.29 177.85"/>
    </g>
    <g>
      <rect class="cls-10" x="349.38" y="91.48" width="74.84" height="22.15"/>
      <g>
        <path class="cls-14" d="M372.1,99.91h.79v5.74h-.79v-5.74Z"/>
        <path class="cls-14" d="M374.14,99.91h.92l2.86,4.64v-4.64h.74v5.74h-.87l-2.9-4.63v4.63h-.74v-5.74Z"/>
        <path class="cls-14" d="M384.09,99.91v.68h-1.93v5.05h-.79v-5.05h-1.93v-.68h4.65Z"/>
        <path class="cls-14" d="M386.96,99.91h2.57c.51,0,.92.14,1.23.43.31.29.47.69.47,1.21,0,.45-.14.84-.42,1.17-.28.33-.7.5-1.28.5h-1.79v2.43h-.78v-5.74ZM389.98,100.69c-.17-.08-.4-.12-.7-.12h-1.54v1.99h1.54c.35,0,.63-.07.84-.22s.32-.41.32-.79c0-.42-.15-.71-.46-.86Z"/>
        <path class="cls-14" d="M392.13,99.91h.71v.8h-.71v-.8ZM392.13,101.48h.71v4.16h-.71v-4.16Z"/>
        <path class="cls-14" d="M393.85,101.48h.69v.55c.14-.19.29-.34.46-.44.24-.16.52-.23.84-.23.47,0,.88.18,1.21.54s.5.88.5,1.56c0,.91-.24,1.56-.72,1.95-.3.25-.66.37-1.06.37-.32,0-.58-.07-.8-.21-.12-.08-.27-.21-.42-.4v2.14h-.7v-5.83ZM396.5,104.76c.22-.27.33-.69.33-1.23,0-.33-.05-.62-.14-.86-.18-.46-.52-.69-1-.69s-.82.24-1,.73c-.1.26-.15.59-.15.99,0,.32.05.6.15.82.18.43.52.65,1,.65.33,0,.6-.14.82-.41Z"/>
        <path class="cls-14" d="M400.94,101.58c.28.14.49.32.63.54.14.21.23.46.28.74.04.19.06.5.06.92h-3.04c.01.43.11.77.3,1.02.19.26.47.39.86.39.36,0,.66-.12.87-.36.12-.14.21-.31.26-.49h.69c-.02.15-.08.33-.18.51-.1.19-.22.34-.34.46-.21.21-.47.35-.79.42-.17.04-.36.06-.57.06-.52,0-.96-.19-1.32-.57s-.54-.91-.54-1.59.18-1.22.54-1.64c.36-.42.84-.63,1.42-.63.29,0,.58.07.86.21ZM401.2,103.22c-.03-.3-.09-.55-.2-.73-.19-.34-.51-.51-.96-.51-.32,0-.59.12-.8.35-.22.23-.33.53-.35.89h2.3Z"/>
      </g>
    </g>
    <g>
      <rect class="cls-10" x="349.38" y="128.5" width="74.84" height="22.15"/>
      <g>
        <path class="cls-14" d="M370.51,136.93h.78v5.05h2.88v.68h-3.66v-5.74Z"/>
        <path class="cls-14" d="M375.47,140.82c.02.33.09.59.22.79.25.38.69.57,1.31.57.28,0,.54-.04.77-.12.45-.16.67-.45.67-.87,0-.31-.09-.54-.28-.67-.19-.13-.49-.24-.9-.34l-.75-.18c-.49-.12-.84-.24-1.04-.38-.35-.24-.53-.6-.53-1.07,0-.52.17-.94.52-1.27.35-.33.84-.5,1.47-.5.59,0,1.08.14,1.49.44.41.29.61.75.61,1.39h-.73c-.04-.31-.12-.54-.24-.71-.23-.3-.61-.45-1.16-.45-.44,0-.76.1-.95.29-.19.19-.29.42-.29.67,0,.28.11.49.34.62.15.08.48.19,1.01.31l.78.18c.38.09.67.21.87.36.35.27.53.66.53,1.17,0,.63-.22,1.09-.68,1.36s-.97.41-1.57.41c-.7,0-1.24-.18-1.63-.55-.39-.36-.59-.85-.58-1.47h.73Z"/>
        <path class="cls-14" d="M381.14,136.93v3.55c0,.42.08.76.24,1.04.23.42.63.62,1.18.62.66,0,1.12-.23,1.35-.68.13-.25.19-.57.19-.99v-3.55h.79v3.22c0,.71-.09,1.25-.29,1.63-.35.69-1.01,1.04-1.98,1.04s-1.63-.35-1.98-1.04c-.19-.38-.29-.92-.29-1.63v-3.22h.79Z"/>
        <path class="cls-14" d="M388.37,136.93h2.57c.51,0,.92.14,1.23.43.31.29.47.69.47,1.21,0,.45-.14.84-.42,1.17-.28.33-.7.5-1.28.5h-1.79v2.43h-.78v-5.74ZM391.39,137.72c-.17-.08-.4-.12-.7-.12h-1.54v1.99h1.54c.35,0,.63-.07.84-.22s.32-.41.32-.79c0-.42-.15-.71-.46-.86Z"/>
        <path class="cls-14" d="M393.54,136.93h.71v.8h-.71v-.8ZM393.54,138.5h.71v4.16h-.71v-4.16Z"/>
        <path class="cls-14" d="M395.26,138.5h.69v.55c.14-.19.29-.34.46-.44.24-.16.52-.23.84-.23.47,0,.88.18,1.21.54s.5.88.5,1.56c0,.91-.24,1.56-.72,1.95-.3.25-.66.37-1.06.37-.32,0-.58-.07-.8-.21-.12-.08-.27-.21-.42-.4v2.14h-.7v-5.83ZM397.91,141.78c.22-.28.33-.69.33-1.23,0-.33-.05-.62-.14-.86-.18-.46-.52-.69-1-.69s-.82.24-1,.73c-.1.26-.15.59-.15.99,0,.32.05.6.15.82.18.43.52.65,1,.65.33,0,.6-.14.82-.41Z"/>
        <path class="cls-14" d="M402.35,138.6c.28.14.49.32.63.54.14.21.23.46.28.74.04.19.06.5.06.92h-3.04c.01.43.11.77.3,1.02.19.26.47.39.86.39.36,0,.66-.12.87-.37.12-.14.21-.3.26-.49h.69c-.02.15-.08.32-.18.51-.1.19-.22.34-.34.46-.21.21-.47.35-.79.42-.17.04-.36.06-.57.06-.52,0-.96-.19-1.32-.57s-.54-.91-.54-1.59.18-1.22.54-1.64c.36-.42.84-.63,1.42-.63.29,0,.58.07.86.21ZM402.6,140.24c-.03-.3-.09-.55-.2-.73-.19-.34-.51-.51-.96-.51-.32,0-.59.12-.8.35-.22.23-.33.53-.35.89h2.3Z"/>
      </g>
    </g>
    <g>
      <rect class="cls-10" x="349.38" y="165.52" width="74.84" height="22.15"/>
      <g>
        <path class="cls-14" d="M370.8,177.84c.02.33.09.59.22.79.25.38.69.57,1.31.57.28,0,.54-.04.77-.12.45-.16.67-.45.67-.87,0-.31-.09-.54-.28-.67-.19-.13-.49-.24-.9-.34l-.75-.18c-.49-.11-.84-.24-1.04-.38-.35-.24-.53-.6-.53-1.07,0-.52.17-.94.52-1.27s.84-.5,1.47-.5c.59,0,1.08.15,1.49.44.41.29.61.75.61,1.39h-.73c-.04-.31-.12-.54-.24-.71-.23-.3-.61-.45-1.16-.45-.44,0-.76.1-.95.29-.19.19-.29.42-.29.67,0,.28.11.49.34.62.15.08.48.19,1.01.31l.78.18c.38.09.67.21.87.36.35.27.53.66.53,1.17,0,.64-.22,1.09-.68,1.36s-.97.41-1.57.41c-.7,0-1.24-.18-1.63-.55-.39-.36-.59-.85-.58-1.47h.73Z"/>
        <path class="cls-14" d="M375.71,173.95h3.98v.7h-3.2v1.74h2.82v.68h-2.82v2.61h-.78v-5.74Z"/>
        <path class="cls-14" d="M381.36,173.95v3.55c0,.42.08.76.24,1.04.23.42.63.62,1.18.62.66,0,1.12-.23,1.35-.68.13-.25.19-.57.19-.99v-3.55h.79v3.22c0,.71-.09,1.25-.29,1.63-.35.69-1.01,1.04-1.98,1.04s-1.63-.35-1.98-1.04c-.19-.38-.29-.92-.29-1.63v-3.22h.79Z"/>
        <path class="cls-14" d="M388.59,173.95h2.57c.51,0,.92.14,1.23.43s.47.69.47,1.21c0,.45-.14.84-.42,1.17-.28.33-.7.5-1.28.5h-1.79v2.43h-.78v-5.74ZM391.61,174.74c-.17-.08-.4-.12-.7-.12h-1.54v1.99h1.54c.35,0,.63-.07.84-.22s.32-.41.32-.79c0-.42-.15-.71-.46-.86Z"/>
        <path class="cls-14" d="M393.76,173.95h.71v.8h-.71v-.8ZM393.76,175.53h.71v4.16h-.71v-4.16Z"/>
        <path class="cls-14" d="M395.48,175.53h.69v.55c.14-.19.29-.34.46-.44.24-.16.52-.23.84-.23.47,0,.88.18,1.21.54s.5.88.5,1.56c0,.91-.24,1.56-.72,1.95-.3.25-.66.37-1.06.37-.32,0-.58-.07-.8-.21-.12-.08-.27-.21-.42-.4v2.14h-.7v-5.83ZM398.12,178.8c.22-.27.33-.69.33-1.23,0-.33-.05-.62-.14-.86-.18-.46-.52-.69-1-.69s-.82.24-1,.73c-.1.26-.15.59-.15.99,0,.32.05.6.15.82.18.43.52.65,1,.65.33,0,.6-.14.82-.41Z"/>
        <path class="cls-14" d="M402.57,175.62c.28.14.49.32.63.54.14.21.23.46.28.74.04.19.06.5.06.92h-3.04c.01.43.11.77.3,1.02s.47.39.86.39c.36,0,.66-.12.87-.36.12-.14.21-.31.26-.49h.69c-.02.15-.08.33-.18.51-.1.19-.22.34-.34.46-.21.21-.47.35-.79.42-.17.04-.36.06-.57.06-.52,0-.96-.19-1.32-.57s-.54-.91-.54-1.59.18-1.22.54-1.64.84-.63,1.42-.63c.29,0,.58.07.86.21ZM402.82,177.26c-.03-.3-.09-.55-.2-.73-.19-.34-.51-.51-.96-.51-.32,0-.59.12-.8.35s-.33.53-.35.89h2.3Z"/>
      </g>
    </g>
    <g>
      <path class="cls-9" d="M136.87,176.74c-6.11,0-6.11-55.6-12.23-55.6"/>
      <path class="cls-9" d="M136.87,65.53c-6.11,0-6.11,55.6-12.23,55.6"/>
      <line class="cls-12" x1="124.64" y1="121.14" x2="120.22" y2="121.14"/>
    </g>
    <path class="cls-9" d="M424.22,65.53c6.69,0,6.69,45.3,13.39,45.3"/>
    <line class="cls-3" x1="225.67" y1="33.39" x2="229.84" y2="29.21"/>
    <g>
      <path class="cls-14" d="M278.82,197.15c.4.38.62.82.66,1.3h-.76c-.08-.37-.25-.66-.5-.88s-.61-.32-1.06-.32c-.55,0-1,.2-1.34.6-.34.4-.51,1.01-.51,1.83,0,.67.15,1.22.46,1.64.31.42.77.63,1.38.63.56,0,.99-.22,1.29-.66.16-.23.27-.54.35-.91h.76c-.07.6-.29,1.11-.66,1.52-.45.49-1.06.74-1.82.74-.66,0-1.21-.2-1.66-.61-.59-.54-.88-1.36-.88-2.47,0-.85.22-1.54.66-2.08.48-.59,1.14-.88,1.98-.88.72,0,1.28.19,1.67.57Z"/>
      <path class="cls-14" d="M283.48,198.7c.37.36.55.89.55,1.58s-.16,1.23-.49,1.67c-.33.44-.83.66-1.52.66-.57,0-1.03-.19-1.36-.58-.34-.39-.5-.91-.5-1.57,0-.7.18-1.26.53-1.68.35-.42.83-.62,1.43-.62.54,0,.99.18,1.36.54ZM283.04,201.48c.17-.35.26-.74.26-1.18,0-.39-.06-.71-.19-.95-.2-.39-.53-.58-1.01-.58-.42,0-.73.16-.93.49-.19.33-.29.72-.29,1.19s.1.82.29,1.11c.19.3.5.45.92.45.46,0,.78-.18.95-.53Z"/>
      <path class="cls-14" d="M284.91,196.73h.7v5.74h-.7v-5.74Z"/>
      <path class="cls-14" d="M286.69,196.73h.7v5.74h-.7v-5.74Z"/>
      <path class="cls-14" d="M291.03,198.4c.28.14.49.32.63.54.14.21.23.46.28.74.04.19.06.5.06.92h-3.04c.01.43.11.77.3,1.02.19.26.47.39.86.39.36,0,.66-.12.87-.37.12-.14.21-.3.26-.49h.69c-.02.15-.08.32-.18.51-.1.19-.22.34-.34.46-.21.21-.47.35-.79.42-.17.04-.36.06-.57.06-.52,0-.96-.19-1.32-.57-.36-.38-.54-.91-.54-1.59s.18-1.22.54-1.64.84-.63,1.42-.63c.29,0,.58.07.86.21ZM291.29,200.04c-.03-.3-.09-.55-.2-.73-.19-.34-.51-.51-.96-.51-.32,0-.59.12-.81.35s-.33.53-.34.89h2.3Z"/>
      <path class="cls-14" d="M295.66,198.51c.3.23.47.62.53,1.18h-.68c-.04-.26-.14-.47-.29-.64s-.39-.26-.71-.26c-.45,0-.77.22-.96.66-.12.28-.19.63-.19,1.05s.09.77.27,1.06c.18.29.46.43.84.43.29,0,.52-.09.69-.27.17-.18.29-.42.35-.73h.68c-.08.55-.27.96-.59,1.22s-.71.38-1.2.38c-.55,0-.98-.2-1.31-.6-.33-.4-.49-.9-.49-1.5,0-.73.18-1.31.54-1.71.36-.41.81-.61,1.36-.61.47,0,.86.12,1.15.34Z"/>
      <path class="cls-14" d="M297.04,197.12h.71v1.17h.67v.57h-.67v2.73c0,.15.05.24.15.29.05.03.15.04.27.04.03,0,.07,0,.11,0,.04,0,.08,0,.14-.01v.56c-.08.02-.16.04-.25.05-.09,0-.18.02-.28.02-.33,0-.55-.08-.67-.25s-.18-.39-.18-.65v-2.77h-.57v-.57h.57v-1.17Z"/>
      <path class="cls-14" d="M302.15,198.7c.37.36.55.89.55,1.58s-.16,1.23-.49,1.67c-.33.44-.83.66-1.52.66-.57,0-1.03-.19-1.36-.58-.34-.39-.5-.91-.5-1.57,0-.7.18-1.26.53-1.68.35-.42.83-.62,1.43-.62.54,0,.99.18,1.36.54ZM301.72,201.48c.17-.35.26-.74.26-1.18,0-.39-.06-.71-.19-.95-.2-.39-.53-.58-1.01-.58-.42,0-.73.16-.93.49-.19.33-.29.72-.29,1.19s.1.82.29,1.11c.19.3.5.45.92.45.46,0,.78-.18.95-.53Z"/>
      <path class="cls-14" d="M303.59,198.28h.67v.72c.05-.14.19-.31.4-.51.21-.2.46-.3.74-.3.01,0,.04,0,.07,0s.08,0,.16.02v.74s-.08-.01-.12-.02-.07,0-.12,0c-.35,0-.63.11-.82.34-.19.23-.29.49-.29.79v2.41h-.7v-4.18Z"/>
      <path class="cls-14" d="M308.53,196.73h2.48c.68,0,1.16.2,1.44.6.17.24.25.51.25.82,0,.36-.1.66-.31.89-.11.12-.26.23-.46.34.29.11.51.24.66.38.26.25.39.6.39,1.04,0,.37-.12.71-.35,1-.35.45-.9.67-1.66.67h-2.44v-5.74ZM310.72,199.16c.33,0,.59-.04.77-.14.29-.14.43-.4.43-.77s-.15-.63-.46-.76c-.17-.07-.43-.11-.77-.11h-1.4v1.78h1.43ZM310.98,201.8c.48,0,.82-.14,1.03-.41.13-.17.19-.38.19-.63,0-.42-.19-.7-.56-.85-.2-.08-.46-.12-.79-.12h-1.56v2.02h1.69Z"/>
      <path class="cls-14" d="M316.04,199.94c.16-.02.27-.09.32-.2.03-.06.05-.15.05-.27,0-.24-.08-.41-.25-.52-.17-.11-.41-.16-.73-.16-.37,0-.63.1-.78.3-.09.11-.14.27-.17.49h-.66c.01-.52.18-.88.5-1.08s.69-.3,1.12-.3c.49,0,.89.09,1.2.28.3.19.46.48.46.88v2.41c0,.07.02.13.04.18.03.04.09.07.19.07.03,0,.07,0,.11,0s.08,0,.12-.02v.52c-.11.03-.19.05-.25.06-.06,0-.13.01-.23.01-.24,0-.42-.09-.53-.26-.06-.09-.1-.22-.12-.39-.14.19-.35.35-.62.49-.27.14-.56.21-.89.21-.39,0-.71-.12-.95-.35-.25-.23-.37-.53-.37-.88,0-.39.12-.69.36-.9.24-.21.56-.34.95-.39l1.12-.14ZM314.55,201.83c.15.12.32.18.53.18.25,0,.49-.06.72-.17.39-.19.59-.5.59-.93v-.57c-.09.05-.2.1-.33.14s-.27.06-.4.08l-.42.05c-.25.03-.45.09-.58.16-.22.12-.33.32-.33.58,0,.2.07.36.22.48Z"/>
      <path class="cls-14" d="M318.24,198.28h.67v.59c.2-.24.41-.42.63-.53.22-.11.47-.16.74-.16.59,0,1,.21,1.2.62.12.23.17.55.17.97v2.68h-.71v-2.64c0-.26-.04-.46-.11-.62-.12-.26-.35-.39-.68-.39-.17,0-.3.02-.41.05-.19.06-.36.17-.51.34-.12.14-.19.28-.23.43s-.05.36-.05.63v2.19h-.7v-4.18Z"/>
      <path class="cls-14" d="M322.68,196.73h.68v3.33l1.8-1.78h.9l-1.61,1.56,1.7,2.63h-.9l-1.32-2.13-.58.56v1.57h-.68v-5.74Z"/>
      <path class="cls-14" d="M327.11,201.16c.02.23.08.41.18.54.18.23.49.34.94.34.27,0,.5-.06.7-.17s.3-.29.3-.53c0-.18-.08-.32-.24-.41-.1-.06-.31-.12-.61-.2l-.57-.14c-.36-.09-.63-.19-.8-.3-.31-.19-.46-.45-.46-.79,0-.4.14-.72.43-.96s.68-.37,1.17-.37c.64,0,1.1.19,1.38.55.18.23.26.49.26.76h-.66c-.01-.16-.07-.3-.17-.43-.17-.18-.45-.28-.86-.28-.27,0-.48.05-.62.15-.14.1-.21.23-.21.4,0,.18.09.33.28.44.11.07.26.12.47.17l.47.11c.51.12.86.24,1.03.36.27.18.41.46.41.85s-.14.69-.43.96-.72.41-1.31.41c-.63,0-1.08-.14-1.34-.42-.26-.28-.4-.63-.42-1.05h.68Z"/>
    </g>
    <g>
      <path class="cls-14" d="M148.57,196.86h2.57c.51,0,.92.14,1.23.43.31.29.47.69.47,1.21,0,.45-.14.84-.42,1.17s-.71.5-1.28.5h-1.79v2.43h-.78v-5.74ZM151.59,197.65c-.17-.08-.4-.12-.7-.12h-1.54v1.99h1.54c.35,0,.63-.07.84-.22s.32-.41.32-.79c0-.42-.16-.71-.47-.86Z"/>
      <path class="cls-14" d="M153.74,196.84h.7v2.14c.17-.21.32-.36.45-.45.23-.15.51-.22.85-.22.61,0,1.02.21,1.23.64.12.23.18.55.18.96v2.68h-.72v-2.64c0-.31-.04-.53-.12-.68-.13-.23-.37-.34-.72-.34-.29,0-.56.1-.79.3-.24.2-.36.58-.36,1.14v2.22h-.7v-5.76Z"/>
      <path class="cls-14" d="M160.81,198.42h.78c-.1.27-.32.88-.66,1.84-.26.72-.47,1.3-.64,1.76-.41,1.07-.69,1.72-.86,1.95-.17.23-.45.35-.86.35-.1,0-.17,0-.23-.01-.05,0-.12-.02-.2-.04v-.64c.12.03.21.05.26.06s.1.01.14.01c.13,0,.23-.02.29-.06.06-.04.11-.1.15-.16.01-.02.06-.13.14-.32.08-.19.14-.33.18-.43l-1.55-4.31h.8l1.12,3.41,1.13-3.41Z"/>
      <path class="cls-14" d="M162.61,201.29c.02.23.08.41.18.54.18.23.5.34.94.34.27,0,.5-.06.7-.17.2-.11.3-.29.3-.53,0-.18-.08-.32-.24-.41-.1-.06-.31-.12-.61-.2l-.57-.14c-.36-.09-.63-.19-.8-.3-.31-.19-.46-.45-.46-.79,0-.4.14-.72.43-.96.29-.25.68-.37,1.17-.37.64,0,1.1.18,1.38.55.18.23.26.49.26.76h-.66c-.01-.16-.07-.3-.17-.43-.17-.18-.45-.28-.86-.28-.27,0-.48.05-.62.15-.14.1-.21.24-.21.4,0,.18.09.33.28.44.11.07.26.12.47.17l.47.11c.51.12.86.24,1.04.36.27.18.41.46.41.85s-.14.69-.43.96c-.29.27-.72.41-1.31.41-.63,0-1.08-.14-1.34-.42-.26-.28-.4-.63-.42-1.05h.68Z"/>
      <path class="cls-14" d="M166.19,196.86h.71v.8h-.71v-.8ZM166.19,198.44h.71v4.16h-.71v-4.16Z"/>
      <path class="cls-14" d="M170.73,198.64c.29.23.47.62.53,1.18h-.68c-.04-.26-.14-.47-.29-.64-.15-.17-.39-.26-.71-.26-.45,0-.77.22-.96.66-.12.28-.19.63-.19,1.05s.09.77.27,1.06c.18.29.46.43.84.43.29,0,.52-.09.69-.27.17-.18.29-.42.35-.73h.68c-.08.55-.27.96-.59,1.22-.31.26-.71.38-1.2.38-.55,0-.98-.2-1.31-.6-.33-.4-.49-.9-.49-1.5,0-.73.18-1.31.54-1.71.36-.41.81-.61,1.36-.61.47,0,.85.11,1.15.34Z"/>
      <path class="cls-14" d="M174.21,200.07c.16-.02.27-.09.32-.2.03-.06.05-.15.05-.27,0-.24-.08-.41-.26-.52-.17-.11-.41-.16-.73-.16-.37,0-.63.1-.78.3-.08.11-.14.27-.17.49h-.66c.01-.52.18-.88.5-1.08.32-.2.69-.3,1.12-.3.49,0,.89.09,1.2.28.3.19.46.48.46.88v2.41c0,.07.01.13.04.18.03.04.09.07.19.07.03,0,.07,0,.11,0s.08,0,.12-.02v.52c-.11.03-.19.05-.25.06-.06,0-.14.01-.23.01-.24,0-.42-.09-.53-.26-.06-.09-.1-.22-.12-.39-.14.19-.35.35-.62.49-.27.14-.56.21-.89.21-.39,0-.71-.12-.95-.35s-.37-.53-.37-.88c0-.39.12-.69.36-.9.24-.21.56-.34.95-.39l1.12-.14ZM172.73,201.97c.15.12.32.18.53.18.25,0,.49-.06.72-.17.39-.19.59-.5.59-.93v-.57c-.09.05-.2.1-.33.14-.13.04-.27.06-.4.08l-.42.05c-.25.03-.45.09-.57.16-.22.12-.33.32-.33.58,0,.2.07.36.22.48Z"/>
      <path class="cls-14" d="M176.44,196.86h.7v5.74h-.7v-5.74Z"/>
      <path class="cls-14" d="M180.61,196.86h2.61c.43,0,.78.06,1.06.19.53.24.79.7.79,1.36,0,.34-.07.62-.21.84-.14.22-.34.39-.6.53.22.09.39.21.51.36s.18.39.19.72l.03.77c0,.22.03.38.05.49.05.18.13.3.25.35v.13h-.95s-.05-.11-.06-.19-.03-.23-.04-.45l-.05-.96c-.02-.38-.15-.63-.41-.75-.14-.07-.37-.11-.68-.11h-1.72v2.46h-.78v-5.74ZM183.13,199.49c.35,0,.63-.07.84-.22.21-.15.31-.41.31-.79,0-.41-.14-.69-.43-.84-.15-.08-.36-.12-.62-.12h-1.85v1.96h1.75Z"/>
      <path class="cls-14" d="M188.78,198.53c.28.14.49.32.63.54.14.21.23.46.28.74.04.19.06.5.06.92h-3.04c.01.43.11.77.3,1.02.19.26.47.39.86.39.36,0,.66-.12.87-.37.12-.14.21-.3.26-.49h.69c-.02.15-.08.32-.18.51-.1.19-.22.34-.34.46-.21.21-.47.35-.79.42-.17.04-.36.06-.57.06-.52,0-.96-.19-1.32-.57-.36-.38-.54-.91-.54-1.59s.18-1.22.54-1.64c.36-.42.84-.63,1.42-.63.29,0,.58.07.86.21ZM189.03,200.18c-.03-.3-.09-.55-.2-.73-.19-.34-.51-.51-.96-.51-.32,0-.59.12-.81.35-.22.23-.33.53-.34.89h2.3Z"/>
      <path class="cls-14" d="M192.97,198.59c.13.09.27.22.41.4v-.53h.65v3.8c0,.53-.08.95-.23,1.26-.29.57-.84.85-1.65.85-.45,0-.83-.1-1.13-.3-.31-.2-.48-.52-.51-.95h.71c.03.19.1.33.2.43.16.16.41.23.75.23.54,0,.89-.19,1.05-.57.1-.22.14-.62.14-1.2-.14.21-.31.37-.51.48-.2.1-.46.16-.78.16-.45,0-.85-.16-1.18-.48-.34-.32-.51-.85-.51-1.6,0-.7.17-1.25.51-1.64.34-.39.75-.59,1.24-.59.33,0,.61.08.86.24ZM193.06,199.34c-.21-.25-.48-.38-.81-.38-.49,0-.83.23-1.01.7-.1.25-.14.57-.14.97,0,.47.09.83.29,1.08s.45.37.77.37c.5,0,.86-.23,1.06-.68.11-.26.17-.56.17-.9,0-.52-.11-.9-.32-1.15Z"/>
      <path class="cls-14" d="M195.09,196.86h.71v.8h-.71v-.8ZM195.09,198.44h.71v4.16h-.71v-4.16Z"/>
      <path class="cls-14" d="M197.29,201.29c.02.23.08.41.18.54.18.23.5.34.94.34.27,0,.5-.06.7-.17.2-.11.3-.29.3-.53,0-.18-.08-.32-.24-.41-.1-.06-.31-.12-.61-.2l-.57-.14c-.36-.09-.63-.19-.8-.3-.31-.19-.46-.45-.46-.79,0-.4.14-.72.43-.96.29-.25.68-.37,1.17-.37.64,0,1.1.18,1.38.55.18.23.26.49.26.76h-.66c-.01-.16-.07-.3-.17-.43-.17-.18-.45-.28-.86-.28-.27,0-.48.05-.62.15-.14.1-.21.24-.21.4,0,.18.09.33.28.44.11.07.26.12.47.17l.47.11c.51.12.86.24,1.04.36.27.18.41.46.41.85s-.14.69-.43.96c-.29.27-.72.41-1.31.41-.63,0-1.08-.14-1.34-.42-.26-.28-.4-.63-.42-1.05h.68Z"/>
      <path class="cls-14" d="M201.01,197.25h.71v1.17h.67v.57h-.67v2.73c0,.15.05.24.15.29.05.03.15.04.27.04.03,0,.07,0,.11,0s.08,0,.14-.01v.56c-.08.02-.17.04-.25.05-.09,0-.18.02-.28.02-.33,0-.55-.08-.67-.25s-.18-.39-.18-.65v-2.77h-.57v-.57h.57v-1.17Z"/>
      <path class="cls-14" d="M205.68,198.53c.28.14.49.32.63.54.14.21.23.46.28.74.04.19.06.5.06.92h-3.04c.01.43.11.77.3,1.02.19.26.47.39.86.39.36,0,.66-.12.87-.37.12-.14.21-.3.26-.49h.69c-.02.15-.08.32-.18.51-.1.19-.22.34-.34.46-.21.21-.47.35-.79.42-.17.04-.36.06-.57.06-.52,0-.96-.19-1.32-.57-.36-.38-.54-.91-.54-1.59s.18-1.22.54-1.64c.36-.42.84-.63,1.42-.63.29,0,.58.07.86.21ZM205.93,200.18c-.03-.3-.09-.55-.2-.73-.19-.34-.51-.51-.96-.51-.32,0-.59.12-.81.35-.22.23-.33.53-.34.89h2.3Z"/>
      <path class="cls-14" d="M207.56,198.42h.67v.72c.05-.14.19-.31.4-.51.21-.2.46-.3.74-.3.01,0,.04,0,.07,0,.03,0,.08,0,.16.02v.74s-.08-.01-.12-.02c-.04,0-.07,0-.12,0-.35,0-.63.11-.82.34-.19.23-.29.49-.29.79v2.41h-.7v-4.18Z"/>
      <path class="cls-14" d="M212.5,196.86h2.48c.68,0,1.16.2,1.44.6.17.24.25.51.25.82,0,.36-.1.66-.31.89-.11.12-.26.23-.46.34.29.11.51.24.66.38.26.25.39.59.39,1.04,0,.37-.12.7-.35,1-.35.45-.9.67-1.66.67h-2.44v-5.74ZM214.69,199.29c.33,0,.59-.05.77-.14.29-.14.43-.4.43-.77s-.15-.63-.46-.76c-.17-.07-.43-.11-.77-.11h-1.4v1.78h1.43ZM214.96,201.94c.48,0,.82-.14,1.03-.41.13-.17.19-.39.19-.63,0-.42-.19-.7-.56-.85-.2-.08-.46-.12-.79-.12h-1.56v2.02h1.69Z"/>
      <path class="cls-14" d="M220.01,200.07c.16-.02.27-.09.32-.2.03-.06.05-.15.05-.27,0-.24-.08-.41-.26-.52-.17-.11-.41-.16-.73-.16-.37,0-.63.1-.78.3-.08.11-.14.27-.17.49h-.66c.01-.52.18-.88.5-1.08.32-.2.69-.3,1.12-.3.49,0,.89.09,1.2.28.3.19.46.48.46.88v2.41c0,.07.01.13.04.18.03.04.09.07.19.07.03,0,.07,0,.11,0s.08,0,.12-.02v.52c-.11.03-.19.05-.25.06-.06,0-.14.01-.23.01-.24,0-.42-.09-.53-.26-.06-.09-.1-.22-.12-.39-.14.19-.35.35-.62.49-.27.14-.56.21-.89.21-.39,0-.71-.12-.95-.35s-.37-.53-.37-.88c0-.39.12-.69.36-.9.24-.21.56-.34.95-.39l1.12-.14ZM218.53,201.97c.15.12.32.18.53.18.25,0,.49-.06.72-.17.39-.19.59-.5.59-.93v-.57c-.09.05-.2.1-.33.14-.13.04-.27.06-.4.08l-.42.05c-.25.03-.45.09-.57.16-.22.12-.33.32-.33.58,0,.2.07.36.22.48Z"/>
      <path class="cls-14" d="M222.21,198.42h.67v.59c.2-.25.41-.42.63-.53.22-.11.47-.16.74-.16.59,0,.99.21,1.2.62.11.23.17.55.17.97v2.68h-.71v-2.64c0-.26-.04-.46-.11-.62-.12-.26-.35-.39-.68-.39-.17,0-.3.02-.41.05-.19.06-.36.17-.51.34-.12.14-.19.28-.23.43-.04.15-.05.36-.05.63v2.19h-.7v-4.18Z"/>
      <path class="cls-14" d="M226.65,196.86h.68v3.33l1.8-1.78h.9l-1.61,1.56,1.7,2.63h-.9l-1.32-2.13-.58.56v1.57h-.68v-5.74Z"/>
      <path class="cls-14" d="M231.08,201.29c.02.23.08.41.18.54.18.23.5.34.94.34.27,0,.5-.06.7-.17.2-.11.3-.29.3-.53,0-.18-.08-.32-.24-.41-.1-.06-.31-.12-.61-.2l-.57-.14c-.36-.09-.63-.19-.8-.3-.31-.19-.46-.45-.46-.79,0-.4.14-.72.43-.96.29-.25.68-.37,1.17-.37.64,0,1.1.18,1.38.55.18.23.26.49.26.76h-.66c-.01-.16-.07-.3-.17-.43-.17-.18-.45-.28-.86-.28-.27,0-.48.05-.62.15-.14.1-.21.24-.21.4,0,.18.09.33.28.44.11.07.26.12.47.17l.47.11c.51.12.86.24,1.04.36.27.18.41.46.41.85s-.14.69-.43.96c-.29.27-.72.41-1.31.41-.63,0-1.08-.14-1.34-.42-.26-.28-.4-.63-.42-1.05h.68Z"/>
    </g>
    <g>
      <path class="cls-14" d="M.5,112.82h1.5v.57h-.84v6.2h.84v.57H.5v-7.35Z"/>
      <path class="cls-14" d="M2.68,114.44h.69v.55c.14-.19.29-.34.46-.44.24-.16.52-.23.84-.23.47,0,.88.18,1.21.54.33.36.5.88.5,1.56,0,.91-.24,1.56-.72,1.95-.3.25-.66.37-1.06.37-.32,0-.58-.07-.8-.21-.13-.08-.27-.21-.42-.4v2.14h-.7v-5.83ZM5.33,117.72c.22-.27.33-.69.33-1.23,0-.33-.05-.62-.14-.86-.18-.46-.52-.69-1-.69s-.82.24-1,.73c-.1.26-.15.59-.15.99,0,.32.05.6.15.82.18.43.52.65,1,.65.33,0,.6-.14.82-.41Z"/>
      <path class="cls-14" d="M7.21,114.42h.67v.72c.05-.14.19-.31.4-.51.21-.2.46-.3.74-.3.01,0,.04,0,.07,0,.03,0,.08,0,.16.02v.74s-.08-.01-.12-.02c-.04,0-.07,0-.12,0-.35,0-.63.11-.82.34-.19.23-.29.49-.29.79v2.41h-.7v-4.18Z"/>
      <path class="cls-14" d="M9.45,116.41h.91l.36-1.34h-.9l.12-.45h.9l.47-1.75h.58l-.47,1.75h.87l.47-1.75h.57l-.47,1.75h.91l-.12.45h-.91l-.36,1.34h.91l-.12.45h-.91l-.47,1.74h-.57l.47-1.74h-.87l-.47,1.74h-.58l.47-1.74h-.9l.12-.45ZM11.81,116.41l.36-1.34h-.87l-.36,1.34h.87Z"/>
      <path class="cls-14" d="M14.45,119.42c.18-.03.31-.16.38-.38.04-.12.06-.23.06-.34,0-.02,0-.04,0-.05,0-.01,0-.03,0-.05h-.43v-.85h.84v.79c0,.31-.06.58-.19.82s-.34.38-.65.43v-.37Z"/>
      <path class="cls-14" d="M18.69,112.84h.68v2.08c.15-.2.34-.35.55-.46.21-.11.45-.16.7-.16.52,0,.95.18,1.27.54.33.36.49.89.49,1.58s-.16,1.21-.48,1.65c-.32.44-.77.66-1.34.66-.32,0-.59-.08-.81-.23-.13-.09-.27-.24-.42-.44v.54h-.65v-5.76ZM21.38,117.66c.19-.3.28-.7.28-1.2,0-.44-.09-.8-.28-1.09s-.47-.43-.84-.43c-.32,0-.6.12-.84.36-.24.24-.36.63-.36,1.17,0,.39.05.71.15.96.19.46.53.69,1.04.69.38,0,.67-.15.86-.45Z"/>
      <path class="cls-14" d="M23.9,114.42v2.78c0,.21.03.39.1.52.12.25.35.38.68.38.48,0,.8-.22.97-.66.09-.23.14-.56.14-.96v-2.05h.7v4.18h-.66v-.62c-.08.16-.19.29-.33.4-.26.22-.58.33-.96.33-.58,0-.98-.2-1.2-.6-.12-.21-.17-.5-.17-.86v-2.84h.72Z"/>
      <path class="cls-14" d="M28.06,117.29c.02.23.08.41.18.54.18.23.49.34.94.34.27,0,.5-.06.7-.17s.3-.29.3-.53c0-.18-.08-.32-.24-.41-.1-.06-.31-.12-.61-.2l-.57-.14c-.36-.09-.63-.19-.8-.3-.31-.19-.46-.45-.46-.79,0-.4.14-.72.43-.96.29-.24.68-.37,1.17-.37.64,0,1.1.19,1.38.55.18.23.26.49.26.76h-.66c-.01-.16-.07-.3-.17-.43-.17-.18-.45-.28-.86-.28-.27,0-.48.05-.62.15-.14.1-.21.23-.21.4,0,.18.09.33.28.44.11.06.26.12.47.17l.47.11c.51.12.86.24,1.03.36.27.18.41.46.41.85s-.14.69-.43.96c-.29.27-.72.41-1.31.41-.63,0-1.08-.14-1.34-.42-.26-.28-.4-.63-.42-1.05h.68Z"/>
      <path class="cls-14" d="M34.26,114.42h.78c-.1.27-.32.88-.66,1.84-.25.72-.47,1.31-.64,1.76-.41,1.07-.69,1.72-.86,1.95-.17.23-.45.35-.86.35-.1,0-.17,0-.23-.01s-.12-.02-.2-.04v-.64c.12.03.21.05.27.06s.1.01.14.01c.13,0,.22-.02.29-.06s.11-.09.15-.16c.01-.02.06-.13.14-.32.08-.19.14-.33.18-.43l-1.55-4.31h.8l1.12,3.41,1.13-3.41Z"/>
      <path class="cls-14" d="M35.2,119.42c.18-.03.31-.16.38-.38.04-.12.06-.23.06-.34,0-.02,0-.04,0-.05,0-.01,0-.03,0-.05h-.43v-.85h.84v.79c0,.31-.06.58-.19.82s-.34.38-.65.43v-.37Z"/>
      <path class="cls-14" d="M42.53,114.83c.37.36.55.89.55,1.58s-.16,1.23-.49,1.67c-.33.44-.83.66-1.52.66-.57,0-1.03-.19-1.36-.58-.34-.39-.5-.91-.5-1.57,0-.7.18-1.26.53-1.68.35-.42.83-.62,1.43-.62.54,0,.99.18,1.36.54ZM42.09,117.62c.17-.35.26-.75.26-1.18,0-.39-.06-.71-.19-.95-.2-.39-.53-.58-1.01-.58-.42,0-.73.16-.93.49-.19.33-.29.72-.29,1.19s.1.82.29,1.11c.19.3.5.44.92.44.46,0,.78-.18.95-.53Z"/>
      <path class="cls-14" d="M43.89,114.44h.69v.55c.14-.19.29-.34.46-.44.24-.16.52-.23.84-.23.47,0,.88.18,1.21.54.33.36.5.88.5,1.56,0,.91-.24,1.56-.72,1.95-.3.25-.66.37-1.06.37-.32,0-.58-.07-.8-.21-.13-.08-.27-.21-.42-.4v2.14h-.7v-5.83ZM46.54,117.72c.22-.27.33-.69.33-1.23,0-.33-.05-.62-.14-.86-.18-.46-.52-.69-1-.69s-.82.24-1,.73c-.1.26-.15.59-.15.99,0,.32.05.6.15.82.18.43.52.65,1,.65.33,0,.6-.14.82-.41Z"/>
      <path class="cls-14" d="M48.07,119.6h.83v-6.2h-.83v-.57h1.5v7.35h-1.5v-.57Z"/>
      <path class="cls-14" d="M11.23,121.14c.16-.24.48-.36.95-.36.04,0,.09,0,.14,0,.05,0,.1,0,.16.01v.64c-.07,0-.13,0-.16,0-.03,0-.06,0-.09,0-.22,0-.34.06-.39.17-.04.11-.06.39-.06.85h.7v.55h-.7v3.61h-.7v-3.61h-.58v-.55h.58v-.66c.01-.29.06-.5.15-.64Z"/>
      <path class="cls-14" d="M13.14,122.42h.67v.72c.05-.14.19-.31.4-.51.21-.2.46-.3.74-.3.01,0,.04,0,.07,0,.03,0,.08,0,.16.02v.74s-.08-.01-.12-.02c-.04,0-.07,0-.12,0-.35,0-.63.11-.82.34-.19.23-.29.49-.29.79v2.41h-.7v-4.18Z"/>
      <path class="cls-14" d="M18.82,122.83c.37.36.55.89.55,1.58s-.16,1.23-.49,1.67c-.33.44-.83.66-1.52.66-.57,0-1.03-.19-1.36-.58-.34-.39-.5-.91-.5-1.57,0-.7.18-1.26.53-1.68.35-.42.83-.62,1.43-.62.54,0,.99.18,1.36.54ZM18.38,125.62c.17-.35.26-.75.26-1.18,0-.39-.06-.71-.19-.95-.2-.39-.53-.58-1.01-.58-.42,0-.73.16-.93.49-.19.33-.29.72-.29,1.19s.1.82.29,1.11c.19.3.5.44.92.44.46,0,.78-.18.95-.53Z"/>
      <path class="cls-14" d="M20.24,122.42h.7v.59c.17-.21.32-.36.45-.45.23-.16.5-.24.79-.24.33,0,.6.08.8.25.12.09.22.23.31.41.16-.22.34-.39.55-.5.21-.11.45-.16.71-.16.56,0,.95.2,1.15.61.11.22.16.51.16.88v2.79h-.73v-2.91c0-.28-.07-.47-.21-.57-.14-.1-.31-.16-.51-.16-.28,0-.51.09-.71.28-.2.19-.3.49-.3.93v2.43h-.71v-2.73c0-.28-.03-.49-.1-.62-.11-.2-.31-.29-.6-.29-.27,0-.51.1-.72.31-.22.21-.33.58-.33,1.12v2.22h-.7v-4.18Z"/>
      <path class="cls-14" d="M29.31,120.86h2.61c.43,0,.78.06,1.06.19.53.25.79.7.79,1.36,0,.34-.07.62-.21.84-.14.22-.34.39-.6.53.22.09.39.21.51.36s.18.39.19.72l.03.77c0,.22.03.38.05.49.05.18.13.3.25.35v.13h-.95s-.05-.11-.06-.19-.03-.23-.04-.45l-.05-.96c-.02-.38-.15-.63-.41-.75-.14-.07-.37-.11-.68-.11h-1.72v2.46h-.78v-5.74ZM31.84,123.49c.35,0,.63-.07.84-.22.21-.15.31-.41.31-.79,0-.41-.14-.69-.43-.84-.15-.08-.36-.12-.62-.12h-1.85v1.96h1.75Z"/>
      <path class="cls-14" d="M35.5,124.75c.02.33.09.59.22.79.25.38.69.57,1.31.57.28,0,.54-.04.77-.12.45-.16.67-.45.67-.87,0-.31-.09-.54-.28-.67-.19-.13-.49-.24-.9-.34l-.75-.18c-.49-.11-.84-.24-1.04-.38-.35-.24-.53-.6-.53-1.07,0-.52.17-.94.52-1.27.35-.33.84-.5,1.48-.5.58,0,1.08.15,1.49.44.41.29.61.75.61,1.39h-.73c-.04-.31-.12-.54-.24-.71-.23-.3-.61-.45-1.16-.45-.44,0-.76.1-.95.29-.19.19-.29.42-.29.67,0,.28.11.49.34.62.15.08.49.19,1.01.31l.78.18c.38.09.67.21.87.36.35.27.53.66.53,1.17,0,.64-.23,1.09-.68,1.36-.45.27-.97.41-1.57.41-.7,0-1.24-.18-1.63-.55-.39-.36-.59-.85-.58-1.47h.73Z"/>
    </g>
    <rect class="cls-10" x="158.87" y="54.45" width="64.29" height="22.15"/>
    <rect class="cls-10" x="61.63" y="105.89" width="58.59" height="30.49"/>
    <g>
      <path class="cls-14" d="M170.14,62.88h2.57c.51,0,.92.14,1.23.43.31.29.47.69.47,1.21,0,.45-.14.84-.42,1.17-.28.33-.7.5-1.28.5h-1.79v2.43h-.78v-5.74ZM173.15,63.67c-.17-.08-.41-.12-.7-.12h-1.54v1.99h1.54c.35,0,.63-.07.84-.22s.32-.41.32-.79c0-.42-.16-.71-.46-.86Z"/>
      <path class="cls-14" d="M175.49,62.88h2.61c.43,0,.78.06,1.06.19.53.25.79.7.79,1.36,0,.34-.07.62-.21.84-.14.22-.34.39-.6.53.22.09.39.21.51.36s.18.39.19.72l.03.77c0,.22.03.38.05.49.05.18.13.3.25.35v.13h-.95s-.05-.11-.06-.19-.03-.23-.04-.45l-.05-.96c-.02-.38-.15-.63-.41-.75-.14-.07-.37-.11-.68-.11h-1.72v2.46h-.78v-5.74ZM178.02,65.51c.35,0,.63-.07.84-.22.21-.15.31-.41.31-.79,0-.41-.14-.69-.43-.84-.15-.08-.36-.12-.62-.12h-1.85v1.96h1.75Z"/>
      <path class="cls-14" d="M181.25,62.88h3.98v.7h-3.2v1.74h2.82v.68h-2.82v2.61h-.78v-5.74Z"/>
      <path class="cls-14" d="M188.27,62.88h2.48c.68,0,1.16.2,1.44.6.17.24.25.51.25.82,0,.36-.1.66-.31.89-.11.12-.26.23-.46.34.29.11.51.24.66.38.26.25.39.6.39,1.04,0,.37-.12.71-.35,1-.35.45-.9.67-1.66.67h-2.44v-5.74ZM190.46,65.31c.33,0,.59-.04.77-.14.29-.14.43-.4.43-.77s-.15-.63-.46-.76c-.17-.07-.43-.11-.77-.11h-1.4v1.78h1.43ZM190.72,67.96c.48,0,.82-.14,1.03-.41.13-.17.19-.38.19-.63,0-.42-.19-.7-.56-.85-.2-.08-.46-.12-.79-.12h-1.56v2.02h1.69Z"/>
      <path class="cls-14" d="M195.77,66.09c.16-.02.27-.09.32-.2.03-.06.05-.15.05-.27,0-.24-.08-.42-.25-.52-.17-.11-.41-.16-.73-.16-.37,0-.63.1-.78.3-.09.11-.14.27-.17.49h-.66c.01-.52.18-.88.5-1.08s.69-.3,1.12-.3c.49,0,.89.09,1.2.28.3.19.46.48.46.88v2.41c0,.07.02.13.04.18.03.04.09.07.19.07.03,0,.07,0,.11,0s.08,0,.12-.02v.52c-.11.03-.19.05-.25.06-.06,0-.13.01-.23.01-.24,0-.42-.09-.53-.26-.06-.09-.1-.22-.12-.39-.14.19-.35.35-.62.49-.27.14-.56.21-.89.21-.39,0-.71-.12-.95-.35s-.37-.53-.37-.88c0-.39.12-.69.36-.9s.56-.34.95-.39l1.12-.14ZM194.29,67.99c.15.12.32.17.53.17.25,0,.49-.06.72-.17.39-.19.59-.5.59-.93v-.57c-.09.05-.2.1-.33.14-.13.04-.27.06-.4.08l-.42.05c-.25.03-.45.09-.58.16-.22.12-.33.32-.33.58,0,.2.07.36.22.48Z"/>
      <path class="cls-14" d="M197.98,64.44h.67v.59c.2-.24.41-.42.63-.53.22-.11.47-.16.74-.16.59,0,1,.21,1.2.62.12.23.17.55.17.97v2.68h-.71v-2.64c0-.25-.04-.46-.11-.62-.12-.26-.35-.39-.68-.39-.17,0-.3.02-.41.05-.19.06-.36.17-.51.34-.12.14-.19.28-.23.43-.04.15-.05.36-.05.63v2.19h-.7v-4.18Z"/>
      <path class="cls-14" d="M202.41,62.88h.68v3.33l1.8-1.78h.9l-1.61,1.56,1.7,2.63h-.9l-1.32-2.13-.58.56v1.57h-.68v-5.74Z"/>
      <path class="cls-14" d="M211.87,63.92c.25.46.38,1.09.38,1.89s-.11,1.39-.34,1.89c-.33.71-.86,1.07-1.61,1.07-.67,0-1.17-.29-1.5-.88-.27-.49-.41-1.14-.41-1.96,0-.63.08-1.18.25-1.64.31-.85.86-1.27,1.67-1.27.72,0,1.25.3,1.57.89ZM211.16,67.65c.22-.32.32-.92.32-1.8,0-.63-.08-1.16-.23-1.57s-.46-.62-.91-.62c-.41,0-.72.2-.91.58-.19.39-.29.96-.29,1.72,0,.57.06,1.03.18,1.38.19.53.51.79.96.79.37,0,.66-.16.87-.48Z"/>
    </g>
    <rect class="cls-10" x="158.87" y="85.03" width="64.29" height="22.15"/>
    <g>
      <path class="cls-14" d="M170.14,93.46h2.57c.51,0,.92.14,1.23.43.31.29.47.69.47,1.21,0,.45-.14.84-.42,1.17-.28.33-.7.5-1.28.5h-1.79v2.43h-.78v-5.74ZM173.15,94.25c-.17-.08-.41-.12-.7-.12h-1.54v1.99h1.54c.35,0,.63-.07.84-.22s.32-.41.32-.79c0-.42-.16-.71-.46-.86Z"/>
      <path class="cls-14" d="M175.49,93.46h2.61c.43,0,.78.06,1.06.19.53.25.79.7.79,1.36,0,.34-.07.62-.21.84-.14.22-.34.39-.6.53.22.09.39.21.51.36s.18.39.19.72l.03.77c0,.22.03.38.05.49.05.18.13.3.25.35v.13h-.95s-.05-.11-.06-.19-.03-.23-.04-.45l-.05-.96c-.02-.38-.15-.63-.41-.75-.14-.07-.37-.11-.68-.11h-1.72v2.46h-.78v-5.74ZM178.02,96.09c.35,0,.63-.07.84-.22.21-.15.31-.41.31-.79,0-.41-.14-.69-.43-.84-.15-.08-.36-.12-.62-.12h-1.85v1.96h1.75Z"/>
      <path class="cls-14" d="M181.25,93.46h3.98v.7h-3.2v1.74h2.82v.68h-2.82v2.61h-.78v-5.74Z"/>
      <path class="cls-14" d="M188.27,93.46h2.48c.68,0,1.16.2,1.44.6.17.24.25.51.25.82,0,.36-.1.66-.31.89-.11.12-.26.23-.46.34.29.11.51.24.66.38.26.25.39.6.39,1.04,0,.37-.12.71-.35,1-.35.45-.9.67-1.66.67h-2.44v-5.74ZM190.46,95.89c.33,0,.59-.04.77-.14.29-.14.43-.4.43-.77s-.15-.63-.46-.76c-.17-.07-.43-.11-.77-.11h-1.4v1.78h1.43ZM190.72,98.53c.48,0,.82-.14,1.03-.41.13-.17.19-.38.19-.63,0-.42-.19-.7-.56-.85-.2-.08-.46-.12-.79-.12h-1.56v2.02h1.69Z"/>
      <path class="cls-14" d="M195.77,96.67c.16-.02.27-.09.32-.2.03-.06.05-.15.05-.27,0-.24-.08-.42-.25-.52-.17-.11-.41-.16-.73-.16-.37,0-.63.1-.78.3-.09.11-.14.27-.17.49h-.66c.01-.52.18-.88.5-1.08.32-.2.69-.3,1.12-.3.49,0,.89.09,1.2.28.3.19.46.48.46.88v2.41c0,.07.02.13.04.18.03.04.09.07.19.07.03,0,.07,0,.11,0s.08,0,.12-.02v.52c-.11.03-.19.05-.25.06-.06,0-.13.01-.23.01-.24,0-.42-.09-.53-.26-.06-.09-.1-.22-.12-.39-.14.19-.35.35-.62.49-.27.14-.56.21-.89.21-.39,0-.71-.12-.95-.35s-.37-.53-.37-.88c0-.39.12-.69.36-.9.24-.21.56-.35.95-.39l1.12-.14ZM194.29,98.57c.15.12.32.17.53.17.25,0,.49-.06.72-.17.39-.19.59-.5.59-.93v-.56c-.09.05-.2.1-.33.14-.13.04-.27.06-.4.08l-.42.05c-.25.03-.45.09-.58.16-.22.12-.33.32-.33.58,0,.2.07.36.22.48Z"/>
      <path class="cls-14" d="M197.98,95.01h.67v.59c.2-.24.41-.42.63-.53.22-.11.47-.16.74-.16.59,0,1,.21,1.2.62.12.23.17.55.17.97v2.68h-.71v-2.64c0-.25-.04-.46-.11-.62-.12-.26-.35-.39-.68-.39-.17,0-.3.02-.41.05-.19.06-.36.17-.51.34-.12.14-.19.28-.23.43-.04.15-.05.36-.05.63v2.19h-.7v-4.18Z"/>
      <path class="cls-14" d="M202.41,93.46h.68v3.33l1.8-1.78h.9l-1.61,1.56,1.7,2.63h-.9l-1.32-2.13-.58.56v1.57h-.68v-5.74Z"/>
      <path class="cls-14" d="M208.9,95.24v-.54c.51-.05.86-.13,1.06-.25.2-.12.35-.39.45-.82h.55v5.57h-.75v-3.96h-1.32Z"/>
    </g>
    <g>
      <path class="cls-14" d="M79.81,114.31c.4.38.62.82.66,1.3h-.76c-.08-.37-.25-.66-.5-.88s-.61-.32-1.06-.32c-.55,0-1,.2-1.34.6-.34.4-.51,1.01-.51,1.83,0,.67.15,1.22.46,1.64.31.42.77.63,1.38.63.56,0,.99-.22,1.29-.66.16-.23.27-.54.35-.91h.76c-.07.6-.29,1.11-.66,1.52-.45.49-1.06.74-1.82.74-.66,0-1.21-.2-1.66-.61-.59-.53-.88-1.36-.88-2.47,0-.85.22-1.54.66-2.08.48-.59,1.14-.88,1.98-.88.72,0,1.28.19,1.67.57Z"/>
      <path class="cls-14" d="M84.46,115.87c.37.36.55.89.55,1.58s-.16,1.23-.49,1.67c-.33.44-.83.66-1.52.66-.57,0-1.03-.19-1.36-.58-.34-.39-.5-.91-.5-1.57,0-.7.18-1.26.53-1.68.35-.42.83-.62,1.43-.62.54,0,.99.18,1.36.54ZM84.03,118.65c.17-.35.26-.75.26-1.18,0-.39-.06-.71-.19-.95-.2-.38-.53-.58-1.01-.58-.42,0-.73.16-.93.49-.19.33-.29.72-.29,1.19s.1.82.29,1.11c.19.3.5.44.92.44.46,0,.78-.18.95-.53Z"/>
      <path class="cls-14" d="M85.9,113.9h.7v5.74h-.7v-5.74Z"/>
      <path class="cls-14" d="M87.68,113.9h.7v5.74h-.7v-5.74Z"/>
      <path class="cls-14" d="M92.02,115.57c.28.14.49.32.63.54.14.21.23.46.28.74.04.19.06.5.06.92h-3.04c.01.43.11.77.3,1.02.19.26.47.39.86.39.36,0,.66-.12.87-.36.12-.14.21-.31.26-.49h.69c-.02.15-.08.33-.18.51-.1.19-.22.34-.34.46-.21.21-.47.35-.79.42-.17.04-.36.06-.57.06-.52,0-.96-.19-1.32-.57-.36-.38-.54-.91-.54-1.59s.18-1.22.54-1.64.84-.63,1.42-.63c.29,0,.58.07.86.21ZM92.27,117.21c-.03-.3-.09-.55-.2-.73-.19-.34-.51-.51-.96-.51-.32,0-.59.12-.81.35s-.33.53-.34.89h2.3Z"/>
      <path class="cls-14" d="M96.65,115.67c.3.23.47.62.53,1.18h-.68c-.04-.26-.14-.47-.29-.64s-.39-.26-.71-.26c-.45,0-.77.22-.96.66-.12.28-.19.63-.19,1.05s.09.77.27,1.06c.18.29.46.43.84.43.29,0,.52-.09.69-.27.17-.18.29-.42.35-.73h.68c-.08.55-.27.96-.59,1.22s-.71.38-1.2.38c-.55,0-.98-.2-1.31-.6-.33-.4-.49-.9-.49-1.5,0-.73.18-1.31.54-1.71.36-.41.81-.61,1.36-.61.47,0,.86.11,1.15.34Z"/>
      <path class="cls-14" d="M98.03,114.28h.71v1.17h.67v.57h-.67v2.73c0,.15.05.24.15.29.05.03.15.04.27.04.03,0,.07,0,.11,0s.08,0,.14-.01v.56c-.08.02-.16.04-.25.05-.09.01-.18.02-.28.02-.33,0-.55-.08-.67-.25s-.18-.39-.18-.65v-2.77h-.57v-.57h.57v-1.17Z"/>
      <path class="cls-14" d="M103.14,115.87c.37.36.55.89.55,1.58s-.16,1.23-.49,1.67c-.33.44-.83.66-1.52.66-.57,0-1.03-.19-1.36-.58-.34-.39-.5-.91-.5-1.57,0-.7.18-1.26.53-1.68.35-.42.83-.62,1.43-.62.54,0,.99.18,1.36.54ZM102.7,118.65c.17-.35.26-.75.26-1.18,0-.39-.06-.71-.19-.95-.2-.38-.53-.58-1.01-.58-.42,0-.73.16-.93.49-.19.33-.29.72-.29,1.19s.1.82.29,1.11c.19.3.5.44.92.44.46,0,.78-.18.95-.53Z"/>
      <path class="cls-14" d="M104.58,115.45h.67v.72c.05-.14.19-.31.4-.51.21-.2.46-.3.74-.3.01,0,.04,0,.07,0s.08,0,.16.02v.74s-.08-.01-.12-.02-.07,0-.12,0c-.35,0-.63.11-.82.34-.19.23-.29.49-.29.79v2.41h-.7v-4.18Z"/>
      <path class="cls-14" d="M77.64,121.9h.88l2.08,5.74h-.85l-.58-1.72h-2.27l-.62,1.72h-.8l2.16-5.74ZM78.92,125.28l-.87-2.54-.93,2.54h1.8Z"/>
      <path class="cls-14" d="M81.23,121.9h.7v5.74h-.7v-5.74Z"/>
      <path class="cls-14" d="M83.01,121.9h.7v5.74h-.7v-5.74Z"/>
      <path class="cls-14" d="M87.8,123.87c.37.36.55.89.55,1.58s-.16,1.23-.49,1.67c-.33.44-.83.66-1.52.66-.57,0-1.03-.19-1.36-.58-.34-.39-.5-.91-.5-1.57,0-.7.18-1.26.53-1.68.35-.42.83-.62,1.43-.62.54,0,.99.18,1.36.54ZM87.36,126.65c.17-.35.26-.75.26-1.18,0-.39-.06-.71-.19-.95-.2-.38-.53-.58-1.01-.58-.42,0-.73.16-.93.49-.19.33-.29.72-.29,1.19s.1.82.29,1.11c.19.3.5.44.92.44.46,0,.78-.18.95-.53Z"/>
      <path class="cls-14" d="M91.98,123.67c.3.23.47.62.53,1.18h-.68c-.04-.26-.14-.47-.29-.64s-.39-.26-.71-.26c-.45,0-.77.22-.96.66-.12.28-.19.63-.19,1.05s.09.77.27,1.06c.18.29.46.43.84.43.29,0,.52-.09.69-.27.17-.18.29-.42.35-.73h.68c-.08.55-.27.96-.59,1.22s-.71.38-1.2.38c-.55,0-.98-.2-1.31-.6-.33-.4-.49-.9-.49-1.5,0-.73.18-1.31.54-1.71.36-.41.81-.61,1.36-.61.47,0,.86.11,1.15.34Z"/>
      <path class="cls-14" d="M95.46,125.1c.16-.02.27-.09.32-.2.03-.06.05-.15.05-.27,0-.24-.08-.42-.25-.52-.17-.11-.41-.16-.73-.16-.37,0-.63.1-.78.3-.09.11-.14.27-.17.49h-.66c.01-.52.18-.88.5-1.08.32-.2.69-.3,1.12-.3.49,0,.89.09,1.2.28.3.19.46.48.46.88v2.41c0,.07.02.13.04.18.03.04.09.07.19.07.03,0,.07,0,.11,0s.08,0,.12-.02v.52c-.11.03-.19.05-.25.06-.06,0-.13.01-.23.01-.24,0-.42-.09-.53-.26-.06-.09-.1-.22-.12-.39-.14.19-.35.35-.62.49-.27.14-.56.21-.89.21-.39,0-.71-.12-.95-.35-.25-.24-.37-.53-.37-.88,0-.39.12-.69.36-.9s.56-.34.95-.39l1.12-.14ZM93.98,127c.15.12.32.17.53.17.25,0,.49-.06.72-.17.39-.19.59-.5.59-.93v-.57c-.09.05-.2.1-.33.14-.13.04-.27.06-.4.08l-.42.05c-.25.03-.45.09-.58.16-.22.12-.33.32-.33.58,0,.2.07.36.22.48Z"/>
      <path class="cls-14" d="M97.81,122.28h.71v1.17h.67v.57h-.67v2.73c0,.15.05.24.15.29.05.03.15.04.27.04.03,0,.07,0,.11,0s.08,0,.14-.01v.56c-.08.02-.16.04-.25.05-.09.01-.18.02-.28.02-.33,0-.55-.08-.67-.25s-.18-.39-.18-.65v-2.77h-.57v-.57h.57v-1.17Z"/>
      <path class="cls-14" d="M102.92,123.87c.37.36.55.89.55,1.58s-.16,1.23-.49,1.67c-.33.44-.83.66-1.52.66-.57,0-1.03-.19-1.36-.58-.34-.39-.5-.91-.5-1.57,0-.7.18-1.26.53-1.68.35-.42.83-.62,1.43-.62.54,0,.99.18,1.36.54ZM102.48,126.65c.17-.35.26-.75.26-1.18,0-.39-.06-.71-.19-.95-.2-.38-.53-.58-1.01-.58-.42,0-.73.16-.93.49-.19.33-.29.72-.29,1.19s.1.82.29,1.11c.19.3.5.44.92.44.46,0,.78-.18.95-.53Z"/>
      <path class="cls-14" d="M104.36,123.45h.67v.72c.05-.14.19-.31.4-.51.21-.2.46-.3.74-.3.01,0,.04,0,.07,0s.08,0,.16.02v.74s-.08-.01-.12-.02-.07,0-.12,0c-.35,0-.63.11-.82.34-.19.23-.29.49-.29.79v2.41h-.7v-4.18Z"/>
    </g>
    <rect class="cls-10" x="158.87" y="115.61" width="64.29" height="22.15"/>
    <g>
      <path class="cls-14" d="M170.14,124.04h2.57c.51,0,.92.14,1.23.43.31.29.47.69.47,1.21,0,.45-.14.84-.42,1.17-.28.33-.7.5-1.28.5h-1.79v2.43h-.78v-5.74ZM173.15,124.83c-.17-.08-.41-.12-.7-.12h-1.54v1.99h1.54c.35,0,.63-.07.84-.22s.32-.41.32-.79c0-.42-.16-.71-.46-.86Z"/>
      <path class="cls-14" d="M175.49,124.04h2.61c.43,0,.78.06,1.06.19.53.24.79.7.79,1.36,0,.34-.07.62-.21.84-.14.22-.34.39-.6.53.22.09.39.21.51.36s.18.39.19.72l.03.77c0,.22.03.38.05.49.05.18.13.3.25.35v.13h-.95s-.05-.11-.06-.19-.03-.23-.04-.45l-.05-.96c-.02-.38-.15-.63-.41-.75-.14-.07-.37-.11-.68-.11h-1.72v2.46h-.78v-5.74ZM178.02,126.67c.35,0,.63-.07.84-.22.21-.15.31-.41.31-.79,0-.41-.14-.69-.43-.84-.15-.08-.36-.12-.62-.12h-1.85v1.96h1.75Z"/>
      <path class="cls-14" d="M181.25,124.04h3.98v.7h-3.2v1.74h2.82v.68h-2.82v2.61h-.78v-5.74Z"/>
      <path class="cls-14" d="M188.27,124.04h2.48c.68,0,1.16.2,1.44.6.17.24.25.51.25.82,0,.36-.1.66-.31.89-.11.12-.26.23-.46.34.29.11.51.24.66.38.26.25.39.59.39,1.04,0,.37-.12.7-.35,1-.35.45-.9.67-1.66.67h-2.44v-5.74ZM190.46,126.46c.33,0,.59-.05.77-.14.29-.14.43-.4.43-.77s-.15-.63-.46-.76c-.17-.07-.43-.11-.77-.11h-1.4v1.78h1.43ZM190.72,129.11c.48,0,.82-.14,1.03-.41.13-.17.19-.39.19-.63,0-.42-.19-.7-.56-.85-.2-.08-.46-.12-.79-.12h-1.56v2.02h1.69Z"/>
      <path class="cls-14" d="M195.77,127.25c.16-.02.27-.09.32-.2.03-.06.05-.15.05-.27,0-.24-.08-.41-.25-.52-.17-.11-.41-.16-.73-.16-.37,0-.63.1-.78.3-.09.11-.14.27-.17.49h-.66c.01-.52.18-.88.5-1.08.32-.2.69-.3,1.12-.3.49,0,.89.09,1.2.28.3.19.46.48.46.88v2.41c0,.07.02.13.04.18.03.04.09.07.19.07.03,0,.07,0,.11,0s.08,0,.12-.02v.52c-.11.03-.19.05-.25.06-.06,0-.13.01-.23.01-.24,0-.42-.09-.53-.26-.06-.09-.1-.22-.12-.39-.14.19-.35.35-.62.49-.27.14-.56.21-.89.21-.39,0-.71-.12-.95-.35s-.37-.53-.37-.88c0-.39.12-.69.36-.9.24-.21.56-.34.95-.39l1.12-.14ZM194.29,129.14c.15.12.32.18.53.18.25,0,.49-.06.72-.17.39-.19.59-.5.59-.93v-.57c-.09.05-.2.1-.33.14s-.27.06-.4.08l-.42.05c-.25.03-.45.09-.58.16-.22.12-.33.32-.33.58,0,.2.07.36.22.48Z"/>
      <path class="cls-14" d="M197.98,125.59h.67v.59c.2-.25.41-.42.63-.53.22-.11.47-.16.74-.16.59,0,1,.21,1.2.62.12.23.17.55.17.97v2.68h-.71v-2.64c0-.26-.04-.46-.11-.62-.12-.26-.35-.39-.68-.39-.17,0-.3.02-.41.05-.19.06-.36.17-.51.34-.12.14-.19.28-.23.43-.04.15-.05.36-.05.63v2.19h-.7v-4.18Z"/>
      <path class="cls-14" d="M202.41,124.04h.68v3.33l1.8-1.78h.9l-1.61,1.56,1.7,2.63h-.9l-1.32-2.13-.58.56v1.57h-.68v-5.74Z"/>
      <path class="cls-14" d="M208.68,128.52c.17-.36.51-.68,1.01-.97l.75-.43c.34-.2.57-.36.71-.5.21-.22.32-.46.32-.74,0-.33-.1-.58-.29-.78-.2-.19-.46-.29-.78-.29-.48,0-.81.18-1,.55-.1.2-.15.47-.16.82h-.71c0-.49.1-.88.27-1.19.3-.54.84-.81,1.61-.81.64,0,1.11.17,1.4.52.3.35.44.73.44,1.16,0,.45-.16.83-.47,1.15-.18.18-.51.41-.98.67l-.54.3c-.25.14-.46.27-.6.4-.26.23-.42.48-.49.75h3.05v.66h-3.84c.03-.48.13-.9.3-1.26Z"/>
    </g>
    <rect class="cls-10" x="158.87" y="165.52" width="64.29" height="22.15"/>
    <g>
      <path class="cls-14" d="M165.92,173.95h2.57c.51,0,.92.14,1.23.43.31.29.47.69.47,1.21,0,.45-.14.84-.42,1.17-.28.33-.7.5-1.28.5h-1.79v2.43h-.78v-5.74ZM168.93,174.74c-.17-.08-.41-.12-.7-.12h-1.54v1.99h1.54c.35,0,.63-.07.84-.22s.32-.41.32-.79c0-.42-.16-.71-.46-.86Z"/>
      <path class="cls-14" d="M171.27,173.95h2.61c.43,0,.78.06,1.06.19.53.24.79.7.79,1.36,0,.34-.07.62-.21.84-.14.22-.34.39-.6.53.22.09.39.21.51.36s.18.39.19.72l.03.77c0,.22.03.38.05.49.05.18.13.3.25.35v.13h-.95s-.05-.11-.06-.19-.03-.23-.04-.45l-.05-.96c-.02-.38-.15-.63-.41-.75-.14-.07-.37-.11-.68-.11h-1.72v2.46h-.78v-5.74ZM173.8,176.58c.35,0,.63-.07.84-.22.21-.15.31-.41.31-.79,0-.41-.14-.69-.43-.84-.15-.08-.36-.12-.62-.12h-1.85v1.96h1.75Z"/>
      <path class="cls-14" d="M177.03,173.95h3.98v.7h-3.2v1.74h2.82v.68h-2.82v2.61h-.78v-5.74Z"/>
      <path class="cls-14" d="M184.05,173.95h2.48c.68,0,1.16.2,1.44.6.17.24.25.51.25.82,0,.36-.1.66-.31.89-.11.12-.26.23-.46.34.29.11.51.24.66.38.26.25.39.59.39,1.04,0,.37-.12.7-.35,1-.35.45-.9.67-1.66.67h-2.44v-5.74ZM186.24,176.38c.33,0,.59-.05.77-.14.29-.14.43-.4.43-.77s-.15-.63-.46-.76c-.17-.07-.43-.11-.77-.11h-1.4v1.78h1.43ZM186.5,179.03c.48,0,.82-.14,1.03-.41.13-.17.19-.39.19-.63,0-.42-.19-.7-.56-.85-.2-.08-.46-.12-.79-.12h-1.56v2.02h1.69Z"/>
      <path class="cls-14" d="M191.55,177.16c.16-.02.27-.09.32-.2.03-.06.05-.15.05-.27,0-.24-.08-.41-.25-.52-.17-.11-.41-.16-.73-.16-.37,0-.63.1-.78.3-.09.11-.14.27-.17.49h-.66c.01-.52.18-.88.5-1.08.32-.2.69-.3,1.12-.3.49,0,.89.09,1.2.28.3.19.46.48.46.88v2.41c0,.07.02.13.04.18.03.04.09.07.19.07.03,0,.07,0,.11,0s.08,0,.12-.02v.52c-.11.03-.19.05-.25.06-.06,0-.13.01-.23.01-.24,0-.42-.09-.53-.26-.06-.09-.1-.22-.12-.39-.14.19-.35.35-.62.49-.27.14-.56.21-.89.21-.39,0-.71-.12-.95-.35s-.37-.53-.37-.88c0-.39.12-.69.36-.9.24-.21.56-.34.95-.39l1.12-.14ZM190.07,179.06c.15.12.32.18.53.18.25,0,.49-.06.72-.17.39-.19.59-.5.59-.93v-.57c-.09.05-.2.1-.33.14s-.27.06-.4.08l-.42.05c-.25.03-.45.09-.58.16-.22.12-.33.32-.33.58,0,.2.07.36.22.48Z"/>
      <path class="cls-14" d="M193.76,175.51h.67v.59c.2-.25.41-.42.63-.53.22-.11.47-.16.74-.16.59,0,1,.21,1.2.62.12.23.17.55.17.97v2.68h-.71v-2.64c0-.26-.04-.46-.11-.62-.12-.26-.35-.39-.68-.39-.17,0-.3.02-.41.05-.19.06-.36.17-.51.34-.12.14-.19.28-.23.43-.04.15-.05.36-.05.63v2.19h-.7v-4.18Z"/>
      <path class="cls-14" d="M198.19,173.95h.68v3.33l1.8-1.78h.9l-1.61,1.56,1.7,2.63h-.9l-1.32-2.13-.58.56v1.57h-.68v-5.74Z"/>
      <path class="cls-14" d="M204.52,173.95h.92l2.86,4.64v-4.64h.74v5.74h-.87l-2.9-4.63v4.63h-.74v-5.74Z"/>
      <path class="cls-14" d="M210.02,177.1h1.96v.72h-1.96v-.72Z"/>
      <path class="cls-14" d="M213.12,175.73v-.54c.51-.05.86-.13,1.06-.25.2-.12.35-.39.45-.82h.55v5.57h-.75v-3.96h-1.32Z"/>
    </g>
    <g>
      <line class="cls-13" x1="51.74" y1="121.14" x2="61.63" y2="121.14"/>
      <g>
        <line class="cls-9" x1="51.74" y1="121.14" x2="59.83" y2="121.14"/>
        <polygon class="cls-14" points="59.47 122.38 61.63 121.14 59.47 119.89 59.47 122.38"/>
      </g>
    </g>
    <g>
      <path class="cls-15" d="M147.27,22.56l1.08,4.66,1.3-4.66h.84l1.3,4.67,1.08-4.67h.85l-1.51,5.74h-.82l-1.32-4.76-1.33,4.76h-.82l-1.5-5.74h.84Z"/>
      <path class="cls-15" d="M154.22,24.12h.67v.72c.05-.14.19-.31.4-.51.21-.2.46-.3.74-.3.01,0,.04,0,.07,0,.03,0,.08,0,.16.02v.74s-.08-.01-.12-.02c-.04,0-.07,0-.12,0-.35,0-.63.11-.82.34-.19.23-.29.49-.29.79v2.41h-.7v-4.18Z"/>
      <path class="cls-15" d="M156.87,22.56h.71v.8h-.71v-.8ZM156.87,24.13h.71v4.16h-.71v-4.16Z"/>
      <path class="cls-15" d="M158.79,22.95h.71v1.17h.67v.57h-.67v2.73c0,.15.05.24.15.29.05.03.15.04.27.04.03,0,.07,0,.11,0s.08,0,.14-.01v.56c-.08.02-.16.04-.25.05-.09,0-.18.02-.28.02-.33,0-.55-.08-.67-.25s-.18-.39-.18-.65v-2.77h-.57v-.57h.57v-1.17Z"/>
      <path class="cls-15" d="M163.45,24.23c.28.14.49.32.63.54.14.21.23.46.28.74.04.19.06.5.06.92h-3.04c.01.43.11.77.3,1.02.19.26.47.39.86.39.36,0,.66-.12.87-.37.12-.14.21-.3.26-.49h.69c-.02.15-.08.32-.18.51-.1.19-.22.34-.34.46-.21.21-.47.35-.79.42-.17.04-.36.06-.57.06-.52,0-.96-.19-1.32-.57-.36-.38-.54-.91-.54-1.59s.18-1.22.54-1.64c.36-.42.84-.63,1.42-.63.29,0,.58.07.86.21ZM163.71,25.87c-.03-.3-.09-.55-.2-.73-.19-.34-.51-.51-.96-.51-.32,0-.59.12-.81.35-.22.23-.33.53-.34.89h2.3Z"/>
      <path class="cls-15" d="M165.26,22.54h.68v2.08c.15-.2.34-.35.55-.46.21-.11.45-.16.7-.16.52,0,.95.18,1.27.54.33.36.49.89.49,1.58,0,.66-.16,1.21-.48,1.65-.32.44-.77.66-1.34.66-.32,0-.59-.08-.81-.23-.13-.09-.27-.24-.42-.44v.54h-.65v-5.76ZM167.95,27.36c.19-.3.28-.7.28-1.2,0-.44-.09-.8-.28-1.09s-.47-.43-.84-.43c-.32,0-.6.12-.84.36-.24.24-.36.63-.36,1.17,0,.39.05.71.15.96.19.46.53.69,1.04.69.38,0,.67-.15.86-.45Z"/>
      <path class="cls-15" d="M172.01,25.77c.16-.02.27-.09.32-.2.03-.06.05-.15.05-.27,0-.24-.08-.41-.25-.52-.17-.11-.41-.16-.73-.16-.37,0-.63.1-.78.3-.09.11-.14.27-.17.49h-.66c.01-.52.18-.88.5-1.08.32-.2.69-.3,1.12-.3.49,0,.89.09,1.2.28.3.19.46.48.46.88v2.41c0,.07.02.13.04.18.03.04.09.07.19.07.03,0,.07,0,.11,0s.08,0,.12-.02v.52c-.11.03-.19.05-.25.06-.06,0-.13.01-.23.01-.24,0-.42-.09-.53-.26-.06-.09-.1-.22-.12-.39-.14.19-.35.35-.62.49-.27.14-.56.21-.89.21-.39,0-.71-.12-.95-.35s-.37-.53-.37-.88c0-.39.12-.69.36-.9.24-.21.56-.34.95-.39l1.12-.14ZM170.53,27.67c.15.12.32.18.53.18.25,0,.49-.06.72-.17.39-.19.59-.5.59-.93v-.57c-.09.05-.2.1-.33.14s-.27.06-.4.08l-.42.05c-.25.03-.45.09-.58.16-.22.12-.33.32-.33.58,0,.2.07.36.22.48Z"/>
      <path class="cls-15" d="M176.98,24.34c.3.23.47.62.53,1.18h-.68c-.04-.26-.14-.47-.29-.64-.15-.17-.39-.26-.71-.26-.45,0-.77.22-.96.66-.12.28-.19.63-.19,1.05s.09.77.27,1.06c.18.29.46.43.84.43.29,0,.52-.09.69-.27.17-.18.29-.42.35-.73h.68c-.08.55-.27.96-.59,1.22-.31.26-.71.38-1.2.38-.55,0-.98-.2-1.31-.6-.33-.4-.49-.9-.49-1.5,0-.73.18-1.31.54-1.71.36-.41.81-.61,1.36-.61.47,0,.86.11,1.15.34Z"/>
      <path class="cls-15" d="M178.2,22.56h.68v3.33l1.8-1.78h.9l-1.61,1.56,1.7,2.63h-.9l-1.32-2.13-.58.56v1.57h-.68v-5.74Z"/>
      <path class="cls-15" d="M184.57,22.56h2.29c.78,0,1.38.28,1.81.84.38.5.57,1.15.57,1.94,0,.61-.11,1.16-.34,1.65-.4.87-1.08,1.3-2.05,1.3h-2.29v-5.74ZM186.71,27.63c.26,0,.47-.03.63-.08.29-.1.54-.3.73-.59.15-.23.26-.53.33-.89.04-.22.06-.42.06-.6,0-.71-.14-1.26-.41-1.66-.28-.39-.72-.59-1.33-.59h-1.35v4.41h1.36Z"/>
      <path class="cls-15" d="M192.46,25.77c.16-.02.27-.09.32-.2.03-.06.05-.15.05-.27,0-.24-.08-.41-.25-.52-.17-.11-.41-.16-.73-.16-.37,0-.63.1-.78.3-.09.11-.14.27-.17.49h-.66c.01-.52.18-.88.5-1.08.32-.2.69-.3,1.12-.3.49,0,.89.09,1.2.28.3.19.46.48.46.88v2.41c0,.07.02.13.04.18.03.04.09.07.19.07.03,0,.07,0,.11,0s.08,0,.12-.02v.52c-.11.03-.19.05-.25.06-.06,0-.13.01-.23.01-.24,0-.42-.09-.53-.26-.06-.09-.1-.22-.12-.39-.14.19-.35.35-.62.49-.27.14-.56.21-.89.21-.39,0-.71-.12-.95-.35s-.37-.53-.37-.88c0-.39.12-.69.36-.9.24-.21.56-.34.95-.39l1.12-.14ZM190.98,27.67c.15.12.32.18.53.18.25,0,.49-.06.72-.17.39-.19.59-.5.59-.93v-.57c-.09.05-.2.1-.33.14s-.27.06-.4.08l-.42.05c-.25.03-.45.09-.58.16-.22.12-.33.32-.33.58,0,.2.07.36.22.48Z"/>
      <path class="cls-15" d="M194.81,22.95h.71v1.17h.67v.57h-.67v2.73c0,.15.05.24.15.29.05.03.15.04.27.04.03,0,.07,0,.11,0s.08,0,.14-.01v.56c-.08.02-.16.04-.25.05-.09,0-.18.02-.28.02-.33,0-.55-.08-.67-.25s-.18-.39-.18-.65v-2.77h-.57v-.57h.57v-1.17Z"/>
      <path class="cls-15" d="M199.13,25.77c.16-.02.27-.09.32-.2.03-.06.05-.15.05-.27,0-.24-.08-.41-.25-.52-.17-.11-.41-.16-.73-.16-.37,0-.63.1-.78.3-.09.11-.14.27-.17.49h-.66c.01-.52.18-.88.5-1.08.32-.2.69-.3,1.12-.3.49,0,.89.09,1.2.28.3.19.46.48.46.88v2.41c0,.07.02.13.04.18.03.04.09.07.19.07.03,0,.07,0,.11,0s.08,0,.12-.02v.52c-.11.03-.19.05-.25.06-.06,0-.13.01-.23.01-.24,0-.42-.09-.53-.26-.06-.09-.1-.22-.12-.39-.14.19-.35.35-.62.49-.27.14-.56.21-.89.21-.39,0-.71-.12-.95-.35s-.37-.53-.37-.88c0-.39.12-.69.36-.9.24-.21.56-.34.95-.39l1.12-.14ZM197.65,27.67c.15.12.32.18.53.18.25,0,.49-.06.72-.17.39-.19.59-.5.59-.93v-.57c-.09.05-.2.1-.33.14s-.27.06-.4.08l-.42.05c-.25.03-.45.09-.58.16-.22.12-.33.32-.33.58,0,.2.07.36.22.48Z"/>
      <path class="cls-15" d="M203.63,22.56h2.48c.68,0,1.16.2,1.44.6.17.24.25.51.25.82,0,.36-.1.66-.31.89-.11.12-.26.23-.46.34.29.11.51.24.66.38.26.25.39.59.39,1.04,0,.37-.12.7-.35,1-.35.45-.9.67-1.66.67h-2.44v-5.74ZM205.83,24.99c.33,0,.59-.05.77-.14.29-.14.43-.4.43-.77s-.15-.63-.46-.76c-.17-.07-.43-.11-.77-.11h-1.4v1.78h1.43ZM206.09,27.63c.48,0,.82-.14,1.03-.41.13-.17.19-.39.19-.63,0-.42-.19-.7-.56-.85-.2-.08-.46-.12-.79-.12h-1.56v2.02h1.69Z"/>
      <path class="cls-15" d="M209.6,24.12v2.78c0,.21.03.39.1.52.12.25.35.38.68.38.48,0,.8-.22.97-.66.09-.23.14-.56.14-.96v-2.05h.7v4.18h-.66v-.62c-.08.16-.19.29-.33.4-.26.22-.58.33-.96.33-.58,0-.98-.2-1.2-.6-.12-.21-.17-.5-.17-.86v-2.84h.72Z"/>
      <path class="cls-15" d="M213.76,26.99c.02.23.08.41.18.54.18.23.49.34.94.34.27,0,.5-.06.7-.17s.3-.29.3-.53c0-.18-.08-.32-.24-.41-.1-.06-.31-.12-.61-.2l-.57-.14c-.36-.09-.63-.19-.8-.3-.31-.19-.46-.45-.46-.79,0-.4.14-.72.43-.96.29-.25.68-.37,1.17-.37.64,0,1.1.18,1.38.55.18.23.26.49.26.76h-.66c-.01-.16-.07-.3-.17-.43-.17-.18-.45-.28-.86-.28-.27,0-.48.05-.62.15-.14.1-.21.24-.21.4,0,.18.09.33.28.44.11.07.26.12.47.17l.47.11c.51.12.86.24,1.03.36.27.18.41.46.41.85s-.14.69-.43.96c-.29.27-.72.41-1.31.41-.63,0-1.08-.14-1.34-.42-.26-.28-.4-.63-.42-1.05h.68Z"/>
      <path class="cls-15" d="M222.21,29.13c-.44-.21-.83-.49-1.16-.84-.33-.35-.58-.74-.76-1.18-.18-.44-.27-.9-.27-1.37s.09-.93.26-1.36c.18-.43.42-.81.74-1.15s.7-.61,1.13-.81l.15.5c-.26.14-.49.31-.7.51-.21.2-.39.43-.54.67-.15.25-.27.51-.35.79-.08.28-.12.57-.12.87s.04.59.12.87c.08.28.2.55.36.8.15.25.34.48.56.69.22.21.46.38.73.52l-.15.48Z"/>
      <path class="cls-15" d="M223.45,23.31h.54l2.1,3.7v-3.7h.61v.06s-.05.07-.06.1c0,.04-.01.1-.01.19v4.63h-.44l-2.2-3.92v3.92h-.54v-4.98Z"/>
      <path class="cls-15" d="M228.72,28.3v-4.48h-1.42v-.5h3.46v.5h-1.47v4.48h-.57Z"/>
      <path class="cls-15" d="M232.16,27.31l-.43-.35,1.04-1.2-1.38-.42.21-.52,1.3.61-.13-1.42h.62l-.14,1.42,1.27-.58.21.49-1.37.42,1.01,1.21-.44.34-.86-1.33-.9,1.34Z"/>
      <path class="cls-15" d="M235.38,28.3l1.36-2.54-1.34-2.44h.6l1.05,1.89,1.03-1.89h.56l-1.26,2.44,1.42,2.55h-.63l-1.1-1.97-1.07,1.97h-.61Z"/>
      <path class="cls-15" d="M239.58,23.31h.66v.06s-.05.07-.06.1-.01.1-.01.19v4.15h2.4v.48h-2.98v-4.98Z"/>
      <path class="cls-15" d="M243.53,28.3v-4.98h3.06v.5h-2.53v1.63h2.09v.51h-2.09v1.85h2.5v.5h-3.03Z"/>
      <path class="cls-15" d="M247.45,23.31h.54l2.1,3.7v-3.7h.61v.06s-.05.07-.06.1c0,.04-.01.1-.01.19v4.63h-.44l-2.2-3.92v3.92h-.54v-4.98Z"/>
      <path class="cls-15" d="M251.41,25.19v-.49h3.29v.49h-3.29ZM251.41,26.84v-.49h3.29v.49h-3.29Z"/>
      <path class="cls-15" d="M256.2,28.19c-.26-.13-.47-.32-.64-.57l.45-.34.06-.05.03.04s0,.08.02.12.05.09.11.16c.11.12.22.2.36.26s.29.08.48.08c.13,0,.25-.03.37-.08.12-.06.22-.13.31-.24.09-.1.16-.23.21-.38.05-.15.08-.31.08-.5s-.03-.35-.08-.5c-.05-.15-.13-.27-.22-.37-.09-.1-.2-.18-.32-.23-.12-.05-.26-.08-.4-.08-.11,0-.22.02-.34.06-.11.04-.22.09-.32.16s-.19.16-.28.26l-.35-.14.17-2.54h2.53v.5h-2.06l-.08,1.43c.09-.04.18-.08.27-.11.09-.03.18-.05.27-.06.09-.01.19-.02.28-.02.22,0,.42.04.6.12s.34.19.48.34c.14.15.24.32.32.53.07.21.11.44.11.69,0,.34-.07.64-.21.88s-.33.44-.56.57c-.23.13-.5.2-.8.2s-.58-.07-.84-.2Z"/>
      <path class="cls-15" d="M260.89,28.3v-4.29l-1.01.3-.13-.31,1.3-.68h.39v4.98h-.56Z"/>
      <path class="cls-15" d="M263.64,27.85c.29-.29.55-.56.79-.8.24-.24.46-.46.64-.67s.35-.4.48-.58c.13-.18.24-.37.3-.54s.1-.37.1-.56c0-.17-.02-.31-.06-.43-.04-.12-.1-.21-.18-.28s-.17-.12-.27-.16c-.1-.03-.21-.05-.33-.05-.13,0-.25.02-.37.06-.12.04-.23.09-.34.16-.11.07-.21.17-.3.28-.05.08-.08.13-.09.17s-.01.08,0,.12l-.03.04-.06-.04-.41-.32c.11-.21.24-.38.4-.53.16-.14.34-.25.54-.33.2-.07.42-.11.65-.11.28,0,.53.06.74.17.21.12.38.28.5.49.12.21.18.47.18.76,0,.22-.04.43-.12.64s-.19.41-.33.6-.3.4-.49.59c-.19.2-.38.4-.6.61-.21.21-.43.43-.65.66h1.86c.09,0,.15,0,.19-.02.04-.01.07-.03.1-.06h.06v.57h-2.93v-.45Z"/>
      <path class="cls-15" d="M268.76,28.29c-.13-.05-.25-.11-.36-.2s-.21-.19-.29-.3l-.2.5h-.37v-5.32h.66v.06s-.05.07-.06.1c0,.04-.01.1-.01.19v1.88c.06-.1.13-.18.21-.26s.17-.15.26-.21.2-.1.3-.13c.11-.03.21-.04.31-.04.22,0,.43.04.61.12.18.08.34.19.48.35.13.16.24.35.31.58.07.23.11.51.11.82s-.04.61-.13.85c-.09.24-.2.45-.35.61-.15.16-.31.28-.49.36-.18.08-.37.12-.56.12-.15,0-.29-.02-.42-.07ZM269.48,27.78c.12-.05.23-.12.32-.23.1-.11.17-.25.23-.43.06-.18.08-.4.08-.66,0-.24-.02-.44-.07-.62s-.12-.32-.2-.44-.19-.2-.32-.26c-.12-.06-.26-.08-.4-.08-.2,0-.37.06-.52.18-.15.12-.27.29-.36.5-.09.21-.13.46-.13.74,0,.21.02.39.06.56s.09.31.17.43.18.21.3.28c.12.07.28.1.46.1.13,0,.25-.02.37-.07Z"/>
      <path class="cls-15" d="M272.12,29.13l-.15-.48c.27-.14.52-.32.73-.52.22-.21.4-.43.56-.69.15-.25.27-.52.36-.8.08-.28.12-.57.12-.87s-.04-.59-.12-.87c-.08-.28-.2-.55-.35-.79s-.33-.47-.54-.67c-.21-.2-.44-.37-.7-.51l.15-.5c.43.2.81.47,1.13.81s.57.72.74,1.15c.18.43.26.88.26,1.36s-.09.93-.27,1.37c-.18.44-.43.83-.76,1.18-.33.35-.71.63-1.16.84Z"/>
    </g>
    <g>
      <path class="cls-15" d="M159.62,41.79c.38.51.57,1.16.57,1.95,0,.86-.22,1.57-.65,2.14-.51.67-1.24,1-2.18,1-.88,0-1.58-.29-2.08-.88-.45-.56-.68-1.27-.68-2.13,0-.78.19-1.44.58-1.99.49-.71,1.23-1.06,2.2-1.06s1.76.33,2.25.98ZM158.94,45.45c.31-.49.46-1.06.46-1.69,0-.68-.18-1.22-.53-1.63-.35-.41-.84-.62-1.45-.62s-1.08.2-1.45.61c-.38.41-.56,1.01-.56,1.8,0,.64.16,1.17.48,1.61.32.44.84.66,1.56.66.68,0,1.18-.25,1.49-.74Z"/>
      <path class="cls-15" d="M160.97,42.55h.69v.55c.14-.19.29-.34.46-.44.24-.16.52-.23.84-.23.48,0,.88.18,1.21.54.33.36.5.88.5,1.56,0,.91-.24,1.56-.72,1.95-.3.25-.66.37-1.06.37-.32,0-.58-.07-.8-.21-.12-.08-.26-.21-.42-.4v2.14h-.7v-5.83ZM163.61,45.83c.22-.28.33-.69.33-1.23,0-.33-.05-.62-.15-.86-.18-.46-.52-.69-1-.69s-.82.24-1,.73c-.1.26-.14.59-.14.99,0,.32.05.6.14.82.18.43.52.65,1,.65.33,0,.6-.14.82-.41Z"/>
      <path class="cls-15" d="M168.06,42.64c.28.14.49.32.63.54.14.21.23.46.28.74.04.19.06.5.06.92h-3.04c.01.43.11.77.3,1.02.19.26.47.39.86.39.36,0,.66-.12.87-.37.12-.14.21-.3.26-.49h.69c-.02.15-.08.32-.18.51-.1.19-.22.34-.34.46-.21.21-.47.35-.79.42-.17.04-.36.06-.57.06-.52,0-.96-.19-1.32-.57-.36-.38-.54-.91-.54-1.59s.18-1.22.54-1.64c.36-.42.84-.63,1.42-.63.29,0,.58.07.86.21ZM168.31,44.29c-.03-.3-.09-.55-.2-.73-.19-.34-.51-.51-.96-.51-.32,0-.59.12-.81.35-.22.23-.33.53-.34.89h2.3Z"/>
      <path class="cls-15" d="M169.94,42.53h.67v.72c.05-.14.19-.31.4-.51.21-.2.46-.3.74-.3.01,0,.04,0,.07,0,.03,0,.08,0,.16.02v.74s-.08-.01-.12-.02c-.04,0-.07,0-.12,0-.35,0-.63.11-.82.34-.19.23-.29.49-.29.79v2.41h-.7v-4.18Z"/>
      <path class="cls-15" d="M174.83,44.18c.16-.02.27-.09.32-.2.03-.06.05-.15.05-.27,0-.24-.08-.41-.26-.52-.17-.11-.41-.16-.73-.16-.37,0-.63.1-.78.3-.08.11-.14.27-.17.49h-.66c.01-.52.18-.88.5-1.08.32-.2.69-.3,1.12-.3.49,0,.89.09,1.2.28.3.19.46.48.46.88v2.41c0,.07.01.13.04.18.03.04.09.07.19.07.03,0,.07,0,.11,0s.08,0,.12-.02v.52c-.11.03-.19.05-.25.06-.06,0-.14.01-.23.01-.24,0-.42-.09-.53-.26-.06-.09-.1-.22-.12-.39-.14.19-.35.35-.62.49-.27.14-.56.21-.89.21-.39,0-.71-.12-.95-.35s-.37-.53-.37-.88c0-.39.12-.69.36-.9.24-.21.56-.34.95-.39l1.12-.14ZM173.35,46.08c.15.12.32.18.53.18.25,0,.49-.06.72-.17.39-.19.59-.5.59-.93v-.57c-.09.05-.2.1-.33.14-.13.04-.27.06-.4.08l-.42.05c-.25.03-.45.09-.57.16-.22.12-.33.32-.33.58,0,.2.07.36.22.48Z"/>
      <path class="cls-15" d="M177.04,42.53h.67v.59c.2-.25.41-.42.63-.53.22-.11.47-.16.74-.16.59,0,.99.21,1.2.62.11.23.17.55.17.97v2.68h-.71v-2.64c0-.26-.04-.46-.11-.62-.12-.26-.35-.39-.68-.39-.17,0-.3.02-.41.05-.19.06-.36.17-.51.34-.12.14-.19.28-.23.43-.04.15-.05.36-.05.63v2.19h-.7v-4.18Z"/>
      <path class="cls-15" d="M183.78,42.66c.12.08.27.21.42.41v-2.11h.68v5.76h-.63v-.58c-.16.26-.36.44-.58.56-.22.11-.48.17-.77.17-.46,0-.87-.2-1.21-.59-.34-.39-.51-.91-.51-1.56,0-.61.15-1.14.46-1.58.31-.45.75-.67,1.33-.67.32,0,.59.07.8.2ZM182.21,45.79c.19.3.49.45.91.45.32,0,.59-.14.8-.42.21-.28.31-.68.31-1.21s-.11-.92-.32-1.17c-.21-.25-.48-.38-.8-.38-.35,0-.64.13-.86.41-.22.27-.33.67-.33,1.2,0,.45.09.82.28,1.12Z"/>
      <path class="cls-15" d="M188.33,40.97h3.98v.7h-3.2v1.74h2.82v.68h-2.82v2.61h-.78v-5.74Z"/>
      <path class="cls-15" d="M196.08,42.95c.37.36.55.89.55,1.58s-.16,1.23-.49,1.67c-.33.44-.83.66-1.52.66-.57,0-1.03-.19-1.36-.58-.34-.39-.5-.91-.5-1.57,0-.7.18-1.26.53-1.68.35-.42.83-.62,1.43-.62.54,0,.99.18,1.36.54ZM195.64,45.73c.17-.35.26-.74.26-1.18,0-.39-.06-.71-.19-.95-.2-.38-.53-.58-1.01-.58-.42,0-.73.16-.93.49-.19.33-.29.72-.29,1.19s.1.82.29,1.11c.19.3.5.45.92.45.46,0,.78-.18.95-.53Z"/>
      <path class="cls-15" d="M197.51,42.53h.67v.72c.05-.14.19-.31.4-.51.21-.2.46-.3.74-.3.01,0,.04,0,.07,0,.03,0,.08,0,.16.02v.74s-.08-.01-.12-.02c-.04,0-.07,0-.12,0-.35,0-.63.11-.82.34-.19.23-.29.49-.29.79v2.41h-.7v-4.18Z"/>
      <path class="cls-15" d="M200.48,42.53l.8,3.3.82-3.3h.79l.82,3.28.86-3.28h.7l-1.21,4.18h-.73l-.85-3.24-.82,3.24h-.73l-1.21-4.18h.77Z"/>
      <path class="cls-15" d="M208.18,44.18c.16-.02.27-.09.32-.2.03-.06.05-.15.05-.27,0-.24-.08-.41-.26-.52-.17-.11-.41-.16-.73-.16-.37,0-.63.1-.78.3-.08.11-.14.27-.17.49h-.66c.01-.52.18-.88.5-1.08.32-.2.69-.3,1.12-.3.49,0,.89.09,1.2.28.3.19.46.48.46.88v2.41c0,.07.01.13.04.18.03.04.09.07.19.07.03,0,.07,0,.11,0s.08,0,.12-.02v.52c-.11.03-.19.05-.25.06-.06,0-.14.01-.23.01-.24,0-.42-.09-.53-.26-.06-.09-.1-.22-.12-.39-.14.19-.35.35-.62.49-.27.14-.56.21-.89.21-.39,0-.71-.12-.95-.35s-.37-.53-.37-.88c0-.39.12-.69.36-.9.24-.21.56-.34.95-.39l1.12-.14ZM206.7,46.08c.15.12.32.18.53.18.25,0,.49-.06.72-.17.39-.19.59-.5.59-.93v-.57c-.09.05-.2.1-.33.14-.13.04-.27.06-.4.08l-.42.05c-.25.03-.45.09-.57.16-.22.12-.33.32-.33.58,0,.2.07.36.22.48Z"/>
      <path class="cls-15" d="M210.4,42.53h.67v.72c.05-.14.19-.31.4-.51.21-.2.46-.3.74-.3.01,0,.04,0,.07,0,.03,0,.08,0,.16.02v.74s-.08-.01-.12-.02c-.04,0-.07,0-.12,0-.35,0-.63.11-.82.34-.19.23-.29.49-.29.79v2.41h-.7v-4.18Z"/>
      <path class="cls-15" d="M215.35,42.66c.12.08.27.21.42.41v-2.11h.68v5.76h-.63v-.58c-.16.26-.36.44-.58.56-.22.11-.48.17-.77.17-.46,0-.87-.2-1.21-.59-.34-.39-.51-.91-.51-1.56,0-.61.15-1.14.46-1.58.31-.45.75-.67,1.33-.67.32,0,.59.07.8.2ZM213.78,45.79c.19.3.49.45.91.45.32,0,.59-.14.8-.42.21-.28.31-.68.31-1.21s-.11-.92-.32-1.17c-.21-.25-.48-.38-.8-.38-.35,0-.64.13-.86.41-.22.27-.33.67-.33,1.2,0,.45.09.82.28,1.12Z"/>
      <path class="cls-15" d="M219.79,40.97h2.48c.68,0,1.16.2,1.44.6.17.24.25.51.25.82,0,.36-.1.66-.31.89-.11.12-.26.23-.46.34.29.11.51.24.66.38.26.25.39.59.39,1.04,0,.37-.12.7-.35,1-.35.45-.9.67-1.66.67h-2.44v-5.74ZM221.99,43.4c.33,0,.59-.05.77-.14.29-.14.43-.4.43-.77s-.15-.63-.46-.76c-.17-.07-.43-.11-.77-.11h-1.4v1.78h1.43ZM222.25,46.05c.48,0,.82-.14,1.03-.41.13-.17.19-.39.19-.63,0-.42-.19-.7-.56-.85-.2-.08-.46-.12-.79-.12h-1.56v2.02h1.69Z"/>
      <path class="cls-15" d="M225.76,42.53v2.78c0,.21.03.39.1.52.12.25.35.38.68.38.48,0,.8-.22.97-.66.09-.23.14-.56.14-.96v-2.05h.7v4.18h-.66v-.62c-.08.16-.19.29-.33.4-.26.22-.58.33-.96.33-.58,0-.98-.2-1.2-.6-.11-.21-.17-.5-.17-.86v-2.84h.72Z"/>
      <path class="cls-15" d="M229.92,45.4c.02.23.08.41.18.54.18.23.5.34.94.34.27,0,.5-.06.7-.17.2-.11.3-.29.3-.53,0-.18-.08-.32-.24-.41-.1-.06-.31-.12-.61-.2l-.57-.14c-.36-.09-.63-.19-.8-.3-.31-.19-.46-.45-.46-.79,0-.4.14-.72.43-.96.29-.25.68-.37,1.17-.37.64,0,1.1.18,1.38.55.18.23.26.49.26.76h-.66c-.01-.16-.07-.3-.17-.43-.17-.18-.45-.28-.86-.28-.27,0-.48.05-.62.15-.14.1-.21.24-.21.4,0,.18.09.33.28.44.11.07.26.12.47.17l.47.11c.51.12.86.24,1.04.36.27.18.41.46.41.85s-.14.69-.43.96c-.29.27-.72.41-1.31.41-.63,0-1.08-.14-1.34-.42-.26-.28-.4-.63-.42-1.05h.68Z"/>
    </g>
    <circle class="cls-15" cx="154.29" cy="65.53" r=".97"/>
    <circle class="cls-15" cx="146.28" cy="65.53" r=".97"/>
    <circle class="cls-15" cx="146.28" cy="96.11" r=".97"/>
    <circle class="cls-15" cx="146.28" cy="126.69" r=".97"/>
    <path class="cls-9" d="M424.22,176.89c6.69,0,6.69-45.3,13.39-45.3"/>
    <g>
      <polyline class="cls-6" points="154.29 65.53 154.29 49.58 227.79 49.58 227.79 62.71 230.55 62.71"/>
      <polygon class="cls-15" points="230.19 63.96 232.35 62.71 230.19 61.47 230.19 63.96"/>
    </g>
  </g>
  <g id="Layer_3" data-name="Layer 3">
    <rect class="cls-2" x="283.04" y="59.99" width="40.48" height="11.08"/>
    <rect class="cls-2" x="283.04" y="115.67" width="40.48" height="11.08"/>
    <rect class="cls-2" x="283.04" y="171.35" width="40.48" height="11.08"/>
    <line class="cls-5" x1="336.45" y1="59.99" x2="336.45" y2="182.43"/>
  </g>
</svg>