<?xml version="1.0" encoding="utf-8" standalone="no"?>
<!DOCTYPE svg PUBLIC "-//W3C//DTD SVG 1.1//EN"
  "http://www.w3.org/Graphics/SVG/1.1/DTD/svg11.dtd">
<svg xmlns:xlink="http://www.w3.org/1999/xlink" width="684pt" height="457.92pt" viewBox="0 0 684 457.92" xmlns="http://www.w3.org/2000/svg" version="1.1">
 <metadata>
  <rdf:RDF xmlns:dc="http://purl.org/dc/elements/1.1/" xmlns:cc="http://creativecommons.org/ns#" xmlns:rdf="http://www.w3.org/1999/02/22-rdf-syntax-ns#">
   <cc:Work>
    <dc:type rdf:resource="http://purl.org/dc/dcmitype/StillImage"/>
    <dc:date>2025-09-15T22:06:24.268154</dc:date>
    <dc:format>image/svg+xml</dc:format>
    <dc:creator>
     <cc:Agent>
      <dc:title>Matplotlib v3.10.1, https://matplotlib.org/</dc:title>
     </cc:Agent>
    </dc:creator>
   </cc:Work>
  </rdf:RDF>
 </metadata>
 <defs>
  <style type="text/css">*{stroke-linejoin: round; stroke-linecap: butt}</style>
 </defs>
 <g id="figure_1">
  <g id="patch_1">
   <path d="M 0 457.92 
L 684 457.92 
L 684 0 
L 0 0 
L 0 457.92 
z
" style="fill: none; opacity: 0"/>
  </g>
  <g id="axes_1">
   <g id="patch_2">
    <g id="patch_3">
     <path d="M 61.5984 131.11152 
L 170.0736 131.11152 
L 170.0736 81.43728 
L 61.5984 81.43728 
z
" clip-path="url(#p5937356ef5)" style="opacity: 0.08"/>
    </g>
    <path d="M 60.0984 129.61152 
L 168.5736 129.61152 
L 168.5736 79.93728 
L 60.0984 79.93728 
z
" clip-path="url(#p5937356ef5)" style="fill: #ffffff; stroke: #94a3b8; stroke-width: 1.7; stroke-linejoin: miter"/>
   </g>
   <g id="patch_4">
    <path d="M 23.2704 386.85312 
L 205.4016 386.85312 
L 205.4016 159.77088 
L 23.2704 159.77088 
z
" clip-path="url(#p5937356ef5)" style="fill: #ffffff; stroke-dasharray: 6.29,2.72; stroke-dashoffset: 0; stroke: #94a3b8; stroke-width: 1.7; stroke-linejoin: miter"/>
   </g>
   <g id="patch_5">
    <path d="M 37.19808 215.78112 
L 191.47392 215.78112 
L 191.47392 178.77888 
L 37.19808 178.77888 
z
" clip-path="url(#p5937356ef5)" style="fill: #ffffff; stroke: #94a3b8; stroke-width: 1.15; stroke-linejoin: miter"/>
   </g>
   <g id="patch_6">
    <path d="M 37.19808 266.46912 
L 191.47392 266.46912 
L 191.47392 229.46688 
L 37.19808 229.46688 
z
" clip-path="url(#p5937356ef5)" style="fill: #ffffff; stroke: #94a3b8; stroke-width: 1.15; stroke-linejoin: miter"/>
   </g>
   <g id="patch_7">
    <path d="M 37.19808 317.15712 
L 191.47392 317.15712 
L 191.47392 280.15488 
L 37.19808 280.15488 
z
" clip-path="url(#p5937356ef5)" style="fill: #ffffff; stroke: #94a3b8; stroke-width: 1.15; stroke-linejoin: miter"/>
   </g>
   <g id="patch_8">
    <path d="M 37.19808 367.84512 
L 191.47392 367.84512 
L 191.47392 330.84288 
L 37.19808 330.84288 
z
" clip-path="url(#p5937356ef5)" style="fill: #ffffff; stroke: #94a3b8; stroke-width: 1.15; stroke-linejoin: miter"/>
   </g>
   <g id="patch_9">
    <g id="patch_10">
     <path d="M 245.7384 304.08432 
L 387.6936 304.08432 
L 387.6936 245.53968 
L 245.7384 245.53968 
z
" clip-path="url(#p5937356ef5)" style="opacity: 0.08"/>
    </g>
    <path d="M 244.2384 302.58432 
L 386.1936 302.58432 
L 386.1936 244.03968 
L 244.2384 244.03968 
z
" clip-path="url(#p5937356ef5)" style="fill: #ffffff; stroke: #94a3b8; stroke-width: 1.7; stroke-linejoin: miter"/>
   </g>
   <g id="patch_11">
    <g id="patch_12">
     <path d="M 262.4784 383.91792 
L 370.9536 383.91792 
L 370.9536 334.24368 
L 262.4784 334.24368 
z
" clip-path="url(#p5937356ef5)" style="opacity: 0.08"/>
    </g>
    <path d="M 260.9784 382.41792 
L 369.4536 382.41792 
L 369.4536 332.74368 
L 260.9784 332.74368 
z
" clip-path="url(#p5937356ef5)" style="fill: #ffffff; stroke: #94a3b8; stroke-width: 1.7; stroke-linejoin: miter"/>
   </g>
   <g id="patch_13">
    <path d="M 114.336 130.40055 
Q 114.336 144.690157 114.336 158.979763 
" clip-path="url(#p5937356ef5)" style="fill: none; stroke: #000000; stroke-width: 1.3; stroke-linecap: round"/>
    <path d="M 110.736 137.60055 
L 114.336 130.40055 
L 117.936 137.60055 
" clip-path="url(#p5937356ef5)" style="fill: none; stroke: #000000; stroke-width: 1.3; stroke-linecap: round"/>
    <path d="M 117.936 151.779763 
L 114.336 158.979763 
L 110.736 151.779763 
" clip-path="url(#p5937356ef5)" style="fill: none; stroke: #000000; stroke-width: 1.3; stroke-linecap: round"/>
   </g>
   <g id="patch_14">
    <path d="M 315.216 331.95465 
Q 315.216 317.665043 315.216 303.375437 
" clip-path="url(#p5937356ef5)" style="fill: none; stroke: #000000; stroke-width: 1.3; stroke-linecap: round"/>
    <path d="M 318.016 326.35465 
L 315.216 331.95465 
L 312.416 326.35465 
" clip-path="url(#p5937356ef5)" style="fill: none; stroke: #000000; stroke-width: 1.3; stroke-linecap: round"/>
    <path d="M 312.416 308.975437 
L 315.216 303.375437 
L 318.016 308.975437 
" clip-path="url(#p5937356ef5)" style="fill: none; stroke: #000000; stroke-width: 1.3; stroke-linecap: round"/>
   </g>
   <g id="patch_15">
    <path d="M 313.215966 104.7744 
Q 239.886335 104.7744 168.010147 104.7744 
" clip-path="url(#p5937356ef5)" style="fill: none; stroke: #000000; stroke-width: 1.3; stroke-linecap: round"/>
    <path d="M 172.810147 107.1744 
L 168.010147 104.7744 
L 172.810147 102.3744 
z
" clip-path="url(#p5937356ef5)" style="stroke: #000000; stroke-width: 1.3; stroke-linecap: round"/>
   </g>
   <g id="patch_16">
    <path d="M 315.216 106.771106 
Q 315.216 175.734564 315.216 243.244578 
" clip-path="url(#p5937356ef5)" style="fill: none; stroke: #000000; stroke-width: 1.3; stroke-linecap: round"/>
    <path d="M 317.616 238.444578 
L 315.216 243.244578 
L 312.816 238.444578 
z
" clip-path="url(#p5937356ef5)" style="stroke: #000000; stroke-width: 1.3; stroke-linecap: round"/>
   </g>
   <g id="patch_17">
    <g id="patch_18">
     <path d="M 433.2264 251.97072 
L 662.2296 251.97072 
L 662.2296 120.24528 
L 433.2264 120.24528 
z
" clip-path="url(#p5937356ef5)" style="opacity: 0.08"/>
    </g>
    <path d="M 431.7264 250.47072 
L 660.7296 250.47072 
L 660.7296 118.74528 
L 431.7264 118.74528 
z
" clip-path="url(#p5937356ef5)" style="fill: #ffffff; stroke: #94a3b8; stroke-width: 1.7; stroke-linejoin: miter"/>
   </g>
   <g id="patch_19">
    <path d="M 502.43616 146.820096 
L 625.37472 146.820096 
L 625.37472 121.273344 
L 502.43616 121.273344 
z
" clip-path="url(#p5937356ef5)" style="fill: #ffffff; stroke: #94a3b8; stroke-width: 1.7; stroke-linejoin: miter"/>
   </g>
   <g id="patch_20">
    <path d="M 438.35544 197.381376 
L 543.61656 197.381376 
L 543.61656 151.610112 
L 438.35544 151.610112 
z
" clip-path="url(#p5937356ef5)" style="fill: #ffffff; stroke: #94a3b8; stroke-width: 1.15; stroke-linejoin: miter"/>
   </g>
   <g id="patch_21">
    <path d="M 446.133514 166.640118 
L 535.838486 166.640118 
L 535.838486 152.419092 
L 446.133514 152.419092 
z
" clip-path="url(#p5937356ef5)" style="fill: #ffffff; stroke: #94a3b8; stroke-width: 1.15; stroke-linejoin: miter"/>
   </g>
   <g id="patch_22">
    <path d="M 505.083758 185.01249 
C 506.703288 185.01249 508.256704 184.586294 509.401884 183.827766 
C 510.547064 183.069238 511.19051 182.040308 511.19051 180.967588 
C 511.19051 179.894867 510.547064 178.865938 509.401884 178.10741 
C 508.256704 177.348882 506.703288 176.922685 505.083758 176.922685 
C 503.464229 176.922685 501.910813 177.348882 500.765633 178.10741 
C 499.620452 178.865938 498.977006 179.894867 498.977006 180.967588 
C 498.977006 182.040308 499.620452 183.069238 500.765633 183.827766 
C 501.910813 184.586294 503.464229 185.01249 505.083758 185.01249 
z
" clip-path="url(#p5937356ef5)" style="stroke: #000000; stroke-width: 1.15; stroke-linejoin: miter"/>
   </g>
   <g id="patch_23">
    <path d="M 548.83944 197.381376 
L 654.10056 197.381376 
L 654.10056 151.610112 
L 548.83944 151.610112 
z
" clip-path="url(#p5937356ef5)" style="fill: #ffffff; stroke: #94a3b8; stroke-width: 1.15; stroke-linejoin: miter"/>
   </g>
   <g id="patch_24">
    <path d="M 556.617514 166.640118 
L 646.322486 166.640118 
L 646.322486 152.419092 
L 556.617514 152.419092 
z
" clip-path="url(#p5937356ef5)" style="fill: #ffffff; stroke: #94a3b8; stroke-width: 1.15; stroke-linejoin: miter"/>
   </g>
   <g id="patch_25">
    <path d="M 615.567758 185.01249 
C 617.187288 185.01249 618.740704 184.586294 619.885884 183.827766 
C 621.031064 183.069238 621.67451 182.040308 621.67451 180.967588 
C 621.67451 179.894867 621.031064 178.865938 619.885884 178.10741 
C 618.740704 177.348882 617.187288 176.922685 615.567758 176.922685 
C 613.948229 176.922685 612.394813 177.348882 611.249633 178.10741 
C 610.104452 178.865938 609.461006 179.894867 609.461006 180.967588 
C 609.461006 182.040308 610.104452 183.069238 611.249633 183.827766 
C 612.394813 184.586294 613.948229 185.01249 615.567758 185.01249 
z
" clip-path="url(#p5937356ef5)" style="stroke: #000000; stroke-width: 1.15; stroke-linejoin: miter"/>
   </g>
   <g id="patch_26">
    <path d="M 438.35544 245.414592 
L 543.61656 245.414592 
L 543.61656 199.643328 
L 438.35544 199.643328 
z
" clip-path="url(#p5937356ef5)" style="fill: #ffffff; stroke: #94a3b8; stroke-width: 1.15; stroke-linejoin: miter"/>
   </g>
   <g id="patch_27">
    <path d="M 446.133514 214.673334 
L 535.838486 214.673334 
L 535.838486 200.452308 
L 446.133514 200.452308 
z
" clip-path="url(#p5937356ef5)" style="fill: #ffffff; stroke: #94a3b8; stroke-width: 1.15; stroke-linejoin: miter"/>
   </g>
   <g id="patch_28">
    <path d="M 505.083758 233.045706 
C 506.703288 233.045706 508.256704 232.61951 509.401884 231.860982 
C 510.547064 231.102454 511.19051 230.073524 511.19051 229.000804 
C 511.19051 227.928083 510.547064 226.899154 509.401884 226.140626 
C 508.256704 225.382098 506.703288 224.955901 505.083758 224.955901 
C 503.464229 224.955901 501.910813 225.382098 500.765633 226.140626 
C 499.620452 226.899154 498.977006 227.928083 498.977006 229.000804 
C 498.977006 230.073524 499.620452 231.102454 500.765633 231.860982 
C 501.910813 232.61951 503.464229 233.045706 505.083758 233.045706 
z
" clip-path="url(#p5937356ef5)" style="stroke: #000000; stroke-width: 1.15; stroke-linejoin: miter"/>
   </g>
   <g id="patch_29">
    <path d="M 548.83944 245.414592 
L 654.10056 245.414592 
L 654.10056 199.643328 
L 548.83944 199.643328 
z
" clip-path="url(#p5937356ef5)" style="fill: #ffffff; stroke: #94a3b8; stroke-width: 1.15; stroke-linejoin: miter"/>
   </g>
   <g id="patch_30">
    <path d="M 556.617514 214.673334 
L 646.322486 214.673334 
L 646.322486 200.452308 
L 556.617514 200.452308 
z
" clip-path="url(#p5937356ef5)" style="fill: #ffffff; stroke: #94a3b8; stroke-width: 1.15; stroke-linejoin: miter"/>
   </g>
   <g id="patch_31">
    <path d="M 615.567758 233.045706 
C 617.187288 233.045706 618.740704 232.61951 619.885884 231.860982 
C 621.031064 231.102454 621.67451 230.073524 621.67451 229.000804 
C 621.67451 227.928083 621.031064 226.899154 619.885884 226.140626 
C 618.740704 225.382098 617.187288 224.955901 615.567758 224.955901 
C 613.948229 224.955901 612.394813 225.382098 611.249633 226.140626 
C 610.104452 226.899154 609.461006 227.928083 609.461006 229.000804 
C 609.461006 230.073524 610.104452 231.102454 611.249633 231.860982 
C 612.394813 232.61951 613.948229 233.045706 615.567758 233.045706 
z
" clip-path="url(#p5937356ef5)" style="stroke: #000000; stroke-width: 1.15; stroke-linejoin: miter"/>
   </g>
   <g id="patch_32">
    <g id="patch_33">
     <path d="M 433.2264 429.37872 
L 662.2296 429.37872 
L 662.2296 297.65328 
L 433.2264 297.65328 
z
" clip-path="url(#p5937356ef5)" style="opacity: 0.08"/>
    </g>
    <path d="M 431.7264 427.87872 
L 660.7296 427.87872 
L 660.7296 296.15328 
L 431.7264 296.15328 
z
" clip-path="url(#p5937356ef5)" style="fill: #ffffff; stroke: #94a3b8; stroke-width: 1.7; stroke-linejoin: miter"/>
   </g>
   <g id="patch_34">
    <path d="M 502.43616 324.228096 
L 625.37472 324.228096 
L 625.37472 298.681344 
L 502.43616 298.681344 
z
" clip-path="url(#p5937356ef5)" style="fill: #ffffff; stroke: #94a3b8; stroke-width: 1.7; stroke-linejoin: miter"/>
   </g>
   <g id="patch_35">
    <path d="M 438.35544 374.789376 
L 543.61656 374.789376 
L 543.61656 329.018112 
L 438.35544 329.018112 
z
" clip-path="url(#p5937356ef5)" style="fill: #ffffff; stroke: #94a3b8; stroke-width: 1.15; stroke-linejoin: miter"/>
   </g>
   <g id="patch_36">
    <path d="M 446.133514 344.048118 
L 535.838486 344.048118 
L 535.838486 329.827092 
L 446.133514 329.827092 
z
" clip-path="url(#p5937356ef5)" style="fill: #ffffff; stroke: #94a3b8; stroke-width: 1.15; stroke-linejoin: miter"/>
   </g>
   <g id="patch_37">
    <path d="M 505.083758 362.42049 
C 506.703288 362.42049 508.256704 361.994294 509.401884 361.235766 
C 510.547064 360.477238 511.19051 359.448308 511.19051 358.375588 
C 511.19051 357.302867 510.547064 356.273938 509.401884 355.51541 
C 508.256704 354.756882 506.703288 354.330685 505.083758 354.330685 
C 503.464229 354.330685 501.910813 354.756882 500.765633 355.51541 
C 499.620452 356.273938 498.977006 357.302867 498.977006 358.375588 
C 498.977006 359.448308 499.620452 360.477238 500.765633 361.235766 
C 501.910813 361.994294 503.464229 362.42049 505.083758 362.42049 
z
" clip-path="url(#p5937356ef5)" style="stroke: #000000; stroke-width: 1.15; stroke-linejoin: miter"/>
   </g>
   <g id="patch_38">
    <path d="M 548.83944 374.789376 
L 654.10056 374.789376 
L 654.10056 329.018112 
L 548.83944 329.018112 
z
" clip-path="url(#p5937356ef5)" style="fill: #ffffff; stroke: #94a3b8; stroke-width: 1.15; stroke-linejoin: miter"/>
   </g>
   <g id="patch_39">
    <path d="M 556.617514 344.048118 
L 646.322486 344.048118 
L 646.322486 329.827092 
L 556.617514 329.827092 
z
" clip-path="url(#p5937356ef5)" style="fill: #ffffff; stroke: #94a3b8; stroke-width: 1.15; stroke-linejoin: miter"/>
   </g>
   <g id="patch_40">
    <path d="M 615.567758 362.42049 
C 617.187288 362.42049 618.740704 361.994294 619.885884 361.235766 
C 621.031064 360.477238 621.67451 359.448308 621.67451 358.375588 
C 621.67451 357.302867 621.031064 356.273938 619.885884 355.51541 
C 618.740704 354.756882 617.187288 354.330685 615.567758 354.330685 
C 613.948229 354.330685 612.394813 354.756882 611.249633 355.51541 
C 610.104452 356.273938 609.461006 357.302867 609.461006 358.375588 
C 609.461006 359.448308 610.104452 360.477238 611.249633 361.235766 
C 612.394813 361.994294 613.948229 362.42049 615.567758 362.42049 
z
" clip-path="url(#p5937356ef5)" style="stroke: #000000; stroke-width: 1.15; stroke-linejoin: miter"/>
   </g>
   <g id="patch_41">
    <path d="M 438.35544 422.822592 
L 543.61656 422.822592 
L 543.61656 377.051328 
L 438.35544 377.051328 
z
" clip-path="url(#p5937356ef5)" style="fill: #ffffff; stroke: #94a3b8; stroke-width: 1.15; stroke-linejoin: miter"/>
   </g>
   <g id="patch_42">
    <path d="M 446.133514 392.081334 
L 535.838486 392.081334 
L 535.838486 377.860308 
L 446.133514 377.860308 
z
" clip-path="url(#p5937356ef5)" style="fill: #ffffff; stroke: #94a3b8; stroke-width: 1.15; stroke-linejoin: miter"/>
   </g>
   <g id="patch_43">
    <path d="M 505.083758 410.453706 
C 506.703288 410.453706 508.256704 410.02751 509.401884 409.268982 
C 510.547064 408.510454 511.19051 407.481524 511.19051 406.408804 
C 511.19051 405.336083 510.547064 404.307154 509.401884 403.548626 
C 508.256704 402.790098 506.703288 402.363901 505.083758 402.363901 
C 503.464229 402.363901 501.910813 402.790098 500.765633 403.548626 
C 499.620452 404.307154 498.977006 405.336083 498.977006 406.408804 
C 498.977006 407.481524 499.620452 408.510454 500.765633 409.268982 
C 501.910813 410.02751 503.464229 410.453706 505.083758 410.453706 
z
" clip-path="url(#p5937356ef5)" style="stroke: #000000; stroke-width: 1.15; stroke-linejoin: miter"/>
   </g>
   <g id="patch_44">
    <path d="M 548.83944 422.822592 
L 654.10056 422.822592 
L 654.10056 377.051328 
L 548.83944 377.051328 
z
" clip-path="url(#p5937356ef5)" style="fill: #ffffff; stroke: #94a3b8; stroke-width: 1.15; stroke-linejoin: miter"/>
   </g>
   <g id="patch_45">
    <path d="M 556.617514 392.081334 
L 646.322486 392.081334 
L 646.322486 377.860308 
L 556.617514 377.860308 
z
" clip-path="url(#p5937356ef5)" style="fill: #ffffff; stroke: #94a3b8; stroke-width: 1.15; stroke-linejoin: miter"/>
   </g>
   <g id="patch_46">
    <path d="M 615.567758 410.453706 
C 617.187288 410.453706 618.740704 410.02751 619.885884 409.268982 
C 621.031064 408.510454 621.67451 407.481524 621.67451 406.408804 
C 621.67451 405.336083 621.031064 404.307154 619.885884 403.548626 
C 618.740704 402.790098 617.187288 402.363901 615.567758 402.363901 
C 613.948229 402.363901 612.394813 402.790098 611.249633 403.548626 
C 610.104452 404.307154 609.461006 405.336083 609.461006 406.408804 
C 609.461006 407.481524 610.104452 408.510454 611.249633 409.268982 
C 612.394813 410.02751 613.948229 410.453706 615.567758 410.453706 
z
" clip-path="url(#p5937356ef5)" style="stroke: #000000; stroke-width: 1.15; stroke-linejoin: miter"/>
   </g>
   <g id="patch_47">
    <path d="M 413.657499 273.312 
Q 398.91784 273.312 385.743428 273.312 
" clip-path="url(#p5937356ef5)" style="fill: none; stroke: #000000; stroke-width: 1.4; stroke-linecap: round"/>
    <path d="M 392.143428 276.512 
L 385.743428 273.312 
L 392.143428 270.112 
z
" clip-path="url(#p5937356ef5)" style="stroke: #000000; stroke-width: 1.4; stroke-linecap: round"/>
   </g>
   <g id="patch_48">
    <path d="M 417.653839 134.04672 
Q 461.05247 134.04672 502.885853 134.04672 
" clip-path="url(#p5937356ef5)" style="fill: none; stroke: #000000; stroke-width: 1.4; stroke-linecap: round"/>
    <path d="M 496.485853 130.84672 
L 502.885853 134.04672 
L 496.485853 137.24672 
z
" clip-path="url(#p5937356ef5)" style="stroke: #000000; stroke-width: 1.4; stroke-linecap: round"/>
   </g>
   <g id="patch_49">
    <path d="M 413.657499 273.312 
Q 398.91784 273.312 385.743428 273.312 
" clip-path="url(#p5937356ef5)" style="fill: none; stroke: #000000; stroke-width: 1.4; stroke-linecap: round"/>
    <path d="M 392.143428 276.512 
L 385.743428 273.312 
L 392.143428 270.112 
z
" clip-path="url(#p5937356ef5)" style="stroke: #000000; stroke-width: 1.4; stroke-linecap: round"/>
   </g>
   <g id="patch_50">
    <path d="M 417.653839 311.45472 
Q 461.05247 311.45472 502.885853 311.45472 
" clip-path="url(#p5937356ef5)" style="fill: none; stroke: #000000; stroke-width: 1.4; stroke-linecap: round"/>
    <path d="M 496.485853 308.25472 
L 502.885853 311.45472 
L 496.485853 314.65472 
z
" clip-path="url(#p5937356ef5)" style="stroke: #000000; stroke-width: 1.4; stroke-linecap: round"/>
   </g>
   <g id="patch_51">
    <path d="M 208.185784 273.312 
Q 226.494348 273.312 244.802912 273.312 
" clip-path="url(#p5937356ef5)" style="fill: none; stroke: #000000; stroke-width: 1.3; stroke-linecap: round"/>
    <path d="M 213.785784 276.112 
L 208.185784 273.312 
L 213.785784 270.512 
" clip-path="url(#p5937356ef5)" style="fill: none; stroke: #000000; stroke-width: 1.3; stroke-linecap: round"/>
    <path d="M 239.202912 270.512 
L 244.802912 273.312 
L 239.202912 276.112 
" clip-path="url(#p5937356ef5)" style="fill: none; stroke: #000000; stroke-width: 1.3; stroke-linecap: round"/>
   </g>
   <g id="line2d_1">
    <path d="M 114.336 217.5552 
L 114.336 227.6928 
" clip-path="url(#p5937356ef5)" style="fill: none; stroke-dasharray: 1.2,1.98; stroke-dashoffset: 0; stroke: #94a3b8; stroke-width: 1.2"/>
   </g>
   <g id="line2d_2">
    <path d="M 114.336 268.2432 
L 114.336 278.3808 
" clip-path="url(#p5937356ef5)" style="fill: none; stroke-dasharray: 1.2,1.98; stroke-dashoffset: 0; stroke: #94a3b8; stroke-width: 1.2"/>
   </g>
   <g id="line2d_3">
    <path d="M 114.336 318.9312 
L 114.336 329.0688 
" clip-path="url(#p5937356ef5)" style="fill: none; stroke-dasharray: 1.2,1.98; stroke-dashoffset: 0; stroke: #94a3b8; stroke-width: 1.2"/>
   </g>
   <g id="line2d_4">
    <path d="M 315.216 104.7744 
" clip-path="url(#p5937356ef5)" style="fill: none; stroke: #94a3b8; stroke-width: 1.5; stroke-linecap: square"/>
    <defs>
     <path id="m7223396516" d="M 0 1.5 
C 0.397805 1.5 0.77937 1.341951 1.06066 1.06066 
C 1.341951 0.77937 1.5 0.397805 1.5 0 
C 1.5 -0.397805 1.341951 -0.77937 1.06066 -1.06066 
C 0.77937 -1.341951 0.397805 -1.5 0 -1.5 
C -0.397805 -1.5 -0.77937 -1.341951 -1.06066 -1.06066 
C -1.341951 -0.77937 -1.5 -0.397805 -1.5 0 
C -1.5 0.397805 -1.341951 0.77937 -1.06066 1.06066 
C -0.77937 1.341951 -0.397805 1.5 0 1.5 
z
" style="stroke: #94a3b8"/>
    </defs>
    <g clip-path="url(#p5937356ef5)">
     <use xlink:href="#m7223396516" x="315.216" y="104.7744" style="fill: #94a3b8; stroke: #94a3b8"/>
    </g>
   </g>
   <g id="line2d_5">
    <path d="M 415.656 273.312 
L 415.656 134.04672 
" clip-path="url(#p5937356ef5)" style="fill: none; stroke: #000000; stroke-width: 1.2; stroke-linecap: round"/>
   </g>
   <g id="line2d_6">
    <path d="M 415.656 134.04672 
" clip-path="url(#p5937356ef5)" style="fill: none; stroke: #94a3b8; stroke-width: 1.5; stroke-linecap: square"/>
    <g clip-path="url(#p5937356ef5)">
     <use xlink:href="#m7223396516" x="415.656" y="134.04672" style="fill: #94a3b8; stroke: #94a3b8"/>
    </g>
   </g>
   <g id="line2d_7">
    <path d="M 415.656 273.312 
L 415.656 311.45472 
" clip-path="url(#p5937356ef5)" style="fill: none; stroke: #000000; stroke-width: 1.2; stroke-linecap: round"/>
   </g>
   <g id="line2d_8">
    <path d="M 415.656 311.45472 
" clip-path="url(#p5937356ef5)" style="fill: none; stroke: #94a3b8; stroke-width: 1.5; stroke-linecap: square"/>
    <g clip-path="url(#p5937356ef5)">
     <use xlink:href="#m7223396516" x="415.656" y="311.45472" style="fill: #94a3b8; stroke: #94a3b8"/>
    </g>
   </g>
   <g id="text_1">
    <!-- Host DRAM -->
    <g style="fill: #0f172a" transform="translate(84.535453 107.838931) scale(0.11 -0.11)">
     <defs>
      <path id="DejaVuSansMono-48" d="M 428 4666 
L 1063 4666 
L 1063 2753 
L 2791 2753 
L 2791 4666 
L 3425 4666 
L 3425 0 
L 2791 0 
L 2791 2222 
L 1063 2222 
L 1063 0 
L 428 0 
L 428 4666 
z
" transform="scale(0.015625)"/>
      <path id="DejaVuSansMono-6f" d="M 1925 3097 
Q 1488 3097 1263 2756 
Q 1038 2416 1038 1747 
Q 1038 1081 1263 739 
Q 1488 397 1925 397 
Q 2366 397 2591 739 
Q 2816 1081 2816 1747 
Q 2816 2416 2591 2756 
Q 2366 3097 1925 3097 
z
M 1925 3584 
Q 2653 3584 3039 3112 
Q 3425 2641 3425 1747 
Q 3425 850 3040 379 
Q 2656 -91 1925 -91 
Q 1197 -91 812 379 
Q 428 850 428 1747 
Q 428 2641 812 3112 
Q 1197 3584 1925 3584 
z
" transform="scale(0.015625)"/>
      <path id="DejaVuSansMono-73" d="M 3041 3378 
L 3041 2816 
Q 2794 2959 2544 3031 
Q 2294 3103 2034 3103 
Q 1644 3103 1451 2976 
Q 1259 2850 1259 2591 
Q 1259 2356 1403 2240 
Q 1547 2125 2119 2016 
L 2350 1972 
Q 2778 1891 2998 1647 
Q 3219 1403 3219 1013 
Q 3219 494 2850 201 
Q 2481 -91 1825 -91 
Q 1566 -91 1281 -36 
Q 997 19 666 128 
L 666 722 
Q 988 556 1281 473 
Q 1575 391 1838 391 
Q 2219 391 2428 545 
Q 2638 700 2638 978 
Q 2638 1378 1872 1531 
L 1847 1538 
L 1631 1581 
Q 1134 1678 906 1908 
Q 678 2138 678 2534 
Q 678 3038 1018 3311 
Q 1359 3584 1991 3584 
Q 2272 3584 2531 3532 
Q 2791 3481 3041 3378 
z
" transform="scale(0.015625)"/>
      <path id="DejaVuSansMono-74" d="M 1919 4494 
L 1919 3500 
L 3225 3500 
L 3225 3053 
L 1919 3053 
L 1919 1153 
Q 1919 766 2066 612 
Q 2213 459 2578 459 
L 3225 459 
L 3225 0 
L 2522 0 
Q 1875 0 1609 259 
Q 1344 519 1344 1153 
L 1344 3053 
L 409 3053 
L 409 3500 
L 1344 3500 
L 1344 4494 
L 1919 4494 
z
" transform="scale(0.015625)"/>
      <path id="DejaVuSansMono-20" transform="scale(0.015625)"/>
      <path id="DejaVuSansMono-44" d="M 1363 519 
Q 2159 519 2475 911 
Q 2791 1303 2791 2328 
Q 2791 3363 2477 3755 
Q 2163 4147 1363 4147 
L 1063 4147 
L 1063 519 
L 1363 519 
z
M 1375 4666 
Q 2444 4666 2950 4097 
Q 3456 3528 3456 2328 
Q 3456 1134 2950 567 
Q 2444 0 1375 0 
L 428 0 
L 428 4666 
L 1375 4666 
z
" transform="scale(0.015625)"/>
      <path id="DejaVuSansMono-52" d="M 2375 2203 
Q 2619 2141 2791 1967 
Q 2963 1794 3219 1275 
L 3853 0 
L 3175 0 
L 2619 1178 
Q 2378 1681 2186 1826 
Q 1994 1972 1684 1972 
L 1081 1972 
L 1081 0 
L 447 0 
L 447 4666 
L 1747 4666 
Q 2516 4666 2925 4319 
Q 3334 3972 3334 3316 
Q 3334 2853 3082 2561 
Q 2831 2269 2375 2203 
z
M 1081 4147 
L 1081 2491 
L 1772 2491 
Q 2225 2491 2447 2694 
Q 2669 2897 2669 3316 
Q 2669 3719 2433 3933 
Q 2197 4147 1747 4147 
L 1081 4147 
z
" transform="scale(0.015625)"/>
      <path id="DejaVuSansMono-41" d="M 1925 4109 
L 1259 1722 
L 2591 1722 
L 1925 4109 
z
M 1544 4666 
L 2309 4666 
L 3738 0 
L 3084 0 
L 2741 1216 
L 1106 1216 
L 769 0 
L 116 0 
L 1544 4666 
z
" transform="scale(0.015625)"/>
      <path id="DejaVuSansMono-4d" d="M 269 4666 
L 1113 4666 
L 1919 2291 
L 2731 4666 
L 3578 4666 
L 3578 0 
L 2994 0 
L 2994 4122 
L 2163 1663 
L 1684 1663 
L 850 4122 
L 850 0 
L 269 0 
L 269 4666 
z
" transform="scale(0.015625)"/>
     </defs>
     <use xlink:href="#DejaVuSansMono-48"/>
     <use xlink:href="#DejaVuSansMono-6f" transform="translate(60.205078 0)"/>
     <use xlink:href="#DejaVuSansMono-73" transform="translate(120.410156 0)"/>
     <use xlink:href="#DejaVuSansMono-74" transform="translate(180.615234 0)"/>
     <use xlink:href="#DejaVuSansMono-20" transform="translate(240.820312 0)"/>
     <use xlink:href="#DejaVuSansMono-44" transform="translate(301.025391 0)"/>
     <use xlink:href="#DejaVuSansMono-52" transform="translate(361.230469 0)"/>
     <use xlink:href="#DejaVuSansMono-41" transform="translate(421.435547 0)"/>
     <use xlink:href="#DejaVuSansMono-4d" transform="translate(481.640625 0)"/>
    </g>
   </g>
   <g id="text_2">
    <!-- Workload -->
    <g style="fill: #334155" transform="translate(92.662875 199.787344) scale(0.09 -0.09)">
     <defs>
      <path id="DejaVuSansMono-57" d="M 0 4666 
L 616 4666 
L 1063 878 
L 1594 3384 
L 2253 3384 
L 2791 872 
L 3238 4666 
L 3853 4666 
L 3156 0 
L 2559 0 
L 1925 2772 
L 1294 0 
L 697 0 
L 0 4666 
z
" transform="scale(0.015625)"/>
      <path id="DejaVuSansMono-72" d="M 3609 2778 
Q 3425 2922 3234 2987 
Q 3044 3053 2816 3053 
Q 2278 3053 1993 2715 
Q 1709 2378 1709 1741 
L 1709 0 
L 1131 0 
L 1131 3500 
L 1709 3500 
L 1709 2816 
Q 1853 3188 2151 3386 
Q 2450 3584 2859 3584 
Q 3072 3584 3256 3531 
Q 3441 3478 3609 3366 
L 3609 2778 
z
" transform="scale(0.015625)"/>
      <path id="DejaVuSansMono-6b" d="M 738 4863 
L 1331 4863 
L 1331 2047 
L 2841 3500 
L 3541 3500 
L 2163 2181 
L 3756 0 
L 3053 0 
L 1759 1806 
L 1331 1403 
L 1331 0 
L 738 0 
L 738 4863 
z
" transform="scale(0.015625)"/>
      <path id="DejaVuSansMono-6c" d="M 1997 1269 
Q 1997 881 2139 684 
Q 2281 488 2559 488 
L 3231 488 
L 3231 0 
L 2503 0 
Q 1988 0 1705 331 
Q 1422 663 1422 1269 
L 1422 4447 
L 500 4447 
L 500 4897 
L 1997 4897 
L 1997 1269 
z
" transform="scale(0.015625)"/>
      <path id="DejaVuSansMono-61" d="M 2194 1759 
L 2003 1759 
Q 1500 1759 1245 1582 
Q 991 1406 991 1056 
Q 991 741 1181 566 
Q 1372 391 1709 391 
Q 2184 391 2456 720 
Q 2728 1050 2731 1631 
L 2731 1759 
L 2194 1759 
z
M 3309 1997 
L 3309 0 
L 2731 0 
L 2731 519 
Q 2547 206 2267 57 
Q 1988 -91 1588 -91 
Q 1053 -91 734 211 
Q 416 513 416 1019 
Q 416 1603 808 1906 
Q 1200 2209 1959 2209 
L 2731 2209 
L 2731 2300 
Q 2728 2719 2518 2908 
Q 2309 3097 1850 3097 
Q 1556 3097 1256 3012 
Q 956 2928 672 2766 
L 672 3341 
Q 991 3463 1283 3523 
Q 1575 3584 1850 3584 
Q 2284 3584 2592 3456 
Q 2900 3328 3091 3072 
Q 3209 2916 3259 2686 
Q 3309 2456 3309 1997 
z
" transform="scale(0.015625)"/>
      <path id="DejaVuSansMono-64" d="M 2681 3053 
L 2681 4863 
L 3256 4863 
L 3256 0 
L 2681 0 
L 2681 441 
Q 2538 181 2298 45 
Q 2059 -91 1747 -91 
Q 1113 -91 748 401 
Q 384 894 384 1759 
Q 384 2613 750 3098 
Q 1116 3584 1747 3584 
Q 2063 3584 2303 3448 
Q 2544 3313 2681 3053 
z
M 991 1747 
Q 991 1078 1203 737 
Q 1416 397 1831 397 
Q 2247 397 2464 740 
Q 2681 1084 2681 1747 
Q 2681 2413 2464 2755 
Q 2247 3097 1831 3097 
Q 1416 3097 1203 2756 
Q 991 2416 991 1747 
z
" transform="scale(0.015625)"/>
     </defs>
     <use xlink:href="#DejaVuSansMono-57"/>
     <use xlink:href="#DejaVuSansMono-6f" transform="translate(60.205078 0)"/>
     <use xlink:href="#DejaVuSansMono-72" transform="translate(120.410156 0)"/>
     <use xlink:href="#DejaVuSansMono-6b" transform="translate(180.615234 0)"/>
     <use xlink:href="#DejaVuSansMono-6c" transform="translate(240.820312 0)"/>
     <use xlink:href="#DejaVuSansMono-6f" transform="translate(301.025391 0)"/>
     <use xlink:href="#DejaVuSansMono-61" transform="translate(361.230469 0)"/>
     <use xlink:href="#DejaVuSansMono-64" transform="translate(421.435547 0)"/>
    </g>
   </g>
   <g id="text_3">
    <!-- Runtime API -->
    <g style="fill: #334155" transform="translate(84.535453 250.475344) scale(0.09 -0.09)">
     <defs>
      <path id="DejaVuSansMono-75" d="M 609 1325 
L 609 3494 
L 1184 3494 
L 1184 1325 
Q 1184 853 1351 631 
Q 1519 409 1869 409 
Q 2275 409 2490 695 
Q 2706 981 2706 1516 
L 2706 3494 
L 3284 3494 
L 3284 0 
L 2706 0 
L 2706 525 
Q 2553 222 2289 65 
Q 2025 -91 1672 -91 
Q 1134 -91 871 261 
Q 609 613 609 1325 
z
" transform="scale(0.015625)"/>
      <path id="DejaVuSansMono-6e" d="M 3284 2169 
L 3284 0 
L 2706 0 
L 2706 2169 
Q 2706 2641 2540 2862 
Q 2375 3084 2022 3084 
Q 1619 3084 1401 2798 
Q 1184 2513 1184 1978 
L 1184 0 
L 609 0 
L 609 3500 
L 1184 3500 
L 1184 2975 
Q 1338 3275 1600 3429 
Q 1863 3584 2222 3584 
Q 2756 3584 3020 3232 
Q 3284 2881 3284 2169 
z
" transform="scale(0.015625)"/>
      <path id="DejaVuSansMono-69" d="M 800 3500 
L 2272 3500 
L 2272 447 
L 3413 447 
L 3413 0 
L 556 0 
L 556 447 
L 1697 447 
L 1697 3053 
L 800 3053 
L 800 3500 
z
M 1697 4863 
L 2272 4863 
L 2272 4134 
L 1697 4134 
L 1697 4863 
z
" transform="scale(0.015625)"/>
      <path id="DejaVuSansMono-6d" d="M 2113 3144 
Q 2219 3369 2383 3476 
Q 2547 3584 2778 3584 
Q 3200 3584 3373 3257 
Q 3547 2931 3547 2028 
L 3547 0 
L 3022 0 
L 3022 2003 
Q 3022 2744 2939 2923 
Q 2856 3103 2638 3103 
Q 2388 3103 2295 2911 
Q 2203 2719 2203 2003 
L 2203 0 
L 1678 0 
L 1678 2003 
Q 1678 2753 1589 2928 
Q 1500 3103 1269 3103 
Q 1041 3103 952 2911 
Q 863 2719 863 2003 
L 863 0 
L 341 0 
L 341 3500 
L 863 3500 
L 863 3200 
Q 966 3388 1120 3486 
Q 1275 3584 1472 3584 
Q 1709 3584 1867 3475 
Q 2025 3366 2113 3144 
z
" transform="scale(0.015625)"/>
      <path id="DejaVuSansMono-65" d="M 3475 1894 
L 3475 1613 
L 984 1613 
L 984 1594 
Q 984 1022 1282 709 
Q 1581 397 2125 397 
Q 2400 397 2700 484 
Q 3000 572 3341 750 
L 3341 178 
Q 3013 44 2708 -23 
Q 2403 -91 2119 -91 
Q 1303 -91 843 398 
Q 384 888 384 1747 
Q 384 2584 834 3084 
Q 1284 3584 2034 3584 
Q 2703 3584 3089 3131 
Q 3475 2678 3475 1894 
z
M 2900 2063 
Q 2888 2569 2661 2833 
Q 2434 3097 2009 3097 
Q 1594 3097 1325 2822 
Q 1056 2547 1006 2059 
L 2900 2063 
z
" transform="scale(0.015625)"/>
      <path id="DejaVuSansMono-50" d="M 1247 4147 
L 1247 2394 
L 1978 2394 
Q 2416 2394 2661 2625 
Q 2906 2856 2906 3272 
Q 2906 3688 2662 3917 
Q 2419 4147 1978 4147 
L 1247 4147 
z
M 616 4666 
L 1978 4666 
Q 2759 4666 3162 4311 
Q 3566 3956 3566 3272 
Q 3566 2581 3164 2228 
Q 2763 1875 1978 1875 
L 1247 1875 
L 1247 0 
L 616 0 
L 616 4666 
z
" transform="scale(0.015625)"/>
      <path id="DejaVuSansMono-49" d="M 628 4666 
L 3219 4666 
L 3219 4134 
L 2241 4134 
L 2241 531 
L 3219 531 
L 3219 0 
L 628 0 
L 628 531 
L 1606 531 
L 1606 4134 
L 628 4134 
L 628 4666 
z
" transform="scale(0.015625)"/>
     </defs>
     <use xlink:href="#DejaVuSansMono-52"/>
     <use xlink:href="#DejaVuSansMono-75" transform="translate(60.205078 0)"/>
     <use xlink:href="#DejaVuSansMono-6e" transform="translate(120.410156 0)"/>
     <use xlink:href="#DejaVuSansMono-74" transform="translate(180.615234 0)"/>
     <use xlink:href="#DejaVuSansMono-69" transform="translate(240.820312 0)"/>
     <use xlink:href="#DejaVuSansMono-6d" transform="translate(301.025391 0)"/>
     <use xlink:href="#DejaVuSansMono-65" transform="translate(361.230469 0)"/>
     <use xlink:href="#DejaVuSansMono-20" transform="translate(421.435547 0)"/>
     <use xlink:href="#DejaVuSansMono-41" transform="translate(481.640625 0)"/>
     <use xlink:href="#DejaVuSansMono-50" transform="translate(541.845703 0)"/>
     <use xlink:href="#DejaVuSansMono-49" transform="translate(602.050781 0)"/>
    </g>
   </g>
   <g id="text_4">
    <!-- Kernel Driver -->
    <g style="fill: #334155" transform="translate(79.117172 301.163344) scale(0.09 -0.09)">
     <defs>
      <path id="DejaVuSansMono-4b" d="M 428 4666 
L 1063 4666 
L 1063 2591 
L 3034 4666 
L 3775 4666 
L 1959 2759 
L 3828 0 
L 3066 0 
L 1544 2338 
L 1063 1825 
L 1063 0 
L 428 0 
L 428 4666 
z
" transform="scale(0.015625)"/>
      <path id="DejaVuSansMono-76" d="M 313 3500 
L 909 3500 
L 1925 563 
L 2944 3500 
L 3541 3500 
L 2297 0 
L 1556 0 
L 313 3500 
z
" transform="scale(0.015625)"/>
     </defs>
     <use xlink:href="#DejaVuSansMono-4b"/>
     <use xlink:href="#DejaVuSansMono-65" transform="translate(60.205078 0)"/>
     <use xlink:href="#DejaVuSansMono-72" transform="translate(120.410156 0)"/>
     <use xlink:href="#DejaVuSansMono-6e" transform="translate(180.615234 0)"/>
     <use xlink:href="#DejaVuSansMono-65" transform="translate(240.820312 0)"/>
     <use xlink:href="#DejaVuSansMono-6c" transform="translate(301.025391 0)"/>
     <use xlink:href="#DejaVuSansMono-20" transform="translate(361.230469 0)"/>
     <use xlink:href="#DejaVuSansMono-44" transform="translate(421.435547 0)"/>
     <use xlink:href="#DejaVuSansMono-72" transform="translate(481.640625 0)"/>
     <use xlink:href="#DejaVuSansMono-69" transform="translate(541.845703 0)"/>
     <use xlink:href="#DejaVuSansMono-76" transform="translate(602.050781 0)"/>
     <use xlink:href="#DejaVuSansMono-65" transform="translate(662.255859 0)"/>
     <use xlink:href="#DejaVuSansMono-72" transform="translate(722.460938 0)"/>
    </g>
   </g>
   <g id="text_5">
    <!-- Host OS -->
    <g style="fill: #334155" transform="translate(95.372016 351.851344) scale(0.09 -0.09)">
     <defs>
      <path id="DejaVuSansMono-4f" d="M 2828 2328 
Q 2828 3356 2617 3797 
Q 2406 4238 1925 4238 
Q 1447 4238 1236 3797 
Q 1025 3356 1025 2328 
Q 1025 1303 1236 862 
Q 1447 422 1925 422 
Q 2406 422 2617 861 
Q 2828 1300 2828 2328 
z
M 3488 2328 
Q 3488 1109 3102 509 
Q 2716 -91 1925 -91 
Q 1134 -91 750 506 
Q 366 1103 366 2328 
Q 366 3550 752 4150 
Q 1138 4750 1925 4750 
Q 2716 4750 3102 4150 
Q 3488 3550 3488 2328 
z
" transform="scale(0.015625)"/>
      <path id="DejaVuSansMono-53" d="M 3163 4506 
L 3163 3866 
Q 2875 4050 2586 4144 
Q 2297 4238 2003 4238 
Q 1556 4238 1297 4030 
Q 1038 3822 1038 3469 
Q 1038 3159 1208 2996 
Q 1378 2834 1844 2725 
L 2175 2650 
Q 2831 2497 3131 2169 
Q 3431 1841 3431 1275 
Q 3431 609 3018 259 
Q 2606 -91 1819 -91 
Q 1491 -91 1159 -20 
Q 828 50 494 191 
L 494 863 
Q 853 634 1173 528 
Q 1494 422 1819 422 
Q 2297 422 2562 636 
Q 2828 850 2828 1234 
Q 2828 1584 2645 1768 
Q 2463 1953 2009 2053 
L 1672 2131 
Q 1022 2278 728 2575 
Q 434 2872 434 3372 
Q 434 3997 854 4373 
Q 1275 4750 1972 4750 
Q 2241 4750 2537 4689 
Q 2834 4628 3163 4506 
z
" transform="scale(0.015625)"/>
     </defs>
     <use xlink:href="#DejaVuSansMono-48"/>
     <use xlink:href="#DejaVuSansMono-6f" transform="translate(60.205078 0)"/>
     <use xlink:href="#DejaVuSansMono-73" transform="translate(120.410156 0)"/>
     <use xlink:href="#DejaVuSansMono-74" transform="translate(180.615234 0)"/>
     <use xlink:href="#DejaVuSansMono-20" transform="translate(240.820312 0)"/>
     <use xlink:href="#DejaVuSansMono-4f" transform="translate(301.025391 0)"/>
     <use xlink:href="#DejaVuSansMono-53" transform="translate(361.230469 0)"/>
    </g>
   </g>
   <g id="text_6">
    <!-- Host -->
    <g style="fill: #334155" transform="translate(101.091313 385.038931) scale(0.11 -0.11)">
     <use xlink:href="#DejaVuSansMono-48"/>
     <use xlink:href="#DejaVuSansMono-6f" transform="translate(60.205078 0)"/>
     <use xlink:href="#DejaVuSansMono-73" transform="translate(120.410156 0)"/>
     <use xlink:href="#DejaVuSansMono-74" transform="translate(180.615234 0)"/>
    </g>
   </g>
   <g id="text_7">
    <!-- Global Command -->
    <g style="fill: #0f172a" transform="translate(264.645375 269.898187) scale(0.12 -0.12)">
     <defs>
      <path id="DejaVuSansMono-47" d="M 3450 384 
Q 3197 150 2880 29 
Q 2563 -91 2194 -91 
Q 1306 -91 812 545 
Q 319 1181 319 2328 
Q 319 3472 819 4111 
Q 1319 4750 2209 4750 
Q 2503 4750 2772 4667 
Q 3041 4584 3291 4416 
L 3291 3769 
Q 3038 4009 2772 4123 
Q 2506 4238 2209 4238 
Q 1594 4238 1286 3761 
Q 978 3284 978 2328 
Q 978 1356 1276 889 
Q 1575 422 2194 422 
Q 2403 422 2561 470 
Q 2719 519 2847 622 
L 2847 1875 
L 2169 1875 
L 2169 2394 
L 3450 2394 
L 3450 384 
z
" transform="scale(0.015625)"/>
      <path id="DejaVuSansMono-62" d="M 2869 1747 
Q 2869 2416 2656 2756 
Q 2444 3097 2028 3097 
Q 1609 3097 1393 2755 
Q 1178 2413 1178 1747 
Q 1178 1084 1393 740 
Q 1609 397 2028 397 
Q 2444 397 2656 737 
Q 2869 1078 2869 1747 
z
M 1178 3053 
Q 1316 3309 1558 3446 
Q 1800 3584 2119 3584 
Q 2750 3584 3112 3098 
Q 3475 2613 3475 1759 
Q 3475 894 3111 401 
Q 2747 -91 2113 -91 
Q 1800 -91 1561 45 
Q 1322 181 1178 441 
L 1178 0 
L 603 0 
L 603 4863 
L 1178 4863 
L 1178 3053 
z
" transform="scale(0.015625)"/>
      <path id="DejaVuSansMono-43" d="M 3353 166 
Q 3113 38 2859 -26 
Q 2606 -91 2322 -91 
Q 1425 -91 929 543 
Q 434 1178 434 2328 
Q 434 3472 932 4111 
Q 1431 4750 2322 4750 
Q 2606 4750 2859 4686 
Q 3113 4622 3353 4494 
L 3353 3847 
Q 3122 4038 2856 4138 
Q 2591 4238 2322 4238 
Q 1706 4238 1400 3763 
Q 1094 3288 1094 2328 
Q 1094 1372 1400 897 
Q 1706 422 2322 422 
Q 2597 422 2861 522 
Q 3125 622 3353 813 
L 3353 166 
z
" transform="scale(0.015625)"/>
     </defs>
     <use xlink:href="#DejaVuSansMono-47"/>
     <use xlink:href="#DejaVuSansMono-6c" transform="translate(60.205078 0)"/>
     <use xlink:href="#DejaVuSansMono-6f" transform="translate(120.410156 0)"/>
     <use xlink:href="#DejaVuSansMono-62" transform="translate(180.615234 0)"/>
     <use xlink:href="#DejaVuSansMono-61" transform="translate(240.820312 0)"/>
     <use xlink:href="#DejaVuSansMono-6c" transform="translate(301.025391 0)"/>
     <use xlink:href="#DejaVuSansMono-20" transform="translate(361.230469 0)"/>
     <use xlink:href="#DejaVuSansMono-43" transform="translate(421.435547 0)"/>
     <use xlink:href="#DejaVuSansMono-6f" transform="translate(481.640625 0)"/>
     <use xlink:href="#DejaVuSansMono-6d" transform="translate(541.845703 0)"/>
     <use xlink:href="#DejaVuSansMono-6d" transform="translate(602.050781 0)"/>
     <use xlink:href="#DejaVuSansMono-61" transform="translate(662.255859 0)"/>
     <use xlink:href="#DejaVuSansMono-6e" transform="translate(722.460938 0)"/>
     <use xlink:href="#DejaVuSansMono-64" transform="translate(782.666016 0)"/>
    </g>
    <!-- Processor (GCP) -->
    <g style="fill: #0f172a" transform="translate(261.033187 283.412062) scale(0.12 -0.12)">
     <defs>
      <path id="DejaVuSansMono-63" d="M 3316 178 
Q 3084 44 2839 -23 
Q 2594 -91 2338 -91 
Q 1525 -91 1067 396 
Q 609 884 609 1747 
Q 609 2609 1067 3096 
Q 1525 3584 2338 3584 
Q 2591 3584 2831 3518 
Q 3072 3453 3316 3316 
L 3316 2713 
Q 3088 2916 2858 3006 
Q 2628 3097 2338 3097 
Q 1797 3097 1506 2747 
Q 1216 2397 1216 1747 
Q 1216 1100 1508 748 
Q 1800 397 2338 397 
Q 2638 397 2875 489 
Q 3113 581 3316 775 
L 3316 178 
z
" transform="scale(0.015625)"/>
      <path id="DejaVuSansMono-28" d="M 2766 4856 
Q 2350 4144 2145 3436 
Q 1941 2728 1941 2009 
Q 1941 1294 2145 584 
Q 2350 -125 2766 -844 
L 2266 -844 
Q 1794 -100 1562 604 
Q 1331 1309 1331 2009 
Q 1331 2706 1562 3412 
Q 1794 4119 2266 4856 
L 2766 4856 
z
" transform="scale(0.015625)"/>
      <path id="DejaVuSansMono-29" d="M 1088 4856 
L 1588 4856 
Q 2059 4119 2290 3412 
Q 2522 2706 2522 2009 
Q 2522 1306 2290 600 
Q 2059 -106 1588 -844 
L 1088 -844 
Q 1503 -119 1708 590 
Q 1913 1300 1913 2009 
Q 1913 2722 1708 3431 
Q 1503 4141 1088 4856 
z
" transform="scale(0.015625)"/>
     </defs>
     <use xlink:href="#DejaVuSansMono-50"/>
     <use xlink:href="#DejaVuSansMono-72" transform="translate(60.205078 0)"/>
     <use xlink:href="#DejaVuSansMono-6f" transform="translate(120.410156 0)"/>
     <use xlink:href="#DejaVuSansMono-63" transform="translate(180.615234 0)"/>
     <use xlink:href="#DejaVuSansMono-65" transform="translate(240.820312 0)"/>
     <use xlink:href="#DejaVuSansMono-73" transform="translate(301.025391 0)"/>
     <use xlink:href="#DejaVuSansMono-73" transform="translate(361.230469 0)"/>
     <use xlink:href="#DejaVuSansMono-6f" transform="translate(421.435547 0)"/>
     <use xlink:href="#DejaVuSansMono-72" transform="translate(481.640625 0)"/>
     <use xlink:href="#DejaVuSansMono-20" transform="translate(541.845703 0)"/>
     <use xlink:href="#DejaVuSansMono-28" transform="translate(602.050781 0)"/>
     <use xlink:href="#DejaVuSansMono-47" transform="translate(662.255859 0)"/>
     <use xlink:href="#DejaVuSansMono-43" transform="translate(722.460938 0)"/>
     <use xlink:href="#DejaVuSansMono-50" transform="translate(782.666016 0)"/>
     <use xlink:href="#DejaVuSansMono-29" transform="translate(842.871094 0)"/>
    </g>
   </g>
   <g id="text_8">
    <!-- GPU DRAM -->
    <g style="fill: #0f172a" transform="translate(288.726625 360.645331) scale(0.11 -0.11)">
     <defs>
      <path id="DejaVuSansMono-55" d="M 459 1791 
L 459 4666 
L 1094 4666 
L 1094 1503 
Q 1094 1163 1112 1017 
Q 1131 872 1178 794 
Q 1278 609 1467 515 
Q 1656 422 1925 422 
Q 2197 422 2384 515 
Q 2572 609 2675 794 
Q 2722 872 2740 1015 
Q 2759 1159 2759 1497 
L 2759 4666 
L 3391 4666 
L 3391 1791 
Q 3391 1075 3302 773 
Q 3213 472 2994 275 
Q 2788 91 2522 0 
Q 2256 -91 1925 -91 
Q 1597 -91 1331 0 
Q 1066 91 856 275 
Q 641 469 550 776 
Q 459 1084 459 1791 
z
" transform="scale(0.015625)"/>
     </defs>
     <use xlink:href="#DejaVuSansMono-47"/>
     <use xlink:href="#DejaVuSansMono-50" transform="translate(60.205078 0)"/>
     <use xlink:href="#DejaVuSansMono-55" transform="translate(120.410156 0)"/>
     <use xlink:href="#DejaVuSansMono-20" transform="translate(180.615234 0)"/>
     <use xlink:href="#DejaVuSansMono-44" transform="translate(240.820312 0)"/>
     <use xlink:href="#DejaVuSansMono-52" transform="translate(301.025391 0)"/>
     <use xlink:href="#DejaVuSansMono-41" transform="translate(361.230469 0)"/>
     <use xlink:href="#DejaVuSansMono-4d" transform="translate(421.435547 0)"/>
    </g>
   </g>
   <g id="text_9">
    <!-- Local Command -->
    <g style="fill: #0f172a" transform="translate(524.773409 131.201876) scale(0.1 -0.1)">
     <defs>
      <path id="DejaVuSansMono-4c" d="M 672 4666 
L 1306 4666 
L 1306 531 
L 3559 531 
L 3559 0 
L 672 0 
L 672 4666 
z
" transform="scale(0.015625)"/>
     </defs>
     <use xlink:href="#DejaVuSansMono-4c"/>
     <use xlink:href="#DejaVuSansMono-6f" transform="translate(60.205078 0)"/>
     <use xlink:href="#DejaVuSansMono-63" transform="translate(120.410156 0)"/>
     <use xlink:href="#DejaVuSansMono-61" transform="translate(180.615234 0)"/>
     <use xlink:href="#DejaVuSansMono-6c" transform="translate(240.820312 0)"/>
     <use xlink:href="#DejaVuSansMono-20" transform="translate(301.025391 0)"/>
     <use xlink:href="#DejaVuSansMono-43" transform="translate(361.230469 0)"/>
     <use xlink:href="#DejaVuSansMono-6f" transform="translate(421.435547 0)"/>
     <use xlink:href="#DejaVuSansMono-6d" transform="translate(481.640625 0)"/>
     <use xlink:href="#DejaVuSansMono-6d" transform="translate(541.845703 0)"/>
     <use xlink:href="#DejaVuSansMono-61" transform="translate(602.050781 0)"/>
     <use xlink:href="#DejaVuSansMono-6e" transform="translate(662.255859 0)"/>
     <use xlink:href="#DejaVuSansMono-64" transform="translate(722.460938 0)"/>
    </g>
    <!-- Processor (LCP) -->
    <g style="fill: #0f172a" transform="translate(518.753096 142.463439) scale(0.1 -0.1)">
     <use xlink:href="#DejaVuSansMono-50"/>
     <use xlink:href="#DejaVuSansMono-72" transform="translate(60.205078 0)"/>
     <use xlink:href="#DejaVuSansMono-6f" transform="translate(120.410156 0)"/>
     <use xlink:href="#DejaVuSansMono-63" transform="translate(180.615234 0)"/>
     <use xlink:href="#DejaVuSansMono-65" transform="translate(240.820312 0)"/>
     <use xlink:href="#DejaVuSansMono-73" transform="translate(301.025391 0)"/>
     <use xlink:href="#DejaVuSansMono-73" transform="translate(361.230469 0)"/>
     <use xlink:href="#DejaVuSansMono-6f" transform="translate(421.435547 0)"/>
     <use xlink:href="#DejaVuSansMono-72" transform="translate(481.640625 0)"/>
     <use xlink:href="#DejaVuSansMono-20" transform="translate(541.845703 0)"/>
     <use xlink:href="#DejaVuSansMono-28" transform="translate(602.050781 0)"/>
     <use xlink:href="#DejaVuSansMono-4c" transform="translate(662.255859 0)"/>
     <use xlink:href="#DejaVuSansMono-43" transform="translate(722.460938 0)"/>
     <use xlink:href="#DejaVuSansMono-50" transform="translate(782.666016 0)"/>
     <use xlink:href="#DejaVuSansMono-29" transform="translate(842.871094 0)"/>
    </g>
   </g>
   <g id="text_10">
    <!-- Warp Scheduler -->
    <g style="fill: #0f172a" transform="translate(453.058031 162.036949) scale(0.09 -0.09)">
     <defs>
      <path id="DejaVuSansMono-70" d="M 1172 441 
L 1172 -1331 
L 594 -1331 
L 594 3500 
L 1172 3500 
L 1172 3053 
Q 1316 3313 1555 3448 
Q 1794 3584 2106 3584 
Q 2741 3584 3102 3093 
Q 3463 2603 3463 1734 
Q 3463 881 3100 395 
Q 2738 -91 2106 -91 
Q 1788 -91 1548 45 
Q 1309 181 1172 441 
z
M 2859 1747 
Q 2859 2416 2648 2756 
Q 2438 3097 2022 3097 
Q 1603 3097 1387 2755 
Q 1172 2413 1172 1747 
Q 1172 1084 1387 740 
Q 1603 397 2022 397 
Q 2438 397 2648 737 
Q 2859 1078 2859 1747 
z
" transform="scale(0.015625)"/>
      <path id="DejaVuSansMono-68" d="M 3284 2169 
L 3284 0 
L 2706 0 
L 2706 2169 
Q 2706 2641 2540 2862 
Q 2375 3084 2022 3084 
Q 1619 3084 1401 2798 
Q 1184 2513 1184 1978 
L 1184 0 
L 609 0 
L 609 4863 
L 1184 4863 
L 1184 2975 
Q 1338 3275 1600 3429 
Q 1863 3584 2222 3584 
Q 2756 3584 3020 3232 
Q 3284 2881 3284 2169 
z
" transform="scale(0.015625)"/>
     </defs>
     <use xlink:href="#DejaVuSansMono-57"/>
     <use xlink:href="#DejaVuSansMono-61" transform="translate(60.205078 0)"/>
     <use xlink:href="#DejaVuSansMono-72" transform="translate(120.410156 0)"/>
     <use xlink:href="#DejaVuSansMono-70" transform="translate(180.615234 0)"/>
     <use xlink:href="#DejaVuSansMono-20" transform="translate(240.820312 0)"/>
     <use xlink:href="#DejaVuSansMono-53" transform="translate(301.025391 0)"/>
     <use xlink:href="#DejaVuSansMono-63" transform="translate(361.230469 0)"/>
     <use xlink:href="#DejaVuSansMono-68" transform="translate(421.435547 0)"/>
     <use xlink:href="#DejaVuSansMono-65" transform="translate(481.640625 0)"/>
     <use xlink:href="#DejaVuSansMono-64" transform="translate(541.845703 0)"/>
     <use xlink:href="#DejaVuSansMono-75" transform="translate(602.050781 0)"/>
     <use xlink:href="#DejaVuSansMono-6c" transform="translate(662.255859 0)"/>
     <use xlink:href="#DejaVuSansMono-65" transform="translate(722.460938 0)"/>
     <use xlink:href="#DejaVuSansMono-72" transform="translate(782.666016 0)"/>
    </g>
   </g>
   <g id="text_11">
    <!-- Core -->
    <g style="fill: #334155" transform="translate(470.78149 183.753525) scale(0.1 -0.1)">
     <use xlink:href="#DejaVuSansMono-43"/>
     <use xlink:href="#DejaVuSansMono-6f" transform="translate(60.205078 0)"/>
     <use xlink:href="#DejaVuSansMono-72" transform="translate(120.410156 0)"/>
     <use xlink:href="#DejaVuSansMono-65" transform="translate(180.615234 0)"/>
    </g>
   </g>
   <g id="text_12">
    <!-- 0 -->
    <g style="fill: #ffffff" transform="translate(502.675633 183.196338) scale(0.08 -0.08)">
     <defs>
      <path id="DejaVuSansMono-30" d="M 1509 2344 
Q 1509 2516 1629 2641 
Q 1750 2766 1919 2766 
Q 2094 2766 2219 2641 
Q 2344 2516 2344 2344 
Q 2344 2169 2220 2047 
Q 2097 1925 1919 1925 
Q 1744 1925 1626 2044 
Q 1509 2163 1509 2344 
z
M 1925 4250 
Q 1484 4250 1267 3775 
Q 1050 3300 1050 2328 
Q 1050 1359 1267 884 
Q 1484 409 1925 409 
Q 2369 409 2586 884 
Q 2803 1359 2803 2328 
Q 2803 3300 2586 3775 
Q 2369 4250 1925 4250 
z
M 1925 4750 
Q 2672 4750 3055 4137 
Q 3438 3525 3438 2328 
Q 3438 1134 3055 521 
Q 2672 -91 1925 -91 
Q 1178 -91 797 521 
Q 416 1134 416 2328 
Q 416 3525 797 4137 
Q 1178 4750 1925 4750 
z
" transform="scale(0.015625)"/>
     </defs>
     <use xlink:href="#DejaVuSansMono-30"/>
    </g>
   </g>
   <g id="text_13">
    <!-- Warp Scheduler -->
    <g style="fill: #0f172a" transform="translate(563.542031 162.036949) scale(0.09 -0.09)">
     <use xlink:href="#DejaVuSansMono-57"/>
     <use xlink:href="#DejaVuSansMono-61" transform="translate(60.205078 0)"/>
     <use xlink:href="#DejaVuSansMono-72" transform="translate(120.410156 0)"/>
     <use xlink:href="#DejaVuSansMono-70" transform="translate(180.615234 0)"/>
     <use xlink:href="#DejaVuSansMono-20" transform="translate(240.820312 0)"/>
     <use xlink:href="#DejaVuSansMono-53" transform="translate(301.025391 0)"/>
     <use xlink:href="#DejaVuSansMono-63" transform="translate(361.230469 0)"/>
     <use xlink:href="#DejaVuSansMono-68" transform="translate(421.435547 0)"/>
     <use xlink:href="#DejaVuSansMono-65" transform="translate(481.640625 0)"/>
     <use xlink:href="#DejaVuSansMono-64" transform="translate(541.845703 0)"/>
     <use xlink:href="#DejaVuSansMono-75" transform="translate(602.050781 0)"/>
     <use xlink:href="#DejaVuSansMono-6c" transform="translate(662.255859 0)"/>
     <use xlink:href="#DejaVuSansMono-65" transform="translate(722.460938 0)"/>
     <use xlink:href="#DejaVuSansMono-72" transform="translate(782.666016 0)"/>
    </g>
   </g>
   <g id="text_14">
    <!-- Core -->
    <g style="fill: #334155" transform="translate(581.26549 183.753525) scale(0.1 -0.1)">
     <use xlink:href="#DejaVuSansMono-43"/>
     <use xlink:href="#DejaVuSansMono-6f" transform="translate(60.205078 0)"/>
     <use xlink:href="#DejaVuSansMono-72" transform="translate(120.410156 0)"/>
     <use xlink:href="#DejaVuSansMono-65" transform="translate(180.615234 0)"/>
    </g>
   </g>
   <g id="text_15">
    <!-- 1 -->
    <g style="fill: #ffffff" transform="translate(613.159633 183.196338) scale(0.08 -0.08)">
     <defs>
      <path id="DejaVuSansMono-31" d="M 844 531 
L 1825 531 
L 1825 4097 
L 769 3859 
L 769 4434 
L 1819 4666 
L 2450 4666 
L 2450 531 
L 3419 531 
L 3419 0 
L 844 0 
L 844 531 
z
" transform="scale(0.015625)"/>
     </defs>
     <use xlink:href="#DejaVuSansMono-31"/>
    </g>
   </g>
   <g id="text_16">
    <!-- Warp Scheduler -->
    <g style="fill: #0f172a" transform="translate(453.058031 210.070165) scale(0.09 -0.09)">
     <use xlink:href="#DejaVuSansMono-57"/>
     <use xlink:href="#DejaVuSansMono-61" transform="translate(60.205078 0)"/>
     <use xlink:href="#DejaVuSansMono-72" transform="translate(120.410156 0)"/>
     <use xlink:href="#DejaVuSansMono-70" transform="translate(180.615234 0)"/>
     <use xlink:href="#DejaVuSansMono-20" transform="translate(240.820312 0)"/>
     <use xlink:href="#DejaVuSansMono-53" transform="translate(301.025391 0)"/>
     <use xlink:href="#DejaVuSansMono-63" transform="translate(361.230469 0)"/>
     <use xlink:href="#DejaVuSansMono-68" transform="translate(421.435547 0)"/>
     <use xlink:href="#DejaVuSansMono-65" transform="translate(481.640625 0)"/>
     <use xlink:href="#DejaVuSansMono-64" transform="translate(541.845703 0)"/>
     <use xlink:href="#DejaVuSansMono-75" transform="translate(602.050781 0)"/>
     <use xlink:href="#DejaVuSansMono-6c" transform="translate(662.255859 0)"/>
     <use xlink:href="#DejaVuSansMono-65" transform="translate(722.460938 0)"/>
     <use xlink:href="#DejaVuSansMono-72" transform="translate(782.666016 0)"/>
    </g>
   </g>
   <g id="text_17">
    <!-- Core -->
    <g style="fill: #334155" transform="translate(470.78149 231.786741) scale(0.1 -0.1)">
     <use xlink:href="#DejaVuSansMono-43"/>
     <use xlink:href="#DejaVuSansMono-6f" transform="translate(60.205078 0)"/>
     <use xlink:href="#DejaVuSansMono-72" transform="translate(120.410156 0)"/>
     <use xlink:href="#DejaVuSansMono-65" transform="translate(180.615234 0)"/>
    </g>
   </g>
   <g id="text_18">
    <!-- 2 -->
    <g style="fill: #ffffff" transform="translate(502.675633 231.229554) scale(0.08 -0.08)">
     <defs>
      <path id="DejaVuSansMono-32" d="M 1166 531 
L 3309 531 
L 3309 0 
L 475 0 
L 475 531 
Q 1059 1147 1496 1619 
Q 1934 2091 2100 2284 
Q 2413 2666 2522 2902 
Q 2631 3138 2631 3384 
Q 2631 3775 2401 3997 
Q 2172 4219 1772 4219 
Q 1488 4219 1175 4116 
Q 863 4013 513 3803 
L 513 4441 
Q 834 4594 1145 4672 
Q 1456 4750 1759 4750 
Q 2444 4750 2861 4386 
Q 3278 4022 3278 3431 
Q 3278 3131 3139 2831 
Q 3000 2531 2688 2169 
Q 2513 1966 2180 1606 
Q 1847 1247 1166 531 
z
" transform="scale(0.015625)"/>
     </defs>
     <use xlink:href="#DejaVuSansMono-32"/>
    </g>
   </g>
   <g id="text_19">
    <!-- Warp Scheduler -->
    <g style="fill: #0f172a" transform="translate(563.542031 210.070165) scale(0.09 -0.09)">
     <use xlink:href="#DejaVuSansMono-57"/>
     <use xlink:href="#DejaVuSansMono-61" transform="translate(60.205078 0)"/>
     <use xlink:href="#DejaVuSansMono-72" transform="translate(120.410156 0)"/>
     <use xlink:href="#DejaVuSansMono-70" transform="translate(180.615234 0)"/>
     <use xlink:href="#DejaVuSansMono-20" transform="translate(240.820312 0)"/>
     <use xlink:href="#DejaVuSansMono-53" transform="translate(301.025391 0)"/>
     <use xlink:href="#DejaVuSansMono-63" transform="translate(361.230469 0)"/>
     <use xlink:href="#DejaVuSansMono-68" transform="translate(421.435547 0)"/>
     <use xlink:href="#DejaVuSansMono-65" transform="translate(481.640625 0)"/>
     <use xlink:href="#DejaVuSansMono-64" transform="translate(541.845703 0)"/>
     <use xlink:href="#DejaVuSansMono-75" transform="translate(602.050781 0)"/>
     <use xlink:href="#DejaVuSansMono-6c" transform="translate(662.255859 0)"/>
     <use xlink:href="#DejaVuSansMono-65" transform="translate(722.460938 0)"/>
     <use xlink:href="#DejaVuSansMono-72" transform="translate(782.666016 0)"/>
    </g>
   </g>
   <g id="text_20">
    <!-- Core -->
    <g style="fill: #334155" transform="translate(581.26549 231.786741) scale(0.1 -0.1)">
     <use xlink:href="#DejaVuSansMono-43"/>
     <use xlink:href="#DejaVuSansMono-6f" transform="translate(60.205078 0)"/>
     <use xlink:href="#DejaVuSansMono-72" transform="translate(120.410156 0)"/>
     <use xlink:href="#DejaVuSansMono-65" transform="translate(180.615234 0)"/>
    </g>
   </g>
   <g id="text_21">
    <!-- 3 -->
    <g style="fill: #ffffff" transform="translate(613.159633 231.229554) scale(0.08 -0.08)">
     <defs>
      <path id="DejaVuSansMono-33" d="M 2425 2497 
Q 2884 2375 3128 2064 
Q 3372 1753 3372 1288 
Q 3372 644 2939 276 
Q 2506 -91 1741 -91 
Q 1419 -91 1084 -31 
Q 750 28 428 141 
L 428 769 
Q 747 603 1056 522 
Q 1366 441 1672 441 
Q 2191 441 2469 675 
Q 2747 909 2747 1350 
Q 2747 1756 2469 1995 
Q 2191 2234 1716 2234 
L 1234 2234 
L 1234 2753 
L 1716 2753 
Q 2150 2753 2394 2943 
Q 2638 3134 2638 3475 
Q 2638 3834 2411 4026 
Q 2184 4219 1766 4219 
Q 1488 4219 1191 4156 
Q 894 4094 569 3969 
L 569 4550 
Q 947 4650 1242 4700 
Q 1538 4750 1766 4750 
Q 2447 4750 2855 4408 
Q 3263 4066 3263 3500 
Q 3263 3116 3048 2859 
Q 2834 2603 2425 2497 
z
" transform="scale(0.015625)"/>
     </defs>
     <use xlink:href="#DejaVuSansMono-33"/>
    </g>
   </g>
   <g id="text_22">
    <!-- CLUSTER 0 -->
    <g style="fill: #334155" transform="translate(440.16336 131.586026) scale(0.1 -0.1)">
     <defs>
      <path id="DejaVuSansMono-54" d="M 147 4666 
L 3706 4666 
L 3706 4134 
L 2247 4134 
L 2247 0 
L 1613 0 
L 1613 4134 
L 147 4134 
L 147 4666 
z
" transform="scale(0.015625)"/>
      <path id="DejaVuSansMono-45" d="M 616 4666 
L 3384 4666 
L 3384 4134 
L 1247 4134 
L 1247 2753 
L 3291 2753 
L 3291 2222 
L 1247 2222 
L 1247 531 
L 3444 531 
L 3444 0 
L 616 0 
L 616 4666 
z
" transform="scale(0.015625)"/>
     </defs>
     <use xlink:href="#DejaVuSansMono-43"/>
     <use xlink:href="#DejaVuSansMono-4c" transform="translate(60.205078 0)"/>
     <use xlink:href="#DejaVuSansMono-55" transform="translate(120.410156 0)"/>
     <use xlink:href="#DejaVuSansMono-53" transform="translate(180.615234 0)"/>
     <use xlink:href="#DejaVuSansMono-54" transform="translate(240.820312 0)"/>
     <use xlink:href="#DejaVuSansMono-45" transform="translate(301.025391 0)"/>
     <use xlink:href="#DejaVuSansMono-52" transform="translate(361.230469 0)"/>
     <use xlink:href="#DejaVuSansMono-20" transform="translate(421.435547 0)"/>
     <use xlink:href="#DejaVuSansMono-30" transform="translate(481.640625 0)"/>
    </g>
   </g>
   <g id="text_23">
    <!-- Local Command -->
    <g style="fill: #0f172a" transform="translate(524.773409 308.609876) scale(0.1 -0.1)">
     <use xlink:href="#DejaVuSansMono-4c"/>
     <use xlink:href="#DejaVuSansMono-6f" transform="translate(60.205078 0)"/>
     <use xlink:href="#DejaVuSansMono-63" transform="translate(120.410156 0)"/>
     <use xlink:href="#DejaVuSansMono-61" transform="translate(180.615234 0)"/>
     <use xlink:href="#DejaVuSansMono-6c" transform="translate(240.820312 0)"/>
     <use xlink:href="#DejaVuSansMono-20" transform="translate(301.025391 0)"/>
     <use xlink:href="#DejaVuSansMono-43" transform="translate(361.230469 0)"/>
     <use xlink:href="#DejaVuSansMono-6f" transform="translate(421.435547 0)"/>
     <use xlink:href="#DejaVuSansMono-6d" transform="translate(481.640625 0)"/>
     <use xlink:href="#DejaVuSansMono-6d" transform="translate(541.845703 0)"/>
     <use xlink:href="#DejaVuSansMono-61" transform="translate(602.050781 0)"/>
     <use xlink:href="#DejaVuSansMono-6e" transform="translate(662.255859 0)"/>
     <use xlink:href="#DejaVuSansMono-64" transform="translate(722.460938 0)"/>
    </g>
    <!-- Processor (LCP) -->
    <g style="fill: #0f172a" transform="translate(518.753096 319.871439) scale(0.1 -0.1)">
     <use xlink:href="#DejaVuSansMono-50"/>
     <use xlink:href="#DejaVuSansMono-72" transform="translate(60.205078 0)"/>
     <use xlink:href="#DejaVuSansMono-6f" transform="translate(120.410156 0)"/>
     <use xlink:href="#DejaVuSansMono-63" transform="translate(180.615234 0)"/>
     <use xlink:href="#DejaVuSansMono-65" transform="translate(240.820312 0)"/>
     <use xlink:href="#DejaVuSansMono-73" transform="translate(301.025391 0)"/>
     <use xlink:href="#DejaVuSansMono-73" transform="translate(361.230469 0)"/>
     <use xlink:href="#DejaVuSansMono-6f" transform="translate(421.435547 0)"/>
     <use xlink:href="#DejaVuSansMono-72" transform="translate(481.640625 0)"/>
     <use xlink:href="#DejaVuSansMono-20" transform="translate(541.845703 0)"/>
     <use xlink:href="#DejaVuSansMono-28" transform="translate(602.050781 0)"/>
     <use xlink:href="#DejaVuSansMono-4c" transform="translate(662.255859 0)"/>
     <use xlink:href="#DejaVuSansMono-43" transform="translate(722.460938 0)"/>
     <use xlink:href="#DejaVuSansMono-50" transform="translate(782.666016 0)"/>
     <use xlink:href="#DejaVuSansMono-29" transform="translate(842.871094 0)"/>
    </g>
   </g>
   <g id="text_24">
    <!-- Warp Scheduler -->
    <g style="fill: #0f172a" transform="translate(453.058031 339.444949) scale(0.09 -0.09)">
     <use xlink:href="#DejaVuSansMono-57"/>
     <use xlink:href="#DejaVuSansMono-61" transform="translate(60.205078 0)"/>
     <use xlink:href="#DejaVuSansMono-72" transform="translate(120.410156 0)"/>
     <use xlink:href="#DejaVuSansMono-70" transform="translate(180.615234 0)"/>
     <use xlink:href="#DejaVuSansMono-20" transform="translate(240.820312 0)"/>
     <use xlink:href="#DejaVuSansMono-53" transform="translate(301.025391 0)"/>
     <use xlink:href="#DejaVuSansMono-63" transform="translate(361.230469 0)"/>
     <use xlink:href="#DejaVuSansMono-68" transform="translate(421.435547 0)"/>
     <use xlink:href="#DejaVuSansMono-65" transform="translate(481.640625 0)"/>
     <use xlink:href="#DejaVuSansMono-64" transform="translate(541.845703 0)"/>
     <use xlink:href="#DejaVuSansMono-75" transform="translate(602.050781 0)"/>
     <use xlink:href="#DejaVuSansMono-6c" transform="translate(662.255859 0)"/>
     <use xlink:href="#DejaVuSansMono-65" transform="translate(722.460938 0)"/>
     <use xlink:href="#DejaVuSansMono-72" transform="translate(782.666016 0)"/>
    </g>
   </g>
   <g id="text_25">
    <!-- Core -->
    <g style="fill: #334155" transform="translate(470.78149 361.161525) scale(0.1 -0.1)">
     <use xlink:href="#DejaVuSansMono-43"/>
     <use xlink:href="#DejaVuSansMono-6f" transform="translate(60.205078 0)"/>
     <use xlink:href="#DejaVuSansMono-72" transform="translate(120.410156 0)"/>
     <use xlink:href="#DejaVuSansMono-65" transform="translate(180.615234 0)"/>
    </g>
   </g>
   <g id="text_26">
    <!-- 4 -->
    <g style="fill: #ffffff" transform="translate(502.675633 360.604338) scale(0.08 -0.08)">
     <defs>
      <path id="DejaVuSansMono-34" d="M 2297 4091 
L 825 1625 
L 2297 1625 
L 2297 4091 
z
M 2194 4666 
L 2925 4666 
L 2925 1625 
L 3547 1625 
L 3547 1113 
L 2925 1113 
L 2925 0 
L 2297 0 
L 2297 1113 
L 319 1113 
L 319 1709 
L 2194 4666 
z
" transform="scale(0.015625)"/>
     </defs>
     <use xlink:href="#DejaVuSansMono-34"/>
    </g>
   </g>
   <g id="text_27">
    <!-- Warp Scheduler -->
    <g style="fill: #0f172a" transform="translate(563.542031 339.444949) scale(0.09 -0.09)">
     <use xlink:href="#DejaVuSansMono-57"/>
     <use xlink:href="#DejaVuSansMono-61" transform="translate(60.205078 0)"/>
     <use xlink:href="#DejaVuSansMono-72" transform="translate(120.410156 0)"/>
     <use xlink:href="#DejaVuSansMono-70" transform="translate(180.615234 0)"/>
     <use xlink:href="#DejaVuSansMono-20" transform="translate(240.820312 0)"/>
     <use xlink:href="#DejaVuSansMono-53" transform="translate(301.025391 0)"/>
     <use xlink:href="#DejaVuSansMono-63" transform="translate(361.230469 0)"/>
     <use xlink:href="#DejaVuSansMono-68" transform="translate(421.435547 0)"/>
     <use xlink:href="#DejaVuSansMono-65" transform="translate(481.640625 0)"/>
     <use xlink:href="#DejaVuSansMono-64" transform="translate(541.845703 0)"/>
     <use xlink:href="#DejaVuSansMono-75" transform="translate(602.050781 0)"/>
     <use xlink:href="#DejaVuSansMono-6c" transform="translate(662.255859 0)"/>
     <use xlink:href="#DejaVuSansMono-65" transform="translate(722.460938 0)"/>
     <use xlink:href="#DejaVuSansMono-72" transform="translate(782.666016 0)"/>
    </g>
   </g>
   <g id="text_28">
    <!-- Core -->
    <g style="fill: #334155" transform="translate(581.26549 361.161525) scale(0.1 -0.1)">
     <use xlink:href="#DejaVuSansMono-43"/>
     <use xlink:href="#DejaVuSansMono-6f" transform="translate(60.205078 0)"/>
     <use xlink:href="#DejaVuSansMono-72" transform="translate(120.410156 0)"/>
     <use xlink:href="#DejaVuSansMono-65" transform="translate(180.615234 0)"/>
    </g>
   </g>
   <g id="text_29">
    <!-- 5 -->
    <g style="fill: #ffffff" transform="translate(613.159633 360.604338) scale(0.08 -0.08)">
     <defs>
      <path id="DejaVuSansMono-35" d="M 647 4666 
L 3009 4666 
L 3009 4134 
L 1222 4134 
L 1222 2988 
Q 1356 3038 1492 3061 
Q 1628 3084 1766 3084 
Q 2491 3084 2916 2656 
Q 3341 2228 3341 1497 
Q 3341 759 2895 334 
Q 2450 -91 1678 -91 
Q 1306 -91 998 -41 
Q 691 9 447 109 
L 447 750 
Q 734 594 1025 517 
Q 1316 441 1619 441 
Q 2141 441 2423 716 
Q 2706 991 2706 1497 
Q 2706 1997 2414 2275 
Q 2122 2553 1600 2553 
Q 1347 2553 1106 2495 
Q 866 2438 647 2322 
L 647 4666 
z
" transform="scale(0.015625)"/>
     </defs>
     <use xlink:href="#DejaVuSansMono-35"/>
    </g>
   </g>
   <g id="text_30">
    <!-- Warp Scheduler -->
    <g style="fill: #0f172a" transform="translate(453.058031 387.478165) scale(0.09 -0.09)">
     <use xlink:href="#DejaVuSansMono-57"/>
     <use xlink:href="#DejaVuSansMono-61" transform="translate(60.205078 0)"/>
     <use xlink:href="#DejaVuSansMono-72" transform="translate(120.410156 0)"/>
     <use xlink:href="#DejaVuSansMono-70" transform="translate(180.615234 0)"/>
     <use xlink:href="#DejaVuSansMono-20" transform="translate(240.820312 0)"/>
     <use xlink:href="#DejaVuSansMono-53" transform="translate(301.025391 0)"/>
     <use xlink:href="#DejaVuSansMono-63" transform="translate(361.230469 0)"/>
     <use xlink:href="#DejaVuSansMono-68" transform="translate(421.435547 0)"/>
     <use xlink:href="#DejaVuSansMono-65" transform="translate(481.640625 0)"/>
     <use xlink:href="#DejaVuSansMono-64" transform="translate(541.845703 0)"/>
     <use xlink:href="#DejaVuSansMono-75" transform="translate(602.050781 0)"/>
     <use xlink:href="#DejaVuSansMono-6c" transform="translate(662.255859 0)"/>
     <use xlink:href="#DejaVuSansMono-65" transform="translate(722.460938 0)"/>
     <use xlink:href="#DejaVuSansMono-72" transform="translate(782.666016 0)"/>
    </g>
   </g>
   <g id="text_31">
    <!-- Core -->
    <g style="fill: #334155" transform="translate(470.78149 409.194741) scale(0.1 -0.1)">
     <use xlink:href="#DejaVuSansMono-43"/>
     <use xlink:href="#DejaVuSansMono-6f" transform="translate(60.205078 0)"/>
     <use xlink:href="#DejaVuSansMono-72" transform="translate(120.410156 0)"/>
     <use xlink:href="#DejaVuSansMono-65" transform="translate(180.615234 0)"/>
    </g>
   </g>
   <g id="text_32">
    <!-- 6 -->
    <g style="fill: #ffffff" transform="translate(502.675633 408.637554) scale(0.08 -0.08)">
     <defs>
      <path id="DejaVuSansMono-36" d="M 3097 4563 
L 3097 3981 
Q 2900 4097 2678 4158 
Q 2456 4219 2216 4219 
Q 1616 4219 1306 3767 
Q 997 3316 997 2438 
Q 1147 2750 1412 2917 
Q 1678 3084 2022 3084 
Q 2697 3084 3067 2670 
Q 3438 2256 3438 1497 
Q 3438 741 3056 325 
Q 2675 -91 1984 -91 
Q 1172 -91 794 492 
Q 416 1075 416 2328 
Q 416 3509 870 4129 
Q 1325 4750 2188 4750 
Q 2419 4750 2650 4701 
Q 2881 4653 3097 4563 
z
M 1972 2591 
Q 1569 2591 1337 2300 
Q 1106 2009 1106 1497 
Q 1106 984 1337 693 
Q 1569 403 1972 403 
Q 2391 403 2603 679 
Q 2816 956 2816 1497 
Q 2816 2041 2603 2316 
Q 2391 2591 1972 2591 
z
" transform="scale(0.015625)"/>
     </defs>
     <use xlink:href="#DejaVuSansMono-36"/>
    </g>
   </g>
   <g id="text_33">
    <!-- Warp Scheduler -->
    <g style="fill: #0f172a" transform="translate(563.542031 387.478165) scale(0.09 -0.09)">
     <use xlink:href="#DejaVuSansMono-57"/>
     <use xlink:href="#DejaVuSansMono-61" transform="translate(60.205078 0)"/>
     <use xlink:href="#DejaVuSansMono-72" transform="translate(120.410156 0)"/>
     <use xlink:href="#DejaVuSansMono-70" transform="translate(180.615234 0)"/>
     <use xlink:href="#DejaVuSansMono-20" transform="translate(240.820312 0)"/>
     <use xlink:href="#DejaVuSansMono-53" transform="translate(301.025391 0)"/>
     <use xlink:href="#DejaVuSansMono-63" transform="translate(361.230469 0)"/>
     <use xlink:href="#DejaVuSansMono-68" transform="translate(421.435547 0)"/>
     <use xlink:href="#DejaVuSansMono-65" transform="translate(481.640625 0)"/>
     <use xlink:href="#DejaVuSansMono-64" transform="translate(541.845703 0)"/>
     <use xlink:href="#DejaVuSansMono-75" transform="translate(602.050781 0)"/>
     <use xlink:href="#DejaVuSansMono-6c" transform="translate(662.255859 0)"/>
     <use xlink:href="#DejaVuSansMono-65" transform="translate(722.460938 0)"/>
     <use xlink:href="#DejaVuSansMono-72" transform="translate(782.666016 0)"/>
    </g>
   </g>
   <g id="text_34">
    <!-- Core -->
    <g style="fill: #334155" transform="translate(581.26549 409.194741) scale(0.1 -0.1)">
     <use xlink:href="#DejaVuSansMono-43"/>
     <use xlink:href="#DejaVuSansMono-6f" transform="translate(60.205078 0)"/>
     <use xlink:href="#DejaVuSansMono-72" transform="translate(120.410156 0)"/>
     <use xlink:href="#DejaVuSansMono-65" transform="translate(180.615234 0)"/>
    </g>
   </g>
   <g id="text_35">
    <!-- 7 -->
    <g style="fill: #ffffff" transform="translate(613.159633 408.637554) scale(0.08 -0.08)">
     <defs>
      <path id="DejaVuSansMono-37" d="M 434 4666 
L 3372 4666 
L 3372 4397 
L 1703 0 
L 1044 0 
L 2669 4134 
L 434 4134 
L 434 4666 
z
" transform="scale(0.015625)"/>
     </defs>
     <use xlink:href="#DejaVuSansMono-37"/>
    </g>
   </g>
   <g id="text_36">
    <!-- CLUSTER 1 -->
    <g style="fill: #334155" transform="translate(440.16336 308.994026) scale(0.1 -0.1)">
     <use xlink:href="#DejaVuSansMono-43"/>
     <use xlink:href="#DejaVuSansMono-4c" transform="translate(60.205078 0)"/>
     <use xlink:href="#DejaVuSansMono-55" transform="translate(120.410156 0)"/>
     <use xlink:href="#DejaVuSansMono-53" transform="translate(180.615234 0)"/>
     <use xlink:href="#DejaVuSansMono-54" transform="translate(240.820312 0)"/>
     <use xlink:href="#DejaVuSansMono-45" transform="translate(301.025391 0)"/>
     <use xlink:href="#DejaVuSansMono-52" transform="translate(361.230469 0)"/>
     <use xlink:href="#DejaVuSansMono-20" transform="translate(421.435547 0)"/>
     <use xlink:href="#DejaVuSansMono-31" transform="translate(481.640625 0)"/>
    </g>
   </g>
  </g>
 </g>
 <defs>
  <clipPath id="p5937356ef5">
   <rect x="7.2" y="7.2" width="669.6" height="443.52"/>
  </clipPath>
 </defs>
</svg>
