<?xml version="1.0" encoding="UTF-8"?>
<svg xmlns="http://www.w3.org/2000/svg" viewBox="0 0 647 437">
  <defs>
    <style>
      .cls-1 {
        fill: #fff;
      }

      .cls-2 {
        fill: #666;
      }

      .cls-3 {
        fill: none;
      }

      .cls-3, .cls-4 {
        stroke: #000;
        stroke-miterlimit: 10;
      }
    </style>
  </defs>
  <g id="Layer_3" data-name="Layer 3">
    <rect class="cls-1" width="647" height="437"/>
  </g>
  <g id="_05" data-name="05">
    <rect class="cls-3" x="33.5" y="46" width="74" height="72"/>
    <rect class="cls-3" x="33.5" y="141.5" width="74" height="28"/>
    <rect class="cls-3" x="131.5" y="141.5" width="74" height="28"/>
    <g>
      <path d="M51.425,73.52h1.67l2.475,7.277,2.458-7.277h1.659v8.607h-1.113v-5.08c0-.176.004-.467.012-.873s.012-.842.012-1.307l-2.458,7.26h-1.155l-2.481-7.26v.264c0,.211.006.531.018.963s.018.75.018.953v5.08h-1.113v-8.607Z"/>
      <path d="M62.364,75.852v4.166c0,.32.049.582.148.785.183.375.523.562,1.021.562.715,0,1.202-.328,1.461-.984.141-.352.211-.834.211-1.447v-3.082h1.055v6.275h-.996l.012-.926c-.134.238-.301.439-.5.604-.395.328-.874.492-1.437.492-.878,0-1.476-.299-1.794-.896-.172-.32-.259-.748-.259-1.283v-4.266h1.078Z"/>
      <path d="M72.53,76.478c.555.538.832,1.331.832,2.376,0,1.012-.245,1.847-.733,2.506-.488.66-1.247.99-2.274.99-.857,0-1.538-.292-2.042-.875-.504-.584-.756-1.367-.756-2.352,0-1.053.266-1.893.797-2.518.532-.623,1.245-.936,2.141-.936.803,0,1.482.27,2.037.808ZM71.875,80.648c.257-.529.385-1.117.385-1.766,0-.584-.093-1.061-.278-1.428-.293-.577-.799-.865-1.518-.865-.638,0-1.101.245-1.391.736-.29.492-.435,1.086-.435,1.779,0,.668.145,1.224.435,1.668.29.445.749.668,1.379.668.691,0,1.166-.265,1.422-.793Z"/>
      <path d="M74.657,75.852h1.002v.891c.297-.367.611-.631.943-.791s.701-.24,1.107-.24c.891,0,1.492.311,1.805.932.172.34.258.826.258,1.459v4.025h-1.072v-3.955c0-.383-.057-.691-.17-.926-.188-.391-.527-.586-1.02-.586-.25,0-.455.025-.615.076-.289.086-.543.258-.762.516-.176.207-.29.42-.343.641s-.079.537-.079.947v3.287h-1.055v-6.275Z"/>
      <path d="M89.493,75.078c.375.691.562,1.639.562,2.842,0,1.141-.17,2.084-.51,2.83-.492,1.07-1.297,1.605-2.414,1.605-1.008,0-1.758-.438-2.25-1.312-.41-.73-.615-1.711-.615-2.941,0-.953.123-1.771.369-2.455.461-1.273,1.295-1.91,2.502-1.91,1.086,0,1.871.447,2.355,1.342ZM88.432,80.668c.325-.484.487-1.387.487-2.707,0-.953-.118-1.738-.352-2.354-.235-.615-.691-.922-1.368-.922-.622,0-1.077.291-1.364.875-.288.584-.432,1.445-.432,2.582,0,.855.092,1.543.276,2.062.282.793.763,1.189,1.444,1.189.548,0,.984-.242,1.309-.727Z"/>
    </g>
    <g>
      <path d="M55.544,152.146c.594.574.925,1.227.99,1.957h-1.137c-.126-.555-.379-.994-.757-1.318s-.908-.486-1.591-.486c-.833,0-1.505.297-2.017.895-.512.596-.768,1.51-.768,2.74,0,1.01.231,1.827.693,2.455.462.627,1.152.941,2.069.941.844,0,1.487-.33,1.928-.99.234-.348.409-.805.524-1.371h1.137c-.101.906-.433,1.666-.996,2.279-.676.738-1.587,1.107-2.734,1.107-.989,0-1.819-.303-2.491-.909-.884-.802-1.326-2.038-1.326-3.712,0-1.27.332-2.312.996-3.125.718-.883,1.708-1.324,2.971-1.324,1.077,0,1.913.287,2.508.861Z"/>
      <path d="M58.122,151.52h1.166v7.582h4.318v1.025h-5.484v-8.607Z"/>
      <path d="M65.558,157.35c.026.488.137.885.333,1.189.373.57,1.029.855,1.97.855.421,0,.805-.062,1.151-.188.67-.242,1.005-.676,1.005-1.301,0-.469-.142-.803-.426-1.002-.288-.195-.738-.365-1.351-.51l-1.129-.264c-.738-.172-1.26-.361-1.566-.568-.53-.359-.795-.896-.795-1.611,0-.773.26-1.408.781-1.904.521-.496,1.258-.744,2.212-.744.878,0,1.624.217,2.238.652s.921,1.133.921,2.09h-1.096c-.056-.461-.176-.814-.359-1.061-.341-.449-.919-.674-1.736-.674-.659,0-1.133.145-1.421.434-.289.289-.433.625-.433,1.008,0,.422.17.73.511.926.224.125.729.281,1.516.469l1.169.275c.564.133.999.314,1.306.545.53.402.795.986.795,1.752,0,.953-.338,1.635-1.014,2.045s-1.462.615-2.357.615c-1.044,0-1.861-.273-2.451-.82-.591-.543-.88-1.279-.869-2.209h1.096Z"/>
      <path d="M72.771,151.52h3.722c1.014,0,1.736.301,2.165.902.251.355.377.766.377,1.23,0,.543-.154.988-.463,1.336-.16.184-.391.352-.691.504.441.168.771.357.99.568.387.375.58.893.58,1.553,0,.555-.175,1.057-.525,1.506-.522.672-1.354,1.008-2.494,1.008h-3.661v-8.607ZM76.057,155.158c.497,0,.884-.068,1.16-.205.434-.215.651-.602.651-1.16,0-.562-.231-.941-.693-1.137-.26-.109-.647-.164-1.16-.164h-2.102v2.666h2.144ZM76.451,159.131c.722,0,1.236-.207,1.543-.621.193-.262.29-.578.29-.949,0-.625-.282-1.051-.846-1.277-.3-.121-.696-.182-1.189-.182h-2.336v3.029h2.538Z"/>
      <path d="M81.718,153.852v4.166c0,.32.049.582.148.785.183.375.523.562,1.021.562.715,0,1.202-.328,1.461-.984.141-.352.211-.834.211-1.447v-3.082h1.055v6.275h-.996l.012-.926c-.134.238-.301.439-.5.604-.395.328-.874.492-1.437.492-.878,0-1.476-.299-1.794-.896-.172-.32-.259-.748-.259-1.283v-4.266h1.078Z"/>
      <path d="M87.964,158.158c.032.352.122.621.269.809.271.34.742.51,1.412.51.398,0,.749-.086,1.052-.256s.455-.432.455-.787c0-.27-.121-.475-.363-.615-.155-.086-.46-.186-.917-.299l-.852-.211c-.544-.133-.945-.281-1.203-.445-.46-.285-.691-.68-.691-1.184,0-.594.217-1.074.65-1.441.433-.367,1.016-.551,1.749-.551.958,0,1.649.277,2.072.832.265.352.394.73.386,1.137h-.996c-.02-.237-.106-.453-.258-.647-.248-.275-.678-.413-1.29-.413-.408,0-.717.075-.927.227-.21.152-.315.354-.315.602,0,.273.138.49.414.654.159.098.394.184.704.258l.71.17c.772.184,1.29.361,1.552.533.41.27.615.693.615,1.271,0,.559-.215,1.041-.644,1.447-.429.406-1.083.609-1.961.609-.945,0-1.614-.213-2.008-.637s-.604-.947-.632-1.572h1.014Z"/>
    </g>
    <rect class="cls-3" x="132.5" y="185.5" width="74" height="28"/>
    <rect class="cls-3" x="132.5" y="229.5" width="74" height="28"/>
    <g>
      <path d="M154.213,196.146c.594.574.925,1.227.99,1.957h-1.137c-.126-.555-.379-.994-.757-1.318s-.908-.486-1.591-.486c-.833,0-1.505.297-2.017.895-.512.596-.768,1.51-.768,2.74,0,1.01.231,1.827.693,2.455.462.627,1.152.941,2.069.941.844,0,1.487-.33,1.928-.99.234-.348.409-.805.524-1.371h1.137c-.101.906-.433,1.666-.996,2.279-.676.738-1.587,1.107-2.734,1.107-.989,0-1.819-.303-2.491-.909-.884-.802-1.326-2.038-1.326-3.712,0-1.27.332-2.312.996-3.125.718-.883,1.708-1.324,2.971-1.324,1.077,0,1.913.287,2.508.861Z"/>
      <path d="M156.791,195.52h1.166v7.582h4.318v1.025h-5.484v-8.607Z"/>
      <path d="M169.553,196.146c.594.574.925,1.227.99,1.957h-1.137c-.126-.555-.379-.994-.757-1.318s-.908-.486-1.591-.486c-.833,0-1.505.297-2.017.895-.512.596-.768,1.51-.768,2.74,0,1.01.231,1.827.693,2.455.462.627,1.152.941,2.069.941.844,0,1.487-.33,1.928-.99.234-.348.409-.805.524-1.371h1.137c-.101.906-.433,1.666-.996,2.279-.676.738-1.587,1.107-2.734,1.107-.989,0-1.819-.303-2.491-.909-.884-.802-1.326-2.038-1.326-3.712,0-1.27.332-2.312.996-3.125.718-.883,1.708-1.324,2.971-1.324,1.077,0,1.913.287,2.508.861Z"/>
      <path d="M172.102,195.52h3.722c1.014,0,1.736.301,2.165.902.251.355.377.766.377,1.23,0,.543-.154.988-.463,1.336-.16.184-.391.352-.691.504.441.168.771.357.99.568.387.375.58.893.58,1.553,0,.555-.175,1.057-.525,1.506-.522.672-1.354,1.008-2.494,1.008h-3.661v-8.607ZM175.388,199.158c.497,0,.884-.068,1.16-.205.434-.215.651-.602.651-1.16,0-.562-.231-.941-.693-1.137-.26-.109-.647-.164-1.16-.164h-2.102v2.666h2.144ZM175.782,203.131c.722,0,1.236-.207,1.543-.621.193-.262.29-.578.29-.949,0-.625-.282-1.051-.846-1.277-.3-.121-.696-.182-1.189-.182h-2.336v3.029h2.538Z"/>
      <path d="M181.049,197.852v4.166c0,.32.049.582.148.785.183.375.523.562,1.021.562.715,0,1.202-.328,1.461-.984.141-.352.211-.834.211-1.447v-3.082h1.055v6.275h-.996l.012-.926c-.134.238-.301.439-.5.604-.395.328-.874.492-1.437.492-.878,0-1.476-.299-1.794-.896-.172-.32-.259-.748-.259-1.283v-4.266h1.078Z"/>
      <path d="M187.295,202.158c.032.352.122.621.269.809.271.34.742.51,1.412.51.398,0,.749-.086,1.052-.256s.455-.432.455-.787c0-.27-.121-.475-.363-.615-.155-.086-.46-.186-.917-.299l-.852-.211c-.544-.133-.945-.281-1.203-.445-.46-.285-.691-.68-.691-1.184,0-.594.217-1.074.65-1.441.433-.367,1.016-.551,1.749-.551.958,0,1.649.277,2.072.832.265.352.394.73.386,1.137h-.996c-.02-.237-.106-.453-.258-.647-.248-.275-.678-.413-1.29-.413-.408,0-.717.075-.927.227-.21.152-.315.354-.315.602,0,.273.138.49.414.654.159.098.394.184.704.258l.71.17c.772.184,1.29.361,1.552.533.41.27.615.693.615,1.271,0,.559-.215,1.041-.644,1.447-.429.406-1.083.609-1.961.609-.945,0-1.614-.213-2.008-.637s-.604-.947-.632-1.572h1.014Z"/>
    </g>
    <g>
      <path d="M157.55,240.146c.594.574.925,1.227.99,1.957h-1.137c-.126-.555-.379-.994-.757-1.318s-.908-.486-1.591-.486c-.833,0-1.505.297-2.017.895-.512.596-.768,1.51-.768,2.74,0,1.01.231,1.827.693,2.455.462.627,1.152.941,2.069.941.844,0,1.487-.33,1.928-.99.234-.348.409-.805.524-1.371h1.137c-.101.906-.433,1.666-.996,2.279-.676.738-1.587,1.107-2.734,1.107-.989,0-1.819-.303-2.491-.909-.884-.802-1.326-2.038-1.326-3.712,0-1.27.332-2.312.996-3.125.718-.883,1.708-1.324,2.971-1.324,1.077,0,1.913.287,2.508.861Z"/>
      <path d="M166.216,240.146c.594.574.925,1.227.99,1.957h-1.137c-.126-.555-.379-.994-.757-1.318s-.908-.486-1.591-.486c-.833,0-1.505.297-2.017.895-.512.596-.768,1.51-.768,2.74,0,1.01.231,1.827.693,2.455.462.627,1.152.941,2.069.941.844,0,1.487-.33,1.928-.99.234-.348.409-.805.524-1.371h1.137c-.101.906-.433,1.666-.996,2.279-.676.738-1.587,1.107-2.734,1.107-.989,0-1.819-.303-2.491-.909-.884-.802-1.326-2.038-1.326-3.712,0-1.27.332-2.312.996-3.125.718-.883,1.708-1.324,2.971-1.324,1.077,0,1.913.287,2.508.861Z"/>
      <path d="M168.765,239.52h3.722c1.014,0,1.736.301,2.165.902.251.355.377.766.377,1.23,0,.543-.154.988-.463,1.336-.16.184-.391.352-.691.504.441.168.771.357.99.568.387.375.58.893.58,1.553,0,.555-.175,1.057-.525,1.506-.522.672-1.354,1.008-2.494,1.008h-3.661v-8.607ZM172.051,243.158c.497,0,.884-.068,1.16-.205.434-.215.651-.602.651-1.16,0-.562-.231-.941-.693-1.137-.26-.109-.647-.164-1.16-.164h-2.102v2.666h2.144ZM172.445,247.131c.722,0,1.236-.207,1.543-.621.193-.262.29-.578.29-.949,0-.625-.282-1.051-.846-1.277-.3-.121-.696-.182-1.189-.182h-2.336v3.029h2.538Z"/>
      <path d="M177.712,241.852v4.166c0,.32.049.582.148.785.183.375.523.562,1.021.562.715,0,1.202-.328,1.461-.984.141-.352.211-.834.211-1.447v-3.082h1.055v6.275h-.996l.012-.926c-.134.238-.301.439-.5.604-.395.328-.874.492-1.437.492-.878,0-1.476-.299-1.794-.896-.172-.32-.259-.748-.259-1.283v-4.266h1.078Z"/>
      <path d="M183.958,246.158c.032.352.122.621.269.809.271.34.742.51,1.412.51.398,0,.749-.086,1.052-.256s.455-.432.455-.787c0-.27-.121-.475-.363-.615-.155-.086-.46-.186-.917-.299l-.852-.211c-.544-.133-.945-.281-1.203-.445-.46-.285-.691-.68-.691-1.184,0-.594.217-1.074.65-1.441.433-.367,1.016-.551,1.749-.551.958,0,1.649.277,2.072.832.265.352.394.73.386,1.137h-.996c-.02-.237-.106-.453-.258-.647-.248-.275-.678-.413-1.29-.413-.408,0-.717.075-.927.227-.21.152-.315.354-.315.602,0,.273.138.49.414.654.159.098.394.184.704.258l.71.17c.772.184,1.29.361,1.552.533.41.27.615.693.615,1.271,0,.559-.215,1.041-.644,1.447-.429.406-1.083.609-1.961.609-.945,0-1.614-.213-2.008-.637s-.604-.947-.632-1.572h1.014Z"/>
    </g>
    <rect class="cls-3" x="33.5" y="185.5" width="74" height="72"/>
    <rect class="cls-3" x="298.5" y="350.5" width="58" height="48"/>
    <g>
      <path d="M318.456,370.52h1.166v7.582h4.318v1.025h-5.484v-8.607Z"/>
      <path d="M325.364,373.186v-.809c.762-.074,1.293-.199,1.594-.373s.525-.584.674-1.232h.832v8.355h-1.125v-5.941h-1.975Z"/>
      <path d="M332.082,371.328c.436-.477,1.046-.719,1.831-.727v-.779h.557v.768c.777.055,1.374.283,1.79.686.416.404.634.938.653,1.6h-1.025c-.027-.297-.107-.553-.24-.768-.246-.395-.639-.602-1.178-.621v2.854c.906.254,1.521.492,1.846.715.527.367.791.91.791,1.629,0,1.039-.338,1.777-1.014,2.215-.375.242-.916.402-1.623.48v1.137h-.557v-1.137c-1.137-.074-1.908-.477-2.314-1.207-.223-.395-.334-.928-.334-1.6h1.037c.031.535.116.926.254,1.172.244.441.696.689,1.357.744v-3.193c-.848-.16-1.474-.428-1.878-.803s-.606-.895-.606-1.559c0-.594.218-1.129.653-1.605ZM332.87,373.771c.258.219.605.371,1.043.457v-2.754c-.516.02-.883.176-1.102.469-.218.293-.328.6-.328.92,0,.387.129.689.387.908ZM335.853,377.785c.133-.234.199-.506.199-.814,0-.488-.18-.859-.539-1.113-.207-.148-.555-.289-1.043-.422v3.082c.668-.031,1.129-.275,1.383-.732Z"/>
    </g>
    <g>
      <path d="M44.52,111.545c-.782,0-1.379-.225-1.791-.673s-.618-1.076-.618-1.882v-2.31c0-.836.203-1.477.609-1.922.406-.446.988-.669,1.746-.669.697,0,1.223.187,1.577.56s.553.947.596,1.723l-.882.091c-.042-.575-.164-.983-.364-1.223-.2-.239-.515-.359-.945-.359-.527,0-.902.137-1.123.409s-.332.733-.332,1.382v2.327c0,.631.118,1.081.354,1.351s.63.404,1.182.404c.503,0,.86-.154,1.073-.462.212-.308.318-.826.318-1.557h-1.545v-.791h2.427v.955c0,.849-.196,1.501-.586,1.959-.391.458-.956.687-1.695.687Z"/>
      <path d="M49.983,109.663l-1.182-4.082.019,5.873h-.791v-7.273h1.146l1.245,4.4,1.237-4.4h1.1v7.273h-.791l.018-5.873-1.182,4.082h-.818Z"/>
      <path d="M54.301,111.454v-7.273h4.373v.791h-3.491v2.128h3.073v.791h-3.073v2.772h3.491v.791h-4.373Z"/>
      <path d="M62.019,109.663l-1.182-4.082.019,5.873h-.791v-7.273h1.146l1.245,4.4,1.237-4.4h1.1v7.273h-.791l.018-5.873-1.182,4.082h-.818Z"/>
    </g>
    <g>
      <path d="M78.465,111.518c-.491,0-.955-.083-1.391-.25-.436-.167-.821-.444-1.154-.832l.518-.637c.26.31.562.541.904.696.343.154.732.231,1.168.231.418,0,.754-.105,1.009-.318.254-.212.381-.503.381-.872,0-.34-.11-.602-.332-.787-.221-.185-.662-.389-1.323-.613-.806-.267-1.361-.55-1.664-.85-.303-.301-.455-.714-.455-1.241,0-.612.195-1.082.586-1.409.391-.327.886-.491,1.486-.491.455,0,.891.085,1.309.255.418.17.782.442,1.091.818l-.491.654c-.255-.31-.55-.542-.887-.7-.336-.157-.677-.236-1.022-.236-.364,0-.652.084-.864.25-.212.167-.318.426-.318.777,0,.321.115.574.345.759.23.186.697.393,1.4.623.77.249,1.297.52,1.582.813.285.294.427.702.427,1.223,0,.686-.228,1.213-.682,1.582-.454.37-.997.555-1.627.555Z"/>
      <path d="M83.983,109.663l-1.182-4.082.019,5.873h-.791v-7.273h1.146l1.245,4.4,1.237-4.4h1.1v7.273h-.791l.018-5.873-1.182,4.082h-.818Z"/>
      <path d="M88.301,111.454v-7.273h4.373v.791h-3.491v2.128h3.073v.791h-3.073v2.772h3.491v.791h-4.373Z"/>
      <path d="M96.019,109.663l-1.182-4.082.019,5.873h-.791v-7.273h1.146l1.245,4.4,1.237-4.4h1.1v7.273h-.791l.018-5.873-1.182,4.082h-.818Z"/>
    </g>
    <rect class="cls-3" x="131.5" y="46" width="74" height="72"/>
    <rect class="cls-3" x="229.5" y="46" width="74" height="72"/>
    <g>
      <path d="M149.425,73.52h1.67l2.475,7.277,2.458-7.277h1.659v8.607h-1.113v-5.08c0-.176.004-.467.012-.873s.012-.842.012-1.307l-2.458,7.26h-1.155l-2.481-7.26v.264c0,.211.006.531.018.963s.018.75.018.953v5.08h-1.113v-8.607Z"/>
      <path d="M160.364,75.852v4.166c0,.32.049.582.148.785.183.375.523.562,1.021.562.715,0,1.202-.328,1.461-.984.141-.352.211-.834.211-1.447v-3.082h1.055v6.275h-.996l.012-.926c-.134.238-.301.439-.5.604-.395.328-.874.492-1.437.492-.878,0-1.476-.299-1.794-.896-.172-.32-.259-.748-.259-1.283v-4.266h1.078Z"/>
      <path d="M170.53,76.478c.555.538.832,1.331.832,2.376,0,1.012-.245,1.847-.733,2.506-.488.66-1.247.99-2.274.99-.857,0-1.538-.292-2.042-.875-.504-.584-.756-1.367-.756-2.352,0-1.053.266-1.893.797-2.518.532-.623,1.245-.936,2.141-.936.803,0,1.482.27,2.037.808ZM169.875,80.648c.257-.529.385-1.117.385-1.766,0-.584-.093-1.061-.278-1.428-.293-.577-.799-.865-1.518-.865-.638,0-1.101.245-1.391.736-.29.492-.435,1.086-.435,1.779,0,.668.145,1.224.435,1.668.29.445.749.668,1.379.668.691,0,1.166-.265,1.422-.793Z"/>
      <path d="M172.657,75.852h1.002v.891c.297-.367.611-.631.943-.791s.701-.24,1.107-.24c.891,0,1.492.311,1.805.932.172.34.258.826.258,1.459v4.025h-1.072v-3.955c0-.383-.057-.691-.17-.926-.188-.391-.527-.586-1.02-.586-.25,0-.455.025-.615.076-.289.086-.543.258-.762.516-.176.207-.29.42-.343.641s-.079.537-.079.947v3.287h-1.055v-6.275Z"/>
      <path d="M183.04,76.186v-.809c.762-.074,1.293-.199,1.594-.373s.525-.584.674-1.232h.832v8.355h-1.125v-5.941h-1.975Z"/>
    </g>
    <g>
      <path d="M249.193,56.766c.843.449,1.359,1.236,1.548,2.361h-1.154c-.138-.629-.423-1.088-.855-1.375s-.978-.43-1.635-.43c-.78,0-1.438.299-1.971.896s-.8,1.488-.8,2.672c0,1.023.22,1.855.66,2.498.44.643,1.158.965,2.153.965.762,0,1.393-.227,1.892-.678s.755-1.18.767-2.188h-2.695v-.967h3.779v4.605h-.75l-.281-1.107c-.388.434-.732.734-1.032.902-.503.289-1.143.434-1.919.434-1.003,0-1.866-.33-2.588-.99-.788-.828-1.182-1.965-1.182-3.41s.385-2.588,1.155-3.439c.731-.812,1.679-1.219,2.841-1.219.797,0,1.486.156,2.067.469Z"/>
      <path d="M256.533,59.023c.416.209.732.48.949.812.21.316.35.686.419,1.107.062.289.093.75.093,1.383h-4.564c.02.639.168,1.15.448,1.536.279.386.711.579,1.296.579.546,0,.982-.184,1.308-.548.182-.212.311-.457.387-.735h1.037c-.027.23-.118.486-.272.77s-.327.516-.517.695c-.318.312-.711.523-1.18.633-.252.062-.537.094-.855.094-.776,0-1.434-.285-1.974-.854-.54-.568-.81-1.363-.81-2.387,0-1.008.271-1.826.815-2.455.543-.629,1.254-.943,2.131-.943.442,0,.872.104,1.287.312ZM256.911,61.488c-.042-.457-.142-.822-.296-1.096-.287-.508-.765-.762-1.435-.762-.48,0-.883.174-1.208.523s-.498.795-.517,1.334h3.457Z"/>
      <path d="M259.331,58.852h1.043v.891c.25-.309.477-.533.68-.674.348-.238.742-.357,1.184-.357.5,0,.902.123,1.207.369.172.141.328.348.469.621.234-.336.51-.586.826-.748s.672-.242,1.066-.242c.844,0,1.418.305,1.723.914.164.328.246.77.246,1.324v4.178h-1.096v-4.359c0-.418-.104-.705-.313-.861s-.464-.234-.765-.234c-.414,0-.771.139-1.069.416s-.448.74-.448,1.389v3.65h-1.072v-4.096c0-.426-.051-.736-.152-.932-.16-.293-.459-.439-.896-.439-.398,0-.761.154-1.087.463s-.489.867-.489,1.676v3.328h-1.055v-6.275Z"/>
      <path d="M269.327,58.852h1.043v.891c.25-.309.477-.533.68-.674.348-.238.742-.357,1.184-.357.5,0,.902.123,1.207.369.172.141.328.348.469.621.234-.336.51-.586.826-.748s.672-.242,1.066-.242c.844,0,1.418.305,1.723.914.164.328.246.77.246,1.324v4.178h-1.096v-4.359c0-.418-.104-.705-.313-.861s-.464-.234-.765-.234c-.414,0-.771.139-1.069.416s-.448.74-.448,1.389v3.65h-1.072v-4.096c0-.426-.051-.736-.152-.932-.16-.293-.459-.439-.896-.439-.398,0-.761.154-1.087.463s-.489.867-.489,1.676v3.328h-1.055v-6.275Z"/>
      <path d="M279.323,56.52h1.072v1.195h-1.072v-1.195ZM279.323,58.881h1.072v6.246h-1.072v-6.246Z"/>
      <path d="M281.989,58.852h1.002v.891c.297-.367.611-.631.943-.791s.701-.24,1.107-.24c.891,0,1.492.311,1.805.932.172.34.258.826.258,1.459v4.025h-1.072v-3.955c0-.383-.057-.691-.17-.926-.188-.391-.527-.586-1.02-.586-.25,0-.455.025-.615.076-.289.086-.543.258-.762.516-.176.207-.29.42-.343.641s-.079.537-.079.947v3.287h-1.055v-6.275Z"/>
      <path d="M288.663,56.52h1.072v1.195h-1.072v-1.195ZM288.663,58.881h1.072v6.246h-1.072v-6.246Z"/>
    </g>
    <g>
      <path d="M253.22,94.35c.026.488.137.885.333,1.189.373.57,1.029.855,1.97.855.421,0,.805-.062,1.151-.188.67-.242,1.005-.676,1.005-1.301,0-.469-.142-.803-.426-1.002-.288-.195-.738-.365-1.351-.51l-1.129-.264c-.738-.172-1.26-.361-1.566-.568-.53-.359-.795-.896-.795-1.611,0-.773.26-1.408.781-1.904.521-.496,1.258-.744,2.212-.744.878,0,1.624.217,2.238.652s.921,1.133.921,2.09h-1.096c-.056-.461-.176-.814-.359-1.061-.341-.449-.919-.674-1.736-.674-.659,0-1.133.145-1.421.434-.289.289-.433.625-.433,1.008,0,.422.17.73.511.926.224.125.729.281,1.516.469l1.169.275c.564.133.999.314,1.306.545.53.402.795.986.795,1.752,0,.953-.338,1.635-1.014,2.045s-1.462.615-2.357.615c-1.044,0-1.861-.273-2.451-.82-.591-.543-.88-1.279-.869-2.209h1.096Z"/>
      <path d="M264.467,91.186c.443.344.71.936.8,1.775h-1.025c-.062-.387-.205-.709-.428-.965s-.58-.383-1.072-.383c-.672,0-1.152.327-1.441.982-.188.426-.281.95-.281,1.574,0,.629.133,1.157.398,1.586.266.43.684.645,1.254.645.438,0,.784-.134,1.04-.4s.433-.631.53-1.094h1.025c-.117.832-.41,1.439-.879,1.824s-1.068.578-1.799.578c-.82,0-1.475-.301-1.963-.9s-.732-1.348-.732-2.246c0-1.102.268-1.959.803-2.572s1.217-.92,2.045-.92c.707,0,1.282.172,1.726.516Z"/>
      <path d="M269.685,93.328c.242-.031.404-.132.486-.304.047-.095.07-.229.07-.405,0-.361-.128-.623-.383-.785-.255-.163-.621-.244-1.097-.244-.55,0-.939.148-1.169.447-.129.164-.212.41-.251.736h-.984c.02-.775.27-1.316.752-1.619.482-.304,1.041-.455,1.677-.455.737,0,1.336.141,1.797.422.457.281.685.719.685,1.312v3.615c0,.109.022.197.067.264s.14.1.284.1c.047,0,.1-.004.158-.01s.121-.014.188-.025v.779c-.164.047-.289.076-.375.088s-.203.018-.352.018c-.363,0-.627-.129-.791-.387-.086-.137-.146-.33-.182-.58-.215.281-.523.525-.926.732s-.846.311-1.33.311c-.582,0-1.058-.178-1.427-.53s-.554-.795-.554-1.325c0-.582.182-1.032.545-1.352.363-.32.84-.518,1.43-.592l1.682-.211ZM267.464,96.178c.223.176.486.264.791.264.371,0,.73-.086,1.078-.258.586-.285.879-.751.879-1.398v-.848c-.129.082-.294.15-.497.205s-.401.094-.597.117l-.637.082c-.382.051-.669.131-.862.24-.326.184-.489.476-.489.877,0,.304.111.543.334.719Z"/>
      <path d="M273.024,88.52h1.055v8.607h-1.055v-8.607Z"/>
      <path d="M279.537,91.023c.416.209.732.48.949.812.21.316.35.686.419,1.107.062.289.093.75.093,1.383h-4.564c.02.639.168,1.15.448,1.536.279.386.711.579,1.296.579.546,0,.982-.184,1.308-.548.182-.212.311-.457.387-.735h1.037c-.027.23-.118.486-.272.77s-.327.516-.517.695c-.318.312-.711.523-1.18.633-.252.062-.537.094-.855.094-.776,0-1.434-.285-1.974-.854-.54-.568-.81-1.363-.81-2.387,0-1.008.271-1.826.815-2.455.543-.629,1.254-.943,2.131-.943.442,0,.872.104,1.287.312ZM279.915,93.488c-.042-.457-.142-.822-.296-1.096-.287-.508-.765-.762-1.435-.762-.48,0-.883.174-1.208.523s-.498.795-.517,1.334h3.457Z"/>
    </g>
    <rect class="cls-3" x="350.5" y="46.5" width="48" height="72"/>
    <g>
      <path d="M370.285,79.363l-.953,4.434c-.016.066-.026.123-.032.172s-.009.104-.009.162c0,.189.036.339.11.449.135.201.391.303.766.303.561,0,1.035-.209,1.424-.625s.644-.904.764-1.463l.732-3.432h1.073l-1.332,6.264h-1.014l.244-1.052c-.085.171-.267.376-.544.613-.476.401-1.002.603-1.581.603-.182,0-.366-.033-.556-.1s-.328-.143-.417-.229l-.563,2.637h-1.079l1.887-8.736h1.08Z"/>
      <path d="M380.274,78.578c.375.691.562,1.639.562,2.842,0,1.141-.17,2.084-.51,2.83-.492,1.07-1.297,1.605-2.414,1.605-1.008,0-1.758-.438-2.25-1.312-.41-.73-.615-1.711-.615-2.941,0-.953.123-1.771.369-2.455.461-1.273,1.295-1.91,2.502-1.91,1.086,0,1.871.447,2.355,1.342ZM379.213,84.168c.325-.484.487-1.387.487-2.707,0-.953-.117-1.738-.352-2.354-.235-.615-.691-.922-1.368-.922-.622,0-1.077.291-1.364.875-.288.584-.432,1.445-.432,2.582,0,.855.092,1.543.276,2.062.281.793.763,1.189,1.443,1.189.548,0,.984-.242,1.309-.727Z"/>
    </g>
    <rect class="cls-3" x="407.5" y="46.5" width="48" height="72"/>
    <g>
      <path d="M427.285,79.363l-.953,4.434c-.016.066-.026.123-.032.172s-.009.104-.009.162c0,.189.036.339.11.449.135.201.391.303.766.303.561,0,1.035-.209,1.424-.625s.644-.904.764-1.463l.732-3.432h1.073l-1.332,6.264h-1.014l.244-1.052c-.085.171-.267.376-.544.613-.476.401-1.002.603-1.581.603-.182,0-.366-.033-.556-.1s-.328-.143-.417-.229l-.563,2.637h-1.079l1.887-8.736h1.08Z"/>
      <path d="M432.821,79.686v-.809c.762-.074,1.293-.199,1.594-.373s.525-.584.674-1.232h.832v8.355h-1.125v-5.941h-1.975Z"/>
    </g>
    <rect class="cls-3" x="464.5" y="46.5" width="48" height="72"/>
    <path d="M490.529,77.266c.844.449,1.359,1.236,1.548,2.361h-1.154c-.138-.629-.423-1.088-.854-1.375-.433-.287-.978-.43-1.636-.43-.78,0-1.438.299-1.971.896-.534.598-.801,1.488-.801,2.672,0,1.023.221,1.855.66,2.498.44.643,1.158.965,2.153.965.762,0,1.393-.227,1.893-.678.499-.451.755-1.18.767-2.188h-2.695v-.967h3.779v4.605h-.75l-.281-1.107c-.388.434-.731.734-1.031.902-.504.289-1.144.434-1.92.434-1.003,0-1.865-.33-2.588-.99-.787-.828-1.182-1.965-1.182-3.41s.385-2.588,1.155-3.439c.731-.812,1.679-1.219,2.841-1.219.797,0,1.486.156,2.067.469Z"/>
    <rect class="cls-3" x="229.5" y="141.5" width="74" height="116"/>
    <g>
      <path d="M250.229,201.35c.026.488.137.885.333,1.189.373.57,1.029.855,1.97.855.421,0,.805-.062,1.151-.188.67-.242,1.005-.676,1.005-1.301,0-.469-.142-.803-.426-1.002-.288-.195-.738-.365-1.351-.51l-1.129-.264c-.738-.172-1.26-.361-1.566-.568-.53-.359-.795-.896-.795-1.611,0-.773.26-1.408.781-1.904.521-.496,1.258-.744,2.212-.744.878,0,1.624.217,2.238.652s.921,1.133.921,2.09h-1.096c-.056-.461-.176-.814-.359-1.061-.341-.449-.919-.674-1.736-.674-.659,0-1.133.145-1.421.434-.289.289-.433.625-.433,1.008,0,.422.17.73.511.926.224.125.729.281,1.516.469l1.169.275c.564.133.999.314,1.306.545.53.402.795.986.795,1.752,0,.953-.338,1.635-1.014,2.045s-1.462.615-2.357.615c-1.044,0-1.861-.273-2.451-.82-.591-.543-.88-1.279-.869-2.209h1.096Z"/>
      <path d="M257.441,195.52h1.67l2.475,7.277,2.458-7.277h1.659v8.607h-1.113v-5.08c0-.176.004-.467.012-.873s.012-.842.012-1.307l-2.458,7.26h-1.155l-2.481-7.26v.264c0,.211.006.531.018.963s.018.75.018.953v5.08h-1.113v-8.607Z"/>
      <path d="M267.578,195.52h6.246v1.055h-5.109v2.613h4.723v.996h-4.723v2.918h5.197v1.025h-6.334v-8.607Z"/>
      <path d="M275.441,195.52h1.67l2.475,7.277,2.458-7.277h1.659v8.607h-1.113v-5.08c0-.176.004-.467.012-.873s.012-.842.012-1.307l-2.458,7.26h-1.155l-2.481-7.26v.264c0,.211.006.531.018.963s.018.75.018.953v5.08h-1.113v-8.607Z"/>
    </g>
    <g>
      <path d="M142.52,111.545c-.782,0-1.379-.225-1.791-.673s-.618-1.076-.618-1.882v-2.31c0-.836.203-1.477.609-1.922.406-.446.988-.669,1.746-.669.697,0,1.223.187,1.577.56s.553.947.596,1.723l-.882.091c-.042-.575-.164-.983-.364-1.223-.2-.239-.515-.359-.945-.359-.527,0-.902.137-1.123.409s-.332.733-.332,1.382v2.327c0,.631.118,1.081.354,1.351s.63.404,1.182.404c.503,0,.86-.154,1.073-.462.212-.308.318-.826.318-1.557h-1.545v-.791h2.427v.955c0,.849-.196,1.501-.586,1.959-.391.458-.956.687-1.695.687Z"/>
      <path d="M147.983,109.663l-1.182-4.082.019,5.873h-.791v-7.273h1.146l1.245,4.4,1.237-4.4h1.1v7.273h-.791l.018-5.873-1.182,4.082h-.818Z"/>
      <path d="M152.301,111.454v-7.273h4.373v.791h-3.491v2.128h3.073v.791h-3.073v2.772h3.491v.791h-4.373Z"/>
      <path d="M160.019,109.663l-1.182-4.082.019,5.873h-.791v-7.273h1.146l1.245,4.4,1.237-4.4h1.1v7.273h-.791l.018-5.873-1.182,4.082h-.818Z"/>
    </g>
    <g>
      <path d="M176.465,111.518c-.491,0-.955-.083-1.391-.25-.436-.167-.821-.444-1.154-.832l.518-.637c.26.31.562.541.904.696.343.154.732.231,1.168.231.418,0,.754-.105,1.009-.318.254-.212.381-.503.381-.872,0-.34-.11-.602-.332-.787-.221-.185-.662-.389-1.323-.613-.806-.267-1.361-.55-1.664-.85-.303-.301-.455-.714-.455-1.241,0-.612.195-1.082.586-1.409.391-.327.886-.491,1.486-.491.455,0,.891.085,1.309.255.418.17.782.442,1.091.818l-.491.654c-.255-.31-.55-.542-.887-.7-.336-.157-.677-.236-1.022-.236-.364,0-.652.084-.864.25-.212.167-.318.426-.318.777,0,.321.115.574.345.759.23.186.697.393,1.4.623.77.249,1.297.52,1.582.813.285.294.427.702.427,1.223,0,.686-.228,1.213-.682,1.582-.454.37-.997.555-1.627.555Z"/>
      <path d="M181.983,109.663l-1.182-4.082.019,5.873h-.791v-7.273h1.146l1.245,4.4,1.237-4.4h1.1v7.273h-.791l.018-5.873-1.182,4.082h-.818Z"/>
      <path d="M186.301,111.454v-7.273h4.373v.791h-3.491v2.128h3.073v.791h-3.073v2.772h3.491v.791h-4.373Z"/>
      <path d="M194.019,109.663l-1.182-4.082.019,5.873h-.791v-7.273h1.146l1.245,4.4,1.237-4.4h1.1v7.273h-.791l.018-5.873-1.182,4.082h-.818Z"/>
    </g>
    <g>
      <path d="M241.374,180.454l-.963-4.364-.955,4.364h-.873l-.9-7.273h.864l.582,5.919.855-4.101h.891l.854,4.101.591-5.919h.818l-.9,7.273h-.864Z"/>
      <path d="M244.328,180.454v-.791h1.664v-3.873h-1.664v-.791h2.545v4.664h1.654v.791h-4.2ZM246.437,173.99c-.218,0-.394-.036-.527-.109-.133-.072-.2-.206-.2-.399v-.063c0-.2.066-.338.2-.414s.309-.113.527-.113.394.037.527.113.2.214.2.414v.063c0,.193-.068.327-.205.399-.136.073-.311.109-.523.109Z"/>
      <path d="M253.419,179.608c-.133.297-.329.527-.586.69-.258.164-.55.246-.877.246-.509,0-.904-.179-1.186-.536-.282-.358-.423-.854-.423-1.491v-1.591c0-.637.188-1.132.563-1.486s.903-.532,1.582-.532c.194,0,.392.022.595.068s.398.107.586.187v-1.982h.873v7.273h-.873v-.846h-.254ZM252.201,179.708c.279,0,.538-.075.777-.227.239-.151.471-.382.695-.691v-2.754c-.17-.122-.35-.211-.541-.269s-.396-.087-.613-.087c-.443,0-.77.104-.982.31-.212.206-.318.524-.318.954v1.592c0,.399.082.695.246.886.164.191.409.286.736.286Z"/>
      <path d="M260.591,179.263c-.151.449-.383.774-.695.978s-.786.305-1.423.305c-.661,0-1.177-.17-1.55-.509-.373-.34-.559-.84-.559-1.5v-1.592c0-.679.195-1.188.586-1.526.391-.34.898-.51,1.522-.51.63,0,1.137.173,1.518.519.382.346.573.876.573,1.591v.882h-3.327v.637c0,.448.102.77.305.963.203.194.514.291.932.291.394,0,.68-.062.859-.187.179-.124.316-.322.414-.595l.845.254ZM257.237,176.954v.272h2.455v-.19c0-.479-.103-.828-.309-1.046s-.512-.327-.918-.327-.712.106-.918.318-.309.536-.309.973Z"/>
    </g>
    <g>
      <path d="M240.501,224.518c-.491,0-.955-.083-1.391-.25-.436-.166-.821-.443-1.154-.832l.518-.637c.26.311.562.541.904.696.343.154.732.231,1.168.231.418,0,.754-.105,1.009-.318.254-.211.381-.502.381-.872,0-.339-.11-.602-.332-.786-.221-.186-.662-.39-1.323-.614-.806-.267-1.361-.55-1.664-.85-.303-.3-.455-.714-.455-1.241,0-.611.195-1.082.586-1.409.391-.327.886-.491,1.486-.491.455,0,.891.086,1.309.255.418.17.782.442,1.091.818l-.491.654c-.255-.31-.55-.542-.887-.7-.336-.157-.677-.236-1.022-.236-.364,0-.652.084-.864.25-.212.167-.318.426-.318.777,0,.322.115.574.345.76.23.185.697.393,1.4.623.77.248,1.297.52,1.582.812.285.295.427.702.427,1.223,0,.686-.228,1.213-.682,1.582-.454.37-.997.555-1.627.555Z"/>
      <path d="M244.328,224.454v-.791h1.664v-3.872h-1.664v-.791h2.545v4.663h1.654v.791h-4.2ZM246.437,217.99c-.218,0-.394-.036-.527-.109-.133-.072-.2-.205-.2-.399v-.063c0-.2.066-.338.2-.414s.309-.113.527-.113.394.037.527.113.2.214.2.414v.063c0,.194-.068.327-.205.399-.136.073-.311.109-.523.109Z"/>
      <path d="M250.346,224.454v-5.454h.873v.846h.254c.133-.291.332-.521.596-.688.264-.166.559-.25.886-.25.491,0,.879.162,1.164.486.285.324.427.769.427,1.332v3.728h-.873v-3.555c0-.382-.083-.669-.25-.863s-.404-.291-.713-.291c-.255,0-.509.077-.764.231-.255.154-.497.381-.728.678v3.8h-.873Z"/>
      <path d="M260.973,224.899c0,.491-.165.858-.495,1.101-.331.242-.738.363-1.223.363h-1.563c-.509,0-.926-.107-1.25-.323s-.486-.554-.486-1.016c0-.292.073-.523.218-.696.146-.174.352-.271.618-.297v-.19c-.194-.036-.354-.124-.482-.263s-.191-.352-.191-.641c0-.26.077-.491.232-.695.154-.205.408-.323.759-.354v-.172c-.267-.097-.45-.246-.55-.446s-.15-.39-.15-.565v-.256c0-.419.164-.766.491-1.039.328-.273.791-.41,1.391-.41h2.491v.809l-1.3-.219v.174c.218.066.386.193.504.381.118.188.177.377.177.564v.245c0,.418-.151.757-.455,1.014-.303.258-.782.386-1.436.386h-.991c-.151,0-.267.041-.345.123-.079.082-.118.223-.118.423,0,.188.054.329.164.423.109.094.27.141.482.141h1.873c.473,0,.864.112,1.173.336.309.225.463.592.463,1.101ZM257.673,225.645h1.682c.242,0,.441-.053.596-.158.154-.106.231-.29.231-.551,0-.242-.068-.416-.204-.522-.137-.106-.317-.159-.541-.159h-2.609v.627c0,.255.071.445.214.573.142.128.353.19.632.19ZM258.3,221.682c.333,0,.586-.067.759-.201s.259-.35.259-.648v-.283c0-.292-.086-.504-.259-.635s-.426-.196-.759-.196-.586.065-.759.196-.259.343-.259.635v.283c0,.299.086.515.259.648s.426.201.759.201Z"/>
      <path d="M262.391,224.454v-.791h1.664v-5.69h-1.664v-.791h2.546v6.481h1.654v.791h-4.2Z"/>
      <path d="M272.627,223.264c-.151.448-.383.773-.695.977s-.786.305-1.423.305c-.661,0-1.177-.17-1.55-.509-.373-.339-.559-.839-.559-1.5v-1.591c0-.68.195-1.188.586-1.527.391-.34.898-.51,1.522-.51.63,0,1.137.174,1.518.519.382.346.573.876.573,1.591v.882h-3.327v.637c0,.448.102.77.305.964.203.193.514.291.932.291.394,0,.68-.062.859-.188.179-.123.316-.322.414-.595l.845.255ZM269.273,220.954v.272h2.455v-.19c0-.479-.103-.827-.309-1.046-.206-.218-.512-.327-.918-.327s-.712.106-.918.318-.309.536-.309.973Z"/>
    </g>
    <line class="cls-3" x1="139" y1="147.5" x2="198" y2="163.5"/>
    <line class="cls-3" x1="198" y1="147.5" x2="139" y2="163.5"/>
    <g>
      <path d="M127.888,310.35c.026.488.137.885.333,1.189.373.57,1.029.855,1.97.855.421,0,.805-.062,1.151-.188.67-.242,1.005-.676,1.005-1.301,0-.469-.142-.803-.426-1.002-.288-.195-.738-.365-1.351-.51l-1.129-.264c-.738-.172-1.26-.361-1.566-.568-.53-.359-.795-.896-.795-1.611,0-.773.26-1.408.781-1.904.521-.496,1.258-.744,2.212-.744.878,0,1.624.217,2.238.652s.921,1.133.921,2.09h-1.096c-.056-.461-.176-.814-.359-1.061-.341-.449-.919-.674-1.736-.674-.659,0-1.133.145-1.421.434-.289.289-.433.625-.433,1.008,0,.422.17.73.511.926.224.125.729.281,1.516.469l1.169.275c.564.133.999.314,1.306.545.53.402.795.986.795,1.752,0,.953-.338,1.635-1.014,2.045s-1.462.615-2.357.615c-1.044,0-1.861-.273-2.451-.82-.591-.543-.88-1.279-.869-2.209h1.096Z"/>
      <path d="M135.101,304.52h3.722c1.014,0,1.736.301,2.165.902.251.355.377.766.377,1.23,0,.543-.154.988-.463,1.336-.16.184-.391.352-.691.504.441.168.771.357.99.568.387.375.58.893.58,1.553,0,.555-.175,1.057-.525,1.506-.522.672-1.354,1.008-2.494,1.008h-3.661v-8.607ZM138.387,308.158c.497,0,.884-.068,1.16-.205.434-.215.651-.602.651-1.16,0-.562-.231-.941-.693-1.137-.26-.109-.647-.164-1.16-.164h-2.102v2.666h2.144ZM138.781,312.131c.722,0,1.236-.207,1.543-.621.193-.262.29-.578.29-.949,0-.625-.282-1.051-.846-1.277-.3-.121-.696-.182-1.189-.182h-2.336v3.029h2.538Z"/>
      <path d="M144.048,306.852v4.166c0,.32.049.582.148.785.183.375.523.562,1.021.562.715,0,1.202-.328,1.461-.984.141-.352.211-.834.211-1.447v-3.082h1.055v6.275h-.996l.012-.926c-.134.238-.301.439-.5.604-.395.328-.874.492-1.437.492-.878,0-1.476-.299-1.794-.896-.172-.32-.259-.748-.259-1.283v-4.266h1.078Z"/>
      <path d="M150.294,311.158c.032.352.122.621.269.809.271.34.742.51,1.412.51.398,0,.749-.086,1.052-.256s.455-.432.455-.787c0-.27-.121-.475-.363-.615-.155-.086-.46-.186-.917-.299l-.852-.211c-.544-.133-.945-.281-1.203-.445-.46-.285-.691-.68-.691-1.184,0-.594.217-1.074.65-1.441.433-.367,1.016-.551,1.749-.551.958,0,1.649.277,2.072.832.265.352.394.73.386,1.137h-.996c-.02-.237-.106-.453-.258-.647-.248-.275-.678-.413-1.29-.413-.408,0-.717.075-.927.227-.21.152-.315.354-.315.602,0,.273.138.49.414.654.159.098.394.184.704.258l.71.17c.772.184,1.29.361,1.552.533.41.27.615.693.615,1.271,0,.559-.215,1.041-.644,1.447-.429.406-1.083.609-1.961.609-.945,0-1.614-.213-2.008-.637s-.604-.947-.632-1.572h1.014Z"/>
    </g>
    <rect class="cls-3" x="21.5" y="294.5" width="238" height="28"/>
    <g>
      <path d="M114.531,349.146c.594.574.925,1.227.99,1.957h-1.137c-.126-.555-.379-.994-.757-1.318s-.908-.486-1.591-.486c-.833,0-1.505.297-2.017.895-.512.596-.768,1.51-.768,2.74,0,1.01.231,1.827.693,2.455.462.627,1.152.941,2.069.941.844,0,1.487-.33,1.928-.99.234-.348.409-.805.524-1.371h1.137c-.101.906-.433,1.666-.996,2.279-.676.738-1.587,1.107-2.734,1.107-.989,0-1.819-.303-2.491-.909-.884-.802-1.326-2.038-1.326-3.712,0-1.27.332-2.312.996-3.125.718-.883,1.708-1.324,2.971-1.324,1.077,0,1.913.287,2.508.861Z"/>
      <path d="M121.516,351.478c.555.538.832,1.331.832,2.376,0,1.012-.245,1.847-.733,2.506-.488.66-1.247.99-2.274.99-.857,0-1.538-.292-2.042-.875-.504-.584-.756-1.367-.756-2.352,0-1.053.266-1.893.797-2.518.532-.623,1.245-.936,2.141-.936.803,0,1.482.27,2.037.808ZM120.861,355.648c.257-.529.385-1.117.385-1.766,0-.584-.093-1.061-.278-1.428-.293-.577-.799-.865-1.518-.865-.638,0-1.101.245-1.391.736-.29.492-.435,1.086-.435,1.779,0,.668.145,1.224.435,1.668.29.445.749.668,1.379.668.691,0,1.166-.265,1.422-.793Z"/>
      <path d="M123.643,348.49h1.055v3.211c.25-.316.475-.539.674-.668.34-.223.764-.334,1.271-.334.91,0,1.527.318,1.852.955.176.348.264.83.264,1.447v4.025h-1.084v-3.955c0-.461-.059-.799-.176-1.014-.191-.344-.551-.516-1.078-.516-.438,0-.834.15-1.189.451s-.533.869-.533,1.705v3.328h-1.055v-8.637Z"/>
      <path d="M134.192,351.023c.416.209.732.48.949.812.21.316.35.686.419,1.107.062.289.093.75.093,1.383h-4.564c.02.639.168,1.15.448,1.536.279.386.711.579,1.296.579.546,0,.982-.184,1.308-.548.182-.212.311-.457.387-.735h1.037c-.027.23-.118.486-.272.77s-.327.516-.517.695c-.318.312-.711.523-1.18.633-.252.062-.537.094-.855.094-.776,0-1.434-.285-1.974-.854-.54-.568-.81-1.363-.81-2.387,0-1.008.271-1.826.815-2.455.543-.629,1.254-.943,2.131-.943.442,0,.872.104,1.287.312ZM134.57,353.488c-.042-.457-.142-.822-.296-1.096-.287-.508-.765-.762-1.435-.762-.48,0-.883.174-1.208.523s-.498.795-.517,1.334h3.457Z"/>
      <path d="M137.02,350.852h1.002v1.084c.082-.211.283-.469.604-.771s.689-.453,1.107-.453c.02,0,.053.002.1.006s.127.012.24.023v1.113c-.062-.012-.12-.02-.173-.023s-.11-.006-.173-.006c-.531,0-.939.17-1.225.512s-.428.736-.428,1.182v3.609h-1.055v-6.275Z"/>
      <path d="M144.862,351.023c.416.209.732.48.949.812.21.316.35.686.419,1.107.062.289.093.75.093,1.383h-4.564c.02.639.168,1.15.448,1.536.279.386.711.579,1.296.579.546,0,.982-.184,1.308-.548.182-.212.311-.457.387-.735h1.037c-.027.23-.118.486-.272.77s-.327.516-.517.695c-.318.312-.711.523-1.18.633-.252.062-.537.094-.855.094-.776,0-1.434-.285-1.974-.854-.54-.568-.81-1.363-.81-2.387,0-1.008.271-1.826.815-2.455.543-.629,1.254-.943,2.131-.943.442,0,.872.104,1.287.312ZM145.24,353.488c-.042-.457-.142-.822-.296-1.096-.287-.508-.765-.762-1.435-.762-.48,0-.883.174-1.208.523s-.498.795-.517,1.334h3.457Z"/>
      <path d="M147.66,350.852h1.002v.891c.297-.367.611-.631.943-.791s.701-.24,1.107-.24c.891,0,1.492.311,1.805.932.172.34.258.826.258,1.459v4.025h-1.072v-3.955c0-.383-.057-.691-.17-.926-.188-.391-.527-.586-1.02-.586-.25,0-.455.025-.615.076-.289.086-.543.258-.762.516-.176.207-.29.42-.343.641s-.079.537-.079.947v3.287h-1.055v-6.275Z"/>
      <path d="M154.545,349.1h1.066v1.752h1.002v.861h-1.002v4.096c0,.219.074.365.223.439.082.043.219.064.41.064.051,0,.105-.002.164-.004.059-.003.127-.01.205-.02v.838c-.121.035-.247.061-.378.076s-.272.023-.425.023c-.492,0-.826-.127-1.002-.379s-.264-.578-.264-.98v-4.154h-.85v-.861h.85v-1.752Z"/>
      <path d="M161.143,348.52h1.166v7.582h4.318v1.025h-5.484v-8.607Z"/>
      <path d="M167.726,355.24c.26-.535.767-1.021,1.521-1.459l1.125-.65c.504-.293.857-.543,1.061-.751.32-.325.48-.696.48-1.116,0-.488-.146-.877-.439-1.164-.293-.288-.684-.432-1.172-.432-.723,0-1.223.273-1.5.822-.148.294-.23.701-.246,1.223h-1.072c.012-.73.146-1.326.404-1.787.457-.812,1.264-1.219,2.42-1.219.961,0,1.663.26,2.106.779s.665,1.098.665,1.734c0,.672-.236,1.246-.709,1.723-.273.277-.764.613-1.471,1.008l-.803.445c-.383.211-.684.412-.902.604-.391.34-.637.717-.738,1.131h4.582v.996h-5.76c.039-.723.188-1.352.448-1.887Z"/>
    </g>
    <rect class="cls-3" x="21.5" y="338.5" width="238" height="28"/>
    <g>
      <path d="M125.101,392.52h1.67l2.475,7.277,2.458-7.277h1.659v8.607h-1.113v-5.08c0-.176.004-.467.012-.873s.012-.842.012-1.307l-2.458,7.26h-1.155l-2.481-7.26v.264c0,.211.006.531.018.963s.018.75.018.953v5.08h-1.113v-8.607Z"/>
      <path d="M135.097,392.52h3.722c1.014,0,1.736.301,2.165.902.251.355.377.766.377,1.23,0,.543-.154.988-.463,1.336-.16.184-.391.352-.691.504.441.168.771.357.99.568.387.375.58.893.58,1.553,0,.555-.175,1.057-.525,1.506-.522.672-1.354,1.008-2.494,1.008h-3.661v-8.607ZM138.383,396.158c.497,0,.884-.068,1.16-.205.434-.215.651-.602.651-1.16,0-.562-.231-.941-.693-1.137-.26-.109-.647-.164-1.16-.164h-2.102v2.666h2.144ZM138.777,400.131c.722,0,1.236-.207,1.543-.621.193-.262.29-.578.29-.949,0-.625-.282-1.051-.846-1.277-.3-.121-.696-.182-1.189-.182h-2.336v3.029h2.538Z"/>
      <path d="M144.044,394.852v4.166c0,.32.049.582.148.785.183.375.523.562,1.021.562.715,0,1.202-.328,1.461-.984.141-.352.211-.834.211-1.447v-3.082h1.055v6.275h-.996l.012-.926c-.134.238-.301.439-.5.604-.395.328-.874.492-1.437.492-.878,0-1.476-.299-1.794-.896-.172-.32-.259-.748-.259-1.283v-4.266h1.078Z"/>
      <path d="M150.29,399.158c.032.352.122.621.269.809.271.34.742.51,1.412.51.398,0,.749-.086,1.052-.256s.455-.432.455-.787c0-.27-.121-.475-.363-.615-.155-.086-.46-.186-.917-.299l-.852-.211c-.544-.133-.945-.281-1.203-.445-.46-.285-.691-.68-.691-1.184,0-.594.217-1.074.65-1.441.433-.367,1.016-.551,1.749-.551.958,0,1.649.277,2.072.832.265.352.394.73.386,1.137h-.996c-.02-.237-.106-.453-.258-.647-.248-.275-.678-.413-1.29-.413-.408,0-.717.075-.927.227-.21.152-.315.354-.315.602,0,.273.138.49.414.654.159.098.394.184.704.258l.71.17c.772.184,1.29.361,1.552.533.41.27.615.693.615,1.271,0,.559-.215,1.041-.644,1.447-.429.406-1.083.609-1.961.609-.945,0-1.614-.213-2.008-.637s-.604-.947-.632-1.572h1.014Z"/>
    </g>
    <rect class="cls-3" x="21.5" y="382.5" width="238" height="28"/>
    <g>
      <path d="M397.883,305.146c.595.574.925,1.227.99,1.957h-1.137c-.126-.555-.379-.994-.757-1.318s-.908-.486-1.591-.486c-.832,0-1.505.297-2.017.895-.513.596-.769,1.51-.769,2.74,0,1.01.231,1.827.693,2.455.463.627,1.152.941,2.069.941.845,0,1.487-.33,1.929-.99.234-.348.408-.805.523-1.371h1.137c-.101.906-.433,1.666-.996,2.279-.676.738-1.587,1.107-2.733,1.107-.989,0-1.819-.303-2.491-.909-.884-.802-1.326-2.038-1.326-3.712,0-1.27.332-2.312.996-3.125.719-.883,1.709-1.324,2.971-1.324,1.077,0,1.913.287,2.508.861Z"/>
      <path d="M400.432,304.52h3.722c1.015,0,1.736.301,2.165.902.251.355.377.766.377,1.23,0,.543-.154.988-.463,1.336-.16.184-.391.352-.691.504.441.168.771.357.99.568.387.375.58.893.58,1.553,0,.555-.175,1.057-.524,1.506-.522.672-1.354,1.008-2.494,1.008h-3.661v-8.607ZM403.718,308.158c.497,0,.884-.068,1.16-.205.435-.215.651-.602.651-1.16,0-.562-.23-.941-.692-1.137-.261-.109-.647-.164-1.16-.164h-2.103v2.666h2.144ZM404.112,312.131c.722,0,1.235-.207,1.543-.621.193-.262.29-.578.29-.949,0-.625-.282-1.051-.846-1.277-.3-.121-.696-.182-1.188-.182h-2.337v3.029h2.538Z"/>
      <path d="M409.379,306.852v4.166c0,.32.05.582.148.785.183.375.523.562,1.021.562.715,0,1.202-.328,1.461-.984.141-.352.211-.834.211-1.447v-3.082h1.055v6.275h-.996l.012-.926c-.134.238-.301.439-.5.604-.395.328-.874.492-1.438.492-.878,0-1.476-.299-1.794-.896-.172-.32-.259-.748-.259-1.283v-4.266h1.078Z"/>
      <path d="M415.625,311.158c.032.352.122.621.27.809.271.34.741.51,1.411.51.398,0,.749-.086,1.053-.256.303-.17.454-.432.454-.787,0-.27-.121-.475-.363-.615-.154-.086-.46-.186-.917-.299l-.852-.211c-.544-.133-.944-.281-1.202-.445-.461-.285-.691-.68-.691-1.184,0-.594.217-1.074.65-1.441s1.017-.551,1.749-.551c.958,0,1.648.277,2.072.832.265.352.394.73.386,1.137h-.996c-.02-.237-.105-.453-.258-.647-.248-.275-.678-.413-1.289-.413-.408,0-.717.075-.927.227-.21.152-.315.354-.315.602,0,.273.138.49.414.654.159.098.394.184.704.258l.711.17c.771.184,1.289.361,1.552.533.41.27.615.693.615,1.271,0,.559-.215,1.041-.644,1.447s-1.083.609-1.961.609c-.944,0-1.614-.213-2.008-.637s-.604-.947-.632-1.572h1.014Z"/>
    </g>
    <rect class="cls-3" x="286.5" y="294.5" width="238" height="28"/>
    <g>
      <path d="M422.934,370.52h3.913c.644,0,1.175.096,1.594.287.794.367,1.19,1.045,1.19,2.033,0,.516-.106.938-.319,1.266s-.511.592-.894.791c.336.137.589.316.759.539s.265.584.284,1.084l.041,1.154c.012.328.039.572.082.732.07.273.195.449.375.527v.193h-1.43c-.039-.074-.07-.17-.094-.287s-.043-.344-.059-.68l-.07-1.436c-.026-.562-.229-.939-.608-1.131-.217-.105-.557-.158-1.02-.158h-2.579v3.691h-1.166v-8.607ZM426.721,374.463c.532,0,.953-.109,1.263-.328s.464-.613.464-1.184c0-.613-.216-1.031-.649-1.254-.231-.117-.541-.176-.929-.176h-2.77v2.941h2.621Z"/>
      <path d="M435.865,373.478c.555.538.832,1.331.832,2.376,0,1.012-.244,1.847-.733,2.506-.488.66-1.246.99-2.274.99-.857,0-1.538-.292-2.042-.875-.505-.584-.757-1.367-.757-2.352,0-1.053.266-1.893.797-2.518.532-.623,1.245-.936,2.142-.936.803,0,1.481.27,2.036.808ZM435.211,377.648c.257-.529.385-1.117.385-1.766,0-.584-.093-1.061-.278-1.428-.293-.577-.799-.865-1.518-.865-.638,0-1.101.245-1.391.736-.289.492-.435,1.086-.435,1.779,0,.668.146,1.224.435,1.668.29.445.749.668,1.379.668.691,0,1.166-.265,1.423-.793Z"/>
      <path d="M442.138,373.186c.443.344.71.936.8,1.775h-1.025c-.062-.387-.205-.709-.428-.965s-.58-.383-1.072-.383c-.672,0-1.152.327-1.441.982-.188.426-.281.95-.281,1.574,0,.629.133,1.157.398,1.586.266.43.684.645,1.254.645.438,0,.784-.134,1.04-.4s.433-.631.53-1.094h1.025c-.117.832-.41,1.439-.879,1.824s-1.068.578-1.799.578c-.82,0-1.475-.301-1.963-.9s-.732-1.348-.732-2.246c0-1.102.268-1.959.803-2.572s1.217-.92,2.045-.92c.707,0,1.282.172,1.726.516Z"/>
      <path d="M443.969,370.52h1.014v4.997l2.705-2.665h1.347l-2.411,2.333,2.547,3.942h-1.348l-1.974-3.193-.866.838v2.355h-1.014v-8.607Z"/>
      <path d="M453.868,373.023c.416.209.732.48.949.812.21.316.35.686.42,1.107.062.289.093.75.093,1.383h-4.564c.02.639.169,1.15.448,1.536.278.386.711.579,1.296.579.547,0,.982-.184,1.309-.548.182-.212.311-.457.387-.735h1.037c-.027.23-.118.486-.272.77s-.326.516-.517.695c-.317.312-.711.523-1.18.633-.252.062-.537.094-.855.094-.776,0-1.434-.285-1.974-.854s-.81-1.363-.81-2.387c0-1.008.271-1.826.815-2.455s1.254-.943,2.132-.943c.442,0,.871.104,1.286.312ZM454.246,375.488c-.042-.457-.142-.822-.296-1.096-.287-.508-.766-.762-1.436-.762-.48,0-.883.174-1.208.523s-.498.795-.518,1.334h3.457Z"/>
      <path d="M456.877,371.1h1.066v1.752h1.002v.861h-1.002v4.096c0,.219.074.365.223.439.082.043.219.064.41.064.051,0,.105-.002.164-.004.059-.003.127-.01.205-.02v.838c-.121.035-.247.061-.378.076s-.272.023-.425.023c-.492,0-.826-.127-1.002-.379s-.264-.578-.264-.98v-4.154h-.85v-.861h.85v-1.752Z"/>
    </g>
    <rect class="cls-3" x="286.5" y="338.5" width="238" height="72"/>
    <g>
      <line class="cls-3" x1="53.5" y1="118" x2="53.5" y2="137.412"/>
      <polygon points="51.007 136.682 53.5 141 55.993 136.682 51.007 136.682"/>
    </g>
    <g>
      <line class="cls-3" x1="185.5" y1="118" x2="185.5" y2="137.412"/>
      <polygon points="183.007 136.682 185.5 141 187.993 136.682 183.007 136.682"/>
    </g>
    <g>
      <line class="cls-3" x1="273.992" y1="118" x2="273.992" y2="137.412"/>
      <polygon points="271.499 136.682 273.992 141 276.485 136.682 271.499 136.682"/>
    </g>
    <g>
      <line class="cls-3" x1="288.5" y1="118" x2="288.5" y2="137.412"/>
      <polygon points="286.007 136.682 288.5 141 290.993 136.682 286.007 136.682"/>
    </g>
    <g>
      <line class="cls-3" x1="244.5" y1="118" x2="244.5" y2="137.412"/>
      <polygon points="242.007 136.682 244.5 141 246.993 136.682 242.007 136.682"/>
    </g>
    <g>
      <line class="cls-3" x1="259.008" y1="118" x2="259.008" y2="137.412"/>
      <polygon points="256.515 136.682 259.008 141 261.501 136.682 256.515 136.682"/>
    </g>
    <g>
      <line class="cls-3" x1="151.5" y1="170" x2="151.5" y2="181.412"/>
      <polygon points="149.007 180.682 151.5 185 153.993 180.682 149.007 180.682"/>
    </g>
    <g>
      <line class="cls-3" x1="140.5" y1="367" x2="140.5" y2="378.412"/>
      <polygon points="138.007 377.682 140.5 382 142.993 377.682 138.007 377.682"/>
    </g>
    <g>
      <line class="cls-3" x1="140.5" y1="411" x2="140.5" y2="422.412"/>
      <polygon points="138.007 421.682 140.5 426 142.993 421.682 138.007 421.682"/>
    </g>
    <g>
      <line class="cls-3" x1="140.5" y1="323" x2="140.5" y2="334.412"/>
      <polygon points="138.007 333.682 140.5 338 142.993 333.682 138.007 333.682"/>
    </g>
    <g>
      <line class="cls-3" x1="405.5" y1="338" x2="405.5" y2="326.588"/>
      <polygon points="407.993 327.318 405.5 323 403.007 327.318 407.993 327.318"/>
    </g>
    <g>
      <line class="cls-3" x1="547.5" y1="339.5" x2="563.912" y2="339.5"/>
      <polygon points="563.182 341.993 567.5 339.5 563.182 337.007 563.182 341.993"/>
    </g>
    <g>
      <line class="cls-3" x1="70.5" y1="170" x2="70.5" y2="181.412"/>
      <polygon points="68.007 180.682 70.5 185 72.993 180.682 68.007 180.682"/>
    </g>
    <g>
      <line class="cls-3" x1="70.5" y1="258" x2="70.5" y2="290.412"/>
      <polygon points="68.007 289.682 70.5 294 72.993 289.682 68.007 289.682"/>
    </g>
    <g>
      <polyline class="cls-3" points="87.5 118 87.5 125.5 115.5 125.5 123.5 133.5 151.5 133.5 151.5 137.412"/>
      <polygon points="149.006 136.682 151.5 141 153.993 136.682 149.006 136.682"/>
    </g>
    <g>
      <polyline class="cls-3" points="151.5 118 151.5 125.5 123.5 125.5 115.5 133.5 87.5 133.5 87.5 137.412"/>
      <polygon points="85.007 136.682 87.5 141 89.993 136.682 85.007 136.682"/>
    </g>
    <g>
      <polyline class="cls-3" points="206.5 199.5 218 199.5 218 82 225.912 82"/>
      <polygon points="225.182 84.493 229.5 82 225.182 79.507 225.182 84.493"/>
    </g>
    <g>
      <polyline class="cls-3" points="304 82 315.5 82 315.5 278.5 210.5 278.5 210.5 290.412"/>
      <polygon points="208.007 289.682 210.5 294 212.993 289.682 208.007 289.682"/>
    </g>
    <g>
      <polyline class="cls-3" points="185.497 169.5 185.497 171.638 185.497 177.5 225.408 177.5"/>
      <polygon points="224.679 179.993 228.997 177.5 224.679 175.006 224.679 179.993"/>
    </g>
    <g>
      <line class="cls-3" x1="151.5" y1="229" x2="151.5" y2="217.588"/>
      <polygon points="153.993 218.317 151.5 214 149.007 218.317 153.993 218.317"/>
    </g>
    <g>
      <polyline class="cls-3" points="185.497 229.5 185.497 227.362 185.497 221.5 225.408 221.5"/>
      <polygon points="224.679 223.993 228.997 221.5 224.679 219.007 224.679 223.993"/>
    </g>
    <g>
      <path class="cls-2" d="M38.162,29.24c.594.574.925,1.227.99,1.957h-1.137c-.127-.555-.379-.994-.757-1.318s-.908-.486-1.591-.486c-.833,0-1.505.298-2.018.895-.512.596-.768,1.51-.768,2.741,0,1.009.23,1.826.693,2.454.462.628,1.152.941,2.069.941.844,0,1.487-.33,1.928-.99.234-.348.409-.805.524-1.371h1.137c-.101.906-.433,1.666-.996,2.279-.676.738-1.587,1.107-2.734,1.107-.988,0-1.818-.303-2.49-.909-.885-.801-1.326-2.038-1.326-3.711,0-1.271.332-2.312.996-3.125.718-.884,1.708-1.325,2.971-1.325,1.077,0,1.913.287,2.508.861Z"/>
      <path class="cls-2" d="M40.629,28.613h1.055v8.607h-1.055v-8.607Z"/>
      <path class="cls-2" d="M44.32,30.945v4.166c0,.32.049.582.148.785.183.375.522.562,1.021.562.715,0,1.202-.328,1.461-.984.141-.352.211-.834.211-1.447v-3.082h1.055v6.275h-.996l.012-.926c-.135.238-.302.439-.501.604-.395.328-.874.492-1.437.492-.878,0-1.477-.299-1.794-.896-.173-.32-.259-.748-.259-1.283v-4.266h1.078Z"/>
      <path class="cls-2" d="M50.566,35.252c.031.352.121.621.269.809.271.34.742.51,1.412.51.398,0,.749-.085,1.052-.255.304-.17.455-.433.455-.788,0-.27-.121-.475-.363-.615-.155-.086-.461-.186-.917-.299l-.852-.211c-.544-.133-.945-.281-1.203-.445-.46-.285-.69-.68-.69-1.184,0-.594.217-1.074.65-1.441.433-.367,1.016-.551,1.748-.551.958,0,1.649.277,2.072.832.266.352.395.73.387,1.137h-.996c-.021-.237-.106-.453-.258-.647-.248-.275-.678-.413-1.29-.413-.408,0-.717.075-.927.228-.21.151-.314.353-.314.602,0,.272.138.49.414.653.158.098.394.184.704.258l.71.17c.772.184,1.29.361,1.553.533.41.27.615.693.615,1.271,0,.559-.215,1.041-.644,1.447-.43.406-1.083.609-1.961.609-.945,0-1.614-.212-2.008-.636s-.604-.948-.632-1.573h1.014Z"/>
      <path class="cls-2" d="M56.15,29.193h1.066v1.752h1.002v.861h-1.002v4.096c0,.219.074.365.223.439.082.043.219.064.41.064.051,0,.105-.002.164-.004.059-.003.127-.01.205-.02v.838c-.121.035-.247.061-.378.076s-.272.023-.425.023c-.492,0-.826-.126-1.002-.378s-.264-.579-.264-.981v-4.154h-.85v-.861h.85v-1.752Z"/>
      <path class="cls-2" d="M63.149,31.118c.415.209.731.479.949.812.21.316.35.686.419,1.107.062.289.094.75.094,1.383h-4.564c.02.639.168,1.15.447,1.536s.711.579,1.297.579c.546,0,.982-.183,1.308-.548.183-.212.312-.457.388-.735h1.037c-.027.23-.118.487-.272.771s-.327.515-.517.694c-.318.312-.712.523-1.181.633-.252.062-.537.094-.854.094-.776,0-1.435-.284-1.974-.853-.54-.568-.81-1.364-.81-2.388,0-1.008.271-1.826.815-2.455.543-.629,1.254-.943,2.131-.943.442,0,.872.104,1.287.313ZM63.527,33.582c-.043-.457-.142-.822-.297-1.096-.286-.508-.765-.762-1.435-.762-.48,0-.884.175-1.209.524s-.497.794-.517,1.333h3.457Z"/>
      <path class="cls-2" d="M65.977,30.945h1.002v1.084c.082-.211.283-.468.604-.771s.689-.454,1.107-.454c.02,0,.053.002.1.006s.127.012.24.023v1.113c-.062-.012-.12-.02-.173-.023s-.11-.006-.173-.006c-.531,0-.939.171-1.225.513s-.428.735-.428,1.181v3.609h-1.055v-6.275Z"/>
      <path class="cls-2" d="M78.105,30.172c.375.691.562,1.639.562,2.842,0,1.141-.17,2.084-.51,2.83-.492,1.07-1.297,1.605-2.414,1.605-1.008,0-1.758-.438-2.25-1.312-.41-.73-.615-1.711-.615-2.941,0-.953.123-1.771.369-2.455.461-1.273,1.295-1.91,2.502-1.91,1.086,0,1.871.447,2.355,1.342ZM77.044,35.762c.324-.484.487-1.387.487-2.707,0-.953-.118-1.737-.353-2.353s-.69-.923-1.367-.923c-.622,0-1.077.292-1.364.876-.288.584-.432,1.444-.432,2.581,0,.855.092,1.543.275,2.062.282.793.764,1.189,1.444,1.189.548,0,.983-.242,1.309-.727Z"/>
    </g>
    <path class="cls-2" d="M328,18h-2v1h2v-1h0ZM324,18h-2v1h2v-1h0ZM320,18h-2v1h2v-1h0ZM316,18h-2v1h2v-1h0ZM312,18h-2v1h2v-1h0ZM308,18h-2v1h2v-1h0ZM304,18h-2v1h2v-1h0ZM300,18h-2v1h2v-1h0ZM296,18h-2v1h2v-1h0ZM292,18h-2v1h2v-1h0ZM288,18h-2v1h2v-1h0ZM284,18h-2v1h2v-1h0ZM280,18h-2v1h2v-1h0ZM276,18h-2v1h2v-1h0ZM272,18h-2v1h2v-1h0ZM268,18h-2v1h2v-1h0ZM264,18h-2v1h2v-1h0ZM260,18h-2v1h2v-1h0ZM256,18h-2v1h2v-1h0ZM252,18h-2v1h2v-1h0ZM248,18h-2v1h2v-1h0ZM244,18h-2v1h2v-1h0ZM240,18h-2v1h2v-1h0ZM236,18h-2v1h2v-1h0ZM232,18h-2v1h2v-1h0ZM228,18h-2v1h2v-1h0ZM224,18h-2v1h2v-1h0ZM220,18h-2v1h2v-1h0ZM216,18h-2v1h2v-1h0ZM212,18h-2v1h2v-1h0ZM208,18h-2v1h2v-1h0ZM204,18h-2v1h2v-1h0ZM200,18h-2v1h2v-1h0ZM196,18h-2v1h2v-1h0ZM192,18h-2v1h2v-1h0ZM188,18h-2v1h2v-1h0ZM184,18h-2v1h2v-1h0ZM180,18h-2v1h2v-1h0ZM176,18h-2v1h2v-1h0ZM172,18h-2v1h2v-1h0ZM168,18h-2v1h2v-1h0ZM164,18h-2v1h2v-1h0ZM160,18h-2v1h2v-1h0ZM156,18h-2v1h2v-1h0ZM152,18h-2v1h2v-1h0ZM148,18h-2v1h2v-1h0ZM144,18h-2v1h2v-1h0ZM140,18h-2v1h2v-1h0ZM136,18h-2v1h2v-1h0ZM132,18h-2v1h2v-1h0ZM128,18h-2v1h2v-1h0ZM124,18h-2v1h2v-1h0ZM120,18h-2v1h2v-1h0ZM116,18h-2v1h2v-1h0ZM112,18h-2v1h2v-1h0ZM108,18h-2v1h2v-1h0ZM104,18h-2v1h2v-1h0ZM100,18h-2v1h2v-1h0ZM96,18h-2v1h2v-1h0ZM92,18h-2v1h2v-1h0ZM88,18h-2v1h2v-1h0ZM84,18h-2v1h2v-1h0ZM80,18h-2v1h2v-1h0ZM76,18h-2v1h2v-1h0ZM72,18h-2v1h2v-1h0ZM68,18h-2v1h2v-1h0ZM64,18h-2v1h2v-1h0ZM60,18h-2v1h2v-1h0ZM56,18h-2v1h2v-1h0ZM52,18h-2v1h2v-1h0ZM48,18h-2v1h2v-1h0ZM44,18h-2v1h2v-1h0ZM40,18h-2v1h2v-1h0ZM36,18h-2v1h2v-1h0ZM32,18h-2v1h2v-1h0ZM28,18h-2v1h2v-1h0ZM24,18h-2v1h-1v2h1v-2h2v-1h0ZM22,23h-1v2h1v-2h0ZM22,27h-1v2h1v-2h0ZM22,31h-1v2h1v-2h0ZM22,35h-1v2h1v-2h0ZM22,39h-1v2h1v-2h0ZM22,43h-1v2h1v-2h0ZM22,47h-1v2h1v-2h0ZM22,51h-1v2h1v-2h0ZM22,55h-1v2h1v-2h0ZM22,59h-1v2h1v-2h0ZM22,63h-1v2h1v-2h0ZM22,67h-1v2h1v-2h0ZM22,71h-1v2h1v-2h0ZM22,75h-1v2h1v-2h0ZM22,79h-1v2h1v-2h0ZM22,83h-1v2h1v-2h0ZM22,87h-1v2h1v-2h0ZM22,91h-1v2h1v-2h0ZM22,95h-1v2h1v-2h0ZM22,99h-1v2h1v-2h0ZM22,103h-1v2h1v-2h0ZM22,107h-1v2h1v-2h0ZM22,111h-1v2h1v-2h0ZM22,115h-1v2h1v-2h0ZM22,119h-1v2h1v-2h0ZM22,123h-1v2h1v-2h0ZM22,127h-1v2h1v-2h0ZM22,131h-1v2h1v-2h0ZM22,135h-1v2h1v-2h0ZM22,139h-1v2h1v-2h0ZM22,143h-1v2h1v-2h0ZM22,147h-1v2h1v-2h0ZM22,151h-1v2h1v-2h0ZM22,155h-1v2h1v-2h0ZM22,159h-1v2h1v-2h0ZM22,163h-1v2h1v-2h0ZM22,167h-1v2h1v-2h0ZM22,171h-1v2h1v-2h0ZM22,175h-1v2h1v-2h0ZM22,179h-1v2h1v-2h0ZM22,183h-1v2h1v-2h0ZM22,187h-1v2h1v-2h0ZM22,191h-1v2h1v-2h0ZM22,195h-1v2h1v-2h0ZM22,199h-1v2h1v-2h0ZM22,203h-1v2h1v-2h0ZM22,207h-1v2h1v-2h0ZM22,211h-1v2h1v-2h0ZM22,215h-1v2h1v-2h0ZM22,219h-1v2h1v-2h0ZM22,223h-1v2h1v-2h0ZM22,227h-1v2h1v-2h0ZM22,231h-1v2h1v-2h0ZM22,235h-1v2h1v-2h0ZM22,239h-1v2h1v-2h0ZM22,243h-1v2h1v-2h0ZM22,247h-1v2h1v-2h0ZM22,251h-1v2h1v-2h0ZM22,255h-1v2h1v-2h0ZM22,259h-1v2h1v-2h0ZM22,263h-1v2h1v-2h0ZM22,267h-1v2h1v-2h0ZM23,270h-2v1h2v-1h0ZM27,270h-2v1h2v-1h0ZM31,270h-2v1h2v-1h0ZM35,270h-2v1h2v-1h0ZM39,270h-2v1h2v-1h0ZM43,270h-2v1h2v-1h0ZM47,270h-2v1h2v-1h0ZM51,270h-2v1h2v-1h0ZM55,270h-2v1h2v-1h0ZM59,270h-2v1h2v-1h0ZM63,270h-2v1h2v-1h0ZM67,270h-2v1h2v-1h0ZM71,270h-2v1h2v-1h0ZM75,270h-2v1h2v-1h0ZM79,270h-2v1h2v-1h0ZM83,270h-2v1h2v-1h0ZM87,270h-2v1h2v-1h0ZM91,270h-2v1h2v-1h0ZM95,270h-2v1h2v-1h0ZM99,270h-2v1h2v-1h0ZM103,270h-2v1h2v-1h0ZM107,270h-2v1h2v-1h0ZM111,270h-2v1h2v-1h0ZM115,270h-2v1h2v-1h0ZM119,270h-2v1h2v-1h0ZM123,270h-2v1h2v-1h0ZM127,270h-2v1h2v-1h0ZM131,270h-2v1h2v-1h0ZM135,270h-2v1h2v-1h0ZM139,270h-2v1h2v-1h0ZM143,270h-2v1h2v-1h0ZM147,270h-2v1h2v-1h0ZM151,270h-2v1h2v-1h0ZM155,270h-2v1h2v-1h0ZM159,270h-2v1h2v-1h0ZM163,270h-2v1h2v-1h0ZM167,270h-2v1h2v-1h0ZM171,270h-2v1h2v-1h0ZM175,270h-2v1h2v-1h0ZM179,270h-2v1h2v-1h0ZM183,270h-2v1h2v-1h0ZM187,270h-2v1h2v-1h0ZM191,270h-2v1h2v-1h0ZM195,270h-2v1h2v-1h0ZM199,270h-2v1h2v-1h0ZM203,270h-2v1h2v-1h0ZM207,270h-2v1h2v-1h0ZM211,270h-2v1h2v-1h0ZM215,270h-2v1h2v-1h0ZM219,270h-2v1h2v-1h0ZM223,270h-2v1h2v-1h0ZM227,270h-2v1h2v-1h0ZM231,270h-2v1h2v-1h0ZM235,270h-2v1h2v-1h0ZM239,270h-2v1h2v-1h0ZM243,270h-2v1h2v-1h0ZM247,270h-2v1h2v-1h0ZM251,270h-2v1h2v-1h0ZM255,270h-2v1h2v-1h0ZM259,270h-2v1h2v-1h0ZM263,270h-2v1h2v-1h0ZM267,270h-2v1h2v-1h0ZM271,270h-2v1h2v-1h0ZM275,270h-2v1h2v-1h0ZM279,270h-2v1h2v-1h0ZM283,270h-2v1h2v-1h0ZM287,270h-2v1h2v-1h0ZM291,270h-2v1h2v-1h0ZM295,270h-2v1h2v-1h0ZM299,270h-2v1h2v-1h0ZM303,270h-2v1h2v-1h0ZM307,270h-2v1h2v-1h0ZM311,270h-2v1h2v-1h0ZM315,270h-2v1h2v-1h0ZM319,270h-2v1h2v-1h0ZM323,270h-2v1h2v-1h0ZM327,270h-2v1h2v-1h0ZM328,268h-1v2h1v-2h0ZM328,264h-1v2h1v-2h0ZM328,260h-1v2h1v-2h0ZM328,256h-1v2h1v-2h0ZM328,252h-1v2h1v-2h0ZM328,248h-1v2h1v-2h0ZM328,244h-1v2h1v-2h0ZM328,240h-1v2h1v-2h0ZM328,236h-1v2h1v-2h0ZM328,232h-1v2h1v-2h0ZM328,228h-1v2h1v-2h0ZM328,224h-1v2h1v-2h0ZM328,220h-1v2h1v-2h0ZM328,216h-1v2h1v-2h0ZM328,212h-1v2h1v-2h0ZM328,208h-1v2h1v-2h0ZM328,204h-1v2h1v-2h0ZM328,200h-1v2h1v-2h0ZM328,196h-1v2h1v-2h0ZM328,192h-1v2h1v-2h0ZM328,188h-1v2h1v-2h0ZM328,184h-1v2h1v-2h0ZM328,180h-1v2h1v-2h0ZM328,176h-1v2h1v-2h0ZM328,172h-1v2h1v-2h0ZM328,168h-1v2h1v-2h0ZM328,164h-1v2h1v-2h0ZM328,160h-1v2h1v-2h0ZM328,156h-1v2h1v-2h0ZM328,152h-1v2h1v-2h0ZM328,148h-1v2h1v-2h0ZM328,144h-1v2h1v-2h0ZM328,140h-1v2h1v-2h0ZM328,136h-1v2h1v-2h0ZM328,132h-1v2h1v-2h0ZM328,128h-1v2h1v-2h0ZM328,124h-1v2h1v-2h0ZM328,120h-1v2h1v-2h0ZM328,116h-1v2h1v-2h0ZM328,112h-1v2h1v-2h0ZM328,108h-1v2h1v-2h0ZM328,104h-1v2h1v-2h0ZM328,100h-1v2h1v-2h0ZM328,96h-1v2h1v-2h0ZM328,92h-1v2h1v-2h0ZM328,88h-1v2h1v-2h0ZM328,84h-1v2h1v-2h0ZM328,80h-1v2h1v-2h0ZM328,76h-1v2h1v-2h0ZM328,72h-1v2h1v-2h0ZM328,68h-1v2h1v-2h0ZM328,64h-1v2h1v-2h0ZM328,60h-1v2h1v-2h0ZM328,56h-1v2h1v-2h0ZM328,52h-1v2h1v-2h0ZM328,48h-1v2h1v-2h0ZM328,44h-1v2h1v-2h0ZM328,40h-1v2h1v-2h0ZM328,36h-1v2h1v-2h0ZM328,32h-1v2h1v-2h0ZM328,28h-1v2h1v-2h0ZM328,24h-1v2h1v-2h0ZM328,20h-1v2h1v-2h0Z"/>
    <rect class="cls-3" x="350.5" y="141.5" width="48" height="28"/>
    <rect class="cls-3" x="407.5" y="141.5" width="48" height="28"/>
    <g>
      <path d="M369.883,152.146c.595.574.925,1.227.99,1.957h-1.137c-.126-.555-.379-.994-.757-1.318s-.908-.486-1.591-.486c-.833,0-1.505.297-2.017.895-.512.596-.768,1.51-.768,2.74,0,1.01.231,1.827.693,2.455.462.627,1.152.941,2.069.941.845,0,1.487-.33,1.929-.99.234-.348.408-.805.523-1.371h1.137c-.101.906-.433,1.666-.996,2.279-.676.738-1.587,1.107-2.734,1.107-.989,0-1.819-.303-2.491-.909-.884-.802-1.326-2.038-1.326-3.712,0-1.27.332-2.312.996-3.125.718-.883,1.708-1.324,2.971-1.324,1.077,0,1.913.287,2.508.861Z"/>
      <path d="M372.461,151.52h1.166v7.582h4.318v1.025h-5.484v-8.607Z"/>
      <path d="M379.896,157.35c.026.488.138.885.333,1.189.373.57,1.029.855,1.97.855.422,0,.806-.062,1.151-.188.67-.242,1.005-.676,1.005-1.301,0-.469-.142-.803-.426-1.002-.287-.195-.737-.365-1.351-.51l-1.13-.264c-.737-.172-1.26-.361-1.566-.568-.53-.359-.795-.896-.795-1.611,0-.773.261-1.408.781-1.904s1.259-.744,2.213-.744c.878,0,1.624.217,2.237.652.614.436.921,1.133.921,2.09h-1.096c-.056-.461-.176-.814-.359-1.061-.341-.449-.919-.674-1.735-.674-.659,0-1.134.145-1.422.434s-.433.625-.433,1.008c0,.422.171.73.511.926.224.125.729.281,1.517.469l1.169.275c.564.133.999.314,1.306.545.53.402.795.986.795,1.752,0,.953-.338,1.635-1.014,2.045-.677.41-1.462.615-2.357.615-1.044,0-1.861-.273-2.451-.82-.591-.543-.881-1.279-.869-2.209h1.096Z"/>
    </g>
    <rect class="cls-3" x="407.5" y="185.5" width="48" height="28"/>
    <g>
      <path d="M426.552,196.146c.595.574.925,1.227.99,1.957h-1.137c-.126-.555-.379-.994-.757-1.318s-.908-.486-1.591-.486c-.832,0-1.505.297-2.017.895-.513.596-.769,1.51-.769,2.74,0,1.01.231,1.827.693,2.455.463.627,1.152.941,2.069.941.845,0,1.487-.33,1.929-.99.234-.348.408-.805.523-1.371h1.137c-.101.906-.433,1.666-.996,2.279-.676.738-1.587,1.107-2.733,1.107-.989,0-1.819-.303-2.491-.909-.884-.802-1.326-2.038-1.326-3.712,0-1.27.332-2.312.996-3.125.719-.883,1.709-1.324,2.971-1.324,1.077,0,1.913.287,2.508.861Z"/>
      <path d="M429.13,195.52h1.166v7.582h4.318v1.025h-5.484v-8.607Z"/>
      <path d="M441.892,196.146c.595.574.925,1.227.99,1.957h-1.137c-.126-.555-.379-.994-.757-1.318s-.908-.486-1.591-.486c-.832,0-1.505.297-2.017.895-.513.596-.769,1.51-.769,2.74,0,1.01.231,1.827.693,2.455.463.627,1.152.941,2.069.941.845,0,1.487-.33,1.929-.99.234-.348.408-.805.523-1.371h1.137c-.101.906-.433,1.666-.996,2.279-.676.738-1.587,1.107-2.733,1.107-.989,0-1.819-.303-2.491-.909-.884-.802-1.326-2.038-1.326-3.712,0-1.27.332-2.312.996-3.125.719-.883,1.709-1.324,2.971-1.324,1.077,0,1.913.287,2.508.861Z"/>
    </g>
    <g>
      <path d="M429.889,240.146c.595.574.925,1.227.99,1.957h-1.137c-.126-.555-.379-.994-.757-1.318s-.908-.486-1.591-.486c-.832,0-1.505.297-2.017.895-.513.596-.769,1.51-.769,2.74,0,1.01.231,1.827.693,2.455.463.627,1.152.941,2.069.941.845,0,1.487-.33,1.929-.99.234-.348.408-.805.523-1.371h1.137c-.101.906-.433,1.666-.996,2.279-.676.738-1.587,1.107-2.733,1.107-.989,0-1.819-.303-2.491-.909-.884-.802-1.326-2.038-1.326-3.712,0-1.27.332-2.312.996-3.125.719-.883,1.709-1.324,2.971-1.324,1.077,0,1.913.287,2.508.861Z"/>
      <path d="M438.555,240.146c.595.574.925,1.227.99,1.957h-1.137c-.126-.555-.379-.994-.757-1.318s-.908-.486-1.591-.486c-.832,0-1.505.297-2.017.895-.513.596-.769,1.51-.769,2.74,0,1.01.231,1.827.693,2.455.463.627,1.152.941,2.069.941.845,0,1.487-.33,1.929-.99.234-.348.408-.805.523-1.371h1.137c-.101.906-.433,1.666-.996,2.279-.676.738-1.587,1.107-2.733,1.107-.989,0-1.819-.303-2.491-.909-.884-.802-1.326-2.038-1.326-3.712,0-1.27.332-2.312.996-3.125.719-.883,1.709-1.324,2.971-1.324,1.077,0,1.913.287,2.508.861Z"/>
    </g>
    <rect class="cls-3" x="350.5" y="185.5" width="48" height="72"/>
    <g>
      <path d="M365.456,216.52h1.166v7.582h4.318v1.025h-5.484v-8.607Z"/>
      <path d="M372.364,219.186v-.809c.762-.074,1.293-.199,1.594-.373s.525-.584.674-1.232h.832v8.355h-1.125v-5.941h-1.975Z"/>
      <path d="M379.082,217.328c.436-.477,1.046-.719,1.831-.727v-.779h.557v.768c.777.055,1.374.283,1.79.686.416.404.634.938.653,1.6h-1.025c-.027-.297-.107-.553-.24-.768-.246-.395-.639-.602-1.178-.621v2.854c.906.254,1.521.492,1.846.715.527.367.791.91.791,1.629,0,1.039-.338,1.777-1.014,2.215-.375.242-.916.402-1.623.48v1.137h-.557v-1.137c-1.137-.074-1.908-.477-2.314-1.207-.223-.395-.334-.928-.334-1.6h1.037c.031.535.116.926.254,1.172.244.441.696.689,1.357.744v-3.193c-.848-.16-1.474-.428-1.878-.803s-.606-.895-.606-1.559c0-.594.218-1.129.653-1.605ZM379.87,219.771c.259.219.605.371,1.043.457v-2.754c-.516.02-.883.176-1.102.469s-.328.6-.328.92c0,.387.129.689.387.908ZM382.853,223.785c.133-.234.199-.506.199-.814,0-.488-.18-.859-.539-1.113-.207-.148-.555-.289-1.043-.422v3.082c.668-.031,1.129-.275,1.383-.732Z"/>
    </g>
    <g>
      <path d="M61.456,216.52h1.166v7.582h4.318v1.025h-5.484v-8.607Z"/>
      <path d="M68.364,219.186v-.809c.762-.074,1.293-.199,1.594-.373s.525-.584.674-1.232h.832v8.355h-1.125v-5.941h-1.975Z"/>
      <path d="M75.082,217.328c.436-.477,1.046-.719,1.831-.727v-.779h.557v.768c.777.055,1.374.283,1.79.686.416.404.634.938.653,1.6h-1.025c-.027-.297-.107-.553-.24-.768-.246-.395-.639-.602-1.178-.621v2.854c.906.254,1.521.492,1.846.715.527.367.791.91.791,1.629,0,1.039-.338,1.777-1.014,2.215-.375.242-.916.402-1.623.48v1.137h-.557v-1.137c-1.137-.074-1.908-.477-2.314-1.207-.223-.395-.334-.928-.334-1.6h1.037c.031.535.116.926.254,1.172.244.441.696.689,1.357.744v-3.193c-.848-.16-1.474-.428-1.878-.803s-.606-.895-.606-1.559c0-.594.218-1.129.653-1.605ZM75.87,219.771c.258.219.605.371,1.043.457v-2.754c-.516.02-.883.176-1.102.469-.218.293-.328.6-.328.92,0,.387.129.689.387.908ZM78.853,223.785c.133-.234.199-.506.199-.814,0-.488-.18-.859-.539-1.113-.207-.148-.555-.289-1.043-.422v3.082c.668-.031,1.129-.275,1.383-.732Z"/>
    </g>
    <rect class="cls-3" x="464.5" y="141.5" width="48" height="116"/>
    <g>
      <path d="M472.229,201.35c.026.488.138.885.333,1.189.373.57,1.029.855,1.97.855.422,0,.806-.062,1.151-.188.67-.242,1.005-.676,1.005-1.301,0-.469-.142-.803-.426-1.002-.287-.195-.737-.365-1.351-.51l-1.13-.264c-.737-.172-1.26-.361-1.566-.568-.53-.359-.795-.896-.795-1.611,0-.773.261-1.408.781-1.904s1.259-.744,2.213-.744c.878,0,1.624.217,2.237.652.614.436.921,1.133.921,2.09h-1.096c-.056-.461-.176-.814-.359-1.061-.341-.449-.919-.674-1.735-.674-.659,0-1.134.145-1.422.434s-.433.625-.433,1.008c0,.422.171.73.511.926.224.125.729.281,1.517.469l1.169.275c.564.133.999.314,1.306.545.53.402.795.986.795,1.752,0,.953-.338,1.635-1.014,2.045-.677.41-1.462.615-2.357.615-1.044,0-1.861-.273-2.451-.82-.591-.543-.881-1.279-.869-2.209h1.096Z"/>
      <path d="M479.441,195.52h1.671l2.475,7.277,2.458-7.277h1.658v8.607h-1.113v-5.08c0-.176.004-.467.012-.873s.012-.842.012-1.307l-2.457,7.26h-1.155l-2.481-7.26v.264c0,.211.006.531.018.963s.018.75.018.953v5.08h-1.113v-8.607Z"/>
      <path d="M489.578,195.52h6.246v1.055h-5.109v2.613h4.723v.996h-4.723v2.918h5.197v1.025h-6.334v-8.607Z"/>
      <path d="M497.441,195.52h1.671l2.475,7.277,2.458-7.277h1.658v8.607h-1.113v-5.08c0-.176.004-.467.012-.873s.012-.842.012-1.307l-2.457,7.26h-1.155l-2.481-7.26v.264c0,.211.006.531.018.963s.018.75.018.953v5.08h-1.113v-8.607Z"/>
    </g>
    <line class="cls-3" x1="415.554" y1="147.5" x2="447.446" y2="163.5"/>
    <line class="cls-3" x1="447.446" y1="147.5" x2="415.554" y2="163.5"/>
    <rect class="cls-3" x="407.5" y="229.5" width="48" height="28"/>
    <g>
      <path class="cls-2" d="M355.162,29.24c.594.574.925,1.227.99,1.957h-1.137c-.127-.555-.379-.994-.757-1.318s-.908-.486-1.591-.486c-.833,0-1.505.298-2.018.895-.512.596-.768,1.51-.768,2.741,0,1.009.23,1.826.693,2.454.462.628,1.152.941,2.069.941.844,0,1.487-.33,1.928-.99.234-.348.409-.805.524-1.371h1.137c-.101.906-.433,1.666-.996,2.279-.676.738-1.587,1.107-2.734,1.107-.988,0-1.818-.303-2.49-.909-.885-.801-1.326-2.038-1.326-3.711,0-1.271.332-2.312.996-3.125.718-.884,1.708-1.325,2.971-1.325,1.077,0,1.913.287,2.508.861Z"/>
      <path class="cls-2" d="M357.629,28.613h1.055v8.607h-1.055v-8.607Z"/>
      <path class="cls-2" d="M361.32,30.945v4.166c0,.32.049.582.148.785.183.375.522.562,1.021.562.715,0,1.202-.328,1.461-.984.141-.352.211-.834.211-1.447v-3.082h1.055v6.275h-.996l.012-.926c-.135.238-.302.439-.501.604-.395.328-.874.492-1.437.492-.878,0-1.477-.299-1.794-.896-.173-.32-.259-.748-.259-1.283v-4.266h1.078Z"/>
      <path class="cls-2" d="M367.566,35.252c.031.352.121.621.269.809.271.34.742.51,1.412.51.398,0,.749-.085,1.052-.255.304-.17.455-.433.455-.788,0-.27-.121-.475-.363-.615-.155-.086-.461-.186-.917-.299l-.852-.211c-.544-.133-.945-.281-1.203-.445-.46-.285-.69-.68-.69-1.184,0-.594.217-1.074.65-1.441.433-.367,1.016-.551,1.748-.551.958,0,1.649.277,2.072.832.266.352.395.73.387,1.137h-.996c-.021-.237-.106-.453-.258-.647-.248-.275-.678-.413-1.29-.413-.408,0-.717.075-.927.228-.21.151-.314.353-.314.602,0,.272.138.49.414.653.158.098.394.184.704.258l.71.17c.772.184,1.29.361,1.553.533.41.27.615.693.615,1.271,0,.559-.215,1.041-.644,1.447-.43.406-1.083.609-1.961.609-.945,0-1.614-.212-2.008-.636s-.604-.948-.632-1.573h1.014Z"/>
      <path class="cls-2" d="M373.15,29.193h1.066v1.752h1.002v.861h-1.002v4.096c0,.219.074.365.223.439.082.043.219.064.41.064.051,0,.105-.002.164-.004.059-.003.127-.01.205-.02v.838c-.121.035-.247.061-.378.076s-.272.023-.425.023c-.492,0-.826-.126-1.002-.378s-.264-.579-.264-.981v-4.154h-.85v-.861h.85v-1.752Z"/>
      <path class="cls-2" d="M380.149,31.118c.415.209.731.479.949.812.21.316.35.686.419,1.107.062.289.094.75.094,1.383h-4.564c.02.639.168,1.15.447,1.536s.711.579,1.297.579c.546,0,.982-.183,1.308-.548.183-.212.312-.457.388-.735h1.037c-.027.23-.118.487-.272.771s-.327.515-.517.694c-.318.312-.712.523-1.181.633-.252.062-.537.094-.854.094-.776,0-1.435-.284-1.974-.853-.54-.568-.81-1.364-.81-2.388,0-1.008.271-1.826.815-2.455.543-.629,1.254-.943,2.131-.943.442,0,.872.104,1.287.313ZM380.527,33.582c-.043-.457-.142-.822-.297-1.096-.286-.508-.765-.762-1.435-.762-.48,0-.884.175-1.209.524s-.497.794-.517,1.333h3.457Z"/>
      <path class="cls-2" d="M382.977,30.945h1.002v1.084c.082-.211.283-.468.604-.771s.689-.454,1.107-.454c.02,0,.053.002.1.006s.127.012.24.023v1.113c-.062-.012-.12-.02-.173-.023s-.11-.006-.173-.006c-.531,0-.939.171-1.225.513s-.428.735-.428,1.181v3.609h-1.055v-6.275Z"/>
      <path class="cls-2" d="M390.652,31.279v-.809c.762-.074,1.293-.198,1.594-.372s.525-.585.674-1.233h.832v8.355h-1.125v-5.941h-1.975Z"/>
    </g>
    <path class="cls-2" d="M525,18h-2v1h2v-1h0ZM521,18h-2v1h2v-1h0ZM517,18h-2v1h2v-1h0ZM513,18h-2v1h2v-1h0ZM509,18h-2v1h2v-1h0ZM505,18h-2v1h2v-1h0ZM501,18h-2v1h2v-1h0ZM497,18h-2v1h2v-1h0ZM493,18h-2v1h2v-1h0ZM489,18h-2v1h2v-1h0ZM485,18h-2v1h2v-1h0ZM481,18h-2v1h2v-1h0ZM477,18h-2v1h2v-1h0ZM473,18h-2v1h2v-1h0ZM469,18h-2v1h2v-1h0ZM465,18h-2v1h2v-1h0ZM461,18h-2v1h2v-1h0ZM457,18h-2v1h2v-1h0ZM453,18h-2v1h2v-1h0ZM449,18h-2v1h2v-1h0ZM445,18h-2v1h2v-1h0ZM441,18h-2v1h2v-1h0ZM437,18h-2v1h2v-1h0ZM433,18h-2v1h2v-1h0ZM429,18h-2v1h2v-1h0ZM425,18h-2v1h2v-1h0ZM421,18h-2v1h2v-1h0ZM417,18h-2v1h2v-1h0ZM413,18h-2v1h2v-1h0ZM409,18h-2v1h2v-1h0ZM405,18h-2v1h2v-1h0ZM401,18h-2v1h2v-1h0ZM397,18h-2v1h2v-1h0ZM393,18h-2v1h2v-1h0ZM389,18h-2v1h2v-1h0ZM385,18h-2v1h2v-1h0ZM381,18h-2v1h2v-1h0ZM377,18h-2v1h2v-1h0ZM373,18h-2v1h2v-1h0ZM369,18h-2v1h2v-1h0ZM365,18h-2v1h2v-1h0ZM361,18h-2v1h2v-1h0ZM357,18h-2v1h2v-1h0ZM353,18h-2v1h2v-1h0ZM349,18h-2v1h2v-1h0ZM345,18h-2v1h2v-1h0ZM341,18h-2v1h-1v2h1v-2h2v-1h0ZM339,23h-1v2h1v-2h0ZM339,27h-1v2h1v-2h0ZM339,31h-1v2h1v-2h0ZM339,35h-1v2h1v-2h0ZM339,39h-1v2h1v-2h0ZM339,43h-1v2h1v-2h0ZM339,47h-1v2h1v-2h0ZM339,51h-1v2h1v-2h0ZM339,55h-1v2h1v-2h0ZM339,59h-1v2h1v-2h0ZM339,63h-1v2h1v-2h0ZM339,67h-1v2h1v-2h0ZM339,71h-1v2h1v-2h0ZM339,75h-1v2h1v-2h0ZM339,79h-1v2h1v-2h0ZM339,83h-1v2h1v-2h0ZM339,87h-1v2h1v-2h0ZM339,91h-1v2h1v-2h0ZM339,95h-1v2h1v-2h0ZM339,99h-1v2h1v-2h0ZM339,103h-1v2h1v-2h0ZM339,107h-1v2h1v-2h0ZM339,111h-1v2h1v-2h0ZM339,115h-1v2h1v-2h0ZM339,119h-1v2h1v-2h0ZM339,123h-1v2h1v-2h0ZM339,127h-1v2h1v-2h0ZM339,131h-1v2h1v-2h0ZM339,135h-1v2h1v-2h0ZM339,139h-1v2h1v-2h0ZM339,143h-1v2h1v-2h0ZM339,147h-1v2h1v-2h0ZM339,151h-1v2h1v-2h0ZM339,155h-1v2h1v-2h0ZM339,159h-1v2h1v-2h0ZM339,163h-1v2h1v-2h0ZM339,167h-1v2h1v-2h0ZM339,171h-1v2h1v-2h0ZM339,175h-1v2h1v-2h0ZM339,179h-1v2h1v-2h0ZM339,183h-1v2h1v-2h0ZM339,187h-1v2h1v-2h0ZM339,191h-1v2h1v-2h0ZM339,195h-1v2h1v-2h0ZM339,199h-1v2h1v-2h0ZM339,203h-1v2h1v-2h0ZM339,207h-1v2h1v-2h0ZM339,211h-1v2h1v-2h0ZM339,215h-1v2h1v-2h0ZM339,219h-1v2h1v-2h0ZM339,223h-1v2h1v-2h0ZM339,227h-1v2h1v-2h0ZM339,231h-1v2h1v-2h0ZM339,235h-1v2h1v-2h0ZM339,239h-1v2h1v-2h0ZM339,243h-1v2h1v-2h0ZM339,247h-1v2h1v-2h0ZM339,251h-1v2h1v-2h0ZM339,255h-1v2h1v-2h0ZM339,259h-1v2h1v-2h0ZM339,263h-1v2h1v-2h0ZM339,267h-1v2h1v-2h0ZM340,270h-2v1h2v-1h0ZM344,270h-2v1h2v-1h0ZM348,270h-2v1h2v-1h0ZM352,270h-2v1h2v-1h0ZM356,270h-2v1h2v-1h0ZM360,270h-2v1h2v-1h0ZM364,270h-2v1h2v-1h0ZM368,270h-2v1h2v-1h0ZM372,270h-2v1h2v-1h0ZM376,270h-2v1h2v-1h0ZM380,270h-2v1h2v-1h0ZM384,270h-2v1h2v-1h0ZM388,270h-2v1h2v-1h0ZM392,270h-2v1h2v-1h0ZM396,270h-2v1h2v-1h0ZM400,270h-2v1h2v-1h0ZM404,270h-2v1h2v-1h0ZM408,270h-2v1h2v-1h0ZM412,270h-2v1h2v-1h0ZM416,270h-2v1h2v-1h0ZM420,270h-2v1h2v-1h0ZM424,270h-2v1h2v-1h0ZM428,270h-2v1h2v-1h0ZM432,270h-2v1h2v-1h0ZM436,270h-2v1h2v-1h0ZM440,270h-2v1h2v-1h0ZM444,270h-2v1h2v-1h0ZM448,270h-2v1h2v-1h0ZM452,270h-2v1h2v-1h0ZM456,270h-2v1h2v-1h0ZM460,270h-2v1h2v-1h0ZM464,270h-2v1h2v-1h0ZM468,270h-2v1h2v-1h0ZM472,270h-2v1h2v-1h0ZM476,270h-2v1h2v-1h0ZM480,270h-2v1h2v-1h0ZM484,270h-2v1h2v-1h0ZM488,270h-2v1h2v-1h0ZM492,270h-2v1h2v-1h0ZM496,270h-2v1h2v-1h0ZM500,270h-2v1h2v-1h0ZM504,270h-2v1h2v-1h0ZM508,270h-2v1h2v-1h0ZM512,270h-2v1h2v-1h0ZM516,270h-2v1h2v-1h0ZM520,270h-2v1h2v-1h0ZM524,270h-2v1h2v-1h0ZM525,268h-1v2h1v-2h0ZM525,264h-1v2h1v-2h0ZM525,260h-1v2h1v-2h0ZM525,256h-1v2h1v-2h0ZM525,252h-1v2h1v-2h0ZM525,248h-1v2h1v-2h0ZM525,244h-1v2h1v-2h0ZM525,240h-1v2h1v-2h0ZM525,236h-1v2h1v-2h0ZM525,232h-1v2h1v-2h0ZM525,228h-1v2h1v-2h0ZM525,224h-1v2h1v-2h0ZM525,220h-1v2h1v-2h0ZM525,216h-1v2h1v-2h0ZM525,212h-1v2h1v-2h0ZM525,208h-1v2h1v-2h0ZM525,204h-1v2h1v-2h0ZM525,200h-1v2h1v-2h0ZM525,196h-1v2h1v-2h0ZM525,192h-1v2h1v-2h0ZM525,188h-1v2h1v-2h0ZM525,184h-1v2h1v-2h0ZM525,180h-1v2h1v-2h0ZM525,176h-1v2h1v-2h0ZM525,172h-1v2h1v-2h0ZM525,168h-1v2h1v-2h0ZM525,164h-1v2h1v-2h0ZM525,160h-1v2h1v-2h0ZM525,156h-1v2h1v-2h0ZM525,152h-1v2h1v-2h0ZM525,148h-1v2h1v-2h0ZM525,144h-1v2h1v-2h0ZM525,140h-1v2h1v-2h0ZM525,136h-1v2h1v-2h0ZM525,132h-1v2h1v-2h0ZM525,128h-1v2h1v-2h0ZM525,124h-1v2h1v-2h0ZM525,120h-1v2h1v-2h0ZM525,116h-1v2h1v-2h0ZM525,112h-1v2h1v-2h0ZM525,108h-1v2h1v-2h0ZM525,104h-1v2h1v-2h0ZM525,100h-1v2h1v-2h0ZM525,96h-1v2h1v-2h0ZM525,92h-1v2h1v-2h0ZM525,88h-1v2h1v-2h0ZM525,84h-1v2h1v-2h0ZM525,80h-1v2h1v-2h0ZM525,76h-1v2h1v-2h0ZM525,72h-1v2h1v-2h0ZM525,68h-1v2h1v-2h0ZM525,64h-1v2h1v-2h0ZM525,60h-1v2h1v-2h0ZM525,56h-1v2h1v-2h0ZM525,52h-1v2h1v-2h0ZM525,48h-1v2h1v-2h0ZM525,44h-1v2h1v-2h0ZM525,40h-1v2h1v-2h0ZM525,36h-1v2h1v-2h0ZM525,32h-1v2h1v-2h0ZM525,28h-1v2h1v-2h0ZM525,24h-1v2h1v-2h0ZM525,20h-1v2h1v-2h0Z"/>
    <g>
      <polyline class="cls-3" points="405.5 294 405.5 286.5 169.5 286.5 169.5 261.588"/>
      <polygon points="171.993 262.318 169.5 258 167.007 262.318 171.993 262.318"/>
    </g>
    <circle class="cls-3" cx="100.5" cy="125.5" r="3"/>
    <circle class="cls-3" cx="185.5" cy="128.5" r="3"/>
    <circle class="cls-4" cx="315.5" cy="180" r="3"/>
    <circle class="cls-4" cx="70.5" cy="275.5" r="3"/>
    <circle class="cls-3" cx="555.5" cy="339.5" r="3"/>
    <g>
      <path d="M552.247,348.673c.496.479.771,1.022.825,1.631h-.947c-.105-.462-.315-.829-.63-1.099-.315-.27-.758-.405-1.326-.405-.694,0-1.254.249-1.681.745-.427.497-.641,1.258-.641,2.285,0,.84.193,1.521.578,2.045.386.523.96.784,1.725.784.703,0,1.239-.274,1.606-.825.195-.289.341-.67.437-1.143h.947c-.083.756-.36,1.389-.83,1.899-.562.615-1.322.923-2.278.923-.823,0-1.516-.252-2.075-.758-.736-.667-1.105-1.698-1.105-3.092,0-1.059.277-1.928.83-2.605.599-.735,1.424-1.104,2.476-1.104.898,0,1.595.239,2.09.718Z"/>
      <path d="M554.303,348.15h.879v7.173h-.879v-7.173Z"/>
      <path d="M557.379,350.094v3.472c0,.267.041.485.124.654.152.312.436.469.852.469.596,0,1.001-.273,1.217-.82.117-.293.176-.694.176-1.206v-2.568h.879v5.229h-.83l.01-.771c-.111.198-.251.366-.417.503-.329.273-.728.41-1.197.41-.731,0-1.23-.249-1.495-.747-.144-.267-.216-.624-.216-1.069v-3.555h.898Z"/>
      <path d="M562.584,353.683c.026.293.102.518.225.674.226.283.618.425,1.176.425.332,0,.625-.07.877-.213.253-.141.379-.359.379-.656,0-.225-.101-.396-.303-.513-.129-.071-.384-.155-.764-.249l-.71-.176c-.453-.111-.787-.234-1.002-.371-.384-.238-.576-.566-.576-.986,0-.494.181-.895.542-1.201s.847-.459,1.457-.459c.799,0,1.374.23,1.728.693.221.293.328.609.321.947h-.83c-.017-.197-.088-.377-.215-.539-.206-.23-.564-.345-1.074-.345-.34,0-.598.063-.772.19-.175.126-.263.293-.263.5,0,.228.115.409.345.545.133.082.329.152.587.215l.593.142c.644.153,1.074.302,1.293.444.342.225.513.578.513,1.06,0,.466-.179.868-.536,1.206s-.902.508-1.634.508c-.788,0-1.346-.177-1.674-.529-.327-.354-.503-.791-.526-1.312h.845Z"/>
      <path d="M567.237,348.634h.889v1.46h.835v.718h-.835v3.413c0,.182.062.305.186.366.068.036.183.054.342.054.043,0,.088,0,.137-.004.049-.002.106-.007.171-.016v.698c-.101.029-.206.05-.314.063-.109.014-.228.02-.354.02-.41,0-.688-.105-.835-.314-.146-.211-.22-.482-.22-.818v-3.462h-.708v-.718h.708v-1.46Z"/>
      <path d="M573.07,350.238c.346.174.609.398.791.676.175.264.291.571.35.923.052.241.077.625.077,1.152h-3.804c.017.532.141.959.373,1.28.232.322.593.482,1.081.482.455,0,.818-.152,1.09-.456.151-.177.259-.381.322-.613h.864c-.022.192-.099.406-.227.642-.129.236-.272.43-.431.579-.265.261-.593.437-.983.527-.21.052-.447.078-.713.078-.646,0-1.195-.237-1.645-.71-.45-.475-.675-1.137-.675-1.99,0-.84.227-1.521.68-2.046s1.045-.786,1.776-.786c.368,0,.726.087,1.072.262ZM573.385,352.291c-.035-.381-.117-.686-.247-.913-.238-.423-.637-.635-1.195-.635-.4,0-.736.146-1.008.437-.271.292-.414.662-.431,1.111h2.881Z"/>
      <path d="M575.426,350.094h.835v.903c.068-.176.236-.39.503-.642.268-.253.575-.379.923-.379.017,0,.044.002.083.005s.106.01.2.02v.928c-.052-.01-.1-.017-.144-.02s-.092-.005-.145-.005c-.442,0-.782.143-1.021.428-.237.284-.356.612-.356.983v3.008h-.879v-5.229Z"/>
      <path d="M581.627,348.15h.972v6.318h3.599v.854h-4.57v-7.173Z"/>
      <path d="M590.86,350.615c.463.449.693,1.109.693,1.98,0,.843-.203,1.539-.61,2.089s-1.04.824-1.896.824c-.714,0-1.281-.243-1.701-.729-.421-.486-.631-1.139-.631-1.959,0-.878.222-1.577.664-2.098.443-.52,1.038-.78,1.785-.78.669,0,1.234.225,1.696.673ZM590.314,354.092c.215-.441.321-.932.321-1.471,0-.488-.077-.885-.231-1.19-.245-.481-.666-.722-1.265-.722-.531,0-.918.205-1.159.615-.241.409-.362.903-.362,1.482,0,.556.121,1.019.362,1.389.241.371.624.557,1.149.557.576,0,.971-.221,1.185-.66Z"/>
      <path d="M596.088,350.372c.369.286.592.78.666,1.479h-.854c-.052-.322-.171-.59-.356-.803-.186-.214-.483-.32-.894-.32-.56,0-.96.273-1.201.819-.156.354-.234.792-.234,1.312,0,.523.111.965.332,1.322.222.357.57.536,1.045.536.365,0,.653-.11.867-.333.213-.223.36-.526.441-.912h.854c-.098.693-.342,1.2-.732,1.521-.391.32-.89.48-1.499.48-.684,0-1.229-.25-1.636-.75-.406-.499-.61-1.123-.61-1.872,0-.918.224-1.632.669-2.144.446-.512,1.015-.767,1.704-.767.59,0,1.068.144,1.438.43Z"/>
      <path d="M600.436,352.158c.202-.025.337-.11.405-.254.039-.078.059-.19.059-.338,0-.301-.106-.519-.319-.654-.213-.135-.517-.203-.913-.203-.458,0-.783.125-.975.373-.107.137-.177.342-.21.613h-.82c.017-.646.226-1.096.627-1.35.401-.252.867-.379,1.397-.379.614,0,1.113.117,1.497.352.38.234.57.6.57,1.094v3.013c0,.091.019.165.057.22.037.055.116.083.236.083.039,0,.083-.003.132-.007.049-.006.102-.013.156-.022v.649c-.137.039-.24.063-.312.073-.071.01-.169.015-.293.015-.303,0-.522-.107-.659-.322-.071-.113-.122-.275-.151-.483-.179.234-.436.438-.771.61-.335.172-.704.259-1.108.259-.484,0-.881-.147-1.188-.441s-.462-.662-.462-1.104c0-.484.151-.859.454-1.127.303-.266.7-.43,1.191-.492l1.401-.176ZM598.585,354.533c.186.146.405.219.659.219.31,0,.609-.071.898-.215.488-.236.732-.625.732-1.164v-.707c-.107.068-.245.125-.414.171s-.335.078-.497.098l-.531.068c-.318.042-.558.108-.718.2-.272.152-.408.396-.408.73,0,.254.093.453.278.6Z"/>
      <path d="M603.219,348.15h.879v7.173h-.879v-7.173Z"/>
      <path d="M549.259,358.15h1.099l2.603,7.173h-1.064l-.728-2.148h-2.837l-.776,2.148h-.996l2.7-7.173ZM550.855,362.384l-1.089-3.169-1.157,3.169h2.246Z"/>
      <path d="M556.6,360.255c.156.098.333.269.53.513v-2.642h.845v7.197h-.791v-.728c-.204.322-.445.555-.725.698s-.599.215-.958.215c-.581,0-1.083-.245-1.508-.735-.425-.489-.638-1.141-.638-1.955,0-.762.194-1.422.581-1.98.388-.558.941-.837,1.661-.837.399,0,.733.085,1.002.254ZM554.638,364.176c.236.377.616.566,1.138.566.404,0,.737-.175.998-.525.261-.35.391-.852.391-1.506,0-.66-.134-1.15-.403-1.467-.269-.318-.601-.477-.995-.477-.441,0-.798.17-1.071.508-.274.338-.411.836-.411,1.494,0,.561.118,1.029.354,1.406Z"/>
      <path d="M562.161,360.255c.156.098.333.269.53.513v-2.642h.845v7.197h-.791v-.728c-.204.322-.445.555-.725.698s-.599.215-.958.215c-.581,0-1.083-.245-1.508-.735-.425-.489-.638-1.141-.638-1.955,0-.762.194-1.422.581-1.98.388-.558.941-.837,1.661-.837.399,0,.733.085,1.002.254ZM560.199,364.176c.236.377.616.566,1.138.566.404,0,.737-.175.998-.525.261-.35.391-.852.391-1.506,0-.66-.134-1.15-.403-1.467-.269-.318-.601-.477-.995-.477-.441,0-.798.17-1.071.508-.274.338-.411.836-.411,1.494,0,.561.118,1.029.354,1.406Z"/>
      <path d="M564.874,360.094h.835v.903c.068-.176.236-.39.503-.642.268-.253.575-.379.923-.379.017,0,.044.002.083.005s.106.01.2.02v.928c-.052-.01-.1-.017-.144-.02s-.092-.005-.145-.005c-.442,0-.782.143-1.021.428-.237.284-.356.612-.356.983v3.008h-.879v-5.229Z"/>
      <path d="M571.41,360.238c.346.174.609.398.791.676.175.264.291.571.35.923.052.241.077.625.077,1.152h-3.804c.017.532.141.959.373,1.28.232.322.593.482,1.081.482.455,0,.818-.152,1.09-.456.151-.177.259-.381.322-.613h.864c-.022.192-.099.406-.227.642-.129.236-.272.43-.431.579-.265.261-.593.437-.983.527-.21.052-.447.078-.713.078-.646,0-1.195-.237-1.645-.71-.45-.475-.675-1.137-.675-1.99,0-.84.227-1.521.68-2.046s1.045-.786,1.776-.786c.368,0,.726.087,1.072.262ZM571.725,362.291c-.035-.381-.117-.686-.247-.913-.238-.423-.637-.635-1.195-.635-.4,0-.736.146-1.008.437-.271.292-.414.662-.431,1.111h2.881Z"/>
      <path d="M574.264,363.683c.026.293.102.518.225.674.226.283.618.425,1.176.425.332,0,.625-.07.877-.213.253-.141.379-.359.379-.656,0-.225-.101-.396-.303-.513-.129-.071-.384-.155-.764-.249l-.71-.176c-.453-.111-.787-.234-1.002-.371-.384-.238-.576-.566-.576-.986,0-.494.181-.895.542-1.201s.847-.459,1.457-.459c.799,0,1.374.23,1.728.693.221.293.328.609.321.947h-.83c-.017-.197-.088-.377-.215-.539-.206-.23-.564-.345-1.074-.345-.34,0-.598.063-.772.19-.175.126-.263.293-.263.5,0,.228.115.409.345.545.133.082.329.152.587.215l.593.142c.644.153,1.074.302,1.293.444.342.225.513.578.513,1.06,0,.466-.179.868-.536,1.206s-.902.508-1.634.508c-.788,0-1.346-.177-1.674-.529-.327-.354-.503-.791-.526-1.312h.845Z"/>
      <path d="M579.264,363.683c.026.293.102.518.225.674.226.283.618.425,1.176.425.332,0,.625-.07.877-.213.253-.141.379-.359.379-.656,0-.225-.101-.396-.303-.513-.129-.071-.384-.155-.764-.249l-.71-.176c-.453-.111-.787-.234-1.002-.371-.384-.238-.576-.566-.576-.986,0-.494.181-.895.542-1.201s.847-.459,1.457-.459c.799,0,1.374.23,1.728.693.221.293.328.609.321.947h-.83c-.017-.197-.088-.377-.215-.539-.206-.23-.564-.345-1.074-.345-.34,0-.598.063-.772.19-.175.126-.263.293-.263.5,0,.228.115.409.345.545.133.082.329.152.587.215l.593.142c.644.153,1.074.302,1.293.444.342.225.513.578.513,1.06,0,.466-.179.868-.536,1.206s-.902.508-1.634.508c-.788,0-1.346-.177-1.674-.529-.327-.354-.503-.791-.526-1.312h.845Z"/>
      <path d="M586.554,358.15h3.261c.537,0,.979.08,1.328.239.661.306.992.87.992,1.694,0,.43-.089.781-.266,1.055-.178.273-.426.493-.745.659.28.114.491.264.633.449s.221.487.236.903l.034.962c.01.273.033.478.068.61.059.229.163.375.312.439v.161h-1.191c-.032-.062-.059-.142-.078-.239s-.035-.287-.049-.566l-.059-1.196c-.021-.469-.191-.782-.508-.942-.18-.088-.463-.132-.849-.132h-2.149v3.076h-.972v-7.173ZM589.71,361.437c.443,0,.794-.091,1.052-.273s.387-.511.387-.986c0-.511-.181-.859-.541-1.045-.193-.098-.451-.146-.774-.146h-2.308v2.451h2.185Z"/>
      <path d="M596.771,360.238c.346.174.609.398.791.676.175.264.291.571.35.923.052.241.077.625.077,1.152h-3.804c.017.532.141.959.373,1.28.232.322.593.482,1.081.482.455,0,.818-.152,1.09-.456.151-.177.259-.381.322-.613h.864c-.022.192-.099.406-.227.642-.129.236-.272.43-.431.579-.265.261-.593.437-.983.527-.21.052-.447.078-.713.078-.646,0-1.195-.237-1.645-.71-.45-.475-.675-1.137-.675-1.99,0-.84.227-1.521.68-2.046s1.045-.786,1.776-.786c.368,0,.726.087,1.072.262ZM597.086,362.291c-.035-.381-.117-.686-.247-.913-.238-.423-.637-.635-1.195-.635-.4,0-.736.146-1.008.437-.271.292-.414.662-.431,1.111h2.881Z"/>
      <path d="M599.511,360.094l1.006,4.121,1.021-4.121h.986l1.025,4.097,1.069-4.097h.879l-1.519,5.229h-.913l-1.064-4.048-1.03,4.048h-.913l-1.509-5.229h.962Z"/>
      <path d="M606.349,360.094h.835v.903c.068-.176.236-.39.503-.642.268-.253.575-.379.923-.379.017,0,.044.002.083.005s.106.01.2.02v.928c-.052-.01-.1-.017-.144-.02s-.092-.005-.145-.005c-.442,0-.782.143-1.021.428-.237.284-.356.612-.356.983v3.008h-.879v-5.229Z"/>
      <path d="M609.654,358.15h.894v.996h-.894v-.996ZM609.654,360.118h.894v5.205h-.894v-5.205Z"/>
      <path d="M612.052,358.634h.889v1.46h.835v.718h-.835v3.413c0,.182.062.305.186.366.068.036.183.054.342.054.043,0,.088,0,.137-.004.049-.002.106-.007.171-.016v.698c-.101.029-.206.05-.314.063-.109.014-.228.02-.354.02-.41,0-.688-.105-.835-.314-.146-.211-.22-.482-.22-.818v-3.462h-.708v-.718h.708v-1.46Z"/>
      <path d="M617.885,360.238c.346.174.609.398.791.676.175.264.291.571.35.923.052.241.077.625.077,1.152h-3.804c.017.532.141.959.373,1.28.232.322.593.482,1.081.482.455,0,.818-.152,1.09-.456.151-.177.259-.381.322-.613h.864c-.022.192-.099.406-.227.642-.129.236-.272.43-.431.579-.265.261-.593.437-.983.527-.21.052-.447.078-.713.078-.646,0-1.195-.237-1.645-.71-.45-.475-.675-1.137-.675-1.99,0-.84.227-1.521.68-2.046s1.045-.786,1.776-.786c.368,0,.726.087,1.072.262ZM618.199,362.291c-.035-.381-.117-.686-.247-.913-.238-.423-.637-.635-1.195-.635-.4,0-.736.146-1.008.437-.271.292-.414.662-.431,1.111h2.881Z"/>
    </g>
    <g>
      <line class="cls-3" x1="547.5" y1="384.5" x2="563.912" y2="384.5"/>
      <polygon points="563.182 386.993 567.5 384.5 563.182 382.007 563.182 386.993"/>
    </g>
    <circle class="cls-4" cx="555.5" cy="384.5" r="3"/>
    <g>
      <path d="M551.949,393.355c.702.375,1.132,1.03,1.289,1.968h-.962c-.114-.524-.352-.905-.712-1.146-.36-.238-.814-.358-1.363-.358-.65,0-1.197.249-1.643.747-.444.498-.667,1.24-.667,2.227,0,.854.184,1.547.551,2.082.366.536.965.804,1.794.804.635,0,1.16-.188,1.577-.563.416-.377.629-.984.639-1.824h-2.246v-.806h3.149v3.838h-.625l-.234-.923c-.323.361-.609.611-.859.752-.42.24-.953.361-1.6.361-.836,0-1.555-.275-2.156-.825-.657-.69-.985-1.638-.985-2.842s.321-2.157.963-2.866c.609-.678,1.398-1.016,2.367-1.016.664,0,1.238.131,1.724.391Z"/>
      <path d="M555.045,393.15h3.21c.635,0,1.146.18,1.537.539.39.36.585.865.585,1.517,0,.56-.174,1.048-.522,1.462-.348.416-.881.623-1.598.623h-2.24v3.032h-.972v-7.173ZM558.814,394.137c-.214-.102-.506-.151-.878-.151h-1.92v2.485h1.92c.433,0,.784-.093,1.055-.278.27-.186.404-.513.404-.981,0-.527-.193-.885-.581-1.074Z"/>
      <path d="M562.672,393.15v4.434c0,.521.099.953.296,1.299.292.521.784.781,1.477.781.83,0,1.395-.281,1.692-.845.161-.306.241-.718.241-1.235v-4.434h.981v4.028c0,.882-.119,1.562-.357,2.036-.438.865-1.265,1.299-2.479,1.299s-2.04-.434-2.475-1.299c-.238-.475-.357-1.154-.357-2.036v-4.028h.981Z"/>
      <path d="M571.598,393.15h1.393l2.062,6.064,2.048-6.064h1.382v7.173h-.928v-4.233c0-.146.004-.389.01-.728.007-.339.01-.702.01-1.089l-2.048,6.05h-.963l-2.067-6.05v.22c0,.176.005.443.015.804.01.359.015.623.015.793v4.233h-.928v-7.173Z"/>
      <path d="M583.065,395.238c.346.174.609.398.791.676.175.264.291.571.35.923.052.241.077.625.077,1.152h-3.804c.017.532.141.959.373,1.28.232.322.593.482,1.081.482.455,0,.818-.152,1.09-.456.151-.177.259-.381.322-.613h.864c-.022.192-.099.406-.227.642-.129.236-.272.43-.431.579-.265.261-.593.437-.983.527-.21.052-.447.078-.713.078-.646,0-1.195-.237-1.645-.71-.45-.475-.675-1.137-.675-1.99,0-.84.227-1.521.68-2.046s1.045-.786,1.776-.786c.368,0,.726.087,1.072.262ZM583.38,397.291c-.035-.381-.117-.686-.247-.913-.238-.423-.637-.635-1.195-.635-.4,0-.736.146-1.008.437-.271.292-.414.662-.431,1.111h2.881Z"/>
      <path d="M585.396,395.094h.869v.742c.209-.258.397-.444.566-.562.29-.198.619-.298.986-.298.417,0,.752.103,1.006.308.144.117.273.29.391.518.195-.28.425-.487.688-.622.264-.136.561-.203.889-.203.703,0,1.182.254,1.436.762.137.273.205.641.205,1.104v3.481h-.913v-3.633c0-.349-.087-.587-.261-.718-.175-.131-.387-.195-.638-.195-.345,0-.642.115-.891.347s-.374.616-.374,1.157v3.042h-.894v-3.413c0-.355-.042-.613-.127-.776-.133-.244-.382-.366-.747-.366-.332,0-.634.129-.905.386-.272.257-.408.723-.408,1.396v2.773h-.879v-5.229Z"/>
      <path d="M597.516,395.615c.463.449.693,1.109.693,1.98,0,.843-.203,1.539-.61,2.089s-1.04.824-1.896.824c-.714,0-1.281-.243-1.701-.729-.421-.486-.631-1.139-.631-1.959,0-.878.222-1.577.664-2.098.443-.52,1.038-.78,1.785-.78.669,0,1.234.225,1.696.673ZM596.97,399.092c.215-.441.321-.932.321-1.471,0-.488-.077-.885-.231-1.19-.245-.481-.666-.722-1.265-.722-.531,0-.918.205-1.159.615-.241.409-.362.903-.362,1.482,0,.556.121,1.019.362,1.389.241.371.624.557,1.149.557.576,0,.971-.221,1.185-.66Z"/>
      <path d="M599.312,395.094h.835v.903c.068-.176.236-.39.503-.642.268-.253.575-.379.923-.379.017,0,.044.002.083.005s.106.01.2.02v.928c-.052-.01-.1-.017-.144-.02s-.092-.005-.145-.005c-.442,0-.782.143-1.021.428-.237.284-.356.612-.356.983v3.008h-.879v-5.229Z"/>
      <path d="M605.888,395.094h.972c-.124.336-.399,1.101-.825,2.296-.319.899-.586,1.632-.801,2.198-.508,1.334-.865,2.146-1.073,2.439s-.566.439-1.073.439c-.124,0-.219-.005-.285-.015-.067-.01-.149-.028-.247-.054v-.801c.153.043.264.068.332.078.067.01.128.015.18.015.163,0,.282-.026.358-.081.076-.053.141-.119.192-.197.017-.025.075-.158.176-.398.101-.241.174-.42.22-.537l-1.934-5.383h.996l1.401,4.26,1.411-4.26Z"/>
      <path d="M549.259,403.15h1.099l2.603,7.173h-1.064l-.728-2.148h-2.837l-.776,2.148h-.996l2.7-7.173ZM550.855,407.384l-1.089-3.169-1.157,3.169h2.246Z"/>
      <path d="M556.6,405.255c.156.098.333.269.53.513v-2.642h.845v7.197h-.791v-.728c-.204.322-.445.555-.725.698s-.599.215-.958.215c-.581,0-1.083-.245-1.508-.735-.425-.489-.638-1.141-.638-1.955,0-.762.194-1.422.581-1.98.388-.558.941-.837,1.661-.837.399,0,.733.085,1.002.254ZM554.638,409.176c.236.377.616.566,1.138.566.404,0,.737-.175.998-.525.261-.35.391-.852.391-1.506,0-.66-.134-1.15-.403-1.467-.269-.318-.601-.477-.995-.477-.441,0-.798.17-1.071.508-.274.338-.411.836-.411,1.494,0,.561.118,1.029.354,1.406Z"/>
      <path d="M562.161,405.255c.156.098.333.269.53.513v-2.642h.845v7.197h-.791v-.728c-.204.322-.445.555-.725.698s-.599.215-.958.215c-.581,0-1.083-.245-1.508-.735-.425-.489-.638-1.141-.638-1.955,0-.762.194-1.422.581-1.98.388-.558.941-.837,1.661-.837.399,0,.733.085,1.002.254ZM560.199,409.176c.236.377.616.566,1.138.566.404,0,.737-.175.998-.525.261-.35.391-.852.391-1.506,0-.66-.134-1.15-.403-1.467-.269-.318-.601-.477-.995-.477-.441,0-.798.17-1.071.508-.274.338-.411.836-.411,1.494,0,.561.118,1.029.354,1.406Z"/>
      <path d="M564.874,405.094h.835v.903c.068-.176.236-.39.503-.642.268-.253.575-.379.923-.379.017,0,.044.002.083.005s.106.01.2.02v.928c-.052-.01-.1-.017-.144-.02s-.092-.005-.145-.005c-.442,0-.782.143-1.021.428-.237.284-.356.612-.356.983v3.008h-.879v-5.229Z"/>
      <path d="M571.41,405.238c.346.174.609.398.791.676.175.264.291.571.35.923.052.241.077.625.077,1.152h-3.804c.017.532.141.959.373,1.28.232.322.593.482,1.081.482.455,0,.818-.152,1.09-.456.151-.177.259-.381.322-.613h.864c-.022.192-.099.406-.227.642-.129.236-.272.43-.431.579-.265.261-.593.437-.983.527-.21.052-.447.078-.713.078-.646,0-1.195-.237-1.645-.71-.45-.475-.675-1.137-.675-1.99,0-.84.227-1.521.68-2.046s1.045-.786,1.776-.786c.368,0,.726.087,1.072.262ZM571.725,407.291c-.035-.381-.117-.686-.247-.913-.238-.423-.637-.635-1.195-.635-.4,0-.736.146-1.008.437-.271.292-.414.662-.431,1.111h2.881Z"/>
      <path d="M574.264,408.683c.026.293.102.518.225.674.226.283.618.425,1.176.425.332,0,.625-.07.877-.213.253-.141.379-.359.379-.656,0-.225-.101-.396-.303-.513-.129-.071-.384-.155-.764-.249l-.71-.176c-.453-.111-.787-.234-1.002-.371-.384-.238-.576-.566-.576-.986,0-.494.181-.895.542-1.201s.847-.459,1.457-.459c.799,0,1.374.23,1.728.693.221.293.328.609.321.947h-.83c-.017-.197-.088-.377-.215-.539-.206-.23-.564-.345-1.074-.345-.34,0-.598.063-.772.19-.175.126-.263.293-.263.5,0,.228.115.409.345.545.133.082.329.152.587.215l.593.142c.644.153,1.074.302,1.293.444.342.225.513.578.513,1.06,0,.466-.179.868-.536,1.206s-.902.508-1.634.508c-.788,0-1.346-.177-1.674-.529-.327-.354-.503-.791-.526-1.312h.845Z"/>
      <path d="M579.264,408.683c.026.293.102.518.225.674.226.283.618.425,1.176.425.332,0,.625-.07.877-.213.253-.141.379-.359.379-.656,0-.225-.101-.396-.303-.513-.129-.071-.384-.155-.764-.249l-.71-.176c-.453-.111-.787-.234-1.002-.371-.384-.238-.576-.566-.576-.986,0-.494.181-.895.542-1.201s.847-.459,1.457-.459c.799,0,1.374.23,1.728.693.221.293.328.609.321.947h-.83c-.017-.197-.088-.377-.215-.539-.206-.23-.564-.345-1.074-.345-.34,0-.598.063-.772.19-.175.126-.263.293-.263.5,0,.228.115.409.345.545.133.082.329.152.587.215l.593.142c.644.153,1.074.302,1.293.444.342.225.513.578.513,1.06,0,.466-.179.868-.536,1.206s-.902.508-1.634.508c-.788,0-1.346-.177-1.674-.529-.327-.354-.503-.791-.526-1.312h.845Z"/>
      <path d="M586.554,403.15h3.261c.537,0,.979.08,1.328.239.661.306.992.87.992,1.694,0,.43-.089.781-.266,1.055-.178.273-.426.493-.745.659.28.114.491.264.633.449s.221.487.236.903l.034.962c.01.273.033.478.068.61.059.229.163.375.312.439v.161h-1.191c-.032-.062-.059-.142-.078-.239s-.035-.287-.049-.566l-.059-1.196c-.021-.469-.191-.782-.508-.942-.18-.088-.463-.132-.849-.132h-2.149v3.076h-.972v-7.173ZM589.71,406.437c.443,0,.794-.091,1.052-.273s.387-.511.387-.986c0-.511-.181-.859-.541-1.045-.193-.098-.451-.146-.774-.146h-2.308v2.451h2.185Z"/>
      <path d="M596.771,405.238c.346.174.609.398.791.676.175.264.291.571.35.923.052.241.077.625.077,1.152h-3.804c.017.532.141.959.373,1.28.232.322.593.482,1.081.482.455,0,.818-.152,1.09-.456.151-.177.259-.381.322-.613h.864c-.022.192-.099.406-.227.642-.129.236-.272.43-.431.579-.265.261-.593.437-.983.527-.21.052-.447.078-.713.078-.646,0-1.195-.237-1.645-.71-.45-.475-.675-1.137-.675-1.99,0-.84.227-1.521.68-2.046s1.045-.786,1.776-.786c.368,0,.726.087,1.072.262ZM597.086,407.291c-.035-.381-.117-.686-.247-.913-.238-.423-.637-.635-1.195-.635-.4,0-.736.146-1.008.437-.271.292-.414.662-.431,1.111h2.881Z"/>
      <path d="M599.511,405.094l1.006,4.121,1.021-4.121h.986l1.025,4.097,1.069-4.097h.879l-1.519,5.229h-.913l-1.064-4.048-1.03,4.048h-.913l-1.509-5.229h.962Z"/>
      <path d="M606.349,405.094h.835v.903c.068-.176.236-.39.503-.642.268-.253.575-.379.923-.379.017,0,.044.002.083.005s.106.01.2.02v.928c-.052-.01-.1-.017-.144-.02s-.092-.005-.145-.005c-.442,0-.782.143-1.021.428-.237.284-.356.612-.356.983v3.008h-.879v-5.229Z"/>
      <path d="M609.654,403.15h.894v.996h-.894v-.996ZM609.654,405.118h.894v5.205h-.894v-5.205Z"/>
      <path d="M612.052,403.634h.889v1.46h.835v.718h-.835v3.413c0,.182.062.305.186.366.068.036.183.054.342.054.043,0,.088,0,.137-.004.049-.002.106-.007.171-.016v.698c-.101.029-.206.05-.314.063-.109.014-.228.02-.354.02-.41,0-.688-.105-.835-.314-.146-.211-.22-.482-.22-.818v-3.462h-.708v-.718h.708v-1.46Z"/>
      <path d="M617.885,405.238c.346.174.609.398.791.676.175.264.291.571.35.923.052.241.077.625.077,1.152h-3.804c.017.532.141.959.373,1.28.232.322.593.482,1.081.482.455,0,.818-.152,1.09-.456.151-.177.259-.381.322-.613h.864c-.022.192-.099.406-.227.642-.129.236-.272.43-.431.579-.265.261-.593.437-.983.527-.21.052-.447.078-.713.078-.646,0-1.195-.237-1.645-.71-.45-.475-.675-1.137-.675-1.99,0-.84.227-1.521.68-2.046s1.045-.786,1.776-.786c.368,0,.726.087,1.072.262ZM618.199,407.291c-.035-.381-.117-.686-.247-.913-.238-.423-.637-.635-1.195-.635-.4,0-.736.146-1.008.437-.271.292-.414.662-.431,1.111h2.881Z"/>
    </g>
    <g>
      <polyline class="cls-3" points="298 374.5 273 374.5 273 308.5 263.588 308.5"/>
      <polygon points="264.317 306.007 260 308.5 264.317 310.993 264.317 306.007"/>
    </g>
    <rect class="cls-3" x="241" y="79.5" width="51" height="27"/>
  </g>
</svg>