<?xml version="1.0" encoding="UTF-8"?>
<svg id="_06" data-name="06" xmlns="http://www.w3.org/2000/svg" viewBox="0 0 492 278">
  <defs>
    <style>
      .cls-1, .cls-2 {
        fill: #fff;
      }

      .cls-1, .cls-3, .cls-4, .cls-5 {
        stroke: #000;
      }

      .cls-1, .cls-3, .cls-4, .cls-5, .cls-6, .cls-7 {
        stroke-miterlimit: 10;
      }

      .cls-3 {
        stroke-dasharray: 2.028 2.028;
      }

      .cls-3, .cls-4, .cls-5, .cls-6, .cls-7 {
        fill: none;
      }

      .cls-3, .cls-4, .cls-6, .cls-7 {
        stroke-width: 1.1px;
      }

      .cls-8 {
        fill: #666;
      }

      .cls-6 {
        stroke-dasharray: 1.779 1.779;
      }

      .cls-6, .cls-7 {
        stroke: #666;
      }
    </style>
  </defs>
  <g>
    <rect class="cls-2" x="115" y="53" width="51" height="23"/>
    <path class="cls-8" d="M166,53h-2v1h2v-1h0ZM162,53h-2v1h2v-1h0ZM158,53h-2v1h2v-1h0ZM154,53h-2v1h2v-1h0ZM150,53h-2v1h2v-1h0ZM146,53h-2v1h2v-1h0ZM142,53h-2v1h2v-1h0ZM138,53h-2v1h2v-1h0ZM134,53h-2v1h2v-1h0ZM130,53h-2v1h2v-1h0ZM126,53h-2v1h2v-1h0ZM122,53h-2v1h2v-1h0ZM118,53h-2v1h-1v2h1v-2h2v-1h0ZM116,58h-1v2h1v-2h0ZM116,62h-1v2h1v-2h0ZM116,66h-1v2h1v-2h0ZM116,70h-1v2h1v-2h0ZM116,74h-1v2h1v-2h0ZM119,75h-2v1h2v-1h0ZM123,75h-2v1h2v-1h0ZM127,75h-2v1h2v-1h0ZM131,75h-2v1h2v-1h0ZM135,75h-2v1h2v-1h0ZM139,75h-2v1h2v-1h0ZM143,75h-2v1h2v-1h0ZM147,75h-2v1h2v-1h0ZM151,75h-2v1h2v-1h0ZM155,75h-2v1h2v-1h0ZM159,75h-2v1h2v-1h0ZM163,75h-2v1h2v-1h0ZM166,75h-1v1h1v-1h0ZM166,71h-1v2h1v-2h0ZM166,67h-1v2h1v-2h0ZM166,63h-1v2h1v-2h0ZM166,59h-1v2h1v-2h0ZM166,55h-1v2h1v-2h0Z"/>
  </g>
  <g>
    <rect class="cls-2" x="115" y="75" width="51" height="23"/>
    <path class="cls-8" d="M166,75h-2v1h2v-1h0ZM162,75h-2v1h2v-1h0ZM158,75h-2v1h2v-1h0ZM154,75h-2v1h2v-1h0ZM150,75h-2v1h2v-1h0ZM146,75h-2v1h2v-1h0ZM142,75h-2v1h2v-1h0ZM138,75h-2v1h2v-1h0ZM134,75h-2v1h2v-1h0ZM130,75h-2v1h2v-1h0ZM126,75h-2v1h2v-1h0ZM122,75h-2v1h2v-1h0ZM118,75h-2v1h-1v2h1v-2h2v-1h0ZM116,80h-1v2h1v-2h0ZM116,84h-1v2h1v-2h0ZM116,88h-1v2h1v-2h0ZM116,92h-1v2h1v-2h0ZM116,96h-1v2h1v-2h0ZM119,97h-2v1h2v-1h0ZM123,97h-2v1h2v-1h0ZM127,97h-2v1h2v-1h0ZM131,97h-2v1h2v-1h0ZM135,97h-2v1h2v-1h0ZM139,97h-2v1h2v-1h0ZM143,97h-2v1h2v-1h0ZM147,97h-2v1h2v-1h0ZM151,97h-2v1h2v-1h0ZM155,97h-2v1h2v-1h0ZM159,97h-2v1h2v-1h0ZM163,97h-2v1h2v-1h0ZM166,97h-1v1h1v-1h0ZM166,93h-1v2h1v-2h0ZM166,89h-1v2h1v-2h0ZM166,85h-1v2h1v-2h0ZM166,81h-1v2h1v-2h0ZM166,77h-1v2h1v-2h0Z"/>
  </g>
  <g>
    <rect class="cls-2" x="115" y="97" width="51" height="23"/>
    <path class="cls-8" d="M166,97h-2v1h2v-1h0ZM162,97h-2v1h2v-1h0ZM158,97h-2v1h2v-1h0ZM154,97h-2v1h2v-1h0ZM150,97h-2v1h2v-1h0ZM146,97h-2v1h2v-1h0ZM142,97h-2v1h2v-1h0ZM138,97h-2v1h2v-1h0ZM134,97h-2v1h2v-1h0ZM130,97h-2v1h2v-1h0ZM126,97h-2v1h2v-1h0ZM122,97h-2v1h2v-1h0ZM118,97h-2v1h-1v2h1v-2h2v-1h0ZM116,102h-1v2h1v-2h0ZM116,106h-1v2h1v-2h0ZM116,110h-1v2h1v-2h0ZM116,114h-1v2h1v-2h0ZM116,118h-1v2h1v-2h0ZM119,119h-2v1h2v-1h0ZM123,119h-2v1h2v-1h0ZM127,119h-2v1h2v-1h0ZM131,119h-2v1h2v-1h0ZM135,119h-2v1h2v-1h0ZM139,119h-2v1h2v-1h0ZM143,119h-2v1h2v-1h0ZM147,119h-2v1h2v-1h0ZM151,119h-2v1h2v-1h0ZM155,119h-2v1h2v-1h0ZM159,119h-2v1h2v-1h0ZM163,119h-2v1h2v-1h0ZM166,119h-1v1h1v-1h0ZM166,115h-1v2h1v-2h0ZM166,111h-1v2h1v-2h0ZM166,107h-1v2h1v-2h0ZM166,103h-1v2h1v-2h0ZM166,99h-1v2h1v-2h0Z"/>
  </g>
  <g>
    <rect class="cls-2" x="115" y="119" width="51" height="23"/>
    <path class="cls-8" d="M166,119h-2v1h2v-1h0ZM162,119h-2v1h2v-1h0ZM158,119h-2v1h2v-1h0ZM154,119h-2v1h2v-1h0ZM150,119h-2v1h2v-1h0ZM146,119h-2v1h2v-1h0ZM142,119h-2v1h2v-1h0ZM138,119h-2v1h2v-1h0ZM134,119h-2v1h2v-1h0ZM130,119h-2v1h2v-1h0ZM126,119h-2v1h2v-1h0ZM122,119h-2v1h2v-1h0ZM118,119h-2v1h-1v2h1v-2h2v-1h0ZM116,124h-1v2h1v-2h0ZM116,128h-1v2h1v-2h0ZM116,132h-1v2h1v-2h0ZM116,136h-1v2h1v-2h0ZM116,140h-1v2h1v-2h0ZM119,141h-2v1h2v-1h0ZM123,141h-2v1h2v-1h0ZM127,141h-2v1h2v-1h0ZM131,141h-2v1h2v-1h0ZM135,141h-2v1h2v-1h0ZM139,141h-2v1h2v-1h0ZM143,141h-2v1h2v-1h0ZM147,141h-2v1h2v-1h0ZM151,141h-2v1h2v-1h0ZM155,141h-2v1h2v-1h0ZM159,141h-2v1h2v-1h0ZM163,141h-2v1h2v-1h0ZM166,141h-1v1h1v-1h0ZM166,137h-1v2h1v-2h0ZM166,133h-1v2h1v-2h0ZM166,129h-1v2h1v-2h0ZM166,125h-1v2h1v-2h0ZM166,121h-1v2h1v-2h0Z"/>
  </g>
  <g>
    <line class="cls-5" x1="72.5" y1="130.5" x2="111.412" y2="130.5"/>
    <polygon points="110.682 132.993 115 130.5 110.682 128.007 110.682 132.993"/>
  </g>
  <g>
    <line class="cls-5" x1="140.498" y1="221.5" x2="140.498" y2="203.089"/>
    <polygon points="142.991 203.818 140.498 199.501 138.005 203.818 142.991 203.818"/>
  </g>
  <g>
    <line class="cls-5" x1="144.497" y1="180.5" x2="144.497" y2="167.588"/>
    <polygon points="146.99 168.318 144.497 164 142.004 168.318 146.99 168.318"/>
  </g>
  <g>
    <line class="cls-5" x1="195.499" y1="164" x2="195.499" y2="181.412"/>
    <polygon points="193.006 180.682 195.499 185 197.992 180.682 193.006 180.682"/>
  </g>
  <g>
    <line class="cls-5" x1="302.5" y1="202" x2="302.5" y2="212.412"/>
    <polygon points="300.007 211.682 302.5 216 304.993 211.682 300.007 211.682"/>
  </g>
  <g>
    <polyline class="cls-5" points="262.499 164 262.499 174.5 287.5 174.5 287.5 181.412"/>
    <polygon points="285.007 180.682 287.5 185 289.993 180.682 285.007 180.682"/>
  </g>
  <g>
    <polyline class="cls-5" points="340.499 164 340.499 174.5 315.5 174.5 315.5 181.412"/>
    <polygon points="313.007 180.682 315.5 185 317.993 180.682 313.007 180.682"/>
  </g>
  <g>
    <line class="cls-5" x1="210.5" y1="202" x2="210.5" y2="212.412"/>
    <polygon points="208.007 211.682 210.5 216 212.993 211.682 208.007 211.682"/>
  </g>
  <g>
    <polyline class="cls-5" points="248.499 216 248.499 174.5 223.5 174.5 223.5 181.412"/>
    <polygon points="221.007 180.682 223.5 185 225.993 180.682 221.007 180.682"/>
  </g>
  <g>
    <path d="M43.378,133.952c-.188,0-.385-.022-.591-.068s-.403-.107-.591-.187v1.982h-.873v-7.273h.873v.846h.254c.133-.291.331-.52.591-.687.26-.166.551-.25.873-.25.503,0,.897.181,1.182.541.285.36.427.856.427,1.486v1.591c0,.624-.191,1.117-.573,1.478-.381.36-.906.541-1.572.541ZM43.36,133.18c.442,0,.769-.102.978-.305s.313-.523.313-.959v-1.601c0-.399-.081-.693-.241-.882-.161-.188-.408-.281-.741-.281-.279,0-.536.074-.772.223s-.47.38-.7.695v2.755c.17.114.349.203.537.263.188.062.396.092.627.092Z"/>
    <path d="M48.942,133.952c-.485,0-.873-.167-1.164-.5-.291-.333-.436-.772-.436-1.318v-3.728h.873v3.563c0,.382.079.669.236.859.158.191.4.286.728.286.26,0,.515-.074.764-.223.248-.148.491-.374.727-.677v-3.81h.873v5.455h-.873v-.846h-.254c-.109.279-.299.505-.568.678-.27.172-.571.259-.904.259Z"/>
    <path d="M55.542,133.952c-.43,0-.847-.063-1.25-.19s-.765-.32-1.086-.58l.373-.698c.272.211.58.376.922.497.342.12.689.181,1.041.181.315,0,.594-.051.836-.153.242-.103.364-.302.364-.597,0-.271-.106-.463-.318-.574s-.6-.213-1.164-.303c-.643-.104-1.118-.275-1.427-.516s-.464-.6-.464-1.08c0-.529.187-.932.559-1.208.373-.276.823-.415,1.35-.415.394,0,.777.07,1.15.209.373.14.711.331,1.014.573l-.373.7c-.254-.2-.533-.365-.836-.496-.303-.13-.618-.195-.945-.195-.291,0-.538.058-.741.173s-.304.312-.304.591c0,.261.103.448.309.563s.594.219,1.164.31c.648.103,1.127.281,1.437.536s.463.606.463,1.055c0,.545-.205.951-.614,1.218-.409.267-.895.4-1.459.4Z"/>
    <path d="M59.378,133.861v-7.273h.873v2.664h.254c.115-.285.305-.512.568-.682s.565-.255.905-.255c.491,0,.88.164,1.168.491.288.327.432.767.432,1.318v3.736h-.873v-3.563c0-.376-.083-.661-.25-.854-.167-.194-.404-.291-.713-.291-.255,0-.509.075-.764.227-.255.152-.497.376-.728.673v3.81h-.873Z"/>
  </g>
  <g>
    <path d="M130.642,236.752c-.212,0-.424-.014-.636-.041-.212-.027-.439-.08-.682-.159l.164-.854c.206.079.4.132.582.159.182.027.36.041.536.041.364,0,.656-.085.877-.255.221-.169.332-.451.332-.845v-4.601h-2.327v-.791h3.209v5.51c0,.624-.197,1.086-.591,1.386s-.882.45-1.464.45ZM132.224,228.397c-.218,0-.394-.036-.527-.109-.133-.072-.2-.206-.2-.399v-.063c0-.2.066-.338.2-.414s.309-.113.527-.113.394.037.527.113.2.214.2.414v.063c0,.193-.068.327-.204.399-.137.073-.311.109-.523.109Z"/>
    <path d="M137.442,234.952c-.673,0-1.191-.173-1.555-.519s-.545-.839-.545-1.481v-1.601c0-.648.182-1.149.545-1.504s.885-.532,1.563-.532c.667,0,1.182.178,1.545.532.364.354.545.855.545,1.504v1.592c0,.648-.182,1.145-.545,1.49-.363.346-.882.519-1.554.519ZM137.442,234.161c.412,0,.719-.097.922-.291.203-.193.305-.5.305-.918v-1.601c0-.424-.102-.737-.305-.94s-.51-.305-.922-.305-.72.102-.923.305-.305.517-.305.94v1.601c0,.418.102.725.305.918.203.194.51.291.923.291Z"/>
    <path d="M141.36,234.861v-.791h1.664v-3.873h-1.664v-.791h2.545v4.664h1.654v.791h-4.2ZM143.469,228.397c-.218,0-.394-.036-.527-.109-.133-.072-.2-.206-.2-.399v-.063c0-.2.066-.338.2-.414s.309-.113.527-.113.394.037.527.113.2.214.2.414v.063c0,.193-.068.327-.205.399-.136.073-.311.109-.523.109Z"/>
    <path d="M147.378,234.861v-5.455h.873v.846h.254c.133-.291.332-.52.596-.687.264-.166.559-.25.886-.25.491,0,.879.162,1.164.486.285.324.427.769.427,1.332v3.728h-.873v-3.555c0-.382-.083-.67-.25-.863-.167-.194-.404-.291-.713-.291-.255,0-.509.077-.764.231-.255.154-.497.381-.728.678v3.8h-.873Z"/>
  </g>
  <g>
    <path d="M121.378,174.952c-.188,0-.385-.022-.591-.068s-.403-.107-.591-.187v1.982h-.873v-7.273h.873v.846h.254c.133-.291.331-.52.591-.687.26-.166.551-.25.873-.25.503,0,.897.181,1.182.541.285.36.427.856.427,1.486v1.591c0,.624-.191,1.117-.573,1.478-.381.36-.906.541-1.572.541ZM121.36,174.18c.442,0,.769-.102.978-.305s.313-.523.313-.959v-1.601c0-.399-.081-.693-.241-.882-.161-.188-.408-.281-.741-.281-.279,0-.536.074-.772.223s-.47.38-.7.695v2.755c.17.114.349.203.537.263.188.062.396.092.627.092Z"/>
    <path d="M127.442,174.952c-.673,0-1.191-.173-1.555-.519s-.545-.839-.545-1.481v-1.601c0-.648.182-1.149.545-1.504s.885-.532,1.563-.532c.667,0,1.182.178,1.545.532.364.354.545.855.545,1.504v1.592c0,.648-.182,1.145-.545,1.49-.363.346-.882.519-1.554.519ZM127.442,174.161c.412,0,.719-.097.922-.291.203-.193.305-.5.305-.918v-1.601c0-.424-.102-.737-.305-.94s-.51-.305-.922-.305-.72.102-.923.305-.305.517-.305.94v1.601c0,.418.102.725.305.918.203.194.51.291.923.291Z"/>
    <path d="M133.415,174.952c-.188,0-.385-.022-.591-.068s-.403-.107-.591-.187v1.982h-.873v-7.273h.873v.846h.254c.133-.291.331-.52.591-.687.26-.166.551-.25.873-.25.503,0,.897.181,1.182.541.285.36.427.856.427,1.486v1.591c0,.624-.191,1.117-.573,1.478-.381.36-.906.541-1.572.541ZM133.396,174.18c.442,0,.769-.102.978-.305s.313-.523.313-.959v-1.601c0-.399-.081-.693-.241-.882-.161-.188-.408-.281-.741-.281-.279,0-.536.074-.772.223s-.47.38-.7.695v2.755c.17.114.349.203.537.263.188.062.396.092.627.092Z"/>
  </g>
  <g>
    <path d="M294.296,224.861v-5.455h.873v.846h.254c.133-.291.332-.52.596-.687.264-.166.559-.25.886-.25.491,0,.879.162,1.164.486.285.324.427.769.427,1.332v3.728h-.873v-3.555c0-.382-.083-.67-.25-.863-.167-.194-.404-.291-.713-.291-.255,0-.509.077-.764.231-.255.154-.497.381-.728.678v3.8h-.873Z"/>
    <path d="M304.542,223.67c-.151.449-.383.774-.695.978s-.786.305-1.423.305c-.661,0-1.177-.17-1.55-.509-.373-.34-.559-.84-.559-1.5v-1.592c0-.679.195-1.188.586-1.526.391-.34.898-.51,1.522-.51.63,0,1.137.173,1.518.519.382.346.573.876.573,1.591v.882h-3.327v.637c0,.448.102.77.305.963.203.194.514.291.932.291.394,0,.68-.062.859-.187.179-.124.316-.322.414-.595l.845.254ZM301.187,221.361v.272h2.455v-.19c0-.479-.103-.828-.309-1.046s-.512-.327-.918-.327-.712.106-.918.318-.309.536-.309.973Z"/>
    <path d="M309.16,224.861l-.727-3.563-.7,3.563h-.973l-.937-5.455h.836l.618,4.755.646-3.854h.982l.709,3.709.591-4.609h.836l-.937,5.455h-.945Z"/>
    <path d="M291.76,230.916v3.945h-.8v-5.455h.8v.7h.173c.097-.248.23-.442.4-.582.169-.139.352-.209.545-.209.218,0,.4.068.545.205.146.136.249.331.309.586h.182c.103-.248.244-.442.423-.582.179-.139.374-.209.586-.209.279,0,.497.118.655.354.157.236.236.563.236.982v4.209h-.8v-4.082c0-.255-.032-.448-.095-.582-.064-.133-.159-.2-.287-.2-.115,0-.247.081-.396.241-.148.161-.298.387-.45.678v3.945h-.8v-4.082c0-.261-.033-.456-.1-.586-.067-.131-.164-.196-.291-.196-.115,0-.244.079-.386.236-.143.158-.292.386-.45.683Z"/>
    <path d="M298.678,234.952c-.449,0-.83-.127-1.146-.382-.315-.255-.473-.646-.473-1.173,0-.473.146-.847.437-1.123.291-.275.648-.413,1.073-.413h1.646v-.818c0-.278-.088-.503-.264-.673s-.439-.255-.791-.255c-.364,0-.633.062-.809.187-.176.125-.315.387-.418.786l-.763-.218c.097-.515.31-.903.641-1.164.33-.26.777-.391,1.341-.391.558,0,1.021.132,1.391.396.37.264.555.669.555,1.216v2.532c0,.31.082.507.245.592s.409.098.736.036v.801c-.382.061-.717.031-1.004-.087-.288-.118-.447-.393-.477-.822h-.173c-.152.278-.383.511-.695.695-.312.185-.663.277-1.05.277ZM298.806,234.197c.297,0,.563-.058.8-.174.236-.115.439-.311.609-.585v-.904h-1.427c-.261,0-.47.061-.627.183s-.236.332-.236.631c0,.268.068.477.205.626.136.149.362.224.677.224Z"/>
    <path d="M305.505,234.952c-.43,0-.847-.063-1.25-.19s-.765-.32-1.086-.58l.373-.698c.272.211.58.376.922.497.342.12.689.181,1.041.181.315,0,.594-.051.836-.153.242-.103.364-.302.364-.597,0-.271-.106-.463-.318-.574s-.6-.213-1.164-.303c-.643-.104-1.118-.275-1.427-.516s-.464-.6-.464-1.08c0-.529.187-.932.559-1.208.373-.276.823-.415,1.35-.415.394,0,.777.07,1.15.209.373.14.711.331,1.014.573l-.373.7c-.254-.2-.533-.365-.836-.496-.303-.13-.618-.195-.945-.195-.291,0-.538.058-.741.173s-.304.312-.304.591c0,.261.103.448.309.563s.594.219,1.164.31c.648.103,1.127.281,1.437.536s.463.606.463,1.055c0,.545-.205.951-.614,1.218-.409.267-.895.4-1.459.4Z"/>
    <path d="M310.614,232.379v2.482h-.882v-7.273h.882v4.037h.418l1.591-2.219h1.055l-1.955,2.54,1.927,2.915h-1l-1.618-2.482h-.418Z"/>
  </g>
  <g>
    <path d="M356.17,206.861v-7.273h.873v2.664h.254c.115-.285.305-.512.568-.682s.565-.255.905-.255c.491,0,.88.164,1.168.491.288.327.432.767.432,1.318v3.736h-.873v-3.563c0-.376-.083-.661-.25-.854-.167-.194-.404-.291-.713-.291-.255,0-.509.075-.764.227-.255.152-.497.376-.728.673v3.81h-.873Z"/>
    <path d="M366.416,205.67c-.151.449-.383.774-.695.978s-.786.305-1.423.305c-.661,0-1.177-.17-1.55-.509-.373-.34-.559-.84-.559-1.5v-1.592c0-.679.195-1.188.586-1.526.391-.34.898-.51,1.522-.51.63,0,1.137.173,1.518.519.382.346.573.876.573,1.591v.882h-3.327v.637c0,.448.102.77.305.963.203.194.514.291.932.291.394,0,.68-.062.859-.187.179-.124.316-.322.414-.595l.845.254ZM363.061,203.361v.272h2.455v-.19c0-.479-.103-.828-.309-1.046s-.512-.327-.918-.327-.712.106-.918.318-.309.536-.309.973Z"/>
    <path d="M369.579,206.952c-.449,0-.83-.127-1.146-.382s-.473-.646-.473-1.173c0-.473.146-.847.437-1.123.291-.275.648-.413,1.072-.413h1.646v-.818c0-.278-.088-.503-.264-.673s-.439-.255-.791-.255c-.363,0-.633.062-.809.187-.176.125-.315.387-.419.786l-.763-.218c.097-.515.31-.903.641-1.164.33-.26.777-.391,1.341-.391.558,0,1.021.132,1.391.396.37.264.555.669.555,1.216v2.532c0,.31.082.507.245.592.164.085.409.098.736.036v.801c-.382.061-.717.031-1.004-.087-.288-.118-.447-.393-.478-.822h-.173c-.151.278-.383.511-.695.695s-.662.277-1.05.277ZM369.706,206.197c.297,0,.563-.058.8-.174.236-.115.439-.311.609-.585v-.904h-1.427c-.261,0-.47.061-.628.183-.157.122-.236.332-.236.631,0,.268.068.477.205.626.136.149.361.224.677.224Z"/>
    <path d="M377.297,206.016c-.133.297-.329.527-.586.69-.258.164-.551.246-.878.246-.509,0-.904-.179-1.186-.536-.282-.358-.423-.854-.423-1.491v-1.591c0-.637.188-1.132.563-1.486s.902-.532,1.582-.532c.193,0,.392.022.595.068s.398.107.587.187v-1.982h.872v7.273h-.872v-.846h-.255ZM376.079,206.115c.278,0,.537-.075.777-.227.239-.151.471-.382.695-.691v-2.754c-.17-.122-.351-.211-.541-.269-.191-.058-.396-.087-.613-.087-.443,0-.771.104-.982.31s-.318.524-.318.954v1.592c0,.399.082.695.246.886.163.191.409.286.736.286Z"/>
    <path d="M388.297,206.952c-.357,0-.714-.054-1.068-.159-.354-.106-.677-.256-.968-.45v-6.755h.872v2.664h.255c.133-.297.329-.527.586-.69.258-.164.551-.246.878-.246.509,0,.904.176,1.187.527.281.352.422.852.422,1.5v1.591c0,.643-.189,1.14-.567,1.491-.379.352-.911.527-1.596.527ZM388.297,206.18c.437,0,.761-.102.973-.305s.318-.523.318-.959v-1.582c0-.406-.081-.705-.241-.896-.16-.191-.407-.286-.741-.286-.278,0-.537.075-.777.227-.239.152-.471.382-.695.691v2.791c.176.108.357.189.546.24.188.052.394.078.618.078Z"/>
    <path d="M392.679,206.861v-5.455h.882v.873h.245c.115-.333.294-.577.536-.731.242-.155.533-.232.873-.232.382,0,.697.132.945.396.249.264.373.638.373,1.123v.836h-.837v-.518c0-.346-.067-.599-.204-.76-.137-.16-.35-.24-.641-.24-.261,0-.499.069-.714.209s-.408.352-.577.636v3.864h-.882Z"/>
    <path d="M399.669,206.952c-.448,0-.83-.127-1.146-.382-.314-.255-.473-.646-.473-1.173,0-.473.146-.847.437-1.123.291-.275.648-.413,1.073-.413h1.646v-.818c0-.278-.088-.503-.264-.673s-.439-.255-.791-.255c-.364,0-.634.062-.81.187-.176.125-.315.387-.418.786l-.764-.218c.097-.515.311-.903.641-1.164.33-.26.777-.391,1.341-.391.558,0,1.021.132,1.392.396.369.264.555.669.555,1.216v2.532c0,.31.081.507.245.592.163.085.409.098.736.036v.801c-.382.061-.717.031-1.005-.087s-.446-.393-.477-.822h-.173c-.152.278-.384.511-.695.695-.312.185-.663.277-1.051.277ZM399.797,206.197c.297,0,.563-.058.8-.174.236-.115.439-.311.609-.585v-.904h-1.428c-.261,0-.47.061-.627.183-.158.122-.236.332-.236.631,0,.268.067.477.204.626s.362.224.678.224Z"/>
    <path d="M404.314,206.861v-5.455h.873v.846h.254c.134-.291.332-.52.596-.687.264-.166.56-.25.887-.25.491,0,.879.162,1.163.486.285.324.428.769.428,1.332v3.728h-.873v-3.555c0-.382-.083-.67-.25-.863-.166-.194-.404-.291-.713-.291-.255,0-.51.077-.764.231-.255.154-.497.381-.728.678v3.8h-.873Z"/>
    <path d="M412.551,206.952c-.739,0-1.294-.171-1.663-.514-.37-.343-.555-.838-.555-1.486v-1.601c0-.666.185-1.172.555-1.518.369-.346.921-.519,1.654-.519.648,0,1.146.154,1.495.464.349.309.544.775.587,1.4l-.864.045c-.024-.399-.135-.687-.332-.859-.196-.172-.495-.259-.896-.259-.442,0-.773.1-.995.3s-.332.513-.332.937v1.618c0,.412.11.716.332.909.222.194.556.291,1.005.291.399,0,.698-.071.896-.214.196-.143.305-.383.322-.723l.864.046c-.037.563-.228.984-.573,1.264-.346.278-.846.418-1.5.418Z"/>
    <path d="M416.351,206.861v-7.273h.873v2.664h.254c.115-.285.305-.512.568-.682s.565-.255.905-.255c.49,0,.88.164,1.168.491.287.327.432.767.432,1.318v3.736h-.873v-3.563c0-.376-.083-.661-.25-.854-.166-.194-.404-.291-.713-.291-.255,0-.51.075-.764.227-.255.152-.497.376-.728.673v3.81h-.873Z"/>
    <path d="M431.359,206.943c-.563,0-1.003-.152-1.318-.455-.314-.303-.473-.745-.473-1.327v-2.964h-1.399v-.791h1.399v-1.818h.882v1.818h2.146v.791h-2.146v2.873c0,.346.081.604.241.777s.396.259.704.259c.206,0,.402-.015.587-.045s.359-.076.522-.137l.173.809c-.176.062-.374.111-.596.15-.221.039-.462.06-.723.06Z"/>
    <path d="M435.777,206.952c-.448,0-.83-.127-1.146-.382-.314-.255-.473-.646-.473-1.173,0-.473.146-.847.437-1.123.291-.275.648-.413,1.073-.413h1.646v-.818c0-.278-.088-.503-.264-.673s-.439-.255-.791-.255c-.364,0-.634.062-.81.187-.176.125-.315.387-.418.786l-.764-.218c.097-.515.311-.903.641-1.164.33-.26.777-.391,1.341-.391.558,0,1.021.132,1.392.396.369.264.555.669.555,1.216v2.532c0,.31.081.507.245.592.163.085.409.098.736.036v.801c-.382.061-.717.031-1.005-.087s-.446-.393-.477-.822h-.173c-.152.278-.384.511-.695.695-.312.185-.663.277-1.051.277ZM435.905,206.197c.297,0,.563-.058.8-.174.236-.115.439-.311.609-.585v-.904h-1.428c-.261,0-.47.061-.627.183-.158.122-.236.332-.236.631,0,.268.067.477.204.626s.362.224.678.224Z"/>
    <path d="M441.695,204.379v2.482h-.882v-7.273h.882v4.037h.419l1.591-2.219h1.055l-1.955,2.54,1.928,2.915h-1l-1.618-2.482h-.419Z"/>
    <path d="M450.668,205.67c-.151.449-.383.774-.695.978-.312.203-.786.305-1.423.305-.66,0-1.177-.17-1.55-.509-.373-.34-.559-.84-.559-1.5v-1.592c0-.679.195-1.188.586-1.526.391-.34.898-.51,1.522-.51.631,0,1.137.173,1.519.519s.572.876.572,1.591v.882h-3.327v.637c0,.448.102.77.305.963.203.194.514.291.932.291.395,0,.681-.062.859-.187.179-.124.316-.322.414-.595l.845.254ZM447.313,203.361v.272h2.455v-.19c0-.479-.104-.828-.31-1.046s-.512-.327-.918-.327-.712.106-.918.318-.31.536-.31.973Z"/>
    <path d="M452.459,206.861v-5.455h.873v.846h.254c.134-.291.332-.52.596-.687.264-.166.56-.25.887-.25.491,0,.879.162,1.163.486.285.324.428.769.428,1.332v3.728h-.873v-3.555c0-.382-.083-.67-.25-.863-.166-.194-.404-.291-.713-.291-.255,0-.51.077-.764.231-.255.154-.497.381-.728.678v3.8h-.873Z"/>
  </g>
  <g>
    <path d="M239.506,224.952c-.74,0-1.294-.171-1.664-.514-.37-.343-.555-.838-.555-1.486v-1.601c0-.666.185-1.172.555-1.518.369-.346.921-.519,1.654-.519.648,0,1.147.154,1.496.464.348.309.544.775.586,1.4l-.864.045c-.024-.399-.135-.687-.332-.859-.197-.172-.495-.259-.896-.259-.442,0-.774.1-.995.3-.222.2-.332.513-.332.937v1.618c0,.412.11.716.332.909.221.194.556.291,1.004.291.4,0,.698-.071.896-.214.197-.143.305-.383.323-.723l.864.046c-.037.563-.228.984-.573,1.264-.346.278-.846.418-1.5.418Z"/>
    <path d="M244.906,224.952c-.485,0-.873-.167-1.164-.5-.291-.333-.436-.772-.436-1.318v-3.728h.873v3.563c0,.382.079.669.236.859.158.191.4.286.728.286.26,0,.515-.074.764-.223.248-.148.491-.374.727-.677v-3.81h.873v5.455h-.873v-.846h-.254c-.109.279-.299.505-.568.678-.27.172-.571.259-.904.259Z"/>
    <path d="M249.724,224.861v-5.455h.882v.873h.246c.115-.333.294-.577.536-.731.242-.155.533-.232.873-.232.382,0,.697.132.946.396s.373.638.373,1.123v.836h-.836v-.518c0-.346-.068-.599-.205-.76-.136-.16-.35-.24-.641-.24-.261,0-.499.069-.714.209-.215.14-.408.352-.577.636v3.864h-.882Z"/>
    <path d="M255.742,224.861v-5.455h.882v.873h.246c.115-.333.294-.577.536-.731.242-.155.533-.232.873-.232.382,0,.697.132.946.396s.373.638.373,1.123v.836h-.836v-.518c0-.346-.068-.599-.205-.76-.136-.16-.35-.24-.641-.24-.261,0-.499.069-.714.209-.215.14-.408.352-.577.636v3.864h-.882Z"/>
    <path d="M245.36,234.952c-.188,0-.385-.022-.591-.068s-.403-.107-.591-.187v1.982h-.873v-7.273h.873v.846h.254c.133-.291.331-.52.591-.687.26-.166.551-.25.873-.25.503,0,.897.181,1.182.541.285.36.427.856.427,1.486v1.591c0,.624-.191,1.117-.573,1.478-.381.36-.906.541-1.572.541ZM245.342,234.18c.442,0,.769-.102.978-.305s.313-.523.313-.959v-1.601c0-.399-.081-.693-.241-.882-.161-.188-.408-.281-.741-.281-.279,0-.536.074-.772.223s-.47.38-.7.695v2.755c.17.114.349.203.537.263.188.062.396.092.627.092Z"/>
    <path d="M251.542,234.952c-.74,0-1.294-.171-1.664-.514-.37-.343-.555-.838-.555-1.486v-1.601c0-.666.185-1.172.555-1.518.369-.346.921-.519,1.654-.519.648,0,1.147.154,1.496.464.348.309.544.775.586,1.4l-.864.045c-.024-.399-.135-.687-.332-.859-.197-.172-.495-.259-.896-.259-.442,0-.774.1-.995.3-.222.2-.332.513-.332.937v1.618c0,.412.11.716.332.909.221.194.556.291,1.004.291.4,0,.698-.071.896-.214.197-.143.305-.383.323-.723l.864.046c-.037.563-.228.984-.573,1.264-.346.278-.846.418-1.5.418Z"/>
  </g>
  <g>
    <path d="M202.296,224.861v-5.455h.873v.846h.254c.133-.291.332-.52.596-.687.264-.166.559-.25.886-.25.491,0,.879.162,1.164.486.285.324.427.769.427,1.332v3.728h-.873v-3.555c0-.382-.083-.67-.25-.863-.167-.194-.404-.291-.713-.291-.255,0-.509.077-.764.231-.255.154-.497.381-.728.678v3.8h-.873Z"/>
    <path d="M212.542,223.67c-.151.449-.383.774-.695.978s-.786.305-1.423.305c-.661,0-1.177-.17-1.55-.509-.373-.34-.559-.84-.559-1.5v-1.592c0-.679.195-1.188.586-1.526.391-.34.898-.51,1.522-.51.63,0,1.137.173,1.518.519.382.346.573.876.573,1.591v.882h-3.327v.637c0,.448.102.77.305.963.203.194.514.291.932.291.394,0,.68-.062.859-.187.179-.124.316-.322.414-.595l.845.254ZM209.187,221.361v.272h2.455v-.19c0-.479-.103-.828-.309-1.046s-.512-.327-.918-.327-.712.106-.918.318-.309.536-.309.973Z"/>
    <path d="M217.16,224.861l-.727-3.563-.7,3.563h-.973l-.937-5.455h.836l.618,4.755.646-3.854h.982l.709,3.709.591-4.609h.836l-.937,5.455h-.945Z"/>
    <path d="M207.36,234.952c-.188,0-.385-.022-.591-.068s-.403-.107-.591-.187v1.982h-.873v-7.273h.873v.846h.254c.133-.291.331-.52.591-.687.26-.166.551-.25.873-.25.503,0,.897.181,1.182.541.285.36.427.856.427,1.486v1.591c0,.624-.191,1.117-.573,1.478-.381.36-.906.541-1.572.541ZM207.342,234.18c.442,0,.769-.102.978-.305s.313-.523.313-.959v-1.601c0-.399-.081-.693-.241-.882-.161-.188-.408-.281-.741-.281-.279,0-.536.074-.772.223s-.47.38-.7.695v2.755c.17.114.349.203.537.263.188.062.396.092.627.092Z"/>
    <path d="M213.542,234.952c-.74,0-1.294-.171-1.664-.514-.37-.343-.555-.838-.555-1.486v-1.601c0-.666.185-1.172.555-1.518.369-.346.921-.519,1.654-.519.648,0,1.147.154,1.496.464.348.309.544.775.586,1.4l-.864.045c-.024-.399-.135-.687-.332-.859-.197-.172-.495-.259-.896-.259-.442,0-.774.1-.995.3-.222.2-.332.513-.332.937v1.618c0,.412.11.716.332.909.221.194.556.291,1.004.291.4,0,.698-.071.896-.214.197-.143.305-.383.323-.723l.864.046c-.037.563-.228.984-.573,1.264-.346.278-.846.418-1.5.418Z"/>
  </g>
  <g>
    <path class="cls-8" d="M126.591,133.899l-.727-3.563-.7,3.563h-.973l-.937-5.454h.836l.618,4.754.646-3.854h.982l.709,3.71.591-4.609h.836l-.937,5.454h-.945Z"/>
    <path class="cls-8" d="M131.837,133.99c-.188,0-.385-.022-.591-.067-.206-.046-.403-.108-.591-.187v1.981h-.873v-7.272h.873v.846h.254c.133-.291.331-.521.591-.687.26-.167.551-.25.873-.25.503,0,.897.18,1.182.541.285.36.427.855.427,1.486v1.591c0,.624-.191,1.116-.573,1.477-.381.361-.906.541-1.572.541ZM131.818,133.218c.442,0,.769-.102.978-.305s.313-.522.313-.959v-1.6c0-.4-.081-.694-.241-.882-.161-.188-.408-.282-.741-.282-.279,0-.536.074-.772.223s-.47.381-.7.695v2.755c.17.115.349.203.537.264.188.061.396.091.627.091Z"/>
    <path class="cls-8" d="M138.773,133.981c-.563,0-1.003-.151-1.318-.454-.315-.304-.473-.746-.473-1.328v-2.963h-1.4v-.791h1.4v-1.818h.882v1.818h2.146v.791h-2.146v2.872c0,.346.081.604.241.777.16.173.395.26.704.26.206,0,.402-.016.586-.046.185-.03.359-.075.523-.137l.173.81c-.176.061-.375.11-.596.15-.221.039-.462.059-.723.059Z"/>
    <path class="cls-8" d="M142.218,133.899v-5.454h.882v.872h.246c.115-.333.294-.577.536-.731s.533-.231.873-.231c.382,0,.697.132.946.396s.373.638.373,1.122v.837h-.836v-.519c0-.346-.068-.599-.205-.759-.136-.161-.35-.241-.641-.241-.261,0-.499.07-.714.209-.215.14-.408.352-.577.637v3.863h-.882Z"/>
    <path class="cls-8" d="M155.936,133.19v-2.5h-2.9v-.854h2.9v-2.5h.164l2.772,2.837v.182l-2.772,2.836h-.164Z"/>
  </g>
  <g>
    <rect class="cls-2" x="165.5" y="53.5" width="59" height="22"/>
    <path d="M224,54v21h-58v-21h58M225,53h-60v23h60v-23h0Z"/>
  </g>
  <g>
    <rect class="cls-2" x="165.5" y="75.5" width="59" height="22"/>
    <path d="M224,76v21h-58v-21h58M225,75h-60v23h60v-23h0Z"/>
  </g>
  <g>
    <rect class="cls-2" x="165.5" y="97.5" width="59" height="22"/>
    <path d="M224,98v21h-58v-21h58M225,97h-60v23h60v-23h0Z"/>
  </g>
  <g>
    <rect class="cls-2" x="165.5" y="119.5" width="59" height="22"/>
    <path d="M224,120v21h-58v-21h58M225,119h-60v23h60v-23h0Z"/>
  </g>
  <g>
    <rect class="cls-2" x="224.5" y="53.5" width="77" height="22"/>
    <path d="M301,54v21h-76v-21h76M302,53h-78v23h78v-23h0Z"/>
  </g>
  <g>
    <rect class="cls-2" x="224.5" y="75.5" width="77" height="22"/>
    <path d="M301,76v21h-76v-21h76M302,75h-78v23h78v-23h0Z"/>
  </g>
  <g>
    <rect class="cls-2" x="224.5" y="97.5" width="77" height="22"/>
    <path d="M301,98v21h-76v-21h76M302,97h-78v23h78v-23h0Z"/>
  </g>
  <g>
    <rect class="cls-2" x="224.5" y="119.5" width="77" height="22"/>
    <path d="M301,120v21h-76v-21h76M302,119h-78v23h78v-23h0Z"/>
  </g>
  <g>
    <rect class="cls-2" x="301.5" y="53.5" width="99" height="22"/>
    <path d="M400,54v21h-98v-21h98M401,53h-100v23h100v-23h0Z"/>
  </g>
  <g>
    <rect class="cls-2" x="301.5" y="75.5" width="99" height="22"/>
    <path d="M400,76v21h-98v-21h98M401,75h-100v23h100v-23h0Z"/>
  </g>
  <g>
    <rect class="cls-2" x="301.5" y="97.5" width="99" height="22"/>
    <path d="M400,98v21h-98v-21h98M401,97h-100v23h100v-23h0Z"/>
  </g>
  <g>
    <rect class="cls-2" x="301.5" y="119.5" width="99" height="22"/>
    <path d="M400,120v21h-98v-21h98M401,119h-100v23h100v-23h0Z"/>
  </g>
  <circle class="cls-5" cx="389.5" cy="108.5" r="5"/>
  <g>
    <rect class="cls-2" x="115" y="141" width="51" height="23"/>
    <path class="cls-8" d="M166,141h-2v1h2v-1h0ZM162,141h-2v1h2v-1h0ZM158,141h-2v1h2v-1h0ZM154,141h-2v1h2v-1h0ZM150,141h-2v1h2v-1h0ZM146,141h-2v1h2v-1h0ZM142,141h-2v1h2v-1h0ZM138,141h-2v1h2v-1h0ZM134,141h-2v1h2v-1h0ZM130,141h-2v1h2v-1h0ZM126,141h-2v1h2v-1h0ZM122,141h-2v1h2v-1h0ZM118,141h-2v1h-1v2h1v-2h2v-1h0ZM116,146h-1v2h1v-2h0ZM116,150h-1v2h1v-2h0ZM116,154h-1v2h1v-2h0ZM116,158h-1v2h1v-2h0ZM116,162h-1v2h1v-2h0ZM119,163h-2v1h2v-1h0ZM123,163h-2v1h2v-1h0ZM127,163h-2v1h2v-1h0ZM131,163h-2v1h2v-1h0ZM135,163h-2v1h2v-1h0ZM139,163h-2v1h2v-1h0ZM143,163h-2v1h2v-1h0ZM147,163h-2v1h2v-1h0ZM151,163h-2v1h2v-1h0ZM155,163h-2v1h2v-1h0ZM159,163h-2v1h2v-1h0ZM163,163h-2v1h2v-1h0ZM166,163h-1v1h1v-1h0ZM166,159h-1v2h1v-2h0ZM166,155h-1v2h1v-2h0ZM166,151h-1v2h1v-2h0ZM166,147h-1v2h1v-2h0ZM166,143h-1v2h1v-2h0Z"/>
  </g>
  <g>
    <rect class="cls-2" x="165.5" y="141.5" width="59" height="22"/>
    <path d="M224,142v21h-58v-21h58M225,141h-60v23h60v-23h0Z"/>
  </g>
  <g>
    <rect class="cls-2" x="224.5" y="141.5" width="77" height="22"/>
    <path d="M301,142v21h-76v-21h76M302,141h-78v23h78v-23h0Z"/>
  </g>
  <g>
    <rect class="cls-2" x="301.5" y="141.5" width="99" height="22"/>
    <path d="M400,142v21h-98v-21h98M401,141h-100v23h100v-23h0Z"/>
  </g>
  <circle class="cls-5" cx="389.5" cy="64.5" r="5"/>
  <g>
    <g>
      <line class="cls-4" x1="378.502" y1="54.009" x2="378.502" y2="55.009"/>
      <line class="cls-3" x1="378.502" y1="57.038" x2="378.502" y2="161.495"/>
      <line class="cls-4" x1="378.502" y1="162.509" x2="378.502" y2="163.509"/>
    </g>
    <line class="cls-2" x1="378.502" y1="54.009" x2="378.502" y2="163.509"/>
  </g>
  <g>
    <g>
      <line class="cls-7" x1="378.502" y1="163.5" x2="378.502" y2="164.5"/>
      <line class="cls-6" x1="378.502" y1="166.279" x2="378.502" y2="179.62"/>
      <line class="cls-7" x1="378.502" y1="180.509" x2="378.502" y2="181.509"/>
    </g>
    <line class="cls-2" x1="378.502" y1="163.5" x2="378.502" y2="181.509"/>
  </g>
  <g>
    <path class="cls-8" d="M40.483,90.743h5.971v1.055h-4.805v2.613h4.225v1.025h-4.225v3.914h-1.166v-8.607Z"/>
    <path class="cls-8" d="M47.59,93.075h1.002v1.084c.082-.211.283-.468.604-.771s.689-.454,1.107-.454c.02,0,.053.002.1.006s.127.012.24.023v1.113c-.062-.012-.12-.02-.173-.023s-.11-.006-.173-.006c-.531,0-.939.171-1.225.513s-.428.735-.428,1.181v3.609h-1.055v-6.275Z"/>
    <path class="cls-8" d="M56.104,93.701c.555.539.832,1.331.832,2.377,0,1.011-.245,1.846-.733,2.506-.488.659-1.247.989-2.274.989-.857,0-1.538-.292-2.042-.875-.504-.584-.756-1.367-.756-2.351,0-1.054.266-1.894.797-2.518.532-.624,1.245-.937,2.141-.937.803,0,1.482.27,2.037.808ZM55.449,97.872c.257-.529.385-1.117.385-1.765,0-.585-.093-1.062-.278-1.428-.293-.578-.799-.866-1.518-.866-.638,0-1.101.245-1.391.737-.29.491-.435,1.085-.435,1.779,0,.667.145,1.223.435,1.668.29.444.749.667,1.379.667.691,0,1.166-.265,1.422-.793Z"/>
    <path class="cls-8" d="M58.231,93.075h1.043v.891c.25-.309.477-.533.68-.674.348-.238.742-.357,1.184-.357.5,0,.902.123,1.207.369.172.141.328.348.469.621.234-.336.51-.585.826-.747s.672-.243,1.066-.243c.844,0,1.418.305,1.723.914.164.328.246.77.246,1.324v4.178h-1.096v-4.359c0-.418-.104-.705-.313-.861s-.464-.234-.765-.234c-.414,0-.771.139-1.069.416s-.448.74-.448,1.389v3.65h-1.072v-4.096c0-.426-.051-.736-.152-.932-.16-.293-.459-.439-.896-.439-.398,0-.761.154-1.087.463s-.489.867-.489,1.676v3.328h-1.055v-6.275Z"/>
    <path class="cls-8" d="M40.943,102.743l1.623,6.993,1.946-6.993h1.26l1.95,7.006,1.623-7.006h1.278l-2.262,8.607h-1.225l-1.986-7.137-1.998,7.137h-1.225l-2.25-8.607h1.266Z"/>
    <path class="cls-8" d="M51.375,105.075h1.002v1.084c.082-.211.283-.468.604-.771s.689-.454,1.107-.454c.02,0,.053.002.1.006s.127.012.24.023v1.113c-.062-.012-.12-.02-.173-.023s-.11-.006-.173-.006c-.531,0-.939.171-1.225.513s-.428.735-.428,1.181v3.609h-1.055v-6.275Z"/>
    <path class="cls-8" d="M55.342,102.743h1.072v1.195h-1.072v-1.195ZM55.342,105.104h1.072v6.246h-1.072v-6.246Z"/>
    <path class="cls-8" d="M58.219,103.323h1.066v1.752h1.002v.861h-1.002v4.096c0,.219.074.365.223.439.082.043.219.064.41.064.051,0,.105-.002.164-.004.059-.003.127-.01.205-.02v.838c-.121.035-.247.061-.378.076s-.272.023-.425.023c-.492,0-.826-.126-1.002-.378s-.264-.579-.264-.981v-4.154h-.85v-.861h.85v-1.752Z"/>
    <path class="cls-8" d="M65.218,105.248c.416.209.732.479.949.812.21.316.35.686.419,1.107.062.289.093.75.093,1.383h-4.564c.02.639.168,1.15.448,1.536.279.386.711.579,1.296.579.546,0,.982-.183,1.308-.548.182-.212.311-.457.387-.735h1.037c-.027.23-.118.487-.272.771s-.327.515-.517.694c-.318.312-.711.523-1.18.633-.252.062-.537.094-.855.094-.776,0-1.434-.284-1.974-.853-.54-.568-.81-1.364-.81-2.388,0-1.008.271-1.826.815-2.455.543-.629,1.254-.943,2.131-.943.442,0,.872.104,1.287.313ZM65.596,107.712c-.042-.457-.142-.822-.296-1.096-.287-.508-.765-.762-1.435-.762-.48,0-.883.175-1.208.524s-.498.794-.517,1.333h3.457Z"/>
    <path class="cls-8" d="M67.928,102.714h1.025v3.123c.231-.301.508-.53.83-.688.321-.158.67-.237,1.047-.237.784,0,1.42.269,1.909.806s.732,1.329.732,2.376c0,.992-.241,1.816-.724,2.473s-1.151.984-2.006.984c-.478,0-.882-.115-1.211-.346-.196-.137-.406-.355-.629-.656v.803h-.973v-8.637ZM71.961,109.938c.284-.453.426-1.051.426-1.793,0-.66-.142-1.207-.426-1.641s-.703-.65-1.255-.65c-.482,0-.904.178-1.267.533-.363.355-.544.941-.544,1.758,0,.59.074,1.068.224,1.436.278.691.797,1.037,1.558,1.037.572,0,1-.227,1.285-.68Z"/>
    <path class="cls-8" d="M78.053,107.553c.242-.031.404-.133.486-.305.047-.094.07-.229.07-.405,0-.361-.128-.623-.383-.785-.255-.163-.621-.244-1.097-.244-.55,0-.939.149-1.169.447-.129.165-.212.41-.251.736h-.984c.02-.775.27-1.315.752-1.619s1.041-.455,1.677-.455c.737,0,1.336.141,1.797.422.457.281.685.719.685,1.312v3.615c0,.109.022.197.067.264s.14.1.284.1c.047,0,.1-.003.158-.009s.121-.015.188-.026v.779c-.164.047-.289.076-.375.088s-.203.018-.352.018c-.363,0-.627-.129-.791-.387-.086-.137-.146-.33-.182-.58-.215.281-.523.525-.926.732s-.846.311-1.33.311c-.582,0-1.058-.177-1.427-.53-.369-.353-.554-.795-.554-1.325,0-.581.182-1.032.545-1.352.363-.32.84-.518,1.43-.591l1.682-.211ZM75.833,110.401c.223.176.486.264.791.264.371,0,.73-.086,1.078-.258.586-.284.879-.751.879-1.398v-.848c-.129.082-.294.15-.497.206-.203.055-.401.094-.597.117l-.637.082c-.382.051-.669.13-.862.239-.326.184-.489.476-.489.877,0,.304.111.544.334.719Z"/>
    <path class="cls-8" d="M85.509,105.409c.443.344.71.936.8,1.775h-1.025c-.062-.387-.205-.708-.428-.964s-.58-.384-1.072-.384c-.672,0-1.152.327-1.441.983-.188.425-.281.949-.281,1.574s.133,1.156.398,1.586c.266.429.684.644,1.254.644.438,0,.784-.134,1.04-.4s.433-.631.53-1.094h1.025c-.117.832-.41,1.44-.879,1.825s-1.068.577-1.799.577c-.82,0-1.475-.3-1.963-.899s-.732-1.349-.732-2.247c0-1.102.268-1.959.803-2.572s1.217-.92,2.045-.92c.707,0,1.282.172,1.726.516Z"/>
    <path class="cls-8" d="M87.34,102.743h1.014v4.997l2.705-2.665h1.347l-2.412,2.333,2.547,3.942h-1.347l-1.974-3.193-.866.838v2.355h-1.014v-8.607Z"/>
  </g>
  <g>
    <path class="cls-8" d="M40.483,216.743h5.971v1.055h-4.805v2.613h4.225v1.025h-4.225v3.914h-1.166v-8.607Z"/>
    <path class="cls-8" d="M47.59,219.075h1.002v1.084c.082-.211.283-.468.604-.771s.689-.454,1.107-.454c.02,0,.053.002.1.006s.127.012.24.023v1.113c-.062-.012-.12-.02-.173-.023s-.11-.006-.173-.006c-.531,0-.939.171-1.225.513s-.428.735-.428,1.181v3.609h-1.055v-6.275Z"/>
    <path class="cls-8" d="M56.104,219.701c.555.539.832,1.331.832,2.377,0,1.011-.245,1.846-.733,2.506-.488.659-1.247.989-2.274.989-.857,0-1.538-.292-2.042-.875-.504-.584-.756-1.367-.756-2.351,0-1.054.266-1.894.797-2.518.532-.624,1.245-.937,2.141-.937.803,0,1.482.27,2.037.808ZM55.449,223.872c.257-.529.385-1.117.385-1.765,0-.585-.093-1.062-.278-1.428-.293-.578-.799-.866-1.518-.866-.638,0-1.101.245-1.391.737-.29.491-.435,1.085-.435,1.779,0,.667.145,1.223.435,1.668.29.444.749.667,1.379.667.691,0,1.166-.265,1.422-.793Z"/>
    <path class="cls-8" d="M58.231,219.075h1.043v.891c.25-.309.477-.533.68-.674.348-.238.742-.357,1.184-.357.5,0,.902.123,1.207.369.172.141.328.348.469.621.234-.336.51-.585.826-.747s.672-.243,1.066-.243c.844,0,1.418.305,1.723.914.164.328.246.77.246,1.324v4.178h-1.096v-4.359c0-.418-.104-.705-.313-.861s-.464-.234-.765-.234c-.414,0-.771.139-1.069.416s-.448.74-.448,1.389v3.65h-1.072v-4.096c0-.426-.051-.736-.152-.932-.16-.293-.459-.439-.896-.439-.398,0-.761.154-1.087.463s-.489.867-.489,1.676v3.328h-1.055v-6.275Z"/>
    <path class="cls-8" d="M72.273,216.743l1.623,6.993,1.946-6.993h1.26l1.95,7.006,1.623-7.006h1.278l-2.262,8.607h-1.225l-1.986-7.137-1.998,7.137h-1.225l-2.25-8.607h1.266Z"/>
    <path class="cls-8" d="M85.811,221.553c.242-.031.404-.133.486-.305.047-.094.07-.229.07-.405,0-.361-.128-.623-.383-.785-.255-.163-.621-.244-1.097-.244-.55,0-.939.149-1.169.447-.129.165-.212.41-.251.736h-.984c.02-.775.27-1.315.752-1.619s1.041-.455,1.677-.455c.737,0,1.336.141,1.797.422.457.281.685.719.685,1.312v3.615c0,.109.022.197.067.264s.14.1.284.1c.047,0,.1-.003.158-.009s.121-.015.188-.026v.779c-.164.047-.289.076-.375.088s-.203.018-.352.018c-.363,0-.627-.129-.791-.387-.086-.137-.146-.33-.182-.58-.215.281-.523.525-.926.732s-.846.311-1.33.311c-.582,0-1.058-.177-1.427-.53-.369-.353-.554-.795-.554-1.325,0-.581.182-1.032.545-1.352.363-.32.84-.518,1.43-.591l1.682-.211ZM83.59,224.401c.223.176.486.264.791.264.371,0,.73-.086,1.078-.258.586-.284.879-.751.879-1.398v-.848c-.129.082-.294.15-.497.206-.203.055-.401.094-.597.117l-.637.082c-.382.051-.669.13-.862.239-.326.184-.489.476-.489.877,0,.304.111.544.334.719Z"/>
    <path class="cls-8" d="M89.151,219.075h1.002v1.084c.082-.211.283-.468.604-.771s.689-.454,1.107-.454c.02,0,.053.002.1.006s.127.012.24.023v1.113c-.062-.012-.12-.02-.173-.023s-.11-.006-.173-.006c-.531,0-.939.171-1.225.513s-.428.735-.428,1.181v3.609h-1.055v-6.275Z"/>
    <path class="cls-8" d="M93.03,219.104h1.031v.832c.211-.285.442-.506.693-.662.356-.234.775-.352,1.257-.352.713,0,1.318.272,1.815.817s.746,1.323.746,2.335c0,1.367-.359,2.344-1.077,2.93-.455.371-.984.557-1.588.557-.475,0-.873-.104-1.194-.311-.188-.117-.398-.318-.629-.604v3.205h-1.055v-8.748ZM96.998,224.023c.327-.412.491-1.028.491-1.849,0-.5-.072-.93-.218-1.289-.274-.691-.776-1.037-1.505-1.037-.733,0-1.235.365-1.505,1.096-.146.391-.218.887-.218,1.488,0,.484.072.896.218,1.236.274.648.776.973,1.505.973.494,0,.904-.206,1.232-.618Z"/>
    <path class="cls-8" d="M41.133,234.573c.026.488.137.885.333,1.189.373.57,1.029.855,1.97.855.421,0,.805-.062,1.151-.188.67-.242,1.005-.676,1.005-1.301,0-.469-.142-.803-.426-1.002-.288-.195-.738-.365-1.351-.51l-1.129-.264c-.738-.172-1.26-.361-1.566-.568-.53-.359-.795-.896-.795-1.611,0-.773.26-1.408.781-1.904.521-.496,1.258-.744,2.212-.744.878,0,1.624.218,2.238.653s.921,1.132.921,2.089h-1.096c-.056-.461-.176-.814-.359-1.061-.341-.449-.919-.674-1.736-.674-.659,0-1.133.145-1.421.434-.289.289-.433.625-.433,1.008,0,.422.17.73.511.926.224.125.729.281,1.516.469l1.169.275c.564.133.999.314,1.306.545.53.402.795.986.795,1.752,0,.953-.338,1.635-1.014,2.045s-1.462.615-2.357.615c-1.044,0-1.861-.273-2.451-.82-.591-.543-.88-1.279-.869-2.209h1.096Z"/>
    <path class="cls-8" d="M52.38,231.409c.443.344.71.936.8,1.775h-1.025c-.062-.387-.205-.708-.428-.964s-.58-.384-1.072-.384c-.672,0-1.152.327-1.441.983-.188.425-.281.949-.281,1.574s.133,1.156.398,1.586c.266.429.684.644,1.254.644.438,0,.784-.134,1.04-.4s.433-.631.53-1.094h1.025c-.117.832-.41,1.44-.879,1.825s-1.068.577-1.799.577c-.82,0-1.475-.3-1.963-.899s-.732-1.349-.732-2.247c0-1.102.268-1.959.803-2.572s1.217-.92,2.045-.92c.707,0,1.282.172,1.726.516Z"/>
    <path class="cls-8" d="M54.235,228.714h1.055v3.211c.25-.316.475-.539.674-.668.34-.223.764-.334,1.271-.334.91,0,1.527.318,1.852.955.176.348.264.83.264,1.447v4.025h-1.084v-3.955c0-.461-.059-.799-.176-1.014-.191-.344-.551-.516-1.078-.516-.438,0-.834.15-1.189.451s-.533.869-.533,1.705v3.328h-1.055v-8.637Z"/>
    <path class="cls-8" d="M64.785,231.248c.416.209.732.479.949.812.21.316.35.686.419,1.107.062.289.093.75.093,1.383h-4.564c.02.639.168,1.15.448,1.536.279.386.711.579,1.296.579.546,0,.982-.183,1.308-.548.182-.212.311-.457.387-.735h1.037c-.027.23-.118.487-.272.771s-.327.515-.517.694c-.318.312-.711.523-1.18.633-.252.062-.537.094-.855.094-.776,0-1.434-.284-1.974-.853-.54-.568-.81-1.364-.81-2.388,0-1.008.271-1.826.815-2.455.543-.629,1.254-.943,2.131-.943.442,0,.872.104,1.287.313ZM65.163,233.712c-.042-.457-.142-.822-.296-1.096-.287-.508-.765-.762-1.435-.762-.48,0-.883.175-1.208.524s-.498.794-.517,1.333h3.457Z"/>
    <path class="cls-8" d="M71.03,231.269c.187.117.399.322.636.615v-3.17h1.014v8.637h-.949v-.873c-.245.387-.535.666-.87.838-.335.172-.718.258-1.15.258-.697,0-1.3-.294-1.81-.882s-.765-1.37-.765-2.347c0-.914.232-1.706.697-2.376.465-.67,1.129-1.005,1.994-1.005.479,0,.879.102,1.202.305ZM68.676,235.974c.284.453.738.68,1.364.68.486,0,.885-.21,1.198-.63s.469-1.022.469-1.808c0-.793-.161-1.38-.484-1.761s-.721-.571-1.195-.571c-.528,0-.957.203-1.285.609-.329.406-.493,1.004-.493,1.793,0,.672.142,1.234.426,1.688Z"/>
    <path class="cls-8" d="M75.311,231.075v4.166c0,.32.049.582.148.785.183.375.523.562,1.021.562.715,0,1.202-.328,1.461-.984.141-.352.211-.834.211-1.447v-3.082h1.055v6.275h-.996l.012-.926c-.134.238-.301.439-.5.604-.395.328-.874.492-1.437.492-.878,0-1.476-.299-1.794-.896-.172-.32-.259-.748-.259-1.283v-4.266h1.078Z"/>
    <path class="cls-8" d="M80.959,228.743h1.055v8.607h-1.055v-8.607Z"/>
    <path class="cls-8" d="M87.472,231.248c.416.209.732.479.949.812.21.316.35.686.419,1.107.062.289.093.75.093,1.383h-4.564c.02.639.168,1.15.448,1.536.279.386.711.579,1.296.579.546,0,.982-.183,1.308-.548.182-.212.311-.457.387-.735h1.037c-.027.23-.118.487-.272.771s-.327.515-.517.694c-.318.312-.711.523-1.18.633-.252.062-.537.094-.855.094-.776,0-1.434-.284-1.974-.853-.54-.568-.81-1.364-.81-2.388,0-1.008.271-1.826.815-2.455.543-.629,1.254-.943,2.131-.943.442,0,.872.104,1.287.313ZM87.85,233.712c-.042-.457-.142-.822-.296-1.096-.287-.508-.765-.762-1.435-.762-.48,0-.883.175-1.208.524s-.498.794-.517,1.333h3.457Z"/>
    <path class="cls-8" d="M90.299,231.075h1.002v1.084c.082-.211.283-.468.604-.771s.689-.454,1.107-.454c.02,0,.053.002.1.006s.127.012.24.023v1.113c-.062-.012-.12-.02-.173-.023s-.11-.006-.173-.006c-.531,0-.939.171-1.225.513s-.428.735-.428,1.181v3.609h-1.055v-6.275Z"/>
  </g>
  <polygon class="cls-5" points="266 185.5 297.109 185.5 303.891 185.5 337 185.5 322 201.5 303.802 201.5 297.198 201.5 281 201.5 266 185.5"/>
  <polygon class="cls-5" points="174 185.5 205.109 185.5 211.891 185.5 245 185.5 230 201.5 211.802 201.5 205.198 201.5 189 201.5 174 185.5"/>
  <g>
    <line class="cls-5" x1="401" y1="64.5" x2="416.412" y2="64.5"/>
    <polygon points="415.682 66.993 420 64.5 415.682 62.007 415.682 66.993"/>
  </g>
  <g>
    <line class="cls-5" x1="401" y1="86.5" x2="416.412" y2="86.5"/>
    <polygon points="415.682 88.993 420 86.5 415.682 84.007 415.682 88.993"/>
  </g>
  <g>
    <line class="cls-5" x1="401" y1="108.5" x2="416.412" y2="108.5"/>
    <polygon points="415.682 110.993 420 108.5 415.682 106.007 415.682 110.993"/>
  </g>
  <g>
    <line class="cls-5" x1="401" y1="130.5" x2="416.412" y2="130.5"/>
    <polygon points="415.682 132.993 420 130.5 415.682 128.007 415.682 132.993"/>
  </g>
  <g>
    <line class="cls-5" x1="274.5" y1="194.5" x2="240.588" y2="194.5"/>
    <polygon points="241.318 192.007 237 194.5 241.318 196.993 241.318 192.007"/>
  </g>
  <g>
    <polyline class="cls-5" points="182.5 194.5 165.5 194.5 165.5 210.5 149.299 210.5 149.299 203.089"/>
    <polygon points="151.792 203.818 149.299 199.501 146.806 203.818 151.792 203.818"/>
  </g>
  <g>
    <line class="cls-5" x1="401" y1="152.5" x2="416.412" y2="152.5"/>
    <polygon points="415.682 154.993 420 152.5 415.682 150.007 415.682 154.993"/>
  </g>
  <polygon class="cls-5" points="420.5 51.738 420.5 92.848 420.5 99.629 420.5 164.738 436.5 149.738 436.5 99.54 436.5 92.937 436.5 66.738 420.5 51.738"/>
  <line class="cls-5" x1="429.5" y1="60" x2="429.5" y2="42"/>
  <g>
    <polyline class="cls-5" points="437 108.5 456 108.5 456 194.5 333.088 194.5"/>
    <polygon points="333.818 192.007 329.5 194.5 333.818 196.993 333.818 192.007"/>
  </g>
  <g>
    <path d="M178.595,66.835c-.151.448-.384.774-.695.977-.312.203-.786.305-1.423.305-.661,0-1.178-.169-1.55-.509-.373-.339-.56-.839-.56-1.5v-1.591c0-.679.195-1.188.587-1.527.391-.339.898-.509,1.522-.509.63,0,1.137.173,1.518.518.382.346.573.876.573,1.591v.882h-3.327v.637c0,.448.102.77.305.964.203.193.514.291.932.291.394,0,.68-.062.859-.187.179-.124.316-.323.413-.596l.846.255ZM175.24,64.525v.273h2.454v-.191c0-.479-.103-.827-.309-1.046-.206-.218-.513-.327-.918-.327s-.713.106-.919.318-.309.536-.309.973Z"/>
    <path d="M180.395,68.025v-.791h1.664v-5.69h-1.664v-.791h2.546v6.481h1.654v.791h-4.2Z"/>
    <path d="M188.585,68.116c-.43,0-.847-.063-1.25-.19-.402-.127-.765-.32-1.086-.58l.373-.698c.272.211.58.377.922.497.343.121.689.181,1.041.181.315,0,.594-.051.837-.153.242-.103.363-.301.363-.597,0-.271-.106-.462-.318-.574-.212-.111-.6-.212-1.163-.303-.643-.104-1.118-.274-1.428-.515-.309-.24-.464-.601-.464-1.081,0-.528.187-.931.56-1.208.373-.276.822-.414,1.35-.414.395,0,.777.069,1.15.209s.711.33,1.014.572l-.373.7c-.254-.2-.533-.365-.836-.495-.304-.131-.618-.195-.945-.195-.291,0-.538.058-.741.172-.203.115-.305.312-.305.592,0,.26.104.448.31.563s.594.218,1.163.309c.648.104,1.128.282,1.437.536.31.255.464.606.464,1.055,0,.546-.205.952-.614,1.219-.408.267-.895.399-1.459.399Z"/>
    <path d="M196.648,66.835c-.151.448-.383.774-.695.977-.312.203-.786.305-1.423.305-.66,0-1.177-.169-1.55-.509-.373-.339-.559-.839-.559-1.5v-1.591c0-.679.195-1.188.586-1.527.391-.339.898-.509,1.522-.509.631,0,1.137.173,1.519.518.382.346.572.876.572,1.591v.882h-3.327v.637c0,.448.102.77.305.964.203.193.514.291.932.291.395,0,.681-.062.859-.187s.316-.323.414-.596l.845.255ZM193.294,64.525v.273h2.455v-.191c0-.479-.104-.827-.31-1.046-.206-.218-.512-.327-.918-.327s-.712.106-.918.318-.31.536-.31.973Z"/>
    <path d="M206.513,68.116c-.188,0-.386-.022-.592-.067-.206-.046-.402-.108-.591-.187v1.981h-.872v-7.272h.872v.846h.255c.133-.291.33-.521.591-.687.261-.167.552-.25.873-.25.503,0,.896.18,1.182.541.285.36.427.855.427,1.486v1.591c0,.624-.19,1.116-.572,1.477-.382.361-.906.541-1.572.541ZM206.494,67.344c.442,0,.769-.102.978-.305s.313-.522.313-.959v-1.6c0-.4-.081-.694-.241-.882-.16-.188-.407-.282-.741-.282-.278,0-.536.074-.772.223s-.47.381-.7.695v2.755c.17.115.349.203.537.264.188.061.396.091.627.091Z"/>
    <path d="M212.694,68.116c-.74,0-1.295-.171-1.664-.514-.37-.342-.555-.838-.555-1.486v-1.6c0-.667.185-1.173.555-1.519.369-.345.921-.518,1.654-.518.648,0,1.147.154,1.496.463.348.31.544.776.586,1.4l-.863.046c-.024-.4-.135-.687-.332-.859s-.495-.259-.896-.259c-.442,0-.774.1-.995.3-.222.2-.332.512-.332.937v1.618c0,.412.11.715.332.909.221.193.556.29,1.004.29.4,0,.698-.07.896-.213s.305-.384.323-.723l.863.045c-.036.563-.228.985-.572,1.264-.346.279-.846.418-1.5.418Z"/>
  </g>
  <g>
    <path d="M178.595,88.835c-.151.448-.384.774-.695.977-.312.203-.786.305-1.423.305-.661,0-1.178-.169-1.55-.509-.373-.339-.56-.839-.56-1.5v-1.591c0-.679.195-1.188.587-1.527.391-.339.898-.509,1.522-.509.63,0,1.137.173,1.518.518.382.346.573.876.573,1.591v.882h-3.327v.637c0,.448.102.77.305.964.203.193.514.291.932.291.394,0,.68-.062.859-.187.179-.124.316-.323.413-.596l.846.255ZM175.24,86.525v.273h2.454v-.191c0-.479-.103-.827-.309-1.046-.206-.218-.513-.327-.918-.327s-.713.106-.919.318-.309.536-.309.973Z"/>
    <path d="M180.395,90.025v-.791h1.664v-5.69h-1.664v-.791h2.546v6.481h1.654v.791h-4.2Z"/>
    <path d="M188.585,90.116c-.43,0-.847-.063-1.25-.19-.402-.127-.765-.32-1.086-.58l.373-.698c.272.211.58.377.922.497.343.121.689.181,1.041.181.315,0,.594-.051.837-.153.242-.103.363-.301.363-.597,0-.271-.106-.462-.318-.574-.212-.111-.6-.212-1.163-.303-.643-.104-1.118-.274-1.428-.515-.309-.24-.464-.601-.464-1.081,0-.528.187-.931.56-1.208.373-.276.822-.414,1.35-.414.395,0,.777.069,1.15.209s.711.33,1.014.572l-.373.7c-.254-.2-.533-.365-.836-.495-.304-.131-.618-.195-.945-.195-.291,0-.538.058-.741.172-.203.115-.305.312-.305.592,0,.26.104.448.31.563s.594.218,1.163.309c.648.104,1.128.282,1.437.536.31.255.464.606.464,1.055,0,.546-.205.952-.614,1.219-.408.267-.895.399-1.459.399Z"/>
    <path d="M196.648,88.835c-.151.448-.383.774-.695.977-.312.203-.786.305-1.423.305-.66,0-1.177-.169-1.55-.509-.373-.339-.559-.839-.559-1.5v-1.591c0-.679.195-1.188.586-1.527.391-.339.898-.509,1.522-.509.631,0,1.137.173,1.519.518.382.346.572.876.572,1.591v.882h-3.327v.637c0,.448.102.77.305.964.203.193.514.291.932.291.395,0,.681-.062.859-.187s.316-.323.414-.596l.845.255ZM193.294,86.525v.273h2.455v-.191c0-.479-.104-.827-.31-1.046-.206-.218-.512-.327-.918-.327s-.712.106-.918.318-.31.536-.31.973Z"/>
    <path d="M206.513,90.116c-.188,0-.386-.022-.592-.067-.206-.046-.402-.108-.591-.187v1.981h-.872v-7.272h.872v.846h.255c.133-.291.33-.521.591-.687.261-.167.552-.25.873-.25.503,0,.896.18,1.182.541.285.36.427.855.427,1.486v1.591c0,.624-.19,1.116-.572,1.477-.382.361-.906.541-1.572.541ZM206.494,89.344c.442,0,.769-.102.978-.305s.313-.522.313-.959v-1.6c0-.4-.081-.694-.241-.882-.16-.188-.407-.282-.741-.282-.278,0-.536.074-.772.223s-.47.381-.7.695v2.755c.17.115.349.203.537.264.188.061.396.091.627.091Z"/>
    <path d="M212.694,90.116c-.74,0-1.295-.171-1.664-.514-.37-.342-.555-.838-.555-1.486v-1.6c0-.667.185-1.173.555-1.519.369-.345.921-.518,1.654-.518.648,0,1.147.154,1.496.463.348.31.544.776.586,1.4l-.863.046c-.024-.4-.135-.687-.332-.859s-.495-.259-.896-.259c-.442,0-.774.1-.995.3-.222.2-.332.512-.332.937v1.618c0,.412.11.715.332.909.221.193.556.29,1.004.29.4,0,.698-.07.896-.213s.305-.384.323-.723l.863.045c-.036.563-.228.985-.572,1.264-.346.279-.846.418-1.5.418Z"/>
  </g>
  <g>
    <path d="M237.595,66.835c-.151.448-.384.774-.695.977-.312.203-.786.305-1.423.305-.661,0-1.178-.169-1.55-.509-.373-.339-.56-.839-.56-1.5v-1.591c0-.679.195-1.188.587-1.527.391-.339.898-.509,1.522-.509.63,0,1.137.173,1.518.518.382.346.573.876.573,1.591v.882h-3.327v.637c0,.448.102.77.305.964.203.193.514.291.932.291.394,0,.68-.062.859-.187.179-.124.316-.323.413-.596l.846.255ZM234.24,64.525v.273h2.454v-.191c0-.479-.103-.827-.309-1.046-.206-.218-.513-.327-.918-.327s-.713.106-.919.318-.309.536-.309.973Z"/>
    <path d="M239.395,68.025v-.791h1.664v-5.69h-1.664v-.791h2.546v6.481h1.654v.791h-4.2Z"/>
    <path d="M247.585,68.116c-.43,0-.847-.063-1.25-.19-.402-.127-.765-.32-1.086-.58l.373-.698c.272.211.58.377.922.497.343.121.689.181,1.041.181.315,0,.594-.051.837-.153.242-.103.363-.301.363-.597,0-.271-.106-.462-.318-.574-.212-.111-.6-.212-1.163-.303-.643-.104-1.118-.274-1.428-.515-.309-.24-.464-.601-.464-1.081,0-.528.187-.931.56-1.208.373-.276.822-.414,1.35-.414.395,0,.777.069,1.15.209s.711.33,1.014.572l-.373.7c-.254-.2-.533-.365-.836-.495-.304-.131-.618-.195-.945-.195-.291,0-.538.058-.741.172-.203.115-.305.312-.305.592,0,.26.104.448.31.563s.594.218,1.163.309c.648.104,1.128.282,1.437.536.31.255.464.606.464,1.055,0,.546-.205.952-.614,1.219-.408.267-.895.399-1.459.399Z"/>
    <path d="M255.648,66.835c-.151.448-.383.774-.695.977-.312.203-.786.305-1.423.305-.66,0-1.177-.169-1.55-.509-.373-.339-.559-.839-.559-1.5v-1.591c0-.679.195-1.188.586-1.527.391-.339.898-.509,1.522-.509.631,0,1.137.173,1.519.518.382.346.572.876.572,1.591v.882h-3.327v.637c0,.448.102.77.305.964.203.193.514.291.932.291.395,0,.681-.062.859-.187s.316-.323.414-.596l.845.255ZM252.294,64.525v.273h2.455v-.191c0-.479-.104-.827-.31-1.046-.206-.218-.512-.327-.918-.327s-.712.106-.918.318-.31.536-.31.973Z"/>
    <path d="M266.431,68.107c-.563,0-1.003-.151-1.318-.454-.315-.304-.473-.746-.473-1.328v-2.963h-1.4v-.791h1.4v-1.818h.882v1.818h2.146v.791h-2.146v2.872c0,.346.08.604.241.777.16.173.395.26.704.26.206,0,.401-.016.586-.046.186-.03.359-.075.523-.137l.173.81c-.177.061-.375.11-.596.15-.222.039-.463.059-.723.059Z"/>
    <path d="M269.948,64.08v3.945h-.8v-5.454h.8v.7h.173c.097-.249.23-.442.4-.582.169-.14.352-.209.545-.209.219,0,.4.068.546.204.146.137.248.332.309.587h.182c.104-.249.244-.442.423-.582s.374-.209.587-.209c.278,0,.497.118.654.354s.236.563.236.981v4.209h-.8v-4.082c0-.254-.032-.448-.096-.581-.063-.134-.159-.2-.286-.2-.115,0-.247.08-.396.241-.148.16-.299.386-.45.677v3.945h-.8v-4.082c0-.26-.033-.455-.1-.586-.067-.13-.164-.195-.291-.195-.115,0-.244.079-.387.236s-.292.385-.45.682Z"/>
    <path d="M276.866,68.116c-.448,0-.83-.127-1.146-.382-.314-.254-.473-.646-.473-1.173,0-.473.146-.847.437-1.122.291-.276.648-.414,1.073-.414h1.646v-.818c0-.278-.088-.503-.264-.672-.176-.17-.439-.255-.791-.255-.364,0-.634.062-.81.187s-.315.386-.418.786l-.764-.218c.097-.516.311-.903.641-1.164s.777-.391,1.341-.391c.558,0,1.021.132,1.392.396.369.265.555.67.555,1.216v2.532c0,.31.081.508.245.593.163.085.409.097.736.036v.8c-.382.061-.717.032-1.005-.086s-.446-.393-.477-.823h-.173c-.152.279-.384.511-.695.695-.312.186-.663.277-1.051.277ZM276.994,67.362c.297,0,.563-.059.8-.174.236-.116.439-.311.609-.585v-.905h-1.428c-.261,0-.47.062-.627.183-.158.122-.236.332-.236.631,0,.269.067.478.204.626.137.149.362.225.678.225Z"/>
    <path d="M283.693,68.116c-.43,0-.847-.063-1.25-.19-.402-.127-.765-.32-1.086-.58l.373-.698c.272.211.58.377.922.497.343.121.689.181,1.041.181.315,0,.594-.051.837-.153.242-.103.363-.301.363-.597,0-.271-.106-.462-.318-.574-.212-.111-.6-.212-1.163-.303-.643-.104-1.118-.274-1.428-.515-.309-.24-.464-.601-.464-1.081,0-.528.187-.931.56-1.208.373-.276.822-.414,1.35-.414.395,0,.777.069,1.15.209s.711.33,1.014.572l-.373.7c-.254-.2-.533-.365-.836-.495-.304-.131-.618-.195-.945-.195-.291,0-.538.058-.741.172-.203.115-.305.312-.305.592,0,.26.104.448.31.563s.594.218,1.163.309c.648.104,1.128.282,1.437.536.31.255.464.606.464,1.055,0,.546-.205.952-.614,1.219-.408.267-.895.399-1.459.399Z"/>
    <path d="M288.803,65.544v2.481h-.882v-7.272h.882v4.036h.418l1.591-2.218h1.055l-1.954,2.54,1.927,2.914h-1l-1.618-2.481h-.418Z"/>
  </g>
  <g>
    <path d="M237.595,88.835c-.151.448-.384.774-.695.977-.312.203-.786.305-1.423.305-.661,0-1.178-.169-1.55-.509-.373-.339-.56-.839-.56-1.5v-1.591c0-.679.195-1.188.587-1.527.391-.339.898-.509,1.522-.509.63,0,1.137.173,1.518.518.382.346.573.876.573,1.591v.882h-3.327v.637c0,.448.102.77.305.964.203.193.514.291.932.291.394,0,.68-.062.859-.187.179-.124.316-.323.413-.596l.846.255ZM234.24,86.525v.273h2.454v-.191c0-.479-.103-.827-.309-1.046-.206-.218-.513-.327-.918-.327s-.713.106-.919.318-.309.536-.309.973Z"/>
    <path d="M239.395,90.025v-.791h1.664v-5.69h-1.664v-.791h2.546v6.481h1.654v.791h-4.2Z"/>
    <path d="M247.585,90.116c-.43,0-.847-.063-1.25-.19-.402-.127-.765-.32-1.086-.58l.373-.698c.272.211.58.377.922.497.343.121.689.181,1.041.181.315,0,.594-.051.837-.153.242-.103.363-.301.363-.597,0-.271-.106-.462-.318-.574-.212-.111-.6-.212-1.163-.303-.643-.104-1.118-.274-1.428-.515-.309-.24-.464-.601-.464-1.081,0-.528.187-.931.56-1.208.373-.276.822-.414,1.35-.414.395,0,.777.069,1.15.209s.711.33,1.014.572l-.373.7c-.254-.2-.533-.365-.836-.495-.304-.131-.618-.195-.945-.195-.291,0-.538.058-.741.172-.203.115-.305.312-.305.592,0,.26.104.448.31.563s.594.218,1.163.309c.648.104,1.128.282,1.437.536.31.255.464.606.464,1.055,0,.546-.205.952-.614,1.219-.408.267-.895.399-1.459.399Z"/>
    <path d="M255.648,88.835c-.151.448-.383.774-.695.977-.312.203-.786.305-1.423.305-.66,0-1.177-.169-1.55-.509-.373-.339-.559-.839-.559-1.5v-1.591c0-.679.195-1.188.586-1.527.391-.339.898-.509,1.522-.509.631,0,1.137.173,1.519.518.382.346.572.876.572,1.591v.882h-3.327v.637c0,.448.102.77.305.964.203.193.514.291.932.291.395,0,.681-.062.859-.187s.316-.323.414-.596l.845.255ZM252.294,86.525v.273h2.455v-.191c0-.479-.104-.827-.31-1.046-.206-.218-.512-.327-.918-.327s-.712.106-.918.318-.31.536-.31.973Z"/>
    <path d="M266.431,90.107c-.563,0-1.003-.151-1.318-.454-.315-.304-.473-.746-.473-1.328v-2.963h-1.4v-.791h1.4v-1.818h.882v1.818h2.146v.791h-2.146v2.872c0,.346.08.604.241.777.16.173.395.26.704.26.206,0,.401-.016.586-.046.186-.03.359-.075.523-.137l.173.81c-.177.061-.375.11-.596.15-.222.039-.463.059-.723.059Z"/>
    <path d="M269.948,86.08v3.945h-.8v-5.454h.8v.7h.173c.097-.249.23-.442.4-.582.169-.14.352-.209.545-.209.219,0,.4.068.546.204.146.137.248.332.309.587h.182c.104-.249.244-.442.423-.582s.374-.209.587-.209c.278,0,.497.118.654.354s.236.563.236.981v4.209h-.8v-4.082c0-.254-.032-.448-.096-.581-.063-.134-.159-.2-.286-.2-.115,0-.247.08-.396.241-.148.16-.299.386-.45.677v3.945h-.8v-4.082c0-.26-.033-.455-.1-.586-.067-.13-.164-.195-.291-.195-.115,0-.244.079-.387.236s-.292.385-.45.682Z"/>
    <path d="M276.866,90.116c-.448,0-.83-.127-1.146-.382-.314-.254-.473-.646-.473-1.173,0-.473.146-.847.437-1.122.291-.276.648-.414,1.073-.414h1.646v-.818c0-.278-.088-.503-.264-.672-.176-.17-.439-.255-.791-.255-.364,0-.634.062-.81.187s-.315.386-.418.786l-.764-.218c.097-.516.311-.903.641-1.164s.777-.391,1.341-.391c.558,0,1.021.132,1.392.396.369.265.555.67.555,1.216v2.532c0,.31.081.508.245.593.163.085.409.097.736.036v.8c-.382.061-.717.032-1.005-.086s-.446-.393-.477-.823h-.173c-.152.279-.384.511-.695.695-.312.186-.663.277-1.051.277ZM276.994,89.362c.297,0,.563-.059.8-.174.236-.116.439-.311.609-.585v-.905h-1.428c-.261,0-.47.062-.627.183-.158.122-.236.332-.236.631,0,.269.067.478.204.626.137.149.362.225.678.225Z"/>
    <path d="M283.693,90.116c-.43,0-.847-.063-1.25-.19-.402-.127-.765-.32-1.086-.58l.373-.698c.272.211.58.377.922.497.343.121.689.181,1.041.181.315,0,.594-.051.837-.153.242-.103.363-.301.363-.597,0-.271-.106-.462-.318-.574-.212-.111-.6-.212-1.163-.303-.643-.104-1.118-.274-1.428-.515-.309-.24-.464-.601-.464-1.081,0-.528.187-.931.56-1.208.373-.276.822-.414,1.35-.414.395,0,.777.069,1.15.209s.711.33,1.014.572l-.373.7c-.254-.2-.533-.365-.836-.495-.304-.131-.618-.195-.945-.195-.291,0-.538.058-.741.172-.203.115-.305.312-.305.592,0,.26.104.448.31.563s.594.218,1.163.309c.648.104,1.128.282,1.437.536.31.255.464.606.464,1.055,0,.546-.205.952-.614,1.219-.408.267-.895.399-1.459.399Z"/>
    <path d="M288.803,87.544v2.481h-.882v-7.272h.882v4.036h.418l1.591-2.218h1.055l-1.954,2.54,1.927,2.914h-1l-1.618-2.481h-.418Z"/>
  </g>
  <g>
    <path d="M312.468,68.116c-.673,0-1.191-.173-1.555-.518-.364-.346-.546-.84-.546-1.482v-1.6c0-.648.182-1.15.546-1.505.363-.354.885-.531,1.563-.531.666,0,1.182.177,1.545.531.364.354.546.856.546,1.505v1.591c0,.648-.182,1.146-.546,1.491-.363.345-.882.518-1.554.518ZM312.468,67.325c.412,0,.719-.097.922-.29.203-.194.305-.5.305-.919v-1.6c0-.424-.102-.738-.305-.941-.203-.202-.51-.304-.922-.304s-.72.102-.923.304c-.203.203-.305.518-.305.941v1.6c0,.419.102.725.305.919.203.193.51.29.923.29Z"/>
    <path d="M316.785,68.025v-5.454h.882v.872h.246c.114-.333.294-.577.536-.731s.533-.231.872-.231c.382,0,.697.132.946.396.248.264.372.638.372,1.122v.837h-.836v-.519c0-.346-.068-.599-.205-.759-.136-.161-.35-.241-.641-.241-.261,0-.498.07-.714.209-.215.14-.407.352-.577.637v3.863h-.882Z"/>
    <path d="M322.403,68.025v-.791h1.664v-3.872h-1.664v-.791h2.546v4.663h1.654v.791h-4.2ZM324.513,61.562c-.219,0-.395-.036-.527-.108-.134-.073-.2-.206-.2-.4v-.063c0-.2.066-.338.2-.414.133-.075.309-.113.527-.113s.394.038.527.113c.133.076.2.214.2.414v.063c0,.194-.068.327-.205.4-.136.072-.311.108-.522.108Z"/>
    <path d="M333.03,68.471c0,.491-.165.858-.495,1.101s-.738.363-1.223.363h-1.563c-.51,0-.926-.107-1.25-.323s-.486-.554-.486-1.016c0-.291.072-.523.218-.696s.352-.271.618-.296v-.191c-.194-.036-.354-.123-.481-.262-.128-.139-.191-.353-.191-.642,0-.259.077-.491.232-.695.154-.205.407-.323.759-.353v-.172c-.267-.098-.45-.246-.55-.447-.101-.2-.15-.389-.15-.565v-.255c0-.42.164-.767.491-1.04s.791-.41,1.391-.41h2.491v.809l-1.3-.218v.173c.218.066.386.193.504.382.118.188.178.376.178.563v.245c0,.418-.151.757-.455,1.014-.303.258-.781.387-1.436.387h-.991c-.151,0-.267.041-.346.123-.079.081-.118.223-.118.422,0,.188.055.329.164.423.108.095.27.142.481.142h1.873c.473,0,.863.111,1.173.336.309.225.463.591.463,1.1ZM329.73,69.217h1.682c.242,0,.441-.054.596-.159.154-.106.231-.29.231-.55,0-.243-.067-.417-.204-.523-.137-.105-.316-.159-.541-.159h-2.609v.628c0,.254.071.445.214.572.143.128.354.191.632.191ZM330.357,65.253c.334,0,.587-.067.76-.201s.259-.35.259-.648v-.283c0-.292-.086-.504-.259-.635s-.426-.196-.76-.196-.586.065-.759.196-.259.343-.259.635v.283c0,.299.086.515.259.648s.426.201.759.201Z"/>
    <path d="M343.431,68.107c-.563,0-1.003-.151-1.318-.454-.315-.304-.473-.746-.473-1.328v-2.963h-1.4v-.791h1.4v-1.818h.882v1.818h2.146v.791h-2.146v2.872c0,.346.08.604.241.777.16.173.395.26.704.26.206,0,.401-.016.586-.046.186-.03.359-.075.523-.137l.173.81c-.177.061-.375.11-.596.15-.222.039-.463.059-.723.059Z"/>
    <path d="M346.948,64.08v3.945h-.8v-5.454h.8v.7h.173c.097-.249.23-.442.4-.582.169-.14.352-.209.545-.209.219,0,.4.068.546.204.146.137.248.332.309.587h.182c.104-.249.244-.442.423-.582s.374-.209.587-.209c.278,0,.497.118.654.354s.236.563.236.981v4.209h-.8v-4.082c0-.254-.032-.448-.096-.581-.063-.134-.159-.2-.286-.2-.115,0-.247.08-.396.241-.148.16-.299.386-.45.677v3.945h-.8v-4.082c0-.26-.033-.455-.1-.586-.067-.13-.164-.195-.291-.195-.115,0-.244.079-.387.236s-.292.385-.45.682Z"/>
    <path d="M353.866,68.116c-.448,0-.83-.127-1.146-.382-.314-.254-.473-.646-.473-1.173,0-.473.146-.847.437-1.122.291-.276.648-.414,1.073-.414h1.646v-.818c0-.278-.088-.503-.264-.672-.176-.17-.439-.255-.791-.255-.364,0-.634.062-.81.187s-.315.386-.418.786l-.764-.218c.097-.516.311-.903.641-1.164s.777-.391,1.341-.391c.558,0,1.021.132,1.392.396.369.265.555.67.555,1.216v2.532c0,.31.081.508.245.593.163.085.409.097.736.036v.8c-.382.061-.717.032-1.005-.086s-.446-.393-.477-.823h-.173c-.152.279-.384.511-.695.695-.312.186-.663.277-1.051.277ZM353.994,67.362c.297,0,.563-.059.8-.174.236-.116.439-.311.609-.585v-.905h-1.428c-.261,0-.47.062-.627.183-.158.122-.236.332-.236.631,0,.269.067.478.204.626.137.149.362.225.678.225Z"/>
    <path d="M360.693,68.116c-.43,0-.847-.063-1.25-.19-.402-.127-.765-.32-1.086-.58l.373-.698c.272.211.58.377.922.497.343.121.689.181,1.041.181.315,0,.594-.051.837-.153.242-.103.363-.301.363-.597,0-.271-.106-.462-.318-.574-.212-.111-.6-.212-1.163-.303-.643-.104-1.118-.274-1.428-.515-.309-.24-.464-.601-.464-1.081,0-.528.187-.931.56-1.208.373-.276.822-.414,1.35-.414.395,0,.777.069,1.15.209s.711.33,1.014.572l-.373.7c-.254-.2-.533-.365-.836-.495-.304-.131-.618-.195-.945-.195-.291,0-.538.058-.741.172-.203.115-.305.312-.305.592,0,.26.104.448.31.563s.594.218,1.163.309c.648.104,1.128.282,1.437.536.31.255.464.606.464,1.055,0,.546-.205.952-.614,1.219-.408.267-.895.399-1.459.399Z"/>
    <path d="M365.803,65.544v2.481h-.882v-7.272h.882v4.036h.418l1.591-2.218h1.055l-1.954,2.54,1.927,2.914h-1l-1.618-2.481h-.418Z"/>
  </g>
  <g>
    <path d="M312.468,90.116c-.673,0-1.191-.173-1.555-.518-.364-.346-.546-.84-.546-1.482v-1.6c0-.648.182-1.15.546-1.505.363-.354.885-.531,1.563-.531.666,0,1.182.177,1.545.531.364.354.546.856.546,1.505v1.591c0,.648-.182,1.146-.546,1.491-.363.345-.882.518-1.554.518ZM312.468,89.325c.412,0,.719-.097.922-.29.203-.194.305-.5.305-.919v-1.6c0-.424-.102-.738-.305-.941-.203-.202-.51-.304-.922-.304s-.72.102-.923.304c-.203.203-.305.518-.305.941v1.6c0,.419.102.725.305.919.203.193.51.29.923.29Z"/>
    <path d="M316.785,90.025v-5.454h.882v.872h.246c.114-.333.294-.577.536-.731s.533-.231.872-.231c.382,0,.697.132.946.396.248.264.372.638.372,1.122v.837h-.836v-.519c0-.346-.068-.599-.205-.759-.136-.161-.35-.241-.641-.241-.261,0-.498.07-.714.209-.215.14-.407.352-.577.637v3.863h-.882Z"/>
    <path d="M322.403,90.025v-.791h1.664v-3.872h-1.664v-.791h2.546v4.663h1.654v.791h-4.2ZM324.513,83.562c-.219,0-.395-.036-.527-.108-.134-.073-.2-.206-.2-.4v-.063c0-.2.066-.338.2-.414.133-.075.309-.113.527-.113s.394.038.527.113c.133.076.2.214.2.414v.063c0,.194-.068.327-.205.4-.136.072-.311.108-.522.108Z"/>
    <path d="M333.03,90.471c0,.491-.165.858-.495,1.101s-.738.363-1.223.363h-1.563c-.51,0-.926-.107-1.25-.323s-.486-.554-.486-1.016c0-.291.072-.523.218-.696s.352-.271.618-.296v-.191c-.194-.036-.354-.123-.481-.262-.128-.139-.191-.353-.191-.642,0-.259.077-.491.232-.695.154-.205.407-.323.759-.353v-.172c-.267-.098-.45-.246-.55-.447-.101-.2-.15-.389-.15-.565v-.255c0-.42.164-.767.491-1.04s.791-.41,1.391-.41h2.491v.809l-1.3-.218v.173c.218.066.386.193.504.382.118.188.178.376.178.563v.245c0,.418-.151.757-.455,1.014-.303.258-.781.387-1.436.387h-.991c-.151,0-.267.041-.346.123-.079.081-.118.223-.118.422,0,.188.055.329.164.423.108.095.27.142.481.142h1.873c.473,0,.863.111,1.173.336.309.225.463.591.463,1.1ZM329.73,91.217h1.682c.242,0,.441-.054.596-.159.154-.106.231-.29.231-.55,0-.243-.067-.417-.204-.523-.137-.105-.316-.159-.541-.159h-2.609v.628c0,.254.071.445.214.572.143.128.354.191.632.191ZM330.357,87.253c.334,0,.587-.067.76-.201s.259-.35.259-.648v-.283c0-.292-.086-.504-.259-.635s-.426-.196-.76-.196-.586.065-.759.196-.259.343-.259.635v.283c0,.299.086.515.259.648s.426.201.759.201Z"/>
    <path d="M343.431,90.107c-.563,0-1.003-.151-1.318-.454-.315-.304-.473-.746-.473-1.328v-2.963h-1.4v-.791h1.4v-1.818h.882v1.818h2.146v.791h-2.146v2.872c0,.346.08.604.241.777.16.173.395.26.704.26.206,0,.401-.016.586-.046.186-.03.359-.075.523-.137l.173.81c-.177.061-.375.11-.596.15-.222.039-.463.059-.723.059Z"/>
    <path d="M346.948,86.08v3.945h-.8v-5.454h.8v.7h.173c.097-.249.23-.442.4-.582.169-.14.352-.209.545-.209.219,0,.4.068.546.204.146.137.248.332.309.587h.182c.104-.249.244-.442.423-.582s.374-.209.587-.209c.278,0,.497.118.654.354s.236.563.236.981v4.209h-.8v-4.082c0-.254-.032-.448-.096-.581-.063-.134-.159-.2-.286-.2-.115,0-.247.08-.396.241-.148.16-.299.386-.45.677v3.945h-.8v-4.082c0-.26-.033-.455-.1-.586-.067-.13-.164-.195-.291-.195-.115,0-.244.079-.387.236s-.292.385-.45.682Z"/>
    <path d="M353.866,90.116c-.448,0-.83-.127-1.146-.382-.314-.254-.473-.646-.473-1.173,0-.473.146-.847.437-1.122.291-.276.648-.414,1.073-.414h1.646v-.818c0-.278-.088-.503-.264-.672-.176-.17-.439-.255-.791-.255-.364,0-.634.062-.81.187s-.315.386-.418.786l-.764-.218c.097-.516.311-.903.641-1.164s.777-.391,1.341-.391c.558,0,1.021.132,1.392.396.369.265.555.67.555,1.216v2.532c0,.31.081.508.245.593.163.085.409.097.736.036v.8c-.382.061-.717.032-1.005-.086s-.446-.393-.477-.823h-.173c-.152.279-.384.511-.695.695-.312.186-.663.277-1.051.277ZM353.994,89.362c.297,0,.563-.059.8-.174.236-.116.439-.311.609-.585v-.905h-1.428c-.261,0-.47.062-.627.183-.158.122-.236.332-.236.631,0,.269.067.478.204.626.137.149.362.225.678.225Z"/>
    <path d="M360.693,90.116c-.43,0-.847-.063-1.25-.19-.402-.127-.765-.32-1.086-.58l.373-.698c.272.211.58.377.922.497.343.121.689.181,1.041.181.315,0,.594-.051.837-.153.242-.103.363-.301.363-.597,0-.271-.106-.462-.318-.574-.212-.111-.6-.212-1.163-.303-.643-.104-1.118-.274-1.428-.515-.309-.24-.464-.601-.464-1.081,0-.528.187-.931.56-1.208.373-.276.822-.414,1.35-.414.395,0,.777.069,1.15.209s.711.33,1.014.572l-.373.7c-.254-.2-.533-.365-.836-.495-.304-.131-.618-.195-.945-.195-.291,0-.538.058-.741.172-.203.115-.305.312-.305.592,0,.26.104.448.31.563s.594.218,1.163.309c.648.104,1.128.282,1.437.536.31.255.464.606.464,1.055,0,.546-.205.952-.614,1.219-.408.267-.895.399-1.459.399Z"/>
    <path d="M365.803,87.544v2.481h-.882v-7.272h.882v4.036h.418l1.591-2.218h1.055l-1.954,2.54,1.927,2.914h-1l-1.618-2.481h-.418Z"/>
  </g>
  <g>
    <path d="M178.595,110.835c-.151.448-.384.774-.695.977-.312.203-.786.305-1.423.305-.661,0-1.178-.169-1.55-.509-.373-.339-.56-.839-.56-1.5v-1.591c0-.679.195-1.188.587-1.527.391-.339.898-.509,1.522-.509.63,0,1.137.173,1.518.518.382.346.573.876.573,1.591v.882h-3.327v.637c0,.448.102.77.305.964.203.193.514.291.932.291.394,0,.68-.062.859-.187.179-.124.316-.323.413-.596l.846.255ZM175.24,108.525v.273h2.454v-.191c0-.479-.103-.827-.309-1.046-.206-.218-.513-.327-.918-.327s-.713.106-.919.318-.309.536-.309.973Z"/>
    <path d="M180.395,112.025v-.791h1.664v-5.69h-1.664v-.791h2.546v6.481h1.654v.791h-4.2Z"/>
    <path d="M188.585,112.116c-.43,0-.847-.063-1.25-.19-.402-.127-.765-.32-1.086-.58l.373-.698c.272.211.58.377.922.497.343.121.689.181,1.041.181.315,0,.594-.051.837-.153.242-.103.363-.301.363-.597,0-.271-.106-.462-.318-.574-.212-.111-.6-.212-1.163-.303-.643-.104-1.118-.274-1.428-.515-.309-.24-.464-.601-.464-1.081,0-.528.187-.931.56-1.208.373-.276.822-.414,1.35-.414.395,0,.777.069,1.15.209s.711.33,1.014.572l-.373.7c-.254-.2-.533-.365-.836-.495-.304-.131-.618-.195-.945-.195-.291,0-.538.058-.741.172-.203.115-.305.312-.305.592,0,.26.104.448.31.563s.594.218,1.163.309c.648.104,1.128.282,1.437.536.31.255.464.606.464,1.055,0,.546-.205.952-.614,1.219-.408.267-.895.399-1.459.399Z"/>
    <path d="M196.648,110.835c-.151.448-.383.774-.695.977-.312.203-.786.305-1.423.305-.66,0-1.177-.169-1.55-.509-.373-.339-.559-.839-.559-1.5v-1.591c0-.679.195-1.188.586-1.527.391-.339.898-.509,1.522-.509.631,0,1.137.173,1.519.518.382.346.572.876.572,1.591v.882h-3.327v.637c0,.448.102.77.305.964.203.193.514.291.932.291.395,0,.681-.062.859-.187s.316-.323.414-.596l.845.255ZM193.294,108.525v.273h2.455v-.191c0-.479-.104-.827-.31-1.046-.206-.218-.512-.327-.918-.327s-.712.106-.918.318-.31.536-.31.973Z"/>
    <path d="M206.513,112.116c-.188,0-.386-.022-.592-.067-.206-.046-.402-.108-.591-.187v1.981h-.872v-7.272h.872v.846h.255c.133-.291.33-.521.591-.687.261-.167.552-.25.873-.25.503,0,.896.18,1.182.541.285.36.427.855.427,1.486v1.591c0,.624-.19,1.116-.572,1.477-.382.361-.906.541-1.572.541ZM206.494,111.344c.442,0,.769-.102.978-.305s.313-.522.313-.959v-1.6c0-.4-.081-.694-.241-.882-.16-.188-.407-.282-.741-.282-.278,0-.536.074-.772.223s-.47.381-.7.695v2.755c.17.115.349.203.537.264.188.061.396.091.627.091Z"/>
    <path d="M212.694,112.116c-.74,0-1.295-.171-1.664-.514-.37-.342-.555-.838-.555-1.486v-1.6c0-.667.185-1.173.555-1.519.369-.345.921-.518,1.654-.518.648,0,1.147.154,1.496.463.348.31.544.776.586,1.4l-.863.046c-.024-.4-.135-.687-.332-.859s-.495-.259-.896-.259c-.442,0-.774.1-.995.3-.222.2-.332.512-.332.937v1.618c0,.412.11.715.332.909.221.193.556.29,1.004.29.4,0,.698-.07.896-.213s.305-.384.323-.723l.863.045c-.036.563-.228.985-.572,1.264-.346.279-.846.418-1.5.418Z"/>
  </g>
  <g>
    <path d="M237.595,110.835c-.151.448-.384.774-.695.977-.312.203-.786.305-1.423.305-.661,0-1.178-.169-1.55-.509-.373-.339-.56-.839-.56-1.5v-1.591c0-.679.195-1.188.587-1.527.391-.339.898-.509,1.522-.509.63,0,1.137.173,1.518.518.382.346.573.876.573,1.591v.882h-3.327v.637c0,.448.102.77.305.964.203.193.514.291.932.291.394,0,.68-.062.859-.187.179-.124.316-.323.413-.596l.846.255ZM234.24,108.525v.273h2.454v-.191c0-.479-.103-.827-.309-1.046-.206-.218-.513-.327-.918-.327s-.713.106-.919.318-.309.536-.309.973Z"/>
    <path d="M239.395,112.025v-.791h1.664v-5.69h-1.664v-.791h2.546v6.481h1.654v.791h-4.2Z"/>
    <path d="M247.585,112.116c-.43,0-.847-.063-1.25-.19-.402-.127-.765-.32-1.086-.58l.373-.698c.272.211.58.377.922.497.343.121.689.181,1.041.181.315,0,.594-.051.837-.153.242-.103.363-.301.363-.597,0-.271-.106-.462-.318-.574-.212-.111-.6-.212-1.163-.303-.643-.104-1.118-.274-1.428-.515-.309-.24-.464-.601-.464-1.081,0-.528.187-.931.56-1.208.373-.276.822-.414,1.35-.414.395,0,.777.069,1.15.209s.711.33,1.014.572l-.373.7c-.254-.2-.533-.365-.836-.495-.304-.131-.618-.195-.945-.195-.291,0-.538.058-.741.172-.203.115-.305.312-.305.592,0,.26.104.448.31.563s.594.218,1.163.309c.648.104,1.128.282,1.437.536.31.255.464.606.464,1.055,0,.546-.205.952-.614,1.219-.408.267-.895.399-1.459.399Z"/>
    <path d="M255.648,110.835c-.151.448-.383.774-.695.977-.312.203-.786.305-1.423.305-.66,0-1.177-.169-1.55-.509-.373-.339-.559-.839-.559-1.5v-1.591c0-.679.195-1.188.586-1.527.391-.339.898-.509,1.522-.509.631,0,1.137.173,1.519.518.382.346.572.876.572,1.591v.882h-3.327v.637c0,.448.102.77.305.964.203.193.514.291.932.291.395,0,.681-.062.859-.187s.316-.323.414-.596l.845.255ZM252.294,108.525v.273h2.455v-.191c0-.479-.104-.827-.31-1.046-.206-.218-.512-.327-.918-.327s-.712.106-.918.318-.31.536-.31.973Z"/>
    <path d="M266.431,112.107c-.563,0-1.003-.151-1.318-.454-.315-.304-.473-.746-.473-1.328v-2.963h-1.4v-.791h1.4v-1.818h.882v1.818h2.146v.791h-2.146v2.872c0,.346.08.604.241.777.16.173.395.26.704.26.206,0,.401-.016.586-.046.186-.03.359-.075.523-.137l.173.81c-.177.061-.375.11-.596.15-.222.039-.463.059-.723.059Z"/>
    <path d="M269.948,108.08v3.945h-.8v-5.454h.8v.7h.173c.097-.249.23-.442.4-.582.169-.14.352-.209.545-.209.219,0,.4.068.546.204.146.137.248.332.309.587h.182c.104-.249.244-.442.423-.582s.374-.209.587-.209c.278,0,.497.118.654.354s.236.563.236.981v4.209h-.8v-4.082c0-.254-.032-.448-.096-.581-.063-.134-.159-.2-.286-.2-.115,0-.247.08-.396.241-.148.16-.299.386-.45.677v3.945h-.8v-4.082c0-.26-.033-.455-.1-.586-.067-.13-.164-.195-.291-.195-.115,0-.244.079-.387.236s-.292.385-.45.682Z"/>
    <path d="M276.866,112.116c-.448,0-.83-.127-1.146-.382-.314-.254-.473-.646-.473-1.173,0-.473.146-.847.437-1.122.291-.276.648-.414,1.073-.414h1.646v-.818c0-.278-.088-.503-.264-.672-.176-.17-.439-.255-.791-.255-.364,0-.634.062-.81.187s-.315.386-.418.786l-.764-.218c.097-.516.311-.903.641-1.164s.777-.391,1.341-.391c.558,0,1.021.132,1.392.396.369.265.555.67.555,1.216v2.532c0,.31.081.508.245.593.163.085.409.097.736.036v.8c-.382.061-.717.032-1.005-.086s-.446-.393-.477-.823h-.173c-.152.279-.384.511-.695.695-.312.186-.663.277-1.051.277ZM276.994,111.362c.297,0,.563-.059.8-.174.236-.116.439-.311.609-.585v-.905h-1.428c-.261,0-.47.062-.627.183-.158.122-.236.332-.236.631,0,.269.067.478.204.626.137.149.362.225.678.225Z"/>
    <path d="M283.693,112.116c-.43,0-.847-.063-1.25-.19-.402-.127-.765-.32-1.086-.58l.373-.698c.272.211.58.377.922.497.343.121.689.181,1.041.181.315,0,.594-.051.837-.153.242-.103.363-.301.363-.597,0-.271-.106-.462-.318-.574-.212-.111-.6-.212-1.163-.303-.643-.104-1.118-.274-1.428-.515-.309-.24-.464-.601-.464-1.081,0-.528.187-.931.56-1.208.373-.276.822-.414,1.35-.414.395,0,.777.069,1.15.209s.711.33,1.014.572l-.373.7c-.254-.2-.533-.365-.836-.495-.304-.131-.618-.195-.945-.195-.291,0-.538.058-.741.172-.203.115-.305.312-.305.592,0,.26.104.448.31.563s.594.218,1.163.309c.648.104,1.128.282,1.437.536.31.255.464.606.464,1.055,0,.546-.205.952-.614,1.219-.408.267-.895.399-1.459.399Z"/>
    <path d="M288.803,109.544v2.481h-.882v-7.272h.882v4.036h.418l1.591-2.218h1.055l-1.954,2.54,1.927,2.914h-1l-1.618-2.481h-.418Z"/>
  </g>
  <g>
    <path d="M312.468,112.116c-.673,0-1.191-.173-1.555-.518-.364-.346-.546-.84-.546-1.482v-1.6c0-.648.182-1.15.546-1.505.363-.354.885-.531,1.563-.531.666,0,1.182.177,1.545.531.364.354.546.856.546,1.505v1.591c0,.648-.182,1.146-.546,1.491-.363.345-.882.518-1.554.518ZM312.468,111.325c.412,0,.719-.097.922-.29.203-.194.305-.5.305-.919v-1.6c0-.424-.102-.738-.305-.941-.203-.202-.51-.304-.922-.304s-.72.102-.923.304c-.203.203-.305.518-.305.941v1.6c0,.419.102.725.305.919.203.193.51.29.923.29Z"/>
    <path d="M316.785,112.025v-5.454h.882v.872h.246c.114-.333.294-.577.536-.731s.533-.231.872-.231c.382,0,.697.132.946.396.248.264.372.638.372,1.122v.837h-.836v-.519c0-.346-.068-.599-.205-.759-.136-.161-.35-.241-.641-.241-.261,0-.498.07-.714.209-.215.14-.407.352-.577.637v3.863h-.882Z"/>
    <path d="M322.403,112.025v-.791h1.664v-3.872h-1.664v-.791h2.546v4.663h1.654v.791h-4.2ZM324.513,105.562c-.219,0-.395-.036-.527-.108-.134-.073-.2-.206-.2-.4v-.063c0-.2.066-.338.2-.414.133-.075.309-.113.527-.113s.394.038.527.113c.133.076.2.214.2.414v.063c0,.194-.068.327-.205.4-.136.072-.311.108-.522.108Z"/>
    <path d="M333.03,112.471c0,.491-.165.858-.495,1.101s-.738.363-1.223.363h-1.563c-.51,0-.926-.107-1.25-.323s-.486-.554-.486-1.016c0-.291.072-.523.218-.696s.352-.271.618-.296v-.191c-.194-.036-.354-.123-.481-.262-.128-.139-.191-.353-.191-.642,0-.259.077-.491.232-.695.154-.205.407-.323.759-.353v-.172c-.267-.098-.45-.246-.55-.447-.101-.2-.15-.389-.15-.565v-.255c0-.42.164-.767.491-1.04s.791-.41,1.391-.41h2.491v.809l-1.3-.218v.173c.218.066.386.193.504.382.118.188.178.376.178.563v.245c0,.418-.151.757-.455,1.014-.303.258-.781.387-1.436.387h-.991c-.151,0-.267.041-.346.123-.079.081-.118.223-.118.422,0,.188.055.329.164.423.108.095.27.142.481.142h1.873c.473,0,.863.111,1.173.336.309.225.463.591.463,1.1ZM329.73,113.217h1.682c.242,0,.441-.054.596-.159.154-.106.231-.29.231-.55,0-.243-.067-.417-.204-.523-.137-.105-.316-.159-.541-.159h-2.609v.628c0,.254.071.445.214.572.143.128.354.191.632.191ZM330.357,109.253c.334,0,.587-.067.76-.201s.259-.35.259-.648v-.283c0-.292-.086-.504-.259-.635s-.426-.196-.76-.196-.586.065-.759.196-.259.343-.259.635v.283c0,.299.086.515.259.648s.426.201.759.201Z"/>
    <path d="M343.431,112.107c-.563,0-1.003-.151-1.318-.454-.315-.304-.473-.746-.473-1.328v-2.963h-1.4v-.791h1.4v-1.818h.882v1.818h2.146v.791h-2.146v2.872c0,.346.08.604.241.777.16.173.395.26.704.26.206,0,.401-.016.586-.046.186-.03.359-.075.523-.137l.173.81c-.177.061-.375.11-.596.15-.222.039-.463.059-.723.059Z"/>
    <path d="M346.948,108.08v3.945h-.8v-5.454h.8v.7h.173c.097-.249.23-.442.4-.582.169-.14.352-.209.545-.209.219,0,.4.068.546.204.146.137.248.332.309.587h.182c.104-.249.244-.442.423-.582s.374-.209.587-.209c.278,0,.497.118.654.354s.236.563.236.981v4.209h-.8v-4.082c0-.254-.032-.448-.096-.581-.063-.134-.159-.2-.286-.2-.115,0-.247.08-.396.241-.148.16-.299.386-.45.677v3.945h-.8v-4.082c0-.26-.033-.455-.1-.586-.067-.13-.164-.195-.291-.195-.115,0-.244.079-.387.236s-.292.385-.45.682Z"/>
    <path d="M353.866,112.116c-.448,0-.83-.127-1.146-.382-.314-.254-.473-.646-.473-1.173,0-.473.146-.847.437-1.122.291-.276.648-.414,1.073-.414h1.646v-.818c0-.278-.088-.503-.264-.672-.176-.17-.439-.255-.791-.255-.364,0-.634.062-.81.187s-.315.386-.418.786l-.764-.218c.097-.516.311-.903.641-1.164s.777-.391,1.341-.391c.558,0,1.021.132,1.392.396.369.265.555.67.555,1.216v2.532c0,.31.081.508.245.593.163.085.409.097.736.036v.8c-.382.061-.717.032-1.005-.086s-.446-.393-.477-.823h-.173c-.152.279-.384.511-.695.695-.312.186-.663.277-1.051.277ZM353.994,111.362c.297,0,.563-.059.8-.174.236-.116.439-.311.609-.585v-.905h-1.428c-.261,0-.47.062-.627.183-.158.122-.236.332-.236.631,0,.269.067.478.204.626.137.149.362.225.678.225Z"/>
    <path d="M360.693,112.116c-.43,0-.847-.063-1.25-.19-.402-.127-.765-.32-1.086-.58l.373-.698c.272.211.58.377.922.497.343.121.689.181,1.041.181.315,0,.594-.051.837-.153.242-.103.363-.301.363-.597,0-.271-.106-.462-.318-.574-.212-.111-.6-.212-1.163-.303-.643-.104-1.118-.274-1.428-.515-.309-.24-.464-.601-.464-1.081,0-.528.187-.931.56-1.208.373-.276.822-.414,1.35-.414.395,0,.777.069,1.15.209s.711.33,1.014.572l-.373.7c-.254-.2-.533-.365-.836-.495-.304-.131-.618-.195-.945-.195-.291,0-.538.058-.741.172-.203.115-.305.312-.305.592,0,.26.104.448.31.563s.594.218,1.163.309c.648.104,1.128.282,1.437.536.31.255.464.606.464,1.055,0,.546-.205.952-.614,1.219-.408.267-.895.399-1.459.399Z"/>
    <path d="M365.803,109.544v2.481h-.882v-7.272h.882v4.036h.418l1.591-2.218h1.055l-1.954,2.54,1.927,2.914h-1l-1.618-2.481h-.418Z"/>
  </g>
  <g>
    <path d="M116.479,37.922h1.178v8.607h-1.178v-8.607Z"/>
    <path d="M119.66,37.922h3.852c.762,0,1.376.215,1.845.646.468.432.702,1.039.702,1.82,0,.672-.209,1.256-.627,1.754s-1.057.748-1.918.748h-2.688v3.639h-1.166v-8.607ZM124.183,39.105c-.256-.121-.607-.182-1.053-.182h-2.304v2.982h2.304c.52,0,.941-.111,1.265-.334.324-.223.486-.615.486-1.178,0-.633-.233-1.062-.698-1.289Z"/>
    <path d="M127.605,37.922h3.44c1.168,0,2.073.42,2.718,1.26.574.758.861,1.729.861,2.912,0,.914-.17,1.74-.509,2.479-.598,1.305-1.625,1.957-3.082,1.957h-3.429v-8.607ZM130.817,45.533c.385,0,.702-.041.95-.123.443-.152.807-.445,1.089-.879.226-.348.388-.793.487-1.336.057-.324.086-.625.086-.902,0-1.066-.207-1.895-.622-2.484-.414-.59-1.082-.885-2.002-.885h-2.022v6.609h2.034Z"/>
    <path d="M143.309,39.152c.57.762.855,1.736.855,2.924,0,1.285-.326,2.354-.979,3.205-.766,1-1.857,1.5-3.275,1.5-1.324,0-2.365-.438-3.123-1.312-.676-.844-1.014-1.91-1.014-3.199,0-1.164.289-2.16.867-2.988.742-1.062,1.84-1.594,3.293-1.594,1.52,0,2.645.488,3.375,1.465ZM142.28,44.639c.459-.737.688-1.585.688-2.543,0-1.012-.265-1.827-.794-2.445-.529-.617-1.253-.926-2.171-.926-.891,0-1.617.306-2.18.918-.562.611-.844,1.514-.844,2.705,0,.955.241,1.759.724,2.414.482.654,1.265.982,2.347.982,1.027,0,1.771-.369,2.229-1.105Z"/>
    <path d="M145.523,37.922h1.67l2.476,7.277,2.457-7.277h1.659v8.607h-1.113v-5.08c0-.176.004-.467.012-.873s.012-.842.012-1.307l-2.458,7.26h-1.155l-2.48-7.26v.264c0,.211.006.531.018.963s.018.75.018.953v5.08h-1.113v-8.607Z"/>
    <path d="M159.645,43.752c.026.488.137.885.333,1.189.372.57,1.029.855,1.97.855.421,0,.805-.062,1.151-.188.67-.242,1.005-.676,1.005-1.301,0-.469-.143-.803-.426-1.002-.288-.195-.738-.365-1.352-.51l-1.129-.264c-.738-.172-1.261-.361-1.566-.568-.53-.359-.795-.896-.795-1.611,0-.773.26-1.408.781-1.904.521-.496,1.258-.744,2.212-.744.878,0,1.624.217,2.238.652.613.436.921,1.133.921,2.09h-1.096c-.057-.461-.177-.814-.359-1.061-.341-.449-.92-.674-1.736-.674-.659,0-1.133.145-1.421.434-.289.289-.433.625-.433,1.008,0,.422.17.73.511.926.224.125.729.281,1.516.469l1.17.275c.563.133.999.314,1.306.545.529.402.795.986.795,1.752,0,.953-.338,1.635-1.015,2.045-.676.41-1.462.615-2.357.615-1.044,0-1.86-.273-2.451-.82-.591-.543-.88-1.279-.868-2.209h1.096Z"/>
    <path d="M166.957,38.502h1.066v1.752h1.002v.861h-1.002v4.096c0,.219.074.365.223.439.082.043.219.064.41.064.051,0,.105-.002.164-.004.059-.003.127-.01.205-.02v.838c-.121.035-.247.061-.378.076s-.272.023-.425.023c-.492,0-.826-.127-1.002-.379s-.264-.578-.264-.98v-4.154h-.85v-.861h.85v-1.752Z"/>
    <path d="M173.443,42.73c.242-.031.404-.132.486-.304.047-.095.07-.229.07-.405,0-.361-.128-.623-.383-.785-.256-.163-.621-.244-1.097-.244-.55,0-.939.148-1.17.447-.129.164-.212.41-.251.736h-.984c.02-.775.27-1.316.752-1.619.481-.304,1.041-.455,1.677-.455.737,0,1.336.141,1.797.422.456.281.685.719.685,1.312v3.615c0,.109.022.197.067.264s.14.1.284.1c.047,0,.1-.004.158-.01s.121-.014.188-.025v.779c-.164.047-.289.076-.375.088s-.203.018-.352.018c-.363,0-.627-.129-.791-.387-.086-.137-.146-.33-.182-.58-.215.281-.523.525-.926.732s-.846.311-1.33.311c-.582,0-1.058-.178-1.427-.53s-.554-.795-.554-1.325c0-.582.182-1.032.545-1.352.363-.32.84-.518,1.43-.592l1.682-.211ZM171.223,45.58c.223.176.486.264.791.264.371,0,.73-.086,1.078-.258.586-.285.879-.751.879-1.398v-.848c-.129.082-.295.15-.497.205-.203.055-.401.094-.597.117l-.638.082c-.382.051-.669.131-.861.24-.326.184-.489.476-.489.877,0,.304.111.543.334.719Z"/>
    <path d="M180.899,40.588c.443.344.71.936.8,1.775h-1.025c-.062-.387-.205-.709-.428-.965s-.58-.383-1.072-.383c-.672,0-1.152.327-1.441.982-.188.426-.281.95-.281,1.574,0,.629.133,1.157.398,1.586.266.43.684.645,1.254.645.438,0,.784-.134,1.04-.4s.433-.631.53-1.094h1.025c-.117.832-.41,1.439-.879,1.824s-1.068.578-1.799.578c-.82,0-1.475-.301-1.963-.9s-.732-1.348-.732-2.246c0-1.102.268-1.959.803-2.572s1.217-.92,2.045-.92c.707,0,1.282.172,1.726.516Z"/>
    <path d="M182.73,37.922h1.014v4.997l2.704-2.665h1.348l-2.412,2.333,2.547,3.942h-1.347l-1.974-3.193-.866.838v2.355h-1.014v-8.607Z"/>
  </g>
  <g>
    <path d="M364.164,25.922h3.722c1.014,0,1.735.301,2.164.902.252.355.378.766.378,1.23,0,.543-.154.988-.463,1.336-.16.184-.391.352-.691.504.441.168.771.357.99.568.387.375.58.893.58,1.553,0,.555-.175,1.057-.525,1.506-.522.672-1.354,1.008-2.493,1.008h-3.661v-8.607ZM367.45,29.561c.497,0,.884-.068,1.16-.205.434-.215.651-.602.651-1.16,0-.562-.231-.941-.693-1.137-.26-.109-.647-.164-1.16-.164h-2.102v2.666h2.144ZM367.844,33.533c.722,0,1.236-.207,1.544-.621.193-.262.29-.578.29-.949,0-.625-.282-1.051-.846-1.277-.3-.121-.696-.182-1.189-.182h-2.336v3.029h2.537Z"/>
    <path d="M372.086,28.254h1.002v1.084c.082-.211.283-.469.604-.771s.689-.453,1.107-.453c.02,0,.053.002.1.006s.127.012.24.023v1.113c-.062-.012-.12-.02-.173-.023s-.11-.006-.173-.006c-.531,0-.939.17-1.225.512s-.428.736-.428,1.182v3.609h-1.055v-6.275Z"/>
    <path d="M379.416,30.73c.242-.031.404-.132.486-.304.047-.095.07-.229.07-.405,0-.361-.128-.623-.383-.785-.256-.163-.621-.244-1.097-.244-.55,0-.939.148-1.17.447-.129.164-.212.41-.251.736h-.984c.02-.775.27-1.316.752-1.619.481-.304,1.041-.455,1.677-.455.737,0,1.336.141,1.797.422.456.281.685.719.685,1.312v3.615c0,.109.022.197.067.264s.14.1.284.1c.047,0,.1-.004.158-.01s.121-.014.188-.025v.779c-.164.047-.289.076-.375.088s-.203.018-.352.018c-.363,0-.627-.129-.791-.387-.086-.137-.146-.33-.182-.58-.215.281-.523.525-.926.732s-.846.311-1.33.311c-.582,0-1.058-.178-1.427-.53s-.554-.795-.554-1.325c0-.582.182-1.032.545-1.352.363-.32.84-.518,1.43-.592l1.682-.211ZM377.195,33.58c.223.176.486.264.791.264.371,0,.73-.086,1.078-.258.586-.285.879-.751.879-1.398v-.848c-.129.082-.295.15-.497.205-.203.055-.401.094-.597.117l-.638.082c-.382.051-.669.131-.861.24-.326.184-.489.476-.489.877,0,.304.111.543.334.719Z"/>
    <path d="M382.727,28.254h1.002v.891c.297-.367.611-.631.943-.791s.701-.24,1.107-.24c.891,0,1.492.311,1.805.932.172.34.258.826.258,1.459v4.025h-1.072v-3.955c0-.383-.057-.691-.17-.926-.188-.391-.527-.586-1.02-.586-.25,0-.455.025-.615.076-.289.086-.543.258-.762.516-.176.207-.29.42-.343.641s-.079.537-.079.947v3.287h-1.055v-6.275Z"/>
    <path d="M393.546,28.588c.443.344.71.936.8,1.775h-1.025c-.062-.387-.205-.709-.428-.965s-.58-.383-1.072-.383c-.672,0-1.152.327-1.441.982-.188.426-.281.95-.281,1.574,0,.629.133,1.157.398,1.586.266.43.684.645,1.254.645.438,0,.784-.134,1.04-.4s.433-.631.53-1.094h1.025c-.117.832-.41,1.439-.879,1.824s-1.068.578-1.799.578c-.82,0-1.475-.301-1.963-.9s-.732-1.348-.732-2.246c0-1.102.268-1.959.803-2.572s1.217-.92,2.045-.92c.707,0,1.282.172,1.726.516Z"/>
    <path d="M395.4,25.893h1.055v3.211c.25-.316.475-.539.674-.668.34-.223.764-.334,1.271-.334.91,0,1.527.318,1.852.955.176.348.264.83.264,1.447v4.025h-1.084v-3.955c0-.461-.059-.799-.176-1.014-.191-.344-.551-.516-1.078-.516-.438,0-.834.15-1.189.451s-.533.869-.533,1.705v3.328h-1.055v-8.637Z"/>
    <path d="M376.451,37.922v1.025h-2.9v7.582h-1.178v-7.582h-2.9v-1.025h6.979Z"/>
    <path d="M379.416,42.73c.242-.031.404-.132.486-.304.047-.095.07-.229.07-.405,0-.361-.128-.623-.383-.785-.256-.163-.621-.244-1.097-.244-.55,0-.939.148-1.17.447-.129.164-.212.41-.251.736h-.984c.02-.775.27-1.316.752-1.619.481-.304,1.041-.455,1.677-.455.737,0,1.336.141,1.797.422.456.281.685.719.685,1.312v3.615c0,.109.022.197.067.264s.14.1.284.1c.047,0,.1-.004.158-.01s.121-.014.188-.025v.779c-.164.047-.289.076-.375.088s-.203.018-.352.018c-.363,0-.627-.129-.791-.387-.086-.137-.146-.33-.182-.58-.215.281-.523.525-.926.732s-.846.311-1.33.311c-.582,0-1.058-.178-1.427-.53s-.554-.795-.554-1.325c0-.582.182-1.032.545-1.352.363-.32.84-.518,1.43-.592l1.682-.211ZM377.195,45.58c.223.176.486.264.791.264.371,0,.73-.086,1.078-.258.586-.285.879-.751.879-1.398v-.848c-.129.082-.295.15-.497.205-.203.055-.401.094-.597.117l-.638.082c-.382.051-.669.131-.861.24-.326.184-.489.476-.489.877,0,.304.111.543.334.719Z"/>
    <path d="M382.703,37.922h1.014v4.997l2.704-2.665h1.348l-2.412,2.333,2.547,3.942h-1.347l-1.974-3.193-.866.838v2.355h-1.014v-8.607Z"/>
    <path d="M392.603,40.426c.415.209.731.48.949.812.21.316.35.686.419,1.107.062.289.094.75.094,1.383h-4.564c.02.639.168,1.15.447,1.536s.711.579,1.297.579c.546,0,.982-.184,1.308-.548.183-.212.312-.457.388-.735h1.037c-.027.23-.118.486-.272.77s-.327.516-.517.695c-.318.312-.712.523-1.181.633-.252.062-.537.094-.854.094-.776,0-1.435-.285-1.974-.854-.54-.568-.81-1.363-.81-2.387,0-1.008.271-1.826.815-2.455.543-.629,1.254-.943,2.131-.943.442,0,.872.104,1.287.312ZM392.98,42.891c-.043-.457-.142-.822-.297-1.096-.286-.508-.765-.762-1.435-.762-.48,0-.884.174-1.209.523s-.497.795-.517,1.334h3.457Z"/>
    <path d="M395.4,40.254h1.002v.891c.297-.367.611-.631.943-.791s.701-.24,1.107-.24c.891,0,1.492.311,1.805.932.172.34.258.826.258,1.459v4.025h-1.072v-3.955c0-.383-.057-.691-.17-.926-.188-.391-.527-.586-1.02-.586-.25,0-.455.025-.615.076-.289.086-.543.258-.762.516-.176.207-.29.42-.343.641s-.079.537-.079.947v3.287h-1.055v-6.275Z"/>
  </g>
  <g>
    <path class="cls-8" d="M383.394,169.156h4.976v.879h-4.004v2.178h3.521v.854h-3.521v3.262h-.972v-7.173Z"/>
    <path class="cls-8" d="M389.316,169.156h.879v7.173h-.879v-7.173Z"/>
    <path class="cls-8" d="M395.303,171.622c.463.448.693,1.108.693,1.98,0,.842-.203,1.538-.61,2.088s-1.04.824-1.896.824c-.714,0-1.281-.243-1.701-.729-.421-.485-.631-1.139-.631-1.958,0-.879.222-1.578.664-2.098.443-.521,1.038-.781,1.785-.781.669,0,1.234.225,1.696.674ZM394.757,175.098c.215-.44.321-.931.321-1.471,0-.487-.077-.885-.231-1.19-.245-.48-.666-.722-1.265-.722-.531,0-.918.205-1.159.615-.241.409-.362.903-.362,1.482,0,.556.121,1.019.362,1.39.241.37.624.556,1.149.556.576,0,.971-.22,1.185-.66Z"/>
    <path class="cls-8" d="M397.002,171.124h.859v.693c.177-.237.369-.421.578-.552.297-.195.646-.293,1.048-.293.594,0,1.098.228,1.513.682.414.454.621,1.103.621,1.945,0,1.14-.299,1.953-.896,2.441-.38.31-.82.464-1.324.464-.396,0-.727-.086-.995-.259-.156-.098-.331-.265-.524-.503v2.671h-.879v-7.29ZM400.309,175.224c.273-.344.409-.857.409-1.541,0-.416-.061-.774-.181-1.074-.229-.576-.647-.864-1.255-.864s-1.028.305-1.254.913c-.121.326-.182.739-.182,1.24,0,.404.061.747.182,1.03.229.541.646.811,1.254.811.412,0,.754-.172,1.026-.515Z"/>
    <path class="cls-8" d="M403.159,174.688c.026.293.102.518.225.674.226.283.618.425,1.176.425.332,0,.625-.07.877-.212.253-.142.379-.36.379-.657,0-.225-.101-.396-.303-.513-.129-.071-.384-.154-.764-.249l-.71-.176c-.453-.11-.787-.234-1.002-.371-.384-.237-.576-.566-.576-.986,0-.494.181-.895.542-1.201.361-.306.847-.459,1.457-.459.799,0,1.374.231,1.728.693.221.293.328.609.321.947h-.83c-.017-.197-.088-.377-.215-.539-.206-.229-.564-.345-1.074-.345-.34,0-.598.063-.772.19-.175.126-.263.293-.263.501,0,.227.115.408.345.545.133.081.329.152.587.214l.593.142c.644.153,1.074.302,1.293.444.342.225.513.578.513,1.06,0,.466-.179.868-.536,1.206-.357.339-.902.508-1.634.508-.788,0-1.346-.177-1.674-.529-.327-.354-.503-.79-.526-1.312h.845Z"/>
  </g>
  <g>
    <path class="cls-8" d="M346.936,174.015c.022.407.114.737.277.991.311.476.858.713,1.642.713.352,0,.671-.052.96-.156.558-.201.837-.562.837-1.084,0-.391-.118-.669-.354-.835-.24-.162-.615-.304-1.126-.425l-.941-.22c-.614-.143-1.05-.301-1.306-.474-.441-.299-.662-.747-.662-1.343,0-.645.217-1.173.651-1.587.434-.413,1.048-.62,1.844-.62.731,0,1.354.182,1.864.545.512.362.768.943.768,1.74h-.913c-.047-.384-.146-.679-.3-.884-.283-.374-.766-.562-1.446-.562-.549,0-.944.121-1.185.361-.24.241-.36.521-.36.84,0,.352.143.609.426.771.187.104.607.234,1.264.391l.975.229c.47.111.832.263,1.088.454.441.336.662.822.662,1.46,0,.795-.281,1.362-.845,1.704s-1.219.513-1.965.513c-.869,0-1.551-.228-2.043-.684-.492-.452-.733-1.065-.724-1.841h.913Z"/>
    <path class="cls-8" d="M353.088,169.156h3.261c.537,0,.979.08,1.328.239.661.307.992.871.992,1.694,0,.43-.089.781-.266,1.055-.178.273-.426.493-.745.659.28.114.491.264.633.449s.221.487.236.903l.034.962c.01.273.033.478.068.61.059.229.163.375.312.439v.161h-1.191c-.032-.062-.059-.142-.078-.239s-.035-.286-.049-.566l-.059-1.196c-.021-.469-.191-.782-.508-.942-.18-.088-.463-.132-.849-.132h-2.149v3.076h-.972v-7.173ZM356.244,172.442c.443,0,.794-.091,1.052-.273.258-.182.387-.511.387-.986,0-.511-.181-.859-.541-1.045-.193-.098-.451-.146-.774-.146h-2.308v2.451h2.185Z"/>
    <path class="cls-8" d="M362.277,169.156h1.099l2.603,7.173h-1.064l-.728-2.148h-2.837l-.776,2.148h-.996l2.7-7.173ZM363.874,173.39l-1.089-3.169-1.157,3.169h2.246Z"/>
    <path class="cls-8" d="M366.838,169.156h1.393l2.062,6.064,2.048-6.064h1.382v7.173h-.928v-4.233c0-.146.004-.389.01-.728.007-.338.01-.701.01-1.089l-2.048,6.05h-.963l-2.067-6.05v.22c0,.176.005.443.015.804.01.359.015.624.015.793v4.233h-.928v-7.173Z"/>
  </g>
  <path class="cls-1" d="M152.5,187.87v11.13h-16v-11.13c0-2.087,1.391-7.652,8-7.652s8,5.565,8,7.652Z"/>
</svg>