<?xml version="1.0" encoding="UTF-8"?>
<svg id="Layer_2" data-name="Layer 2" xmlns="http://www.w3.org/2000/svg" viewBox="0 0 511.71 144.81">
  <defs>
    <style>
      .cls-1 {
        fill: #231f20;
      }

      .cls-2 {
        fill: #6d6e71;
      }

      .cls-3 {
        stroke: #bcbec0;
        stroke-dasharray: 2;
      }

      .cls-3, .cls-4 {
        fill: none;
      }

      .cls-3, .cls-4, .cls-5, .cls-6 {
        stroke-miterlimit: 10;
      }

      .cls-4 {
        stroke-width: .5px;
      }

      .cls-4, .cls-5 {
        stroke: #231f20;
      }

      .cls-7 {
        fill: #808285;
      }

      .cls-5, .cls-6 {
        fill: #fff;
      }

      .cls-6 {
        stroke: #6d6e71;
      }
    </style>
  </defs>
  <g id="Background">
    <line class="cls-3" x1="50.34" y1=".81" x2="50.34" y2="144.81"/>
    <line class="cls-3" x1="278.99" y1=".81" x2="278.99" y2="144.81"/>
    <line class="cls-3" x1="365.94" y1=".81" x2="365.94" y2="144.81"/>
    <line class="cls-3" x1="132.6" y1=".81" x2="132.6" y2="144.81"/>
    <g>
      <path class="cls-7" d="M76,1.4h1.49v7.2h-1.49V1.4Z"/>
      <path class="cls-7" d="M82.19,8.6h-3.26V1.4h3.5c.88.01,1.51.27,1.88.77.22.31.33.67.33,1.1s-.11.79-.33,1.06c-.12.15-.31.29-.55.41.37.13.65.34.83.63.19.29.28.64.28,1.05s-.11.81-.32,1.15c-.14.22-.31.41-.51.57-.23.18-.5.3-.82.36-.31.06-.66.1-1.02.1ZM82.9,4.06c.2-.12.29-.33.29-.63,0-.34-.13-.56-.39-.66-.22-.08-.51-.11-.86-.11h-1.58v1.59h1.77c.32,0,.57-.06.77-.18ZM82.15,5.43h-1.79v1.92h1.77c.32,0,.56-.04.74-.13.32-.16.48-.46.48-.9,0-.38-.15-.63-.46-.77-.17-.08-.42-.12-.73-.12Z"/>
      <path class="cls-7" d="M89.42,7.85s-.05.06-.1.15c-.05.08-.11.15-.19.21-.22.2-.43.33-.63.4-.2.07-.44.11-.72.11-.79,0-1.32-.28-1.59-.85-.15-.31-.23-.77-.23-1.38v-3.21h1.43v3.21c0,.3.04.53.11.68.13.27.38.41.75.41.48,0,.8-.19.98-.58.09-.21.14-.48.14-.83v-2.9h1.41v5.32h-1.35v-.75Z"/>
      <path class="cls-7" d="M94.61,1.36v1.13c-.08,0-.21-.02-.39-.02s-.31.04-.38.12c-.07.09-.1.18-.1.29v.45h.91v.98h-.91v4.29h-1.39v-4.29h-.78v-.98h.76v-.34c0-.57.1-.96.29-1.18.2-.32.69-.48,1.46-.48.09,0,.17,0,.24,0s.17.01.29.02Z"/>
      <path class="cls-7" d="M97.94,1.36v1.13c-.08,0-.21-.02-.39-.02s-.31.04-.38.12c-.07.09-.1.18-.1.29v.45h.91v.98h-.91v4.29h-1.39v-4.29h-.78v-.98h.76v-.34c0-.57.1-.96.29-1.18.2-.32.69-.48,1.46-.48.09,0,.17,0,.24,0s.17.01.29.02Z"/>
      <path class="cls-7" d="M103.33,7.04c-.04.32-.2.64-.49.96-.46.52-1.09.78-1.91.78-.68,0-1.27-.22-1.79-.65-.52-.44-.78-1.15-.78-2.13,0-.92.23-1.63.7-2.12.47-.49,1.07-.74,1.82-.74.44,0,.84.08,1.2.25s.65.43.88.79c.21.32.34.68.41,1.1.04.24.05.6.04,1.05h-3.64c.02.53.19.91.5,1.12.19.13.42.2.69.2.29,0,.52-.08.7-.24.1-.09.18-.21.26-.37h1.42ZM101.96,5.41c-.02-.37-.13-.65-.33-.84s-.45-.29-.74-.29c-.32,0-.57.1-.75.3-.18.2-.29.47-.33.82h2.16Z"/>
      <path class="cls-7" d="M107.01,4.56c-.56,0-.94.18-1.13.55-.11.21-.16.52-.16.95v2.54h-1.4V3.28h1.33v.93c.21-.36.4-.6.56-.73.26-.22.6-.33,1.02-.33.03,0,.05,0,.07,0,.02,0,.06,0,.12,0v1.43c-.09,0-.17-.02-.23-.02-.07,0-.12,0-.17,0Z"/>
    </g>
    <g>
      <path class="cls-7" d="M190.88,1.4h1.49v7.2h-1.49V1.4Z"/>
      <path class="cls-7" d="M197.33,3.52c.42.27.66.73.72,1.38h-1.39c-.02-.18-.07-.32-.15-.42-.15-.19-.41-.28-.78-.28-.3,0-.52.05-.65.14-.13.09-.19.21-.19.33,0,.16.07.27.21.35.14.07.62.2,1.45.39.55.13.97.33,1.25.59.27.27.41.6.41,1,0,.53-.2.96-.59,1.29-.39.33-1,.5-1.82.5s-1.45-.18-1.85-.53c-.4-.35-.6-.8-.6-1.35h1.41c.03.25.09.42.19.53.17.19.49.28.96.28.27,0,.49-.04.65-.12.16-.08.24-.2.24-.37s-.06-.28-.2-.36c-.13-.08-.61-.22-1.45-.42-.6-.15-1.03-.34-1.27-.56-.25-.22-.37-.54-.37-.96,0-.49.19-.91.58-1.27.39-.35.93-.53,1.63-.53s1.21.13,1.63.4Z"/>
      <path class="cls-7" d="M202.89,3.52c.42.27.66.73.72,1.38h-1.39c-.02-.18-.07-.32-.15-.42-.15-.19-.41-.28-.78-.28-.3,0-.52.05-.65.14-.13.09-.19.21-.19.33,0,.16.07.27.21.35.14.07.62.2,1.45.39.55.13.97.33,1.25.59.27.27.41.6.41,1,0,.53-.2.96-.59,1.29-.39.33-1,.5-1.82.5s-1.45-.18-1.85-.53c-.4-.35-.6-.8-.6-1.35h1.41c.03.25.09.42.19.53.17.19.49.28.96.28.27,0,.49-.04.65-.12.16-.08.24-.2.24-.37s-.06-.28-.2-.36c-.13-.08-.61-.22-1.45-.42-.6-.15-1.03-.34-1.27-.56-.25-.22-.37-.54-.37-.96,0-.49.19-.91.58-1.27.39-.35.93-.53,1.63-.53s1.21.13,1.63.4Z"/>
      <path class="cls-7" d="M208.2,7.85s-.05.06-.1.15c-.05.08-.11.15-.19.21-.22.2-.43.33-.63.4-.2.07-.44.11-.72.11-.79,0-1.32-.28-1.59-.85-.15-.31-.23-.77-.23-1.38v-3.21h1.43v3.21c0,.3.04.53.11.68.13.27.38.41.75.41.48,0,.8-.19.98-.58.09-.21.14-.48.14-.83v-2.9h1.41v5.32h-1.35v-.75Z"/>
      <path class="cls-7" d="M215.45,7.04c-.04.32-.2.64-.49.96-.46.52-1.09.78-1.91.78-.68,0-1.27-.22-1.79-.65-.52-.44-.78-1.15-.78-2.13,0-.92.23-1.63.7-2.12.47-.49,1.07-.74,1.82-.74.44,0,.84.08,1.2.25s.65.43.88.79c.21.32.34.68.41,1.1.04.24.05.6.04,1.05h-3.64c.02.53.19.91.5,1.12.19.13.42.2.69.2.29,0,.52-.08.7-.24.1-.09.18-.21.26-.37h1.42ZM214.07,5.41c-.02-.37-.13-.65-.33-.84s-.45-.29-.74-.29c-.32,0-.57.1-.75.3-.18.2-.29.47-.33.82h2.16Z"/>
      <path class="cls-7" d="M218.56,8.77c-.9,0-1.53-.32-1.9-.95-.36-.63-.54-1.53-.54-2.7s.18-2.07.54-2.71,1-.95,1.9-.95,1.53.32,1.9.95c.36.63.54,1.54.54,2.71s-.18,2.07-.54,2.7c-.36.63-1,.95-1.9.95ZM219.37,6.99c.13-.43.19-1.05.19-1.87,0-.85-.06-1.48-.19-1.89s-.4-.62-.81-.62-.69.21-.82.62-.2,1.04-.2,1.89.07,1.44.2,1.87c.13.43.41.65.82.65s.69-.22.82-.65Z"/>
    </g>
    <g>
      <path class="cls-7" d="M307.54,1.4h1.49v7.2h-1.49V1.4Z"/>
      <path class="cls-7" d="M314,3.52c.42.27.66.73.72,1.38h-1.39c-.02-.18-.07-.32-.15-.42-.15-.19-.41-.28-.78-.28-.3,0-.52.05-.65.14-.13.09-.19.21-.19.33,0,.16.07.27.21.35.14.07.62.2,1.45.39.55.13.97.33,1.25.59.27.27.41.6.41,1,0,.53-.2.96-.59,1.29-.39.33-1,.5-1.82.5s-1.45-.18-1.85-.53c-.4-.35-.6-.8-.6-1.35h1.41c.03.25.09.42.19.53.17.19.49.28.96.28.27,0,.49-.04.65-.12.16-.08.24-.2.24-.37s-.06-.28-.2-.36c-.13-.08-.61-.22-1.45-.42-.6-.15-1.03-.34-1.27-.56-.25-.22-.37-.54-.37-.96,0-.49.19-.91.58-1.27.39-.35.93-.53,1.63-.53s1.21.13,1.63.4Z"/>
      <path class="cls-7" d="M319.56,3.52c.42.27.66.73.72,1.38h-1.39c-.02-.18-.07-.32-.15-.42-.15-.19-.41-.28-.78-.28-.3,0-.52.05-.65.14-.13.09-.19.21-.19.33,0,.16.07.27.21.35.14.07.62.2,1.45.39.55.13.97.33,1.25.59.27.27.41.6.41,1,0,.53-.2.96-.59,1.29-.39.33-1,.5-1.82.5s-1.45-.18-1.85-.53c-.4-.35-.6-.8-.6-1.35h1.41c.03.25.09.42.19.53.17.19.49.28.96.28.27,0,.49-.04.65-.12.16-.08.24-.2.24-.37s-.06-.28-.2-.36c-.13-.08-.61-.22-1.45-.42-.6-.15-1.03-.34-1.27-.56-.25-.22-.37-.54-.37-.96,0-.49.19-.91.58-1.27.39-.35.93-.53,1.63-.53s1.21.13,1.63.4Z"/>
      <path class="cls-7" d="M324.86,7.85s-.05.06-.1.15c-.05.08-.11.15-.19.21-.22.2-.43.33-.63.4-.2.07-.44.11-.72.11-.79,0-1.32-.28-1.59-.85-.15-.31-.23-.77-.23-1.38v-3.21h1.43v3.21c0,.3.04.53.11.68.13.27.38.41.75.41.48,0,.8-.19.98-.58.09-.21.14-.48.14-.83v-2.9h1.41v5.32h-1.35v-.75Z"/>
      <path class="cls-7" d="M332.12,7.04c-.04.32-.2.64-.49.96-.46.52-1.09.78-1.91.78-.68,0-1.27-.22-1.79-.65-.52-.44-.78-1.15-.78-2.13,0-.92.23-1.63.7-2.12.47-.49,1.07-.74,1.82-.74.44,0,.84.08,1.2.25s.65.43.88.79c.21.32.34.68.41,1.1.04.24.05.6.04,1.05h-3.64c.02.53.19.91.5,1.12.19.13.42.2.69.2.29,0,.52-.08.7-.24.1-.09.18-.21.26-.37h1.42ZM330.74,5.41c-.02-.37-.13-.65-.33-.84s-.45-.29-.74-.29c-.32,0-.57.1-.75.3-.18.2-.29.47-.33.82h2.16Z"/>
      <path class="cls-7" d="M336.26,8.6h-1.43V3.72h-1.67v-.95c.44-.02.75-.05.92-.09.28-.06.51-.19.68-.37.12-.13.21-.3.27-.51.04-.13.05-.22.05-.28h1.16v7.08Z"/>
    </g>
    <g>
      <path class="cls-7" d="M390.75,1.4h1.49v7.2h-1.49V1.4Z"/>
      <path class="cls-7" d="M397.2,3.52c.42.27.66.73.72,1.38h-1.39c-.02-.18-.07-.32-.15-.42-.15-.19-.41-.28-.78-.28-.3,0-.52.05-.65.14-.13.09-.19.21-.19.33,0,.16.07.27.21.35.14.07.62.2,1.45.39.55.13.97.33,1.25.59.27.27.41.6.41,1,0,.53-.2.96-.59,1.29-.39.33-1,.5-1.82.5s-1.45-.18-1.85-.53c-.4-.35-.6-.8-.6-1.35h1.41c.03.25.09.42.19.53.17.19.49.28.96.28.27,0,.49-.04.65-.12.16-.08.24-.2.24-.37s-.06-.28-.2-.36c-.13-.08-.61-.22-1.45-.42-.6-.15-1.03-.34-1.27-.56-.25-.22-.37-.54-.37-.96,0-.49.19-.91.58-1.27.39-.35.93-.53,1.63-.53s1.21.13,1.63.4Z"/>
      <path class="cls-7" d="M402.76,3.52c.42.27.66.73.72,1.38h-1.39c-.02-.18-.07-.32-.15-.42-.15-.19-.41-.28-.78-.28-.3,0-.52.05-.65.14-.13.09-.19.21-.19.33,0,.16.07.27.21.35.14.07.62.2,1.45.39.55.13.97.33,1.25.59.27.27.41.6.41,1,0,.53-.2.96-.59,1.29-.39.33-1,.5-1.82.5s-1.45-.18-1.85-.53c-.4-.35-.6-.8-.6-1.35h1.41c.03.25.09.42.19.53.17.19.49.28.96.28.27,0,.49-.04.65-.12.16-.08.24-.2.24-.37s-.06-.28-.2-.36c-.13-.08-.61-.22-1.45-.42-.6-.15-1.03-.34-1.27-.56-.25-.22-.37-.54-.37-.96,0-.49.19-.91.58-1.27.39-.35.93-.53,1.63-.53s1.21.13,1.63.4Z"/>
      <path class="cls-7" d="M408.07,7.85s-.05.06-.1.15c-.05.08-.11.15-.19.21-.22.2-.43.33-.63.4-.2.07-.44.11-.72.11-.79,0-1.32-.28-1.59-.85-.15-.31-.23-.77-.23-1.38v-3.21h1.43v3.21c0,.3.04.53.11.68.13.27.38.41.75.41.48,0,.8-.19.98-.58.09-.21.14-.48.14-.83v-2.9h1.41v5.32h-1.35v-.75Z"/>
      <path class="cls-7" d="M415.32,7.04c-.04.32-.2.64-.49.96-.46.52-1.09.78-1.91.78-.68,0-1.27-.22-1.79-.65-.52-.44-.78-1.15-.78-2.13,0-.92.23-1.63.7-2.12.47-.49,1.07-.74,1.82-.74.44,0,.84.08,1.2.25s.65.43.88.79c.21.32.34.68.41,1.1.04.24.05.6.04,1.05h-3.64c.02.53.19.91.5,1.12.19.13.42.2.69.2.29,0,.52-.08.7-.24.1-.09.18-.21.26-.37h1.42ZM413.94,5.41c-.02-.37-.13-.65-.33-.84s-.45-.29-.74-.29c-.32,0-.57.1-.75.3-.18.2-.29.47-.33.82h2.16Z"/>
      <path class="cls-7" d="M419.15,2.96c-.17-.2-.4-.3-.71-.3-.42,0-.71.16-.86.47-.09.18-.14.47-.16.87h-1.35c.02-.6.13-1.09.33-1.46.37-.71,1.03-1.06,1.98-1.06.75,0,1.34.21,1.79.62s.66.96.66,1.65c0,.52-.16.99-.47,1.4-.21.27-.54.57-1.01.9l-.56.4c-.35.25-.59.43-.72.54-.13.11-.24.24-.32.39h3.09v1.23h-4.85c.01-.51.12-.97.33-1.39.2-.47.67-.97,1.41-1.5.64-.46,1.06-.79,1.25-.99.29-.31.43-.65.43-1.02,0-.3-.08-.55-.25-.75Z"/>
    </g>
    <g>
      <line class="cls-4" x1="112.58" y1="59.99" x2="121.53" y2="59.99"/>
      <polygon class="cls-1" points="120.8 62.48 125.12 59.99 120.8 57.49 120.8 62.48"/>
    </g>
    <g>
      <line class="cls-4" x1="40.03" y1="59.99" x2="59.29" y2="59.99"/>
      <polygon class="cls-1" points="58.56 62.48 62.88 59.99 58.56 57.49 58.56 62.48"/>
    </g>
    <g>
      <line class="cls-4" x1="140.08" y1="59.99" x2="149.03" y2="59.99"/>
      <polygon class="cls-1" points="148.31 62.48 152.62 59.99 148.31 57.49 148.31 62.48"/>
    </g>
    <g>
      <line class="cls-4" x1="258.97" y1="59.99" x2="267.92" y2="59.99"/>
      <polygon class="cls-1" points="267.2 62.48 271.51 59.99 267.2 57.49 267.2 62.48"/>
    </g>
    <g>
      <line class="cls-4" x1="286.47" y1="59.99" x2="295.43" y2="59.99"/>
      <polygon class="cls-1" points="294.7 62.48 299.01 59.99 294.7 57.49 294.7 62.48"/>
    </g>
    <line class="cls-3" x1="452.89" y1=".81" x2="452.89" y2="144.81"/>
    <g>
      <line class="cls-4" x1="432.87" y1="59.99" x2="441.82" y2="59.99"/>
      <polygon class="cls-1" points="441.09 62.48 445.4 59.99 441.09 57.49 441.09 62.48"/>
    </g>
    <g>
      <line class="cls-4" x1="460.37" y1="59.99" x2="469.32" y2="59.99"/>
      <polygon class="cls-1" points="468.59 62.48 472.91 59.99 468.59 57.49 468.59 62.48"/>
    </g>
    <g>
      <line class="cls-4" x1="345.92" y1="59.99" x2="354.87" y2="59.99"/>
      <polygon class="cls-1" points="354.14 62.48 358.46 59.99 354.14 57.49 354.14 62.48"/>
    </g>
    <g>
      <line class="cls-4" x1="373.42" y1="59.99" x2="382.37" y2="59.99"/>
      <polygon class="cls-1" points="381.64 62.48 385.96 59.99 381.64 57.49 381.64 62.48"/>
    </g>
    <g>
      <line class="cls-4" x1="199.53" y1="59.99" x2="208.48" y2="59.99"/>
      <polygon class="cls-1" points="207.75 62.48 212.07 59.99 207.75 57.49 207.75 62.48"/>
    </g>
    <g>
      <line class="cls-4" x1="235.52" y1="78.9" x2="235.52" y2="87.77"/>
      <polygon class="cls-1" points="233.03 87.04 235.52 91.35 238.01 87.04 233.03 87.04"/>
    </g>
  </g>
  <g id="Main">
    <g>
      <rect class="cls-5" x="62.88" y="41.07" width="49.71" height="37.83" rx="2" ry="2"/>
      <g>
        <path class="cls-1" d="M74.07,51.54h.98v7.17h-.98v-7.17Z"/>
        <path class="cls-1" d="M76.6,51.54h3.1c.85,0,1.45.25,1.8.75.21.3.31.64.31,1.03,0,.45-.13.82-.39,1.11-.13.15-.33.29-.58.42.37.14.64.3.83.47.32.31.48.74.48,1.29,0,.46-.15.88-.44,1.25-.44.56-1.13.84-2.08.84h-3.05v-7.17ZM79.34,54.57c.41,0,.74-.06.97-.17.36-.18.54-.5.54-.97s-.19-.78-.58-.95c-.22-.09-.54-.14-.97-.14h-1.75v2.22h1.79ZM79.67,57.88c.6,0,1.03-.17,1.29-.52.16-.22.24-.48.24-.79,0-.52-.23-.88-.71-1.06-.25-.1-.58-.15-.99-.15h-1.95v2.52h2.11Z"/>
        <path class="cls-1" d="M84.06,53.48v3.47c0,.27.04.49.12.65.15.31.44.47.85.47.6,0,1-.27,1.22-.82.12-.29.18-.69.18-1.21v-2.57h.88v5.23h-.83v-.77c-.1.2-.24.37-.41.5-.33.27-.73.41-1.2.41-.73,0-1.23-.25-1.49-.75-.14-.27-.22-.62-.22-1.07v-3.55h.9Z"/>
        <path class="cls-1" d="M89.15,51.89c.21-.3.6-.45,1.19-.45.06,0,.11,0,.17,0,.06,0,.13,0,.2.01v.8c-.09,0-.16-.01-.2-.01-.04,0-.08,0-.12,0-.27,0-.43.07-.48.21-.05.14-.08.49-.08,1.06h.88v.69h-.88v4.51h-.87v-4.51h-.73v-.69h.73v-.82c.01-.36.08-.63.19-.8Z"/>
        <path class="cls-1" d="M91.75,51.89c.21-.3.6-.45,1.19-.45.06,0,.11,0,.17,0,.06,0,.13,0,.2.01v.8c-.09,0-.16-.01-.2-.01-.04,0-.08,0-.12,0-.27,0-.43.07-.48.21-.05.14-.08.49-.08,1.06h.88v.69h-.88v4.51h-.87v-4.51h-.73v-.69h.73v-.82c.01-.36.08-.63.19-.8Z"/>
        <path class="cls-1" d="M97.35,53.63c.35.17.61.4.79.68.17.26.29.57.35.92.05.24.08.62.08,1.15h-3.8c.02.53.14.96.37,1.28.23.32.59.48,1.08.48.46,0,.82-.15,1.09-.46.15-.18.26-.38.32-.61h.86c-.02.19-.1.41-.23.64-.13.24-.27.43-.43.58-.27.26-.59.44-.98.53-.21.05-.45.08-.71.08-.65,0-1.2-.24-1.65-.71s-.67-1.14-.67-1.99.23-1.52.68-2.05c.45-.52,1.04-.79,1.78-.79.37,0,.73.09,1.07.26ZM97.67,55.68c-.04-.38-.12-.68-.25-.91-.24-.42-.64-.63-1.2-.63-.4,0-.74.15-1.01.44-.27.29-.41.66-.43,1.11h2.88Z"/>
        <path class="cls-1" d="M99.71,53.48h.83v.9c.07-.18.24-.39.5-.64.27-.25.57-.38.92-.38.02,0,.04,0,.08,0,.04,0,.11,0,.2.02v.93c-.05,0-.1-.02-.14-.02-.04,0-.09,0-.14,0-.44,0-.78.14-1.02.43-.24.28-.36.61-.36.98v3.01h-.88v-5.23Z"/>
        <path class="cls-1" d="M74.46,61.54h1.1l2.6,7.17h-1.06l-.73-2.15h-2.84l-.78,2.15h-1l2.7-7.17ZM76.06,65.77l-1.09-3.17-1.16,3.17h2.25Z"/>
        <path class="cls-1" d="M82.38,63.76c.37.29.59.78.67,1.48h-.85c-.05-.32-.17-.59-.36-.8-.19-.21-.48-.32-.89-.32-.56,0-.96.27-1.2.82-.16.35-.23.79-.23,1.31s.11.96.33,1.32.57.54,1.04.54c.36,0,.65-.11.87-.33.21-.22.36-.53.44-.91h.85c-.1.69-.34,1.2-.73,1.52-.39.32-.89.48-1.5.48-.68,0-1.23-.25-1.64-.75-.41-.5-.61-1.12-.61-1.87,0-.92.22-1.63.67-2.14.45-.51,1.01-.77,1.7-.77.59,0,1.07.14,1.44.43Z"/>
        <path class="cls-1" d="M87.38,63.76c.37.29.59.78.67,1.48h-.85c-.05-.32-.17-.59-.36-.8-.19-.21-.48-.32-.89-.32-.56,0-.96.27-1.2.82-.16.35-.23.79-.23,1.31s.11.96.33,1.32.57.54,1.04.54c.36,0,.65-.11.87-.33.21-.22.36-.53.44-.91h.85c-.1.69-.34,1.2-.73,1.52-.39.32-.89.48-1.5.48-.68,0-1.23-.25-1.64-.75-.41-.5-.61-1.12-.61-1.87,0-.92.22-1.63.67-2.14.45-.51,1.01-.77,1.7-.77.59,0,1.07.14,1.44.43Z"/>
        <path class="cls-1" d="M92.16,63.63c.35.17.61.4.79.68.17.26.29.57.35.92.05.24.08.62.08,1.15h-3.8c.02.53.14.96.37,1.28.23.32.59.48,1.08.48.46,0,.82-.15,1.09-.46.15-.18.26-.38.32-.61h.86c-.02.19-.1.41-.23.64-.13.24-.27.43-.43.58-.27.26-.59.44-.98.53-.21.05-.45.08-.71.08-.65,0-1.2-.24-1.65-.71s-.67-1.14-.67-1.99.23-1.52.68-2.05c.45-.52,1.04-.79,1.78-.79.37,0,.73.09,1.07.26ZM92.47,65.68c-.04-.38-.12-.68-.25-.91-.24-.42-.64-.63-1.2-.63-.4,0-.74.15-1.01.44-.27.29-.41.66-.43,1.11h2.88Z"/>
        <path class="cls-1" d="M95.01,67.07c.03.29.1.52.22.67.23.28.62.42,1.18.42.33,0,.62-.07.88-.21s.38-.36.38-.66c0-.22-.1-.4-.3-.51-.13-.07-.38-.15-.76-.25l-.71-.18c-.45-.11-.79-.23-1-.37-.38-.24-.58-.57-.58-.99,0-.49.18-.89.54-1.2.36-.31.85-.46,1.46-.46.8,0,1.37.23,1.73.69.22.29.33.61.32.95h-.83c-.02-.2-.09-.38-.21-.54-.21-.23-.56-.34-1.07-.34-.34,0-.6.06-.77.19-.17.13-.26.29-.26.5,0,.23.11.41.34.54.13.08.33.15.59.21l.59.14c.64.15,1.07.3,1.29.44.34.22.51.58.51,1.06s-.18.87-.54,1.21c-.36.34-.9.51-1.63.51-.79,0-1.35-.18-1.67-.53-.33-.35-.5-.79-.53-1.31h.84Z"/>
        <path class="cls-1" d="M100.01,67.07c.03.29.1.52.22.67.23.28.62.42,1.18.42.33,0,.62-.07.88-.21s.38-.36.38-.66c0-.22-.1-.4-.3-.51-.13-.07-.38-.15-.76-.25l-.71-.18c-.45-.11-.79-.23-1-.37-.38-.24-.58-.57-.58-.99,0-.49.18-.89.54-1.2.36-.31.85-.46,1.46-.46.8,0,1.37.23,1.73.69.22.29.33.61.32.95h-.83c-.02-.2-.09-.38-.21-.54-.21-.23-.56-.34-1.07-.34-.34,0-.6.06-.77.19-.17.13-.26.29-.26.5,0,.23.11.41.34.54.13.08.33.15.59.21l.59.14c.64.15,1.07.3,1.29.44.34.22.51.58.51,1.06s-.18.87-.54,1.21c-.36.34-.9.51-1.63.51-.79,0-1.35-.18-1.67-.53-.33-.35-.5-.79-.53-1.31h.84Z"/>
      </g>
    </g>
    <g>
      <rect class="cls-5" x="212.07" y="41.07" width="46.91" height="37.83" rx="2" ry="2"/>
      <g>
        <path class="cls-1" d="M229.45,51.09h3.26c.54,0,.98.08,1.33.24.66.31.99.87.99,1.69,0,.43-.09.78-.27,1.05s-.43.49-.74.66c.28.11.49.26.63.45s.22.49.24.9l.03.96c0,.27.03.48.07.61.06.23.16.38.31.44v.16h-1.19c-.03-.06-.06-.14-.08-.24s-.04-.29-.05-.57l-.06-1.2c-.02-.47-.19-.78-.51-.94-.18-.09-.46-.13-.85-.13h-2.15v3.08h-.97v-7.17ZM232.61,54.38c.44,0,.79-.09,1.05-.27.26-.18.39-.51.39-.99,0-.51-.18-.86-.54-1.04-.19-.1-.45-.15-.77-.15h-2.31v2.45h2.18Z"/>
        <path class="cls-1" d="M237.19,55.95c.02.41.11.74.28.99.31.48.86.71,1.64.71.35,0,.67-.05.96-.16.56-.2.84-.56.84-1.08,0-.39-.12-.67-.35-.83-.24-.16-.61-.3-1.13-.42l-.94-.22c-.61-.14-1.05-.3-1.31-.47-.44-.3-.66-.75-.66-1.34,0-.64.22-1.17.65-1.59.43-.41,1.05-.62,1.84-.62.73,0,1.35.18,1.86.54.51.36.77.94.77,1.74h-.91c-.05-.38-.15-.68-.3-.88-.28-.37-.77-.56-1.45-.56-.55,0-.94.12-1.18.36-.24.24-.36.52-.36.84,0,.35.14.61.43.77.19.1.61.23,1.26.39l.97.23c.47.11.83.26,1.09.45.44.34.66.82.66,1.46,0,.79-.28,1.36-.85,1.7s-1.22.51-1.96.51c-.87,0-1.55-.23-2.04-.68-.49-.45-.73-1.07-.72-1.84h.91Z"/>
        <path class="cls-1" d="M225.59,61.09h1.1l2.6,7.17h-1.06l-.73-2.15h-2.84l-.78,2.15h-1l2.7-7.17ZM227.18,65.33l-1.09-3.17-1.16,3.17h2.25Z"/>
        <path class="cls-1" d="M232.93,63.2c.16.1.33.27.53.51v-2.64h.84v7.2h-.79v-.73c-.2.32-.45.56-.72.7-.28.14-.6.21-.96.21-.58,0-1.08-.25-1.51-.73-.42-.49-.64-1.14-.64-1.96,0-.76.19-1.42.58-1.98.39-.56.94-.84,1.66-.84.4,0,.73.08,1,.25ZM230.97,67.12c.24.38.62.57,1.14.57.4,0,.74-.17,1-.52.26-.35.39-.85.39-1.51s-.13-1.15-.4-1.47c-.27-.32-.6-.48-1-.48-.44,0-.8.17-1.07.51-.27.34-.41.84-.41,1.49,0,.56.12,1.03.35,1.41Z"/>
        <path class="cls-1" d="M235.62,63.04h.87v.74c.21-.26.4-.44.57-.56.29-.2.62-.3.99-.3.42,0,.75.1,1.01.31.14.12.27.29.39.52.2-.28.42-.49.69-.62.26-.14.56-.2.89-.2.7,0,1.18.25,1.44.76.14.27.21.64.21,1.1v3.48h-.91v-3.63c0-.35-.09-.59-.26-.72-.17-.13-.39-.2-.64-.2-.35,0-.64.12-.89.35-.25.23-.37.62-.37,1.16v3.04h-.89v-3.41c0-.35-.04-.61-.13-.78-.13-.24-.38-.37-.75-.37-.33,0-.63.13-.91.39-.27.26-.41.72-.41,1.4v2.77h-.88v-5.23Z"/>
        <path class="cls-1" d="M243.95,61.09h.89v1h-.89v-1ZM243.95,63.06h.89v5.21h-.89v-5.21Z"/>
        <path class="cls-1" d="M246.34,61.58h.89v1.46h.83v.72h-.83v3.41c0,.18.06.3.19.37.07.04.18.05.34.05.04,0,.09,0,.14,0s.11,0,.17-.02v.7c-.1.03-.21.05-.31.06-.11.01-.23.02-.35.02-.41,0-.69-.1-.83-.31s-.22-.48-.22-.82v-3.46h-.71v-.72h.71v-1.46Z"/>
      </g>
    </g>
    <g>
      <rect class="cls-5" x="152.62" y="41.07" width="46.91" height="37.83" rx="2" ry="2"/>
      <g>
        <path class="cls-1" d="M167.19,55.95c.02.41.11.74.28.99.31.48.86.71,1.64.71.35,0,.67-.05.96-.16.56-.2.84-.56.84-1.08,0-.39-.12-.67-.35-.83-.24-.16-.61-.3-1.13-.42l-.94-.22c-.61-.14-1.05-.3-1.31-.47-.44-.3-.66-.75-.66-1.34,0-.64.22-1.17.65-1.59.43-.41,1.05-.62,1.84-.62.73,0,1.35.18,1.86.54.51.36.77.94.77,1.74h-.91c-.05-.38-.15-.68-.3-.88-.28-.37-.77-.56-1.45-.56-.55,0-.94.12-1.18.36-.24.24-.36.52-.36.84,0,.35.14.61.43.77.19.1.61.23,1.26.39l.97.23c.47.11.83.26,1.09.45.44.34.66.82.66,1.46,0,.79-.28,1.36-.85,1.7s-1.22.51-1.96.51c-.87,0-1.55-.23-2.04-.68-.49-.45-.73-1.07-.72-1.84h.91Z"/>
        <path class="cls-1" d="M178.3,51.62c.5.48.77,1.02.83,1.63h-.95c-.11-.46-.32-.83-.63-1.1-.31-.27-.76-.41-1.33-.41-.69,0-1.25.25-1.68.75-.43.5-.64,1.26-.64,2.29,0,.84.19,1.52.58,2.04.39.52.96.78,1.72.78.7,0,1.24-.27,1.61-.83.19-.29.34-.67.44-1.14h.95c-.08.76-.36,1.39-.83,1.9-.56.62-1.32.92-2.28.92-.82,0-1.52-.25-2.08-.76-.74-.67-1.11-1.7-1.11-3.09,0-1.06.28-1.93.83-2.6.6-.74,1.42-1.1,2.48-1.1.9,0,1.59.24,2.09.72Z"/>
        <path class="cls-1" d="M180.42,51.09h3.1c.85,0,1.45.25,1.8.75.21.3.31.64.31,1.03,0,.45-.13.82-.39,1.11-.13.15-.33.29-.58.42.37.14.64.3.83.47.32.31.48.74.48,1.29,0,.46-.15.88-.44,1.25-.44.56-1.13.84-2.08.84h-3.05v-7.17ZM183.16,54.13c.41,0,.74-.06.97-.17.36-.18.54-.5.54-.97s-.19-.78-.58-.95c-.22-.09-.54-.14-.97-.14h-1.75v2.22h1.79ZM183.49,57.44c.6,0,1.03-.17,1.29-.52.16-.22.24-.48.24-.79,0-.52-.23-.88-.71-1.06-.25-.1-.58-.15-.99-.15h-1.95v2.52h2.11Z"/>
        <path class="cls-1" d="M165,61.09h3.26c.54,0,.98.08,1.33.24.66.31.99.87.99,1.69,0,.43-.09.78-.27,1.05s-.43.49-.74.66c.28.11.49.26.63.45s.22.49.24.9l.03.96c0,.27.03.48.07.61.06.23.16.38.31.44v.16h-1.19c-.03-.06-.06-.14-.08-.24s-.04-.29-.05-.57l-.06-1.2c-.02-.47-.19-.78-.51-.94-.18-.09-.46-.13-.85-.13h-2.15v3.08h-.97v-7.17ZM168.16,64.38c.44,0,.79-.09,1.05-.27.26-.18.39-.51.39-.99,0-.51-.18-.86-.54-1.04-.19-.1-.45-.15-.77-.15h-2.31v2.45h2.18Z"/>
        <path class="cls-1" d="M175.22,63.18c.35.17.61.4.79.68.17.26.29.57.35.92.05.24.08.62.08,1.15h-3.8c.02.53.14.96.37,1.28.23.32.59.48,1.08.48.46,0,.82-.15,1.09-.46.15-.18.26-.38.32-.61h.86c-.02.19-.1.41-.23.64-.13.24-.27.43-.43.58-.27.26-.59.44-.98.53-.21.05-.45.08-.71.08-.65,0-1.2-.24-1.65-.71s-.67-1.14-.67-1.99.23-1.52.68-2.05c.45-.52,1.04-.79,1.78-.79.37,0,.73.09,1.07.26ZM175.53,65.24c-.04-.38-.12-.68-.25-.91-.24-.42-.64-.63-1.2-.63-.4,0-.74.15-1.01.44-.27.29-.41.66-.43,1.11h2.88Z"/>
        <path class="cls-1" d="M180.35,65.1c.2-.03.34-.11.41-.25.04-.08.06-.19.06-.34,0-.3-.11-.52-.32-.65-.21-.14-.52-.2-.91-.2-.46,0-.78.12-.97.37-.11.14-.18.34-.21.61h-.82c.02-.65.23-1.1.63-1.35.4-.25.87-.38,1.4-.38.61,0,1.11.12,1.5.35.38.23.57.6.57,1.09v3.01c0,.09.02.17.06.22.04.06.12.08.24.08.04,0,.08,0,.13,0s.1-.01.16-.02v.65c-.14.04-.24.06-.31.07s-.17.01-.29.01c-.3,0-.52-.11-.66-.32-.07-.11-.12-.27-.15-.48-.18.23-.44.44-.77.61-.34.17-.7.26-1.11.26-.48,0-.88-.15-1.19-.44-.31-.29-.46-.66-.46-1.1,0-.48.15-.86.45-1.13s.7-.43,1.19-.49l1.4-.18ZM178.5,67.48c.19.15.41.22.66.22.31,0,.61-.07.9-.21.49-.24.73-.63.73-1.17v-.71c-.11.07-.25.12-.41.17s-.33.08-.5.1l-.53.07c-.32.04-.56.11-.72.2-.27.15-.41.4-.41.73,0,.25.09.45.28.6Z"/>
        <path class="cls-1" d="M185.99,63.2c.16.1.33.27.53.51v-2.64h.84v7.2h-.79v-.73c-.2.32-.45.56-.72.7-.28.14-.6.21-.96.21-.58,0-1.08-.25-1.51-.73-.42-.49-.64-1.14-.64-1.96,0-.76.19-1.42.58-1.98.39-.56.94-.84,1.66-.84.4,0,.73.08,1,.25ZM184.02,67.12c.24.38.62.57,1.14.57.4,0,.74-.17,1-.52.26-.35.39-.85.39-1.51s-.13-1.15-.4-1.47c-.27-.32-.6-.48-1-.48-.44,0-.8.17-1.07.51-.27.34-.41.84-.41,1.49,0,.56.12,1.03.35,1.41Z"/>
      </g>
    </g>
    <g>
      <rect class="cls-5" x="299.01" y="41.07" width="46.91" height="37.83" rx="2" ry="2"/>
      <g>
        <path class="cls-1" d="M316.4,51.09h3.26c.54,0,.98.08,1.33.24.66.31.99.87.99,1.69,0,.43-.09.78-.27,1.05s-.43.49-.74.66c.28.11.49.26.63.45s.22.49.24.9l.03.96c0,.27.03.48.07.61.06.23.16.38.31.44v.16h-1.19c-.03-.06-.06-.14-.08-.24s-.04-.29-.05-.57l-.06-1.2c-.02-.47-.19-.78-.51-.94-.18-.09-.46-.13-.85-.13h-2.15v3.08h-.97v-7.17ZM319.56,54.38c.44,0,.79-.09,1.05-.27.26-.18.39-.51.39-.99,0-.51-.18-.86-.54-1.04-.19-.1-.45-.15-.77-.15h-2.31v2.45h2.18Z"/>
        <path class="cls-1" d="M324.14,55.95c.02.41.11.74.28.99.31.48.86.71,1.64.71.35,0,.67-.05.96-.16.56-.2.84-.56.84-1.08,0-.39-.12-.67-.35-.83-.24-.16-.61-.3-1.13-.42l-.94-.22c-.61-.14-1.05-.3-1.31-.47-.44-.3-.66-.75-.66-1.34,0-.64.22-1.17.65-1.59.43-.41,1.05-.62,1.84-.62.73,0,1.35.18,1.86.54.51.36.77.94.77,1.74h-.91c-.05-.38-.15-.68-.3-.88-.28-.37-.77-.56-1.45-.56-.55,0-.94.12-1.18.36-.24.24-.36.52-.36.84,0,.35.14.61.43.77.19.1.61.23,1.26.39l.97.23c.47.11.83.26,1.09.45.44.34.66.82.66,1.46,0,.79-.28,1.36-.85,1.7s-1.22.51-1.96.51c-.87,0-1.55-.23-2.04-.68-.49-.45-.73-1.07-.72-1.84h.91Z"/>
        <path class="cls-1" d="M308.02,65.95c.02.41.11.74.28.99.31.48.86.71,1.64.71.35,0,.67-.05.96-.16.56-.2.84-.56.84-1.08,0-.39-.12-.67-.35-.83-.24-.16-.61-.3-1.13-.42l-.94-.22c-.61-.14-1.05-.3-1.31-.47-.44-.3-.66-.75-.66-1.34,0-.64.22-1.17.65-1.59.43-.41,1.05-.62,1.84-.62.73,0,1.35.18,1.86.54.51.36.77.94.77,1.74h-.91c-.05-.38-.15-.68-.3-.88-.28-.37-.77-.56-1.45-.56-.55,0-.94.12-1.18.36-.24.24-.36.52-.36.84,0,.35.14.61.43.77.19.1.61.23,1.26.39l.97.23c.47.11.83.26,1.09.45.44.34.66.82.66,1.46,0,.79-.28,1.36-.85,1.7s-1.22.51-1.96.51c-.87,0-1.55-.23-2.04-.68-.49-.45-.73-1.07-.72-1.84h.91Z"/>
        <path class="cls-1" d="M317.17,63.18c.35.17.61.4.79.68.17.26.29.57.35.92.05.24.08.62.08,1.15h-3.8c.02.53.14.96.37,1.28.23.32.59.48,1.08.48.46,0,.82-.15,1.09-.46.15-.18.26-.38.32-.61h.86c-.02.19-.1.41-.23.64-.13.24-.27.43-.43.58-.27.26-.59.44-.98.53-.21.05-.45.08-.71.08-.65,0-1.2-.24-1.65-.71s-.67-1.14-.67-1.99.23-1.52.68-2.05c.45-.52,1.04-.79,1.78-.79.37,0,.73.09,1.07.26ZM317.48,65.24c-.04-.38-.12-.68-.25-.91-.24-.42-.64-.63-1.2-.63-.4,0-.74.15-1.01.44-.27.29-.41.66-.43,1.11h2.88Z"/>
        <path class="cls-1" d="M322.3,65.1c.2-.03.34-.11.41-.25.04-.08.06-.19.06-.34,0-.3-.11-.52-.32-.65-.21-.14-.52-.2-.91-.2-.46,0-.78.12-.97.37-.11.14-.18.34-.21.61h-.82c.02-.65.23-1.1.63-1.35.4-.25.87-.38,1.4-.38.61,0,1.11.12,1.5.35.38.23.57.6.57,1.09v3.01c0,.09.02.17.06.22.04.06.12.08.24.08.04,0,.08,0,.13,0s.1-.01.16-.02v.65c-.14.04-.24.06-.31.07s-.17.01-.29.01c-.3,0-.52-.11-.66-.32-.07-.11-.12-.27-.15-.48-.18.23-.44.44-.77.61-.34.17-.7.26-1.11.26-.48,0-.88-.15-1.19-.44-.31-.29-.46-.66-.46-1.1,0-.48.15-.86.45-1.13s.7-.43,1.19-.49l1.4-.18ZM320.45,67.48c.19.15.41.22.66.22.31,0,.61-.07.9-.21.49-.24.73-.63.73-1.17v-.71c-.11.07-.25.12-.41.17s-.33.08-.5.1l-.53.07c-.32.04-.56.11-.72.2-.27.15-.41.4-.41.73,0,.25.09.45.28.6Z"/>
        <path class="cls-1" d="M325.09,63.04h.83v.9c.07-.18.24-.39.5-.64.27-.25.57-.38.92-.38.02,0,.04,0,.08,0,.04,0,.11,0,.2.02v.93c-.05,0-.1-.02-.14-.02-.04,0-.09,0-.14,0-.44,0-.78.14-1.02.43-.24.28-.36.61-.36.98v3.01h-.88v-5.23Z"/>
        <path class="cls-1" d="M331.85,63.32c.37.29.59.78.67,1.48h-.85c-.05-.32-.17-.59-.36-.8-.19-.21-.48-.32-.89-.32-.56,0-.96.27-1.2.82-.16.35-.23.79-.23,1.31s.11.96.33,1.32.57.54,1.04.54c.36,0,.65-.11.87-.33.21-.22.36-.53.44-.91h.85c-.1.69-.34,1.2-.73,1.52-.39.32-.89.48-1.5.48-.68,0-1.23-.25-1.64-.75-.41-.5-.61-1.12-.61-1.87,0-.92.22-1.63.67-2.14.45-.51,1.01-.77,1.7-.77.59,0,1.07.14,1.44.43Z"/>
        <path class="cls-1" d="M333.39,61.07h.88v2.68c.21-.26.4-.45.56-.56.28-.19.64-.28,1.06-.28.76,0,1.27.27,1.54.8.15.29.22.69.22,1.21v3.35h-.9v-3.3c0-.38-.05-.67-.15-.84-.16-.29-.46-.43-.9-.43-.36,0-.69.13-.99.38-.3.25-.44.72-.44,1.42v2.77h-.88v-7.2Z"/>
      </g>
    </g>
    <g>
      <rect class="cls-5" x="385.96" y="41.07" width="46.91" height="37.83" rx="2" ry="2"/>
      <g>
        <path class="cls-1" d="M403.35,51.09h3.26c.54,0,.98.08,1.33.24.66.31.99.87.99,1.69,0,.43-.09.78-.27,1.05s-.43.49-.74.66c.28.11.49.26.63.45s.22.49.24.9l.03.96c0,.27.03.48.07.61.06.23.16.38.31.44v.16h-1.19c-.03-.06-.06-.14-.08-.24s-.04-.29-.05-.57l-.06-1.2c-.02-.47-.19-.78-.51-.94-.18-.09-.46-.13-.85-.13h-2.15v3.08h-.97v-7.17ZM406.5,54.38c.44,0,.79-.09,1.05-.27.26-.18.39-.51.39-.99,0-.51-.18-.86-.54-1.04-.19-.1-.45-.15-.77-.15h-2.31v2.45h2.18Z"/>
        <path class="cls-1" d="M411.09,55.95c.02.41.11.74.28.99.31.48.86.71,1.64.71.35,0,.67-.05.96-.16.56-.2.84-.56.84-1.08,0-.39-.12-.67-.35-.83-.24-.16-.61-.3-1.13-.42l-.94-.22c-.61-.14-1.05-.3-1.31-.47-.44-.3-.66-.75-.66-1.34,0-.64.22-1.17.65-1.59.43-.41,1.05-.62,1.84-.62.73,0,1.35.18,1.86.54.51.36.77.94.77,1.74h-.91c-.05-.38-.15-.68-.3-.88-.28-.37-.77-.56-1.45-.56-.55,0-.94.12-1.18.36-.24.24-.36.52-.36.84,0,.35.14.61.43.77.19.1.61.23,1.26.39l.97.23c.47.11.83.26,1.09.45.44.34.66.82.66,1.46,0,.79-.28,1.36-.85,1.7s-1.22.51-1.96.51c-.87,0-1.55-.23-2.04-.68-.49-.45-.73-1.07-.72-1.84h.91Z"/>
        <path class="cls-1" d="M390.77,61.09h2.87c.97,0,1.73.35,2.26,1.05.48.63.72,1.44.72,2.43,0,.76-.14,1.45-.42,2.07-.5,1.09-1.35,1.63-2.57,1.63h-2.86v-7.17ZM393.44,67.44c.32,0,.59-.03.79-.1.37-.13.67-.37.91-.73.19-.29.32-.66.41-1.11.05-.27.07-.52.07-.75,0-.89-.17-1.58-.52-2.07-.35-.49-.9-.74-1.67-.74h-1.69v5.51h1.69Z"/>
        <path class="cls-1" d="M397.83,61.09h.89v1h-.89v-1ZM397.83,63.06h.89v5.21h-.89v-5.21Z"/>
        <path class="cls-1" d="M400.57,66.63c.03.29.1.52.22.67.23.28.62.42,1.18.42.33,0,.62-.07.88-.21s.38-.36.38-.66c0-.22-.1-.4-.3-.51-.13-.07-.38-.15-.76-.25l-.71-.18c-.45-.11-.79-.23-1-.37-.38-.24-.58-.57-.58-.99,0-.49.18-.89.54-1.2.36-.31.85-.46,1.46-.46.8,0,1.37.23,1.73.69.22.29.33.61.32.95h-.83c-.02-.2-.09-.38-.21-.54-.21-.23-.56-.34-1.07-.34-.34,0-.6.06-.77.19-.17.13-.26.29-.26.5,0,.23.11.41.34.54.13.08.33.15.59.21l.59.14c.64.15,1.07.3,1.29.44.34.22.51.58.51,1.06s-.18.87-.54,1.21c-.36.34-.9.51-1.63.51-.79,0-1.35-.18-1.67-.53-.33-.35-.5-.79-.53-1.31h.84Z"/>
        <path class="cls-1" d="M404.98,63.06h.86v.69c.18-.24.37-.42.58-.55.3-.2.65-.29,1.05-.29.59,0,1.1.23,1.51.68.41.45.62,1.1.62,1.95,0,1.14-.3,1.95-.9,2.44-.38.31-.82.46-1.32.46-.4,0-.73-.09-1-.26-.16-.1-.33-.26-.52-.5v2.67h-.88v-7.29ZM408.28,67.16c.27-.34.41-.86.41-1.54,0-.42-.06-.77-.18-1.07-.23-.58-.65-.86-1.25-.86s-1.03.3-1.25.91c-.12.33-.18.74-.18,1.24,0,.4.06.75.18,1.03.23.54.65.81,1.25.81.41,0,.75-.17,1.03-.51Z"/>
        <path class="cls-1" d="M413.41,65.1c.2-.03.34-.11.41-.25.04-.08.06-.19.06-.34,0-.3-.11-.52-.32-.65-.21-.14-.52-.2-.91-.2-.46,0-.78.12-.97.37-.11.14-.18.34-.21.61h-.82c.02-.65.23-1.1.63-1.35.4-.25.87-.38,1.4-.38.61,0,1.11.12,1.5.35.38.23.57.6.57,1.09v3.01c0,.09.02.17.06.22.04.06.12.08.24.08.04,0,.08,0,.13,0s.1-.01.16-.02v.65c-.14.04-.24.06-.31.07s-.17.01-.29.01c-.3,0-.52-.11-.66-.32-.07-.11-.12-.27-.15-.48-.18.23-.44.44-.77.61-.34.17-.7.26-1.11.26-.48,0-.88-.15-1.19-.44-.31-.29-.46-.66-.46-1.1,0-.48.15-.86.45-1.13s.7-.43,1.19-.49l1.4-.18ZM411.56,67.48c.19.15.41.22.66.22.31,0,.61-.07.9-.21.49-.24.73-.63.73-1.17v-.71c-.11.07-.25.12-.41.17s-.33.08-.5.1l-.53.07c-.32.04-.56.11-.72.2-.27.15-.41.4-.41.73,0,.25.09.45.28.6Z"/>
        <path class="cls-1" d="M416.35,61.58h.89v1.46h.83v.72h-.83v3.41c0,.18.06.3.19.37.07.04.18.05.34.05.04,0,.09,0,.14,0s.11,0,.17-.02v.7c-.1.03-.21.05-.31.06-.11.01-.23.02-.35.02-.41,0-.69-.1-.83-.31s-.22-.48-.22-.82v-3.46h-.71v-.72h.71v-1.46Z"/>
        <path class="cls-1" d="M422.4,63.32c.37.29.59.78.67,1.48h-.85c-.05-.32-.17-.59-.36-.8-.19-.21-.48-.32-.89-.32-.56,0-.96.27-1.2.82-.16.35-.23.79-.23,1.31s.11.96.33,1.32.57.54,1.04.54c.36,0,.65-.11.87-.33.21-.22.36-.53.44-.91h.85c-.1.69-.34,1.2-.73,1.52-.39.32-.89.48-1.5.48-.68,0-1.23-.25-1.64-.75-.41-.5-.61-1.12-.61-1.87,0-.92.22-1.63.67-2.14.45-.51,1.01-.77,1.7-.77.59,0,1.07.14,1.44.43Z"/>
        <path class="cls-1" d="M423.95,61.07h.88v2.68c.21-.26.4-.45.56-.56.28-.19.64-.28,1.06-.28.76,0,1.27.27,1.54.8.15.29.22.69.22,1.21v3.35h-.9v-3.3c0-.38-.05-.67-.15-.84-.16-.29-.46-.43-.9-.43-.36,0-.69.13-.99.38-.3.25-.44.72-.44,1.42v2.77h-.88v-7.2Z"/>
      </g>
    </g>
    <g>
      <rect class="cls-5" x="212.07" y="91.35" width="46.91" height="37.83" rx="2" ry="2"/>
      <g>
        <path class="cls-1" d="M226.64,106.24c.02.41.11.74.28.99.31.48.86.71,1.64.71.35,0,.67-.05.96-.16.56-.2.84-.56.84-1.08,0-.39-.12-.67-.35-.83-.24-.16-.61-.3-1.13-.42l-.94-.22c-.61-.14-1.05-.3-1.31-.47-.44-.3-.66-.75-.66-1.34,0-.64.22-1.17.65-1.59.43-.41,1.05-.62,1.84-.62.73,0,1.35.18,1.86.54.51.36.77.94.77,1.74h-.91c-.05-.38-.15-.68-.3-.88-.28-.37-.77-.56-1.45-.56-.55,0-.94.12-1.18.36-.24.24-.36.52-.36.84,0,.35.14.61.43.77.19.1.61.23,1.26.39l.97.23c.47.11.83.26,1.09.45.44.34.66.82.66,1.46,0,.79-.28,1.36-.85,1.7s-1.22.51-1.96.51c-.87,0-1.55-.23-2.04-.68-.49-.45-.73-1.07-.72-1.84h.91Z"/>
        <path class="cls-1" d="M237.75,101.9c.5.48.77,1.02.83,1.63h-.95c-.11-.46-.32-.83-.63-1.1-.31-.27-.76-.41-1.33-.41-.69,0-1.25.25-1.68.75-.43.5-.64,1.26-.64,2.29,0,.84.19,1.52.58,2.04.39.52.96.78,1.72.78.7,0,1.24-.27,1.61-.83.19-.29.34-.67.44-1.14h.95c-.08.76-.36,1.39-.83,1.9-.56.62-1.32.92-2.28.92-.82,0-1.52-.25-2.08-.76-.74-.67-1.11-1.7-1.11-3.09,0-1.06.28-1.93.83-2.6.6-.74,1.42-1.1,2.48-1.1.9,0,1.59.24,2.09.72Z"/>
        <path class="cls-1" d="M239.87,101.38h3.1c.85,0,1.45.25,1.8.75.21.3.31.64.31,1.03,0,.45-.13.82-.39,1.11-.13.15-.33.29-.58.42.37.14.64.3.83.47.32.31.48.74.48,1.29,0,.46-.15.88-.44,1.25-.44.56-1.13.84-2.08.84h-3.05v-7.17ZM242.61,104.41c.41,0,.74-.06.97-.17.36-.18.54-.5.54-.97s-.19-.78-.58-.95c-.22-.09-.54-.14-.97-.14h-1.75v2.22h1.79ZM242.94,107.72c.6,0,1.03-.17,1.29-.52.16-.22.24-.48.24-.79,0-.52-.23-.88-.71-1.06-.25-.1-.58-.15-.99-.15h-1.95v2.52h2.11Z"/>
        <path class="cls-1" d="M225.18,111.38l1.35,5.83,1.62-5.83h1.05l1.62,5.84,1.35-5.84h1.07l-1.88,7.17h-1.02l-1.66-5.95-1.67,5.95h-1.02l-1.88-7.17h1.05Z"/>
        <path class="cls-1" d="M233.88,113.32h.83v.9c.07-.18.24-.39.5-.64.27-.25.57-.38.92-.38.02,0,.04,0,.08,0,.04,0,.11,0,.2.02v.93c-.05,0-.1-.02-.14-.02-.04,0-.09,0-.14,0-.44,0-.78.14-1.02.43-.24.28-.36.61-.36.98v3.01h-.88v-5.23Z"/>
        <path class="cls-1" d="M237.18,111.38h.89v1h-.89v-1ZM237.18,113.35h.89v5.21h-.89v-5.21Z"/>
        <path class="cls-1" d="M239.58,111.86h.89v1.46h.83v.72h-.83v3.41c0,.18.06.3.19.37.07.04.18.05.34.05.04,0,.09,0,.14,0s.11,0,.17-.02v.7c-.1.03-.21.05-.31.06-.11.01-.23.02-.35.02-.41,0-.69-.1-.83-.31s-.22-.48-.22-.82v-3.46h-.71v-.72h.71v-1.46Z"/>
        <path class="cls-1" d="M245.41,113.47c.35.17.61.4.79.68.17.26.29.57.35.92.05.24.08.62.08,1.15h-3.8c.02.53.14.96.37,1.28.23.32.59.48,1.08.48.46,0,.82-.15,1.09-.46.15-.18.26-.38.32-.61h.86c-.02.19-.1.41-.23.64-.13.24-.27.43-.43.58-.27.26-.59.44-.98.53-.21.05-.45.08-.71.08-.65,0-1.2-.24-1.65-.71s-.67-1.14-.67-1.99.23-1.52.68-2.05c.45-.52,1.04-.79,1.78-.79.37,0,.73.09,1.07.26ZM245.73,115.52c-.04-.38-.12-.68-.25-.91-.24-.42-.64-.63-1.2-.63-.4,0-.74.15-1.01.44-.27.29-.41.66-.43,1.11h2.88Z"/>
      </g>
    </g>
    <g>
      <rect class="cls-6" x="241.16" y="71.42" width="75.66" height="14.96" rx="2" ry="2" transform="translate(200.09 357.89) rotate(-90)"/>
      <g>
        <path class="cls-2" d="M276.18,105.65v-2.61c0-.43.06-.78.19-1.06.24-.53.7-.79,1.36-.79.34,0,.62.07.84.21.22.14.39.34.53.6.09-.22.21-.39.36-.51s.39-.18.72-.19l.77-.03c.22,0,.38-.03.49-.05.18-.05.3-.13.35-.25h.13v.95s-.11.05-.19.06-.23.03-.45.04l-.96.05c-.38.02-.63.15-.75.41-.07.14-.11.37-.11.68v1.72h2.46v.78h-5.74ZM278.81,103.13c0-.35-.07-.63-.22-.84-.15-.21-.41-.31-.79-.31-.41,0-.69.14-.84.43-.08.15-.12.36-.12.62v1.85h1.96v-1.75Z"/>
        <path class="cls-2" d="M280.07,99.46c.33-.02.59-.09.79-.22.38-.25.57-.69.57-1.31,0-.28-.04-.54-.12-.77-.16-.45-.45-.67-.87-.67-.31,0-.54.09-.67.28-.13.19-.24.49-.34.9l-.18.75c-.11.49-.24.84-.38,1.04-.24.35-.6.53-1.07.53-.52,0-.94-.17-1.27-.52s-.5-.84-.5-1.47c0-.59.15-1.08.44-1.49.29-.41.75-.61,1.39-.61v.73c-.31.04-.54.12-.71.24-.3.23-.45.61-.45,1.16,0,.44.1.76.29.95.19.19.42.29.67.29.28,0,.49-.11.62-.34.08-.15.19-.48.31-1.01l.18-.78c.09-.38.21-.67.36-.87.27-.35.66-.53,1.17-.53.64,0,1.09.22,1.36.68s.41.97.41,1.57c0,.7-.18,1.24-.55,1.63-.36.39-.85.59-1.47.58v-.73Z"/>
        <path class="cls-2" d="M277.74,92.18l3.3-.8-3.3-.82v-.79l3.28-.82-3.28-.86v-.7l4.18,1.21v.73l-3.24.85,3.24.82v.73l-4.18,1.21v-.77Z"/>
        <path class="cls-2" d="M277.85,84.14c.14-.28.32-.49.54-.63.21-.14.46-.23.74-.28.19-.04.5-.06.92-.06v3.04c.43-.01.77-.11,1.02-.3s.39-.47.39-.86c0-.36-.12-.66-.36-.87-.14-.12-.31-.21-.49-.26v-.69c.15.02.32.08.51.18.19.1.34.22.46.34.21.21.35.47.42.79.04.17.06.36.06.57,0,.52-.19.96-.57,1.32s-.91.54-1.59.54-1.22-.18-1.64-.54-.63-.84-.63-1.42c0-.29.07-.58.21-.86ZM279.5,83.89c-.3.03-.55.09-.73.2-.34.19-.51.51-.51.96,0,.32.12.59.35.8s.53.33.89.35v-2.3Z"/>
        <path class="cls-2" d="M277.74,82.28v-.67h.59c-.24-.2-.42-.41-.53-.63-.11-.22-.16-.47-.16-.74,0-.59.21-1,.62-1.2.23-.12.55-.17.97-.17h2.68v.71h-2.64c-.26,0-.46.04-.62.11-.26.12-.39.35-.39.68,0,.17.02.3.05.41.06.19.17.36.34.51.14.12.28.19.43.23s.36.05.63.05h2.19v.7h-4.18Z"/>
        <path class="cls-2" d="M280.21,75.76h-.66v-1.7h-1.71v-.67h1.71v-1.7h.66v1.7h1.71v.67h-1.71v1.7Z"/>
        <path class="cls-2" d="M277.85,66.13c.14-.28.32-.49.54-.63.21-.14.46-.23.74-.28.19-.04.5-.06.92-.06v3.04c.43-.01.77-.11,1.02-.3s.39-.47.39-.86c0-.36-.12-.66-.36-.87-.14-.12-.31-.21-.49-.26v-.69c.15.02.32.08.51.18.19.1.34.22.46.34.21.21.35.47.42.79.04.17.06.36.06.57,0,.52-.19.96-.57,1.32s-.91.54-1.59.54-1.22-.18-1.64-.54-.63-.84-.63-1.42c0-.29.07-.58.21-.86ZM279.5,65.88c-.3.03-.55.09-.73.2-.34.19-.51.51-.51.96,0,.32.12.59.35.8s.53.33.89.35v-2.3Z"/>
        <path class="cls-2" d="M277.74,64.26v-.67h.59c-.24-.2-.42-.41-.53-.63-.11-.22-.16-.47-.16-.74,0-.59.21-1,.62-1.2.23-.12.55-.17.97-.17h2.68v.71h-2.64c-.26,0-.46.04-.62.11-.26.12-.39.35-.39.68,0,.17.02.3.05.41.06.19.17.36.34.51.14.12.28.19.43.23s.36.05.63.05h2.19v.7h-4.18Z"/>
        <path class="cls-2" d="M276.57,59.67v-.71h1.17v-.67h.57v.67h2.73c.15,0,.24-.05.29-.15.03-.05.04-.15.04-.27,0-.03,0-.07,0-.11,0-.04,0-.08-.01-.14h.56c.02.08.04.16.05.25.01.09.02.18.02.28,0,.33-.08.55-.25.67s-.39.18-.65.18h-2.77v.57h-.57v-.57h-1.17Z"/>
        <path class="cls-2" d="M277.74,57.57v-.67h.72c-.14-.05-.31-.19-.51-.4-.2-.21-.3-.46-.3-.74,0-.01,0-.04,0-.07s0-.08.02-.16h.74s-.01.08-.02.12,0,.07,0,.12c0,.35.11.63.34.82.23.19.49.29.79.29h2.41v.7h-4.18Z"/>
        <path class="cls-2" d="M277.74,52.31v-.78c.27.1.88.32,1.84.66.72.25,1.31.47,1.76.64,1.07.41,1.72.69,1.95.86.23.17.35.45.35.86,0,.1,0,.17-.01.23,0,.05-.02.12-.04.2h-.64c.03-.12.05-.21.06-.27s.01-.1.01-.14c0-.13-.02-.22-.06-.29-.04-.06-.1-.11-.16-.15-.02-.01-.13-.06-.32-.14-.19-.08-.33-.14-.43-.18l-4.31,1.55v-.8l3.41-1.12-3.41-1.13Z"/>
      </g>
    </g>
    <g>
      <rect class="cls-6" x="94.77" y="71.42" width="75.66" height="14.96" rx="2" ry="2" transform="translate(53.7 211.5) rotate(-90)"/>
      <g>
        <path class="cls-2" d="M129.79,109.01v-3.98h.7v3.2h1.74v-2.82h.68v2.82h2.61v.78h-5.74Z"/>
        <path class="cls-2" d="M129.79,103.36h3.55c.42,0,.76-.08,1.04-.24.42-.23.62-.63.62-1.18,0-.66-.23-1.12-.68-1.35-.24-.13-.57-.19-.99-.19h-3.55v-.79h3.22c.71,0,1.25.09,1.63.29.69.35,1.04,1.01,1.04,1.98s-.35,1.63-1.04,1.98c-.38.19-.92.29-1.63.29h-3.22v-.79Z"/>
        <path class="cls-2" d="M130.18,96.15v-.71h1.17v-.67h.57v.67h2.73c.15,0,.24-.05.29-.15.03-.05.04-.15.04-.27,0-.03,0-.07,0-.11,0-.04,0-.08-.01-.14h.56c.02.08.04.16.05.25.01.09.02.18.02.28,0,.33-.08.55-.25.67s-.39.18-.65.18h-2.77v.57h-.57v-.57h-1.17Z"/>
        <path class="cls-2" d="M131.35,91.45v-.78c.27.1.88.32,1.84.66.72.25,1.31.47,1.76.64,1.07.41,1.72.69,1.95.86.23.17.35.45.35.86,0,.1,0,.17-.01.23,0,.05-.02.12-.04.2h-.64c.03-.12.05-.21.06-.27s.01-.1.01-.14c0-.13-.02-.22-.06-.29-.04-.06-.1-.11-.16-.15-.02-.01-.13-.06-.32-.14-.19-.08-.33-.14-.43-.18l-4.31,1.55v-.8l3.41-1.12-3.41-1.13Z"/>
        <path class="cls-2" d="M131.37,90.12v-.69h.55c-.19-.14-.34-.29-.44-.46-.16-.24-.23-.52-.23-.84,0-.47.18-.88.54-1.21s.88-.5,1.56-.5c.91,0,1.56.24,1.95.72.25.3.37.66.37,1.06,0,.32-.07.58-.21.8-.08.12-.21.27-.4.42h2.14v.7h-5.83ZM134.65,87.48c-.27-.22-.69-.33-1.23-.33-.33,0-.62.05-.86.14-.46.18-.69.52-.69,1s.24.82.73,1c.26.1.59.15.99.15.32,0,.6-.05.82-.15.43-.18.65-.52.65-1,0-.33-.14-.6-.41-.82Z"/>
        <path class="cls-2" d="M131.46,83.03c.14-.28.32-.49.54-.63.21-.14.46-.23.74-.28.19-.04.5-.06.92-.06v3.04c.43-.01.77-.11,1.02-.3s.39-.47.39-.86c0-.36-.12-.66-.36-.87-.14-.12-.31-.21-.49-.26v-.69c.15.02.32.08.51.18.19.1.34.22.46.34.21.21.35.47.42.79.04.17.06.36.06.57,0,.52-.19.96-.57,1.32s-.91.54-1.59.54-1.22-.18-1.64-.54-.63-.84-.63-1.42c0-.29.07-.58.21-.86ZM133.1,82.78c-.3.03-.55.09-.73.2-.34.19-.51.51-.51.96,0,.32.12.59.35.8s.53.33.89.35v-2.3Z"/>
        <path class="cls-2" d="M133.82,79.1h-.66v-1.7h-1.71v-.67h1.71v-1.7h.66v1.7h1.71v.67h-1.71v1.7Z"/>
        <path class="cls-2" d="M131.35,72.03v-.67h.72c-.14-.05-.31-.19-.51-.4-.2-.21-.3-.46-.3-.74,0-.01,0-.04,0-.07s0-.08.02-.16h.74s-.01.08-.02.12,0,.07,0,.12c0,.35.11.63.34.82.23.19.49.29.79.29h2.41v.7h-4.18Z"/>
        <path class="cls-2" d="M134.22,68.97c.23-.02.41-.08.54-.18.23-.18.34-.49.34-.94,0-.27-.06-.5-.17-.7-.11-.2-.29-.3-.53-.3-.18,0-.32.08-.41.24-.06.1-.12.31-.2.61l-.14.57c-.09.36-.19.63-.3.8-.19.31-.45.46-.79.46-.4,0-.72-.14-.96-.43s-.37-.68-.37-1.17c0-.64.19-1.1.55-1.38.23-.18.49-.26.76-.26v.66c-.16.01-.3.07-.43.17-.18.17-.28.45-.28.86,0,.27.05.48.15.62.1.14.23.21.4.21.18,0,.33-.09.44-.28.06-.11.12-.26.17-.47l.11-.47c.12-.51.24-.86.36-1.03.18-.27.46-.41.85-.41s.69.14.96.43.41.72.41,1.31c0,.63-.14,1.08-.42,1.34-.28.26-.63.4-1.05.42v-.68Z"/>
        <path class="cls-2" d="M131.57,65.14h-.54c-.05-.51-.13-.86-.25-1.06-.12-.2-.39-.35-.82-.45v-.55h5.57v.75h-3.96v1.32Z"/>
        <path class="cls-2" d="M129.79,59.63v-.59l5.74,1.82v.59l-5.74-1.82Z"/>
        <path class="cls-2" d="M134.27,58.68c-.36-.17-.68-.51-.97-1.01l-.43-.75c-.2-.34-.36-.57-.5-.71-.22-.21-.46-.32-.74-.32-.33,0-.58.1-.78.29s-.29.46-.29.78c0,.48.18.81.55,1,.2.1.47.15.81.16v.71c-.49,0-.88-.1-1.19-.27-.54-.3-.81-.84-.81-1.61,0-.64.17-1.11.52-1.4.35-.3.73-.44,1.16-.44.45,0,.83.16,1.15.47.19.18.41.51.67.98l.3.54c.14.25.27.46.4.6.23.26.48.42.75.49v-3.05h.66v3.84c-.48-.03-.9-.13-1.26-.3Z"/>
        <path class="cls-2" d="M129.79,52.96v-.59l5.74,1.82v.59l-5.74-1.82Z"/>
        <path class="cls-2" d="M135.14,51.92c-.36.3-.81.45-1.33.45v-.73c.36-.03.62-.1.79-.2.29-.18.44-.51.44-.99,0-.37-.1-.67-.3-.89-.2-.22-.45-.34-.77-.34-.39,0-.65.12-.81.35-.15.24-.23.56-.23.98,0,.05,0,.09,0,.14,0,.05,0,.1,0,.15h-.62c0-.07.01-.13.02-.18,0-.05,0-.1,0-.16,0-.26-.04-.48-.12-.65-.15-.3-.41-.45-.78-.45-.28,0-.49.1-.64.3-.15.2-.23.43-.23.69,0,.47.16.79.47.97.17.1.42.15.73.17v.7c-.42,0-.77-.08-1.06-.25-.52-.29-.78-.79-.78-1.51,0-.57.13-1.01.38-1.32s.62-.47,1.1-.47c.34,0,.62.09.84.28.13.11.24.26.31.45.08-.29.24-.52.47-.69.23-.17.51-.25.85-.25.53,0,.97.18,1.3.53s.5.85.5,1.5-.18,1.14-.54,1.44Z"/>
      </g>
    </g>
    <g>
      <rect class="cls-6" x="415.05" y="71.42" width="75.66" height="14.96" rx="2" ry="2" transform="translate(373.98 531.79) rotate(-90)"/>
      <g>
        <path class="cls-2" d="M450.07,102v-3.98h.7v3.2h1.74v-2.82h.68v2.82h2.61v.78h-5.74Z"/>
        <path class="cls-2" d="M450.07,96.35h3.55c.42,0,.76-.08,1.04-.24.42-.23.62-.63.62-1.18,0-.66-.23-1.12-.68-1.35-.24-.13-.57-.19-.99-.19h-3.55v-.79h3.22c.71,0,1.25.09,1.63.29.69.35,1.04,1.01,1.04,1.98s-.35,1.63-1.04,1.98c-.38.19-.92.29-1.63.29h-3.22v-.79Z"/>
        <path class="cls-2" d="M450.07,89.12v-2.57c0-.51.14-.92.43-1.23s.69-.47,1.21-.47c.45,0,.84.14,1.17.42.33.28.5.7.5,1.28v1.79h2.43v.78h-5.74ZM450.86,86.1c-.08.17-.12.4-.12.7v1.54h1.99v-1.54c0-.35-.07-.63-.22-.84s-.41-.32-.79-.32c-.42,0-.71.15-.86.46Z"/>
        <path class="cls-2" d="M452.05,80.92c.36-.37.89-.55,1.58-.55s1.23.16,1.67.49c.44.33.66.83.66,1.52,0,.57-.19,1.03-.58,1.36-.39.34-.91.5-1.57.5-.7,0-1.26-.18-1.68-.53-.42-.36-.62-.83-.62-1.43,0-.54.18-.99.54-1.36ZM454.83,81.35c-.35-.17-.74-.26-1.18-.26-.39,0-.71.06-.95.19-.39.2-.58.53-.58,1.01,0,.42.16.73.49.93.33.19.72.29,1.19.29s.82-.1,1.11-.29c.3-.19.44-.5.44-.92,0-.46-.18-.78-.53-.95Z"/>
        <path class="cls-2" d="M451.63,79.48v-.67h.72c-.14-.05-.31-.19-.51-.4-.2-.21-.3-.46-.3-.74,0-.01,0-.04,0-.07s0-.08.02-.16h.74s-.01.08-.02.12,0,.07,0,.12c0,.35.11.63.34.82.23.19.49.29.79.29h2.41v.7h-4.18Z"/>
        <path class="cls-2" d="M450.46,76.7v-.71h1.17v-.67h.57v.67h2.73c.15,0,.24-.05.29-.15.03-.05.04-.15.04-.27,0-.03,0-.07,0-.11,0-.04,0-.08-.01-.14h.56c.02.08.04.16.05.25.01.09.02.18.02.28,0,.33-.08.55-.25.67s-.39.18-.65.18h-2.77v.57h-.57v-.57h-1.17Z"/>
        <path class="cls-2" d="M450.07,72.12v-.79h5.74v.79h-5.74Z"/>
        <path class="cls-2" d="M451.63,70.17v-.67h.59c-.24-.2-.42-.41-.53-.63-.11-.22-.16-.47-.16-.74,0-.59.21-1,.62-1.2.23-.12.55-.17.97-.17h2.68v.71h-2.64c-.26,0-.46.04-.62.11-.26.12-.39.35-.39.68,0,.17.02.3.05.41.06.19.17.36.34.51.14.12.28.19.43.23s.36.05.63.05h2.19v.7h-4.18Z"/>
        <path class="cls-2" d="M451.65,65.78v-.69h.55c-.19-.14-.34-.29-.44-.46-.16-.24-.23-.52-.23-.84,0-.47.18-.88.54-1.21s.88-.5,1.56-.5c.91,0,1.56.24,1.95.72.25.3.37.66.37,1.06,0,.32-.07.58-.21.8-.08.12-.21.27-.4.42h2.14v.7h-5.83ZM454.93,63.13c-.27-.22-.69-.33-1.23-.33-.33,0-.62.05-.86.14-.46.18-.69.52-.69,1s.24.82.73,1c.26.1.59.15.99.15.32,0,.6-.05.82-.15.43-.18.65-.52.65-1,0-.33-.14-.6-.41-.82Z"/>
        <path class="cls-2" d="M451.63,60.57h2.78c.21,0,.39-.03.52-.1.25-.12.38-.35.38-.68,0-.48-.22-.8-.66-.97-.23-.09-.56-.14-.96-.14h-2.05v-.7h4.18v.66h-.62c.16.08.29.19.4.33.22.26.33.58.33.96,0,.59-.2.98-.6,1.2-.21.11-.5.17-.86.17h-2.84v-.72Z"/>
        <path class="cls-2" d="M450.46,56.68v-.71h1.17v-.67h.57v.67h2.73c.15,0,.24-.05.29-.15.03-.05.04-.15.04-.27,0-.03,0-.07,0-.11,0-.04,0-.08-.01-.14h.56c.02.08.04.16.05.25.01.09.02.18.02.28,0,.33-.08.55-.25.67s-.39.18-.65.18h-2.77v.57h-.57v-.57h-1.17Z"/>
      </g>
    </g>
    <g>
      <rect class="cls-6" x="328.11" y="71.42" width="75.66" height="14.96" rx="2" ry="2" transform="translate(287.04 444.84) rotate(-90)"/>
      <g>
        <path class="cls-2" d="M363.13,110.44v-2.61c0-.43.06-.78.19-1.06.24-.53.7-.79,1.36-.79.34,0,.62.07.84.21.22.14.39.34.53.6.09-.22.21-.39.36-.51s.39-.18.72-.19l.77-.03c.22,0,.38-.03.49-.05.18-.05.3-.13.35-.25h.13v.95s-.11.05-.19.06-.23.03-.45.04l-.96.05c-.38.02-.63.15-.75.41-.07.14-.11.37-.11.68v1.72h2.46v.78h-5.74ZM365.76,107.91c0-.35-.07-.63-.22-.84-.15-.21-.41-.31-.79-.31-.41,0-.69.14-.84.43-.08.15-.12.36-.12.62v1.85h1.96v-1.75Z"/>
        <path class="cls-2" d="M364.8,102.27c.14-.28.32-.49.54-.63.21-.14.46-.23.74-.28.19-.04.5-.06.92-.06v3.04c.43-.01.77-.11,1.02-.3s.39-.47.39-.86c0-.36-.12-.66-.36-.87-.14-.12-.31-.21-.49-.26v-.69c.15.02.32.08.51.18.19.1.34.22.46.34.21.21.35.47.42.79.04.17.06.36.06.57,0,.52-.19.96-.57,1.32s-.91.54-1.59.54-1.22-.18-1.64-.54-.63-.84-.63-1.42c0-.29.07-.58.21-.86ZM366.44,102.01c-.3.03-.55.09-.73.2-.34.19-.51.51-.51.96,0,.32.12.59.35.8s.53.33.89.35v-2.3Z"/>
        <path class="cls-2" d="M366.33,98.16c-.02-.16-.09-.27-.2-.32-.06-.03-.15-.05-.27-.05-.24,0-.41.08-.52.25-.11.17-.16.41-.16.73,0,.37.1.63.3.78.11.09.27.14.49.17v.66c-.52-.01-.88-.18-1.08-.5-.2-.32-.3-.69-.3-1.12,0-.49.09-.89.28-1.2.19-.3.48-.46.88-.46h2.41c.07,0,.13-.02.18-.04.04-.03.07-.09.07-.19,0-.03,0-.07,0-.11s0-.08-.02-.12h.52c.03.11.05.19.06.25,0,.06.01.13.01.23,0,.24-.09.42-.26.53-.09.06-.22.1-.39.12.19.14.35.35.49.62.14.27.21.56.21.89,0,.39-.12.71-.35.95s-.53.37-.88.37c-.39,0-.69-.12-.9-.36-.21-.24-.34-.56-.39-.95l-.14-1.12ZM368.23,99.64c.12-.15.18-.32.18-.53,0-.25-.06-.49-.17-.72-.19-.39-.5-.59-.93-.59h-.57c.05.09.1.2.14.33.04.13.06.27.08.4l.05.42c.03.25.09.45.16.58.12.22.32.33.58.33.2,0,.36-.07.48-.22Z"/>
        <path class="cls-2" d="M364.81,93.65c.08-.12.21-.27.41-.42h-2.11v-.68h5.76v.63h-.58c.26.16.44.36.56.58.11.22.17.48.17.77,0,.46-.2.87-.59,1.21s-.91.51-1.56.51c-.61,0-1.14-.16-1.58-.46-.45-.31-.67-.75-.67-1.33,0-.32.07-.59.2-.8ZM367.95,95.22c.3-.19.45-.49.45-.91,0-.32-.14-.59-.42-.8s-.68-.31-1.21-.31-.92.11-1.17.32-.38.48-.38.8c0,.35.14.64.41.86.27.22.67.33,1.2.33.45,0,.82-.1,1.12-.28Z"/>
        <path class="cls-2" d="M364.68,88.89v-.78c.27.1.88.32,1.84.66.72.25,1.31.47,1.76.64,1.07.41,1.72.69,1.95.86.23.17.35.45.35.86,0,.1,0,.17-.01.23,0,.05-.02.12-.04.2h-.64c.03-.12.05-.21.06-.27s.01-.1.01-.14c0-.13-.02-.22-.06-.29-.04-.06-.1-.11-.16-.15-.02-.01-.13-.06-.32-.14-.19-.08-.33-.14-.43-.18l-4.31,1.55v-.8l3.41-1.12-3.41-1.13Z"/>
        <path class="cls-2" d="M363.13,85.09v-2.61c0-.43.06-.78.19-1.06.24-.53.7-.79,1.36-.79.34,0,.62.07.84.21.22.14.39.34.53.6.09-.22.21-.39.36-.51s.39-.18.72-.19l.77-.03c.22,0,.38-.03.49-.05.18-.05.3-.13.35-.25h.13v.95s-.11.05-.19.06-.23.03-.45.04l-.96.05c-.38.02-.63.15-.75.41-.07.14-.11.37-.11.68v1.72h2.46v.78h-5.74ZM365.76,82.57c0-.35-.07-.63-.22-.84-.15-.21-.41-.31-.79-.31-.41,0-.69.14-.84.43-.08.15-.12.36-.12.62v1.85h1.96v-1.75Z"/>
        <path class="cls-2" d="M367.02,78.9c.33-.02.59-.09.79-.22.38-.25.57-.69.57-1.31,0-.28-.04-.54-.12-.77-.16-.45-.45-.67-.87-.67-.31,0-.54.09-.67.28-.13.19-.24.49-.34.9l-.18.75c-.11.49-.24.84-.38,1.04-.24.35-.6.53-1.07.53-.52,0-.94-.17-1.27-.52s-.5-.84-.5-1.47c0-.59.15-1.08.44-1.49.29-.41.75-.61,1.39-.61v.73c-.31.04-.54.12-.71.24-.3.23-.45.61-.45,1.16,0,.44.1.76.29.95.19.19.42.29.67.29.28,0,.49-.11.62-.34.08-.15.19-.48.31-1.01l.18-.78c.09-.38.21-.67.36-.87.27-.35.66-.53,1.17-.53.64,0,1.09.22,1.36.68s.41.97.41,1.57c0,.7-.18,1.24-.55,1.63-.36.39-.85.59-1.47.58v-.73Z"/>
        <path class="cls-2" d="M364.8,69.36c.14-.28.32-.49.54-.63.21-.14.46-.23.74-.28.19-.04.5-.06.92-.06v3.04c.43-.01.77-.11,1.02-.3s.39-.47.39-.86c0-.36-.12-.66-.36-.87-.14-.12-.31-.21-.49-.26v-.69c.15.02.32.08.51.18.19.1.34.22.46.34.21.21.35.47.42.79.04.17.06.36.06.57,0,.52-.19.96-.57,1.32s-.91.54-1.59.54-1.22-.18-1.64-.54-.63-.84-.63-1.42c0-.29.07-.58.21-.86ZM366.44,69.11c-.3.03-.55.09-.73.2-.34.19-.51.51-.51.96,0,.32.12.59.35.8s.53.33.89.35v-2.3Z"/>
        <path class="cls-2" d="M364.68,67.49v-.67h.59c-.24-.2-.42-.41-.53-.63-.11-.22-.16-.47-.16-.74,0-.59.21-1,.62-1.2.23-.12.55-.17.97-.17h2.68v.71h-2.64c-.26,0-.46.04-.62.11-.26.12-.39.35-.39.68,0,.17.02.3.05.41.06.19.17.36.34.51.14.12.28.19.43.23s.36.05.63.05h2.19v.7h-4.18Z"/>
        <path class="cls-2" d="M363.52,62.9v-.71h1.17v-.67h.57v.67h2.73c.15,0,.24-.05.29-.15.03-.05.04-.15.04-.27,0-.03,0-.07,0-.11,0-.04,0-.08-.01-.14h.56c.02.08.04.16.05.25.01.09.02.18.02.28,0,.33-.08.55-.25.67s-.39.18-.65.18h-2.77v.57h-.57v-.57h-1.17Z"/>
        <path class="cls-2" d="M364.68,60.8v-.67h.72c-.14-.05-.31-.19-.51-.4-.2-.21-.3-.46-.3-.74,0-.01,0-.04,0-.07s0-.08.02-.16h.74s-.01.08-.02.12,0,.07,0,.12c0,.35.11.63.34.82.23.19.49.29.79.29h2.41v.7h-4.18Z"/>
        <path class="cls-2" d="M363.13,58.16v-.71h.8v.71h-.8ZM364.7,58.16v-.71h4.16v.71h-4.16Z"/>
        <path class="cls-2" d="M364.8,53.8c.14-.28.32-.49.54-.63.21-.14.46-.23.74-.28.19-.04.5-.06.92-.06v3.04c.43-.01.77-.11,1.02-.3s.39-.47.39-.86c0-.36-.12-.66-.36-.87-.14-.12-.31-.21-.49-.26v-.69c.15.02.32.08.51.18.19.1.34.22.46.34.21.21.35.47.42.79.04.17.06.36.06.57,0,.52-.19.96-.57,1.32s-.91.54-1.59.54-1.22-.18-1.64-.54-.63-.84-.63-1.42c0-.29.07-.58.21-.86ZM366.44,53.54c-.3.03-.55.09-.73.2-.34.19-.51.51-.51.96,0,.32.12.59.35.8s.53.33.89.35v-2.3Z"/>
        <path class="cls-2" d="M367.55,51.51c.23-.02.41-.08.54-.18.23-.18.34-.49.34-.94,0-.27-.06-.5-.17-.7-.11-.2-.29-.3-.53-.3-.18,0-.32.08-.41.24-.06.1-.12.31-.2.61l-.14.57c-.09.36-.19.63-.3.8-.19.31-.45.46-.79.46-.4,0-.72-.14-.96-.43s-.37-.68-.37-1.17c0-.64.19-1.1.55-1.38.23-.18.49-.26.76-.26v.66c-.16.01-.3.07-.43.17-.18.17-.28.45-.28.86,0,.27.05.48.15.62.1.14.23.21.4.21.18,0,.33-.09.44-.28.06-.11.12-.26.17-.47l.11-.47c.12-.51.24-.86.36-1.03.18-.27.46-.41.85-.41s.69.14.96.43.41.72.41,1.31c0,.63-.14,1.08-.42,1.34-.28.26-.63.4-1.05.42v-.68Z"/>
      </g>
    </g>
    <g>
      <path class="cls-1" d="M.88,55.79h3.26c.54,0,.98.08,1.33.24.66.31.99.87.99,1.69,0,.43-.09.78-.27,1.05s-.43.49-.74.66c.28.11.49.26.63.45s.22.49.24.9l.03.96c0,.27.03.48.07.61.06.23.16.38.31.44v.16h-1.19c-.03-.06-.06-.14-.08-.24s-.04-.29-.05-.57l-.06-1.2c-.02-.47-.19-.78-.51-.94-.18-.09-.46-.13-.85-.13H1.85v3.08h-.97v-7.17ZM4.03,59.08c.44,0,.79-.09,1.05-.27.26-.18.39-.51.39-.99,0-.51-.18-.86-.54-1.04-.19-.1-.45-.15-.77-.15H1.85v2.45h2.18Z"/>
      <path class="cls-1" d="M11.1,57.88c.35.17.61.4.79.68.17.26.29.57.35.92.05.24.08.62.08,1.15h-3.8c.02.53.14.96.37,1.28.23.32.59.48,1.08.48.46,0,.82-.15,1.09-.46.15-.18.26-.38.32-.61h.86c-.02.19-.1.41-.23.64-.13.24-.27.43-.43.58-.27.26-.59.44-.98.53-.21.05-.45.08-.71.08-.65,0-1.2-.24-1.65-.71s-.67-1.14-.67-1.99.23-1.52.68-2.05c.45-.52,1.04-.79,1.78-.79.37,0,.73.09,1.07.26ZM11.41,59.93c-.04-.38-.12-.68-.25-.91-.24-.42-.64-.63-1.2-.63-.4,0-.74.15-1.01.44-.27.29-.41.66-.43,1.11h2.88Z"/>
      <path class="cls-1" d="M13.43,57.74h.83v.74c.25-.31.51-.53.79-.66.28-.13.58-.2.92-.2.74,0,1.24.26,1.5.78.14.28.21.69.21,1.22v3.35h-.89v-3.3c0-.32-.05-.58-.14-.77-.16-.33-.44-.49-.85-.49-.21,0-.38.02-.51.06-.24.07-.45.21-.63.43-.15.17-.24.35-.29.54-.04.18-.07.45-.07.79v2.74h-.88v-5.23Z"/>
      <path class="cls-1" d="M21.79,59.8c.2-.03.34-.11.41-.25.04-.08.06-.19.06-.34,0-.3-.11-.52-.32-.65-.21-.14-.52-.2-.91-.2-.46,0-.78.12-.97.37-.11.14-.18.34-.21.61h-.82c.02-.65.23-1.1.63-1.35.4-.25.87-.38,1.4-.38.61,0,1.11.12,1.5.35.38.23.57.6.57,1.09v3.01c0,.09.02.17.06.22.04.06.12.08.24.08.04,0,.08,0,.13,0s.1-.01.16-.02v.65c-.14.04-.24.06-.31.07s-.17.01-.29.01c-.3,0-.52-.11-.66-.32-.07-.11-.12-.27-.15-.48-.18.23-.44.44-.77.61-.34.17-.7.26-1.11.26-.48,0-.88-.15-1.19-.44-.31-.29-.46-.66-.46-1.1,0-.48.15-.86.45-1.13s.7-.43,1.19-.49l1.4-.18ZM19.94,62.18c.19.15.41.22.66.22.31,0,.61-.07.9-.21.49-.24.73-.63.73-1.17v-.71c-.11.07-.25.12-.41.17s-.33.08-.5.1l-.53.07c-.32.04-.56.11-.72.2-.27.15-.41.4-.41.73,0,.25.09.45.28.6Z"/>
      <path class="cls-1" d="M24.55,57.74h.87v.74c.21-.26.4-.44.57-.56.29-.2.62-.3.99-.3.42,0,.75.1,1.01.31.14.12.27.29.39.52.2-.28.42-.49.69-.62.26-.14.56-.2.89-.2.7,0,1.18.25,1.44.76.14.27.21.64.21,1.1v3.48h-.91v-3.63c0-.35-.09-.59-.26-.72-.17-.13-.39-.2-.64-.2-.35,0-.64.12-.89.35-.25.23-.37.62-.37,1.16v3.04h-.89v-3.41c0-.35-.04-.61-.13-.78-.13-.24-.38-.37-.75-.37-.33,0-.63.13-.91.39-.27.26-.41.72-.41,1.4v2.77h-.88v-5.23Z"/>
      <path class="cls-1" d="M36.11,57.88c.35.17.61.4.79.68.17.26.29.57.35.92.05.24.08.62.08,1.15h-3.8c.02.53.14.96.37,1.28.23.32.59.48,1.08.48.46,0,.82-.15,1.09-.46.15-.18.26-.38.32-.61h.86c-.02.19-.1.41-.23.64-.13.24-.27.43-.43.58-.27.26-.59.44-.98.53-.21.05-.45.08-.71.08-.65,0-1.2-.24-1.65-.71s-.67-1.14-.67-1.99.23-1.52.68-2.05c.45-.52,1.04-.79,1.78-.79.37,0,.73.09,1.07.26ZM36.43,59.93c-.04-.38-.12-.68-.25-.91-.24-.42-.64-.63-1.2-.63-.4,0-.74.15-1.01.44-.27.29-.41.66-.43,1.11h2.88Z"/>
    </g>
    <g>
      <path class="cls-1" d="M476.43,55.79h5.21v.88h-4.26v2.18h3.94v.83h-3.94v2.43h4.33v.85h-5.28v-7.17Z"/>
      <path class="cls-1" d="M482.39,57.74h1.14l1.2,1.84,1.22-1.84,1.07.02-1.76,2.52,1.84,2.68h-1.12l-1.3-1.96-1.26,1.96h-1.11l1.84-2.68-1.75-2.55Z"/>
      <path class="cls-1" d="M491.12,57.88c.35.17.61.4.79.68.17.26.29.57.35.92.05.24.08.62.08,1.15h-3.8c.02.53.14.96.37,1.28.23.32.59.48,1.08.48.46,0,.82-.15,1.09-.46.15-.18.26-.38.32-.61h.86c-.02.19-.1.41-.23.64-.13.24-.27.43-.43.58-.27.26-.59.44-.98.53-.21.05-.45.08-.71.08-.65,0-1.2-.24-1.65-.71s-.67-1.14-.67-1.99.23-1.52.68-2.05c.45-.52,1.04-.79,1.78-.79.37,0,.73.09,1.07.26ZM491.44,59.93c-.04-.38-.12-.68-.25-.91-.24-.42-.64-.63-1.2-.63-.4,0-.74.15-1.01.44-.27.29-.41.66-.43,1.11h2.88Z"/>
      <path class="cls-1" d="M496.91,58.01c.37.29.59.78.67,1.48h-.85c-.05-.32-.17-.59-.36-.8-.19-.21-.48-.32-.89-.32-.56,0-.96.27-1.2.82-.16.35-.23.79-.23,1.31s.11.96.33,1.32.57.54,1.04.54c.36,0,.65-.11.87-.33.21-.22.36-.53.44-.91h.85c-.1.69-.34,1.2-.73,1.52-.39.32-.89.48-1.5.48-.68,0-1.23-.25-1.64-.75-.41-.5-.61-1.12-.61-1.87,0-.92.22-1.63.67-2.14.45-.51,1.01-.77,1.7-.77.59,0,1.07.14,1.44.43Z"/>
      <path class="cls-1" d="M499.33,57.74v3.47c0,.27.04.49.12.65.15.31.44.47.85.47.6,0,1-.27,1.22-.82.12-.29.18-.69.18-1.21v-2.57h.88v5.23h-.83v-.77c-.1.2-.24.37-.41.5-.33.27-.73.41-1.2.41-.73,0-1.23-.25-1.49-.75-.14-.27-.22-.62-.22-1.07v-3.55h.9Z"/>
      <path class="cls-1" d="M504.19,56.28h.89v1.46h.83v.72h-.83v3.41c0,.18.06.3.19.37.07.04.18.05.34.05.04,0,.09,0,.14,0s.11,0,.17-.02v.7c-.1.03-.21.05-.31.06-.11.01-.23.02-.35.02-.41,0-.69-.1-.83-.31s-.22-.48-.22-.82v-3.46h-.71v-.72h.71v-1.46Z"/>
      <path class="cls-1" d="M510.02,57.88c.35.17.61.4.79.68.17.26.29.57.35.92.05.24.08.62.08,1.15h-3.8c.02.53.14.96.37,1.28.23.32.59.48,1.08.48.46,0,.82-.15,1.09-.46.15-.18.26-.38.32-.61h.86c-.02.19-.1.41-.23.64-.13.24-.27.43-.43.58-.27.26-.59.44-.98.53-.21.05-.45.08-.71.08-.65,0-1.2-.24-1.65-.71s-.67-1.14-.67-1.99.23-1.52.68-2.05c.45-.52,1.04-.79,1.78-.79.37,0,.73.09,1.07.26ZM510.34,59.93c-.04-.38-.12-.68-.25-.91-.24-.42-.64-.63-1.2-.63-.4,0-.74.15-1.01.44-.27.29-.41.66-.43,1.11h2.88Z"/>
    </g>
  </g>
</svg>