<?xml version="1.0" encoding="utf-8" standalone="no"?>
<!DOCTYPE svg PUBLIC "-//W3C//DTD SVG 1.1//EN"
  "http://www.w3.org/Graphics/SVG/1.1/DTD/svg11.dtd">
<svg xmlns:xlink="http://www.w3.org/1999/xlink" width="738.8585pt" height="457.92pt" viewBox="0 0 738.8585 457.92" xmlns="http://www.w3.org/2000/svg" version="1.1">
 <metadata>
  <rdf:RDF xmlns:dc="http://purl.org/dc/elements/1.1/" xmlns:cc="http://creativecommons.org/ns#" xmlns:rdf="http://www.w3.org/1999/02/22-rdf-syntax-ns#">
   <cc:Work>
    <dc:type rdf:resource="http://purl.org/dc/dcmitype/StillImage"/>
    <dc:date>2025-09-15T22:06:26.481294</dc:date>
    <dc:format>image/svg+xml</dc:format>
    <dc:creator>
     <cc:Agent>
      <dc:title>Matplotlib v3.10.1, https://matplotlib.org/</dc:title>
     </cc:Agent>
    </dc:creator>
   </cc:Work>
  </rdf:RDF>
 </metadata>
 <defs>
  <style type="text/css">*{stroke-linejoin: round; stroke-linecap: butt}</style>
 </defs>
 <g id="figure_1">
  <g id="patch_1">
   <path d="M 0 457.92 
L 738.8585 457.92 
L 738.8585 0 
L 0 0 
L 0 457.92 
z
" style="fill: none; opacity: 0"/>
  </g>
  <g id="axes_1">
   <g id="patch_2">
    <path d="M 115.6265 373.104 
L 396.8585 373.104 
Q 400.2065 373.104 400.2065 370.8864 
L 400.2065 122.5152 
Q 400.2065 120.2976 396.8585 120.2976 
L 115.6265 120.2976 
Q 112.2785 120.2976 112.2785 122.5152 
L 112.2785 370.8864 
Q 112.2785 373.104 115.6265 373.104 
z
" clip-path="url(#pb6b4fed134)" style="fill: #ffffff; stroke-dasharray: 6.29,2.72; stroke-dashoffset: 0; stroke: #2563eb; stroke-width: 1.7; stroke-linejoin: miter"/>
   </g>
   <g id="patch_3">
    <path d="M 151.624196 213.816453 
C 149.293608 213.816453 147.058161 211.513497 145.410186 207.414784 
C 143.762211 203.316071 142.836258 197.756243 142.836258 191.959788 
C 142.836258 186.163332 143.762211 180.603504 145.410186 176.504791 
C 147.058161 172.406078 149.293608 170.103122 151.624196 170.103122 
C 153.954784 170.103122 156.190231 172.406078 157.838206 176.504791 
C 159.486181 180.603504 160.412134 186.163332 160.412134 191.959788 
C 160.412134 197.756243 159.486181 203.316071 157.838206 207.414784 
C 156.190231 211.513497 153.954784 213.816453 151.624196 213.816453 
z
" clip-path="url(#pb6b4fed134)" style="fill: #ffffff; stroke: #94a3b8; stroke-width: 1.15; stroke-linejoin: miter"/>
   </g>
   <g id="patch_4">
    <path d="M 193.471518 213.816453 
C 191.140929 213.816453 188.905482 211.513497 187.257507 207.414784 
C 185.609533 203.316071 184.68358 197.756243 184.68358 191.959788 
C 184.68358 186.163332 185.609533 180.603504 187.257507 176.504791 
C 188.905482 172.406078 191.140929 170.103122 193.471518 170.103122 
C 195.802106 170.103122 198.037553 172.406078 199.685528 176.504791 
C 201.333503 180.603504 202.259455 186.163332 202.259455 191.959788 
C 202.259455 197.756243 201.333503 203.316071 199.685528 207.414784 
C 198.037553 211.513497 195.802106 213.816453 193.471518 213.816453 
z
" clip-path="url(#pb6b4fed134)" style="fill: #ffffff; stroke: #94a3b8; stroke-width: 1.15; stroke-linejoin: miter"/>
   </g>
   <g id="patch_5">
    <path d="M 235.318839 213.816453 
C 232.988251 213.816453 230.752804 211.513497 229.104829 207.414784 
C 227.456854 203.316071 226.530902 197.756243 226.530902 191.959788 
C 226.530902 186.163332 227.456854 180.603504 229.104829 176.504791 
C 230.752804 172.406078 232.988251 170.103122 235.318839 170.103122 
C 237.649427 170.103122 239.884875 172.406078 241.532849 176.504791 
C 243.180824 180.603504 244.106777 186.163332 244.106777 191.959788 
C 244.106777 197.756243 243.180824 203.316071 241.532849 207.414784 
C 239.884875 211.513497 237.649427 213.816453 235.318839 213.816453 
z
" clip-path="url(#pb6b4fed134)" style="fill: #ffffff; stroke: #94a3b8; stroke-width: 1.15; stroke-linejoin: miter"/>
   </g>
   <g id="patch_6">
    <path d="M 277.166161 213.816453 
C 274.835573 213.816453 272.600125 211.513497 270.952151 207.414784 
C 269.304176 203.316071 268.378223 197.756243 268.378223 191.959788 
C 268.378223 186.163332 269.304176 180.603504 270.952151 176.504791 
C 272.600125 172.406078 274.835573 170.103122 277.166161 170.103122 
C 279.496749 170.103122 281.732196 172.406078 283.380171 176.504791 
C 285.028146 180.603504 285.954098 186.163332 285.954098 191.959788 
C 285.954098 197.756243 285.028146 203.316071 283.380171 207.414784 
C 281.732196 211.513497 279.496749 213.816453 277.166161 213.816453 
z
" clip-path="url(#pb6b4fed134)" style="fill: #ffffff; stroke: #94a3b8; stroke-width: 1.15; stroke-linejoin: miter"/>
   </g>
   <g id="patch_7">
    <path d="M 319.013482 213.816453 
C 316.682894 213.816453 314.447447 211.513497 312.799472 207.414784 
C 311.151497 203.316071 310.225545 197.756243 310.225545 191.959788 
C 310.225545 186.163332 311.151497 180.603504 312.799472 176.504791 
C 314.447447 172.406078 316.682894 170.103122 319.013482 170.103122 
C 321.344071 170.103122 323.579518 172.406078 325.227493 176.504791 
C 326.875467 180.603504 327.80142 186.163332 327.80142 191.959788 
C 327.80142 197.756243 326.875467 203.316071 325.227493 207.414784 
C 323.579518 211.513497 321.344071 213.816453 319.013482 213.816453 
z
" clip-path="url(#pb6b4fed134)" style="fill: #ffffff; stroke: #94a3b8; stroke-width: 1.15; stroke-linejoin: miter"/>
   </g>
   <g id="patch_8">
    <path d="M 360.860804 213.816453 
C 358.530216 213.816453 356.294769 211.513497 354.646794 207.414784 
C 352.998819 203.316071 352.072866 197.756243 352.072866 191.959788 
C 352.072866 186.163332 352.998819 180.603504 354.646794 176.504791 
C 356.294769 172.406078 358.530216 170.103122 360.860804 170.103122 
C 363.191392 170.103122 365.426839 172.406078 367.074814 176.504791 
C 368.722789 180.603504 369.648742 186.163332 369.648742 191.959788 
C 369.648742 197.756243 368.722789 203.316071 367.074814 207.414784 
C 365.426839 211.513497 363.191392 213.816453 360.860804 213.816453 
z
" clip-path="url(#pb6b4fed134)" style="fill: #ffffff; stroke: #94a3b8; stroke-width: 1.15; stroke-linejoin: miter"/>
   </g>
   <g id="patch_9">
    <path d="M 160.908633 191.959788 
Q 173.219233 191.959788 184.07639 191.959788 
" clip-path="url(#pb6b4fed134)" style="fill: none; stroke: #000000; stroke-width: 1.3; stroke-linecap: round"/>
    <path d="M 178.47639 189.159788 
L 184.07639 191.959788 
L 178.47639 194.759788 
z
" clip-path="url(#pb6b4fed134)" style="stroke: #000000; stroke-width: 1.3; stroke-linecap: round"/>
   </g>
   <g id="patch_10">
    <path d="M 202.755955 191.959788 
Q 215.066555 191.959788 225.923711 191.959788 
" clip-path="url(#pb6b4fed134)" style="fill: none; stroke: #000000; stroke-width: 1.3; stroke-linecap: round"/>
    <path d="M 220.323711 189.159788 
L 225.923711 191.959788 
L 220.323711 194.759788 
z
" clip-path="url(#pb6b4fed134)" style="stroke: #000000; stroke-width: 1.3; stroke-linecap: round"/>
   </g>
   <g id="patch_11">
    <path d="M 244.603276 191.959788 
Q 256.913877 191.959788 267.771033 191.959788 
" clip-path="url(#pb6b4fed134)" style="fill: none; stroke: #000000; stroke-width: 1.3; stroke-linecap: round"/>
    <path d="M 262.171033 189.159788 
L 267.771033 191.959788 
L 262.171033 194.759788 
z
" clip-path="url(#pb6b4fed134)" style="stroke: #000000; stroke-width: 1.3; stroke-linecap: round"/>
   </g>
   <g id="patch_12">
    <path d="M 286.450598 191.959788 
Q 298.761198 191.959788 309.618354 191.959788 
" clip-path="url(#pb6b4fed134)" style="fill: none; stroke: #000000; stroke-width: 1.3; stroke-linecap: round"/>
    <path d="M 304.018354 189.159788 
L 309.618354 191.959788 
L 304.018354 194.759788 
z
" clip-path="url(#pb6b4fed134)" style="stroke: #000000; stroke-width: 1.3; stroke-linecap: round"/>
   </g>
   <g id="patch_13">
    <path d="M 328.297919 191.959788 
Q 340.60852 191.959788 351.465676 191.959788 
" clip-path="url(#pb6b4fed134)" style="fill: none; stroke: #000000; stroke-width: 1.3; stroke-linecap: round"/>
    <path d="M 345.865676 189.159788 
L 351.465676 191.959788 
L 345.865676 194.759788 
z
" clip-path="url(#pb6b4fed134)" style="stroke: #000000; stroke-width: 1.3; stroke-linecap: round"/>
   </g>
   <g id="patch_14">
    <path d="M 124.37214 254.932531 
L 388.11286 254.932531 
Q 390.79126 254.932531 390.79126 253.158451 
L 390.79126 130.761124 
Q 390.79126 128.987044 388.11286 128.987044 
L 124.37214 128.987044 
Q 121.69374 128.987044 121.69374 130.761124 
L 121.69374 253.158451 
Q 121.69374 254.932531 124.37214 254.932531 
L 124.37214 254.932531 
z
" clip-path="url(#pb6b4fed134)" style="fill: none; stroke-dasharray: 6.29,2.72; stroke-dashoffset: 0; stroke: #94a3b8; stroke-width: 1.7; stroke-linejoin: miter"/>
   </g>
   <g id="patch_15">
    <path d="M 193.471518 231.738919 
Q 193.471518 223.777511 193.471518 217.157744 
" clip-path="url(#pb6b4fed134)" style="fill: none; stroke: #000000; stroke-width: 1.2; stroke-linecap: round"/>
    <path d="M 191.071518 221.957744 
L 193.471518 217.157744 
L 195.871518 221.957744 
z
" clip-path="url(#pb6b4fed134)" style="stroke: #000000; stroke-width: 1.2; stroke-linecap: round"/>
   </g>
   <g id="patch_16">
    <path d="M 235.318839 152.180656 
Q 235.318839 160.142064 235.318839 166.761831 
" clip-path="url(#pb6b4fed134)" style="fill: none; stroke: #000000; stroke-width: 1.2; stroke-linecap: round"/>
    <path d="M 237.718839 161.961831 
L 235.318839 166.761831 
L 232.918839 161.961831 
z
" clip-path="url(#pb6b4fed134)" style="stroke: #000000; stroke-width: 1.2; stroke-linecap: round"/>
   </g>
   <g id="patch_17">
    <path d="M 298.089822 180.026048 
Q 290.928084 180.026048 285.107987 180.026048 
" clip-path="url(#pb6b4fed134)" style="fill: none; stroke: #000000; stroke-width: 1.2; stroke-linecap: round"/>
    <path d="M 289.907987 182.426048 
L 285.107987 180.026048 
L 289.907987 177.626048 
z
" clip-path="url(#pb6b4fed134)" style="stroke: #000000; stroke-width: 1.2; stroke-linecap: round"/>
   </g>
   <g id="patch_18">
    <path d="M 219.401108 355.771238 
L 349.330292 355.771238 
Q 352.008692 355.771238 352.008692 353.997158 
L 352.008692 291.407616 
Q 352.008692 289.633536 349.330292 289.633536 
L 219.401108 289.633536 
Q 216.722708 289.633536 216.722708 291.407616 
L 216.722708 353.997158 
Q 216.722708 355.771238 219.401108 355.771238 
L 219.401108 355.771238 
z
" clip-path="url(#pb6b4fed134)" style="fill: none; stroke-dasharray: 6.29,2.72; stroke-dashoffset: 0; stroke: #94a3b8; stroke-width: 1.7; stroke-linejoin: miter"/>
   </g>
   <g id="patch_19">
    <path d="M 242.518378 344.559053 
C 240.18779 344.559053 237.952343 342.256097 236.304368 338.157384 
C 234.656393 334.058671 233.730441 328.498843 233.730441 322.702387 
C 233.730441 316.905932 234.656393 311.346104 236.304368 307.247391 
C 237.952343 303.148678 240.18779 300.845722 242.518378 300.845722 
C 244.848967 300.845722 247.084414 303.148678 248.732389 307.247391 
C 250.380363 311.346104 251.306316 316.905932 251.306316 322.702387 
C 251.306316 328.498843 250.380363 334.058671 248.732389 338.157384 
C 247.084414 342.256097 244.848967 344.559053 242.518378 344.559053 
z
" clip-path="url(#pb6b4fed134)" style="fill: #ffffff; stroke: #94a3b8; stroke-width: 1.15; stroke-linejoin: miter"/>
   </g>
   <g id="patch_20">
    <path d="M 284.3657 344.559053 
C 282.035112 344.559053 279.799665 342.256097 278.15169 338.157384 
C 276.503715 334.058671 275.577762 328.498843 275.577762 322.702387 
C 275.577762 316.905932 276.503715 311.346104 278.15169 307.247391 
C 279.799665 303.148678 282.035112 300.845722 284.3657 300.845722 
C 286.696288 300.845722 288.931735 303.148678 290.57971 307.247391 
C 292.227685 311.346104 293.153638 316.905932 293.153638 322.702387 
C 293.153638 328.498843 292.227685 334.058671 290.57971 338.157384 
C 288.931735 342.256097 286.696288 344.559053 284.3657 344.559053 
z
" clip-path="url(#pb6b4fed134)" style="fill: #ffffff; stroke: #94a3b8; stroke-width: 1.15; stroke-linejoin: miter"/>
   </g>
   <g id="patch_21">
    <path d="M 326.213022 344.559053 
C 323.882433 344.559053 321.646986 342.256097 319.999011 338.157384 
C 318.351037 334.058671 317.425084 328.498843 317.425084 322.702387 
C 317.425084 316.905932 318.351037 311.346104 319.999011 307.247391 
C 321.646986 303.148678 323.882433 300.845722 326.213022 300.845722 
C 328.54361 300.845722 330.779057 303.148678 332.427032 307.247391 
C 334.075007 311.346104 335.000959 316.905932 335.000959 322.702387 
C 335.000959 328.498843 334.075007 334.058671 332.427032 338.157384 
C 330.779057 342.256097 328.54361 344.559053 326.213022 344.559053 
z
" clip-path="url(#pb6b4fed134)" style="fill: #ffffff; stroke: #94a3b8; stroke-width: 1.15; stroke-linejoin: miter"/>
   </g>
   <g id="patch_22">
    <path d="M 252.471994 322.702387 
Q 264.110995 322.702387 274.296553 322.702387 
" clip-path="url(#pb6b4fed134)" style="fill: none; stroke: #000000; stroke-width: 1.3; stroke-linecap: round"/>
    <path d="M 268.696553 319.902387 
L 274.296553 322.702387 
L 268.696553 325.502387 
z
" clip-path="url(#pb6b4fed134)" style="stroke: #000000; stroke-width: 1.3; stroke-linecap: round"/>
   </g>
   <g id="patch_23">
    <path d="M 294.319315 322.702387 
Q 305.958317 322.702387 316.143875 322.702387 
" clip-path="url(#pb6b4fed134)" style="fill: none; stroke: #000000; stroke-width: 1.3; stroke-linecap: round"/>
    <path d="M 310.543875 319.902387 
L 316.143875 322.702387 
L 310.543875 325.502387 
z
" clip-path="url(#pb6b4fed134)" style="stroke: #000000; stroke-width: 1.3; stroke-linecap: round"/>
   </g>
   <g id="patch_24">
    <path d="M 242.518378 213.816453 
Q 242.518378 256.331133 242.518378 297.392368 
" clip-path="url(#pb6b4fed134)" style="fill: none; stroke: #000000; stroke-width: 1.3; stroke-linecap: round"/>
    <path d="M 245.718378 290.992368 
L 242.518378 297.392368 
L 239.318378 290.992368 
z
" clip-path="url(#pb6b4fed134)" style="stroke: #000000; stroke-width: 1.3; stroke-linecap: round"/>
   </g>
   <g id="patch_25">
    <path d="M 284.3657 213.816453 
Q 284.3657 256.331133 284.3657 297.392368 
" clip-path="url(#pb6b4fed134)" style="fill: none; stroke: #000000; stroke-width: 1.3; stroke-linecap: round"/>
    <path d="M 287.5657 290.992368 
L 284.3657 297.392368 
L 281.1657 290.992368 
z
" clip-path="url(#pb6b4fed134)" style="stroke: #000000; stroke-width: 1.3; stroke-linecap: round"/>
   </g>
   <g id="patch_26">
    <path d="M 319.013482 300.845722 
Q 319.013482 257.382009 319.013482 215.371741 
" clip-path="url(#pb6b4fed134)" style="fill: none; stroke: #000000; stroke-width: 1.3; stroke-linecap: round"/>
    <path d="M 315.813482 221.771741 
L 319.013482 215.371741 
L 322.213482 221.771741 
z
" clip-path="url(#pb6b4fed134)" style="stroke: #000000; stroke-width: 1.3; stroke-linecap: round"/>
   </g>
   <g id="patch_27">
    <path d="M 124.770558 63.08352 
L 262.172478 63.08352 
L 262.172478 25.473024 
L 124.770558 25.473024 
z
" clip-path="url(#pb6b4fed134)" style="fill: #ffffff; stroke: #94a3b8; stroke-width: 1.15; stroke-linejoin: miter"/>
   </g>
   <g id="patch_28">
    <path d="M 262.834844 44.278272 
Q 311.055197 44.278272 357.710302 44.278272 
" clip-path="url(#pb6b4fed134)" style="fill: none; stroke: #ff0000; stroke-width: 1.4; stroke-linecap: round"/>
    <path d="M 351.310302 41.078272 
L 357.710302 44.278272 
L 351.310302 47.478272 
z
" clip-path="url(#pb6b4fed134)" style="fill: #ff0000; stroke: #ff0000; stroke-width: 1.4; stroke-linecap: round"/>
   </g>
   <g id="patch_29">
    <path d="M 97.539486 44.278272 
Q 112.162507 44.278272 125.332083 44.278272 
" clip-path="url(#pb6b4fed134)" style="fill: none; stroke: #000000; stroke-width: 1.3; stroke-linecap: round"/>
    <path d="M 118.932083 41.078272 
L 125.332083 44.278272 
L 118.932083 47.478272 
z
" clip-path="url(#pb6b4fed134)" style="stroke: #000000; stroke-width: 1.3; stroke-linecap: round"/>
   </g>
   <g id="patch_30">
    <path d="M 481.8977 163.31904 
L 646.6193 163.31904 
L 646.6193 121.805568 
L 481.8977 121.805568 
z
" clip-path="url(#pb6b4fed134)" style="fill: #ffffff; stroke: #94a3b8; stroke-width: 1.15; stroke-linejoin: miter"/>
   </g>
   <g id="patch_31">
    <path d="M 481.8977 349.59744 
L 646.6193 349.59744 
L 646.6193 308.083968 
L 481.8977 308.083968 
z
" clip-path="url(#pb6b4fed134)" style="fill: #ffffff; stroke: #94a3b8; stroke-width: 1.15; stroke-linejoin: miter"/>
   </g>
   <g id="patch_32">
    <path d="M 193.471518 168.104849 
Q 193.471518 115.264275 193.471518 63.988948 
" clip-path="url(#pb6b4fed134)" style="fill: none; stroke: #000000; stroke-width: 1.4; stroke-linecap: round"/>
    <path d="M 190.271518 70.388948 
L 193.471518 63.988948 
L 196.671518 70.388948 
z
" clip-path="url(#pb6b4fed134)" style="stroke: #000000; stroke-width: 1.4; stroke-linecap: round"/>
   </g>
   <g id="patch_33">
    <path d="M 64.057567 191.959788 
Q 104.540048 191.959788 143.457283 191.959788 
" clip-path="url(#pb6b4fed134)" style="fill: none; stroke: #ff0000; stroke-width: 1.4; stroke-linecap: round"/>
    <path d="M 137.057283 188.759788 
L 143.457283 191.959788 
L 137.057283 195.159788 
z
" clip-path="url(#pb6b4fed134)" style="fill: #ff0000; stroke: #ff0000; stroke-width: 1.4; stroke-linecap: round"/>
   </g>
   <g id="patch_34">
    <path d="M 277.166161 142.562304 
Q 277.166161 155.332543 277.166161 166.537534 
" clip-path="url(#pb6b4fed134)" style="fill: none; stroke: #000000; stroke-width: 1.4; stroke-linecap: round"/>
    <path d="M 280.366161 160.137534 
L 277.166161 166.537534 
L 273.966161 160.137534 
z
" clip-path="url(#pb6b4fed134)" style="stroke: #000000; stroke-width: 1.4; stroke-linecap: round"/>
   </g>
   <g id="patch_35">
    <path d="M 455.343873 142.35416 
Q 469.631313 142.451436 482.353542 142.538054 
" clip-path="url(#pb6b4fed134)" style="fill: none; stroke: #000000; stroke-width: 1.4; stroke-linecap: round"/>
    <path d="M 475.975476 139.294555 
L 482.353542 142.538054 
L 475.931903 145.694407 
z
" clip-path="url(#pb6b4fed134)" style="stroke: #000000; stroke-width: 1.4; stroke-linecap: round"/>
   </g>
   <g id="patch_36">
    <path d="M 455.343873 328.840704 
Q 469.631313 328.840704 482.353505 328.840704 
" clip-path="url(#pb6b4fed134)" style="fill: none; stroke: #000000; stroke-width: 1.4; stroke-linecap: round"/>
    <path d="M 475.953505 325.640704 
L 482.353505 328.840704 
L 475.953505 332.040704 
z
" clip-path="url(#pb6b4fed134)" style="stroke: #000000; stroke-width: 1.4; stroke-linecap: round"/>
   </g>
   <g id="patch_37">
    <path d="M 647.2889 142.562304 
Q 684.121457 142.562304 719.388766 142.562304 
" clip-path="url(#pb6b4fed134)" style="fill: none; stroke: #ff0000; stroke-width: 1.4; stroke-linecap: round"/>
    <path d="M 712.988766 139.362304 
L 719.388766 142.562304 
L 712.988766 145.762304 
z
" clip-path="url(#pb6b4fed134)" style="fill: #ff0000; stroke: #ff0000; stroke-width: 1.4; stroke-linecap: round"/>
   </g>
   <g id="patch_38">
    <path d="M 647.2889 328.840704 
Q 684.121457 328.840704 719.388766 328.840704 
" clip-path="url(#pb6b4fed134)" style="fill: none; stroke: #ff0000; stroke-width: 1.4; stroke-linecap: round"/>
    <path d="M 712.988766 325.640704 
L 719.388766 328.840704 
L 712.988766 332.040704 
z
" clip-path="url(#pb6b4fed134)" style="fill: #ff0000; stroke: #ff0000; stroke-width: 1.4; stroke-linecap: round"/>
   </g>
   <g id="patch_39">
    <path d="M 216.053108 322.702387 
Q 140.054457 322.702387 65.621053 322.702387 
" clip-path="url(#pb6b4fed134)" style="fill: none; stroke: #ff0000; stroke-width: 1.4; stroke-linecap: round"/>
    <path d="M 72.021053 325.902387 
L 65.621053 322.702387 
L 72.021053 319.502387 
z
" clip-path="url(#pb6b4fed134)" style="fill: #ff0000; stroke: #ff0000; stroke-width: 1.4; stroke-linecap: round"/>
   </g>
   <g id="patch_40">
    <path d="M 234.657242 269.125171 
Q 149.35734 269.125171 65.510883 269.125171 
" clip-path="url(#pb6b4fed134)" style="fill: none; stroke: #ff0000; stroke-width: 1.3; stroke-linecap: round"/>
    <path d="M 71.910883 272.325171 
L 65.510883 269.125171 
L 71.910883 265.925171 
z
" clip-path="url(#pb6b4fed134)" style="fill: #ff0000; stroke: #ff0000; stroke-width: 1.3; stroke-linecap: round"/>
   </g>
   <g id="patch_41">
    <path d="M 360.860804 213.599753 
Q 360.860804 314.527819 360.860804 413.890637 
" clip-path="url(#pb6b4fed134)" style="fill: none; stroke: #ff0000; stroke-width: 1.4; stroke-linecap: round"/>
    <path d="M 364.060804 407.490637 
L 360.860804 413.890637 
L 357.660804 407.490637 
z
" clip-path="url(#pb6b4fed134)" style="fill: #ff0000; stroke: #ff0000; stroke-width: 1.4; stroke-linecap: round"/>
   </g>
   <g id="line2d_1">
    <path d="M 214.395178 191.959788 
L 214.395178 231.738919 
" clip-path="url(#pb6b4fed134)" style="fill: none; stroke: #000000; stroke-width: 1.2; stroke-linecap: round"/>
   </g>
   <g id="line2d_2">
    <path d="M 214.395178 231.738919 
L 193.471518 231.738919 
" clip-path="url(#pb6b4fed134)" style="fill: none; stroke: #000000; stroke-width: 1.2; stroke-linecap: round"/>
   </g>
   <g id="line2d_3">
    <path d="M 256.2425 191.959788 
L 256.2425 152.180656 
" clip-path="url(#pb6b4fed134)" style="fill: none; stroke: #000000; stroke-width: 1.2; stroke-linecap: round"/>
   </g>
   <g id="line2d_4">
    <path d="M 256.2425 152.180656 
L 235.318839 152.180656 
" clip-path="url(#pb6b4fed134)" style="fill: none; stroke: #000000; stroke-width: 1.2; stroke-linecap: round"/>
   </g>
   <g id="line2d_5">
    <path d="M 298.089822 191.959788 
L 298.089822 180.026048 
" clip-path="url(#pb6b4fed134)" style="fill: none; stroke: #000000; stroke-width: 1.2; stroke-linecap: round"/>
   </g>
   <g id="line2d_6">
    <path d="M 277.166161 213.816453 
L 242.518378 213.816453 
" clip-path="url(#pb6b4fed134)" style="fill: none; stroke: #000000; stroke-width: 1.3; stroke-linecap: round"/>
   </g>
   <g id="line2d_7">
    <path d="M 277.166161 213.816453 
L 284.3657 213.816453 
" clip-path="url(#pb6b4fed134)" style="fill: none; stroke: #000000; stroke-width: 1.3; stroke-linecap: round"/>
   </g>
   <g id="line2d_8">
    <path d="M 326.213022 300.845722 
L 319.013482 300.845722 
" clip-path="url(#pb6b4fed134)" style="fill: none; stroke: #000000; stroke-width: 1.3; stroke-linecap: round"/>
   </g>
   <g id="line2d_9">
    <path d="M 326.213022 346.776653 
L 326.213022 384.192 
" clip-path="url(#pb6b4fed134)" style="fill: none; stroke: #000000; stroke-width: 1.3; stroke-linecap: round"/>
   </g>
   <g id="line2d_10">
    <path d="M 326.213022 384.192 
L 95.5385 384.192 
" clip-path="url(#pb6b4fed134)" style="fill: none; stroke: #000000; stroke-width: 1.3; stroke-linecap: round"/>
   </g>
   <g id="line2d_11">
    <path d="M 95.5385 384.192 
L 95.5385 44.278272 
" clip-path="url(#pb6b4fed134)" style="fill: none; stroke: #000000; stroke-width: 1.3; stroke-linecap: round"/>
   </g>
   <g id="line2d_12">
    <path d="M 453.343947 142.562304 
L 453.343947 142.562304 
" clip-path="url(#pb6b4fed134)" style="fill: none; stroke: #000000; stroke-width: 1.4; stroke-linecap: round"/>
   </g>
   <g id="line2d_13">
    <path d="M 453.343947 142.562304 
L 277.166161 142.562304 
" clip-path="url(#pb6b4fed134)" style="fill: none; stroke: #000000; stroke-width: 1.4; stroke-linecap: round"/>
   </g>
   <g id="line2d_14">
    <path d="M 453.343947 142.340544 
L 453.343947 328.840704 
" clip-path="url(#pb6b4fed134)" style="fill: none; stroke: #000000; stroke-width: 1.4; stroke-linecap: round"/>
   </g>
   <g id="line2d_15">
    <path d="M 453.343947 328.840704 
L 453.343947 328.840704 
" clip-path="url(#pb6b4fed134)" style="fill: none; stroke: #000000; stroke-width: 1.4; stroke-linecap: round"/>
   </g>
   <g id="line2d_16">
    <path d="M 453.343947 142.340544 
" clip-path="url(#pb6b4fed134)" style="fill: none; stroke: #000000; stroke-width: 1.5; stroke-linecap: square"/>
    <defs>
     <path id="mee533690cb" d="M 0 1.5 
C 0.397805 1.5 0.77937 1.341951 1.06066 1.06066 
C 1.341951 0.77937 1.5 0.397805 1.5 0 
C 1.5 -0.397805 1.341951 -0.77937 1.06066 -1.06066 
C 0.77937 -1.341951 0.397805 -1.5 0 -1.5 
C -0.397805 -1.5 -0.77937 -1.341951 -1.06066 -1.06066 
C -1.341951 -0.77937 -1.5 -0.397805 -1.5 0 
C -1.5 0.397805 -1.341951 0.77937 -1.06066 1.06066 
C -0.77937 1.341951 -0.397805 1.5 0 1.5 
z
" style="stroke: #000000"/>
    </defs>
    <g clip-path="url(#pb6b4fed134)">
     <use xlink:href="#mee533690cb" x="453.343947" y="142.340544" style="stroke: #000000"/>
    </g>
   </g>
   <g id="line2d_17">
    <path d="M 453.343947 328.840704 
" clip-path="url(#pb6b4fed134)" style="fill: none; stroke: #000000; stroke-width: 1.5; stroke-linecap: square"/>
    <g clip-path="url(#pb6b4fed134)">
     <use xlink:href="#mee533690cb" x="453.343947" y="328.840704" style="stroke: #000000"/>
    </g>
   </g>
   <g id="line2d_18">
    <path d="M 235.318839 213.816453 
L 235.318839 269.125171 
" clip-path="url(#pb6b4fed134)" style="fill: none; stroke: #ff0000; stroke-width: 1.3; stroke-linecap: round"/>
   </g>
   <g id="text_1">
    <!-- Kernel Engine -->
    <g style="fill: #2563eb" transform="translate(121.25114 363.985382) scale(0.09 -0.09)">
     <defs>
      <path id="DejaVuSansMono-4b" d="M 428 4666 
L 1063 4666 
L 1063 2591 
L 3034 4666 
L 3775 4666 
L 1959 2759 
L 3828 0 
L 3066 0 
L 1544 2338 
L 1063 1825 
L 1063 0 
L 428 0 
L 428 4666 
z
" transform="scale(0.015625)"/>
      <path id="DejaVuSansMono-65" d="M 3475 1894 
L 3475 1613 
L 984 1613 
L 984 1594 
Q 984 1022 1282 709 
Q 1581 397 2125 397 
Q 2400 397 2700 484 
Q 3000 572 3341 750 
L 3341 178 
Q 3013 44 2708 -23 
Q 2403 -91 2119 -91 
Q 1303 -91 843 398 
Q 384 888 384 1747 
Q 384 2584 834 3084 
Q 1284 3584 2034 3584 
Q 2703 3584 3089 3131 
Q 3475 2678 3475 1894 
z
M 2900 2063 
Q 2888 2569 2661 2833 
Q 2434 3097 2009 3097 
Q 1594 3097 1325 2822 
Q 1056 2547 1006 2059 
L 2900 2063 
z
" transform="scale(0.015625)"/>
      <path id="DejaVuSansMono-72" d="M 3609 2778 
Q 3425 2922 3234 2987 
Q 3044 3053 2816 3053 
Q 2278 3053 1993 2715 
Q 1709 2378 1709 1741 
L 1709 0 
L 1131 0 
L 1131 3500 
L 1709 3500 
L 1709 2816 
Q 1853 3188 2151 3386 
Q 2450 3584 2859 3584 
Q 3072 3584 3256 3531 
Q 3441 3478 3609 3366 
L 3609 2778 
z
" transform="scale(0.015625)"/>
      <path id="DejaVuSansMono-6e" d="M 3284 2169 
L 3284 0 
L 2706 0 
L 2706 2169 
Q 2706 2641 2540 2862 
Q 2375 3084 2022 3084 
Q 1619 3084 1401 2798 
Q 1184 2513 1184 1978 
L 1184 0 
L 609 0 
L 609 3500 
L 1184 3500 
L 1184 2975 
Q 1338 3275 1600 3429 
Q 1863 3584 2222 3584 
Q 2756 3584 3020 3232 
Q 3284 2881 3284 2169 
z
" transform="scale(0.015625)"/>
      <path id="DejaVuSansMono-6c" d="M 1997 1269 
Q 1997 881 2139 684 
Q 2281 488 2559 488 
L 3231 488 
L 3231 0 
L 2503 0 
Q 1988 0 1705 331 
Q 1422 663 1422 1269 
L 1422 4447 
L 500 4447 
L 500 4897 
L 1997 4897 
L 1997 1269 
z
" transform="scale(0.015625)"/>
      <path id="DejaVuSansMono-20" transform="scale(0.015625)"/>
      <path id="DejaVuSansMono-45" d="M 616 4666 
L 3384 4666 
L 3384 4134 
L 1247 4134 
L 1247 2753 
L 3291 2753 
L 3291 2222 
L 1247 2222 
L 1247 531 
L 3444 531 
L 3444 0 
L 616 0 
L 616 4666 
z
" transform="scale(0.015625)"/>
      <path id="DejaVuSansMono-67" d="M 2681 1778 
Q 2681 2425 2470 2761 
Q 2259 3097 1856 3097 
Q 1434 3097 1212 2761 
Q 991 2425 991 1778 
Q 991 1131 1214 792 
Q 1438 453 1863 453 
Q 2259 453 2470 793 
Q 2681 1134 2681 1778 
z
M 3256 225 
Q 3256 -563 2884 -969 
Q 2513 -1375 1791 -1375 
Q 1553 -1375 1293 -1331 
Q 1034 -1288 775 -1203 
L 775 -634 
Q 1081 -778 1331 -847 
Q 1581 -916 1791 -916 
Q 2256 -916 2468 -662 
Q 2681 -409 2681 141 
L 2681 166 
L 2681 556 
Q 2544 263 2306 119 
Q 2069 -25 1728 -25 
Q 1116 -25 750 465 
Q 384 956 384 1778 
Q 384 2603 750 3093 
Q 1116 3584 1728 3584 
Q 2066 3584 2300 3450 
Q 2534 3316 2681 3034 
L 2681 3488 
L 3256 3488 
L 3256 225 
z
" transform="scale(0.015625)"/>
      <path id="DejaVuSansMono-69" d="M 800 3500 
L 2272 3500 
L 2272 447 
L 3413 447 
L 3413 0 
L 556 0 
L 556 447 
L 1697 447 
L 1697 3053 
L 800 3053 
L 800 3500 
z
M 1697 4863 
L 2272 4863 
L 2272 4134 
L 1697 4134 
L 1697 4863 
z
" transform="scale(0.015625)"/>
     </defs>
     <use xlink:href="#DejaVuSansMono-4b"/>
     <use xlink:href="#DejaVuSansMono-65" transform="translate(60.205078 0)"/>
     <use xlink:href="#DejaVuSansMono-72" transform="translate(120.410156 0)"/>
     <use xlink:href="#DejaVuSansMono-6e" transform="translate(180.615234 0)"/>
     <use xlink:href="#DejaVuSansMono-65" transform="translate(240.820312 0)"/>
     <use xlink:href="#DejaVuSansMono-6c" transform="translate(301.025391 0)"/>
     <use xlink:href="#DejaVuSansMono-20" transform="translate(361.230469 0)"/>
     <use xlink:href="#DejaVuSansMono-45" transform="translate(421.435547 0)"/>
     <use xlink:href="#DejaVuSansMono-6e" transform="translate(481.640625 0)"/>
     <use xlink:href="#DejaVuSansMono-67" transform="translate(541.845703 0)"/>
     <use xlink:href="#DejaVuSansMono-69" transform="translate(602.050781 0)"/>
     <use xlink:href="#DejaVuSansMono-6e" transform="translate(662.255859 0)"/>
     <use xlink:href="#DejaVuSansMono-65" transform="translate(722.460938 0)"/>
    </g>
   </g>
   <g id="text_2">
    <!-- S0 -->
    <g style="fill: #334155" transform="translate(145.603884 194.745725) scale(0.1 -0.1)">
     <defs>
      <path id="DejaVuSansMono-53" d="M 3163 4506 
L 3163 3866 
Q 2875 4050 2586 4144 
Q 2297 4238 2003 4238 
Q 1556 4238 1297 4030 
Q 1038 3822 1038 3469 
Q 1038 3159 1208 2996 
Q 1378 2834 1844 2725 
L 2175 2650 
Q 2831 2497 3131 2169 
Q 3431 1841 3431 1275 
Q 3431 609 3018 259 
Q 2606 -91 1819 -91 
Q 1491 -91 1159 -20 
Q 828 50 494 191 
L 494 863 
Q 853 634 1173 528 
Q 1494 422 1819 422 
Q 2297 422 2562 636 
Q 2828 850 2828 1234 
Q 2828 1584 2645 1768 
Q 2463 1953 2009 2053 
L 1672 2131 
Q 1022 2278 728 2575 
Q 434 2872 434 3372 
Q 434 3997 854 4373 
Q 1275 4750 1972 4750 
Q 2241 4750 2537 4689 
Q 2834 4628 3163 4506 
z
" transform="scale(0.015625)"/>
      <path id="DejaVuSansMono-30" d="M 1509 2344 
Q 1509 2516 1629 2641 
Q 1750 2766 1919 2766 
Q 2094 2766 2219 2641 
Q 2344 2516 2344 2344 
Q 2344 2169 2220 2047 
Q 2097 1925 1919 1925 
Q 1744 1925 1626 2044 
Q 1509 2163 1509 2344 
z
M 1925 4250 
Q 1484 4250 1267 3775 
Q 1050 3300 1050 2328 
Q 1050 1359 1267 884 
Q 1484 409 1925 409 
Q 2369 409 2586 884 
Q 2803 1359 2803 2328 
Q 2803 3300 2586 3775 
Q 2369 4250 1925 4250 
z
M 1925 4750 
Q 2672 4750 3055 4137 
Q 3438 3525 3438 2328 
Q 3438 1134 3055 521 
Q 2672 -91 1925 -91 
Q 1178 -91 797 521 
Q 416 1134 416 2328 
Q 416 3525 797 4137 
Q 1178 4750 1925 4750 
z
" transform="scale(0.015625)"/>
     </defs>
     <use xlink:href="#DejaVuSansMono-53"/>
     <use xlink:href="#DejaVuSansMono-30" transform="translate(60.205078 0)"/>
    </g>
   </g>
   <g id="text_3">
    <!-- S1 -->
    <g style="fill: #334155" transform="translate(187.451205 194.745725) scale(0.1 -0.1)">
     <defs>
      <path id="DejaVuSansMono-31" d="M 844 531 
L 1825 531 
L 1825 4097 
L 769 3859 
L 769 4434 
L 1819 4666 
L 2450 4666 
L 2450 531 
L 3419 531 
L 3419 0 
L 844 0 
L 844 531 
z
" transform="scale(0.015625)"/>
     </defs>
     <use xlink:href="#DejaVuSansMono-53"/>
     <use xlink:href="#DejaVuSansMono-31" transform="translate(60.205078 0)"/>
    </g>
   </g>
   <g id="text_4">
    <!-- S2 -->
    <g style="fill: #334155" transform="translate(229.298527 194.745725) scale(0.1 -0.1)">
     <defs>
      <path id="DejaVuSansMono-32" d="M 1166 531 
L 3309 531 
L 3309 0 
L 475 0 
L 475 531 
Q 1059 1147 1496 1619 
Q 1934 2091 2100 2284 
Q 2413 2666 2522 2902 
Q 2631 3138 2631 3384 
Q 2631 3775 2401 3997 
Q 2172 4219 1772 4219 
Q 1488 4219 1175 4116 
Q 863 4013 513 3803 
L 513 4441 
Q 834 4594 1145 4672 
Q 1456 4750 1759 4750 
Q 2444 4750 2861 4386 
Q 3278 4022 3278 3431 
Q 3278 3131 3139 2831 
Q 3000 2531 2688 2169 
Q 2513 1966 2180 1606 
Q 1847 1247 1166 531 
z
" transform="scale(0.015625)"/>
     </defs>
     <use xlink:href="#DejaVuSansMono-53"/>
     <use xlink:href="#DejaVuSansMono-32" transform="translate(60.205078 0)"/>
    </g>
   </g>
   <g id="text_5">
    <!-- S3 -->
    <g style="fill: #334155" transform="translate(271.145848 194.745725) scale(0.1 -0.1)">
     <defs>
      <path id="DejaVuSansMono-33" d="M 2425 2497 
Q 2884 2375 3128 2064 
Q 3372 1753 3372 1288 
Q 3372 644 2939 276 
Q 2506 -91 1741 -91 
Q 1419 -91 1084 -31 
Q 750 28 428 141 
L 428 769 
Q 747 603 1056 522 
Q 1366 441 1672 441 
Q 2191 441 2469 675 
Q 2747 909 2747 1350 
Q 2747 1756 2469 1995 
Q 2191 2234 1716 2234 
L 1234 2234 
L 1234 2753 
L 1716 2753 
Q 2150 2753 2394 2943 
Q 2638 3134 2638 3475 
Q 2638 3834 2411 4026 
Q 2184 4219 1766 4219 
Q 1488 4219 1191 4156 
Q 894 4094 569 3969 
L 569 4550 
Q 947 4650 1242 4700 
Q 1538 4750 1766 4750 
Q 2447 4750 2855 4408 
Q 3263 4066 3263 3500 
Q 3263 3116 3048 2859 
Q 2834 2603 2425 2497 
z
" transform="scale(0.015625)"/>
     </defs>
     <use xlink:href="#DejaVuSansMono-53"/>
     <use xlink:href="#DejaVuSansMono-33" transform="translate(60.205078 0)"/>
    </g>
   </g>
   <g id="text_6">
    <!-- S4 -->
    <g style="fill: #334155" transform="translate(312.99317 194.745725) scale(0.1 -0.1)">
     <defs>
      <path id="DejaVuSansMono-34" d="M 2297 4091 
L 825 1625 
L 2297 1625 
L 2297 4091 
z
M 2194 4666 
L 2925 4666 
L 2925 1625 
L 3547 1625 
L 3547 1113 
L 2925 1113 
L 2925 0 
L 2297 0 
L 2297 1113 
L 319 1113 
L 319 1709 
L 2194 4666 
z
" transform="scale(0.015625)"/>
     </defs>
     <use xlink:href="#DejaVuSansMono-53"/>
     <use xlink:href="#DejaVuSansMono-34" transform="translate(60.205078 0)"/>
    </g>
   </g>
   <g id="text_7">
    <!-- S5 -->
    <g style="fill: #334155" transform="translate(354.840492 194.745725) scale(0.1 -0.1)">
     <defs>
      <path id="DejaVuSansMono-35" d="M 647 4666 
L 3009 4666 
L 3009 4134 
L 1222 4134 
L 1222 2988 
Q 1356 3038 1492 3061 
Q 1628 3084 1766 3084 
Q 2491 3084 2916 2656 
Q 3341 2228 3341 1497 
Q 3341 759 2895 334 
Q 2450 -91 1678 -91 
Q 1306 -91 998 -41 
Q 691 9 447 109 
L 447 750 
Q 734 594 1025 517 
Q 1316 441 1619 441 
Q 2141 441 2423 716 
Q 2706 991 2706 1497 
Q 2706 1997 2414 2275 
Q 2122 2553 1600 2553 
Q 1347 2553 1106 2495 
Q 866 2438 647 2322 
L 647 4666 
z
" transform="scale(0.015625)"/>
     </defs>
     <use xlink:href="#DejaVuSansMono-53"/>
     <use xlink:href="#DejaVuSansMono-35" transform="translate(60.205078 0)"/>
    </g>
   </g>
   <g id="text_8">
    <!-- Kernel Scheduler FSM -->
    <g style="fill: #334155" transform="translate(127.009547 250.478697) scale(0.07 -0.07)">
     <defs>
      <path id="DejaVuSansMono-63" d="M 3316 178 
Q 3084 44 2839 -23 
Q 2594 -91 2338 -91 
Q 1525 -91 1067 396 
Q 609 884 609 1747 
Q 609 2609 1067 3096 
Q 1525 3584 2338 3584 
Q 2591 3584 2831 3518 
Q 3072 3453 3316 3316 
L 3316 2713 
Q 3088 2916 2858 3006 
Q 2628 3097 2338 3097 
Q 1797 3097 1506 2747 
Q 1216 2397 1216 1747 
Q 1216 1100 1508 748 
Q 1800 397 2338 397 
Q 2638 397 2875 489 
Q 3113 581 3316 775 
L 3316 178 
z
" transform="scale(0.015625)"/>
      <path id="DejaVuSansMono-68" d="M 3284 2169 
L 3284 0 
L 2706 0 
L 2706 2169 
Q 2706 2641 2540 2862 
Q 2375 3084 2022 3084 
Q 1619 3084 1401 2798 
Q 1184 2513 1184 1978 
L 1184 0 
L 609 0 
L 609 4863 
L 1184 4863 
L 1184 2975 
Q 1338 3275 1600 3429 
Q 1863 3584 2222 3584 
Q 2756 3584 3020 3232 
Q 3284 2881 3284 2169 
z
" transform="scale(0.015625)"/>
      <path id="DejaVuSansMono-64" d="M 2681 3053 
L 2681 4863 
L 3256 4863 
L 3256 0 
L 2681 0 
L 2681 441 
Q 2538 181 2298 45 
Q 2059 -91 1747 -91 
Q 1113 -91 748 401 
Q 384 894 384 1759 
Q 384 2613 750 3098 
Q 1116 3584 1747 3584 
Q 2063 3584 2303 3448 
Q 2544 3313 2681 3053 
z
M 991 1747 
Q 991 1078 1203 737 
Q 1416 397 1831 397 
Q 2247 397 2464 740 
Q 2681 1084 2681 1747 
Q 2681 2413 2464 2755 
Q 2247 3097 1831 3097 
Q 1416 3097 1203 2756 
Q 991 2416 991 1747 
z
" transform="scale(0.015625)"/>
      <path id="DejaVuSansMono-75" d="M 609 1325 
L 609 3494 
L 1184 3494 
L 1184 1325 
Q 1184 853 1351 631 
Q 1519 409 1869 409 
Q 2275 409 2490 695 
Q 2706 981 2706 1516 
L 2706 3494 
L 3284 3494 
L 3284 0 
L 2706 0 
L 2706 525 
Q 2553 222 2289 65 
Q 2025 -91 1672 -91 
Q 1134 -91 871 261 
Q 609 613 609 1325 
z
" transform="scale(0.015625)"/>
      <path id="DejaVuSansMono-46" d="M 728 4666 
L 3475 4666 
L 3475 4134 
L 1363 4134 
L 1363 2759 
L 3278 2759 
L 3278 2228 
L 1363 2228 
L 1363 0 
L 728 0 
L 728 4666 
z
" transform="scale(0.015625)"/>
      <path id="DejaVuSansMono-4d" d="M 269 4666 
L 1113 4666 
L 1919 2291 
L 2731 4666 
L 3578 4666 
L 3578 0 
L 2994 0 
L 2994 4122 
L 2163 1663 
L 1684 1663 
L 850 4122 
L 850 0 
L 269 0 
L 269 4666 
z
" transform="scale(0.015625)"/>
     </defs>
     <use xlink:href="#DejaVuSansMono-4b"/>
     <use xlink:href="#DejaVuSansMono-65" transform="translate(60.205078 0)"/>
     <use xlink:href="#DejaVuSansMono-72" transform="translate(120.410156 0)"/>
     <use xlink:href="#DejaVuSansMono-6e" transform="translate(180.615234 0)"/>
     <use xlink:href="#DejaVuSansMono-65" transform="translate(240.820312 0)"/>
     <use xlink:href="#DejaVuSansMono-6c" transform="translate(301.025391 0)"/>
     <use xlink:href="#DejaVuSansMono-20" transform="translate(361.230469 0)"/>
     <use xlink:href="#DejaVuSansMono-53" transform="translate(421.435547 0)"/>
     <use xlink:href="#DejaVuSansMono-63" transform="translate(481.640625 0)"/>
     <use xlink:href="#DejaVuSansMono-68" transform="translate(541.845703 0)"/>
     <use xlink:href="#DejaVuSansMono-65" transform="translate(602.050781 0)"/>
     <use xlink:href="#DejaVuSansMono-64" transform="translate(662.255859 0)"/>
     <use xlink:href="#DejaVuSansMono-75" transform="translate(722.460938 0)"/>
     <use xlink:href="#DejaVuSansMono-6c" transform="translate(782.666016 0)"/>
     <use xlink:href="#DejaVuSansMono-65" transform="translate(842.871094 0)"/>
     <use xlink:href="#DejaVuSansMono-72" transform="translate(903.076172 0)"/>
     <use xlink:href="#DejaVuSansMono-20" transform="translate(963.28125 0)"/>
     <use xlink:href="#DejaVuSansMono-46" transform="translate(1023.486328 0)"/>
     <use xlink:href="#DejaVuSansMono-53" transform="translate(1083.691406 0)"/>
     <use xlink:href="#DejaVuSansMono-4d" transform="translate(1143.896484 0)"/>
    </g>
   </g>
   <g id="text_9">
    <!-- wait_dma -->
    <g transform="translate(184.668348 240.003335) scale(0.08 -0.08)">
     <defs>
      <path id="DejaVuSansMono-77" d="M 0 3500 
L 569 3500 
L 1178 672 
L 1678 2478 
L 2169 2478 
L 2675 672 
L 3284 3500 
L 3853 3500 
L 3034 0 
L 2484 0 
L 1925 1919 
L 1369 0 
L 819 0 
L 0 3500 
z
" transform="scale(0.015625)"/>
      <path id="DejaVuSansMono-61" d="M 2194 1759 
L 2003 1759 
Q 1500 1759 1245 1582 
Q 991 1406 991 1056 
Q 991 741 1181 566 
Q 1372 391 1709 391 
Q 2184 391 2456 720 
Q 2728 1050 2731 1631 
L 2731 1759 
L 2194 1759 
z
M 3309 1997 
L 3309 0 
L 2731 0 
L 2731 519 
Q 2547 206 2267 57 
Q 1988 -91 1588 -91 
Q 1053 -91 734 211 
Q 416 513 416 1019 
Q 416 1603 808 1906 
Q 1200 2209 1959 2209 
L 2731 2209 
L 2731 2300 
Q 2728 2719 2518 2908 
Q 2309 3097 1850 3097 
Q 1556 3097 1256 3012 
Q 956 2928 672 2766 
L 672 3341 
Q 991 3463 1283 3523 
Q 1575 3584 1850 3584 
Q 2284 3584 2592 3456 
Q 2900 3328 3091 3072 
Q 3209 2916 3259 2686 
Q 3309 2456 3309 1997 
z
" transform="scale(0.015625)"/>
      <path id="DejaVuSansMono-74" d="M 1919 4494 
L 1919 3500 
L 3225 3500 
L 3225 3053 
L 1919 3053 
L 1919 1153 
Q 1919 766 2066 612 
Q 2213 459 2578 459 
L 3225 459 
L 3225 0 
L 2522 0 
Q 1875 0 1609 259 
Q 1344 519 1344 1153 
L 1344 3053 
L 409 3053 
L 409 3500 
L 1344 3500 
L 1344 4494 
L 1919 4494 
z
" transform="scale(0.015625)"/>
      <path id="DejaVuSansMono-5f" d="M 3853 -1259 
L 3853 -1509 
L 0 -1509 
L 0 -1259 
L 3853 -1259 
z
" transform="scale(0.015625)"/>
      <path id="DejaVuSansMono-6d" d="M 2113 3144 
Q 2219 3369 2383 3476 
Q 2547 3584 2778 3584 
Q 3200 3584 3373 3257 
Q 3547 2931 3547 2028 
L 3547 0 
L 3022 0 
L 3022 2003 
Q 3022 2744 2939 2923 
Q 2856 3103 2638 3103 
Q 2388 3103 2295 2911 
Q 2203 2719 2203 2003 
L 2203 0 
L 1678 0 
L 1678 2003 
Q 1678 2753 1589 2928 
Q 1500 3103 1269 3103 
Q 1041 3103 952 2911 
Q 863 2719 863 2003 
L 863 0 
L 341 0 
L 341 3500 
L 863 3500 
L 863 3200 
Q 966 3388 1120 3486 
Q 1275 3584 1472 3584 
Q 1709 3584 1867 3475 
Q 2025 3366 2113 3144 
z
" transform="scale(0.015625)"/>
     </defs>
     <use xlink:href="#DejaVuSansMono-77"/>
     <use xlink:href="#DejaVuSansMono-61" transform="translate(60.205078 0)"/>
     <use xlink:href="#DejaVuSansMono-69" transform="translate(120.410156 0)"/>
     <use xlink:href="#DejaVuSansMono-74" transform="translate(180.615234 0)"/>
     <use xlink:href="#DejaVuSansMono-5f" transform="translate(240.820312 0)"/>
     <use xlink:href="#DejaVuSansMono-64" transform="translate(301.025391 0)"/>
     <use xlink:href="#DejaVuSansMono-6d" transform="translate(361.230469 0)"/>
     <use xlink:href="#DejaVuSansMono-61" transform="translate(421.435547 0)"/>
    </g>
   </g>
   <g id="text_10">
    <!-- wait_read -->
    <g transform="translate(224.107545 148.10874) scale(0.08 -0.08)">
     <use xlink:href="#DejaVuSansMono-77"/>
     <use xlink:href="#DejaVuSansMono-61" transform="translate(60.205078 0)"/>
     <use xlink:href="#DejaVuSansMono-69" transform="translate(120.410156 0)"/>
     <use xlink:href="#DejaVuSansMono-74" transform="translate(180.615234 0)"/>
     <use xlink:href="#DejaVuSansMono-5f" transform="translate(240.820312 0)"/>
     <use xlink:href="#DejaVuSansMono-72" transform="translate(301.025391 0)"/>
     <use xlink:href="#DejaVuSansMono-65" transform="translate(361.230469 0)"/>
     <use xlink:href="#DejaVuSansMono-61" transform="translate(421.435547 0)"/>
     <use xlink:href="#DejaVuSansMono-64" transform="translate(481.640625 0)"/>
    </g>
   </g>
   <g id="text_11">
    <!-- nxt_tb -->
    <g transform="translate(283.516472 175.954132) scale(0.08 -0.08)">
     <defs>
      <path id="DejaVuSansMono-78" d="M 3494 3500 
L 2241 1825 
L 3616 0 
L 2950 0 
L 1925 1403 
L 903 0 
L 238 0 
L 1613 1825 
L 359 3500 
L 997 3500 
L 1925 2234 
L 2847 3500 
L 3494 3500 
z
" transform="scale(0.015625)"/>
      <path id="DejaVuSansMono-62" d="M 2869 1747 
Q 2869 2416 2656 2756 
Q 2444 3097 2028 3097 
Q 1609 3097 1393 2755 
Q 1178 2413 1178 1747 
Q 1178 1084 1393 740 
Q 1609 397 2028 397 
Q 2444 397 2656 737 
Q 2869 1078 2869 1747 
z
M 1178 3053 
Q 1316 3309 1558 3446 
Q 1800 3584 2119 3584 
Q 2750 3584 3112 3098 
Q 3475 2613 3475 1759 
Q 3475 894 3111 401 
Q 2747 -91 2113 -91 
Q 1800 -91 1561 45 
Q 1322 181 1178 441 
L 1178 0 
L 603 0 
L 603 4863 
L 1178 4863 
L 1178 3053 
z
" transform="scale(0.015625)"/>
     </defs>
     <use xlink:href="#DejaVuSansMono-6e"/>
     <use xlink:href="#DejaVuSansMono-78" transform="translate(60.205078 0)"/>
     <use xlink:href="#DejaVuSansMono-74" transform="translate(120.410156 0)"/>
     <use xlink:href="#DejaVuSansMono-5f" transform="translate(180.615234 0)"/>
     <use xlink:href="#DejaVuSansMono-74" transform="translate(240.820312 0)"/>
     <use xlink:href="#DejaVuSansMono-62" transform="translate(301.025391 0)"/>
    </g>
   </g>
   <g id="text_12">
    <!-- Printf Unit FSM -->
    <g style="fill: #334155" transform="translate(220.7004 351.915482) scale(0.07 -0.07)">
     <defs>
      <path id="DejaVuSansMono-50" d="M 1247 4147 
L 1247 2394 
L 1978 2394 
Q 2416 2394 2661 2625 
Q 2906 2856 2906 3272 
Q 2906 3688 2662 3917 
Q 2419 4147 1978 4147 
L 1247 4147 
z
M 616 4666 
L 1978 4666 
Q 2759 4666 3162 4311 
Q 3566 3956 3566 3272 
Q 3566 2581 3164 2228 
Q 2763 1875 1978 1875 
L 1247 1875 
L 1247 0 
L 616 0 
L 616 4666 
z
" transform="scale(0.015625)"/>
      <path id="DejaVuSansMono-66" d="M 3322 4863 
L 3322 4384 
L 2669 4384 
Q 2359 4384 2239 4257 
Q 2119 4131 2119 3809 
L 2119 3500 
L 3322 3500 
L 3322 3053 
L 2119 3053 
L 2119 0 
L 1544 0 
L 1544 3053 
L 609 3053 
L 609 3500 
L 1544 3500 
L 1544 3744 
Q 1544 4319 1808 4591 
Q 2072 4863 2631 4863 
L 3322 4863 
z
" transform="scale(0.015625)"/>
      <path id="DejaVuSansMono-55" d="M 459 1791 
L 459 4666 
L 1094 4666 
L 1094 1503 
Q 1094 1163 1112 1017 
Q 1131 872 1178 794 
Q 1278 609 1467 515 
Q 1656 422 1925 422 
Q 2197 422 2384 515 
Q 2572 609 2675 794 
Q 2722 872 2740 1015 
Q 2759 1159 2759 1497 
L 2759 4666 
L 3391 4666 
L 3391 1791 
Q 3391 1075 3302 773 
Q 3213 472 2994 275 
Q 2788 91 2522 0 
Q 2256 -91 1925 -91 
Q 1597 -91 1331 0 
Q 1066 91 856 275 
Q 641 469 550 776 
Q 459 1084 459 1791 
z
" transform="scale(0.015625)"/>
     </defs>
     <use xlink:href="#DejaVuSansMono-50"/>
     <use xlink:href="#DejaVuSansMono-72" transform="translate(60.205078 0)"/>
     <use xlink:href="#DejaVuSansMono-69" transform="translate(120.410156 0)"/>
     <use xlink:href="#DejaVuSansMono-6e" transform="translate(180.615234 0)"/>
     <use xlink:href="#DejaVuSansMono-74" transform="translate(240.820312 0)"/>
     <use xlink:href="#DejaVuSansMono-66" transform="translate(301.025391 0)"/>
     <use xlink:href="#DejaVuSansMono-20" transform="translate(361.230469 0)"/>
     <use xlink:href="#DejaVuSansMono-55" transform="translate(421.435547 0)"/>
     <use xlink:href="#DejaVuSansMono-6e" transform="translate(481.640625 0)"/>
     <use xlink:href="#DejaVuSansMono-69" transform="translate(541.845703 0)"/>
     <use xlink:href="#DejaVuSansMono-74" transform="translate(602.050781 0)"/>
     <use xlink:href="#DejaVuSansMono-20" transform="translate(662.255859 0)"/>
     <use xlink:href="#DejaVuSansMono-46" transform="translate(722.460938 0)"/>
     <use xlink:href="#DejaVuSansMono-53" transform="translate(782.666016 0)"/>
     <use xlink:href="#DejaVuSansMono-4d" transform="translate(842.871094 0)"/>
    </g>
   </g>
   <g id="text_13">
    <!-- P0 -->
    <g style="fill: #334155" transform="translate(236.498066 325.488325) scale(0.1 -0.1)">
     <use xlink:href="#DejaVuSansMono-50"/>
     <use xlink:href="#DejaVuSansMono-30" transform="translate(60.205078 0)"/>
    </g>
   </g>
   <g id="text_14">
    <!-- P1 -->
    <g style="fill: #334155" transform="translate(278.345388 325.488325) scale(0.1 -0.1)">
     <use xlink:href="#DejaVuSansMono-50"/>
     <use xlink:href="#DejaVuSansMono-31" transform="translate(60.205078 0)"/>
    </g>
   </g>
   <g id="text_15">
    <!-- P2 -->
    <g style="fill: #334155" transform="translate(320.192709 325.488325) scale(0.1 -0.1)">
     <use xlink:href="#DejaVuSansMono-50"/>
     <use xlink:href="#DejaVuSansMono-32" transform="translate(60.205078 0)"/>
    </g>
   </g>
   <g id="text_16">
    <!-- ring_header, -->
    <g transform="translate(250.042753 286.228587) rotate(-90) scale(0.08 -0.08)">
     <defs>
      <path id="DejaVuSansMono-2c" d="M 1569 947 
L 2356 947 
L 2356 300 
L 1741 -897 
L 1259 -897 
L 1569 300 
L 1569 947 
z
" transform="scale(0.015625)"/>
     </defs>
     <use xlink:href="#DejaVuSansMono-72"/>
     <use xlink:href="#DejaVuSansMono-69" transform="translate(60.205078 0)"/>
     <use xlink:href="#DejaVuSansMono-6e" transform="translate(120.410156 0)"/>
     <use xlink:href="#DejaVuSansMono-67" transform="translate(180.615234 0)"/>
     <use xlink:href="#DejaVuSansMono-5f" transform="translate(240.820312 0)"/>
     <use xlink:href="#DejaVuSansMono-68" transform="translate(301.025391 0)"/>
     <use xlink:href="#DejaVuSansMono-65" transform="translate(361.230469 0)"/>
     <use xlink:href="#DejaVuSansMono-61" transform="translate(421.435547 0)"/>
     <use xlink:href="#DejaVuSansMono-64" transform="translate(481.640625 0)"/>
     <use xlink:href="#DejaVuSansMono-65" transform="translate(541.845703 0)"/>
     <use xlink:href="#DejaVuSansMono-72" transform="translate(602.050781 0)"/>
     <use xlink:href="#DejaVuSansMono-2c" transform="translate(662.255859 0)"/>
    </g>
    <!-- host_addr -->
    <g transform="translate(259.274503 279.004212) rotate(-90) scale(0.08 -0.08)">
     <defs>
      <path id="DejaVuSansMono-6f" d="M 1925 3097 
Q 1488 3097 1263 2756 
Q 1038 2416 1038 1747 
Q 1038 1081 1263 739 
Q 1488 397 1925 397 
Q 2366 397 2591 739 
Q 2816 1081 2816 1747 
Q 2816 2416 2591 2756 
Q 2366 3097 1925 3097 
z
M 1925 3584 
Q 2653 3584 3039 3112 
Q 3425 2641 3425 1747 
Q 3425 850 3040 379 
Q 2656 -91 1925 -91 
Q 1197 -91 812 379 
Q 428 850 428 1747 
Q 428 2641 812 3112 
Q 1197 3584 1925 3584 
z
" transform="scale(0.015625)"/>
      <path id="DejaVuSansMono-73" d="M 3041 3378 
L 3041 2816 
Q 2794 2959 2544 3031 
Q 2294 3103 2034 3103 
Q 1644 3103 1451 2976 
Q 1259 2850 1259 2591 
Q 1259 2356 1403 2240 
Q 1547 2125 2119 2016 
L 2350 1972 
Q 2778 1891 2998 1647 
Q 3219 1403 3219 1013 
Q 3219 494 2850 201 
Q 2481 -91 1825 -91 
Q 1566 -91 1281 -36 
Q 997 19 666 128 
L 666 722 
Q 988 556 1281 473 
Q 1575 391 1838 391 
Q 2219 391 2428 545 
Q 2638 700 2638 978 
Q 2638 1378 1872 1531 
L 1847 1538 
L 1631 1581 
Q 1134 1678 906 1908 
Q 678 2138 678 2534 
Q 678 3038 1018 3311 
Q 1359 3584 1991 3584 
Q 2272 3584 2531 3532 
Q 2791 3481 3041 3378 
z
" transform="scale(0.015625)"/>
     </defs>
     <use xlink:href="#DejaVuSansMono-68"/>
     <use xlink:href="#DejaVuSansMono-6f" transform="translate(60.205078 0)"/>
     <use xlink:href="#DejaVuSansMono-73" transform="translate(120.410156 0)"/>
     <use xlink:href="#DejaVuSansMono-74" transform="translate(180.615234 0)"/>
     <use xlink:href="#DejaVuSansMono-5f" transform="translate(240.820312 0)"/>
     <use xlink:href="#DejaVuSansMono-61" transform="translate(301.025391 0)"/>
     <use xlink:href="#DejaVuSansMono-64" transform="translate(361.230469 0)"/>
     <use xlink:href="#DejaVuSansMono-64" transform="translate(421.435547 0)"/>
     <use xlink:href="#DejaVuSansMono-72" transform="translate(481.640625 0)"/>
    </g>
   </g>
   <g id="text_17">
    <!-- drain -->
    <g transform="translate(293.29045 269.371712) rotate(-90) scale(0.08 -0.08)">
     <use xlink:href="#DejaVuSansMono-64"/>
     <use xlink:href="#DejaVuSansMono-72" transform="translate(60.205078 0)"/>
     <use xlink:href="#DejaVuSansMono-61" transform="translate(120.410156 0)"/>
     <use xlink:href="#DejaVuSansMono-69" transform="translate(180.615234 0)"/>
     <use xlink:href="#DejaVuSansMono-6e" transform="translate(240.820312 0)"/>
    </g>
   </g>
   <g id="text_18">
    <!-- drained -->
    <g transform="translate(327.938232 273.23883) rotate(-90) scale(0.08 -0.08)">
     <use xlink:href="#DejaVuSansMono-64"/>
     <use xlink:href="#DejaVuSansMono-72" transform="translate(60.205078 0)"/>
     <use xlink:href="#DejaVuSansMono-61" transform="translate(120.410156 0)"/>
     <use xlink:href="#DejaVuSansMono-69" transform="translate(180.615234 0)"/>
     <use xlink:href="#DejaVuSansMono-6e" transform="translate(240.820312 0)"/>
     <use xlink:href="#DejaVuSansMono-65" transform="translate(301.025391 0)"/>
     <use xlink:href="#DejaVuSansMono-64" transform="translate(361.230469 0)"/>
    </g>
   </g>
   <g id="text_19">
    <!-- DMA Unit -->
    <g style="fill: #0f172a" transform="translate(166.982143 47.342803) scale(0.11 -0.11)">
     <defs>
      <path id="DejaVuSansMono-44" d="M 1363 519 
Q 2159 519 2475 911 
Q 2791 1303 2791 2328 
Q 2791 3363 2477 3755 
Q 2163 4147 1363 4147 
L 1063 4147 
L 1063 519 
L 1363 519 
z
M 1375 4666 
Q 2444 4666 2950 4097 
Q 3456 3528 3456 2328 
Q 3456 1134 2950 567 
Q 2444 0 1375 0 
L 428 0 
L 428 4666 
L 1375 4666 
z
" transform="scale(0.015625)"/>
      <path id="DejaVuSansMono-41" d="M 1925 4109 
L 1259 1722 
L 2591 1722 
L 1925 4109 
z
M 1544 4666 
L 2309 4666 
L 3738 0 
L 3084 0 
L 2741 1216 
L 1106 1216 
L 769 0 
L 116 0 
L 1544 4666 
z
" transform="scale(0.015625)"/>
     </defs>
     <use xlink:href="#DejaVuSansMono-44"/>
     <use xlink:href="#DejaVuSansMono-4d" transform="translate(60.205078 0)"/>
     <use xlink:href="#DejaVuSansMono-41" transform="translate(120.410156 0)"/>
     <use xlink:href="#DejaVuSansMono-20" transform="translate(180.615234 0)"/>
     <use xlink:href="#DejaVuSansMono-55" transform="translate(240.820312 0)"/>
     <use xlink:href="#DejaVuSansMono-6e" transform="translate(301.025391 0)"/>
     <use xlink:href="#DejaVuSansMono-69" transform="translate(361.230469 0)"/>
     <use xlink:href="#DejaVuSansMono-74" transform="translate(421.435547 0)"/>
    </g>
   </g>
   <g id="text_20">
    <!-- HOST/DEVICE DRAM -->
    <g style="fill: #ff0000" transform="translate(367.969278 46.785616) scale(0.09 -0.09)">
     <defs>
      <path id="DejaVuSansMono-48" d="M 428 4666 
L 1063 4666 
L 1063 2753 
L 2791 2753 
L 2791 4666 
L 3425 4666 
L 3425 0 
L 2791 0 
L 2791 2222 
L 1063 2222 
L 1063 0 
L 428 0 
L 428 4666 
z
" transform="scale(0.015625)"/>
      <path id="DejaVuSansMono-4f" d="M 2828 2328 
Q 2828 3356 2617 3797 
Q 2406 4238 1925 4238 
Q 1447 4238 1236 3797 
Q 1025 3356 1025 2328 
Q 1025 1303 1236 862 
Q 1447 422 1925 422 
Q 2406 422 2617 861 
Q 2828 1300 2828 2328 
z
M 3488 2328 
Q 3488 1109 3102 509 
Q 2716 -91 1925 -91 
Q 1134 -91 750 506 
Q 366 1103 366 2328 
Q 366 3550 752 4150 
Q 1138 4750 1925 4750 
Q 2716 4750 3102 4150 
Q 3488 3550 3488 2328 
z
" transform="scale(0.015625)"/>
      <path id="DejaVuSansMono-54" d="M 147 4666 
L 3706 4666 
L 3706 4134 
L 2247 4134 
L 2247 0 
L 1613 0 
L 1613 4134 
L 147 4134 
L 147 4666 
z
" transform="scale(0.015625)"/>
      <path id="DejaVuSansMono-2f" d="M 2778 4666 
L 3372 4666 
L 916 -594 
L 319 -594 
L 2778 4666 
z
" transform="scale(0.015625)"/>
      <path id="DejaVuSansMono-56" d="M 1925 531 
L 3022 4666 
L 3675 4666 
L 2309 0 
L 1544 0 
L 178 4666 
L 831 4666 
L 1925 531 
z
" transform="scale(0.015625)"/>
      <path id="DejaVuSansMono-49" d="M 628 4666 
L 3219 4666 
L 3219 4134 
L 2241 4134 
L 2241 531 
L 3219 531 
L 3219 0 
L 628 0 
L 628 531 
L 1606 531 
L 1606 4134 
L 628 4134 
L 628 4666 
z
" transform="scale(0.015625)"/>
      <path id="DejaVuSansMono-43" d="M 3353 166 
Q 3113 38 2859 -26 
Q 2606 -91 2322 -91 
Q 1425 -91 929 543 
Q 434 1178 434 2328 
Q 434 3472 932 4111 
Q 1431 4750 2322 4750 
Q 2606 4750 2859 4686 
Q 3113 4622 3353 4494 
L 3353 3847 
Q 3122 4038 2856 4138 
Q 2591 4238 2322 4238 
Q 1706 4238 1400 3763 
Q 1094 3288 1094 2328 
Q 1094 1372 1400 897 
Q 1706 422 2322 422 
Q 2597 422 2861 522 
Q 3125 622 3353 813 
L 3353 166 
z
" transform="scale(0.015625)"/>
      <path id="DejaVuSansMono-52" d="M 2375 2203 
Q 2619 2141 2791 1967 
Q 2963 1794 3219 1275 
L 3853 0 
L 3175 0 
L 2619 1178 
Q 2378 1681 2186 1826 
Q 1994 1972 1684 1972 
L 1081 1972 
L 1081 0 
L 447 0 
L 447 4666 
L 1747 4666 
Q 2516 4666 2925 4319 
Q 3334 3972 3334 3316 
Q 3334 2853 3082 2561 
Q 2831 2269 2375 2203 
z
M 1081 4147 
L 1081 2491 
L 1772 2491 
Q 2225 2491 2447 2694 
Q 2669 2897 2669 3316 
Q 2669 3719 2433 3933 
Q 2197 4147 1747 4147 
L 1081 4147 
z
" transform="scale(0.015625)"/>
     </defs>
     <use xlink:href="#DejaVuSansMono-48"/>
     <use xlink:href="#DejaVuSansMono-4f" transform="translate(60.205078 0)"/>
     <use xlink:href="#DejaVuSansMono-53" transform="translate(120.410156 0)"/>
     <use xlink:href="#DejaVuSansMono-54" transform="translate(180.615234 0)"/>
     <use xlink:href="#DejaVuSansMono-2f" transform="translate(240.820312 0)"/>
     <use xlink:href="#DejaVuSansMono-44" transform="translate(301.025391 0)"/>
     <use xlink:href="#DejaVuSansMono-45" transform="translate(361.230469 0)"/>
     <use xlink:href="#DejaVuSansMono-56" transform="translate(421.435547 0)"/>
     <use xlink:href="#DejaVuSansMono-49" transform="translate(481.640625 0)"/>
     <use xlink:href="#DejaVuSansMono-43" transform="translate(541.845703 0)"/>
     <use xlink:href="#DejaVuSansMono-45" transform="translate(602.050781 0)"/>
     <use xlink:href="#DejaVuSansMono-20" transform="translate(662.255859 0)"/>
     <use xlink:href="#DejaVuSansMono-44" transform="translate(722.460938 0)"/>
     <use xlink:href="#DejaVuSansMono-52" transform="translate(782.666016 0)"/>
     <use xlink:href="#DejaVuSansMono-41" transform="translate(842.871094 0)"/>
     <use xlink:href="#DejaVuSansMono-4d" transform="translate(903.076172 0)"/>
    </g>
   </g>
   <g id="text_21">
    <!-- D2H(src=ring_head,dst=host_addr,sz=ring_sz) -->
    <g transform="translate(94.382714 399.900994) scale(0.09 -0.09)">
     <defs>
      <path id="DejaVuSansMono-28" d="M 2766 4856 
Q 2350 4144 2145 3436 
Q 1941 2728 1941 2009 
Q 1941 1294 2145 584 
Q 2350 -125 2766 -844 
L 2266 -844 
Q 1794 -100 1562 604 
Q 1331 1309 1331 2009 
Q 1331 2706 1562 3412 
Q 1794 4119 2266 4856 
L 2766 4856 
z
" transform="scale(0.015625)"/>
      <path id="DejaVuSansMono-3d" d="M 275 1638 
L 3578 1638 
L 3578 1100 
L 275 1100 
L 275 1638 
z
M 275 2906 
L 3578 2906 
L 3578 2375 
L 275 2375 
L 275 2906 
z
" transform="scale(0.015625)"/>
      <path id="DejaVuSansMono-7a" d="M 709 3506 
L 3250 3506 
L 3250 2981 
L 1241 469 
L 3250 469 
L 3250 0 
L 634 0 
L 634 531 
L 2644 3047 
L 709 3047 
L 709 3506 
z
" transform="scale(0.015625)"/>
      <path id="DejaVuSansMono-29" d="M 1088 4856 
L 1588 4856 
Q 2059 4119 2290 3412 
Q 2522 2706 2522 2009 
Q 2522 1306 2290 600 
Q 2059 -106 1588 -844 
L 1088 -844 
Q 1503 -119 1708 590 
Q 1913 1300 1913 2009 
Q 1913 2722 1708 3431 
Q 1503 4141 1088 4856 
z
" transform="scale(0.015625)"/>
     </defs>
     <use xlink:href="#DejaVuSansMono-44"/>
     <use xlink:href="#DejaVuSansMono-32" transform="translate(60.205078 0)"/>
     <use xlink:href="#DejaVuSansMono-48" transform="translate(120.410156 0)"/>
     <use xlink:href="#DejaVuSansMono-28" transform="translate(180.615234 0)"/>
     <use xlink:href="#DejaVuSansMono-73" transform="translate(240.820312 0)"/>
     <use xlink:href="#DejaVuSansMono-72" transform="translate(301.025391 0)"/>
     <use xlink:href="#DejaVuSansMono-63" transform="translate(361.230469 0)"/>
     <use xlink:href="#DejaVuSansMono-3d" transform="translate(421.435547 0)"/>
     <use xlink:href="#DejaVuSansMono-72" transform="translate(481.640625 0)"/>
     <use xlink:href="#DejaVuSansMono-69" transform="translate(541.845703 0)"/>
     <use xlink:href="#DejaVuSansMono-6e" transform="translate(602.050781 0)"/>
     <use xlink:href="#DejaVuSansMono-67" transform="translate(662.255859 0)"/>
     <use xlink:href="#DejaVuSansMono-5f" transform="translate(722.460938 0)"/>
     <use xlink:href="#DejaVuSansMono-68" transform="translate(782.666016 0)"/>
     <use xlink:href="#DejaVuSansMono-65" transform="translate(842.871094 0)"/>
     <use xlink:href="#DejaVuSansMono-61" transform="translate(903.076172 0)"/>
     <use xlink:href="#DejaVuSansMono-64" transform="translate(963.28125 0)"/>
     <use xlink:href="#DejaVuSansMono-2c" transform="translate(1023.486328 0)"/>
     <use xlink:href="#DejaVuSansMono-64" transform="translate(1083.691406 0)"/>
     <use xlink:href="#DejaVuSansMono-73" transform="translate(1143.896484 0)"/>
     <use xlink:href="#DejaVuSansMono-74" transform="translate(1204.101562 0)"/>
     <use xlink:href="#DejaVuSansMono-3d" transform="translate(1264.306641 0)"/>
     <use xlink:href="#DejaVuSansMono-68" transform="translate(1324.511719 0)"/>
     <use xlink:href="#DejaVuSansMono-6f" transform="translate(1384.716797 0)"/>
     <use xlink:href="#DejaVuSansMono-73" transform="translate(1444.921875 0)"/>
     <use xlink:href="#DejaVuSansMono-74" transform="translate(1505.126953 0)"/>
     <use xlink:href="#DejaVuSansMono-5f" transform="translate(1565.332031 0)"/>
     <use xlink:href="#DejaVuSansMono-61" transform="translate(1625.537109 0)"/>
     <use xlink:href="#DejaVuSansMono-64" transform="translate(1685.742188 0)"/>
     <use xlink:href="#DejaVuSansMono-64" transform="translate(1745.947266 0)"/>
     <use xlink:href="#DejaVuSansMono-72" transform="translate(1806.152344 0)"/>
     <use xlink:href="#DejaVuSansMono-2c" transform="translate(1866.357422 0)"/>
     <use xlink:href="#DejaVuSansMono-73" transform="translate(1926.5625 0)"/>
     <use xlink:href="#DejaVuSansMono-7a" transform="translate(1986.767578 0)"/>
     <use xlink:href="#DejaVuSansMono-3d" transform="translate(2046.972656 0)"/>
     <use xlink:href="#DejaVuSansMono-72" transform="translate(2107.177734 0)"/>
     <use xlink:href="#DejaVuSansMono-69" transform="translate(2167.382812 0)"/>
     <use xlink:href="#DejaVuSansMono-6e" transform="translate(2227.587891 0)"/>
     <use xlink:href="#DejaVuSansMono-67" transform="translate(2287.792969 0)"/>
     <use xlink:href="#DejaVuSansMono-5f" transform="translate(2347.998047 0)"/>
     <use xlink:href="#DejaVuSansMono-73" transform="translate(2408.203125 0)"/>
     <use xlink:href="#DejaVuSansMono-7a" transform="translate(2468.408203 0)"/>
     <use xlink:href="#DejaVuSansMono-29" transform="translate(2528.613281 0)"/>
    </g>
   </g>
   <g id="text_22">
    <!-- Local Command -->
    <g style="fill: #334155" transform="translate(525.126469 139.71746) scale(0.1 -0.1)">
     <defs>
      <path id="DejaVuSansMono-4c" d="M 672 4666 
L 1306 4666 
L 1306 531 
L 3559 531 
L 3559 0 
L 672 0 
L 672 4666 
z
" transform="scale(0.015625)"/>
     </defs>
     <use xlink:href="#DejaVuSansMono-4c"/>
     <use xlink:href="#DejaVuSansMono-6f" transform="translate(60.205078 0)"/>
     <use xlink:href="#DejaVuSansMono-63" transform="translate(120.410156 0)"/>
     <use xlink:href="#DejaVuSansMono-61" transform="translate(180.615234 0)"/>
     <use xlink:href="#DejaVuSansMono-6c" transform="translate(240.820312 0)"/>
     <use xlink:href="#DejaVuSansMono-20" transform="translate(301.025391 0)"/>
     <use xlink:href="#DejaVuSansMono-43" transform="translate(361.230469 0)"/>
     <use xlink:href="#DejaVuSansMono-6f" transform="translate(421.435547 0)"/>
     <use xlink:href="#DejaVuSansMono-6d" transform="translate(481.640625 0)"/>
     <use xlink:href="#DejaVuSansMono-6d" transform="translate(541.845703 0)"/>
     <use xlink:href="#DejaVuSansMono-61" transform="translate(602.050781 0)"/>
     <use xlink:href="#DejaVuSansMono-6e" transform="translate(662.255859 0)"/>
     <use xlink:href="#DejaVuSansMono-64" transform="translate(722.460938 0)"/>
    </g>
    <!-- Processor (LCP) -->
    <g style="fill: #334155" transform="translate(519.106156 150.979023) scale(0.1 -0.1)">
     <use xlink:href="#DejaVuSansMono-50"/>
     <use xlink:href="#DejaVuSansMono-72" transform="translate(60.205078 0)"/>
     <use xlink:href="#DejaVuSansMono-6f" transform="translate(120.410156 0)"/>
     <use xlink:href="#DejaVuSansMono-63" transform="translate(180.615234 0)"/>
     <use xlink:href="#DejaVuSansMono-65" transform="translate(240.820312 0)"/>
     <use xlink:href="#DejaVuSansMono-73" transform="translate(301.025391 0)"/>
     <use xlink:href="#DejaVuSansMono-73" transform="translate(361.230469 0)"/>
     <use xlink:href="#DejaVuSansMono-6f" transform="translate(421.435547 0)"/>
     <use xlink:href="#DejaVuSansMono-72" transform="translate(481.640625 0)"/>
     <use xlink:href="#DejaVuSansMono-20" transform="translate(541.845703 0)"/>
     <use xlink:href="#DejaVuSansMono-28" transform="translate(602.050781 0)"/>
     <use xlink:href="#DejaVuSansMono-4c" transform="translate(662.255859 0)"/>
     <use xlink:href="#DejaVuSansMono-43" transform="translate(722.460938 0)"/>
     <use xlink:href="#DejaVuSansMono-50" transform="translate(782.666016 0)"/>
     <use xlink:href="#DejaVuSansMono-29" transform="translate(842.871094 0)"/>
    </g>
   </g>
   <g id="text_23">
    <!-- Local Command -->
    <g style="fill: #334155" transform="translate(525.126469 325.99586) scale(0.1 -0.1)">
     <use xlink:href="#DejaVuSansMono-4c"/>
     <use xlink:href="#DejaVuSansMono-6f" transform="translate(60.205078 0)"/>
     <use xlink:href="#DejaVuSansMono-63" transform="translate(120.410156 0)"/>
     <use xlink:href="#DejaVuSansMono-61" transform="translate(180.615234 0)"/>
     <use xlink:href="#DejaVuSansMono-6c" transform="translate(240.820312 0)"/>
     <use xlink:href="#DejaVuSansMono-20" transform="translate(301.025391 0)"/>
     <use xlink:href="#DejaVuSansMono-43" transform="translate(361.230469 0)"/>
     <use xlink:href="#DejaVuSansMono-6f" transform="translate(421.435547 0)"/>
     <use xlink:href="#DejaVuSansMono-6d" transform="translate(481.640625 0)"/>
     <use xlink:href="#DejaVuSansMono-6d" transform="translate(541.845703 0)"/>
     <use xlink:href="#DejaVuSansMono-61" transform="translate(602.050781 0)"/>
     <use xlink:href="#DejaVuSansMono-6e" transform="translate(662.255859 0)"/>
     <use xlink:href="#DejaVuSansMono-64" transform="translate(722.460938 0)"/>
    </g>
    <!-- Processor (LCP) -->
    <g style="fill: #334155" transform="translate(519.106156 337.257423) scale(0.1 -0.1)">
     <use xlink:href="#DejaVuSansMono-50"/>
     <use xlink:href="#DejaVuSansMono-72" transform="translate(60.205078 0)"/>
     <use xlink:href="#DejaVuSansMono-6f" transform="translate(120.410156 0)"/>
     <use xlink:href="#DejaVuSansMono-63" transform="translate(180.615234 0)"/>
     <use xlink:href="#DejaVuSansMono-65" transform="translate(240.820312 0)"/>
     <use xlink:href="#DejaVuSansMono-73" transform="translate(301.025391 0)"/>
     <use xlink:href="#DejaVuSansMono-73" transform="translate(361.230469 0)"/>
     <use xlink:href="#DejaVuSansMono-6f" transform="translate(421.435547 0)"/>
     <use xlink:href="#DejaVuSansMono-72" transform="translate(481.640625 0)"/>
     <use xlink:href="#DejaVuSansMono-20" transform="translate(541.845703 0)"/>
     <use xlink:href="#DejaVuSansMono-28" transform="translate(602.050781 0)"/>
     <use xlink:href="#DejaVuSansMono-4c" transform="translate(662.255859 0)"/>
     <use xlink:href="#DejaVuSansMono-43" transform="translate(722.460938 0)"/>
     <use xlink:href="#DejaVuSansMono-50" transform="translate(782.666016 0)"/>
     <use xlink:href="#DejaVuSansMono-29" transform="translate(842.871094 0)"/>
    </g>
   </g>
   <g id="text_24">
    <!-- H2D(src=CMD[31:0],sz=CMD[63:32]) -->
    <g transform="translate(206.863518 91.638616) scale(0.09 -0.09)">
     <defs>
      <path id="DejaVuSansMono-5b" d="M 1447 4863 
L 2772 4863 
L 2772 4416 
L 2022 4416 
L 2022 -397 
L 2772 -397 
L 2772 -844 
L 1447 -844 
L 1447 4863 
z
" transform="scale(0.015625)"/>
      <path id="DejaVuSansMono-3a" d="M 1528 3322 
L 2316 3322 
L 2316 2375 
L 1528 2375 
L 1528 3322 
z
M 1528 953 
L 2316 953 
L 2316 0 
L 1528 0 
L 1528 953 
z
" transform="scale(0.015625)"/>
      <path id="DejaVuSansMono-5d" d="M 2406 4863 
L 2406 -844 
L 1081 -844 
L 1081 -397 
L 1831 -397 
L 1831 4416 
L 1081 4416 
L 1081 4863 
L 2406 4863 
z
" transform="scale(0.015625)"/>
      <path id="DejaVuSansMono-36" d="M 3097 4563 
L 3097 3981 
Q 2900 4097 2678 4158 
Q 2456 4219 2216 4219 
Q 1616 4219 1306 3767 
Q 997 3316 997 2438 
Q 1147 2750 1412 2917 
Q 1678 3084 2022 3084 
Q 2697 3084 3067 2670 
Q 3438 2256 3438 1497 
Q 3438 741 3056 325 
Q 2675 -91 1984 -91 
Q 1172 -91 794 492 
Q 416 1075 416 2328 
Q 416 3509 870 4129 
Q 1325 4750 2188 4750 
Q 2419 4750 2650 4701 
Q 2881 4653 3097 4563 
z
M 1972 2591 
Q 1569 2591 1337 2300 
Q 1106 2009 1106 1497 
Q 1106 984 1337 693 
Q 1569 403 1972 403 
Q 2391 403 2603 679 
Q 2816 956 2816 1497 
Q 2816 2041 2603 2316 
Q 2391 2591 1972 2591 
z
" transform="scale(0.015625)"/>
     </defs>
     <use xlink:href="#DejaVuSansMono-48"/>
     <use xlink:href="#DejaVuSansMono-32" transform="translate(60.205078 0)"/>
     <use xlink:href="#DejaVuSansMono-44" transform="translate(120.410156 0)"/>
     <use xlink:href="#DejaVuSansMono-28" transform="translate(180.615234 0)"/>
     <use xlink:href="#DejaVuSansMono-73" transform="translate(240.820312 0)"/>
     <use xlink:href="#DejaVuSansMono-72" transform="translate(301.025391 0)"/>
     <use xlink:href="#DejaVuSansMono-63" transform="translate(361.230469 0)"/>
     <use xlink:href="#DejaVuSansMono-3d" transform="translate(421.435547 0)"/>
     <use xlink:href="#DejaVuSansMono-43" transform="translate(481.640625 0)"/>
     <use xlink:href="#DejaVuSansMono-4d" transform="translate(541.845703 0)"/>
     <use xlink:href="#DejaVuSansMono-44" transform="translate(602.050781 0)"/>
     <use xlink:href="#DejaVuSansMono-5b" transform="translate(662.255859 0)"/>
     <use xlink:href="#DejaVuSansMono-33" transform="translate(722.460938 0)"/>
     <use xlink:href="#DejaVuSansMono-31" transform="translate(782.666016 0)"/>
     <use xlink:href="#DejaVuSansMono-3a" transform="translate(842.871094 0)"/>
     <use xlink:href="#DejaVuSansMono-30" transform="translate(903.076172 0)"/>
     <use xlink:href="#DejaVuSansMono-5d" transform="translate(963.28125 0)"/>
     <use xlink:href="#DejaVuSansMono-2c" transform="translate(1023.486328 0)"/>
     <use xlink:href="#DejaVuSansMono-73" transform="translate(1083.691406 0)"/>
     <use xlink:href="#DejaVuSansMono-7a" transform="translate(1143.896484 0)"/>
     <use xlink:href="#DejaVuSansMono-3d" transform="translate(1204.101562 0)"/>
     <use xlink:href="#DejaVuSansMono-43" transform="translate(1264.306641 0)"/>
     <use xlink:href="#DejaVuSansMono-4d" transform="translate(1324.511719 0)"/>
     <use xlink:href="#DejaVuSansMono-44" transform="translate(1384.716797 0)"/>
     <use xlink:href="#DejaVuSansMono-5b" transform="translate(1444.921875 0)"/>
     <use xlink:href="#DejaVuSansMono-36" transform="translate(1505.126953 0)"/>
     <use xlink:href="#DejaVuSansMono-33" transform="translate(1565.332031 0)"/>
     <use xlink:href="#DejaVuSansMono-3a" transform="translate(1625.537109 0)"/>
     <use xlink:href="#DejaVuSansMono-33" transform="translate(1685.742188 0)"/>
     <use xlink:href="#DejaVuSansMono-32" transform="translate(1745.947266 0)"/>
     <use xlink:href="#DejaVuSansMono-5d" transform="translate(1806.152344 0)"/>
     <use xlink:href="#DejaVuSansMono-29" transform="translate(1866.357422 0)"/>
    </g>
   </g>
   <g id="text_25">
    <!-- CMD[119:0] -->
    <g style="fill: #ff0000" transform="translate(7.2 194.188538) scale(0.08 -0.08)">
     <defs>
      <path id="DejaVuSansMono-39" d="M 1863 2069 
Q 2266 2069 2495 2359 
Q 2725 2650 2725 3163 
Q 2725 3675 2495 3965 
Q 2266 4256 1863 4256 
Q 1444 4256 1231 3979 
Q 1019 3703 1019 3163 
Q 1019 2619 1230 2344 
Q 1441 2069 1863 2069 
z
M 738 97 
L 738 678 
Q 934 563 1156 502 
Q 1378 441 1619 441 
Q 2219 441 2526 892 
Q 2834 1344 2834 2222 
Q 2688 1909 2422 1742 
Q 2156 1575 1813 1575 
Q 1138 1575 767 1990 
Q 397 2406 397 3169 
Q 397 3922 776 4336 
Q 1156 4750 1850 4750 
Q 2663 4750 3041 4165 
Q 3419 3581 3419 2328 
Q 3419 1150 2964 529 
Q 2509 -91 1644 -91 
Q 1416 -91 1184 -42 
Q 953 6 738 97 
z
" transform="scale(0.015625)"/>
     </defs>
     <use xlink:href="#DejaVuSansMono-43"/>
     <use xlink:href="#DejaVuSansMono-4d" transform="translate(60.205078 0)"/>
     <use xlink:href="#DejaVuSansMono-44" transform="translate(120.410156 0)"/>
     <use xlink:href="#DejaVuSansMono-5b" transform="translate(180.615234 0)"/>
     <use xlink:href="#DejaVuSansMono-31" transform="translate(240.820312 0)"/>
     <use xlink:href="#DejaVuSansMono-31" transform="translate(301.025391 0)"/>
     <use xlink:href="#DejaVuSansMono-39" transform="translate(361.230469 0)"/>
     <use xlink:href="#DejaVuSansMono-3a" transform="translate(421.435547 0)"/>
     <use xlink:href="#DejaVuSansMono-30" transform="translate(481.640625 0)"/>
     <use xlink:href="#DejaVuSansMono-5d" transform="translate(541.845703 0)"/>
    </g>
   </g>
   <g id="text_26">
    <!-- SCHED_TB/WARPS_DONE_ERR/KILL_ALL -->
    <g transform="translate(443.422497 312.650624) rotate(-90) scale(0.08 -0.08)">
     <defs>
      <path id="DejaVuSansMono-42" d="M 1153 2228 
L 1153 519 
L 1900 519 
Q 2450 519 2684 711 
Q 2919 903 2919 1344 
Q 2919 1800 2672 2014 
Q 2425 2228 1900 2228 
L 1153 2228 
z
M 1153 4147 
L 1153 2741 
L 1888 2741 
Q 2344 2741 2548 2916 
Q 2753 3091 2753 3481 
Q 2753 3834 2551 3990 
Q 2350 4147 1888 4147 
L 1153 4147 
z
M 519 4666 
L 1900 4666 
Q 2616 4666 3003 4356 
Q 3391 4047 3391 3481 
Q 3391 3053 3186 2806 
Q 2981 2559 2572 2497 
Q 3031 2428 3292 2104 
Q 3553 1781 3553 1281 
Q 3553 647 3137 323 
Q 2722 0 1900 0 
L 519 0 
L 519 4666 
z
" transform="scale(0.015625)"/>
      <path id="DejaVuSansMono-57" d="M 0 4666 
L 616 4666 
L 1063 878 
L 1594 3384 
L 2253 3384 
L 2791 872 
L 3238 4666 
L 3853 4666 
L 3156 0 
L 2559 0 
L 1925 2772 
L 1294 0 
L 697 0 
L 0 4666 
z
" transform="scale(0.015625)"/>
      <path id="DejaVuSansMono-4e" d="M 434 4666 
L 1234 4666 
L 2809 825 
L 2809 4666 
L 3419 4666 
L 3419 0 
L 2619 0 
L 1044 3841 
L 1044 0 
L 434 0 
L 434 4666 
z
" transform="scale(0.015625)"/>
     </defs>
     <use xlink:href="#DejaVuSansMono-53"/>
     <use xlink:href="#DejaVuSansMono-43" transform="translate(60.205078 0)"/>
     <use xlink:href="#DejaVuSansMono-48" transform="translate(120.410156 0)"/>
     <use xlink:href="#DejaVuSansMono-45" transform="translate(180.615234 0)"/>
     <use xlink:href="#DejaVuSansMono-44" transform="translate(240.820312 0)"/>
     <use xlink:href="#DejaVuSansMono-5f" transform="translate(301.025391 0)"/>
     <use xlink:href="#DejaVuSansMono-54" transform="translate(361.230469 0)"/>
     <use xlink:href="#DejaVuSansMono-42" transform="translate(421.435547 0)"/>
     <use xlink:href="#DejaVuSansMono-2f" transform="translate(481.640625 0)"/>
     <use xlink:href="#DejaVuSansMono-57" transform="translate(541.845703 0)"/>
     <use xlink:href="#DejaVuSansMono-41" transform="translate(602.050781 0)"/>
     <use xlink:href="#DejaVuSansMono-52" transform="translate(662.255859 0)"/>
     <use xlink:href="#DejaVuSansMono-50" transform="translate(722.460938 0)"/>
     <use xlink:href="#DejaVuSansMono-53" transform="translate(782.666016 0)"/>
     <use xlink:href="#DejaVuSansMono-5f" transform="translate(842.871094 0)"/>
     <use xlink:href="#DejaVuSansMono-44" transform="translate(903.076172 0)"/>
     <use xlink:href="#DejaVuSansMono-4f" transform="translate(963.28125 0)"/>
     <use xlink:href="#DejaVuSansMono-4e" transform="translate(1023.486328 0)"/>
     <use xlink:href="#DejaVuSansMono-45" transform="translate(1083.691406 0)"/>
     <use xlink:href="#DejaVuSansMono-5f" transform="translate(1143.896484 0)"/>
     <use xlink:href="#DejaVuSansMono-45" transform="translate(1204.101562 0)"/>
     <use xlink:href="#DejaVuSansMono-52" transform="translate(1264.306641 0)"/>
     <use xlink:href="#DejaVuSansMono-52" transform="translate(1324.511719 0)"/>
     <use xlink:href="#DejaVuSansMono-2f" transform="translate(1384.716797 0)"/>
     <use xlink:href="#DejaVuSansMono-4b" transform="translate(1444.921875 0)"/>
     <use xlink:href="#DejaVuSansMono-49" transform="translate(1505.126953 0)"/>
     <use xlink:href="#DejaVuSansMono-4c" transform="translate(1565.332031 0)"/>
     <use xlink:href="#DejaVuSansMono-4c" transform="translate(1625.537109 0)"/>
     <use xlink:href="#DejaVuSansMono-5f" transform="translate(1685.742188 0)"/>
     <use xlink:href="#DejaVuSansMono-41" transform="translate(1745.947266 0)"/>
     <use xlink:href="#DejaVuSansMono-4c" transform="translate(1806.152344 0)"/>
     <use xlink:href="#DejaVuSansMono-4c" transform="translate(1866.357422 0)"/>
    </g>
   </g>
   <g id="text_27">
    <!-- WARP_SCHED -->
    <g style="fill: #ff0000" transform="translate(661.04005 131.805654) scale(0.08 -0.08)">
     <use xlink:href="#DejaVuSansMono-57"/>
     <use xlink:href="#DejaVuSansMono-41" transform="translate(60.205078 0)"/>
     <use xlink:href="#DejaVuSansMono-52" transform="translate(120.410156 0)"/>
     <use xlink:href="#DejaVuSansMono-50" transform="translate(180.615234 0)"/>
     <use xlink:href="#DejaVuSansMono-5f" transform="translate(240.820312 0)"/>
     <use xlink:href="#DejaVuSansMono-53" transform="translate(301.025391 0)"/>
     <use xlink:href="#DejaVuSansMono-43" transform="translate(361.230469 0)"/>
     <use xlink:href="#DejaVuSansMono-48" transform="translate(421.435547 0)"/>
     <use xlink:href="#DejaVuSansMono-45" transform="translate(481.640625 0)"/>
     <use xlink:href="#DejaVuSansMono-44" transform="translate(541.845703 0)"/>
    </g>
   </g>
   <g id="text_28">
    <!-- WARP_SCHED -->
    <g style="fill: #ff0000" transform="translate(661.04005 318.084054) scale(0.08 -0.08)">
     <use xlink:href="#DejaVuSansMono-57"/>
     <use xlink:href="#DejaVuSansMono-41" transform="translate(60.205078 0)"/>
     <use xlink:href="#DejaVuSansMono-52" transform="translate(120.410156 0)"/>
     <use xlink:href="#DejaVuSansMono-50" transform="translate(180.615234 0)"/>
     <use xlink:href="#DejaVuSansMono-5f" transform="translate(240.820312 0)"/>
     <use xlink:href="#DejaVuSansMono-53" transform="translate(301.025391 0)"/>
     <use xlink:href="#DejaVuSansMono-43" transform="translate(361.230469 0)"/>
     <use xlink:href="#DejaVuSansMono-48" transform="translate(421.435547 0)"/>
     <use xlink:href="#DejaVuSansMono-45" transform="translate(481.640625 0)"/>
     <use xlink:href="#DejaVuSansMono-44" transform="translate(541.845703 0)"/>
    </g>
   </g>
   <g id="text_29">
    <!-- DRAM/L2 -->
    <g style="fill: #ff0000" transform="translate(21.64875 324.931137) scale(0.08 -0.08)">
     <use xlink:href="#DejaVuSansMono-44"/>
     <use xlink:href="#DejaVuSansMono-52" transform="translate(60.205078 0)"/>
     <use xlink:href="#DejaVuSansMono-41" transform="translate(120.410156 0)"/>
     <use xlink:href="#DejaVuSansMono-4d" transform="translate(180.615234 0)"/>
     <use xlink:href="#DejaVuSansMono-2f" transform="translate(240.820312 0)"/>
     <use xlink:href="#DejaVuSansMono-4c" transform="translate(301.025391 0)"/>
     <use xlink:href="#DejaVuSansMono-32" transform="translate(361.230469 0)"/>
    </g>
   </g>
   <g id="text_30">
    <!-- AMOSWAP(LOCK, 1) -->
    <g style="fill: #ff0000" transform="translate(120.613804 314.385837) scale(0.08 -0.08)">
     <use xlink:href="#DejaVuSansMono-41"/>
     <use xlink:href="#DejaVuSansMono-4d" transform="translate(60.205078 0)"/>
     <use xlink:href="#DejaVuSansMono-4f" transform="translate(120.410156 0)"/>
     <use xlink:href="#DejaVuSansMono-53" transform="translate(180.615234 0)"/>
     <use xlink:href="#DejaVuSansMono-57" transform="translate(240.820312 0)"/>
     <use xlink:href="#DejaVuSansMono-41" transform="translate(301.025391 0)"/>
     <use xlink:href="#DejaVuSansMono-50" transform="translate(361.230469 0)"/>
     <use xlink:href="#DejaVuSansMono-28" transform="translate(421.435547 0)"/>
     <use xlink:href="#DejaVuSansMono-4c" transform="translate(481.640625 0)"/>
     <use xlink:href="#DejaVuSansMono-4f" transform="translate(541.845703 0)"/>
     <use xlink:href="#DejaVuSansMono-43" transform="translate(602.050781 0)"/>
     <use xlink:href="#DejaVuSansMono-4b" transform="translate(662.255859 0)"/>
     <use xlink:href="#DejaVuSansMono-2c" transform="translate(722.460938 0)"/>
     <use xlink:href="#DejaVuSansMono-20" transform="translate(782.666016 0)"/>
     <use xlink:href="#DejaVuSansMono-31" transform="translate(842.871094 0)"/>
     <use xlink:href="#DejaVuSansMono-29" transform="translate(903.076172 0)"/>
    </g>
   </g>
   <g id="text_31">
    <!-- ST TAIL, HEAD / ST LOCK, 0 -->
    <g style="fill: #ff0000" transform="translate(120.011773 333.180968) scale(0.05 -0.05)">
     <use xlink:href="#DejaVuSansMono-53"/>
     <use xlink:href="#DejaVuSansMono-54" transform="translate(60.205078 0)"/>
     <use xlink:href="#DejaVuSansMono-20" transform="translate(120.410156 0)"/>
     <use xlink:href="#DejaVuSansMono-54" transform="translate(180.615234 0)"/>
     <use xlink:href="#DejaVuSansMono-41" transform="translate(240.820312 0)"/>
     <use xlink:href="#DejaVuSansMono-49" transform="translate(301.025391 0)"/>
     <use xlink:href="#DejaVuSansMono-4c" transform="translate(361.230469 0)"/>
     <use xlink:href="#DejaVuSansMono-2c" transform="translate(421.435547 0)"/>
     <use xlink:href="#DejaVuSansMono-20" transform="translate(481.640625 0)"/>
     <use xlink:href="#DejaVuSansMono-48" transform="translate(541.845703 0)"/>
     <use xlink:href="#DejaVuSansMono-45" transform="translate(602.050781 0)"/>
     <use xlink:href="#DejaVuSansMono-41" transform="translate(662.255859 0)"/>
     <use xlink:href="#DejaVuSansMono-44" transform="translate(722.460938 0)"/>
     <use xlink:href="#DejaVuSansMono-20" transform="translate(782.666016 0)"/>
     <use xlink:href="#DejaVuSansMono-2f" transform="translate(842.871094 0)"/>
     <use xlink:href="#DejaVuSansMono-20" transform="translate(903.076172 0)"/>
     <use xlink:href="#DejaVuSansMono-53" transform="translate(963.28125 0)"/>
     <use xlink:href="#DejaVuSansMono-54" transform="translate(1023.486328 0)"/>
     <use xlink:href="#DejaVuSansMono-20" transform="translate(1083.691406 0)"/>
     <use xlink:href="#DejaVuSansMono-4c" transform="translate(1143.896484 0)"/>
     <use xlink:href="#DejaVuSansMono-4f" transform="translate(1204.101562 0)"/>
     <use xlink:href="#DejaVuSansMono-43" transform="translate(1264.306641 0)"/>
     <use xlink:href="#DejaVuSansMono-4b" transform="translate(1324.511719 0)"/>
     <use xlink:href="#DejaVuSansMono-2c" transform="translate(1384.716797 0)"/>
     <use xlink:href="#DejaVuSansMono-20" transform="translate(1444.921875 0)"/>
     <use xlink:href="#DejaVuSansMono-30" transform="translate(1505.126953 0)"/>
    </g>
   </g>
   <g id="text_32">
    <!-- read kernel block -->
    <g style="fill: #ff0000" transform="translate(128.508145 266.574381) scale(0.08 -0.08)">
     <defs>
      <path id="DejaVuSansMono-6b" d="M 738 4863 
L 1331 4863 
L 1331 2047 
L 2841 3500 
L 3541 3500 
L 2163 2181 
L 3756 0 
L 3053 0 
L 1759 1806 
L 1331 1403 
L 1331 0 
L 738 0 
L 738 4863 
z
" transform="scale(0.015625)"/>
     </defs>
     <use xlink:href="#DejaVuSansMono-72"/>
     <use xlink:href="#DejaVuSansMono-65" transform="translate(60.205078 0)"/>
     <use xlink:href="#DejaVuSansMono-61" transform="translate(120.410156 0)"/>
     <use xlink:href="#DejaVuSansMono-64" transform="translate(180.615234 0)"/>
     <use xlink:href="#DejaVuSansMono-20" transform="translate(240.820312 0)"/>
     <use xlink:href="#DejaVuSansMono-6b" transform="translate(301.025391 0)"/>
     <use xlink:href="#DejaVuSansMono-65" transform="translate(361.230469 0)"/>
     <use xlink:href="#DejaVuSansMono-72" transform="translate(421.435547 0)"/>
     <use xlink:href="#DejaVuSansMono-6e" transform="translate(481.640625 0)"/>
     <use xlink:href="#DejaVuSansMono-65" transform="translate(541.845703 0)"/>
     <use xlink:href="#DejaVuSansMono-6c" transform="translate(602.050781 0)"/>
     <use xlink:href="#DejaVuSansMono-20" transform="translate(662.255859 0)"/>
     <use xlink:href="#DejaVuSansMono-62" transform="translate(722.460938 0)"/>
     <use xlink:href="#DejaVuSansMono-6c" transform="translate(782.666016 0)"/>
     <use xlink:href="#DejaVuSansMono-6f" transform="translate(842.871094 0)"/>
     <use xlink:href="#DejaVuSansMono-63" transform="translate(903.076172 0)"/>
     <use xlink:href="#DejaVuSansMono-6b" transform="translate(963.28125 0)"/>
    </g>
   </g>
   <g id="text_33">
    <!-- DRAM -->
    <g style="fill: #ff0000" transform="translate(36.0975 271.353921) scale(0.08 -0.08)">
     <use xlink:href="#DejaVuSansMono-44"/>
     <use xlink:href="#DejaVuSansMono-52" transform="translate(60.205078 0)"/>
     <use xlink:href="#DejaVuSansMono-41" transform="translate(120.410156 0)"/>
     <use xlink:href="#DejaVuSansMono-4d" transform="translate(180.615234 0)"/>
    </g>
   </g>
   <g id="text_34">
    <!-- CMD_ID, ERR_CODE, ERR_PC, ERR_THREAD -->
    <g style="fill: #ff0000" transform="translate(263.331742 428.570887) scale(0.09 -0.09)">
     <use xlink:href="#DejaVuSansMono-43"/>
     <use xlink:href="#DejaVuSansMono-4d" transform="translate(60.205078 0)"/>
     <use xlink:href="#DejaVuSansMono-44" transform="translate(120.410156 0)"/>
     <use xlink:href="#DejaVuSansMono-5f" transform="translate(180.615234 0)"/>
     <use xlink:href="#DejaVuSansMono-49" transform="translate(240.820312 0)"/>
     <use xlink:href="#DejaVuSansMono-44" transform="translate(301.025391 0)"/>
     <use xlink:href="#DejaVuSansMono-2c" transform="translate(361.230469 0)"/>
     <use xlink:href="#DejaVuSansMono-20" transform="translate(421.435547 0)"/>
     <use xlink:href="#DejaVuSansMono-45" transform="translate(481.640625 0)"/>
     <use xlink:href="#DejaVuSansMono-52" transform="translate(541.845703 0)"/>
     <use xlink:href="#DejaVuSansMono-52" transform="translate(602.050781 0)"/>
     <use xlink:href="#DejaVuSansMono-5f" transform="translate(662.255859 0)"/>
     <use xlink:href="#DejaVuSansMono-43" transform="translate(722.460938 0)"/>
     <use xlink:href="#DejaVuSansMono-4f" transform="translate(782.666016 0)"/>
     <use xlink:href="#DejaVuSansMono-44" transform="translate(842.871094 0)"/>
     <use xlink:href="#DejaVuSansMono-45" transform="translate(903.076172 0)"/>
     <use xlink:href="#DejaVuSansMono-2c" transform="translate(963.28125 0)"/>
     <use xlink:href="#DejaVuSansMono-20" transform="translate(1023.486328 0)"/>
     <use xlink:href="#DejaVuSansMono-45" transform="translate(1083.691406 0)"/>
     <use xlink:href="#DejaVuSansMono-52" transform="translate(1143.896484 0)"/>
     <use xlink:href="#DejaVuSansMono-52" transform="translate(1204.101562 0)"/>
     <use xlink:href="#DejaVuSansMono-5f" transform="translate(1264.306641 0)"/>
     <use xlink:href="#DejaVuSansMono-50" transform="translate(1324.511719 0)"/>
     <use xlink:href="#DejaVuSansMono-43" transform="translate(1384.716797 0)"/>
     <use xlink:href="#DejaVuSansMono-2c" transform="translate(1444.921875 0)"/>
     <use xlink:href="#DejaVuSansMono-20" transform="translate(1505.126953 0)"/>
     <use xlink:href="#DejaVuSansMono-45" transform="translate(1565.332031 0)"/>
     <use xlink:href="#DejaVuSansMono-52" transform="translate(1625.537109 0)"/>
     <use xlink:href="#DejaVuSansMono-52" transform="translate(1685.742188 0)"/>
     <use xlink:href="#DejaVuSansMono-5f" transform="translate(1745.947266 0)"/>
     <use xlink:href="#DejaVuSansMono-54" transform="translate(1806.152344 0)"/>
     <use xlink:href="#DejaVuSansMono-48" transform="translate(1866.357422 0)"/>
     <use xlink:href="#DejaVuSansMono-52" transform="translate(1926.5625 0)"/>
     <use xlink:href="#DejaVuSansMono-45" transform="translate(1986.767578 0)"/>
     <use xlink:href="#DejaVuSansMono-41" transform="translate(2046.972656 0)"/>
     <use xlink:href="#DejaVuSansMono-44" transform="translate(2107.177734 0)"/>
    </g>
   </g>
  </g>
 </g>
 <defs>
  <clipPath id="pb6b4fed134">
   <rect x="62.0585" y="7.2" width="669.6" height="443.52"/>
  </clipPath>
 </defs>
</svg>
