<?xml version="1.0" encoding="utf-8" standalone="no"?>
<!DOCTYPE svg PUBLIC "-//W3C//DTD SVG 1.1//EN"
  "http://www.w3.org/Graphics/SVG/1.1/DTD/svg11.dtd">
<svg xmlns:xlink="http://www.w3.org/1999/xlink" width="734.728354pt" height="407.19911pt" viewBox="0 0 734.728354 407.19911" xmlns="http://www.w3.org/2000/svg" version="1.1">
 <metadata>
  <rdf:RDF xmlns:dc="http://purl.org/dc/elements/1.1/" xmlns:cc="http://creativecommons.org/ns#" xmlns:rdf="http://www.w3.org/1999/02/22-rdf-syntax-ns#">
   <cc:Work>
    <dc:type rdf:resource="http://purl.org/dc/dcmitype/StillImage"/>
    <dc:date>2025-09-15T22:06:27.388338</dc:date>
    <dc:format>image/svg+xml</dc:format>
    <dc:creator>
     <cc:Agent>
      <dc:title>Matplotlib v3.10.1, https://matplotlib.org/</dc:title>
     </cc:Agent>
    </dc:creator>
   </cc:Work>
  </rdf:RDF>
 </metadata>
 <defs>
  <style type="text/css">*{stroke-linejoin: round; stroke-linecap: butt}</style>
 </defs>
 <g id="figure_1">
  <g id="patch_1">
   <path d="M 0 407.19911 
L 734.728354 407.19911 
L 734.728354 0 
L 0 0 
L 0 407.19911 
z
" style="fill: none; opacity: 0"/>
  </g>
  <g id="axes_1">
   <g id="patch_2">
    <path d="M 124.888354 304.0812 
L 473.080354 304.0812 
Q 476.428354 304.0812 476.428354 302.1408 
L 476.428354 115.8624 
Q 476.428354 113.922 473.080354 113.922 
L 124.888354 113.922 
Q 121.540354 113.922 121.540354 115.8624 
L 121.540354 302.1408 
Q 121.540354 304.0812 124.888354 304.0812 
z
" clip-path="url(#p9949e3973f)" style="fill: #ffffff; stroke-dasharray: 6.29,2.72; stroke-dashoffset: 0; stroke: #94a3b8; stroke-width: 1.7; stroke-linejoin: miter"/>
   </g>
   <g id="patch_3">
    <path d="M 312.376354 166.623264 
L 390.049954 166.623264 
L 390.049954 128.436192 
L 312.376354 128.436192 
z
" clip-path="url(#p9949e3973f)" style="fill: #ffffff; stroke: #94a3b8; stroke-width: 1.15; stroke-linejoin: miter"/>
   </g>
   <g id="patch_4">
    <path d="M 168.016 242.680735 
C 175.759922 242.680735 183.187715 240.702286 188.663494 237.181119 
C 194.139273 233.659952 197.215966 228.883554 197.215966 223.903872 
C 197.215966 218.92419 194.139273 214.147792 188.663494 210.626625 
C 183.187715 207.105458 175.759922 205.127009 168.016 205.127009 
C 160.272078 205.127009 152.844285 207.105458 147.368506 210.626625 
C 141.892727 214.147792 138.816034 218.92419 138.816034 223.903872 
C 138.816034 228.883554 141.892727 233.659952 147.368506 237.181119 
C 152.844285 240.702286 160.272078 242.680735 168.016 242.680735 
z
" clip-path="url(#p9949e3973f)" style="fill: #ffffff; stroke: #94a3b8; stroke-width: 1.15; stroke-linejoin: miter"/>
   </g>
   <g id="patch_5">
    <path d="M 251.40219 242.680735 
C 259.146112 242.680735 266.573905 240.702286 272.049684 237.181119 
C 277.525464 233.659952 280.602156 228.883554 280.602156 223.903872 
C 280.602156 218.92419 277.525464 214.147792 272.049684 210.626625 
C 266.573905 207.105458 259.146112 205.127009 251.40219 205.127009 
C 243.658269 205.127009 236.230475 207.105458 230.754696 210.626625 
C 225.278917 214.147792 222.202224 218.92419 222.202224 223.903872 
C 222.202224 228.883554 225.278917 233.659952 230.754696 237.181119 
C 236.230475 240.702286 243.658269 242.680735 251.40219 242.680735 
z
" clip-path="url(#p9949e3973f)" style="fill: #ffffff; stroke: #94a3b8; stroke-width: 1.15; stroke-linejoin: miter"/>
   </g>
   <g id="patch_6">
    <path d="M 334.78838 242.680735 
C 342.532302 242.680735 349.960095 240.702286 355.435874 237.181119 
C 360.911654 233.659952 363.988346 228.883554 363.988346 223.903872 
C 363.988346 218.92419 360.911654 214.147792 355.435874 210.626625 
C 349.960095 207.105458 342.532302 205.127009 334.78838 205.127009 
C 327.044459 205.127009 319.616666 207.105458 314.140886 210.626625 
C 308.665107 214.147792 305.588414 218.92419 305.588414 223.903872 
C 305.588414 228.883554 308.665107 233.659952 314.140886 237.181119 
C 319.616666 240.702286 327.044459 242.680735 334.78838 242.680735 
z
" clip-path="url(#p9949e3973f)" style="fill: #ffffff; stroke: #94a3b8; stroke-width: 1.15; stroke-linejoin: miter"/>
   </g>
   <g id="patch_7">
    <path d="M 418.17457 242.680735 
C 425.918492 242.680735 433.346285 240.702286 438.822064 237.181119 
C 444.297844 233.659952 447.374536 228.883554 447.374536 223.903872 
C 447.374536 218.92419 444.297844 214.147792 438.822064 210.626625 
C 433.346285 207.105458 425.918492 205.127009 418.17457 205.127009 
C 410.430649 205.127009 403.002856 207.105458 397.527076 210.626625 
C 392.051297 214.147792 388.974604 218.92419 388.974604 223.903872 
C 388.974604 228.883554 392.051297 233.659952 397.527076 237.181119 
C 403.002856 240.702286 410.430649 242.680735 418.17457 242.680735 
z
" clip-path="url(#p9949e3973f)" style="fill: #ffffff; stroke: #94a3b8; stroke-width: 1.15; stroke-linejoin: miter"/>
   </g>
   <g id="patch_8">
    <path d="M 200.555582 223.903872 
Q 210.37875 223.903872 218.748474 223.903872 
" clip-path="url(#p9949e3973f)" style="fill: none; stroke: #000000; stroke-width: 1.3; stroke-linecap: round"/>
    <path d="M 213.148474 221.103872 
L 218.748474 223.903872 
L 213.148474 226.703872 
z
" clip-path="url(#p9949e3973f)" style="stroke: #000000; stroke-width: 1.3; stroke-linecap: round"/>
   </g>
   <g id="patch_9">
    <path d="M 282.599959 223.903872 
Q 293.093773 223.903872 302.134144 223.903872 
" clip-path="url(#p9949e3973f)" style="fill: none; stroke: #000000; stroke-width: 1.3; stroke-linecap: round"/>
    <path d="M 296.534144 221.103872 
L 302.134144 223.903872 
L 296.534144 226.703872 
z
" clip-path="url(#p9949e3973f)" style="stroke: #000000; stroke-width: 1.3; stroke-linecap: round"/>
   </g>
   <g id="patch_10">
    <path d="M 365.986149 223.903872 
Q 376.479963 223.903872 385.520334 223.903872 
" clip-path="url(#p9949e3973f)" style="fill: none; stroke: #000000; stroke-width: 1.3; stroke-linecap: round"/>
    <path d="M 379.920334 221.103872 
L 385.520334 223.903872 
L 379.920334 226.703872 
z
" clip-path="url(#p9949e3973f)" style="stroke: #000000; stroke-width: 1.3; stroke-linecap: round"/>
   </g>
   <g id="patch_11">
    <path d="M 334.78838 192.358743 
Q 334.78838 197.743796 334.78838 201.78721 
" clip-path="url(#p9949e3973f)" style="fill: none; stroke: #000000; stroke-width: 1.2; stroke-linecap: round"/>
    <path d="M 337.18838 196.98721 
L 334.78838 201.78721 
L 332.38838 196.98721 
z
" clip-path="url(#p9949e3973f)" style="stroke: #000000; stroke-width: 1.2; stroke-linecap: round"/>
   </g>
   <g id="patch_12">
    <path d="M 553.432354 264.88512 
L 714.136354 264.88512 
Q 716.814754 264.88512 716.814754 263.3328 
L 716.814754 154.6704 
Q 716.814754 153.11808 714.136354 153.11808 
L 553.432354 153.11808 
Q 550.753954 153.11808 550.753954 154.6704 
L 550.753954 263.3328 
Q 550.753954 264.88512 553.432354 264.88512 
z
" clip-path="url(#p9949e3973f)" style="fill: #ffffff; stroke-dasharray: 6.29,2.72; stroke-dashoffset: 0; stroke: #94a3b8; stroke-width: 1.7; stroke-linejoin: miter"/>
   </g>
   <g id="patch_13">
    <path d="M 559.056994 202.637088 
L 708.511714 202.637088 
L 708.511714 163.20816 
L 559.056994 163.20816 
z
" clip-path="url(#p9949e3973f)" style="fill: #ffffff; stroke: #94a3b8; stroke-width: 1.15; stroke-linejoin: miter"/>
   </g>
   <g id="patch_14">
    <path d="M 559.056994 252.621792 
L 708.511714 252.621792 
L 708.511714 213.192864 
L 559.056994 213.192864 
z
" clip-path="url(#p9949e3973f)" style="fill: #ffffff; stroke: #94a3b8; stroke-width: 1.15; stroke-linejoin: miter"/>
   </g>
   <g id="patch_15">
    <path d="M 633.784354 77.0544 
Q 633.784354 114.86046 633.784354 151.101273 
" clip-path="url(#p9949e3973f)" style="fill: none; stroke: #000000; stroke-width: 1.4; stroke-linecap: round"/>
    <path d="M 636.984354 144.701273 
L 633.784354 151.101273 
L 630.584354 144.701273 
z
" clip-path="url(#p9949e3973f)" style="stroke: #000000; stroke-width: 1.4; stroke-linecap: round"/>
   </g>
   <g id="patch_16">
    <path d="M 168.016 315.7236 
Q 168.016 280.203029 168.016 246.247706 
" clip-path="url(#p9949e3973f)" style="fill: none; stroke: #000000; stroke-width: 1.4; stroke-linecap: round"/>
    <path d="M 164.816 252.647706 
L 168.016 246.247706 
L 171.216 252.647706 
z
" clip-path="url(#p9949e3973f)" style="stroke: #000000; stroke-width: 1.4; stroke-linecap: round"/>
   </g>
   <g id="patch_17">
    <path d="M 334.78838 273.0348 
Q 334.78838 258.856354 334.78838 246.243155 
" clip-path="url(#p9949e3973f)" style="fill: none; stroke: #000000; stroke-width: 1.4; stroke-linecap: round"/>
    <path d="M 331.58838 252.643155 
L 334.78838 246.243155 
L 337.98838 252.643155 
z
" clip-path="url(#p9949e3973f)" style="stroke: #000000; stroke-width: 1.4; stroke-linecap: round"/>
   </g>
   <g id="patch_18">
    <path d="M 617.713954 147.529728 
Q 502.871842 147.529728 389.594979 147.529728 
" clip-path="url(#p9949e3973f)" style="fill: none; stroke: #000000; stroke-width: 1.4; stroke-linecap: round"/>
    <path d="M 395.994979 150.729728 
L 389.594979 147.529728 
L 395.994979 144.329728 
z
" clip-path="url(#p9949e3973f)" style="stroke: #000000; stroke-width: 1.4; stroke-linecap: round"/>
   </g>
   <g id="patch_19">
    <path d="M 267.210156 147.529728 
Q 290.800908 147.529728 312.826412 147.529728 
" clip-path="url(#p9949e3973f)" style="fill: none; stroke: #000000; stroke-width: 1.4; stroke-linecap: round"/>
    <path d="M 306.426412 144.329728 
L 312.826412 147.529728 
L 306.426412 150.729728 
z
" clip-path="url(#p9949e3973f)" style="stroke: #000000; stroke-width: 1.4; stroke-linecap: round"/>
   </g>
   <g id="patch_20">
    <path d="M 168.016 92.5776 
Q 168.016 147.851079 168.016 201.335704 
" clip-path="url(#p9949e3973f)" style="fill: none; stroke: #ff0000; stroke-width: 1.6; stroke-linecap: round"/>
    <path d="M 171.216 194.935704 
L 168.016 201.335704 
L 164.816 194.935704 
z
" clip-path="url(#p9949e3973f)" style="fill: #ff0000; stroke: #ff0000; stroke-width: 1.6; stroke-linecap: round"/>
   </g>
   <g id="patch_21">
    <path d="M 418.17457 243.125373 
Q 418.17457 314.323808 418.17457 383.956996 
" clip-path="url(#p9949e3973f)" style="fill: none; stroke: #ff0000; stroke-width: 1.4; stroke-linecap: round"/>
    <path d="M 421.37457 377.556996 
L 418.17457 383.956996 
L 414.97457 377.556996 
z
" clip-path="url(#p9949e3973f)" style="fill: #ff0000; stroke: #ff0000; stroke-width: 1.4; stroke-linecap: round"/>
   </g>
   <g id="patch_22">
    <path d="M 71.320354 209.0016 
Q 97.105512 209.0016 121.101816 209.0016 
" clip-path="url(#p9949e3973f)" style="fill: none; stroke: #ff0000; stroke-width: 1.6; stroke-linecap: round"/>
    <path d="M 114.701816 205.8016 
L 121.101816 209.0016 
L 114.701816 212.2016 
z
" clip-path="url(#p9949e3973f)" style="fill: #ff0000; stroke: #ff0000; stroke-width: 1.6; stroke-linecap: round"/>
   </g>
   <g id="patch_23">
    <path d="M 478.425833 209.0016 
Q 514.928793 209.0016 549.866505 209.0016 
" clip-path="url(#p9949e3973f)" style="fill: none; stroke: #000000; stroke-width: 1.4; stroke-linecap: round"/>
    <path d="M 543.466505 205.8016 
L 549.866505 209.0016 
L 543.466505 212.2016 
z
" clip-path="url(#p9949e3973f)" style="stroke: #000000; stroke-width: 1.4; stroke-linecap: round"/>
   </g>
   <g id="line2d_1">
    <path d="M 376.481475 223.903872 
L 376.481475 192.358743 
" clip-path="url(#p9949e3973f)" style="fill: none; stroke: #000000; stroke-width: 1.2; stroke-linecap: round"/>
   </g>
   <g id="line2d_2">
    <path d="M 376.481475 192.358743 
L 334.78838 192.358743 
" clip-path="url(#p9949e3973f)" style="fill: none; stroke: #000000; stroke-width: 1.2; stroke-linecap: round"/>
   </g>
   <g id="line2d_3">
    <path d="M 251.40219 205.127009 
L 251.40219 77.0544 
" clip-path="url(#p9949e3973f)" style="fill: none; stroke: #000000; stroke-width: 1.3; stroke-linecap: round"/>
   </g>
   <g id="line2d_4">
    <path d="M 251.40219 77.0544 
L 633.784354 77.0544 
" clip-path="url(#p9949e3973f)" style="fill: none; stroke: #000000; stroke-width: 1.3; stroke-linecap: round"/>
   </g>
   <g id="line2d_5">
    <path d="M 633.784354 265.2732 
L 633.784354 315.7236 
" clip-path="url(#p9949e3973f)" style="fill: none; stroke: #000000; stroke-width: 1.2; stroke-linecap: round"/>
   </g>
   <g id="line2d_6">
    <path d="M 633.784354 315.7236 
L 168.016 315.7236 
" clip-path="url(#p9949e3973f)" style="fill: none; stroke: #000000; stroke-width: 1.2; stroke-linecap: round"/>
   </g>
   <g id="line2d_7">
    <path d="M 633.784354 265.2732 
L 633.784354 273.0348 
" clip-path="url(#p9949e3973f)" style="fill: none; stroke: #000000; stroke-width: 1.2; stroke-linecap: round"/>
   </g>
   <g id="line2d_8">
    <path d="M 633.784354 273.0348 
L 334.78838 273.0348 
" clip-path="url(#p9949e3973f)" style="fill: none; stroke: #000000; stroke-width: 1.2; stroke-linecap: round"/>
   </g>
   <g id="line2d_9">
    <path d="M 617.713954 152.73 
L 617.713954 147.529728 
" clip-path="url(#p9949e3973f)" style="fill: none; stroke: #000000; stroke-width: 1.3; stroke-linecap: round"/>
   </g>
   <g id="line2d_10">
    <path d="M 267.210156 207.067409 
L 267.210156 147.529728 
" clip-path="url(#p9949e3973f)" style="fill: none; stroke: #000000; stroke-width: 1.3; stroke-linecap: round"/>
   </g>
   <g id="line2d_11">
    <path d="M 71.320354 92.5776 
L 168.016 92.5776 
" clip-path="url(#p9949e3973f)" style="fill: none; stroke: #ff0000; stroke-width: 1.4; stroke-linecap: round"/>
   </g>
   <g id="text_1">
    <!-- LCP FSM -->
    <g style="fill: #334155" transform="translate(415.545889 128.769843) scale(0.12 -0.12)">
     <defs>
      <path id="DejaVuSansMono-4c" d="M 672 4666 
L 1306 4666 
L 1306 531 
L 3559 531 
L 3559 0 
L 672 0 
L 672 4666 
z
" transform="scale(0.015625)"/>
      <path id="DejaVuSansMono-43" d="M 3353 166 
Q 3113 38 2859 -26 
Q 2606 -91 2322 -91 
Q 1425 -91 929 543 
Q 434 1178 434 2328 
Q 434 3472 932 4111 
Q 1431 4750 2322 4750 
Q 2606 4750 2859 4686 
Q 3113 4622 3353 4494 
L 3353 3847 
Q 3122 4038 2856 4138 
Q 2591 4238 2322 4238 
Q 1706 4238 1400 3763 
Q 1094 3288 1094 2328 
Q 1094 1372 1400 897 
Q 1706 422 2322 422 
Q 2597 422 2861 522 
Q 3125 622 3353 813 
L 3353 166 
z
" transform="scale(0.015625)"/>
      <path id="DejaVuSansMono-50" d="M 1247 4147 
L 1247 2394 
L 1978 2394 
Q 2416 2394 2661 2625 
Q 2906 2856 2906 3272 
Q 2906 3688 2662 3917 
Q 2419 4147 1978 4147 
L 1247 4147 
z
M 616 4666 
L 1978 4666 
Q 2759 4666 3162 4311 
Q 3566 3956 3566 3272 
Q 3566 2581 3164 2228 
Q 2763 1875 1978 1875 
L 1247 1875 
L 1247 0 
L 616 0 
L 616 4666 
z
" transform="scale(0.015625)"/>
      <path id="DejaVuSansMono-20" transform="scale(0.015625)"/>
      <path id="DejaVuSansMono-46" d="M 728 4666 
L 3475 4666 
L 3475 4134 
L 1363 4134 
L 1363 2759 
L 3278 2759 
L 3278 2228 
L 1363 2228 
L 1363 0 
L 728 0 
L 728 4666 
z
" transform="scale(0.015625)"/>
      <path id="DejaVuSansMono-53" d="M 3163 4506 
L 3163 3866 
Q 2875 4050 2586 4144 
Q 2297 4238 2003 4238 
Q 1556 4238 1297 4030 
Q 1038 3822 1038 3469 
Q 1038 3159 1208 2996 
Q 1378 2834 1844 2725 
L 2175 2650 
Q 2831 2497 3131 2169 
Q 3431 1841 3431 1275 
Q 3431 609 3018 259 
Q 2606 -91 1819 -91 
Q 1491 -91 1159 -20 
Q 828 50 494 191 
L 494 863 
Q 853 634 1173 528 
Q 1494 422 1819 422 
Q 2297 422 2562 636 
Q 2828 850 2828 1234 
Q 2828 1584 2645 1768 
Q 2463 1953 2009 2053 
L 1672 2131 
Q 1022 2278 728 2575 
Q 434 2872 434 3372 
Q 434 3997 854 4373 
Q 1275 4750 1972 4750 
Q 2241 4750 2537 4689 
Q 2834 4628 3163 4506 
z
" transform="scale(0.015625)"/>
      <path id="DejaVuSansMono-4d" d="M 269 4666 
L 1113 4666 
L 1919 2291 
L 2731 4666 
L 3578 4666 
L 3578 0 
L 2994 0 
L 2994 4122 
L 2163 1663 
L 1684 1663 
L 850 4122 
L 850 0 
L 269 0 
L 269 4666 
z
" transform="scale(0.015625)"/>
     </defs>
     <use xlink:href="#DejaVuSansMono-4c"/>
     <use xlink:href="#DejaVuSansMono-43" transform="translate(60.205078 0)"/>
     <use xlink:href="#DejaVuSansMono-50" transform="translate(120.410156 0)"/>
     <use xlink:href="#DejaVuSansMono-20" transform="translate(180.615234 0)"/>
     <use xlink:href="#DejaVuSansMono-46" transform="translate(240.820312 0)"/>
     <use xlink:href="#DejaVuSansMono-53" transform="translate(301.025391 0)"/>
     <use xlink:href="#DejaVuSansMono-4d" transform="translate(361.230469 0)"/>
    </g>
   </g>
   <g id="text_2">
    <!-- Barrier Unit -->
    <g style="fill: #0f172a" transform="translate(318.703466 150.037072) scale(0.09 -0.09)">
     <defs>
      <path id="DejaVuSansMono-42" d="M 1153 2228 
L 1153 519 
L 1900 519 
Q 2450 519 2684 711 
Q 2919 903 2919 1344 
Q 2919 1800 2672 2014 
Q 2425 2228 1900 2228 
L 1153 2228 
z
M 1153 4147 
L 1153 2741 
L 1888 2741 
Q 2344 2741 2548 2916 
Q 2753 3091 2753 3481 
Q 2753 3834 2551 3990 
Q 2350 4147 1888 4147 
L 1153 4147 
z
M 519 4666 
L 1900 4666 
Q 2616 4666 3003 4356 
Q 3391 4047 3391 3481 
Q 3391 3053 3186 2806 
Q 2981 2559 2572 2497 
Q 3031 2428 3292 2104 
Q 3553 1781 3553 1281 
Q 3553 647 3137 323 
Q 2722 0 1900 0 
L 519 0 
L 519 4666 
z
" transform="scale(0.015625)"/>
      <path id="DejaVuSansMono-61" d="M 2194 1759 
L 2003 1759 
Q 1500 1759 1245 1582 
Q 991 1406 991 1056 
Q 991 741 1181 566 
Q 1372 391 1709 391 
Q 2184 391 2456 720 
Q 2728 1050 2731 1631 
L 2731 1759 
L 2194 1759 
z
M 3309 1997 
L 3309 0 
L 2731 0 
L 2731 519 
Q 2547 206 2267 57 
Q 1988 -91 1588 -91 
Q 1053 -91 734 211 
Q 416 513 416 1019 
Q 416 1603 808 1906 
Q 1200 2209 1959 2209 
L 2731 2209 
L 2731 2300 
Q 2728 2719 2518 2908 
Q 2309 3097 1850 3097 
Q 1556 3097 1256 3012 
Q 956 2928 672 2766 
L 672 3341 
Q 991 3463 1283 3523 
Q 1575 3584 1850 3584 
Q 2284 3584 2592 3456 
Q 2900 3328 3091 3072 
Q 3209 2916 3259 2686 
Q 3309 2456 3309 1997 
z
" transform="scale(0.015625)"/>
      <path id="DejaVuSansMono-72" d="M 3609 2778 
Q 3425 2922 3234 2987 
Q 3044 3053 2816 3053 
Q 2278 3053 1993 2715 
Q 1709 2378 1709 1741 
L 1709 0 
L 1131 0 
L 1131 3500 
L 1709 3500 
L 1709 2816 
Q 1853 3188 2151 3386 
Q 2450 3584 2859 3584 
Q 3072 3584 3256 3531 
Q 3441 3478 3609 3366 
L 3609 2778 
z
" transform="scale(0.015625)"/>
      <path id="DejaVuSansMono-69" d="M 800 3500 
L 2272 3500 
L 2272 447 
L 3413 447 
L 3413 0 
L 556 0 
L 556 447 
L 1697 447 
L 1697 3053 
L 800 3053 
L 800 3500 
z
M 1697 4863 
L 2272 4863 
L 2272 4134 
L 1697 4134 
L 1697 4863 
z
" transform="scale(0.015625)"/>
      <path id="DejaVuSansMono-65" d="M 3475 1894 
L 3475 1613 
L 984 1613 
L 984 1594 
Q 984 1022 1282 709 
Q 1581 397 2125 397 
Q 2400 397 2700 484 
Q 3000 572 3341 750 
L 3341 178 
Q 3013 44 2708 -23 
Q 2403 -91 2119 -91 
Q 1303 -91 843 398 
Q 384 888 384 1747 
Q 384 2584 834 3084 
Q 1284 3584 2034 3584 
Q 2703 3584 3089 3131 
Q 3475 2678 3475 1894 
z
M 2900 2063 
Q 2888 2569 2661 2833 
Q 2434 3097 2009 3097 
Q 1594 3097 1325 2822 
Q 1056 2547 1006 2059 
L 2900 2063 
z
" transform="scale(0.015625)"/>
      <path id="DejaVuSansMono-55" d="M 459 1791 
L 459 4666 
L 1094 4666 
L 1094 1503 
Q 1094 1163 1112 1017 
Q 1131 872 1178 794 
Q 1278 609 1467 515 
Q 1656 422 1925 422 
Q 2197 422 2384 515 
Q 2572 609 2675 794 
Q 2722 872 2740 1015 
Q 2759 1159 2759 1497 
L 2759 4666 
L 3391 4666 
L 3391 1791 
Q 3391 1075 3302 773 
Q 3213 472 2994 275 
Q 2788 91 2522 0 
Q 2256 -91 1925 -91 
Q 1597 -91 1331 0 
Q 1066 91 856 275 
Q 641 469 550 776 
Q 459 1084 459 1791 
z
" transform="scale(0.015625)"/>
      <path id="DejaVuSansMono-6e" d="M 3284 2169 
L 3284 0 
L 2706 0 
L 2706 2169 
Q 2706 2641 2540 2862 
Q 2375 3084 2022 3084 
Q 1619 3084 1401 2798 
Q 1184 2513 1184 1978 
L 1184 0 
L 609 0 
L 609 3500 
L 1184 3500 
L 1184 2975 
Q 1338 3275 1600 3429 
Q 1863 3584 2222 3584 
Q 2756 3584 3020 3232 
Q 3284 2881 3284 2169 
z
" transform="scale(0.015625)"/>
      <path id="DejaVuSansMono-74" d="M 1919 4494 
L 1919 3500 
L 3225 3500 
L 3225 3053 
L 1919 3053 
L 1919 1153 
Q 1919 766 2066 612 
Q 2213 459 2578 459 
L 3225 459 
L 3225 0 
L 2522 0 
Q 1875 0 1609 259 
Q 1344 519 1344 1153 
L 1344 3053 
L 409 3053 
L 409 3500 
L 1344 3500 
L 1344 4494 
L 1919 4494 
z
" transform="scale(0.015625)"/>
     </defs>
     <use xlink:href="#DejaVuSansMono-42"/>
     <use xlink:href="#DejaVuSansMono-61" transform="translate(60.205078 0)"/>
     <use xlink:href="#DejaVuSansMono-72" transform="translate(120.410156 0)"/>
     <use xlink:href="#DejaVuSansMono-72" transform="translate(180.615234 0)"/>
     <use xlink:href="#DejaVuSansMono-69" transform="translate(240.820312 0)"/>
     <use xlink:href="#DejaVuSansMono-65" transform="translate(301.025391 0)"/>
     <use xlink:href="#DejaVuSansMono-72" transform="translate(361.230469 0)"/>
     <use xlink:href="#DejaVuSansMono-20" transform="translate(421.435547 0)"/>
     <use xlink:href="#DejaVuSansMono-55" transform="translate(481.640625 0)"/>
     <use xlink:href="#DejaVuSansMono-6e" transform="translate(541.845703 0)"/>
     <use xlink:href="#DejaVuSansMono-69" transform="translate(602.050781 0)"/>
     <use xlink:href="#DejaVuSansMono-74" transform="translate(662.255859 0)"/>
    </g>
   </g>
   <g id="text_3">
    <!-- S0 -->
    <g style="fill: #334155" transform="translate(161.995688 226.689809) scale(0.1 -0.1)">
     <defs>
      <path id="DejaVuSansMono-30" d="M 1509 2344 
Q 1509 2516 1629 2641 
Q 1750 2766 1919 2766 
Q 2094 2766 2219 2641 
Q 2344 2516 2344 2344 
Q 2344 2169 2220 2047 
Q 2097 1925 1919 1925 
Q 1744 1925 1626 2044 
Q 1509 2163 1509 2344 
z
M 1925 4250 
Q 1484 4250 1267 3775 
Q 1050 3300 1050 2328 
Q 1050 1359 1267 884 
Q 1484 409 1925 409 
Q 2369 409 2586 884 
Q 2803 1359 2803 2328 
Q 2803 3300 2586 3775 
Q 2369 4250 1925 4250 
z
M 1925 4750 
Q 2672 4750 3055 4137 
Q 3438 3525 3438 2328 
Q 3438 1134 3055 521 
Q 2672 -91 1925 -91 
Q 1178 -91 797 521 
Q 416 1134 416 2328 
Q 416 3525 797 4137 
Q 1178 4750 1925 4750 
z
" transform="scale(0.015625)"/>
     </defs>
     <use xlink:href="#DejaVuSansMono-53"/>
     <use xlink:href="#DejaVuSansMono-30" transform="translate(60.205078 0)"/>
    </g>
   </g>
   <g id="text_4">
    <!-- S1 -->
    <g style="fill: #334155" transform="translate(245.381878 226.689809) scale(0.1 -0.1)">
     <defs>
      <path id="DejaVuSansMono-31" d="M 844 531 
L 1825 531 
L 1825 4097 
L 769 3859 
L 769 4434 
L 1819 4666 
L 2450 4666 
L 2450 531 
L 3419 531 
L 3419 0 
L 844 0 
L 844 531 
z
" transform="scale(0.015625)"/>
     </defs>
     <use xlink:href="#DejaVuSansMono-53"/>
     <use xlink:href="#DejaVuSansMono-31" transform="translate(60.205078 0)"/>
    </g>
   </g>
   <g id="text_5">
    <!-- S2 -->
    <g style="fill: #334155" transform="translate(328.768068 226.689809) scale(0.1 -0.1)">
     <defs>
      <path id="DejaVuSansMono-32" d="M 1166 531 
L 3309 531 
L 3309 0 
L 475 0 
L 475 531 
Q 1059 1147 1496 1619 
Q 1934 2091 2100 2284 
Q 2413 2666 2522 2902 
Q 2631 3138 2631 3384 
Q 2631 3775 2401 3997 
Q 2172 4219 1772 4219 
Q 1488 4219 1175 4116 
Q 863 4013 513 3803 
L 513 4441 
Q 834 4594 1145 4672 
Q 1456 4750 1759 4750 
Q 2444 4750 2861 4386 
Q 3278 4022 3278 3431 
Q 3278 3131 3139 2831 
Q 3000 2531 2688 2169 
Q 2513 1966 2180 1606 
Q 1847 1247 1166 531 
z
" transform="scale(0.015625)"/>
     </defs>
     <use xlink:href="#DejaVuSansMono-53"/>
     <use xlink:href="#DejaVuSansMono-32" transform="translate(60.205078 0)"/>
    </g>
   </g>
   <g id="text_6">
    <!-- S3 -->
    <g style="fill: #334155" transform="translate(412.154258 226.689809) scale(0.1 -0.1)">
     <defs>
      <path id="DejaVuSansMono-33" d="M 2425 2497 
Q 2884 2375 3128 2064 
Q 3372 1753 3372 1288 
Q 3372 644 2939 276 
Q 2506 -91 1741 -91 
Q 1419 -91 1084 -31 
Q 750 28 428 141 
L 428 769 
Q 747 603 1056 522 
Q 1366 441 1672 441 
Q 2191 441 2469 675 
Q 2747 909 2747 1350 
Q 2747 1756 2469 1995 
Q 2191 2234 1716 2234 
L 1234 2234 
L 1234 2753 
L 1716 2753 
Q 2150 2753 2394 2943 
Q 2638 3134 2638 3475 
Q 2638 3834 2411 4026 
Q 2184 4219 1766 4219 
Q 1488 4219 1191 4156 
Q 894 4094 569 3969 
L 569 4550 
Q 947 4650 1242 4700 
Q 1538 4750 1766 4750 
Q 2447 4750 2855 4408 
Q 3263 4066 3263 3500 
Q 3263 3116 3048 2859 
Q 2834 2603 2425 2497 
z
" transform="scale(0.015625)"/>
     </defs>
     <use xlink:href="#DejaVuSansMono-53"/>
     <use xlink:href="#DejaVuSansMono-33" transform="translate(60.205078 0)"/>
    </g>
   </g>
   <g id="text_7">
    <!-- not done -->
    <g transform="translate(336.369928 184.873793) scale(0.08 -0.08)">
     <defs>
      <path id="DejaVuSansMono-6f" d="M 1925 3097 
Q 1488 3097 1263 2756 
Q 1038 2416 1038 1747 
Q 1038 1081 1263 739 
Q 1488 397 1925 397 
Q 2366 397 2591 739 
Q 2816 1081 2816 1747 
Q 2816 2416 2591 2756 
Q 2366 3097 1925 3097 
z
M 1925 3584 
Q 2653 3584 3039 3112 
Q 3425 2641 3425 1747 
Q 3425 850 3040 379 
Q 2656 -91 1925 -91 
Q 1197 -91 812 379 
Q 428 850 428 1747 
Q 428 2641 812 3112 
Q 1197 3584 1925 3584 
z
" transform="scale(0.015625)"/>
      <path id="DejaVuSansMono-64" d="M 2681 3053 
L 2681 4863 
L 3256 4863 
L 3256 0 
L 2681 0 
L 2681 441 
Q 2538 181 2298 45 
Q 2059 -91 1747 -91 
Q 1113 -91 748 401 
Q 384 894 384 1759 
Q 384 2613 750 3098 
Q 1116 3584 1747 3584 
Q 2063 3584 2303 3448 
Q 2544 3313 2681 3053 
z
M 991 1747 
Q 991 1078 1203 737 
Q 1416 397 1831 397 
Q 2247 397 2464 740 
Q 2681 1084 2681 1747 
Q 2681 2413 2464 2755 
Q 2247 3097 1831 3097 
Q 1416 3097 1203 2756 
Q 991 2416 991 1747 
z
" transform="scale(0.015625)"/>
     </defs>
     <use xlink:href="#DejaVuSansMono-6e"/>
     <use xlink:href="#DejaVuSansMono-6f" transform="translate(60.205078 0)"/>
     <use xlink:href="#DejaVuSansMono-74" transform="translate(120.410156 0)"/>
     <use xlink:href="#DejaVuSansMono-20" transform="translate(180.615234 0)"/>
     <use xlink:href="#DejaVuSansMono-64" transform="translate(240.820312 0)"/>
     <use xlink:href="#DejaVuSansMono-6f" transform="translate(301.025391 0)"/>
     <use xlink:href="#DejaVuSansMono-6e" transform="translate(361.230469 0)"/>
     <use xlink:href="#DejaVuSansMono-65" transform="translate(421.435547 0)"/>
    </g>
   </g>
   <g id="text_8">
    <!-- Warp Scheduler -->
    <g style="fill: #0f172a" transform="translate(595.856385 185.429968) scale(0.09 -0.09)">
     <defs>
      <path id="DejaVuSansMono-57" d="M 0 4666 
L 616 4666 
L 1063 878 
L 1594 3384 
L 2253 3384 
L 2791 872 
L 3238 4666 
L 3853 4666 
L 3156 0 
L 2559 0 
L 1925 2772 
L 1294 0 
L 697 0 
L 0 4666 
z
" transform="scale(0.015625)"/>
      <path id="DejaVuSansMono-70" d="M 1172 441 
L 1172 -1331 
L 594 -1331 
L 594 3500 
L 1172 3500 
L 1172 3053 
Q 1316 3313 1555 3448 
Q 1794 3584 2106 3584 
Q 2741 3584 3102 3093 
Q 3463 2603 3463 1734 
Q 3463 881 3100 395 
Q 2738 -91 2106 -91 
Q 1788 -91 1548 45 
Q 1309 181 1172 441 
z
M 2859 1747 
Q 2859 2416 2648 2756 
Q 2438 3097 2022 3097 
Q 1603 3097 1387 2755 
Q 1172 2413 1172 1747 
Q 1172 1084 1387 740 
Q 1603 397 2022 397 
Q 2438 397 2648 737 
Q 2859 1078 2859 1747 
z
" transform="scale(0.015625)"/>
      <path id="DejaVuSansMono-63" d="M 3316 178 
Q 3084 44 2839 -23 
Q 2594 -91 2338 -91 
Q 1525 -91 1067 396 
Q 609 884 609 1747 
Q 609 2609 1067 3096 
Q 1525 3584 2338 3584 
Q 2591 3584 2831 3518 
Q 3072 3453 3316 3316 
L 3316 2713 
Q 3088 2916 2858 3006 
Q 2628 3097 2338 3097 
Q 1797 3097 1506 2747 
Q 1216 2397 1216 1747 
Q 1216 1100 1508 748 
Q 1800 397 2338 397 
Q 2638 397 2875 489 
Q 3113 581 3316 775 
L 3316 178 
z
" transform="scale(0.015625)"/>
      <path id="DejaVuSansMono-68" d="M 3284 2169 
L 3284 0 
L 2706 0 
L 2706 2169 
Q 2706 2641 2540 2862 
Q 2375 3084 2022 3084 
Q 1619 3084 1401 2798 
Q 1184 2513 1184 1978 
L 1184 0 
L 609 0 
L 609 4863 
L 1184 4863 
L 1184 2975 
Q 1338 3275 1600 3429 
Q 1863 3584 2222 3584 
Q 2756 3584 3020 3232 
Q 3284 2881 3284 2169 
z
" transform="scale(0.015625)"/>
      <path id="DejaVuSansMono-75" d="M 609 1325 
L 609 3494 
L 1184 3494 
L 1184 1325 
Q 1184 853 1351 631 
Q 1519 409 1869 409 
Q 2275 409 2490 695 
Q 2706 981 2706 1516 
L 2706 3494 
L 3284 3494 
L 3284 0 
L 2706 0 
L 2706 525 
Q 2553 222 2289 65 
Q 2025 -91 1672 -91 
Q 1134 -91 871 261 
Q 609 613 609 1325 
z
" transform="scale(0.015625)"/>
      <path id="DejaVuSansMono-6c" d="M 1997 1269 
Q 1997 881 2139 684 
Q 2281 488 2559 488 
L 3231 488 
L 3231 0 
L 2503 0 
Q 1988 0 1705 331 
Q 1422 663 1422 1269 
L 1422 4447 
L 500 4447 
L 500 4897 
L 1997 4897 
L 1997 1269 
z
" transform="scale(0.015625)"/>
     </defs>
     <use xlink:href="#DejaVuSansMono-57"/>
     <use xlink:href="#DejaVuSansMono-61" transform="translate(60.205078 0)"/>
     <use xlink:href="#DejaVuSansMono-72" transform="translate(120.410156 0)"/>
     <use xlink:href="#DejaVuSansMono-70" transform="translate(180.615234 0)"/>
     <use xlink:href="#DejaVuSansMono-20" transform="translate(240.820312 0)"/>
     <use xlink:href="#DejaVuSansMono-53" transform="translate(301.025391 0)"/>
     <use xlink:href="#DejaVuSansMono-63" transform="translate(361.230469 0)"/>
     <use xlink:href="#DejaVuSansMono-68" transform="translate(421.435547 0)"/>
     <use xlink:href="#DejaVuSansMono-65" transform="translate(481.640625 0)"/>
     <use xlink:href="#DejaVuSansMono-64" transform="translate(541.845703 0)"/>
     <use xlink:href="#DejaVuSansMono-75" transform="translate(602.050781 0)"/>
     <use xlink:href="#DejaVuSansMono-6c" transform="translate(662.255859 0)"/>
     <use xlink:href="#DejaVuSansMono-65" transform="translate(722.460938 0)"/>
     <use xlink:href="#DejaVuSansMono-72" transform="translate(782.666016 0)"/>
    </g>
   </g>
   <g id="text_9">
    <!-- Warp Scheduler -->
    <g style="fill: #0f172a" transform="translate(595.856385 235.414672) scale(0.09 -0.09)">
     <use xlink:href="#DejaVuSansMono-57"/>
     <use xlink:href="#DejaVuSansMono-61" transform="translate(60.205078 0)"/>
     <use xlink:href="#DejaVuSansMono-72" transform="translate(120.410156 0)"/>
     <use xlink:href="#DejaVuSansMono-70" transform="translate(180.615234 0)"/>
     <use xlink:href="#DejaVuSansMono-20" transform="translate(240.820312 0)"/>
     <use xlink:href="#DejaVuSansMono-53" transform="translate(301.025391 0)"/>
     <use xlink:href="#DejaVuSansMono-63" transform="translate(361.230469 0)"/>
     <use xlink:href="#DejaVuSansMono-68" transform="translate(421.435547 0)"/>
     <use xlink:href="#DejaVuSansMono-65" transform="translate(481.640625 0)"/>
     <use xlink:href="#DejaVuSansMono-64" transform="translate(541.845703 0)"/>
     <use xlink:href="#DejaVuSansMono-75" transform="translate(602.050781 0)"/>
     <use xlink:href="#DejaVuSansMono-6c" transform="translate(662.255859 0)"/>
     <use xlink:href="#DejaVuSansMono-65" transform="translate(722.460938 0)"/>
     <use xlink:href="#DejaVuSansMono-72" transform="translate(782.666016 0)"/>
    </g>
   </g>
   <g id="text_10">
    <!-- PC, warp_id, num_warps, num_regs_per_warp -->
    <g transform="translate(343.860147 70.51119) scale(0.08 -0.08)">
     <defs>
      <path id="DejaVuSansMono-2c" d="M 1569 947 
L 2356 947 
L 2356 300 
L 1741 -897 
L 1259 -897 
L 1569 300 
L 1569 947 
z
" transform="scale(0.015625)"/>
      <path id="DejaVuSansMono-77" d="M 0 3500 
L 569 3500 
L 1178 672 
L 1678 2478 
L 2169 2478 
L 2675 672 
L 3284 3500 
L 3853 3500 
L 3034 0 
L 2484 0 
L 1925 1919 
L 1369 0 
L 819 0 
L 0 3500 
z
" transform="scale(0.015625)"/>
      <path id="DejaVuSansMono-5f" d="M 3853 -1259 
L 3853 -1509 
L 0 -1509 
L 0 -1259 
L 3853 -1259 
z
" transform="scale(0.015625)"/>
      <path id="DejaVuSansMono-6d" d="M 2113 3144 
Q 2219 3369 2383 3476 
Q 2547 3584 2778 3584 
Q 3200 3584 3373 3257 
Q 3547 2931 3547 2028 
L 3547 0 
L 3022 0 
L 3022 2003 
Q 3022 2744 2939 2923 
Q 2856 3103 2638 3103 
Q 2388 3103 2295 2911 
Q 2203 2719 2203 2003 
L 2203 0 
L 1678 0 
L 1678 2003 
Q 1678 2753 1589 2928 
Q 1500 3103 1269 3103 
Q 1041 3103 952 2911 
Q 863 2719 863 2003 
L 863 0 
L 341 0 
L 341 3500 
L 863 3500 
L 863 3200 
Q 966 3388 1120 3486 
Q 1275 3584 1472 3584 
Q 1709 3584 1867 3475 
Q 2025 3366 2113 3144 
z
" transform="scale(0.015625)"/>
      <path id="DejaVuSansMono-73" d="M 3041 3378 
L 3041 2816 
Q 2794 2959 2544 3031 
Q 2294 3103 2034 3103 
Q 1644 3103 1451 2976 
Q 1259 2850 1259 2591 
Q 1259 2356 1403 2240 
Q 1547 2125 2119 2016 
L 2350 1972 
Q 2778 1891 2998 1647 
Q 3219 1403 3219 1013 
Q 3219 494 2850 201 
Q 2481 -91 1825 -91 
Q 1566 -91 1281 -36 
Q 997 19 666 128 
L 666 722 
Q 988 556 1281 473 
Q 1575 391 1838 391 
Q 2219 391 2428 545 
Q 2638 700 2638 978 
Q 2638 1378 1872 1531 
L 1847 1538 
L 1631 1581 
Q 1134 1678 906 1908 
Q 678 2138 678 2534 
Q 678 3038 1018 3311 
Q 1359 3584 1991 3584 
Q 2272 3584 2531 3532 
Q 2791 3481 3041 3378 
z
" transform="scale(0.015625)"/>
      <path id="DejaVuSansMono-67" d="M 2681 1778 
Q 2681 2425 2470 2761 
Q 2259 3097 1856 3097 
Q 1434 3097 1212 2761 
Q 991 2425 991 1778 
Q 991 1131 1214 792 
Q 1438 453 1863 453 
Q 2259 453 2470 793 
Q 2681 1134 2681 1778 
z
M 3256 225 
Q 3256 -563 2884 -969 
Q 2513 -1375 1791 -1375 
Q 1553 -1375 1293 -1331 
Q 1034 -1288 775 -1203 
L 775 -634 
Q 1081 -778 1331 -847 
Q 1581 -916 1791 -916 
Q 2256 -916 2468 -662 
Q 2681 -409 2681 141 
L 2681 166 
L 2681 556 
Q 2544 263 2306 119 
Q 2069 -25 1728 -25 
Q 1116 -25 750 465 
Q 384 956 384 1778 
Q 384 2603 750 3093 
Q 1116 3584 1728 3584 
Q 2066 3584 2300 3450 
Q 2534 3316 2681 3034 
L 2681 3488 
L 3256 3488 
L 3256 225 
z
" transform="scale(0.015625)"/>
     </defs>
     <use xlink:href="#DejaVuSansMono-50"/>
     <use xlink:href="#DejaVuSansMono-43" transform="translate(60.205078 0)"/>
     <use xlink:href="#DejaVuSansMono-2c" transform="translate(120.410156 0)"/>
     <use xlink:href="#DejaVuSansMono-20" transform="translate(180.615234 0)"/>
     <use xlink:href="#DejaVuSansMono-77" transform="translate(240.820312 0)"/>
     <use xlink:href="#DejaVuSansMono-61" transform="translate(301.025391 0)"/>
     <use xlink:href="#DejaVuSansMono-72" transform="translate(361.230469 0)"/>
     <use xlink:href="#DejaVuSansMono-70" transform="translate(421.435547 0)"/>
     <use xlink:href="#DejaVuSansMono-5f" transform="translate(481.640625 0)"/>
     <use xlink:href="#DejaVuSansMono-69" transform="translate(541.845703 0)"/>
     <use xlink:href="#DejaVuSansMono-64" transform="translate(602.050781 0)"/>
     <use xlink:href="#DejaVuSansMono-2c" transform="translate(662.255859 0)"/>
     <use xlink:href="#DejaVuSansMono-20" transform="translate(722.460938 0)"/>
     <use xlink:href="#DejaVuSansMono-6e" transform="translate(782.666016 0)"/>
     <use xlink:href="#DejaVuSansMono-75" transform="translate(842.871094 0)"/>
     <use xlink:href="#DejaVuSansMono-6d" transform="translate(903.076172 0)"/>
     <use xlink:href="#DejaVuSansMono-5f" transform="translate(963.28125 0)"/>
     <use xlink:href="#DejaVuSansMono-77" transform="translate(1023.486328 0)"/>
     <use xlink:href="#DejaVuSansMono-61" transform="translate(1083.691406 0)"/>
     <use xlink:href="#DejaVuSansMono-72" transform="translate(1143.896484 0)"/>
     <use xlink:href="#DejaVuSansMono-70" transform="translate(1204.101562 0)"/>
     <use xlink:href="#DejaVuSansMono-73" transform="translate(1264.306641 0)"/>
     <use xlink:href="#DejaVuSansMono-2c" transform="translate(1324.511719 0)"/>
     <use xlink:href="#DejaVuSansMono-20" transform="translate(1384.716797 0)"/>
     <use xlink:href="#DejaVuSansMono-6e" transform="translate(1444.921875 0)"/>
     <use xlink:href="#DejaVuSansMono-75" transform="translate(1505.126953 0)"/>
     <use xlink:href="#DejaVuSansMono-6d" transform="translate(1565.332031 0)"/>
     <use xlink:href="#DejaVuSansMono-5f" transform="translate(1625.537109 0)"/>
     <use xlink:href="#DejaVuSansMono-72" transform="translate(1685.742188 0)"/>
     <use xlink:href="#DejaVuSansMono-65" transform="translate(1745.947266 0)"/>
     <use xlink:href="#DejaVuSansMono-67" transform="translate(1806.152344 0)"/>
     <use xlink:href="#DejaVuSansMono-73" transform="translate(1866.357422 0)"/>
     <use xlink:href="#DejaVuSansMono-5f" transform="translate(1926.5625 0)"/>
     <use xlink:href="#DejaVuSansMono-70" transform="translate(1986.767578 0)"/>
     <use xlink:href="#DejaVuSansMono-65" transform="translate(2046.972656 0)"/>
     <use xlink:href="#DejaVuSansMono-72" transform="translate(2107.177734 0)"/>
     <use xlink:href="#DejaVuSansMono-5f" transform="translate(2167.382812 0)"/>
     <use xlink:href="#DejaVuSansMono-77" transform="translate(2227.587891 0)"/>
     <use xlink:href="#DejaVuSansMono-61" transform="translate(2287.792969 0)"/>
     <use xlink:href="#DejaVuSansMono-72" transform="translate(2347.998047 0)"/>
     <use xlink:href="#DejaVuSansMono-70" transform="translate(2408.203125 0)"/>
    </g>
   </g>
   <g id="text_11">
    <!-- num_warps, num_lanes, num_regs -->
    <g transform="translate(168.016 326.50181) scale(0.08 -0.08)">
     <use xlink:href="#DejaVuSansMono-6e"/>
     <use xlink:href="#DejaVuSansMono-75" transform="translate(60.205078 0)"/>
     <use xlink:href="#DejaVuSansMono-6d" transform="translate(120.410156 0)"/>
     <use xlink:href="#DejaVuSansMono-5f" transform="translate(180.615234 0)"/>
     <use xlink:href="#DejaVuSansMono-77" transform="translate(240.820312 0)"/>
     <use xlink:href="#DejaVuSansMono-61" transform="translate(301.025391 0)"/>
     <use xlink:href="#DejaVuSansMono-72" transform="translate(361.230469 0)"/>
     <use xlink:href="#DejaVuSansMono-70" transform="translate(421.435547 0)"/>
     <use xlink:href="#DejaVuSansMono-73" transform="translate(481.640625 0)"/>
     <use xlink:href="#DejaVuSansMono-2c" transform="translate(541.845703 0)"/>
     <use xlink:href="#DejaVuSansMono-20" transform="translate(602.050781 0)"/>
     <use xlink:href="#DejaVuSansMono-6e" transform="translate(662.255859 0)"/>
     <use xlink:href="#DejaVuSansMono-75" transform="translate(722.460938 0)"/>
     <use xlink:href="#DejaVuSansMono-6d" transform="translate(782.666016 0)"/>
     <use xlink:href="#DejaVuSansMono-5f" transform="translate(842.871094 0)"/>
     <use xlink:href="#DejaVuSansMono-6c" transform="translate(903.076172 0)"/>
     <use xlink:href="#DejaVuSansMono-61" transform="translate(963.28125 0)"/>
     <use xlink:href="#DejaVuSansMono-6e" transform="translate(1023.486328 0)"/>
     <use xlink:href="#DejaVuSansMono-65" transform="translate(1083.691406 0)"/>
     <use xlink:href="#DejaVuSansMono-73" transform="translate(1143.896484 0)"/>
     <use xlink:href="#DejaVuSansMono-2c" transform="translate(1204.101562 0)"/>
     <use xlink:href="#DejaVuSansMono-20" transform="translate(1264.306641 0)"/>
     <use xlink:href="#DejaVuSansMono-6e" transform="translate(1324.511719 0)"/>
     <use xlink:href="#DejaVuSansMono-75" transform="translate(1384.716797 0)"/>
     <use xlink:href="#DejaVuSansMono-6d" transform="translate(1444.921875 0)"/>
     <use xlink:href="#DejaVuSansMono-5f" transform="translate(1505.126953 0)"/>
     <use xlink:href="#DejaVuSansMono-72" transform="translate(1565.332031 0)"/>
     <use xlink:href="#DejaVuSansMono-65" transform="translate(1625.537109 0)"/>
     <use xlink:href="#DejaVuSansMono-67" transform="translate(1685.742188 0)"/>
     <use xlink:href="#DejaVuSansMono-73" transform="translate(1745.947266 0)"/>
    </g>
   </g>
   <g id="text_12">
    <!-- done? -->
    <g transform="translate(304.01113 260.086517) scale(0.08 -0.08)">
     <defs>
      <path id="DejaVuSansMono-3f" d="M 2138 1253 
L 1544 1253 
L 1544 1734 
Q 1544 2041 1639 2255 
Q 1734 2469 1997 2725 
L 2278 3003 
Q 2472 3188 2545 3325 
Q 2619 3463 2619 3616 
Q 2619 3894 2414 4066 
Q 2209 4238 1869 4238 
Q 1625 4238 1347 4130 
Q 1069 4022 763 3809 
L 763 4397 
Q 1056 4575 1354 4662 
Q 1653 4750 1978 4750 
Q 2559 4750 2904 4450 
Q 3250 4150 3250 3647 
Q 3250 3409 3145 3204 
Q 3041 3000 2747 2713 
L 2472 2444 
Q 2256 2238 2197 2106 
Q 2138 1975 2138 1784 
L 2138 1638 
L 2138 1253 
z
M 1522 794 
L 2156 794 
L 2156 0 
L 1522 0 
L 1522 794 
z
" transform="scale(0.015625)"/>
     </defs>
     <use xlink:href="#DejaVuSansMono-64"/>
     <use xlink:href="#DejaVuSansMono-6f" transform="translate(60.205078 0)"/>
     <use xlink:href="#DejaVuSansMono-6e" transform="translate(120.410156 0)"/>
     <use xlink:href="#DejaVuSansMono-65" transform="translate(180.615234 0)"/>
     <use xlink:href="#DejaVuSansMono-3f" transform="translate(240.820312 0)"/>
    </g>
   </g>
   <g id="text_13">
    <!-- sync -->
    <g transform="translate(525.720654 140.044778) scale(0.08 -0.08)">
     <defs>
      <path id="DejaVuSansMono-79" d="M 2681 1125 
Q 2538 759 2316 163 
Q 2006 -663 1900 -844 
Q 1756 -1088 1540 -1209 
Q 1325 -1331 1038 -1331 
L 575 -1331 
L 575 -850 
L 916 -850 
Q 1169 -850 1312 -703 
Q 1456 -556 1678 56 
L 325 3500 
L 934 3500 
L 1972 763 
L 2994 3500 
L 3603 3500 
L 2681 1125 
z
" transform="scale(0.015625)"/>
     </defs>
     <use xlink:href="#DejaVuSansMono-73"/>
     <use xlink:href="#DejaVuSansMono-79" transform="translate(60.205078 0)"/>
     <use xlink:href="#DejaVuSansMono-6e" transform="translate(120.410156 0)"/>
     <use xlink:href="#DejaVuSansMono-63" transform="translate(180.615234 0)"/>
    </g>
   </g>
   <g id="text_14">
    <!-- init -->
    <g transform="translate(282.169555 140.044778) scale(0.08 -0.08)">
     <use xlink:href="#DejaVuSansMono-69"/>
     <use xlink:href="#DejaVuSansMono-6e" transform="translate(60.205078 0)"/>
     <use xlink:href="#DejaVuSansMono-69" transform="translate(120.410156 0)"/>
     <use xlink:href="#DejaVuSansMono-74" transform="translate(180.615234 0)"/>
    </g>
   </g>
   <g id="text_15">
    <!-- TB_ID, N_TBs, TB_SHAPE, REGS, PC -->
    <g style="fill: #ff0000" transform="translate(7.2 86.81055) scale(0.08 -0.08)">
     <defs>
      <path id="DejaVuSansMono-54" d="M 147 4666 
L 3706 4666 
L 3706 4134 
L 2247 4134 
L 2247 0 
L 1613 0 
L 1613 4134 
L 147 4134 
L 147 4666 
z
" transform="scale(0.015625)"/>
      <path id="DejaVuSansMono-49" d="M 628 4666 
L 3219 4666 
L 3219 4134 
L 2241 4134 
L 2241 531 
L 3219 531 
L 3219 0 
L 628 0 
L 628 531 
L 1606 531 
L 1606 4134 
L 628 4134 
L 628 4666 
z
" transform="scale(0.015625)"/>
      <path id="DejaVuSansMono-44" d="M 1363 519 
Q 2159 519 2475 911 
Q 2791 1303 2791 2328 
Q 2791 3363 2477 3755 
Q 2163 4147 1363 4147 
L 1063 4147 
L 1063 519 
L 1363 519 
z
M 1375 4666 
Q 2444 4666 2950 4097 
Q 3456 3528 3456 2328 
Q 3456 1134 2950 567 
Q 2444 0 1375 0 
L 428 0 
L 428 4666 
L 1375 4666 
z
" transform="scale(0.015625)"/>
      <path id="DejaVuSansMono-4e" d="M 434 4666 
L 1234 4666 
L 2809 825 
L 2809 4666 
L 3419 4666 
L 3419 0 
L 2619 0 
L 1044 3841 
L 1044 0 
L 434 0 
L 434 4666 
z
" transform="scale(0.015625)"/>
      <path id="DejaVuSansMono-48" d="M 428 4666 
L 1063 4666 
L 1063 2753 
L 2791 2753 
L 2791 4666 
L 3425 4666 
L 3425 0 
L 2791 0 
L 2791 2222 
L 1063 2222 
L 1063 0 
L 428 0 
L 428 4666 
z
" transform="scale(0.015625)"/>
      <path id="DejaVuSansMono-41" d="M 1925 4109 
L 1259 1722 
L 2591 1722 
L 1925 4109 
z
M 1544 4666 
L 2309 4666 
L 3738 0 
L 3084 0 
L 2741 1216 
L 1106 1216 
L 769 0 
L 116 0 
L 1544 4666 
z
" transform="scale(0.015625)"/>
      <path id="DejaVuSansMono-45" d="M 616 4666 
L 3384 4666 
L 3384 4134 
L 1247 4134 
L 1247 2753 
L 3291 2753 
L 3291 2222 
L 1247 2222 
L 1247 531 
L 3444 531 
L 3444 0 
L 616 0 
L 616 4666 
z
" transform="scale(0.015625)"/>
      <path id="DejaVuSansMono-52" d="M 2375 2203 
Q 2619 2141 2791 1967 
Q 2963 1794 3219 1275 
L 3853 0 
L 3175 0 
L 2619 1178 
Q 2378 1681 2186 1826 
Q 1994 1972 1684 1972 
L 1081 1972 
L 1081 0 
L 447 0 
L 447 4666 
L 1747 4666 
Q 2516 4666 2925 4319 
Q 3334 3972 3334 3316 
Q 3334 2853 3082 2561 
Q 2831 2269 2375 2203 
z
M 1081 4147 
L 1081 2491 
L 1772 2491 
Q 2225 2491 2447 2694 
Q 2669 2897 2669 3316 
Q 2669 3719 2433 3933 
Q 2197 4147 1747 4147 
L 1081 4147 
z
" transform="scale(0.015625)"/>
      <path id="DejaVuSansMono-47" d="M 3450 384 
Q 3197 150 2880 29 
Q 2563 -91 2194 -91 
Q 1306 -91 812 545 
Q 319 1181 319 2328 
Q 319 3472 819 4111 
Q 1319 4750 2209 4750 
Q 2503 4750 2772 4667 
Q 3041 4584 3291 4416 
L 3291 3769 
Q 3038 4009 2772 4123 
Q 2506 4238 2209 4238 
Q 1594 4238 1286 3761 
Q 978 3284 978 2328 
Q 978 1356 1276 889 
Q 1575 422 2194 422 
Q 2403 422 2561 470 
Q 2719 519 2847 622 
L 2847 1875 
L 2169 1875 
L 2169 2394 
L 3450 2394 
L 3450 384 
z
" transform="scale(0.015625)"/>
     </defs>
     <use xlink:href="#DejaVuSansMono-54"/>
     <use xlink:href="#DejaVuSansMono-42" transform="translate(60.205078 0)"/>
     <use xlink:href="#DejaVuSansMono-5f" transform="translate(120.410156 0)"/>
     <use xlink:href="#DejaVuSansMono-49" transform="translate(180.615234 0)"/>
     <use xlink:href="#DejaVuSansMono-44" transform="translate(240.820312 0)"/>
     <use xlink:href="#DejaVuSansMono-2c" transform="translate(301.025391 0)"/>
     <use xlink:href="#DejaVuSansMono-20" transform="translate(361.230469 0)"/>
     <use xlink:href="#DejaVuSansMono-4e" transform="translate(421.435547 0)"/>
     <use xlink:href="#DejaVuSansMono-5f" transform="translate(481.640625 0)"/>
     <use xlink:href="#DejaVuSansMono-54" transform="translate(541.845703 0)"/>
     <use xlink:href="#DejaVuSansMono-42" transform="translate(602.050781 0)"/>
     <use xlink:href="#DejaVuSansMono-73" transform="translate(662.255859 0)"/>
     <use xlink:href="#DejaVuSansMono-2c" transform="translate(722.460938 0)"/>
     <use xlink:href="#DejaVuSansMono-20" transform="translate(782.666016 0)"/>
     <use xlink:href="#DejaVuSansMono-54" transform="translate(842.871094 0)"/>
     <use xlink:href="#DejaVuSansMono-42" transform="translate(903.076172 0)"/>
     <use xlink:href="#DejaVuSansMono-5f" transform="translate(963.28125 0)"/>
     <use xlink:href="#DejaVuSansMono-53" transform="translate(1023.486328 0)"/>
     <use xlink:href="#DejaVuSansMono-48" transform="translate(1083.691406 0)"/>
     <use xlink:href="#DejaVuSansMono-41" transform="translate(1143.896484 0)"/>
     <use xlink:href="#DejaVuSansMono-50" transform="translate(1204.101562 0)"/>
     <use xlink:href="#DejaVuSansMono-45" transform="translate(1264.306641 0)"/>
     <use xlink:href="#DejaVuSansMono-2c" transform="translate(1324.511719 0)"/>
     <use xlink:href="#DejaVuSansMono-20" transform="translate(1384.716797 0)"/>
     <use xlink:href="#DejaVuSansMono-52" transform="translate(1444.921875 0)"/>
     <use xlink:href="#DejaVuSansMono-45" transform="translate(1505.126953 0)"/>
     <use xlink:href="#DejaVuSansMono-47" transform="translate(1565.332031 0)"/>
     <use xlink:href="#DejaVuSansMono-53" transform="translate(1625.537109 0)"/>
     <use xlink:href="#DejaVuSansMono-2c" transform="translate(1685.742188 0)"/>
     <use xlink:href="#DejaVuSansMono-20" transform="translate(1745.947266 0)"/>
     <use xlink:href="#DejaVuSansMono-50" transform="translate(1806.152344 0)"/>
     <use xlink:href="#DejaVuSansMono-43" transform="translate(1866.357422 0)"/>
    </g>
   </g>
   <g id="text_16">
    <!-- ERR_CODE, ERR_PC, ERR_WARP, ERR_THREAD -->
    <g style="fill: #ff0000" transform="translate(326.66582 398.11286) scale(0.08 -0.08)">
     <defs>
      <path id="DejaVuSansMono-4f" d="M 2828 2328 
Q 2828 3356 2617 3797 
Q 2406 4238 1925 4238 
Q 1447 4238 1236 3797 
Q 1025 3356 1025 2328 
Q 1025 1303 1236 862 
Q 1447 422 1925 422 
Q 2406 422 2617 861 
Q 2828 1300 2828 2328 
z
M 3488 2328 
Q 3488 1109 3102 509 
Q 2716 -91 1925 -91 
Q 1134 -91 750 506 
Q 366 1103 366 2328 
Q 366 3550 752 4150 
Q 1138 4750 1925 4750 
Q 2716 4750 3102 4150 
Q 3488 3550 3488 2328 
z
" transform="scale(0.015625)"/>
     </defs>
     <use xlink:href="#DejaVuSansMono-45"/>
     <use xlink:href="#DejaVuSansMono-52" transform="translate(60.205078 0)"/>
     <use xlink:href="#DejaVuSansMono-52" transform="translate(120.410156 0)"/>
     <use xlink:href="#DejaVuSansMono-5f" transform="translate(180.615234 0)"/>
     <use xlink:href="#DejaVuSansMono-43" transform="translate(240.820312 0)"/>
     <use xlink:href="#DejaVuSansMono-4f" transform="translate(301.025391 0)"/>
     <use xlink:href="#DejaVuSansMono-44" transform="translate(361.230469 0)"/>
     <use xlink:href="#DejaVuSansMono-45" transform="translate(421.435547 0)"/>
     <use xlink:href="#DejaVuSansMono-2c" transform="translate(481.640625 0)"/>
     <use xlink:href="#DejaVuSansMono-20" transform="translate(541.845703 0)"/>
     <use xlink:href="#DejaVuSansMono-45" transform="translate(602.050781 0)"/>
     <use xlink:href="#DejaVuSansMono-52" transform="translate(662.255859 0)"/>
     <use xlink:href="#DejaVuSansMono-52" transform="translate(722.460938 0)"/>
     <use xlink:href="#DejaVuSansMono-5f" transform="translate(782.666016 0)"/>
     <use xlink:href="#DejaVuSansMono-50" transform="translate(842.871094 0)"/>
     <use xlink:href="#DejaVuSansMono-43" transform="translate(903.076172 0)"/>
     <use xlink:href="#DejaVuSansMono-2c" transform="translate(963.28125 0)"/>
     <use xlink:href="#DejaVuSansMono-20" transform="translate(1023.486328 0)"/>
     <use xlink:href="#DejaVuSansMono-45" transform="translate(1083.691406 0)"/>
     <use xlink:href="#DejaVuSansMono-52" transform="translate(1143.896484 0)"/>
     <use xlink:href="#DejaVuSansMono-52" transform="translate(1204.101562 0)"/>
     <use xlink:href="#DejaVuSansMono-5f" transform="translate(1264.306641 0)"/>
     <use xlink:href="#DejaVuSansMono-57" transform="translate(1324.511719 0)"/>
     <use xlink:href="#DejaVuSansMono-41" transform="translate(1384.716797 0)"/>
     <use xlink:href="#DejaVuSansMono-52" transform="translate(1444.921875 0)"/>
     <use xlink:href="#DejaVuSansMono-50" transform="translate(1505.126953 0)"/>
     <use xlink:href="#DejaVuSansMono-2c" transform="translate(1565.332031 0)"/>
     <use xlink:href="#DejaVuSansMono-20" transform="translate(1625.537109 0)"/>
     <use xlink:href="#DejaVuSansMono-45" transform="translate(1685.742188 0)"/>
     <use xlink:href="#DejaVuSansMono-52" transform="translate(1745.947266 0)"/>
     <use xlink:href="#DejaVuSansMono-52" transform="translate(1806.152344 0)"/>
     <use xlink:href="#DejaVuSansMono-5f" transform="translate(1866.357422 0)"/>
     <use xlink:href="#DejaVuSansMono-54" transform="translate(1926.5625 0)"/>
     <use xlink:href="#DejaVuSansMono-48" transform="translate(1986.767578 0)"/>
     <use xlink:href="#DejaVuSansMono-52" transform="translate(2046.972656 0)"/>
     <use xlink:href="#DejaVuSansMono-45" transform="translate(2107.177734 0)"/>
     <use xlink:href="#DejaVuSansMono-41" transform="translate(2167.382812 0)"/>
     <use xlink:href="#DejaVuSansMono-44" transform="translate(2227.587891 0)"/>
    </g>
   </g>
   <g id="text_17">
    <!-- KILL_ALL -->
    <g style="fill: #ff0000" transform="translate(78.839354 199.35375) scale(0.08 -0.08)">
     <defs>
      <path id="DejaVuSansMono-4b" d="M 428 4666 
L 1063 4666 
L 1063 2591 
L 3034 4666 
L 3775 4666 
L 1959 2759 
L 3828 0 
L 3066 0 
L 1544 2338 
L 1063 1825 
L 1063 0 
L 428 0 
L 428 4666 
z
" transform="scale(0.015625)"/>
     </defs>
     <use xlink:href="#DejaVuSansMono-4b"/>
     <use xlink:href="#DejaVuSansMono-49" transform="translate(60.205078 0)"/>
     <use xlink:href="#DejaVuSansMono-4c" transform="translate(120.410156 0)"/>
     <use xlink:href="#DejaVuSansMono-4c" transform="translate(180.615234 0)"/>
     <use xlink:href="#DejaVuSansMono-5f" transform="translate(240.820312 0)"/>
     <use xlink:href="#DejaVuSansMono-41" transform="translate(301.025391 0)"/>
     <use xlink:href="#DejaVuSansMono-4c" transform="translate(361.230469 0)"/>
     <use xlink:href="#DejaVuSansMono-4c" transform="translate(421.435547 0)"/>
    </g>
   </g>
   <g id="text_18">
    <!-- kill_warps -->
    <g transform="translate(490.849104 201.29415) scale(0.08 -0.08)">
     <defs>
      <path id="DejaVuSansMono-6b" d="M 738 4863 
L 1331 4863 
L 1331 2047 
L 2841 3500 
L 3541 3500 
L 2163 2181 
L 3756 0 
L 3053 0 
L 1759 1806 
L 1331 1403 
L 1331 0 
L 738 0 
L 738 4863 
z
" transform="scale(0.015625)"/>
     </defs>
     <use xlink:href="#DejaVuSansMono-6b"/>
     <use xlink:href="#DejaVuSansMono-69" transform="translate(60.205078 0)"/>
     <use xlink:href="#DejaVuSansMono-6c" transform="translate(120.410156 0)"/>
     <use xlink:href="#DejaVuSansMono-6c" transform="translate(180.615234 0)"/>
     <use xlink:href="#DejaVuSansMono-5f" transform="translate(240.820312 0)"/>
     <use xlink:href="#DejaVuSansMono-77" transform="translate(301.025391 0)"/>
     <use xlink:href="#DejaVuSansMono-61" transform="translate(361.230469 0)"/>
     <use xlink:href="#DejaVuSansMono-72" transform="translate(421.435547 0)"/>
     <use xlink:href="#DejaVuSansMono-70" transform="translate(481.640625 0)"/>
     <use xlink:href="#DejaVuSansMono-73" transform="translate(541.845703 0)"/>
    </g>
   </g>
  </g>
 </g>
 <defs>
  <clipPath id="p9949e3973f">
   <rect x="57.928354" y="7.2" width="669.6" height="388.08"/>
  </clipPath>
 </defs>
</svg>
