<?xml version="1.0" encoding="UTF-8"?>
<svg id="Layer_1" data-name="Layer 1" xmlns="http://www.w3.org/2000/svg" viewBox="0 0 828 437">
  <defs>
    <style>
      .cls-1, .cls-2 {
        font-family: Helvetica, Helvetica;
        font-size: 12px;
      }

      .cls-2, .cls-3, .cls-4 {
        fill: #666;
      }

      .cls-5 {
        stroke-dasharray: .996 .996;
      }

      .cls-5, .cls-6, .cls-7, .cls-8, .cls-9, .cls-10, .cls-11 {
        stroke-miterlimit: 10;
      }

      .cls-5, .cls-6, .cls-7, .cls-8, .cls-10 {
        stroke: #666;
      }

      .cls-5, .cls-6, .cls-7, .cls-8, .cls-10, .cls-11 {
        fill: none;
      }

      .cls-6 {
        stroke-dasharray: 1.003 1.003;
      }

      .cls-7 {
        stroke-dasharray: 1 1;
      }

      .cls-8 {
        stroke-dasharray: .999 .999;
      }

      .cls-3 {
        font-family: InputMonoNarrow-Regular, 'Input Mono Narrow';
        font-size: 10px;
      }

      .cls-9, .cls-12 {
        fill: #fff;
      }

      .cls-9, .cls-11 {
        stroke: #000;
      }

      .cls-13 {
        letter-spacing: -.055em;
      }

      .cls-14 {
        letter-spacing: -.037em;
      }
    </style>
  </defs>
  <g>
    <rect class="cls-12" x="83.56" y="68.5" width="93.042" height="84"/>
    <path d="M176.102,69v83h-92.042v-83h92.042M177.102,68h-94.042v85h94.042v-85h0Z"/>
  </g>
  <text class="cls-1" transform="translate(103.169 61.714)"><tspan x="0" y="0">L0i$: 4KB DM</tspan></text>
  <text class="cls-1" transform="translate(34.169 193.714)"><tspan x="0" y="0">L1: 64KB 4wS</tspan><tspan class="cls-13" x="76.049" y="0">A</tspan></text>
  <text class="cls-1" transform="translate(515.169 193.714)"><tspan x="0" y="0">L1</tspan></text>
  <g>
    <line class="cls-10" x1="84.542" y1="110.5" x2="85.042" y2="110.5"/>
    <line class="cls-8" x1="86.041" y1="110.5" x2="175.458" y2="110.5"/>
    <line class="cls-10" x1="175.958" y1="110.5" x2="176.458" y2="110.5"/>
    <polygon class="cls-4" points="86.199 112.545 86.54 112.179 84.734 110.5 86.54 108.822 86.199 108.456 84 110.5 86.199 112.545"/>
    <polygon class="cls-4" points="174.801 112.545 174.46 112.179 176.266 110.5 174.46 108.822 174.801 108.456 177 110.5 174.801 112.545"/>
  </g>
  <g>
    <rect class="cls-12" x="120" y="104" width="20" height="11"/>
    <text class="cls-3" transform="translate(120.825 113.721)"><tspan x="0" y="0">64B</tspan></text>
  </g>
  <g>
    <rect class="cls-12" x="226.56" y="68.5" width="93.042" height="21"/>
    <path d="M319.102,69v20h-92.042v-20h92.042M320.102,68h-94.042v22h94.042v-22h0Z"/>
  </g>
  <g>
    <rect class="cls-12" x="226.56" y="89.5" width="93.042" height="21"/>
    <path d="M319.102,90v20h-92.042v-20h92.042M320.102,89h-94.042v22h94.042v-22h0Z"/>
  </g>
  <g>
    <rect class="cls-12" x="226.56" y="110.5" width="93.042" height="21"/>
    <path d="M319.102,111v20h-92.042v-20h92.042M320.102,110h-94.042v22h94.042v-22h0Z"/>
  </g>
  <g>
    <rect class="cls-12" x="226.56" y="131.5" width="93.042" height="21"/>
    <path d="M319.102,132v20h-92.042v-20h92.042M320.102,131h-94.042v22h94.042v-22h0Z"/>
  </g>
  <path class="cls-4" d="M342,38h-2v1h2v-1h0ZM338,38h-2v1h2v-1h0ZM334,38h-2v1h2v-1h0ZM330,38h-2v1h2v-1h0ZM326,38h-2v1h2v-1h0ZM322,38h-2v1h2v-1h0ZM318,38h-2v1h2v-1h0ZM314,38h-2v1h2v-1h0ZM310,38h-2v1h2v-1h0ZM306,38h-2v1h2v-1h0ZM302,38h-2v1h2v-1h0ZM298,38h-2v1h2v-1h0ZM294,38h-2v1h2v-1h0ZM290,38h-2v1h2v-1h0ZM286,38h-2v1h2v-1h0ZM282,38h-2v1h2v-1h0ZM278,38h-2v1h2v-1h0ZM274,38h-2v1h2v-1h0ZM270,38h-2v1h2v-1h0ZM266,38h-2v1h2v-1h0ZM262,38h-2v1h2v-1h0ZM258,38h-2v1h2v-1h0ZM254,38h-2v1h2v-1h0ZM250,38h-2v1h2v-1h0ZM246,38h-2v1h2v-1h0ZM242,38h-2v1h2v-1h0ZM238,38h-2v1h2v-1h0ZM234,38h-2v1h2v-1h0ZM230,38h-2v1h2v-1h0ZM226,38h-2v1h2v-1h0ZM222,38h-2v1h2v-1h0ZM218,38h-2v1h2v-1h0ZM214,38h-2v1h2v-1h0ZM210,38h-2v1h2v-1h0ZM206,38h-2v1h2v-1h0ZM202,38h-2v1h2v-1h0ZM198,38h-2v1h2v-1h0ZM194,38h-2v1h2v-1h0ZM190,38h-2v1h2v-1h0ZM186,38h-2v1h2v-1h0ZM182,38h-2v1h2v-1h0ZM178,38h-2v1h2v-1h0ZM174,38h-2v1h2v-1h0ZM170,38h-2v1h2v-1h0ZM166,38h-2v1h2v-1h0ZM162,38h-2v1h2v-1h0ZM158,38h-2v1h2v-1h0ZM154,38h-2v1h2v-1h0ZM150,38h-2v1h2v-1h0ZM146,38h-2v1h2v-1h0ZM142,38h-2v1h2v-1h0ZM138,38h-2v1h2v-1h0ZM134,38h-2v1h2v-1h0ZM130,38h-2v1h2v-1h0ZM126,38h-2v1h2v-1h0ZM122,38h-2v1h2v-1h0ZM118,38h-2v1h2v-1h0ZM114,38h-2v1h2v-1h0ZM110,38h-2v1h2v-1h0ZM106,38h-2v1h2v-1h0ZM102,38h-2v1h2v-1h0ZM98,38h-2v1h2v-1h0ZM94,38h-2v1h2v-1h0ZM90,38h-2v1h2v-1h0ZM86,38h-2v1h2v-1h0ZM82,38h-2v1h2v-1h0ZM78,38h-2v1h2v-1h0ZM74,38h-2v1h2v-1h0ZM70,38h-2v1h2v-1h0ZM66,38h-2v1h2v-1h0ZM62,38h-2v1h2v-1h0ZM58,38h-2v1h2v-1h0ZM54,38h-2v1h2v-1h0ZM50,38h-2v1h2v-1h0ZM46,38h-2v1h2v-1h0ZM42,38h-2v1h2v-1h0ZM38,38h-2v1h2v-1h0ZM35,38h-1v2h1v-2h0ZM35,42h-1v2h1v-2h0ZM35,46h-1v2h1v-2h0ZM35,50h-1v2h1v-2h0ZM35,54h-1v2h1v-2h0ZM35,58h-1v2h1v-2h0ZM35,62h-1v2h1v-2h0ZM35,66h-1v2h1v-2h0ZM35,70h-1v2h1v-2h0ZM35,74h-1v2h1v-2h0ZM35,78h-1v2h1v-2h0ZM35,82h-1v2h1v-2h0ZM35,86h-1v2h1v-2h0ZM35,90h-1v2h1v-2h0ZM35,94h-1v2h1v-2h0ZM35,98h-1v2h1v-2h0ZM35,102h-1v2h1v-2h0ZM35,106h-1v2h1v-2h0ZM35,110h-1v2h1v-2h0ZM35,114h-1v2h1v-2h0ZM35,118h-1v2h1v-2h0ZM35,122h-1v2h1v-2h0ZM35,126h-1v2h1v-2h0ZM35,130h-1v2h1v-2h0ZM35,134h-1v2h1v-2h0ZM35,138h-1v2h1v-2h0ZM35,142h-1v2h1v-2h0ZM35,146h-1v2h1v-2h0ZM35,150h-1v2h1v-2h0ZM35,154h-1v2h1v-2h0ZM35,158h-1v2h1v-2h0ZM35,162h-1v2h1v-2h0ZM36,165h-2v1h2v-1h0ZM40,165h-2v1h2v-1h0ZM44,165h-2v1h2v-1h0ZM48,165h-2v1h2v-1h0ZM52,165h-2v1h2v-1h0ZM56,165h-2v1h2v-1h0ZM60,165h-2v1h2v-1h0ZM64,165h-2v1h2v-1h0ZM68,165h-2v1h2v-1h0ZM72,165h-2v1h2v-1h0ZM76,165h-2v1h2v-1h0ZM80,165h-2v1h2v-1h0ZM84,165h-2v1h2v-1h0ZM88,165h-2v1h2v-1h0ZM92,165h-2v1h2v-1h0ZM96,165h-2v1h2v-1h0ZM100,165h-2v1h2v-1h0ZM104,165h-2v1h2v-1h0ZM108,165h-2v1h2v-1h0ZM112,165h-2v1h2v-1h0ZM116,165h-2v1h2v-1h0ZM120,165h-2v1h2v-1h0ZM124,165h-2v1h2v-1h0ZM128,165h-2v1h2v-1h0ZM132,165h-2v1h2v-1h0ZM136,165h-2v1h2v-1h0ZM140,165h-2v1h2v-1h0ZM144,165h-2v1h2v-1h0ZM148,165h-2v1h2v-1h0ZM152,165h-2v1h2v-1h0ZM156,165h-2v1h2v-1h0ZM160,165h-2v1h2v-1h0ZM164,165h-2v1h2v-1h0ZM168,165h-2v1h2v-1h0ZM172,165h-2v1h2v-1h0ZM176,165h-2v1h2v-1h0ZM180,165h-2v1h2v-1h0ZM184,165h-2v1h2v-1h0ZM188,165h-2v1h2v-1h0ZM192,165h-2v1h2v-1h0ZM196,165h-2v1h2v-1h0ZM200,165h-2v1h2v-1h0ZM204,165h-2v1h2v-1h0ZM208,165h-2v1h2v-1h0ZM212,165h-2v1h2v-1h0ZM216,165h-2v1h2v-1h0ZM220,165h-2v1h2v-1h0ZM224,165h-2v1h2v-1h0ZM228,165h-2v1h2v-1h0ZM232,165h-2v1h2v-1h0ZM236,165h-2v1h2v-1h0ZM240,165h-2v1h2v-1h0ZM244,165h-2v1h2v-1h0ZM248,165h-2v1h2v-1h0ZM252,165h-2v1h2v-1h0ZM256,165h-2v1h2v-1h0ZM260,165h-2v1h2v-1h0ZM264,165h-2v1h2v-1h0ZM268,165h-2v1h2v-1h0ZM272,165h-2v1h2v-1h0ZM276,165h-2v1h2v-1h0ZM280,165h-2v1h2v-1h0ZM284,165h-2v1h2v-1h0ZM288,165h-2v1h2v-1h0ZM292,165h-2v1h2v-1h0ZM296,165h-2v1h2v-1h0ZM300,165h-2v1h2v-1h0ZM304,165h-2v1h2v-1h0ZM308,165h-2v1h2v-1h0ZM312,165h-2v1h2v-1h0ZM316,165h-2v1h2v-1h0ZM320,165h-2v1h2v-1h0ZM324,165h-2v1h2v-1h0ZM328,165h-2v1h2v-1h0ZM332,165h-2v1h2v-1h0ZM336,165h-2v1h2v-1h0ZM340,165h-2v1h2v-1h0ZM342,164h-1v2h1v-2h0ZM342,160h-1v2h1v-2h0ZM342,156h-1v2h1v-2h0ZM342,152h-1v2h1v-2h0ZM342,148h-1v2h1v-2h0ZM342,144h-1v2h1v-2h0ZM342,140h-1v2h1v-2h0ZM342,136h-1v2h1v-2h0ZM342,132h-1v2h1v-2h0ZM342,128h-1v2h1v-2h0ZM342,124h-1v2h1v-2h0ZM342,120h-1v2h1v-2h0ZM342,116h-1v2h1v-2h0ZM342,112h-1v2h1v-2h0ZM342,108h-1v2h1v-2h0ZM342,104h-1v2h1v-2h0ZM342,100h-1v2h1v-2h0ZM342,96h-1v2h1v-2h0ZM342,92h-1v2h1v-2h0ZM342,88h-1v2h1v-2h0ZM342,84h-1v2h1v-2h0ZM342,80h-1v2h1v-2h0ZM342,76h-1v2h1v-2h0ZM342,72h-1v2h1v-2h0ZM342,68h-1v2h1v-2h0ZM342,64h-1v2h1v-2h0ZM342,60h-1v2h1v-2h0ZM342,56h-1v2h1v-2h0ZM342,52h-1v2h1v-2h0ZM342,48h-1v2h1v-2h0ZM342,44h-1v2h1v-2h0ZM342,40h-1v2h1v-2h0Z"/>
  <text class="cls-1" transform="translate(225.169 61.714)"><tspan x="0" y="0">L0d$: 16KB DM</tspan></text>
  <g>
    <line class="cls-10" x1="227.542" y1="78.5" x2="228.042" y2="78.5"/>
    <line class="cls-8" x1="229.041" y1="78.5" x2="318.458" y2="78.5"/>
    <line class="cls-10" x1="318.958" y1="78.5" x2="319.458" y2="78.5"/>
    <polygon class="cls-4" points="229.199 80.545 229.54 80.179 227.734 78.5 229.54 76.822 229.199 76.456 227 78.5 229.199 80.545"/>
    <polygon class="cls-4" points="317.801 80.545 317.46 80.179 319.266 78.5 317.46 76.822 317.801 76.456 320 78.5 317.801 80.545"/>
  </g>
  <g>
    <rect class="cls-12" x="263" y="72" width="20" height="11"/>
    <text class="cls-3" transform="translate(263.825 81.721)"><tspan x="0" y="0">64B</tspan></text>
  </g>
  <g>
    <line class="cls-11" x1="66.088" y1="110.5" x2="79.412" y2="110.5"/>
    <polygon points="66.818 112.993 62.5 110.5 66.818 108.007 66.818 112.993"/>
    <polygon points="78.683 112.993 83 110.5 78.683 108.007 78.683 112.993"/>
  </g>
  <text class="cls-2" transform="translate(43.16 57.221)"><tspan x="0" y="0">Core 0</tspan></text>
  <text class="cls-2" transform="translate(31.16 29.221)"><tspan x="0" y="0">Cluster 0</tspan></text>
  <g>
    <line class="cls-11" x1="209.088" y1="78.5" x2="222.412" y2="78.5"/>
    <polygon points="209.818 80.993 205.5 78.5 209.818 76.007 209.818 80.993"/>
    <polygon points="221.683 80.993 226 78.5 221.683 76.007 221.683 80.993"/>
  </g>
  <g>
    <line class="cls-11" x1="209.088" y1="99.5" x2="222.412" y2="99.5"/>
    <polygon points="209.818 101.993 205.5 99.5 209.818 97.007 209.818 101.993"/>
    <polygon points="221.683 101.993 226 99.5 221.683 97.007 221.683 101.993"/>
  </g>
  <g>
    <line class="cls-11" x1="209.088" y1="120.5" x2="222.412" y2="120.5"/>
    <polygon points="209.818 122.993 205.5 120.5 209.818 118.007 209.818 122.993"/>
    <polygon points="221.683 122.993 226 120.5 221.683 118.007 221.683 122.993"/>
  </g>
  <g>
    <line class="cls-11" x1="209.088" y1="141.5" x2="222.412" y2="141.5"/>
    <polygon points="209.818 143.993 205.5 141.5 209.818 139.007 209.818 143.993"/>
    <polygon points="221.683 143.993 226 141.5 221.683 139.007 221.683 143.993"/>
  </g>
  <g>
    <line class="cls-11" x1="168.088" y1="241.5" x2="181.412" y2="241.5"/>
    <polygon points="168.818 243.993 164.5 241.5 168.818 239.007 168.818 243.993"/>
    <polygon points="180.683 243.993 185 241.5 180.683 239.007 180.683 243.993"/>
  </g>
  <g>
    <rect class="cls-12" x="367.56" y="68.5" width="41.27" height="84"/>
    <path d="M408.33,69v83h-40.27v-83h40.27M409.33,68h-42.27v85h42.27v-85h0Z"/>
  </g>
  <g>
    <rect class="cls-12" x="420.229" y="68.5" width="41.271" height="21"/>
    <path d="M461,69v20h-40.27v-20h40.27M462,68h-42.27v22h42.27v-22h0Z"/>
  </g>
  <g>
    <rect class="cls-12" x="420.229" y="89.5" width="41.271" height="21"/>
    <path d="M461,90v20h-40.27v-20h40.27M462,89h-42.27v22h42.27v-22h0Z"/>
  </g>
  <g>
    <rect class="cls-12" x="420.229" y="110.5" width="41.271" height="21"/>
    <path d="M461,111v20h-40.27v-20h40.27M462,110h-42.27v22h42.27v-22h0Z"/>
  </g>
  <g>
    <rect class="cls-12" x="420.229" y="131.5" width="41.271" height="21"/>
    <path d="M461,132v20h-40.27v-20h40.27M462,131h-42.27v22h42.27v-22h0Z"/>
  </g>
  <path class="cls-4" d="M474,38h-2v1h2v-1h0ZM470,38h-2v1h2v-1h0ZM466,38h-2v1h2v-1h0ZM462,38h-2v1h2v-1h0ZM458,38h-2v1h2v-1h0ZM454,38h-2v1h2v-1h0ZM450,38h-2v1h2v-1h0ZM446,38h-2v1h2v-1h0ZM442,38h-2v1h2v-1h0ZM438,38h-2v1h2v-1h0ZM434,38h-2v1h2v-1h0ZM430,38h-2v1h2v-1h0ZM426,38h-2v1h2v-1h0ZM422,38h-2v1h2v-1h0ZM418,38h-2v1h2v-1h0ZM414,38h-2v1h2v-1h0ZM410,38h-2v1h2v-1h0ZM406,38h-2v1h2v-1h0ZM402,38h-2v1h2v-1h0ZM398,38h-2v1h2v-1h0ZM394,38h-2v1h2v-1h0ZM390,38h-2v1h2v-1h0ZM386,38h-2v1h2v-1h0ZM382,38h-2v1h2v-1h0ZM378,38h-2v1h2v-1h0ZM374,38h-2v1h2v-1h0ZM370,38h-2v1h2v-1h0ZM366,38h-2v1h2v-1h0ZM362,38h-2v1h2v-1h0ZM358,38h-2v1h2v-1h0ZM357,40h-1v2h1v-2h0ZM357,44h-1v2h1v-2h0ZM357,48h-1v2h1v-2h0ZM357,52h-1v2h1v-2h0ZM357,56h-1v2h1v-2h0ZM357,60h-1v2h1v-2h0ZM357,64h-1v2h1v-2h0ZM357,68h-1v2h1v-2h0ZM357,72h-1v2h1v-2h0ZM357,76h-1v2h1v-2h0ZM357,80h-1v2h1v-2h0ZM357,84h-1v2h1v-2h0ZM357,88h-1v2h1v-2h0ZM357,92h-1v2h1v-2h0ZM357,96h-1v2h1v-2h0ZM357,100h-1v2h1v-2h0ZM357,104h-1v2h1v-2h0ZM357,108h-1v2h1v-2h0ZM357,112h-1v2h1v-2h0ZM357,116h-1v2h1v-2h0ZM357,120h-1v2h1v-2h0ZM357,124h-1v2h1v-2h0ZM357,128h-1v2h1v-2h0ZM357,132h-1v2h1v-2h0ZM357,136h-1v2h1v-2h0ZM357,140h-1v2h1v-2h0ZM357,144h-1v2h1v-2h0ZM357,148h-1v2h1v-2h0ZM357,152h-1v2h1v-2h0ZM357,156h-1v2h1v-2h0ZM357,160h-1v2h1v-2h0ZM357,164h-1v2h1v-2h0ZM360,165h-2v1h2v-1h0ZM364,165h-2v1h2v-1h0ZM368,165h-2v1h2v-1h0ZM372,165h-2v1h2v-1h0ZM376,165h-2v1h2v-1h0ZM380,165h-2v1h2v-1h0ZM384,165h-2v1h2v-1h0ZM388,165h-2v1h2v-1h0ZM392,165h-2v1h2v-1h0ZM396,165h-2v1h2v-1h0ZM400,165h-2v1h2v-1h0ZM404,165h-2v1h2v-1h0ZM408,165h-2v1h2v-1h0ZM412,165h-2v1h2v-1h0ZM416,165h-2v1h2v-1h0ZM420,165h-2v1h2v-1h0ZM424,165h-2v1h2v-1h0ZM428,165h-2v1h2v-1h0ZM432,165h-2v1h2v-1h0ZM436,165h-2v1h2v-1h0ZM440,165h-2v1h2v-1h0ZM444,165h-2v1h2v-1h0ZM448,165h-2v1h2v-1h0ZM452,165h-2v1h2v-1h0ZM456,165h-2v1h2v-1h0ZM460,165h-2v1h2v-1h0ZM464,165h-2v1h2v-1h0ZM468,165h-2v1h2v-1h0ZM472,165h-2v1h2v-1h0ZM474,164h-1v2h1v-2h0ZM474,160h-1v2h1v-2h0ZM474,156h-1v2h1v-2h0ZM474,152h-1v2h1v-2h0ZM474,148h-1v2h1v-2h0ZM474,144h-1v2h1v-2h0ZM474,140h-1v2h1v-2h0ZM474,136h-1v2h1v-2h0ZM474,132h-1v2h1v-2h0ZM474,128h-1v2h1v-2h0ZM474,124h-1v2h1v-2h0ZM474,120h-1v2h1v-2h0ZM474,116h-1v2h1v-2h0ZM474,112h-1v2h1v-2h0ZM474,108h-1v2h1v-2h0ZM474,104h-1v2h1v-2h0ZM474,100h-1v2h1v-2h0ZM474,96h-1v2h1v-2h0ZM474,92h-1v2h1v-2h0ZM474,88h-1v2h1v-2h0ZM474,84h-1v2h1v-2h0ZM474,80h-1v2h1v-2h0ZM474,76h-1v2h1v-2h0ZM474,72h-1v2h1v-2h0ZM474,68h-1v2h1v-2h0ZM474,64h-1v2h1v-2h0ZM474,60h-1v2h1v-2h0ZM474,56h-1v2h1v-2h0ZM474,52h-1v2h1v-2h0ZM474,48h-1v2h1v-2h0ZM474,44h-1v2h1v-2h0ZM474,40h-1v2h1v-2h0Z"/>
  <text class="cls-2" transform="translate(366.16 57.221)"><tspan x="0" y="0">Core 1</tspan></text>
  <g>
    <rect class="cls-12" x="526.56" y="68.5" width="41.271" height="84"/>
    <path d="M567.33,69v83h-40.27v-83h40.27M568.33,68h-42.27v85h42.27v-85h0Z"/>
  </g>
  <g>
    <rect class="cls-12" x="579.229" y="68.5" width="41.271" height="21"/>
    <path d="M620,69v20h-40.27v-20h40.27M621,68h-42.27v22h42.27v-22h0Z"/>
  </g>
  <g>
    <rect class="cls-12" x="579.229" y="89.5" width="41.271" height="21"/>
    <path d="M620,90v20h-40.27v-20h40.27M621,89h-42.27v22h42.27v-22h0Z"/>
  </g>
  <g>
    <rect class="cls-12" x="579.229" y="110.5" width="41.271" height="21"/>
    <path d="M620,111v20h-40.27v-20h40.27M621,110h-42.27v22h42.27v-22h0Z"/>
  </g>
  <g>
    <rect class="cls-12" x="579.229" y="131.5" width="41.271" height="21"/>
    <path d="M620,132v20h-40.27v-20h40.27M621,131h-42.27v22h42.27v-22h0Z"/>
  </g>
  <path class="cls-4" d="M633,38h-2v1h2v-1h0ZM629,38h-2v1h2v-1h0ZM625,38h-2v1h2v-1h0ZM621,38h-2v1h2v-1h0ZM617,38h-2v1h2v-1h0ZM613,38h-2v1h2v-1h0ZM609,38h-2v1h2v-1h0ZM605,38h-2v1h2v-1h0ZM601,38h-2v1h2v-1h0ZM597,38h-2v1h2v-1h0ZM593,38h-2v1h2v-1h0ZM589,38h-2v1h2v-1h0ZM585,38h-2v1h2v-1h0ZM581,38h-2v1h2v-1h0ZM577,38h-2v1h2v-1h0ZM573,38h-2v1h2v-1h0ZM569,38h-2v1h2v-1h0ZM565,38h-2v1h2v-1h0ZM561,38h-2v1h2v-1h0ZM557,38h-2v1h2v-1h0ZM553,38h-2v1h2v-1h0ZM549,38h-2v1h2v-1h0ZM545,38h-2v1h2v-1h0ZM541,38h-2v1h2v-1h0ZM537,38h-2v1h2v-1h0ZM533,38h-2v1h2v-1h0ZM529,38h-2v1h2v-1h0ZM525,38h-2v1h2v-1h0ZM521,38h-2v1h2v-1h0ZM517,38h-2v1h2v-1h0ZM516,40h-1v2h1v-2h0ZM516,44h-1v2h1v-2h0ZM516,48h-1v2h1v-2h0ZM516,52h-1v2h1v-2h0ZM516,56h-1v2h1v-2h0ZM516,60h-1v2h1v-2h0ZM516,64h-1v2h1v-2h0ZM516,68h-1v2h1v-2h0ZM516,72h-1v2h1v-2h0ZM516,76h-1v2h1v-2h0ZM516,80h-1v2h1v-2h0ZM516,84h-1v2h1v-2h0ZM516,88h-1v2h1v-2h0ZM516,92h-1v2h1v-2h0ZM516,96h-1v2h1v-2h0ZM516,100h-1v2h1v-2h0ZM516,104h-1v2h1v-2h0ZM516,108h-1v2h1v-2h0ZM516,112h-1v2h1v-2h0ZM516,116h-1v2h1v-2h0ZM516,120h-1v2h1v-2h0ZM516,124h-1v2h1v-2h0ZM516,128h-1v2h1v-2h0ZM516,132h-1v2h1v-2h0ZM516,136h-1v2h1v-2h0ZM516,140h-1v2h1v-2h0ZM516,144h-1v2h1v-2h0ZM516,148h-1v2h1v-2h0ZM516,152h-1v2h1v-2h0ZM516,156h-1v2h1v-2h0ZM516,160h-1v2h1v-2h0ZM516,164h-1v2h1v-2h0ZM519,165h-2v1h2v-1h0ZM523,165h-2v1h2v-1h0ZM527,165h-2v1h2v-1h0ZM531,165h-2v1h2v-1h0ZM535,165h-2v1h2v-1h0ZM539,165h-2v1h2v-1h0ZM543,165h-2v1h2v-1h0ZM547,165h-2v1h2v-1h0ZM551,165h-2v1h2v-1h0ZM555,165h-2v1h2v-1h0ZM559,165h-2v1h2v-1h0ZM563,165h-2v1h2v-1h0ZM567,165h-2v1h2v-1h0ZM571,165h-2v1h2v-1h0ZM575,165h-2v1h2v-1h0ZM579,165h-2v1h2v-1h0ZM583,165h-2v1h2v-1h0ZM587,165h-2v1h2v-1h0ZM591,165h-2v1h2v-1h0ZM595,165h-2v1h2v-1h0ZM599,165h-2v1h2v-1h0ZM603,165h-2v1h2v-1h0ZM607,165h-2v1h2v-1h0ZM611,165h-2v1h2v-1h0ZM615,165h-2v1h2v-1h0ZM619,165h-2v1h2v-1h0ZM623,165h-2v1h2v-1h0ZM627,165h-2v1h2v-1h0ZM631,165h-2v1h2v-1h0ZM633,164h-1v2h1v-2h0ZM633,160h-1v2h1v-2h0ZM633,156h-1v2h1v-2h0ZM633,152h-1v2h1v-2h0ZM633,148h-1v2h1v-2h0ZM633,144h-1v2h1v-2h0ZM633,140h-1v2h1v-2h0ZM633,136h-1v2h1v-2h0ZM633,132h-1v2h1v-2h0ZM633,128h-1v2h1v-2h0ZM633,124h-1v2h1v-2h0ZM633,120h-1v2h1v-2h0ZM633,116h-1v2h1v-2h0ZM633,112h-1v2h1v-2h0ZM633,108h-1v2h1v-2h0ZM633,104h-1v2h1v-2h0ZM633,100h-1v2h1v-2h0ZM633,96h-1v2h1v-2h0ZM633,92h-1v2h1v-2h0ZM633,88h-1v2h1v-2h0ZM633,84h-1v2h1v-2h0ZM633,80h-1v2h1v-2h0ZM633,76h-1v2h1v-2h0ZM633,72h-1v2h1v-2h0ZM633,68h-1v2h1v-2h0ZM633,64h-1v2h1v-2h0ZM633,60h-1v2h1v-2h0ZM633,56h-1v2h1v-2h0ZM633,52h-1v2h1v-2h0ZM633,48h-1v2h1v-2h0ZM633,44h-1v2h1v-2h0ZM633,40h-1v2h1v-2h0Z"/>
  <text class="cls-2" transform="translate(525.16 57.221)"><tspan x="0" y="0">Core 2</tspan></text>
  <g>
    <rect class="cls-12" x="657.56" y="68.5" width="41.271" height="84"/>
    <path d="M698.33,69v83h-40.27v-83h40.27M699.33,68h-42.27v85h42.27v-85h0Z"/>
  </g>
  <g>
    <rect class="cls-12" x="710.229" y="68.5" width="41.271" height="21"/>
    <path d="M751,69v20h-40.27v-20h40.27M752,68h-42.27v22h42.27v-22h0Z"/>
  </g>
  <g>
    <rect class="cls-12" x="710.229" y="89.5" width="41.271" height="21"/>
    <path d="M751,90v20h-40.27v-20h40.27M752,89h-42.27v22h42.27v-22h0Z"/>
  </g>
  <g>
    <rect class="cls-12" x="710.229" y="110.5" width="41.271" height="21"/>
    <path d="M751,111v20h-40.27v-20h40.27M752,110h-42.27v22h42.27v-22h0Z"/>
  </g>
  <g>
    <rect class="cls-12" x="710.229" y="131.5" width="41.271" height="21"/>
    <path d="M751,132v20h-40.27v-20h40.27M752,131h-42.27v22h42.27v-22h0Z"/>
  </g>
  <path class="cls-4" d="M764,38h-2v1h2v-1h0ZM760,38h-2v1h2v-1h0ZM756,38h-2v1h2v-1h0ZM752,38h-2v1h2v-1h0ZM748,38h-2v1h2v-1h0ZM744,38h-2v1h2v-1h0ZM740,38h-2v1h2v-1h0ZM736,38h-2v1h2v-1h0ZM732,38h-2v1h2v-1h0ZM728,38h-2v1h2v-1h0ZM724,38h-2v1h2v-1h0ZM720,38h-2v1h2v-1h0ZM716,38h-2v1h2v-1h0ZM712,38h-2v1h2v-1h0ZM708,38h-2v1h2v-1h0ZM704,38h-2v1h2v-1h0ZM700,38h-2v1h2v-1h0ZM696,38h-2v1h2v-1h0ZM692,38h-2v1h2v-1h0ZM688,38h-2v1h2v-1h0ZM684,38h-2v1h2v-1h0ZM680,38h-2v1h2v-1h0ZM676,38h-2v1h2v-1h0ZM672,38h-2v1h2v-1h0ZM668,38h-2v1h2v-1h0ZM664,38h-2v1h2v-1h0ZM660,38h-2v1h2v-1h0ZM656,38h-2v1h2v-1h0ZM652,38h-2v1h2v-1h0ZM648,38h-2v1h2v-1h0ZM647,40h-1v2h1v-2h0ZM647,44h-1v2h1v-2h0ZM647,48h-1v2h1v-2h0ZM647,52h-1v2h1v-2h0ZM647,56h-1v2h1v-2h0ZM647,60h-1v2h1v-2h0ZM647,64h-1v2h1v-2h0ZM647,68h-1v2h1v-2h0ZM647,72h-1v2h1v-2h0ZM647,76h-1v2h1v-2h0ZM647,80h-1v2h1v-2h0ZM647,84h-1v2h1v-2h0ZM647,88h-1v2h1v-2h0ZM647,92h-1v2h1v-2h0ZM647,96h-1v2h1v-2h0ZM647,100h-1v2h1v-2h0ZM647,104h-1v2h1v-2h0ZM647,108h-1v2h1v-2h0ZM647,112h-1v2h1v-2h0ZM647,116h-1v2h1v-2h0ZM647,120h-1v2h1v-2h0ZM647,124h-1v2h1v-2h0ZM647,128h-1v2h1v-2h0ZM647,132h-1v2h1v-2h0ZM647,136h-1v2h1v-2h0ZM647,140h-1v2h1v-2h0ZM647,144h-1v2h1v-2h0ZM647,148h-1v2h1v-2h0ZM647,152h-1v2h1v-2h0ZM647,156h-1v2h1v-2h0ZM647,160h-1v2h1v-2h0ZM647,164h-1v2h1v-2h0ZM650,165h-2v1h2v-1h0ZM654,165h-2v1h2v-1h0ZM658,165h-2v1h2v-1h0ZM662,165h-2v1h2v-1h0ZM666,165h-2v1h2v-1h0ZM670,165h-2v1h2v-1h0ZM674,165h-2v1h2v-1h0ZM678,165h-2v1h2v-1h0ZM682,165h-2v1h2v-1h0ZM686,165h-2v1h2v-1h0ZM690,165h-2v1h2v-1h0ZM694,165h-2v1h2v-1h0ZM698,165h-2v1h2v-1h0ZM702,165h-2v1h2v-1h0ZM706,165h-2v1h2v-1h0ZM710,165h-2v1h2v-1h0ZM714,165h-2v1h2v-1h0ZM718,165h-2v1h2v-1h0ZM722,165h-2v1h2v-1h0ZM726,165h-2v1h2v-1h0ZM730,165h-2v1h2v-1h0ZM734,165h-2v1h2v-1h0ZM738,165h-2v1h2v-1h0ZM742,165h-2v1h2v-1h0ZM746,165h-2v1h2v-1h0ZM750,165h-2v1h2v-1h0ZM754,165h-2v1h2v-1h0ZM758,165h-2v1h2v-1h0ZM762,165h-2v1h2v-1h0ZM764,164h-1v2h1v-2h0ZM764,160h-1v2h1v-2h0ZM764,156h-1v2h1v-2h0ZM764,152h-1v2h1v-2h0ZM764,148h-1v2h1v-2h0ZM764,144h-1v2h1v-2h0ZM764,140h-1v2h1v-2h0ZM764,136h-1v2h1v-2h0ZM764,132h-1v2h1v-2h0ZM764,128h-1v2h1v-2h0ZM764,124h-1v2h1v-2h0ZM764,120h-1v2h1v-2h0ZM764,116h-1v2h1v-2h0ZM764,112h-1v2h1v-2h0ZM764,108h-1v2h1v-2h0ZM764,104h-1v2h1v-2h0ZM764,100h-1v2h1v-2h0ZM764,96h-1v2h1v-2h0ZM764,92h-1v2h1v-2h0ZM764,88h-1v2h1v-2h0ZM764,84h-1v2h1v-2h0ZM764,80h-1v2h1v-2h0ZM764,76h-1v2h1v-2h0ZM764,72h-1v2h1v-2h0ZM764,68h-1v2h1v-2h0ZM764,64h-1v2h1v-2h0ZM764,60h-1v2h1v-2h0ZM764,56h-1v2h1v-2h0ZM764,52h-1v2h1v-2h0ZM764,48h-1v2h1v-2h0ZM764,44h-1v2h1v-2h0ZM764,40h-1v2h1v-2h0Z"/>
  <text class="cls-2" transform="translate(656.16 57.221)"><tspan x="0" y="0">Core 3</tspan></text>
  <g>
    <rect class="cls-12" x="34.5" y="199.973" width="130.179" height="84"/>
    <path d="M164.179,200.472v83H35v-83h129.179M165.179,199.472H34v85h131.179v-85h0Z"/>
  </g>
  <g>
    <rect class="cls-12" x="515.764" y="199.5" width="116.736" height="84"/>
    <path d="M632,200v83h-115.736v-83h115.736M633,199h-117.736v85h117.736v-85h0Z"/>
  </g>
  <g>
    <rect class="cls-12" x="83.5" y="331.5" width="378" height="91"/>
    <path d="M461,332v90H84v-90h377M462,331H83v92h379v-92h0Z"/>
  </g>
  <g>
    <rect class="cls-12" x="595.5" y="331.5" width="182" height="91"/>
    <path d="M777,332v90h-181v-90h181M778,331h-183v92h183v-92h0Z"/>
  </g>
  <text class="cls-1" transform="translate(646.239 193.714)"><tspan x="0" y="0">SMEM</tspan></text>
  <g>
    <rect class="cls-12" x="646.5" y="199.5" width="117" height="84"/>
    <path d="M763,200v83h-116v-83h116M764,199h-118v85h118v-85h0Z"/>
  </g>
  <text class="cls-1" transform="translate(344.198 193.242)"><tspan x="0" y="0">SMEM: 64KB</tspan></text>
  <path d="M473,200v83h-127v-83h127M474,199h-129v85h129v-85h0Z"/>
  <g>
    <line class="cls-10" x1="35.042" y1="241.972" x2="35.542" y2="241.972"/>
    <line class="cls-5" x1="36.538" y1="241.972" x2="163.536" y2="241.972"/>
    <line class="cls-10" x1="164.034" y1="241.972" x2="164.534" y2="241.972"/>
    <polygon class="cls-4" points="36.699 244.017 37.04 243.651 35.234 241.973 37.04 240.294 36.699 239.928 34.5 241.973 36.699 244.017"/>
    <polygon class="cls-4" points="162.878 244.017 162.537 243.651 164.343 241.973 162.537 240.294 162.878 239.928 165.077 241.973 162.878 244.017"/>
  </g>
  <g>
    <rect class="cls-12" x="90" y="235" width="20" height="11"/>
    <text class="cls-3" transform="translate(90.825 244.721)"><tspan x="0" y="0">64B</tspan></text>
  </g>
  <g>
    <line class="cls-10" x1="84.542" y1="376.993" x2="85.042" y2="376.993"/>
    <line class="cls-7" x1="86.042" y1="376.993" x2="459.458" y2="376.994"/>
    <line class="cls-10" x1="459.958" y1="376.994" x2="460.458" y2="376.994"/>
    <polygon class="cls-4" points="86.199 379.038 86.54 378.672 84.734 376.994 86.54 375.315 86.199 374.949 84 376.994 86.199 379.038"/>
    <polygon class="cls-4" points="458.801 379.038 458.46 378.672 460.266 376.994 458.46 375.315 458.801 374.949 461 376.994 458.801 379.038"/>
  </g>
  <g>
    <rect class="cls-12" x="262" y="370" width="20" height="11"/>
    <text class="cls-3" transform="translate(259.815 379.721)"><tspan x="0" y="0">128B</tspan></text>
  </g>
  <g>
    <line class="cls-10" x1="346.542" y1="210.5" x2="347.042" y2="210.5"/>
    <line class="cls-6" x1="348.046" y1="210.5" x2="471.956" y2="210.5"/>
    <line class="cls-10" x1="472.458" y1="210.5" x2="472.958" y2="210.5"/>
    <polygon class="cls-4" points="348.199 212.545 348.54 212.179 346.734 210.5 348.54 208.822 348.199 208.456 346 210.5 348.199 212.545"/>
    <polygon class="cls-4" points="471.301 212.545 470.96 212.179 472.766 210.5 470.96 208.822 471.301 208.456 473.5 210.5 471.301 212.545"/>
  </g>
  <g>
    <polyline class="cls-11" points="207.802 208.5 221 208.5 221 172.866 130 172.866 130 156.588"/>
    <polygon points="208.531 210.993 204.214 208.5 208.531 206.007 208.531 210.993"/>
    <polygon points="132.493 157.318 130 153 127.507 157.318 132.493 157.318"/>
  </g>
  <g>
    <polyline class="cls-11" points="205.588 230.5 221 230.5 273.081 230.5 273.081 156.588"/>
    <polygon points="206.318 232.993 202 230.5 206.318 228.007 206.318 232.993"/>
    <polygon points="275.574 157.318 273.081 153 270.588 157.318 275.574 157.318"/>
  </g>
  <g>
    <polyline class="cls-11" points="205.588 252.5 211.082 252.5 291 252.5 291 160.5 388.195 160.5 388.195 156.588"/>
    <polygon points="206.318 254.993 202 252.5 206.318 250.007 206.318 254.993"/>
    <polygon points="390.688 157.318 388.195 153 385.702 157.318 390.688 157.318"/>
  </g>
  <g>
    <polyline class="cls-11" points="205.588 274.5 210.432 274.5 308 274.5 308 170 440.865 170 440.865 156.588"/>
    <polygon points="206.318 276.993 202 274.5 206.318 272.007 206.318 276.993"/>
    <polygon points="443.358 157.318 440.865 153 438.372 157.318 443.358 157.318"/>
  </g>
  <polygon class="cls-11" points="201.5 196.167 201.5 237.276 201.5 244.058 201.5 287.167 185.5 272.167 185.5 243.969 185.5 237.365 185.5 211.167 201.5 196.167"/>
  <path class="cls-4" d="M488,10h-2v1h2v-1h0ZM484,10h-2v1h2v-1h0ZM480,10h-2v1h2v-1h0ZM476,10h-2v1h2v-1h0ZM472,10h-2v1h2v-1h0ZM468,10h-2v1h2v-1h0ZM464,10h-2v1h2v-1h0ZM460,10h-2v1h2v-1h0ZM456,10h-2v1h2v-1h0ZM452,10h-2v1h2v-1h0ZM448,10h-2v1h2v-1h0ZM444,10h-2v1h2v-1h0ZM440,10h-2v1h2v-1h0ZM436,10h-2v1h2v-1h0ZM432,10h-2v1h2v-1h0ZM428,10h-2v1h2v-1h0ZM424,10h-2v1h2v-1h0ZM420,10h-2v1h2v-1h0ZM416,10h-2v1h2v-1h0ZM412,10h-2v1h2v-1h0ZM408,10h-2v1h2v-1h0ZM404,10h-2v1h2v-1h0ZM400,10h-2v1h2v-1h0ZM396,10h-2v1h2v-1h0ZM392,10h-2v1h2v-1h0ZM388,10h-2v1h2v-1h0ZM384,10h-2v1h2v-1h0ZM380,10h-2v1h2v-1h0ZM376,10h-2v1h2v-1h0ZM372,10h-2v1h2v-1h0ZM368,10h-2v1h2v-1h0ZM364,10h-2v1h2v-1h0ZM360,10h-2v1h2v-1h0ZM356,10h-2v1h2v-1h0ZM352,10h-2v1h2v-1h0ZM348,10h-2v1h2v-1h0ZM344,10h-2v1h2v-1h0ZM340,10h-2v1h2v-1h0ZM336,10h-2v1h2v-1h0ZM332,10h-2v1h2v-1h0ZM328,10h-2v1h2v-1h0ZM324,10h-2v1h2v-1h0ZM320,10h-2v1h2v-1h0ZM316,10h-2v1h2v-1h0ZM312,10h-2v1h2v-1h0ZM308,10h-2v1h2v-1h0ZM304,10h-2v1h2v-1h0ZM300,10h-2v1h2v-1h0ZM296,10h-2v1h2v-1h0ZM292,10h-2v1h2v-1h0ZM288,10h-2v1h2v-1h0ZM284,10h-2v1h2v-1h0ZM280,10h-2v1h2v-1h0ZM276,10h-2v1h2v-1h0ZM272,10h-2v1h2v-1h0ZM268,10h-2v1h2v-1h0ZM264,10h-2v1h2v-1h0ZM260,10h-2v1h2v-1h0ZM256,10h-2v1h2v-1h0ZM252,10h-2v1h2v-1h0ZM248,10h-2v1h2v-1h0ZM244,10h-2v1h2v-1h0ZM240,10h-2v1h2v-1h0ZM236,10h-2v1h2v-1h0ZM232,10h-2v1h2v-1h0ZM228,10h-2v1h2v-1h0ZM224,10h-2v1h2v-1h0ZM220,10h-2v1h2v-1h0ZM216,10h-2v1h2v-1h0ZM212,10h-2v1h2v-1h0ZM208,10h-2v1h2v-1h0ZM204,10h-2v1h2v-1h0ZM200,10h-2v1h2v-1h0ZM196,10h-2v1h2v-1h0ZM192,10h-2v1h2v-1h0ZM188,10h-2v1h2v-1h0ZM184,10h-2v1h2v-1h0ZM180,10h-2v1h2v-1h0ZM176,10h-2v1h2v-1h0ZM172,10h-2v1h2v-1h0ZM168,10h-2v1h2v-1h0ZM164,10h-2v1h2v-1h0ZM160,10h-2v1h2v-1h0ZM156,10h-2v1h2v-1h0ZM152,10h-2v1h2v-1h0ZM148,10h-2v1h2v-1h0ZM144,10h-2v1h2v-1h0ZM140,10h-2v1h2v-1h0ZM136,10h-2v1h2v-1h0ZM132,10h-2v1h2v-1h0ZM128,10h-2v1h2v-1h0ZM124,10h-2v1h2v-1h0ZM120,10h-2v1h2v-1h0ZM116,10h-2v1h2v-1h0ZM112,10h-2v1h2v-1h0ZM108,10h-2v1h2v-1h0ZM104,10h-2v1h2v-1h0ZM100,10h-2v1h2v-1h0ZM96,10h-2v1h2v-1h0ZM92,10h-2v1h2v-1h0ZM88,10h-2v1h2v-1h0ZM84,10h-2v1h2v-1h0ZM80,10h-2v1h2v-1h0ZM76,10h-2v1h2v-1h0ZM72,10h-2v1h2v-1h0ZM68,10h-2v1h2v-1h0ZM64,10h-2v1h2v-1h0ZM60,10h-2v1h2v-1h0ZM56,10h-2v1h2v-1h0ZM52,10h-2v1h2v-1h0ZM48,10h-2v1h2v-1h0ZM44,10h-2v1h2v-1h0ZM40,10h-2v1h2v-1h0ZM36,10h-2v1h2v-1h0ZM32,10h-2v1h2v-1h0ZM28,10h-2v1h2v-1h0ZM24,10h-2v1h-1v2h1v-2h2v-1h0ZM22,15h-1v2h1v-2h0ZM22,19h-1v2h1v-2h0ZM22,23h-1v2h1v-2h0ZM22,27h-1v2h1v-2h0ZM22,31h-1v2h1v-2h0ZM22,35h-1v2h1v-2h0ZM22,39h-1v2h1v-2h0ZM22,43h-1v2h1v-2h0ZM22,47h-1v2h1v-2h0ZM22,51h-1v2h1v-2h0ZM22,55h-1v2h1v-2h0ZM22,59h-1v2h1v-2h0ZM22,63h-1v2h1v-2h0ZM22,67h-1v2h1v-2h0ZM22,71h-1v2h1v-2h0ZM22,75h-1v2h1v-2h0ZM22,79h-1v2h1v-2h0ZM22,83h-1v2h1v-2h0ZM22,87h-1v2h1v-2h0ZM22,91h-1v2h1v-2h0ZM22,95h-1v2h1v-2h0ZM22,99h-1v2h1v-2h0ZM22,103h-1v2h1v-2h0ZM22,107h-1v2h1v-2h0ZM22,111h-1v2h1v-2h0ZM22,115h-1v2h1v-2h0ZM22,119h-1v2h1v-2h0ZM22,123h-1v2h1v-2h0ZM22,127h-1v2h1v-2h0ZM22,131h-1v2h1v-2h0ZM22,135h-1v2h1v-2h0ZM22,139h-1v2h1v-2h0ZM22,143h-1v2h1v-2h0ZM22,147h-1v2h1v-2h0ZM22,151h-1v2h1v-2h0ZM22,155h-1v2h1v-2h0ZM22,159h-1v2h1v-2h0ZM22,163h-1v2h1v-2h0ZM22,167h-1v2h1v-2h0ZM22,171h-1v2h1v-2h0ZM22,175h-1v2h1v-2h0ZM22,179h-1v2h1v-2h0ZM22,183h-1v2h1v-2h0ZM22,187h-1v2h1v-2h0ZM22,191h-1v2h1v-2h0ZM22,195h-1v2h1v-2h0ZM22,199h-1v2h1v-2h0ZM22,203h-1v2h1v-2h0ZM22,207h-1v2h1v-2h0ZM22,211h-1v2h1v-2h0ZM22,215h-1v2h1v-2h0ZM22,219h-1v2h1v-2h0ZM22,223h-1v2h1v-2h0ZM22,227h-1v2h1v-2h0ZM22,231h-1v2h1v-2h0ZM22,235h-1v2h1v-2h0ZM22,239h-1v2h1v-2h0ZM22,243h-1v2h1v-2h0ZM22,247h-1v2h1v-2h0ZM22,251h-1v2h1v-2h0ZM22,255h-1v2h1v-2h0ZM22,259h-1v2h1v-2h0ZM22,263h-1v2h1v-2h0ZM22,267h-1v2h1v-2h0ZM22,271h-1v2h1v-2h0ZM22,275h-1v2h1v-2h0ZM22,279h-1v2h1v-2h0ZM22,283h-1v2h1v-2h0ZM22,287h-1v2h1v-2h0ZM22,291h-1v2h1v-2h0ZM22,295h-1v2h1v-2h0ZM22,299h-1v2h1v-2h0ZM25,300h-2v1h2v-1h0ZM29,300h-2v1h2v-1h0ZM33,300h-2v1h2v-1h0ZM37,300h-2v1h2v-1h0ZM41,300h-2v1h2v-1h0ZM45,300h-2v1h2v-1h0ZM49,300h-2v1h2v-1h0ZM53,300h-2v1h2v-1h0ZM57,300h-2v1h2v-1h0ZM61,300h-2v1h2v-1h0ZM65,300h-2v1h2v-1h0ZM69,300h-2v1h2v-1h0ZM73,300h-2v1h2v-1h0ZM77,300h-2v1h2v-1h0ZM81,300h-2v1h2v-1h0ZM85,300h-2v1h2v-1h0ZM89,300h-2v1h2v-1h0ZM93,300h-2v1h2v-1h0ZM97,300h-2v1h2v-1h0ZM101,300h-2v1h2v-1h0ZM105,300h-2v1h2v-1h0ZM109,300h-2v1h2v-1h0ZM113,300h-2v1h2v-1h0ZM117,300h-2v1h2v-1h0ZM121,300h-2v1h2v-1h0ZM125,300h-2v1h2v-1h0ZM129,300h-2v1h2v-1h0ZM133,300h-2v1h2v-1h0ZM137,300h-2v1h2v-1h0ZM141,300h-2v1h2v-1h0ZM145,300h-2v1h2v-1h0ZM149,300h-2v1h2v-1h0ZM153,300h-2v1h2v-1h0ZM157,300h-2v1h2v-1h0ZM161,300h-2v1h2v-1h0ZM165,300h-2v1h2v-1h0ZM169,300h-2v1h2v-1h0ZM173,300h-2v1h2v-1h0ZM177,300h-2v1h2v-1h0ZM181,300h-2v1h2v-1h0ZM185,300h-2v1h2v-1h0ZM189,300h-2v1h2v-1h0ZM193,300h-2v1h2v-1h0ZM197,300h-2v1h2v-1h0ZM201,300h-2v1h2v-1h0ZM205,300h-2v1h2v-1h0ZM209,300h-2v1h2v-1h0ZM213,300h-2v1h2v-1h0ZM217,300h-2v1h2v-1h0ZM221,300h-2v1h2v-1h0ZM225,300h-2v1h2v-1h0ZM229,300h-2v1h2v-1h0ZM233,300h-2v1h2v-1h0ZM237,300h-2v1h2v-1h0ZM241,300h-2v1h2v-1h0ZM245,300h-2v1h2v-1h0ZM249,300h-2v1h2v-1h0ZM253,300h-2v1h2v-1h0ZM257,300h-2v1h2v-1h0ZM261,300h-2v1h2v-1h0ZM265,300h-2v1h2v-1h0ZM269,300h-2v1h2v-1h0ZM273,300h-2v1h2v-1h0ZM277,300h-2v1h2v-1h0ZM281,300h-2v1h2v-1h0ZM285,300h-2v1h2v-1h0ZM289,300h-2v1h2v-1h0ZM293,300h-2v1h2v-1h0ZM297,300h-2v1h2v-1h0ZM301,300h-2v1h2v-1h0ZM305,300h-2v1h2v-1h0ZM309,300h-2v1h2v-1h0ZM313,300h-2v1h2v-1h0ZM317,300h-2v1h2v-1h0ZM321,300h-2v1h2v-1h0ZM325,300h-2v1h2v-1h0ZM329,300h-2v1h2v-1h0ZM333,300h-2v1h2v-1h0ZM337,300h-2v1h2v-1h0ZM341,300h-2v1h2v-1h0ZM345,300h-2v1h2v-1h0ZM349,300h-2v1h2v-1h0ZM353,300h-2v1h2v-1h0ZM357,300h-2v1h2v-1h0ZM361,300h-2v1h2v-1h0ZM365,300h-2v1h2v-1h0ZM369,300h-2v1h2v-1h0ZM373,300h-2v1h2v-1h0ZM377,300h-2v1h2v-1h0ZM381,300h-2v1h2v-1h0ZM385,300h-2v1h2v-1h0ZM389,300h-2v1h2v-1h0ZM393,300h-2v1h2v-1h0ZM397,300h-2v1h2v-1h0ZM401,300h-2v1h2v-1h0ZM405,300h-2v1h2v-1h0ZM409,300h-2v1h2v-1h0ZM413,300h-2v1h2v-1h0ZM417,300h-2v1h2v-1h0ZM421,300h-2v1h2v-1h0ZM425,300h-2v1h2v-1h0ZM429,300h-2v1h2v-1h0ZM433,300h-2v1h2v-1h0ZM437,300h-2v1h2v-1h0ZM441,300h-2v1h2v-1h0ZM445,300h-2v1h2v-1h0ZM449,300h-2v1h2v-1h0ZM453,300h-2v1h2v-1h0ZM457,300h-2v1h2v-1h0ZM461,300h-2v1h2v-1h0ZM465,300h-2v1h2v-1h0ZM469,300h-2v1h2v-1h0ZM473,300h-2v1h2v-1h0ZM477,300h-2v1h2v-1h0ZM481,300h-2v1h2v-1h0ZM485,300h-2v1h2v-1h0ZM488,300h-1v1h1v-1h0ZM488,296h-1v2h1v-2h0ZM488,292h-1v2h1v-2h0ZM488,288h-1v2h1v-2h0ZM488,284h-1v2h1v-2h0ZM488,280h-1v2h1v-2h0ZM488,276h-1v2h1v-2h0ZM488,272h-1v2h1v-2h0ZM488,268h-1v2h1v-2h0ZM488,264h-1v2h1v-2h0ZM488,260h-1v2h1v-2h0ZM488,256h-1v2h1v-2h0ZM488,252h-1v2h1v-2h0ZM488,248h-1v2h1v-2h0ZM488,244h-1v2h1v-2h0ZM488,240h-1v2h1v-2h0ZM488,236h-1v2h1v-2h0ZM488,232h-1v2h1v-2h0ZM488,228h-1v2h1v-2h0ZM488,224h-1v2h1v-2h0ZM488,220h-1v2h1v-2h0ZM488,216h-1v2h1v-2h0ZM488,212h-1v2h1v-2h0ZM488,208h-1v2h1v-2h0ZM488,204h-1v2h1v-2h0ZM488,200h-1v2h1v-2h0ZM488,196h-1v2h1v-2h0ZM488,192h-1v2h1v-2h0ZM488,188h-1v2h1v-2h0ZM488,184h-1v2h1v-2h0ZM488,180h-1v2h1v-2h0ZM488,176h-1v2h1v-2h0ZM488,172h-1v2h1v-2h0ZM488,168h-1v2h1v-2h0ZM488,164h-1v2h1v-2h0ZM488,160h-1v2h1v-2h0ZM488,156h-1v2h1v-2h0ZM488,152h-1v2h1v-2h0ZM488,148h-1v2h1v-2h0ZM488,144h-1v2h1v-2h0ZM488,140h-1v2h1v-2h0ZM488,136h-1v2h1v-2h0ZM488,132h-1v2h1v-2h0ZM488,128h-1v2h1v-2h0ZM488,124h-1v2h1v-2h0ZM488,120h-1v2h1v-2h0ZM488,116h-1v2h1v-2h0ZM488,112h-1v2h1v-2h0ZM488,108h-1v2h1v-2h0ZM488,104h-1v2h1v-2h0ZM488,100h-1v2h1v-2h0ZM488,96h-1v2h1v-2h0ZM488,92h-1v2h1v-2h0ZM488,88h-1v2h1v-2h0ZM488,84h-1v2h1v-2h0ZM488,80h-1v2h1v-2h0ZM488,76h-1v2h1v-2h0ZM488,72h-1v2h1v-2h0ZM488,68h-1v2h1v-2h0ZM488,64h-1v2h1v-2h0ZM488,60h-1v2h1v-2h0ZM488,56h-1v2h1v-2h0ZM488,52h-1v2h1v-2h0ZM488,48h-1v2h1v-2h0ZM488,44h-1v2h1v-2h0ZM488,40h-1v2h1v-2h0ZM488,36h-1v2h1v-2h0ZM488,32h-1v2h1v-2h0ZM488,28h-1v2h1v-2h0ZM488,24h-1v2h1v-2h0ZM488,20h-1v2h1v-2h0ZM488,16h-1v2h1v-2h0ZM488,12h-1v2h1v-2h0Z"/>
  <text class="cls-2" transform="translate(512.16 29.221)"><tspan x="0" y="0">Cluster 1</tspan></text>
  <path class="cls-4" d="M774,10h-2v1h2v-1h0ZM770,10h-2v1h2v-1h0ZM766,10h-2v1h2v-1h0ZM762,10h-2v1h2v-1h0ZM758,10h-2v1h2v-1h0ZM754,10h-2v1h2v-1h0ZM750,10h-2v1h2v-1h0ZM746,10h-2v1h2v-1h0ZM742,10h-2v1h2v-1h0ZM738,10h-2v1h2v-1h0ZM734,10h-2v1h2v-1h0ZM730,10h-2v1h2v-1h0ZM726,10h-2v1h2v-1h0ZM722,10h-2v1h2v-1h0ZM718,10h-2v1h2v-1h0ZM714,10h-2v1h2v-1h0ZM710,10h-2v1h2v-1h0ZM706,10h-2v1h2v-1h0ZM702,10h-2v1h2v-1h0ZM698,10h-2v1h2v-1h0ZM694,10h-2v1h2v-1h0ZM690,10h-2v1h2v-1h0ZM686,10h-2v1h2v-1h0ZM682,10h-2v1h2v-1h0ZM678,10h-2v1h2v-1h0ZM674,10h-2v1h2v-1h0ZM670,10h-2v1h2v-1h0ZM666,10h-2v1h2v-1h0ZM662,10h-2v1h2v-1h0ZM658,10h-2v1h2v-1h0ZM654,10h-2v1h2v-1h0ZM650,10h-2v1h2v-1h0ZM646,10h-2v1h2v-1h0ZM642,10h-2v1h2v-1h0ZM638,10h-2v1h2v-1h0ZM634,10h-2v1h2v-1h0ZM630,10h-2v1h2v-1h0ZM626,10h-2v1h2v-1h0ZM622,10h-2v1h2v-1h0ZM618,10h-2v1h2v-1h0ZM614,10h-2v1h2v-1h0ZM610,10h-2v1h2v-1h0ZM606,10h-2v1h2v-1h0ZM602,10h-2v1h2v-1h0ZM598,10h-2v1h2v-1h0ZM594,10h-2v1h2v-1h0ZM590,10h-2v1h2v-1h0ZM586,10h-2v1h2v-1h0ZM582,10h-2v1h2v-1h0ZM578,10h-2v1h2v-1h0ZM574,10h-2v1h2v-1h0ZM570,10h-2v1h2v-1h0ZM566,10h-2v1h2v-1h0ZM562,10h-2v1h2v-1h0ZM558,10h-2v1h2v-1h0ZM554,10h-2v1h2v-1h0ZM550,10h-2v1h2v-1h0ZM546,10h-2v1h2v-1h0ZM542,10h-2v1h2v-1h0ZM538,10h-2v1h2v-1h0ZM534,10h-2v1h2v-1h0ZM530,10h-2v1h2v-1h0ZM526,10h-2v1h2v-1h0ZM522,10h-2v1h2v-1h0ZM518,10h-2v1h2v-1h0ZM514,10h-2v1h2v-1h0ZM510,10h-2v1h2v-1h0ZM506,10h-2v1h2v-1h0ZM503,10h-1v2h1v-2h0ZM503,14h-1v2h1v-2h0ZM503,18h-1v2h1v-2h0ZM503,22h-1v2h1v-2h0ZM503,26h-1v2h1v-2h0ZM503,30h-1v2h1v-2h0ZM503,34h-1v2h1v-2h0ZM503,38h-1v2h1v-2h0ZM503,42h-1v2h1v-2h0ZM503,46h-1v2h1v-2h0ZM503,50h-1v2h1v-2h0ZM503,54h-1v2h1v-2h0ZM503,58h-1v2h1v-2h0ZM503,62h-1v2h1v-2h0ZM503,66h-1v2h1v-2h0ZM503,70h-1v2h1v-2h0ZM503,74h-1v2h1v-2h0ZM503,78h-1v2h1v-2h0ZM503,82h-1v2h1v-2h0ZM503,86h-1v2h1v-2h0ZM503,90h-1v2h1v-2h0ZM503,94h-1v2h1v-2h0ZM503,98h-1v2h1v-2h0ZM503,102h-1v2h1v-2h0ZM503,106h-1v2h1v-2h0ZM503,110h-1v2h1v-2h0ZM503,114h-1v2h1v-2h0ZM503,118h-1v2h1v-2h0ZM503,122h-1v2h1v-2h0ZM503,126h-1v2h1v-2h0ZM503,130h-1v2h1v-2h0ZM503,134h-1v2h1v-2h0ZM503,138h-1v2h1v-2h0ZM503,142h-1v2h1v-2h0ZM503,146h-1v2h1v-2h0ZM503,150h-1v2h1v-2h0ZM503,154h-1v2h1v-2h0ZM503,158h-1v2h1v-2h0ZM503,162h-1v2h1v-2h0ZM503,166h-1v2h1v-2h0ZM503,170h-1v2h1v-2h0ZM503,174h-1v2h1v-2h0ZM503,178h-1v2h1v-2h0ZM503,182h-1v2h1v-2h0ZM503,186h-1v2h1v-2h0ZM503,190h-1v2h1v-2h0ZM503,194h-1v2h1v-2h0ZM503,198h-1v2h1v-2h0ZM503,202h-1v2h1v-2h0ZM503,206h-1v2h1v-2h0ZM503,210h-1v2h1v-2h0ZM503,214h-1v2h1v-2h0ZM503,218h-1v2h1v-2h0ZM503,222h-1v2h1v-2h0ZM503,226h-1v2h1v-2h0ZM503,230h-1v2h1v-2h0ZM503,234h-1v2h1v-2h0ZM503,238h-1v2h1v-2h0ZM503,242h-1v2h1v-2h0ZM503,246h-1v2h1v-2h0ZM503,250h-1v2h1v-2h0ZM503,254h-1v2h1v-2h0ZM503,258h-1v2h1v-2h0ZM503,262h-1v2h1v-2h0ZM503,266h-1v2h1v-2h0ZM503,270h-1v2h1v-2h0ZM503,274h-1v2h1v-2h0ZM503,278h-1v2h1v-2h0ZM503,282h-1v2h1v-2h0ZM503,286h-1v2h1v-2h0ZM503,290h-1v2h1v-2h0ZM503,294h-1v2h1v-2h0ZM503,298h-1v2h1v-2h0ZM505,300h-2v1h2v-1h0ZM509,300h-2v1h2v-1h0ZM513,300h-2v1h2v-1h0ZM517,300h-2v1h2v-1h0ZM521,300h-2v1h2v-1h0ZM525,300h-2v1h2v-1h0ZM529,300h-2v1h2v-1h0ZM533,300h-2v1h2v-1h0ZM537,300h-2v1h2v-1h0ZM541,300h-2v1h2v-1h0ZM545,300h-2v1h2v-1h0ZM549,300h-2v1h2v-1h0ZM553,300h-2v1h2v-1h0ZM557,300h-2v1h2v-1h0ZM561,300h-2v1h2v-1h0ZM565,300h-2v1h2v-1h0ZM569,300h-2v1h2v-1h0ZM573,300h-2v1h2v-1h0ZM577,300h-2v1h2v-1h0ZM581,300h-2v1h2v-1h0ZM585,300h-2v1h2v-1h0ZM589,300h-2v1h2v-1h0ZM593,300h-2v1h2v-1h0ZM597,300h-2v1h2v-1h0ZM601,300h-2v1h2v-1h0ZM605,300h-2v1h2v-1h0ZM609,300h-2v1h2v-1h0ZM613,300h-2v1h2v-1h0ZM617,300h-2v1h2v-1h0ZM621,300h-2v1h2v-1h0ZM625,300h-2v1h2v-1h0ZM629,300h-2v1h2v-1h0ZM633,300h-2v1h2v-1h0ZM637,300h-2v1h2v-1h0ZM641,300h-2v1h2v-1h0ZM645,300h-2v1h2v-1h0ZM649,300h-2v1h2v-1h0ZM653,300h-2v1h2v-1h0ZM657,300h-2v1h2v-1h0ZM661,300h-2v1h2v-1h0ZM665,300h-2v1h2v-1h0ZM669,300h-2v1h2v-1h0ZM673,300h-2v1h2v-1h0ZM677,300h-2v1h2v-1h0ZM681,300h-2v1h2v-1h0ZM685,300h-2v1h2v-1h0ZM689,300h-2v1h2v-1h0ZM693,300h-2v1h2v-1h0ZM697,300h-2v1h2v-1h0ZM701,300h-2v1h2v-1h0ZM705,300h-2v1h2v-1h0ZM709,300h-2v1h2v-1h0ZM713,300h-2v1h2v-1h0ZM717,300h-2v1h2v-1h0ZM721,300h-2v1h2v-1h0ZM725,300h-2v1h2v-1h0ZM729,300h-2v1h2v-1h0ZM733,300h-2v1h2v-1h0ZM737,300h-2v1h2v-1h0ZM741,300h-2v1h2v-1h0ZM745,300h-2v1h2v-1h0ZM749,300h-2v1h2v-1h0ZM753,300h-2v1h2v-1h0ZM757,300h-2v1h2v-1h0ZM761,300h-2v1h2v-1h0ZM765,300h-2v1h2v-1h0ZM769,300h-2v1h2v-1h0ZM773,300h-2v1h2v-1h0ZM777,300h-2v1h2v-1h0ZM778,298h-1v2h1v-2h0ZM778,294h-1v2h1v-2h0ZM778,290h-1v2h1v-2h0ZM778,286h-1v2h1v-2h0ZM778,282h-1v2h1v-2h0ZM778,278h-1v2h1v-2h0ZM778,274h-1v2h1v-2h0ZM778,270h-1v2h1v-2h0ZM778,266h-1v2h1v-2h0ZM778,262h-1v2h1v-2h0ZM778,258h-1v2h1v-2h0ZM778,254h-1v2h1v-2h0ZM778,250h-1v2h1v-2h0ZM778,246h-1v2h1v-2h0ZM778,242h-1v2h1v-2h0ZM778,238h-1v2h1v-2h0ZM778,234h-1v2h1v-2h0ZM778,230h-1v2h1v-2h0ZM778,226h-1v2h1v-2h0ZM778,222h-1v2h1v-2h0ZM778,218h-1v2h1v-2h0ZM778,214h-1v2h1v-2h0ZM778,210h-1v2h1v-2h0ZM778,206h-1v2h1v-2h0ZM778,202h-1v2h1v-2h0ZM778,198h-1v2h1v-2h0ZM778,194h-1v2h1v-2h0ZM778,190h-1v2h1v-2h0ZM778,186h-1v2h1v-2h0ZM778,182h-1v2h1v-2h0ZM778,178h-1v2h1v-2h0ZM778,174h-1v2h1v-2h0ZM778,170h-1v2h1v-2h0ZM778,166h-1v2h1v-2h0ZM778,162h-1v2h1v-2h0ZM778,158h-1v2h1v-2h0ZM778,154h-1v2h1v-2h0ZM778,150h-1v2h1v-2h0ZM778,146h-1v2h1v-2h0ZM778,142h-1v2h1v-2h0ZM778,138h-1v2h1v-2h0ZM778,134h-1v2h1v-2h0ZM778,130h-1v2h1v-2h0ZM778,126h-1v2h1v-2h0ZM778,122h-1v2h1v-2h0ZM778,118h-1v2h1v-2h0ZM778,114h-1v2h1v-2h0ZM778,110h-1v2h1v-2h0ZM778,106h-1v2h1v-2h0ZM778,102h-1v2h1v-2h0ZM778,98h-1v2h1v-2h0ZM778,94h-1v2h1v-2h0ZM778,90h-1v2h1v-2h0ZM778,86h-1v2h1v-2h0ZM778,82h-1v2h1v-2h0ZM778,78h-1v2h1v-2h0ZM778,74h-1v2h1v-2h0ZM778,70h-1v2h1v-2h0ZM778,66h-1v2h1v-2h0ZM778,62h-1v2h1v-2h0ZM778,58h-1v2h1v-2h0ZM778,54h-1v2h1v-2h0ZM778,50h-1v2h1v-2h0ZM778,46h-1v2h1v-2h0ZM778,42h-1v2h1v-2h0ZM778,38h-1v2h1v-2h0ZM778,34h-1v2h1v-2h0ZM778,30h-1v2h1v-2h0ZM778,26h-1v2h1v-2h0ZM778,22h-1v2h1v-2h0ZM778,18h-1v2h1v-2h0ZM778,14h-1v2h1v-2h0ZM778,10h-2v1h1v1h1v-2h0Z"/>
  <g>
    <path d="M409,200v19.978h-63v-19.978h63M410,199h-65v21.978h65v-21.978h0Z"/>
    <path d="M377,200v20h-31v-20h31M378,199h-33v22h33v-22h0Z"/>
    <path d="M361,200v20h-15v-20h15M362,199h-17v22h17v-22h0Z"/>
    <path d="M353,200v20h-7v-20h7M354,199h-9v22h9v-22h0Z"/>
    <path d="M369,200v20h-7v-20h7M370,199h-9v22h9v-22h0Z"/>
    <path d="M385,200v20h-7v-20h7M386,199h-9v22h9v-22h0Z"/>
    <path d="M401,200v20h-7v-20h7M402,199h-9v22h9v-22h0Z"/>
    <path d="M473,200v19.978h-63v-19.978h63M474,199h-65v21.978h65v-21.978h0Z"/>
    <path d="M441,200v20h-31v-20h31M442,199h-33v22h33v-22h0Z"/>
    <path d="M425,200v20h-15v-20h15M426,199h-17v22h17v-22h0Z"/>
    <path d="M417,200v20h-7v-20h7M418,199h-9v22h9v-22h0Z"/>
    <path d="M433,200v20h-7v-20h7M434,199h-9v22h9v-22h0Z"/>
    <path d="M449,200v20h-7v-20h7M450,199h-9v22h9v-22h0Z"/>
    <path d="M465,200v20h-7v-20h7M466,199h-9v22h9v-22h0Z"/>
  </g>
  <g>
    <path d="M409,221v19.978h-63v-19.978h63M410,220h-65v21.978h65v-21.978h0Z"/>
    <path d="M377,221v20h-31v-20h31M378,220h-33v22h33v-22h0Z"/>
    <path d="M361,221v20h-15v-20h15M362,220h-17v22h17v-22h0Z"/>
    <path d="M353,221v20h-7v-20h7M354,220h-9v22h9v-22h0Z"/>
    <path d="M369,221v20h-7v-20h7M370,220h-9v22h9v-22h0Z"/>
    <path d="M385,221v20h-7v-20h7M386,220h-9v22h9v-22h0Z"/>
    <path d="M401,221v20h-7v-20h7M402,220h-9v22h9v-22h0Z"/>
    <path d="M473,221v19.978h-63v-19.978h63M474,220h-65v21.978h65v-21.978h0Z"/>
    <path d="M441,221v20h-31v-20h31M442,220h-33v22h33v-22h0Z"/>
    <path d="M425,221v20h-15v-20h15M426,220h-17v22h17v-22h0Z"/>
    <path d="M417,221v20h-7v-20h7M418,220h-9v22h9v-22h0Z"/>
    <path d="M433,221v20h-7v-20h7M434,220h-9v22h9v-22h0Z"/>
    <path d="M449,221v20h-7v-20h7M450,220h-9v22h9v-22h0Z"/>
    <path d="M465,221v20h-7v-20h7M466,220h-9v22h9v-22h0Z"/>
  </g>
  <g>
    <path d="M409,242v19.978h-63v-19.978h63M410,241h-65v21.978h65v-21.978h0Z"/>
    <path d="M377,242v20h-31v-20h31M378,241h-33v22h33v-22h0Z"/>
    <path d="M361,242v20h-15v-20h15M362,241h-17v22h17v-22h0Z"/>
    <path d="M353,242v20h-7v-20h7M354,241h-9v22h9v-22h0Z"/>
    <path d="M369,242v20h-7v-20h7M370,241h-9v22h9v-22h0Z"/>
    <path d="M385,242v20h-7v-20h7M386,241h-9v22h9v-22h0Z"/>
    <path d="M401,242v20h-7v-20h7M402,241h-9v22h9v-22h0Z"/>
    <path d="M473,242v19.978h-63v-19.978h63M474,241h-65v21.978h65v-21.978h0Z"/>
    <path d="M441,242v20h-31v-20h31M442,241h-33v22h33v-22h0Z"/>
    <path d="M425,242v20h-15v-20h15M426,241h-17v22h17v-22h0Z"/>
    <path d="M417,242v20h-7v-20h7M418,241h-9v22h9v-22h0Z"/>
    <path d="M433,242v20h-7v-20h7M434,241h-9v22h9v-22h0Z"/>
    <path d="M449,242v20h-7v-20h7M450,241h-9v22h9v-22h0Z"/>
    <path d="M465,242v20h-7v-20h7M466,241h-9v22h9v-22h0Z"/>
  </g>
  <g>
    <path d="M409,263v19.978h-63v-19.978h63M410,262h-65v21.978h65v-21.978h0Z"/>
    <path d="M377,263v20h-31v-20h31M378,262h-33v22h33v-22h0Z"/>
    <path d="M361,263v20h-15v-20h15M362,262h-17v22h17v-22h0Z"/>
    <path d="M353,263v20h-7v-20h7M354,262h-9v22h9v-22h0Z"/>
    <path d="M369,263v20h-7v-20h7M370,262h-9v22h9v-22h0Z"/>
    <path d="M385,263v20h-7v-20h7M386,262h-9v22h9v-22h0Z"/>
    <path d="M401,263v20h-7v-20h7M402,262h-9v22h9v-22h0Z"/>
    <path d="M473,263v19.978h-63v-19.978h63M474,262h-65v21.978h65v-21.978h0Z"/>
    <path d="M441,263v20h-31v-20h31M442,262h-33v22h33v-22h0Z"/>
    <path d="M425,263v20h-15v-20h15M426,262h-17v22h17v-22h0Z"/>
    <path d="M417,263v20h-7v-20h7M418,262h-9v22h9v-22h0Z"/>
    <path d="M433,263v20h-7v-20h7M434,262h-9v22h9v-22h0Z"/>
    <path d="M449,263v20h-7v-20h7M450,262h-9v22h9v-22h0Z"/>
    <path d="M465,263v20h-7v-20h7M466,262h-9v22h9v-22h0Z"/>
  </g>
  <g>
    <rect class="cls-12" x="400" y="205" width="20" height="10"/>
    <text class="cls-3" transform="translate(400.825 213.721)"><tspan x="0" y="0">64B</tspan></text>
  </g>
  <text class="cls-2" transform="translate(59.78 142.415) rotate(-90)"><tspan class="cls-14" x="0" y="0">W</tspan><tspan x="10.887" y="0">arp Sched</tspan></text>
  <g>
    <line class="cls-11" x1="66.088" y1="377.047" x2="79.412" y2="377.047"/>
    <polygon points="66.818 379.54 62.5 377.047 66.818 374.554 66.818 379.54"/>
    <polygon points="78.683 379.54 83 377.047 78.683 374.554 78.683 379.54"/>
  </g>
  <text class="cls-2" transform="translate(57.78 393.831) rotate(-90)"><tspan x="0" y="0">DRAM</tspan></text>
  <text class="cls-2" transform="translate(200.78 121.292) rotate(-90)"><tspan x="0" y="0">LSU</tspan></text>
  <line class="cls-9" x1="764" y1="241.5" x2="646" y2="241.5"/>
  <line class="cls-9" x1="705" y1="199" x2="705" y2="284"/>
  <line class="cls-9" x1="675.5" y1="199" x2="675.5" y2="284"/>
  <line class="cls-9" x1="734.5" y1="199" x2="734.5" y2="284"/>
  <text class="cls-1" transform="translate(97.169 353.714)"><tspan x="0" y="0">L2: Coherent 512KB 8wS</tspan><tspan class="cls-13" x="135.422" y="0">A</tspan></text>
  <text class="cls-1" transform="translate(667.495 380.714)"><tspan x="0" y="0">Rocket</tspan></text>
  <g>
    <line class="cls-11" x1="465.588" y1="377.021" x2="478.412" y2="377.02"/>
    <polygon points="466.318 379.514 462 377.021 466.318 374.527 466.318 379.514"/>
    <polygon points="477.682 379.514 482 377.02 477.682 374.527 477.682 379.514"/>
  </g>
  <g>
    <polyline class="cls-11" points="502.588 392.5 546.5 392.5 546.5 376.993 591.412 376.993"/>
    <polygon points="503.318 394.993 499 392.5 503.318 390.007 503.318 394.993"/>
    <polygon points="590.682 379.487 595 376.993 590.682 374.5 590.682 379.487"/>
  </g>
  <g>
    <polyline class="cls-11" points="502.588 361 574.171 361 574.171 287.588"/>
    <polygon points="503.318 363.493 499 361 503.318 358.507 503.318 363.493"/>
    <polygon points="576.664 288.318 574.171 284 571.678 288.318 576.664 288.318"/>
  </g>
  <g>
    <polyline class="cls-11" points="502.588 377 508.574 377 528.5 377 528.5 317 100.5 317 100.5 289.088"/>
    <polygon points="503.318 379.493 499 377 503.318 374.507 503.318 379.493"/>
    <polygon points="102.993 289.818 100.5 285.5 98.007 289.818 102.993 289.818"/>
  </g>
  <polygon class="cls-11" points="498.5 341.687 498.5 372.797 498.5 379.578 498.5 412.687 482.5 397.687 482.5 379.489 482.5 372.886 482.5 356.687 498.5 341.687"/>
</svg>