<?xml version="1.0" encoding="UTF-8"?>
<svg id="Layer_2" data-name="Layer 2" xmlns="http://www.w3.org/2000/svg" viewBox="0 0 903.06 229.16">
  <defs>
    <style>
      .cls-1 {
        fill: #231f20;
      }

      .cls-2 {
        stroke: #bcbec0;
        stroke-dasharray: 2;
      }

      .cls-2, .cls-3, .cls-4, .cls-5 {
        stroke-miterlimit: 10;
      }

      .cls-2, .cls-3, .cls-5 {
        fill: none;
      }

      .cls-3, .cls-4 {
        stroke: #231f20;
      }

      .cls-3, .cls-5 {
        stroke-width: .5px;
      }

      .cls-6 {
        fill: #808285;
      }

      .cls-4 {
        fill: #fff;
      }

      .cls-5 {
        stroke: #808285;
      }
    </style>
  </defs>
  <g id="Layer_2-2" data-name="Layer 2">
    <line class="cls-2" x1="90.87" y1="23.53" x2="90.87" y2="228.66"/>
    <line class="cls-2" x1=".5" y1="23.53" x2=".5" y2="228.66"/>
    <line class="cls-2" x1="170.01" y1="23.53" x2="170.01" y2="228.66"/>
    <line class="cls-2" x1="238.98" y1="23.53" x2="238.98" y2="228.66"/>
    <line class="cls-2" x1="307.94" y1="23.53" x2="307.94" y2="228.66"/>
    <line class="cls-2" x1="392.35" y1="23.53" x2="392.35" y2="228.66"/>
    <line class="cls-2" x1="478.43" y1="23.53" x2="478.43" y2="228.66"/>
    <line class="cls-2" x1="561.93" y1="23.53" x2="561.93" y2="228.66"/>
    <line class="cls-2" x1="629.8" y1="23.53" x2="629.8" y2="228.66"/>
    <line class="cls-2" x1="694.76" y1="23.53" x2="694.76" y2="228.66"/>
    <line class="cls-2" x1="759.72" y1="23.53" x2="759.72" y2="228.66"/>
    <line class="cls-2" x1="824.68" y1="23.53" x2="824.68" y2="228.66"/>
    <line class="cls-2" x1="902.56" y1="23.53" x2="902.56" y2="228.66"/>
    <g>
      <path class="cls-6" d="M26.83,31.07c.35,0,.64-.04.86-.12.42-.15.63-.43.63-.83,0-.24-.1-.42-.31-.55-.21-.13-.54-.24-.98-.34l-.76-.17c-.75-.17-1.27-.35-1.55-.55-.48-.33-.73-.85-.73-1.56,0-.64.23-1.18.7-1.61s1.16-.64,2.07-.64c.76,0,1.41.2,1.94.6s.82.99.84,1.75h-1.45c-.03-.43-.21-.74-.57-.92-.23-.12-.53-.18-.87-.18-.39,0-.7.08-.93.23s-.35.37-.35.65c0,.26.11.45.34.58.15.08.46.18.94.3l1.24.3c.54.13.95.3,1.23.52.43.34.64.83.64,1.47s-.25,1.2-.75,1.64-1.21.65-2.13.65-1.67-.21-2.21-.64-.81-1.02-.81-1.77h1.44c.05.33.14.57.27.74.24.3.66.44,1.25.44Z"/>
      <path class="cls-6" d="M35.38,28.7h-1.43c-.03-.2-.09-.38-.2-.54-.16-.21-.4-.32-.73-.32-.47,0-.79.23-.96.7-.09.25-.14.58-.14.99s.05.7.14.94c.17.44.48.66.94.66.33,0,.56-.09.69-.26s.22-.4.25-.68h1.42c-.03.42-.19.82-.46,1.2-.44.61-1.08.91-1.94.91s-1.49-.25-1.89-.76-.61-1.17-.61-1.98c0-.91.22-1.63.67-2.13s1.06-.76,1.85-.76c.67,0,1.21.15,1.64.45s.68.83.75,1.59Z"/>
      <path class="cls-6" d="M41.15,28.99v3.12h-1.42v-3.24c0-.29-.05-.52-.15-.69-.13-.25-.37-.37-.72-.37s-.65.12-.84.37-.29.6-.29,1.05v2.88h-1.39v-7.17h1.39v2.54c.2-.31.44-.52.7-.65s.54-.18.84-.18c.33,0,.63.06.9.17s.49.29.66.52c.15.2.24.4.27.61s.05.55.05,1.03Z"/>
      <path class="cls-6" d="M47,30.55c-.04.32-.2.64-.49.96-.46.52-1.09.78-1.91.78-.68,0-1.27-.22-1.79-.65s-.78-1.15-.78-2.13c0-.92.23-1.63.7-2.12s1.07-.74,1.82-.74c.44,0,.84.08,1.2.25s.65.43.88.79c.21.32.34.68.41,1.1.04.24.05.6.04,1.05h-3.64c.02.53.19.91.5,1.12.19.13.42.2.69.2.29,0,.52-.08.7-.24.1-.09.18-.21.26-.37h1.42ZM45.62,28.92c-.02-.37-.13-.65-.33-.84s-.45-.29-.74-.29c-.32,0-.57.1-.75.3s-.29.48-.33.82h2.16Z"/>
      <path class="cls-6" d="M52.85,24.92v7.19h-1.35v-.74c-.2.32-.42.55-.68.69s-.57.21-.95.21c-.62,0-1.15-.25-1.57-.75s-.64-1.15-.64-1.94c0-.91.21-1.62.63-2.14s.98-.78,1.68-.78c.32,0,.61.07.86.21s.45.34.61.59v-2.54h1.41ZM49.1,29.49c0,.49.1.88.29,1.18.19.3.48.44.88.44s.69-.15.9-.44.31-.67.31-1.14c0-.65-.16-1.12-.49-1.4-.2-.17-.44-.25-.7-.25-.41,0-.71.15-.9.46s-.29.69-.29,1.15Z"/>
      <path class="cls-6" d="M57.53,31.36s-.05.06-.1.15-.11.15-.19.21c-.22.2-.43.33-.63.4s-.44.11-.72.11c-.79,0-1.32-.28-1.59-.85-.15-.31-.23-.77-.23-1.38v-3.21h1.43v3.21c0,.3.04.53.11.68.13.27.38.41.75.41.48,0,.8-.19.98-.58.09-.21.14-.48.14-.83v-2.9h1.41v5.32h-1.35v-.75Z"/>
      <path class="cls-6" d="M60.25,24.92h1.39v7.2h-1.39v-7.2Z"/>
      <path class="cls-6" d="M67.56,30.55c-.04.32-.2.64-.49.96-.46.52-1.09.78-1.91.78-.68,0-1.27-.22-1.79-.65s-.78-1.15-.78-2.13c0-.92.23-1.63.7-2.12s1.07-.74,1.82-.74c.44,0,.84.08,1.2.25s.65.43.88.79c.21.32.34.68.41,1.1.04.24.05.6.04,1.05h-3.64c.02.53.19.91.5,1.12.19.13.42.2.69.2.29,0,.52-.08.7-.24.1-.09.18-.21.26-.37h1.42ZM66.18,28.92c-.02-.37-.13-.65-.33-.84s-.45-.29-.74-.29c-.32,0-.57.1-.75.3s-.29.48-.33.82h2.16Z"/>
    </g>
    <g>
      <path class="cls-6" d="M123.08,26.19h-3.61v1.66h3.16v1.25h-3.16v3.02h-1.49v-7.19h5.1v1.26Z"/>
      <path class="cls-6" d="M128.53,30.55c-.04.32-.2.64-.49.96-.46.52-1.09.78-1.91.78-.68,0-1.27-.22-1.79-.65s-.78-1.15-.78-2.13c0-.92.23-1.63.7-2.12s1.07-.74,1.82-.74c.44,0,.84.08,1.2.25s.65.43.88.79c.21.32.34.68.41,1.1.04.24.05.6.04,1.05h-3.64c.02.53.19.91.5,1.12.19.13.42.2.69.2.29,0,.52-.08.7-.24.1-.09.18-.21.26-.37h1.42ZM127.15,28.92c-.02-.37-.13-.65-.33-.84s-.45-.29-.74-.29c-.32,0-.57.1-.75.3s-.29.48-.33.82h2.16Z"/>
      <path class="cls-6" d="M131.97,31.12v1.04l-.66.02c-.66.02-1.11-.09-1.35-.34-.16-.16-.23-.41-.23-.74v-3.28h-.74v-.99h.74v-1.48h1.38v1.48h.86v.99h-.86v2.81c0,.22.03.35.08.41s.22.08.51.08c.04,0,.09,0,.13,0s.09,0,.14,0Z"/>
      <path class="cls-6" d="M137.47,28.7h-1.43c-.03-.2-.09-.38-.2-.54-.16-.21-.4-.32-.73-.32-.47,0-.79.23-.96.7-.09.25-.14.58-.14.99s.05.7.14.94c.17.44.48.66.94.66.33,0,.56-.09.69-.26s.22-.4.25-.68h1.42c-.03.42-.19.82-.46,1.2-.44.61-1.08.91-1.94.91s-1.49-.25-1.89-.76-.61-1.17-.61-1.98c0-.91.22-1.63.67-2.13s1.06-.76,1.85-.76c.67,0,1.21.15,1.64.45s.68.83.75,1.59Z"/>
      <path class="cls-6" d="M143.24,28.99v3.12h-1.42v-3.24c0-.29-.05-.52-.15-.69-.13-.25-.37-.37-.72-.37s-.65.12-.84.37-.29.6-.29,1.05v2.88h-1.39v-7.17h1.39v2.54c.2-.31.44-.52.7-.65s.54-.18.84-.18c.33,0,.63.06.9.17s.49.29.66.52c.15.2.24.4.27.61s.05.55.05,1.03Z"/>
    </g>
    <g>
      <path class="cls-6" d="M190.29,32.11h-3.1v-7.2h3.1c.45,0,.82.06,1.11.16.5.17.91.47,1.23.91.25.36.42.75.51,1.16s.14.81.14,1.19c0,.96-.19,1.77-.58,2.43-.52.9-1.32,1.34-2.41,1.34ZM191.41,26.75c-.23-.39-.69-.59-1.37-.59h-1.39v4.7h1.39c.71,0,1.2-.35,1.48-1.05.15-.38.23-.84.23-1.37,0-.73-.11-1.3-.34-1.69Z"/>
      <path class="cls-6" d="M198.86,30.55c-.04.32-.2.64-.49.96-.46.52-1.09.78-1.91.78-.68,0-1.27-.22-1.79-.65s-.78-1.15-.78-2.13c0-.92.23-1.63.7-2.12s1.07-.74,1.82-.74c.44,0,.84.08,1.2.25s.65.43.88.79c.21.32.34.68.41,1.1.04.24.05.6.04,1.05h-3.64c.02.53.19.91.5,1.12.19.13.42.2.69.2.29,0,.52-.08.7-.24.1-.09.18-.21.26-.37h1.42ZM197.48,28.92c-.02-.37-.13-.65-.33-.84s-.45-.29-.74-.29c-.32,0-.57.1-.75.3s-.29.48-.33.82h2.16Z"/>
      <path class="cls-6" d="M204.47,28.7h-1.43c-.03-.2-.09-.38-.2-.54-.16-.21-.4-.32-.73-.32-.47,0-.79.23-.96.7-.09.25-.14.58-.14.99s.05.7.14.94c.17.44.48.66.94.66.33,0,.56-.09.69-.26s.22-.4.25-.68h1.42c-.03.42-.19.82-.46,1.2-.44.61-1.08.91-1.94.91s-1.49-.25-1.89-.76-.61-1.17-.61-1.98c0-.91.22-1.63.67-2.13s1.06-.76,1.85-.76c.67,0,1.21.15,1.64.45s.68.83.75,1.59Z"/>
      <path class="cls-6" d="M209.86,27.46c.45.56.67,1.23.67,2s-.22,1.45-.67,2-1.13.83-2.05.83-1.6-.28-2.05-.83-.67-1.22-.67-2,.22-1.43.67-2,1.13-.84,2.05-.84,1.6.28,2.05.84ZM207.81,27.8c-.41,0-.72.14-.94.43s-.33.7-.33,1.23.11.95.33,1.24.53.43.94.43.72-.15.94-.43.33-.7.33-1.24-.11-.94-.33-1.23-.53-.43-.94-.43Z"/>
      <path class="cls-6" d="M216.38,24.92v7.19h-1.35v-.74c-.2.32-.42.55-.68.69s-.57.21-.95.21c-.62,0-1.15-.25-1.57-.75s-.64-1.15-.64-1.94c0-.91.21-1.62.63-2.14s.98-.78,1.68-.78c.32,0,.61.07.86.21s.45.34.61.59v-2.54h1.41ZM212.63,29.49c0,.49.1.88.29,1.18.19.3.48.44.88.44s.69-.15.9-.44.31-.67.31-1.14c0-.65-.16-1.12-.49-1.4-.2-.17-.44-.25-.7-.25-.41,0-.71.15-.9.46s-.29.69-.29,1.15Z"/>
      <path class="cls-6" d="M222.2,30.55c-.04.32-.2.64-.49.96-.46.52-1.09.78-1.91.78-.68,0-1.27-.22-1.79-.65s-.78-1.15-.78-2.13c0-.92.23-1.63.7-2.12s1.07-.74,1.82-.74c.44,0,.84.08,1.2.25s.65.43.88.79c.21.32.34.68.41,1.1.04.24.05.6.04,1.05h-3.64c.02.53.19.91.5,1.12.19.13.42.2.69.2.29,0,.52-.08.7-.24.1-.09.18-.21.26-.37h1.42ZM220.82,28.92c-.02-.37-.13-.65-.33-.84s-.45-.29-.74-.29c-.32,0-.57.1-.75.3s-.29.48-.33.82h2.16Z"/>
    </g>
    <g>
      <path class="cls-6" d="M264.38,24.92h1.49v7.2h-1.49v-7.2Z"/>
      <path class="cls-6" d="M270.56,32.11h-3.26v-7.2h3.5c.88.01,1.51.27,1.88.77.22.31.33.67.33,1.1s-.11.79-.33,1.06c-.12.15-.31.29-.55.41.37.13.65.35.83.63s.28.64.28,1.05-.11.81-.32,1.15c-.14.22-.31.41-.51.57-.23.18-.5.3-.82.36s-.66.1-1.02.1ZM271.28,27.57c.2-.12.29-.33.29-.63,0-.34-.13-.56-.39-.66-.22-.07-.51-.11-.86-.11h-1.58v1.59h1.77c.32,0,.57-.06.77-.18ZM270.53,28.94h-1.79v1.92h1.77c.32,0,.56-.04.74-.13.32-.16.48-.46.48-.9,0-.37-.15-.63-.46-.77-.17-.08-.42-.12-.73-.12Z"/>
      <path class="cls-6" d="M277.8,31.36s-.05.06-.1.15-.11.15-.19.21c-.22.2-.43.33-.63.4s-.44.11-.72.11c-.79,0-1.32-.28-1.59-.85-.15-.31-.23-.77-.23-1.38v-3.21h1.43v3.21c0,.3.04.53.11.68.13.27.38.41.75.41.48,0,.8-.19.98-.58.09-.21.14-.48.14-.83v-2.9h1.41v5.32h-1.35v-.75Z"/>
      <path class="cls-6" d="M282.99,24.87v1.13c-.08,0-.21-.02-.39-.02s-.31.04-.38.12-.1.18-.1.29v.45h.91v.98h-.91v4.29h-1.39v-4.29h-.78v-.98h.76v-.34c0-.57.1-.96.29-1.18.2-.32.69-.48,1.46-.48.09,0,.17,0,.24,0s.17.01.29.02Z"/>
    </g>
    <g>
      <path class="cls-6" d="M335.35,24.92h1.49v7.2h-1.49v-7.2Z"/>
      <path class="cls-6" d="M341.8,27.03c.42.27.66.73.72,1.38h-1.39c-.02-.18-.07-.32-.15-.42-.15-.19-.41-.28-.78-.28-.3,0-.52.05-.65.14s-.19.21-.19.33c0,.16.07.27.21.35.14.07.62.2,1.45.39.55.13.97.33,1.25.59.27.27.41.6.41,1,0,.53-.2.96-.59,1.29s-1,.5-1.82.5-1.45-.18-1.85-.53-.6-.8-.6-1.35h1.41c.03.25.09.42.19.53.17.19.49.28.96.28.27,0,.49-.04.65-.12s.24-.2.24-.37-.06-.27-.2-.36-.61-.22-1.45-.42c-.6-.15-1.03-.34-1.27-.56-.25-.22-.37-.54-.37-.96,0-.49.19-.91.58-1.27s.93-.53,1.63-.53,1.21.13,1.63.4Z"/>
      <path class="cls-6" d="M347.36,27.03c.42.27.66.73.72,1.38h-1.39c-.02-.18-.07-.32-.15-.42-.15-.19-.41-.28-.78-.28-.3,0-.52.05-.65.14s-.19.21-.19.33c0,.16.07.27.21.35.14.07.62.2,1.45.39.55.13.97.33,1.25.59.27.27.41.6.41,1,0,.53-.2.96-.59,1.29s-1,.5-1.82.5-1.45-.18-1.85-.53-.6-.8-.6-1.35h1.41c.03.25.09.42.19.53.17.19.49.28.96.28.27,0,.49-.04.65-.12s.24-.2.24-.37-.06-.27-.2-.36-.61-.22-1.45-.42c-.6-.15-1.03-.34-1.27-.56-.25-.22-.37-.54-.37-.96,0-.49.19-.91.58-1.27s.93-.53,1.63-.53,1.21.13,1.63.4Z"/>
      <path class="cls-6" d="M352.67,31.36s-.05.06-.1.15-.11.15-.19.21c-.22.2-.43.33-.63.4s-.44.11-.72.11c-.79,0-1.32-.28-1.59-.85-.15-.31-.23-.77-.23-1.38v-3.21h1.43v3.21c0,.3.04.53.11.68.13.27.38.41.75.41.48,0,.8-.19.98-.58.09-.21.14-.48.14-.83v-2.9h1.41v5.32h-1.35v-.75Z"/>
      <path class="cls-6" d="M359.92,30.55c-.04.32-.2.64-.49.96-.46.52-1.09.78-1.91.78-.68,0-1.27-.22-1.79-.65s-.78-1.15-.78-2.13c0-.92.23-1.63.7-2.12s1.07-.74,1.82-.74c.44,0,.84.08,1.2.25s.65.43.88.79c.21.32.34.68.41,1.1.04.24.05.6.04,1.05h-3.64c.02.53.19.91.5,1.12.19.13.42.2.69.2.29,0,.52-.08.7-.24.1-.09.18-.21.26-.37h1.42ZM358.54,28.92c-.02-.37-.13-.65-.33-.84s-.45-.29-.74-.29c-.32,0-.57.1-.75.3s-.29.48-.33.82h2.16Z"/>
      <path class="cls-6" d="M363.03,32.29c-.9,0-1.53-.32-1.9-.95s-.54-1.53-.54-2.7.18-2.07.54-2.71,1-.95,1.9-.95,1.53.32,1.9.95c.36.63.54,1.54.54,2.71s-.18,2.07-.54,2.7-1,.95-1.9.95ZM363.85,30.51c.13-.43.19-1.05.19-1.87s-.06-1.48-.19-1.89-.4-.62-.81-.62-.69.21-.82.62-.2,1.04-.2,1.89.07,1.44.2,1.87.41.65.82.65.69-.22.82-.65Z"/>
    </g>
    <g>
      <path class="cls-6" d="M420.01,24.92h1.49v7.2h-1.49v-7.2Z"/>
      <path class="cls-6" d="M426.46,27.03c.42.27.66.73.72,1.38h-1.39c-.02-.18-.07-.32-.15-.42-.15-.19-.41-.28-.78-.28-.3,0-.52.05-.65.14s-.19.21-.19.33c0,.16.07.27.21.35.14.07.62.2,1.45.39.55.13.97.33,1.25.59.27.27.41.6.41,1,0,.53-.2.96-.59,1.29s-1,.5-1.82.5-1.45-.18-1.85-.53-.6-.8-.6-1.35h1.41c.03.25.09.42.19.53.17.19.49.28.96.28.27,0,.49-.04.65-.12s.24-.2.24-.37-.06-.27-.2-.36-.61-.22-1.45-.42c-.6-.15-1.03-.34-1.27-.56-.25-.22-.37-.54-.37-.96,0-.49.19-.91.58-1.27s.93-.53,1.63-.53,1.21.13,1.63.4Z"/>
      <path class="cls-6" d="M432.02,27.03c.42.27.66.73.72,1.38h-1.39c-.02-.18-.07-.32-.15-.42-.15-.19-.41-.28-.78-.28-.3,0-.52.05-.65.14s-.19.21-.19.33c0,.16.07.27.21.35.14.07.62.2,1.45.39.55.13.97.33,1.25.59.27.27.41.6.41,1,0,.53-.2.96-.59,1.29s-1,.5-1.82.5-1.45-.18-1.85-.53-.6-.8-.6-1.35h1.41c.03.25.09.42.19.53.17.19.49.28.96.28.27,0,.49-.04.65-.12s.24-.2.24-.37-.06-.27-.2-.36-.61-.22-1.45-.42c-.6-.15-1.03-.34-1.27-.56-.25-.22-.37-.54-.37-.96,0-.49.19-.91.58-1.27s.93-.53,1.63-.53,1.21.13,1.63.4Z"/>
      <path class="cls-6" d="M437.33,31.36s-.05.06-.1.15-.11.15-.19.21c-.22.2-.43.33-.63.4s-.44.11-.72.11c-.79,0-1.32-.28-1.59-.85-.15-.31-.23-.77-.23-1.38v-3.21h1.43v3.21c0,.3.04.53.11.68.13.27.38.41.75.41.48,0,.8-.19.98-.58.09-.21.14-.48.14-.83v-2.9h1.41v5.32h-1.35v-.75Z"/>
      <path class="cls-6" d="M444.58,30.55c-.04.32-.2.64-.49.96-.46.52-1.09.78-1.91.78-.68,0-1.27-.22-1.79-.65s-.78-1.15-.78-2.13c0-.92.23-1.63.7-2.12s1.07-.74,1.82-.74c.44,0,.84.08,1.2.25s.65.43.88.79c.21.32.34.68.41,1.1.04.24.05.6.04,1.05h-3.64c.02.53.19.91.5,1.12.19.13.42.2.69.2.29,0,.52-.08.7-.24.1-.09.18-.21.26-.37h1.42ZM443.21,28.92c-.02-.37-.13-.65-.33-.84s-.45-.29-.74-.29c-.32,0-.57.1-.75.3s-.29.48-.33.82h2.16Z"/>
      <path class="cls-6" d="M448.72,32.11h-1.43v-4.88h-1.67v-.95c.44-.02.75-.05.92-.09.28-.06.51-.19.68-.37.12-.13.21-.3.27-.51.04-.13.05-.22.05-.28h1.16v7.08Z"/>
    </g>
    <g>
      <path class="cls-6" d="M504.07,24.92h1.49v7.2h-1.49v-7.2Z"/>
      <path class="cls-6" d="M510.52,27.03c.42.27.66.73.72,1.38h-1.39c-.02-.18-.07-.32-.15-.42-.15-.19-.41-.28-.78-.28-.3,0-.52.05-.65.14s-.19.21-.19.33c0,.16.07.27.21.35.14.07.62.2,1.45.39.55.13.97.33,1.25.59.27.27.41.6.41,1,0,.53-.2.96-.59,1.29s-1,.5-1.82.5-1.45-.18-1.85-.53-.6-.8-.6-1.35h1.41c.03.25.09.42.19.53.17.19.49.28.96.28.27,0,.49-.04.65-.12s.24-.2.24-.37-.06-.27-.2-.36-.61-.22-1.45-.42c-.6-.15-1.03-.34-1.27-.56-.25-.22-.37-.54-.37-.96,0-.49.19-.91.58-1.27s.93-.53,1.63-.53,1.21.13,1.63.4Z"/>
      <path class="cls-6" d="M516.08,27.03c.42.27.66.73.72,1.38h-1.39c-.02-.18-.07-.32-.15-.42-.15-.19-.41-.28-.78-.28-.3,0-.52.05-.65.14s-.19.21-.19.33c0,.16.07.27.21.35.14.07.62.2,1.45.39.55.13.97.33,1.25.59.27.27.41.6.41,1,0,.53-.2.96-.59,1.29s-1,.5-1.82.5-1.45-.18-1.85-.53-.6-.8-.6-1.35h1.41c.03.25.09.42.19.53.17.19.49.28.96.28.27,0,.49-.04.65-.12s.24-.2.24-.37-.06-.27-.2-.36-.61-.22-1.45-.42c-.6-.15-1.03-.34-1.27-.56-.25-.22-.37-.54-.37-.96,0-.49.19-.91.58-1.27s.93-.53,1.63-.53,1.21.13,1.63.4Z"/>
      <path class="cls-6" d="M521.38,31.36s-.05.06-.1.15-.11.15-.19.21c-.22.2-.43.33-.63.4s-.44.11-.72.11c-.79,0-1.32-.28-1.59-.85-.15-.31-.23-.77-.23-1.38v-3.21h1.43v3.21c0,.3.04.53.11.68.13.27.38.41.75.41.48,0,.8-.19.98-.58.09-.21.14-.48.14-.83v-2.9h1.41v5.32h-1.35v-.75Z"/>
      <path class="cls-6" d="M528.64,30.55c-.04.32-.2.64-.49.96-.46.52-1.09.78-1.91.78-.68,0-1.27-.22-1.79-.65s-.78-1.15-.78-2.13c0-.92.23-1.63.7-2.12s1.07-.74,1.82-.74c.44,0,.84.08,1.2.25s.65.43.88.79c.21.32.34.68.41,1.1.04.24.05.6.04,1.05h-3.64c.02.53.19.91.5,1.12.19.13.42.2.69.2.29,0,.52-.08.7-.24.1-.09.18-.21.26-.37h1.42ZM527.26,28.92c-.02-.37-.13-.65-.33-.84s-.45-.29-.74-.29c-.32,0-.57.1-.75.3s-.29.48-.33.82h2.16Z"/>
      <path class="cls-6" d="M532.47,26.47c-.17-.2-.4-.3-.71-.3-.42,0-.71.16-.86.47-.09.18-.14.47-.16.87h-1.35c.02-.6.13-1.09.33-1.46.37-.71,1.03-1.06,1.98-1.06.75,0,1.34.21,1.79.62s.66.96.66,1.65c0,.52-.16.99-.47,1.4-.21.27-.54.57-1.01.9l-.56.4c-.35.25-.59.43-.72.54s-.24.24-.32.39h3.09v1.23h-4.85c.01-.51.12-.97.33-1.39.2-.47.67-.97,1.41-1.5.64-.46,1.06-.79,1.25-.99.29-.31.43-.65.43-1.02,0-.3-.08-.55-.25-.75Z"/>
    </g>
    <g>
      <path class="cls-6" d="M581.49,24.92h1.49v7.2h-1.49v-7.2Z"/>
      <path class="cls-6" d="M587.94,27.03c.42.27.66.73.72,1.38h-1.39c-.02-.18-.07-.32-.15-.42-.15-.19-.41-.28-.78-.28-.3,0-.52.05-.65.14s-.19.21-.19.33c0,.16.07.27.21.35.14.07.62.2,1.45.39.55.13.97.33,1.25.59.27.27.41.6.41,1,0,.53-.2.96-.59,1.29s-1,.5-1.82.5-1.45-.18-1.85-.53-.6-.8-.6-1.35h1.41c.03.25.09.42.19.53.17.19.49.28.96.28.27,0,.49-.04.65-.12s.24-.2.24-.37-.06-.27-.2-.36-.61-.22-1.45-.42c-.6-.15-1.03-.34-1.27-.56-.25-.22-.37-.54-.37-.96,0-.49.19-.91.58-1.27s.93-.53,1.63-.53,1.21.13,1.63.4Z"/>
      <path class="cls-6" d="M593.5,27.03c.42.27.66.73.72,1.38h-1.39c-.02-.18-.07-.32-.15-.42-.15-.19-.41-.28-.78-.28-.3,0-.52.05-.65.14s-.19.21-.19.33c0,.16.07.27.21.35.14.07.62.2,1.45.39.55.13.97.33,1.25.59.27.27.41.6.41,1,0,.53-.2.96-.59,1.29s-1,.5-1.82.5-1.45-.18-1.85-.53-.6-.8-.6-1.35h1.41c.03.25.09.42.19.53.17.19.49.28.96.28.27,0,.49-.04.65-.12s.24-.2.24-.37-.06-.27-.2-.36-.61-.22-1.45-.42c-.6-.15-1.03-.34-1.27-.56-.25-.22-.37-.54-.37-.96,0-.49.19-.91.58-1.27s.93-.53,1.63-.53,1.21.13,1.63.4Z"/>
      <path class="cls-6" d="M598.81,31.36s-.05.06-.1.15-.11.15-.19.21c-.22.2-.43.33-.63.4s-.44.11-.72.11c-.79,0-1.32-.28-1.59-.85-.15-.31-.23-.77-.23-1.38v-3.21h1.43v3.21c0,.3.04.53.11.68.13.27.38.41.75.41.48,0,.8-.19.98-.58.09-.21.14-.48.14-.83v-2.9h1.41v5.32h-1.35v-.75Z"/>
      <path class="cls-6" d="M606.06,30.55c-.04.32-.2.64-.49.96-.46.52-1.09.78-1.91.78-.68,0-1.27-.22-1.79-.65s-.78-1.15-.78-2.13c0-.92.23-1.63.7-2.12s1.07-.74,1.82-.74c.44,0,.84.08,1.2.25s.65.43.88.79c.21.32.34.68.41,1.1.04.24.05.6.04,1.05h-3.64c.02.53.19.91.5,1.12.19.13.42.2.69.2.29,0,.52-.08.7-.24.1-.09.18-.21.26-.37h1.42ZM604.68,28.92c-.02-.37-.13-.65-.33-.84s-.45-.29-.74-.29c-.32,0-.57.1-.75.3s-.29.48-.33.82h2.16Z"/>
      <path class="cls-6" d="M608.33,26.44c-.16.21-.23.49-.22.83h-1.3c.01-.35.07-.69.18-1,.11-.28.29-.53.54-.77.18-.17.4-.29.65-.38s.56-.13.92-.13c.68,0,1.22.17,1.64.52s.62.82.62,1.41c0,.42-.12.77-.37,1.05-.16.18-.32.3-.49.37.13,0,.31.11.55.33.35.33.53.78.53,1.35,0,.6-.21,1.13-.62,1.58s-1.03.68-1.84.68c-1,0-1.7-.33-2.09-.98-.21-.35-.32-.8-.34-1.37h1.37c0,.28.05.52.14.7.17.34.48.51.92.51.27,0,.51-.09.72-.28s.31-.46.31-.81c0-.47-.19-.78-.57-.93-.21-.09-.55-.13-1.02-.13v-1c.45,0,.77-.05.95-.13.31-.14.46-.41.46-.83,0-.27-.08-.49-.24-.66s-.38-.25-.67-.25c-.33,0-.57.1-.72.31Z"/>
    </g>
    <g>
      <path class="cls-6" d="M657.72,28.97h-3.5v1.85h3.98v1.29h-5.45v-7.2h5.28v1.27h-3.81v1.53h3.5v1.25Z"/>
      <path class="cls-6" d="M664,32.11h-1.73l-.92-1.6-.92,1.6h-1.69l1.82-2.7-1.74-2.62h1.7l.89,1.54.87-1.54h1.66l-1.75,2.59,1.82,2.72Z"/>
      <path class="cls-6" d="M666.93,32.29c-.9,0-1.53-.32-1.9-.95s-.54-1.53-.54-2.7.18-2.07.54-2.71,1-.95,1.9-.95,1.53.32,1.9.95c.36.63.54,1.54.54,2.71s-.18,2.07-.54,2.7-1,.95-1.9.95ZM667.75,30.51c.13-.43.19-1.05.19-1.87s-.06-1.48-.19-1.89-.4-.62-.81-.62-.69.21-.82.62-.2,1.04-.2,1.89.07,1.44.2,1.87.41.65.82.65.69-.22.82-.65Z"/>
    </g>
    <g>
      <path class="cls-6" d="M724.29,28.97h-3.5v1.85h3.98v1.29h-5.45v-7.2h5.28v1.27h-3.81v1.53h3.5v1.25Z"/>
      <path class="cls-6" d="M730.58,32.11h-1.73l-.92-1.6-.92,1.6h-1.69l1.82-2.7-1.74-2.62h1.7l.89,1.54.87-1.54h1.66l-1.75,2.59,1.82,2.72Z"/>
      <path class="cls-6" d="M734.54,32.11h-1.43v-4.88h-1.67v-.95c.44-.02.75-.05.92-.09.28-.06.51-.19.68-.37.12-.13.21-.3.27-.51.04-.13.05-.22.05-.28h1.16v7.08Z"/>
    </g>
    <g>
      <path class="cls-6" d="M790.87,28.97h-3.5v1.85h3.98v1.29h-5.45v-7.2h5.28v1.27h-3.81v1.53h3.5v1.25Z"/>
      <path class="cls-6" d="M797.16,32.11h-1.73l-.92-1.6-.92,1.6h-1.69l1.82-2.7-1.74-2.62h1.7l.89,1.54.87-1.54h1.66l-1.75,2.59,1.82,2.72Z"/>
      <path class="cls-6" d="M800.81,26.47c-.17-.2-.4-.3-.71-.3-.42,0-.71.16-.86.47-.09.18-.14.47-.16.87h-1.35c.02-.6.13-1.09.33-1.46.37-.71,1.03-1.06,1.98-1.06.75,0,1.34.21,1.79.62.44.42.66.96.66,1.65,0,.52-.16.99-.47,1.4-.21.27-.54.57-1.01.9l-.56.4c-.35.25-.59.43-.71.54-.13.11-.24.24-.33.39h3.09v1.23h-4.85c.01-.51.12-.97.33-1.39.2-.47.67-.97,1.41-1.5.64-.46,1.06-.79,1.25-.99.29-.31.43-.65.43-1.02,0-.3-.08-.55-.25-.75Z"/>
    </g>
    <g>
      <path class="cls-6" d="M847.57,24.92h1.53l-2.03,7.2h-1.44l-.87-4.21-.25-1.39-.25,1.39-.87,4.21h-1.4l-2.04-7.2h1.6l.95,4.12.21,1.15.21-1.12.81-4.15h1.59l.85,4.12.22,1.15.22-1.1.96-4.17Z"/>
      <path class="cls-6" d="M852.4,28.07c-.56,0-.94.18-1.13.55-.11.21-.16.52-.16.95v2.54h-1.4v-5.32h1.33v.93c.21-.35.4-.6.56-.73.26-.22.6-.33,1.02-.33.03,0,.05,0,.07,0,.02,0,.06,0,.12,0v1.43c-.09,0-.17-.02-.23-.02s-.12,0-.17,0Z"/>
      <path class="cls-6" d="M855.04,24.87v1.28h-1.41v-1.28h1.41ZM855.04,26.79v5.32h-1.41v-5.32h1.41Z"/>
      <path class="cls-6" d="M858.83,31.12v1.04l-.66.02c-.66.02-1.11-.09-1.35-.34-.16-.16-.23-.41-.23-.74v-3.28h-.74v-.99h.74v-1.48h1.38v1.48h.86v.99h-.86v2.81c0,.22.03.35.08.41.05.05.22.08.51.08.04,0,.09,0,.13,0,.05,0,.09,0,.14,0Z"/>
      <path class="cls-6" d="M864.28,30.55c-.04.32-.2.64-.49.96-.46.52-1.09.78-1.91.78-.68,0-1.27-.22-1.79-.65s-.78-1.15-.78-2.13c0-.92.23-1.63.7-2.12.47-.49,1.07-.74,1.82-.74.44,0,.84.08,1.2.25.35.17.65.43.88.79.21.32.34.68.41,1.1.04.24.05.6.04,1.05h-3.64c.02.53.19.91.5,1.12.19.13.42.2.69.2.29,0,.52-.08.7-.24.1-.09.18-.21.26-.37h1.42ZM862.9,28.92c-.02-.37-.13-.65-.33-.84s-.45-.29-.74-.29c-.32,0-.57.1-.75.3-.18.2-.29.48-.33.82h2.16Z"/>
      <path class="cls-6" d="M868.17,32.25c-.44,0-.79-.09-1.06-.26-.16-.1-.33-.29-.52-.55v.67h-1.36v-7.19h1.39v2.56c.18-.25.37-.44.58-.57.25-.16.57-.24.96-.24.7,0,1.25.25,1.64.76s.59,1.16.59,1.95-.2,1.51-.59,2.06-.94.82-1.64.82ZM868.94,29.53c0-.38-.05-.69-.15-.94-.19-.47-.53-.7-1.03-.7s-.85.23-1.04.69c-.1.24-.15.56-.15.95,0,.46.1.83.3,1.13.2.3.51.45.92.45.36,0,.64-.15.83-.43.2-.29.3-.67.3-1.14Z"/>
      <path class="cls-6" d="M871.59,27.37c.37-.47,1-.7,1.89-.7.58,0,1.1.12,1.55.35.45.23.68.67.68,1.31v2.44c0,.17,0,.37,0,.62,0,.18.04.31.08.37.04.06.11.12.21.16v.21h-1.51c-.04-.11-.07-.21-.09-.3-.02-.09-.03-.2-.04-.32-.19.21-.41.39-.66.53-.3.17-.64.26-1.02.26-.48,0-.88-.14-1.19-.41-.31-.27-.47-.67-.47-1.17,0-.65.25-1.13.76-1.42.28-.16.68-.27,1.22-.34l.47-.06c.26-.03.44-.07.55-.12.2-.08.3-.22.3-.4,0-.22-.08-.37-.23-.45s-.37-.12-.67-.12c-.33,0-.56.08-.7.24-.1.12-.16.28-.2.49h-1.34c.03-.47.16-.85.39-1.15ZM872.63,31.11c.13.11.29.16.48.16.3,0,.58-.09.83-.26.25-.18.38-.5.39-.96v-.52c-.09.06-.18.1-.27.13-.09.03-.21.07-.37.1l-.31.06c-.29.05-.5.12-.63.19-.21.13-.32.32-.32.59,0,.24.07.41.2.51Z"/>
      <path class="cls-6" d="M881.56,28.7h-1.43c-.03-.2-.09-.38-.2-.54-.16-.21-.4-.32-.73-.32-.47,0-.79.23-.96.7-.09.25-.14.58-.14.99s.04.7.14.94c.17.44.48.66.94.66.33,0,.56-.09.69-.26s.22-.4.25-.68h1.42c-.03.42-.19.82-.46,1.2-.44.61-1.08.91-1.94.91s-1.49-.25-1.89-.76c-.4-.51-.61-1.17-.61-1.98,0-.91.22-1.63.67-2.13.45-.51,1.06-.76,1.85-.76.67,0,1.21.15,1.64.45s.68.83.75,1.59Z"/>
      <path class="cls-6" d="M887.4,32.11h-1.68l-1.27-2.28-.58.6v1.67h-1.37v-7.17h1.37v3.88l1.73-2h1.72l-1.86,2.04,1.93,3.26Z"/>
    </g>
    <g>
      <path class="cls-6" d="M462.01,1.41l.76,6.11,3.33-6.11h1.09l-4.14,7.17h-1.03l-1.09-7.17h1.07Z"/>
      <path class="cls-6" d="M469.21,5.42c.21-.03.36-.11.46-.25.06-.08.1-.19.13-.34.06-.3,0-.52-.18-.65s-.48-.2-.87-.2c-.46,0-.81.12-1.05.37-.14.14-.25.34-.34.61h-.82c.15-.64.46-1.09.91-1.35s.95-.38,1.48-.38c.62,0,1.09.12,1.42.35s.45.6.34,1.09l-.64,3.01c-.02.09-.02.16,0,.22s.1.08.22.08c.04,0,.08,0,.13,0s.1-.01.16-.02l-.14.65c-.14.04-.25.06-.32.07s-.17.01-.3.01c-.3,0-.5-.11-.59-.32-.05-.11-.06-.27-.05-.48-.23.23-.53.44-.9.61s-.76.26-1.16.26c-.48,0-.85-.15-1.1-.44s-.32-.66-.23-1.11c.1-.48.34-.86.7-1.13s.79-.43,1.3-.49l1.44-.18ZM467.47,8.02c.31,0,.62-.07.95-.21.54-.24.86-.63.98-1.17l.15-.71c-.12.07-.27.13-.45.17s-.35.08-.52.1l-.55.07c-.33.04-.58.11-.76.2-.3.15-.49.4-.56.73-.06.25,0,.45.15.6s.36.22.61.22Z"/>
      <path class="cls-6" d="M472.43,3.36h.83l-.19.9c.1-.18.32-.39.64-.64s.66-.38,1-.38c.02,0,.04,0,.08,0s.1,0,.2.02l-.2.93c-.05,0-.1-.02-.14-.02s-.09,0-.14,0c-.44,0-.81.14-1.11.43s-.49.61-.57.98l-.63,3.01h-.88l1.11-5.23Z"/>
      <path class="cls-6" d="M475.73,3.38h.89l-1.1,5.21h-.89l1.1-5.21ZM476.15,1.41h.89l-.21,1h-.89l.21-1Z"/>
      <path class="cls-6" d="M480.32,5.42c.21-.03.36-.11.46-.25.06-.08.1-.19.13-.34.06-.3,0-.52-.18-.65s-.48-.2-.87-.2c-.46,0-.81.12-1.05.37-.14.14-.25.34-.34.61h-.82c.15-.64.46-1.09.91-1.35s.95-.38,1.48-.38c.62,0,1.09.12,1.42.35s.45.6.34,1.09l-.64,3.01c-.02.09-.02.16,0,.22s.1.08.22.08c.04,0,.08,0,.13,0s.1-.01.16-.02l-.14.65c-.14.04-.25.06-.32.07s-.17.01-.3.01c-.3,0-.5-.11-.59-.32-.05-.11-.06-.27-.05-.48-.23.23-.53.44-.9.61s-.76.26-1.16.26c-.48,0-.85-.15-1.1-.44s-.32-.66-.23-1.11c.1-.48.34-.86.7-1.13s.79-.43,1.3-.49l1.44-.18ZM478.58,8.02c.31,0,.62-.07.95-.21.54-.24.86-.63.98-1.17l.15-.71c-.12.07-.27.13-.45.17s-.35.08-.52.1l-.55.07c-.33.04-.58.11-.76.2-.3.15-.49.4-.56.73-.06.25,0,.45.15.6s.36.22.61.22Z"/>
      <path class="cls-6" d="M483.87,1.39h.85l-.55,2.6c.24-.25.51-.44.81-.57s.6-.2.91-.2c.65,0,1.13.22,1.44.67s.37,1.11.19,1.98c-.18.83-.52,1.51-1.04,2.06s-1.13.82-1.84.82c-.4,0-.71-.1-.94-.29-.14-.11-.27-.3-.41-.55l-.14.67h-.81l1.53-7.2ZM486.62,5.92c.12-.55.1-1.01-.06-1.37s-.47-.54-.93-.54c-.4,0-.78.15-1.15.44s-.62.78-.76,1.46c-.1.49-.13.89-.07,1.2.11.58.48.86,1.11.86.48,0,.87-.19,1.19-.57s.54-.88.67-1.49Z"/>
      <path class="cls-6" d="M489.52,1.41h.88l-1.52,7.17h-.88l1.52-7.17Z"/>
      <path class="cls-6" d="M495.18,4.18c.12.26.17.57.16.92,0,.24-.05.62-.17,1.15h-3.83c-.1.53-.06.96.1,1.28s.5.48.99.48c.46,0,.86-.15,1.19-.45.2-.18.35-.38.46-.61h.86c-.06.19-.19.41-.36.64s-.36.43-.55.58c-.32.26-.69.44-1.1.53-.22.05-.47.08-.74.08-.65,0-1.15-.24-1.5-.71s-.44-1.14-.25-1.99c.18-.84.55-1.52,1.12-2.05s1.22-.79,1.95-.79c.37,0,.71.09,1.03.26s.53.4.65.68ZM494.42,5.55c.05-.38.03-.69-.05-.91-.15-.42-.51-.63-1.07-.63-.4,0-.77.15-1.11.44s-.56.66-.67,1.11h2.91Z"/>
    </g>
    <g>
      <line class="cls-5" x1="395.93" y1="13.19" x2="558.34" y2="13.19"/>
      <polygon class="cls-6" points="396.66 15.68 392.35 13.19 396.66 10.69 396.66 15.68"/>
      <polygon class="cls-6" points="557.61 15.68 561.93 13.19 557.61 10.69 557.61 15.68"/>
    </g>
    <g>
      <path class="cls-6" d="M712.11,1.41l.76,6.11,3.33-6.11h1.09l-4.14,7.17h-1.03l-1.09-7.17h1.07Z"/>
      <path class="cls-6" d="M719.31,5.42c.21-.03.36-.11.46-.25.06-.08.1-.19.13-.34.06-.3,0-.52-.18-.65s-.48-.2-.87-.2c-.46,0-.81.12-1.05.37-.14.14-.25.34-.34.61h-.82c.15-.64.46-1.09.91-1.35s.95-.38,1.48-.38c.62,0,1.09.12,1.42.35s.45.6.34,1.09l-.64,3.01c-.02.09-.02.16,0,.22s.1.08.22.08c.04,0,.08,0,.13,0s.1-.01.16-.02l-.14.65c-.14.04-.25.06-.32.07s-.17.01-.3.01c-.3,0-.5-.11-.59-.32-.05-.11-.06-.27-.05-.48-.23.23-.53.44-.9.61s-.76.26-1.16.26c-.48,0-.85-.15-1.1-.44s-.32-.66-.23-1.11c.1-.48.34-.86.7-1.13s.79-.43,1.3-.49l1.44-.18ZM717.57,8.02c.31,0,.62-.07.95-.21.54-.24.86-.63.98-1.17l.15-.71c-.12.07-.27.13-.45.17s-.35.08-.52.1l-.55.07c-.33.04-.58.11-.76.2-.3.15-.49.4-.56.73-.06.25,0,.45.15.6s.36.22.61.22Z"/>
      <path class="cls-6" d="M722.53,3.36h.83l-.19.9c.1-.18.32-.39.64-.64s.66-.38,1-.38c.02,0,.04,0,.08,0s.1,0,.2.02l-.2.93c-.05,0-.1-.02-.14-.02s-.09,0-.14,0c-.44,0-.81.14-1.11.43s-.49.61-.57.98l-.63,3.01h-.88l1.11-5.23Z"/>
      <path class="cls-6" d="M725.83,3.38h.89l-1.1,5.21h-.89l1.1-5.21ZM726.25,1.41h.89l-.21,1h-.89l.21-1Z"/>
      <path class="cls-6" d="M730.42,5.42c.21-.03.36-.11.46-.25.06-.08.1-.19.13-.34.06-.3,0-.52-.18-.65s-.48-.2-.87-.2c-.46,0-.81.12-1.05.37-.14.14-.25.34-.34.61h-.82c.15-.64.46-1.09.91-1.35s.95-.38,1.48-.38c.62,0,1.09.12,1.42.35s.45.6.34,1.09l-.64,3.01c-.02.09-.02.16,0,.22s.1.08.22.08c.04,0,.08,0,.13,0s.1-.01.16-.02l-.14.65c-.14.04-.25.06-.32.07s-.17.01-.3.01c-.3,0-.5-.11-.59-.32-.05-.11-.06-.27-.05-.48-.23.23-.53.44-.9.61s-.76.26-1.16.26c-.48,0-.85-.15-1.1-.44s-.32-.66-.23-1.11c.1-.48.34-.86.7-1.13s.79-.43,1.3-.49l1.44-.18ZM728.68,8.02c.31,0,.62-.07.95-.21.54-.24.86-.63.98-1.17l.15-.71c-.12.07-.27.13-.45.17s-.35.08-.52.1l-.55.07c-.33.04-.58.11-.76.2-.3.15-.49.4-.56.73-.06.25,0,.45.15.6s.36.22.61.22Z"/>
      <path class="cls-6" d="M733.97,1.39h.85l-.55,2.6c.24-.25.51-.44.81-.57s.6-.2.91-.2c.65,0,1.13.22,1.44.67s.37,1.11.19,1.98c-.18.83-.52,1.51-1.04,2.06s-1.13.82-1.84.82c-.4,0-.71-.1-.94-.29-.14-.11-.27-.3-.41-.55l-.14.67h-.81l1.53-7.2ZM736.72,5.92c.12-.55.1-1.01-.06-1.37s-.47-.54-.93-.54c-.4,0-.78.15-1.15.44s-.62.78-.76,1.46c-.1.49-.13.89-.07,1.2.11.58.48.86,1.11.86.48,0,.87-.19,1.19-.57s.54-.88.67-1.49Z"/>
      <path class="cls-6" d="M739.62,1.41h.88l-1.52,7.17h-.88l1.52-7.17Z"/>
      <path class="cls-6" d="M745.28,4.18c.12.26.17.57.16.92,0,.24-.05.62-.17,1.15h-3.83c-.1.53-.06.96.1,1.28s.5.48.99.48c.46,0,.86-.15,1.19-.45.2-.18.35-.38.46-.61h.86c-.06.19-.19.41-.36.64s-.36.43-.55.58c-.32.26-.69.44-1.1.53-.22.05-.47.08-.74.08-.65,0-1.15-.24-1.5-.71s-.44-1.14-.25-1.99c.18-.84.55-1.52,1.12-2.05s1.22-.79,1.95-.79c.37,0,.71.09,1.03.26s.53.4.65.68ZM744.52,5.55c.05-.38.03-.69-.05-.91-.15-.42-.51-.63-1.07-.63-.4,0-.77.15-1.11.44s-.56.66-.67,1.11h2.91Z"/>
    </g>
    <g>
      <line class="cls-5" x1="633.39" y1="13.19" x2="821.09" y2="13.19"/>
      <polygon class="cls-6" points="634.12 15.68 629.8 13.19 634.12 10.69 634.12 15.68"/>
      <polygon class="cls-6" points="820.36 15.68 824.68 13.19 820.36 10.69 820.36 15.68"/>
    </g>
  </g>
  <g id="Layer_1-2" data-name="Layer 1">
    <g>
      <rect class="cls-4" x="10.35" y="110.15" width="70.67" height="37.83" rx="2" ry="2"/>
      <g>
        <path class="cls-1" d="M35.16,120.27l1.35,5.83,1.62-5.83h1.05l1.62,5.84,1.35-5.84h1.07l-1.88,7.17h-1.02l-1.66-5.95-1.67,5.95h-1.02l-1.88-7.17h1.05Z"/>
        <path class="cls-1" d="M46.44,124.28c.2-.03.34-.11.41-.25.04-.08.06-.19.06-.34,0-.3-.11-.52-.32-.65-.21-.14-.52-.2-.91-.2-.46,0-.78.12-.97.37-.11.14-.18.34-.21.61h-.82c.02-.65.23-1.1.63-1.35.4-.25.87-.38,1.4-.38.61,0,1.11.12,1.5.35.38.23.57.6.57,1.09v3.01c0,.09.02.16.06.22s.12.08.24.08c.04,0,.08,0,.13,0s.1-.01.16-.02v.65c-.14.04-.24.06-.31.07s-.17.01-.29.01c-.3,0-.52-.11-.66-.32-.07-.11-.12-.27-.15-.48-.18.23-.44.44-.77.61s-.7.26-1.11.26c-.48,0-.88-.15-1.19-.44-.31-.29-.46-.66-.46-1.1,0-.48.15-.86.45-1.13s.7-.43,1.19-.49l1.4-.18ZM44.59,126.65c.19.15.41.22.66.22.31,0,.61-.07.9-.21.49-.24.73-.63.73-1.17v-.71c-.11.07-.25.13-.41.17s-.33.08-.5.1l-.53.07c-.32.04-.56.11-.72.2-.27.15-.41.4-.41.73,0,.25.09.45.28.6Z"/>
        <path class="cls-1" d="M49.22,122.21h.83v.9c.07-.18.24-.39.5-.64s.57-.38.92-.38c.02,0,.04,0,.08,0s.11,0,.2.02v.93c-.05,0-.1-.02-.14-.02s-.09,0-.14,0c-.44,0-.78.14-1.02.43s-.36.61-.36.98v3.01h-.88v-5.23Z"/>
        <path class="cls-1" d="M52.46,122.24h.86v.69c.18-.24.37-.42.58-.55.3-.2.65-.29,1.05-.29.59,0,1.1.23,1.51.68.41.45.62,1.1.62,1.95,0,1.14-.3,1.95-.9,2.44-.38.31-.82.46-1.32.46-.4,0-.73-.09-1-.26-.16-.1-.33-.27-.52-.5v2.67h-.88v-7.29ZM55.76,126.33c.27-.34.41-.86.41-1.54,0-.42-.06-.77-.18-1.07-.23-.58-.65-.86-1.25-.86s-1.03.3-1.25.91c-.12.33-.18.74-.18,1.24,0,.4.06.75.18,1.03.23.54.65.81,1.25.81.41,0,.75-.17,1.03-.52Z"/>
        <path class="cls-1" d="M22.34,135.13c.02.41.11.74.28.99.31.48.86.71,1.64.71.35,0,.67-.05.96-.16.56-.2.84-.56.84-1.08,0-.39-.12-.67-.35-.83-.24-.16-.61-.3-1.13-.42l-.94-.22c-.61-.14-1.05-.3-1.31-.47-.44-.3-.66-.75-.66-1.34,0-.64.22-1.17.65-1.59s1.05-.62,1.84-.62c.73,0,1.35.18,1.86.54.51.36.77.94.77,1.74h-.91c-.05-.38-.15-.68-.3-.88-.28-.37-.77-.56-1.45-.56-.55,0-.94.12-1.18.36s-.36.52-.36.84c0,.35.14.61.43.77.19.1.61.23,1.26.39l.97.23c.47.11.83.26,1.09.45.44.34.66.82.66,1.46,0,.79-.28,1.36-.85,1.7s-1.22.51-1.96.51c-.87,0-1.55-.23-2.04-.68-.49-.45-.73-1.07-.72-1.84h.91Z"/>
        <path class="cls-1" d="M31.71,132.49c.37.29.59.78.67,1.48h-.85c-.05-.32-.17-.59-.36-.8s-.48-.32-.89-.32c-.56,0-.96.27-1.2.82-.16.35-.23.79-.23,1.31s.11.96.33,1.32c.22.36.57.54,1.04.54.36,0,.65-.11.87-.33s.36-.53.44-.91h.85c-.1.69-.34,1.2-.73,1.52s-.89.48-1.5.48c-.68,0-1.23-.25-1.64-.75s-.61-1.12-.61-1.87c0-.92.22-1.63.67-2.14s1.01-.77,1.7-.77c.59,0,1.07.14,1.44.43Z"/>
        <path class="cls-1" d="M33.26,130.24h.88v2.68c.21-.26.4-.45.56-.56.28-.19.64-.28,1.06-.28.76,0,1.27.27,1.54.8.15.29.22.69.22,1.21v3.35h-.9v-3.3c0-.38-.05-.67-.15-.84-.16-.29-.46-.43-.9-.43-.36,0-.69.13-.99.38s-.44.72-.44,1.42v2.77h-.88v-7.2Z"/>
        <path class="cls-1" d="M42.05,132.36c.35.17.61.4.79.68.17.26.29.57.35.92.05.24.08.62.08,1.15h-3.8c.02.53.14.96.37,1.28.23.32.59.48,1.08.48.46,0,.82-.15,1.09-.46.15-.18.26-.38.32-.61h.86c-.02.19-.1.41-.23.64s-.27.43-.43.58c-.27.26-.59.44-.98.53-.21.05-.45.08-.71.08-.65,0-1.2-.24-1.65-.71s-.67-1.14-.67-1.99.23-1.52.68-2.05c.45-.52,1.04-.79,1.78-.79.37,0,.73.09,1.07.26ZM42.36,134.41c-.04-.38-.12-.69-.25-.91-.24-.42-.64-.63-1.2-.63-.4,0-.74.15-1.01.44-.27.29-.41.66-.43,1.11h2.88Z"/>
        <path class="cls-1" d="M47.25,132.37c.16.1.33.27.53.51v-2.64h.84v7.2h-.79v-.73c-.2.32-.45.56-.72.7-.28.14-.6.21-.96.21-.58,0-1.08-.25-1.51-.73s-.64-1.14-.64-1.96c0-.76.19-1.42.58-1.98.39-.56.94-.84,1.66-.84.4,0,.73.08,1,.25ZM45.29,136.29c.24.38.62.57,1.14.57.4,0,.74-.17,1-.52s.39-.85.39-1.51-.13-1.15-.4-1.47c-.27-.32-.6-.48-1-.48-.44,0-.8.17-1.07.51-.27.34-.41.84-.41,1.49,0,.56.12,1.03.35,1.41Z"/>
        <path class="cls-1" d="M50.82,132.21v3.47c0,.27.04.48.12.65.15.31.44.47.85.47.6,0,1-.27,1.22-.82.12-.29.18-.69.18-1.21v-2.57h.88v5.23h-.83v-.77c-.1.2-.24.37-.41.5-.33.27-.73.41-1.2.41-.73,0-1.23-.25-1.49-.75-.14-.27-.22-.62-.22-1.07v-3.55h.9Z"/>
        <path class="cls-1" d="M55.53,130.27h.88v7.17h-.88v-7.17Z"/>
        <path class="cls-1" d="M57.73,130.27h.89v1h-.89v-1ZM57.73,132.24h.89v5.21h-.89v-5.21Z"/>
        <path class="cls-1" d="M59.95,132.21h.83v.74c.25-.31.51-.53.79-.66s.58-.2.92-.2c.74,0,1.24.26,1.5.78.14.28.21.69.21,1.22v3.35h-.89v-3.3c0-.32-.05-.58-.14-.77-.16-.33-.44-.49-.85-.49-.21,0-.38.02-.51.06-.24.07-.45.21-.63.43-.15.17-.24.35-.29.53s-.07.45-.07.79v2.74h-.88v-5.23Z"/>
        <path class="cls-1" d="M68.42,132.42c.17.11.33.28.51.5v-.66h.81v4.76c0,.66-.1,1.19-.29,1.57-.36.71-1.05,1.06-2.06,1.06-.56,0-1.03-.13-1.42-.38s-.6-.65-.64-1.18h.89c.04.23.13.42.25.54.2.2.51.29.93.29.67,0,1.11-.24,1.32-.71.12-.28.18-.78.17-1.5-.18.27-.39.47-.63.6s-.57.2-.98.2c-.56,0-1.06-.2-1.48-.6-.42-.4-.63-1.07-.63-1.99,0-.88.21-1.56.64-2.05s.94-.74,1.54-.74c.41,0,.77.1,1.07.3ZM68.52,133.36c-.27-.31-.6-.47-1.02-.47-.62,0-1.04.29-1.26.87-.12.31-.18.71-.18,1.22,0,.59.12,1.04.36,1.35.24.31.56.46.96.46.63,0,1.07-.28,1.33-.85.14-.32.21-.7.21-1.13,0-.65-.13-1.13-.4-1.44Z"/>
      </g>
    </g>
    <g>
      <rect class="cls-4" x="100.72" y="110.15" width="59.67" height="37.83" rx="2" ry="2"/>
      <g>
        <path class="cls-1" d="M118.9,124.95h4.98v.88h-4v2.18h3.52v.85h-3.52v3.26h-.97v-7.17Z"/>
        <path class="cls-1" d="M128.03,127.04c.35.17.61.4.79.68.17.26.29.57.35.92.05.24.08.62.08,1.15h-3.8c.02.53.14.96.37,1.28.23.32.59.48,1.08.48.46,0,.82-.15,1.09-.46.15-.18.26-.38.32-.61h.86c-.02.19-.1.41-.23.64s-.27.43-.43.58c-.27.26-.59.44-.98.53-.21.05-.45.08-.71.08-.65,0-1.2-.24-1.65-.71s-.67-1.14-.67-1.99.23-1.52.68-2.05c.45-.52,1.04-.79,1.78-.79.37,0,.73.09,1.07.26ZM128.34,129.09c-.04-.38-.12-.69-.25-.91-.24-.42-.64-.63-1.2-.63-.4,0-.74.15-1.01.44-.27.29-.41.66-.43,1.11h2.88Z"/>
        <path class="cls-1" d="M130.54,125.43h.89v1.46h.83v.72h-.83v3.41c0,.18.06.3.19.37.07.04.18.05.34.05.04,0,.09,0,.14,0,.05,0,.11,0,.17-.02v.7c-.1.03-.21.05-.31.06s-.23.02-.35.02c-.41,0-.69-.1-.83-.31s-.22-.48-.22-.82v-3.46h-.71v-.72h.71v-1.46Z"/>
        <path class="cls-1" d="M136.59,127.17c.37.29.59.78.67,1.48h-.85c-.05-.32-.17-.59-.36-.8s-.48-.32-.89-.32c-.56,0-.96.27-1.2.82-.16.35-.23.79-.23,1.31s.11.96.33,1.32c.22.36.57.54,1.04.54.36,0,.65-.11.87-.33s.36-.53.44-.91h.85c-.1.69-.34,1.2-.73,1.52s-.89.48-1.5.48c-.68,0-1.23-.25-1.64-.75s-.61-1.12-.61-1.87c0-.92.22-1.63.67-2.14s1.01-.77,1.7-.77c.59,0,1.07.14,1.44.43Z"/>
        <path class="cls-1" d="M138.14,124.92h.88v2.68c.21-.26.4-.45.56-.56.28-.19.64-.28,1.06-.28.76,0,1.27.27,1.54.8.15.29.22.69.22,1.21v3.35h-.9v-3.3c0-.38-.05-.67-.15-.84-.16-.29-.46-.43-.9-.43-.36,0-.69.13-.99.38s-.44.72-.44,1.42v2.77h-.88v-7.2Z"/>
      </g>
    </g>
    <g>
      <rect class="cls-4" x="571.56" y="110.15" width="49.71" height="37.83" rx="2" ry="2"/>
      <g>
        <path class="cls-1" d="M577.76,120.38h2.87c.97,0,1.73.35,2.26,1.05.48.63.72,1.44.72,2.43,0,.76-.14,1.45-.42,2.07-.5,1.09-1.35,1.63-2.57,1.63h-2.86v-7.17ZM580.44,126.72c.32,0,.59-.03.79-.1.37-.13.67-.37.91-.73.19-.29.32-.66.41-1.11.05-.27.07-.52.07-.75,0-.89-.17-1.58-.52-2.07s-.9-.74-1.67-.74h-1.69v5.51h1.69Z"/>
        <path class="cls-1" d="M584.82,120.38h.89v1h-.89v-1ZM584.82,122.35h.89v5.21h-.89v-5.21Z"/>
        <path class="cls-1" d="M587.57,125.91c.03.29.1.52.22.67.23.28.62.42,1.18.42.33,0,.62-.07.88-.21s.38-.36.38-.66c0-.22-.1-.4-.3-.51-.13-.07-.38-.15-.76-.25l-.71-.18c-.45-.11-.79-.23-1-.37-.38-.24-.58-.57-.58-.99,0-.49.18-.9.54-1.2.36-.31.85-.46,1.46-.46.8,0,1.37.23,1.73.69.22.29.33.61.32.95h-.83c-.02-.2-.09-.38-.21-.54-.21-.23-.56-.34-1.07-.34-.34,0-.6.06-.77.19-.17.13-.26.29-.26.5,0,.23.11.41.34.54.13.08.33.15.59.21l.59.14c.64.15,1.07.3,1.29.44.34.22.51.58.51,1.06s-.18.87-.54,1.21c-.36.34-.9.51-1.63.51-.79,0-1.35-.18-1.67-.53-.33-.35-.5-.79-.53-1.31h.84Z"/>
        <path class="cls-1" d="M591.97,122.35h.86v.69c.18-.24.37-.42.58-.55.3-.2.65-.29,1.05-.29.59,0,1.1.23,1.51.68.41.45.62,1.1.62,1.95,0,1.14-.3,1.95-.9,2.44-.38.31-.82.46-1.32.46-.4,0-.73-.09-1-.26-.16-.1-.33-.27-.52-.5v2.67h-.88v-7.29ZM595.28,126.45c.27-.34.41-.86.41-1.54,0-.42-.06-.77-.18-1.07-.23-.58-.65-.86-1.25-.86s-1.03.3-1.25.91c-.12.33-.18.74-.18,1.24,0,.4.06.75.18,1.03.23.54.65.81,1.25.81.41,0,.75-.17,1.03-.52Z"/>
        <path class="cls-1" d="M600.41,124.39c.2-.03.34-.11.41-.25.04-.08.06-.19.06-.34,0-.3-.11-.52-.32-.65-.21-.14-.52-.2-.91-.2-.46,0-.78.12-.97.37-.11.14-.18.34-.21.61h-.82c.02-.65.23-1.1.63-1.35.4-.25.87-.38,1.4-.38.61,0,1.11.12,1.5.35.38.23.57.6.57,1.09v3.01c0,.09.02.16.06.22s.12.08.24.08c.04,0,.08,0,.13,0s.1-.01.16-.02v.65c-.14.04-.24.06-.31.07s-.17.01-.29.01c-.3,0-.52-.11-.66-.32-.07-.11-.12-.27-.15-.48-.18.23-.44.44-.77.61s-.7.26-1.11.26c-.48,0-.88-.15-1.19-.44-.31-.29-.46-.66-.46-1.1,0-.48.15-.86.45-1.13s.7-.43,1.19-.49l1.4-.18ZM598.56,126.76c.19.15.41.22.66.22.31,0,.61-.07.9-.21.49-.24.73-.63.73-1.17v-.71c-.11.07-.25.13-.41.17s-.33.08-.5.1l-.53.07c-.32.04-.56.11-.72.2-.27.15-.41.4-.41.73,0,.25.09.45.28.6Z"/>
        <path class="cls-1" d="M603.34,120.86h.89v1.46h.83v.72h-.83v3.41c0,.18.06.3.19.37.07.04.18.05.34.05.04,0,.09,0,.14,0,.05,0,.11,0,.17-.02v.7c-.1.03-.21.05-.31.06s-.23.02-.35.02c-.41,0-.69-.1-.83-.31s-.22-.48-.22-.82v-3.46h-.71v-.72h.71v-1.46Z"/>
        <path class="cls-1" d="M609.4,122.6c.37.29.59.78.67,1.48h-.85c-.05-.32-.17-.59-.36-.8s-.48-.32-.89-.32c-.56,0-.96.27-1.2.82-.16.35-.23.79-.23,1.31s.11.96.33,1.32c.22.36.57.54,1.04.54.36,0,.65-.11.87-.33s.36-.53.44-.91h.85c-.1.69-.34,1.2-.73,1.52s-.89.48-1.5.48c-.68,0-1.23-.25-1.64-.75s-.61-1.12-.61-1.87c0-.92.22-1.63.67-2.14s1.01-.77,1.7-.77c.59,0,1.07.14,1.44.43Z"/>
        <path class="cls-1" d="M610.95,120.35h.88v2.68c.21-.26.4-.45.56-.56.28-.19.64-.28,1.06-.28.76,0,1.27.27,1.54.8.15.29.22.69.22,1.21v3.35h-.9v-3.3c0-.38-.05-.67-.15-.84-.16-.29-.46-.43-.9-.43-.36,0-.69.13-.99.38s-.44.72-.44,1.42v2.77h-.88v-7.2Z"/>
        <path class="cls-1" d="M582.24,135.24c.02.41.11.74.28.99.31.48.86.71,1.64.71.35,0,.67-.05.96-.16.56-.2.84-.56.84-1.08,0-.39-.12-.67-.35-.83-.24-.16-.61-.3-1.13-.42l-.94-.22c-.61-.14-1.05-.3-1.31-.47-.44-.3-.66-.75-.66-1.34,0-.64.22-1.17.65-1.59s1.05-.62,1.84-.62c.73,0,1.35.18,1.86.54.51.36.77.94.77,1.74h-.91c-.05-.38-.15-.68-.3-.88-.28-.37-.77-.56-1.45-.56-.55,0-.94.12-1.18.36s-.36.52-.36.84c0,.35.14.61.43.77.19.1.61.23,1.26.39l.97.23c.47.11.83.26,1.09.45.44.34.66.82.66,1.46,0,.79-.28,1.36-.85,1.7s-1.22.51-1.96.51c-.87,0-1.55-.23-2.04-.68-.49-.45-.73-1.07-.72-1.84h.91Z"/>
        <path class="cls-1" d="M591.61,132.6c.37.29.59.78.67,1.48h-.85c-.05-.32-.17-.59-.36-.8s-.48-.32-.89-.32c-.56,0-.96.27-1.2.82-.16.35-.23.79-.23,1.31s.11.96.33,1.32c.22.36.57.54,1.04.54.36,0,.65-.11.87-.33s.36-.53.44-.91h.85c-.1.69-.34,1.2-.73,1.52s-.89.48-1.5.48c-.68,0-1.23-.25-1.64-.75s-.61-1.12-.61-1.87c0-.92.22-1.63.67-2.14s1.01-.77,1.7-.77c.59,0,1.07.14,1.44.43Z"/>
        <path class="cls-1" d="M593.16,130.35h.88v2.68c.21-.26.4-.45.56-.56.28-.19.64-.28,1.06-.28.76,0,1.27.27,1.54.8.15.29.22.69.22,1.21v3.35h-.9v-3.3c0-.38-.05-.67-.15-.84-.16-.29-.46-.43-.9-.43-.36,0-.69.13-.99.38s-.44.72-.44,1.42v2.77h-.88v-7.2Z"/>
        <path class="cls-1" d="M601.95,132.47c.35.17.61.4.79.68.17.26.29.57.35.92.05.24.08.62.08,1.15h-3.8c.02.53.14.96.37,1.28.23.32.59.48,1.08.48.46,0,.82-.15,1.09-.46.15-.18.26-.38.32-.61h.86c-.02.19-.1.41-.23.64s-.27.43-.43.58c-.27.26-.59.44-.98.53-.21.05-.45.08-.71.08-.65,0-1.2-.24-1.65-.71s-.67-1.14-.67-1.99.23-1.52.68-2.05c.45-.52,1.04-.79,1.78-.79.37,0,.73.09,1.07.26ZM602.26,134.52c-.04-.38-.12-.69-.25-.91-.24-.42-.64-.63-1.2-.63-.4,0-.74.15-1.01.44-.27.29-.41.66-.43,1.11h2.88Z"/>
        <path class="cls-1" d="M607.15,132.48c.16.1.33.27.53.51v-2.64h.84v7.2h-.79v-.73c-.2.32-.45.56-.72.7-.28.14-.6.21-.96.21-.58,0-1.08-.25-1.51-.73s-.64-1.14-.64-1.96c0-.76.19-1.42.58-1.98.39-.56.94-.84,1.66-.84.4,0,.73.08,1,.25ZM605.19,136.4c.24.38.62.57,1.14.57.4,0,.74-.17,1-.52s.39-.85.39-1.51-.13-1.15-.4-1.47c-.27-.32-.6-.48-1-.48-.44,0-.8.17-1.07.51-.27.34-.41.84-.41,1.49,0,.56.12,1.03.35,1.41Z"/>
        <path class="cls-1" d="M610.05,136.49h1.02v1.06h-1.02v-1.06Z"/>
      </g>
    </g>
    <g>
      <rect class="cls-4" x="833.32" y="110.15" width="60.61" height="37.83" rx="2" ry="2"/>
      <g>
        <path class="cls-1" d="M842.72,124.95l1.35,5.83,1.62-5.83h1.05l1.62,5.84,1.35-5.84h1.07l-1.88,7.17h-1.02l-1.66-5.95-1.67,5.95h-1.02l-1.88-7.17h1.05Z"/>
        <path class="cls-1" d="M851.41,126.89h.83v.9c.07-.18.24-.39.5-.64.27-.25.58-.38.92-.38.02,0,.04,0,.08,0s.11,0,.2.02v.93c-.05,0-.1-.02-.14-.02s-.09,0-.14,0c-.44,0-.78.14-1.02.43-.24.28-.36.61-.36.98v3.01h-.88v-5.23Z"/>
        <path class="cls-1" d="M854.72,124.95h.89v1h-.89v-1ZM854.72,126.92h.89v5.21h-.89v-5.21Z"/>
        <path class="cls-1" d="M857.11,125.43h.89v1.46h.83v.72h-.83v3.41c0,.18.06.3.19.37.07.04.18.05.34.05.04,0,.09,0,.14,0,.05,0,.11,0,.17-.02v.7c-.1.03-.21.05-.31.06-.11.01-.23.02-.35.02-.41,0-.69-.1-.83-.31s-.22-.48-.22-.82v-3.46h-.71v-.72h.71v-1.46Z"/>
        <path class="cls-1" d="M862.95,127.04c.35.17.61.4.79.68.17.26.29.57.35.92.05.24.08.62.08,1.15h-3.8c.02.53.14.96.37,1.28.23.32.59.48,1.08.48.46,0,.82-.15,1.09-.46.15-.18.26-.38.32-.61h.86c-.02.19-.1.41-.23.64-.13.24-.27.43-.43.58-.26.26-.59.44-.98.53-.21.05-.45.08-.71.08-.65,0-1.2-.24-1.64-.71-.45-.47-.67-1.14-.67-1.99s.23-1.52.68-2.05,1.04-.79,1.78-.79c.37,0,.73.09,1.07.26ZM863.26,129.09c-.04-.38-.12-.69-.25-.91-.24-.42-.64-.63-1.2-.63-.4,0-.74.15-1.01.44-.27.29-.41.66-.43,1.11h2.88Z"/>
        <path class="cls-1" d="M865.21,124.92h.85v2.6c.19-.25.42-.44.69-.57s.56-.2.87-.2c.65,0,1.18.22,1.59.67.41.45.61,1.11.61,1.98,0,.83-.2,1.51-.6,2.06-.4.55-.96.82-1.67.82-.4,0-.74-.1-1.01-.29-.16-.11-.34-.3-.52-.55v.67h-.81v-7.2ZM868.57,130.94c.24-.38.36-.88.36-1.49,0-.55-.12-1.01-.36-1.37-.24-.36-.58-.54-1.05-.54-.4,0-.75.15-1.06.44-.3.3-.45.78-.45,1.46,0,.49.06.89.19,1.2.23.58.66.86,1.3.86.48,0,.83-.19,1.07-.57Z"/>
        <path class="cls-1" d="M873.64,128.96c.2-.03.34-.11.41-.25.04-.08.06-.19.06-.34,0-.3-.11-.52-.32-.65-.21-.14-.52-.2-.91-.2-.46,0-.78.12-.97.37-.11.14-.18.34-.21.61h-.82c.02-.65.23-1.1.63-1.35s.87-.38,1.4-.38c.61,0,1.11.12,1.5.35.38.23.57.6.57,1.09v3.01c0,.09.02.16.06.22.04.06.12.08.24.08.04,0,.08,0,.13,0s.1-.01.16-.02v.65c-.14.04-.24.06-.31.07-.07,0-.17.01-.29.01-.3,0-.52-.11-.66-.32-.07-.11-.12-.27-.15-.48-.18.23-.44.44-.77.61-.33.17-.7.26-1.11.26-.48,0-.88-.15-1.19-.44-.31-.29-.46-.66-.46-1.1,0-.48.15-.86.45-1.13s.7-.43,1.19-.49l1.4-.18ZM871.79,131.33c.19.15.41.22.66.22.31,0,.61-.07.9-.21.49-.24.73-.63.73-1.17v-.71c-.11.07-.25.13-.41.17s-.33.08-.5.1l-.53.07c-.32.04-.56.11-.72.2-.27.15-.41.4-.41.73,0,.25.09.45.28.6Z"/>
        <path class="cls-1" d="M879.86,127.17c.37.29.59.78.67,1.48h-.85c-.05-.32-.17-.59-.36-.8s-.48-.32-.89-.32c-.56,0-.96.27-1.2.82-.16.35-.23.79-.23,1.31s.11.96.33,1.32c.22.36.57.54,1.04.54.37,0,.65-.11.87-.33.21-.22.36-.53.44-.91h.85c-.1.69-.34,1.2-.73,1.52s-.89.48-1.5.48c-.68,0-1.23-.25-1.64-.75-.41-.5-.61-1.12-.61-1.87,0-.92.22-1.63.67-2.14.45-.51,1.01-.77,1.7-.77.59,0,1.07.14,1.44.43Z"/>
        <path class="cls-1" d="M881.38,124.95h.84v4.16l2.25-2.22h1.12l-2.01,1.94,2.12,3.29h-1.12l-1.65-2.66-.72.7v1.96h-.84v-7.17Z"/>
      </g>
    </g>
    <g>
      <rect class="cls-4" x="669.38" y="72.69" width="116.08" height="23.94" rx="2" ry="2"/>
      <g>
        <path class="cls-1" d="M720.35,80.54h.98v7.17h-.98v-7.17Z"/>
        <path class="cls-1" d="M722.9,80.54h1.14l3.58,5.8v-5.8h.93v7.17h-1.09l-3.63-5.79v5.79h-.93v-7.17Z"/>
        <path class="cls-1" d="M735.34,80.54v.85h-2.42v6.32h-.98v-6.32h-2.42v-.85h5.82Z"/>
      </g>
    </g>
    <g>
      <rect class="cls-4" x="669.38" y="105.7" width="116.08" height="23.94" rx="2" ry="2"/>
      <g>
        <path class="cls-1" d="M718.27,113.55h4.98v.88h-4v2.18h3.52v.85h-3.52v3.26h-.97v-7.17Z"/>
        <path class="cls-1" d="M724.38,113.55h3.21c.63,0,1.15.18,1.54.54s.59.87.59,1.52c0,.56-.17,1.05-.52,1.46s-.88.62-1.6.62h-2.24v3.03h-.97v-7.17ZM728.15,114.53c-.21-.1-.51-.15-.88-.15h-1.92v2.49h1.92c.43,0,.78-.09,1.05-.28s.4-.51.4-.98c0-.53-.19-.89-.58-1.07Z"/>
        <path class="cls-1" d="M732.01,113.55v4.43c0,.52.1.95.3,1.3.29.52.78.78,1.48.78.83,0,1.39-.28,1.69-.84.16-.31.24-.72.24-1.24v-4.43h.98v4.03c0,.88-.12,1.56-.36,2.04-.44.87-1.26,1.3-2.48,1.3s-2.04-.43-2.47-1.3c-.24-.48-.36-1.15-.36-2.04v-4.03h.98Z"/>
      </g>
    </g>
    <g>
      <rect class="cls-4" x="669.38" y="138.71" width="116.08" height="23.94" rx="2" ry="2"/>
      <g>
        <path class="cls-1" d="M718.45,146.56h.97v6.32h3.6v.85h-4.57v-7.17Z"/>
        <path class="cls-1" d="M724.65,151.41c.02.41.11.74.28.99.31.48.86.71,1.64.71.35,0,.67-.05.96-.16.56-.2.84-.56.84-1.08,0-.39-.12-.67-.35-.83-.24-.16-.61-.3-1.13-.42l-.94-.22c-.61-.14-1.05-.3-1.31-.47-.44-.3-.66-.75-.66-1.34,0-.64.22-1.17.65-1.59s1.05-.62,1.84-.62c.73,0,1.35.18,1.86.54.51.36.77.94.77,1.74h-.91c-.05-.38-.15-.68-.3-.88-.28-.37-.77-.56-1.45-.56-.55,0-.94.12-1.18.36s-.36.52-.36.84c0,.35.14.61.43.77.19.1.61.23,1.26.39l.97.23c.47.11.83.26,1.09.45.44.34.66.82.66,1.46,0,.79-.28,1.36-.85,1.7s-1.22.51-1.96.51c-.87,0-1.55-.23-2.04-.68-.49-.45-.73-1.07-.72-1.84h.91Z"/>
        <path class="cls-1" d="M731.73,146.56v4.43c0,.52.1.95.3,1.3.29.52.78.78,1.48.78.83,0,1.39-.28,1.69-.84.16-.31.24-.72.24-1.23v-4.43h.98v4.03c0,.88-.12,1.56-.36,2.04-.44.87-1.26,1.3-2.48,1.3s-2.04-.43-2.47-1.3c-.24-.47-.36-1.15-.36-2.04v-4.03h.98Z"/>
      </g>
    </g>
    <g>
      <rect class="cls-4" x="669.38" y="171.72" width="116.08" height="23.94" rx="2" ry="2"/>
      <g>
        <path class="cls-1" d="M718.81,184.42c.02.41.11.74.28.99.31.47.86.71,1.64.71.35,0,.67-.05.96-.16.56-.2.84-.56.84-1.08,0-.39-.12-.67-.35-.83-.24-.16-.61-.3-1.13-.42l-.94-.22c-.61-.14-1.05-.3-1.31-.47-.44-.3-.66-.75-.66-1.34,0-.64.22-1.17.65-1.59.43-.41,1.05-.62,1.84-.62.73,0,1.35.18,1.86.54.51.36.77.94.77,1.74h-.91c-.05-.38-.15-.68-.3-.88-.28-.38-.77-.56-1.45-.56-.55,0-.94.12-1.18.36-.24.24-.36.52-.36.84,0,.35.14.61.43.77.19.1.61.23,1.26.39l.97.23c.47.11.83.26,1.09.45.44.33.66.82.66,1.46,0,.79-.28,1.36-.85,1.7s-1.22.51-1.96.51c-.87,0-1.55-.23-2.04-.68-.49-.45-.73-1.07-.72-1.84h.91Z"/>
        <path class="cls-1" d="M724.94,179.56h4.98v.88h-4v2.18h3.52v.85h-3.52v3.26h-.97v-7.17Z"/>
        <path class="cls-1" d="M732.01,179.56v4.43c0,.52.1.95.3,1.3.29.52.78.78,1.48.78.83,0,1.39-.28,1.69-.84.16-.31.24-.72.24-1.24v-4.43h.98v4.03c0,.88-.12,1.56-.36,2.04-.44.87-1.26,1.3-2.48,1.3s-2.04-.43-2.47-1.3c-.24-.48-.36-1.15-.36-2.04v-4.03h.98Z"/>
      </g>
    </g>
    <g>
      <rect class="cls-4" x="669.12" y="204.72" width="116.34" height="23.94" rx="2" ry="2"/>
      <g>
        <path class="cls-1" d="M709.12,212.57l1.35,5.83,1.62-5.83h1.05l1.62,5.84,1.35-5.84h1.07l-1.88,7.17h-1.02l-1.66-5.95-1.67,5.95h-1.02l-1.88-7.17h1.05Z"/>
        <path class="cls-1" d="M720.4,216.58c.2-.03.34-.11.41-.25.04-.08.06-.19.06-.34,0-.3-.11-.52-.32-.65-.21-.14-.52-.2-.91-.2-.46,0-.78.12-.97.37-.11.14-.18.34-.21.61h-.82c.02-.65.23-1.1.63-1.35.4-.25.87-.38,1.4-.38.61,0,1.11.12,1.5.35.38.23.57.6.57,1.09v3.01c0,.09.02.17.06.22.04.06.12.08.24.08.04,0,.08,0,.13,0s.1-.01.16-.02v.65c-.14.04-.24.06-.31.07s-.17.01-.29.01c-.3,0-.52-.11-.66-.32-.07-.11-.12-.27-.15-.48-.18.23-.44.44-.77.61-.34.17-.7.26-1.11.26-.48,0-.88-.15-1.19-.44-.31-.29-.46-.66-.46-1.1,0-.48.15-.86.45-1.13s.7-.43,1.19-.49l1.4-.18ZM718.55,218.95c.19.15.41.22.66.22.31,0,.61-.07.9-.21.49-.24.73-.63.73-1.17v-.71c-.11.07-.25.12-.41.17s-.33.08-.5.1l-.53.07c-.32.04-.56.11-.72.2-.27.15-.41.4-.41.73,0,.25.09.45.28.6Z"/>
        <path class="cls-1" d="M723.18,214.52h.83v.9c.07-.18.24-.39.5-.64.27-.25.57-.38.92-.38.02,0,.04,0,.08,0,.04,0,.11,0,.2.02v.93c-.05,0-.1-.02-.14-.02-.04,0-.09,0-.14,0-.44,0-.78.14-1.02.43-.24.28-.36.61-.36.98v3.01h-.88v-5.23Z"/>
        <path class="cls-1" d="M726.42,214.54h.86v.69c.18-.24.37-.42.58-.55.3-.2.65-.29,1.05-.29.59,0,1.1.23,1.51.68.41.45.62,1.1.62,1.95,0,1.14-.3,1.95-.9,2.44-.38.31-.82.46-1.32.46-.4,0-.73-.09-1-.26-.16-.1-.33-.26-.52-.5v2.67h-.88v-7.29ZM729.72,218.64c.27-.34.41-.86.41-1.54,0-.42-.06-.77-.18-1.07-.23-.58-.65-.86-1.25-.86s-1.03.3-1.25.91c-.12.33-.18.74-.18,1.24,0,.4.06.75.18,1.03.23.54.65.81,1.25.81.41,0,.75-.17,1.03-.51Z"/>
        <path class="cls-1" d="M737.24,213.09c.5.48.77,1.02.83,1.63h-.95c-.11-.46-.32-.83-.63-1.1-.31-.27-.76-.41-1.33-.41-.69,0-1.25.25-1.68.75-.43.5-.64,1.26-.64,2.29,0,.84.19,1.52.58,2.04.39.52.96.78,1.72.78.7,0,1.24-.27,1.61-.83.19-.29.34-.67.44-1.14h.95c-.08.76-.36,1.39-.83,1.9-.56.62-1.32.92-2.28.92-.82,0-1.52-.25-2.08-.76-.74-.67-1.11-1.7-1.11-3.09,0-1.06.28-1.93.83-2.6.6-.74,1.42-1.1,2.48-1.1.9,0,1.59.24,2.09.72Z"/>
        <path class="cls-1" d="M739.45,213.06h.89v1.46h.83v.72h-.83v3.41c0,.18.06.3.19.37.07.04.18.05.34.05.04,0,.09,0,.14,0s.11,0,.17-.02v.7c-.1.03-.21.05-.31.06-.11.01-.23.02-.35.02-.41,0-.69-.1-.83-.31s-.22-.48-.22-.82v-3.46h-.71v-.72h.71v-1.46Z"/>
        <path class="cls-1" d="M742.07,214.52h.83v.9c.07-.18.24-.39.5-.64.27-.25.57-.38.92-.38.02,0,.04,0,.08,0,.04,0,.11,0,.2.02v.93c-.05,0-.1-.02-.14-.02-.04,0-.09,0-.14,0-.44,0-.78.14-1.02.43-.24.28-.36.61-.36.98v3.01h-.88v-5.23Z"/>
        <path class="cls-1" d="M745.4,212.57h.88v7.17h-.88v-7.17Z"/>
      </g>
    </g>
    <g>
      <rect class="cls-4" x="179.64" y="110.15" width="49.71" height="37.83" rx="2" ry="2"/>
      <g>
        <path class="cls-1" d="M188.07,124.95h2.87c.97,0,1.73.35,2.26,1.05.48.63.72,1.44.72,2.43,0,.76-.14,1.45-.42,2.07-.5,1.09-1.35,1.63-2.57,1.63h-2.86v-7.17ZM190.74,131.29c.32,0,.59-.03.79-.1.37-.13.67-.37.91-.73.19-.29.32-.66.41-1.11.05-.27.07-.52.07-.75,0-.89-.17-1.58-.52-2.07s-.9-.74-1.67-.74h-1.69v5.51h1.69Z"/>
        <path class="cls-1" d="M198.36,127.04c.35.17.61.4.79.68.17.26.29.57.35.92.05.24.08.62.08,1.15h-3.8c.02.53.14.96.37,1.28.23.32.59.48,1.08.48.46,0,.82-.15,1.09-.46.15-.18.26-.38.32-.61h.86c-.02.19-.1.41-.23.64s-.27.43-.43.58c-.27.26-.59.44-.98.53-.21.05-.45.08-.71.08-.65,0-1.2-.24-1.65-.71s-.67-1.14-.67-1.99.23-1.52.68-2.05c.45-.52,1.04-.79,1.78-.79.37,0,.73.09,1.07.26ZM198.67,129.09c-.04-.38-.12-.69-.25-.91-.24-.42-.64-.63-1.2-.63-.4,0-.74.15-1.01.44-.27.29-.41.66-.43,1.11h2.88Z"/>
        <path class="cls-1" d="M204.14,127.17c.37.29.59.78.67,1.48h-.85c-.05-.32-.17-.59-.36-.8s-.48-.32-.89-.32c-.56,0-.96.27-1.2.82-.16.35-.23.79-.23,1.31s.11.96.33,1.32c.22.36.57.54,1.04.54.36,0,.65-.11.87-.33s.36-.53.44-.91h.85c-.1.69-.34,1.2-.73,1.52s-.89.48-1.5.48c-.68,0-1.23-.25-1.64-.75s-.61-1.12-.61-1.87c0-.92.22-1.63.67-2.14s1.01-.77,1.7-.77c.59,0,1.07.14,1.44.43Z"/>
        <path class="cls-1" d="M209.48,127.41c.46.45.69,1.11.69,1.98s-.2,1.54-.61,2.09c-.41.55-1.04.82-1.9.82-.71,0-1.28-.24-1.7-.73-.42-.49-.63-1.14-.63-1.96,0-.88.22-1.58.66-2.1.44-.52,1.04-.78,1.78-.78.67,0,1.23.22,1.7.67ZM208.93,130.89c.21-.44.32-.93.32-1.47,0-.49-.08-.88-.23-1.19-.24-.48-.67-.72-1.26-.72-.53,0-.92.21-1.16.61-.24.41-.36.9-.36,1.48s.12,1.02.36,1.39c.24.37.62.56,1.15.56.58,0,.97-.22,1.19-.66Z"/>
        <path class="cls-1" d="M214.12,127.05c.16.1.33.27.53.51v-2.64h.84v7.2h-.79v-.73c-.2.32-.45.56-.72.7-.28.14-.6.21-.96.21-.58,0-1.08-.25-1.51-.73s-.64-1.14-.64-1.96c0-.76.19-1.42.58-1.98.39-.56.94-.84,1.66-.84.4,0,.73.08,1,.25ZM212.16,130.97c.24.38.62.57,1.14.57.4,0,.74-.17,1-.52s.39-.85.39-1.51-.13-1.15-.4-1.47c-.27-.32-.6-.48-1-.48-.44,0-.8.17-1.07.51-.27.34-.41.84-.41,1.49,0,.56.12,1.03.35,1.41Z"/>
        <path class="cls-1" d="M220.04,127.04c.35.17.61.4.79.68.17.26.29.57.35.92.05.24.08.62.08,1.15h-3.8c.02.53.14.96.37,1.28.23.32.59.48,1.08.48.46,0,.82-.15,1.09-.46.15-.18.26-.38.32-.61h.86c-.02.19-.1.41-.23.64s-.27.43-.43.58c-.27.26-.59.44-.98.53-.21.05-.45.08-.71.08-.65,0-1.2-.24-1.65-.71s-.67-1.14-.67-1.99.23-1.52.68-2.05c.45-.52,1.04-.79,1.78-.79.37,0,.73.09,1.07.26ZM220.36,129.09c-.04-.38-.12-.69-.25-.91-.24-.42-.64-.63-1.2-.63-.4,0-.74.15-1.01.44-.27.29-.41.66-.43,1.11h2.88Z"/>
      </g>
    </g>
    <g>
      <rect class="cls-4" x="248.6" y="110.15" width="49.71" height="37.83" rx="2" ry="2"/>
      <g>
        <path class="cls-1" d="M259.8,124.95h.98v7.17h-.98v-7.17Z"/>
        <path class="cls-1" d="M262.33,124.95h3.1c.85,0,1.45.25,1.8.75.21.3.31.64.31,1.03,0,.45-.13.82-.39,1.11-.13.15-.33.29-.58.42.37.14.64.3.83.47.32.31.48.74.48,1.29,0,.46-.15.88-.44,1.25-.44.56-1.13.84-2.08.84h-3.05v-7.17ZM265.07,127.98c.41,0,.74-.06.97-.17.36-.18.54-.5.54-.97s-.19-.78-.58-.95c-.22-.09-.54-.14-.97-.14h-1.75v2.22h1.79ZM265.4,131.29c.6,0,1.03-.17,1.29-.52.16-.22.24-.48.24-.79,0-.52-.23-.88-.71-1.06-.25-.1-.58-.15-.99-.15h-1.95v2.52h2.11Z"/>
        <path class="cls-1" d="M269.79,126.89v3.47c0,.27.04.48.12.65.15.31.44.47.85.47.6,0,1-.27,1.22-.82.12-.29.18-.69.18-1.21v-2.57h.88v5.23h-.83v-.77c-.1.2-.24.37-.41.5-.33.27-.73.41-1.2.41-.73,0-1.23-.25-1.49-.75-.14-.27-.22-.62-.22-1.07v-3.55h.9Z"/>
        <path class="cls-1" d="M274.88,125.3c.21-.3.6-.45,1.19-.45.06,0,.11,0,.17,0s.13,0,.2.01v.8c-.09,0-.16-.01-.2-.01-.04,0-.08,0-.12,0-.27,0-.43.07-.48.21s-.08.49-.08,1.06h.88v.69h-.88v4.51h-.87v-4.51h-.73v-.69h.73v-.82c.01-.36.08-.63.19-.8Z"/>
        <path class="cls-1" d="M277.48,125.3c.21-.3.6-.45,1.19-.45.06,0,.11,0,.17,0s.13,0,.2.01v.8c-.09,0-.16-.01-.2-.01-.04,0-.08,0-.12,0-.27,0-.43.07-.48.21s-.08.49-.08,1.06h.88v.69h-.88v4.51h-.87v-4.51h-.73v-.69h.73v-.82c.01-.36.08-.63.19-.8Z"/>
        <path class="cls-1" d="M283.08,127.04c.35.17.61.4.79.68.17.26.29.57.35.92.05.24.08.62.08,1.15h-3.8c.02.53.14.96.37,1.28.23.32.59.48,1.08.48.46,0,.82-.15,1.09-.46.15-.18.26-.38.32-.61h.86c-.02.19-.1.41-.23.64s-.27.43-.43.58c-.27.26-.59.44-.98.53-.21.05-.45.08-.71.08-.65,0-1.2-.24-1.65-.71s-.67-1.14-.67-1.99.23-1.52.68-2.05c.45-.52,1.04-.79,1.78-.79.37,0,.73.09,1.07.26ZM283.4,129.09c-.04-.38-.12-.69-.25-.91-.24-.42-.64-.63-1.2-.63-.4,0-.74.15-1.01.44-.27.29-.41.66-.43,1.11h2.88Z"/>
        <path class="cls-1" d="M285.44,126.89h.83v.9c.07-.18.24-.39.5-.64s.57-.38.92-.38c.02,0,.04,0,.08,0s.11,0,.2.02v.93c-.05,0-.1-.02-.14-.02s-.09,0-.14,0c-.44,0-.78.14-1.02.43s-.36.61-.36.98v3.01h-.88v-5.23Z"/>
      </g>
    </g>
    <g>
      <rect class="cls-4" x="317.57" y="110.15" width="65.41" height="37.83" rx="2" ry="2"/>
      <g>
        <path class="cls-1" d="M325.82,129.81c.02.41.11.74.28.99.31.48.86.71,1.64.71.35,0,.67-.05.96-.16.56-.2.84-.56.84-1.08,0-.39-.12-.67-.35-.83-.24-.16-.61-.3-1.13-.42l-.94-.22c-.61-.14-1.05-.3-1.31-.47-.44-.3-.66-.75-.66-1.34,0-.64.22-1.17.65-1.59s1.05-.62,1.84-.62c.73,0,1.35.18,1.86.54.51.36.77.94.77,1.74h-.91c-.05-.38-.15-.68-.3-.88-.28-.37-.77-.56-1.45-.56-.55,0-.94.12-1.18.36s-.36.52-.36.84c0,.35.14.61.43.77.19.1.61.23,1.26.39l.97.23c.47.11.83.26,1.09.45.44.34.66.82.66,1.46,0,.79-.28,1.36-.85,1.7s-1.22.51-1.96.51c-.87,0-1.55-.23-2.04-.68-.49-.45-.73-1.07-.72-1.84h.91Z"/>
        <path class="cls-1" d="M335.19,127.17c.37.29.59.78.67,1.48h-.85c-.05-.32-.17-.59-.36-.8s-.48-.32-.89-.32c-.56,0-.96.27-1.2.82-.16.35-.23.79-.23,1.31s.11.96.33,1.32c.22.36.57.54,1.04.54.36,0,.65-.11.87-.33s.36-.53.44-.91h.85c-.1.69-.34,1.2-.73,1.52s-.89.48-1.5.48c-.68,0-1.23-.25-1.64-.75s-.61-1.12-.61-1.87c0-.92.22-1.63.67-2.14s1.01-.77,1.7-.77c.59,0,1.07.14,1.44.43Z"/>
        <path class="cls-1" d="M340.52,127.41c.46.45.69,1.11.69,1.98s-.2,1.54-.61,2.09c-.41.55-1.04.82-1.9.82-.71,0-1.28-.24-1.7-.73-.42-.49-.63-1.14-.63-1.96,0-.88.22-1.58.66-2.1.44-.52,1.04-.78,1.78-.78.67,0,1.23.22,1.7.67ZM339.98,130.89c.21-.44.32-.93.32-1.47,0-.49-.08-.88-.23-1.19-.24-.48-.67-.72-1.26-.72-.53,0-.92.21-1.16.61-.24.41-.36.9-.36,1.48s.12,1.02.36,1.39c.24.37.62.56,1.15.56.58,0,.97-.22,1.19-.66Z"/>
        <path class="cls-1" d="M342.32,126.89h.83v.9c.07-.18.24-.39.5-.64s.57-.38.92-.38c.02,0,.04,0,.08,0s.11,0,.2.02v.93c-.05,0-.1-.02-.14-.02s-.09,0-.14,0c-.44,0-.78.14-1.02.43s-.36.61-.36.98v3.01h-.88v-5.23Z"/>
        <path class="cls-1" d="M348.86,127.04c.35.17.61.4.79.68.17.26.29.57.35.92.05.24.08.62.08,1.15h-3.8c.02.53.14.96.37,1.28.23.32.59.48,1.08.48.46,0,.82-.15,1.09-.46.15-.18.26-.38.32-.61h.86c-.02.19-.1.41-.23.64s-.27.43-.43.58c-.27.26-.59.44-.98.53-.21.05-.45.08-.71.08-.65,0-1.2-.24-1.65-.71s-.67-1.14-.67-1.99.23-1.52.68-2.05c.45-.52,1.04-.79,1.78-.79.37,0,.73.09,1.07.26ZM349.17,129.09c-.04-.38-.12-.69-.25-.91-.24-.42-.64-.63-1.2-.63-.4,0-.74.15-1.01.44-.27.29-.41.66-.43,1.11h2.88Z"/>
        <path class="cls-1" d="M351.12,124.92h.85v2.6c.19-.25.42-.44.69-.57.27-.13.56-.2.87-.2.65,0,1.18.22,1.59.67s.61,1.11.61,1.98c0,.83-.2,1.51-.6,2.06s-.96.82-1.67.82c-.4,0-.74-.1-1.01-.29-.16-.11-.34-.3-.52-.55v.67h-.81v-7.2ZM354.48,130.94c.24-.38.36-.88.36-1.49,0-.55-.12-1.01-.36-1.37-.24-.36-.59-.54-1.05-.54-.4,0-.75.15-1.06.44s-.45.78-.45,1.46c0,.49.06.89.19,1.2.23.58.66.86,1.3.86.48,0,.83-.19,1.07-.57Z"/>
        <path class="cls-1" d="M360.54,127.41c.46.45.69,1.11.69,1.98s-.2,1.54-.61,2.09c-.41.55-1.04.82-1.9.82-.71,0-1.28-.24-1.7-.73-.42-.49-.63-1.14-.63-1.96,0-.88.22-1.58.66-2.1.44-.52,1.04-.78,1.78-.78.67,0,1.23.22,1.7.67ZM359.99,130.89c.21-.44.32-.93.32-1.47,0-.49-.08-.88-.23-1.19-.24-.48-.67-.72-1.26-.72-.53,0-.92.21-1.16.61-.24.41-.36.9-.36,1.48s.12,1.02.36,1.39c.24.37.62.56,1.15.56.58,0,.97-.22,1.19-.66Z"/>
        <path class="cls-1" d="M365.11,128.96c.2-.03.34-.11.41-.25.04-.08.06-.19.06-.34,0-.3-.11-.52-.32-.65-.21-.14-.52-.2-.91-.2-.46,0-.78.12-.97.37-.11.14-.18.34-.21.61h-.82c.02-.65.23-1.1.63-1.35.4-.25.87-.38,1.4-.38.61,0,1.11.12,1.5.35.38.23.57.6.57,1.09v3.01c0,.09.02.16.06.22s.12.08.24.08c.04,0,.08,0,.13,0s.1-.01.16-.02v.65c-.14.04-.24.06-.31.07s-.17.01-.29.01c-.3,0-.52-.11-.66-.32-.07-.11-.12-.27-.15-.48-.18.23-.44.44-.77.61s-.7.26-1.11.26c-.48,0-.88-.15-1.19-.44-.31-.29-.46-.66-.46-1.1,0-.48.15-.86.45-1.13s.7-.43,1.19-.49l1.4-.18ZM363.26,131.33c.19.15.41.22.66.22.31,0,.61-.07.9-.21.49-.24.73-.63.73-1.17v-.71c-.11.07-.25.13-.41.17s-.33.08-.5.1l-.53.07c-.32.04-.56.11-.72.2-.27.15-.41.4-.41.73,0,.25.09.45.28.6Z"/>
        <path class="cls-1" d="M367.9,126.89h.83v.9c.07-.18.24-.39.5-.64s.57-.38.92-.38c.02,0,.04,0,.08,0s.11,0,.2.02v.93c-.05,0-.1-.02-.14-.02s-.09,0-.14,0c-.44,0-.78.14-1.02.43s-.36.61-.36.98v3.01h-.88v-5.23Z"/>
        <path class="cls-1" d="M374.08,127.05c.16.1.33.27.53.51v-2.64h.84v7.2h-.79v-.73c-.2.32-.45.56-.72.7-.28.14-.6.21-.96.21-.58,0-1.08-.25-1.51-.73s-.64-1.14-.64-1.96c0-.76.19-1.42.58-1.98.39-.56.94-.84,1.66-.84.4,0,.73.08,1,.25ZM372.11,130.97c.24.38.62.57,1.14.57.4,0,.74-.17,1-.52s.39-.85.39-1.51-.13-1.15-.4-1.47c-.27-.32-.6-.48-1-.48-.44,0-.8.17-1.07.51-.27.34-.41.84-.41,1.49,0,.56.12,1.03.35,1.41Z"/>
      </g>
    </g>
    <g>
      <rect class="cls-4" x="402.23" y="161.9" width="65.41" height="23.36" rx="2" ry="2"/>
      <g>
        <path class="cls-1" d="M416.91,169.46h3.26c.54,0,.98.08,1.33.24.66.31.99.87.99,1.69,0,.43-.09.78-.27,1.05s-.43.49-.74.66c.28.11.49.26.63.45s.22.49.24.9l.03.96c0,.27.03.48.07.61.06.23.16.38.31.44v.16h-1.19c-.03-.06-.06-.14-.08-.24s-.04-.29-.05-.57l-.06-1.2c-.02-.47-.19-.78-.51-.94-.18-.09-.46-.13-.85-.13h-2.15v3.08h-.97v-7.17ZM420.07,172.75c.44,0,.79-.09,1.05-.27.26-.18.39-.51.39-.99,0-.51-.18-.86-.54-1.04-.19-.1-.45-.15-.77-.15h-2.31v2.45h2.18Z"/>
        <path class="cls-1" d="M427.13,171.55c.35.17.61.4.79.68.17.26.29.57.35.92.05.24.08.62.08,1.15h-3.8c.02.53.14.96.37,1.28.23.32.59.48,1.08.48.46,0,.82-.15,1.09-.46.15-.18.26-.38.32-.61h.86c-.02.19-.1.41-.23.64-.13.24-.27.43-.43.58-.27.26-.59.44-.98.53-.21.05-.45.08-.71.08-.65,0-1.2-.24-1.65-.71s-.67-1.14-.67-1.99.23-1.52.68-2.05c.45-.52,1.04-.79,1.78-.79.37,0,.73.09,1.07.26ZM427.45,173.6c-.04-.38-.12-.68-.25-.91-.24-.42-.64-.63-1.2-.63-.4,0-.74.15-1.01.44-.27.29-.41.66-.43,1.11h2.88Z"/>
        <path class="cls-1" d="M429.46,171.4h.83v.74c.25-.31.51-.53.79-.66.28-.13.58-.2.92-.2.74,0,1.24.26,1.5.78.14.28.21.69.21,1.22v3.35h-.89v-3.3c0-.32-.05-.58-.14-.77-.16-.33-.44-.49-.85-.49-.21,0-.38.02-.51.06-.24.07-.45.21-.63.43-.15.17-.24.35-.29.54-.04.18-.07.45-.07.79v2.74h-.88v-5.23Z"/>
        <path class="cls-1" d="M437.83,173.47c.2-.03.34-.11.41-.25.04-.08.06-.19.06-.34,0-.3-.11-.52-.32-.65-.21-.14-.52-.2-.91-.2-.46,0-.78.12-.97.37-.11.14-.18.34-.21.61h-.82c.02-.65.23-1.1.63-1.35.4-.25.87-.38,1.4-.38.61,0,1.11.12,1.5.35.38.23.57.6.57,1.09v3.01c0,.09.02.17.06.22.04.06.12.08.24.08.04,0,.08,0,.13,0s.1-.01.16-.02v.65c-.14.04-.24.06-.31.07s-.17.01-.29.01c-.3,0-.52-.11-.66-.32-.07-.11-.12-.27-.15-.48-.18.23-.44.44-.77.61-.34.17-.7.26-1.11.26-.48,0-.88-.15-1.19-.44-.31-.29-.46-.66-.46-1.1,0-.48.15-.86.45-1.13s.7-.43,1.19-.49l1.4-.18ZM435.98,175.84c.19.15.41.22.66.22.31,0,.61-.07.9-.21.49-.24.73-.63.73-1.17v-.71c-.11.07-.25.12-.41.17s-.33.08-.5.1l-.53.07c-.32.04-.56.11-.72.2-.27.15-.41.4-.41.73,0,.25.09.45.28.6Z"/>
        <path class="cls-1" d="M440.59,171.4h.87v.74c.21-.26.4-.44.57-.56.29-.2.62-.3.99-.3.42,0,.75.1,1.01.31.14.12.27.29.39.52.2-.28.42-.49.69-.62.26-.14.56-.2.89-.2.7,0,1.18.25,1.44.76.14.27.21.64.21,1.1v3.48h-.91v-3.63c0-.35-.09-.59-.26-.72-.17-.13-.39-.2-.64-.2-.35,0-.64.12-.89.35-.25.23-.37.62-.37,1.16v3.04h-.89v-3.41c0-.35-.04-.61-.13-.78-.13-.24-.38-.37-.75-.37-.33,0-.63.13-.91.39-.27.26-.41.72-.41,1.4v2.77h-.88v-5.23Z"/>
        <path class="cls-1" d="M452.15,171.55c.35.17.61.4.79.68.17.26.29.57.35.92.05.24.08.62.08,1.15h-3.8c.02.53.14.96.37,1.28.23.32.59.48,1.08.48.46,0,.82-.15,1.09-.46.15-.18.26-.38.32-.61h.86c-.02.19-.1.41-.23.64-.13.24-.27.43-.43.58-.27.26-.59.44-.98.53-.21.05-.45.08-.71.08-.65,0-1.2-.24-1.65-.71s-.67-1.14-.67-1.99.23-1.52.68-2.05c.45-.52,1.04-.79,1.78-.79.37,0,.73.09,1.07.26ZM452.46,173.6c-.04-.38-.12-.68-.25-.91-.24-.42-.64-.63-1.2-.63-.4,0-.74.15-1.01.44-.27.29-.41.66-.43,1.11h2.88Z"/>
      </g>
    </g>
    <g>
      <rect class="cls-4" x="402.23" y="58.22" width="65.41" height="37.83" rx="2" ry="2"/>
      <g>
        <path class="cls-1" d="M414.88,68.24h.98v2.96h3.69v-2.96h.98v7.17h-.98v-3.35h-3.69v3.35h-.98v-7.17Z"/>
        <path class="cls-1" d="M424.76,72.25c.2-.03.34-.11.41-.25.04-.08.06-.19.06-.34,0-.3-.11-.52-.32-.65-.21-.14-.52-.2-.91-.2-.46,0-.78.12-.97.37-.11.14-.18.34-.21.61h-.82c.02-.65.23-1.1.63-1.35.4-.25.87-.38,1.4-.38.61,0,1.11.12,1.5.35.38.23.57.6.57,1.09v3.01c0,.09.02.16.06.22s.12.08.24.08c.04,0,.08,0,.13,0s.1-.01.16-.02v.65c-.14.04-.24.06-.31.07s-.17.01-.29.01c-.3,0-.52-.11-.66-.32-.07-.11-.12-.27-.15-.48-.18.23-.44.44-.77.61s-.7.26-1.11.26c-.48,0-.88-.15-1.19-.44-.31-.29-.46-.66-.46-1.1,0-.48.15-.86.45-1.13s.7-.43,1.19-.49l1.4-.18ZM422.91,74.62c.19.15.41.22.66.22.31,0,.61-.07.9-.21.49-.24.73-.63.73-1.17v-.71c-.11.07-.25.13-.41.17s-.33.08-.5.1l-.53.07c-.32.04-.56.11-.72.2-.27.15-.41.4-.41.73,0,.25.09.45.28.6Z"/>
        <path class="cls-1" d="M427.13,74.72l3.11-3.75h-2.88v-.79h4.06v.72l-3.09,3.73h3.18v.79h-4.38v-.69Z"/>
        <path class="cls-1" d="M435.32,72.25c.2-.03.34-.11.41-.25.04-.08.06-.19.06-.34,0-.3-.11-.52-.32-.65-.21-.14-.52-.2-.91-.2-.46,0-.78.12-.97.37-.11.14-.18.34-.21.61h-.82c.02-.65.23-1.1.63-1.35.4-.25.87-.38,1.4-.38.61,0,1.11.12,1.5.35.38.23.57.6.57,1.09v3.01c0,.09.02.16.06.22s.12.08.24.08c.04,0,.08,0,.13,0s.1-.01.16-.02v.65c-.14.04-.24.06-.31.07s-.17.01-.29.01c-.3,0-.52-.11-.66-.32-.07-.11-.12-.27-.15-.48-.18.23-.44.44-.77.61s-.7.26-1.11.26c-.48,0-.88-.15-1.19-.44-.31-.29-.46-.66-.46-1.1,0-.48.15-.86.45-1.13s.7-.43,1.19-.49l1.4-.18ZM433.47,74.62c.19.15.41.22.66.22.31,0,.61-.07.9-.21.49-.24.73-.63.73-1.17v-.71c-.11.07-.25.13-.41.17s-.33.08-.5.1l-.53.07c-.32.04-.56.11-.72.2-.27.15-.41.4-.41.73,0,.25.09.45.28.6Z"/>
        <path class="cls-1" d="M438.11,70.18h.83v.9c.07-.18.24-.39.5-.64s.57-.38.92-.38c.02,0,.04,0,.08,0s.11,0,.2.02v.93c-.05,0-.1-.02-.14-.02s-.09,0-.14,0c-.44,0-.78.14-1.02.43s-.36.61-.36.98v3.01h-.88v-5.23Z"/>
        <path class="cls-1" d="M444.28,70.35c.16.1.33.27.53.51v-2.64h.84v7.2h-.79v-.73c-.2.32-.45.56-.72.7-.28.14-.6.21-.96.21-.58,0-1.08-.25-1.51-.73s-.64-1.14-.64-1.96c0-.76.19-1.42.58-1.98.39-.56.94-.84,1.66-.84.4,0,.73.08,1,.25ZM442.32,74.27c.24.38.62.57,1.14.57.4,0,.74-.17,1-.52s.39-.85.39-1.51-.13-1.15-.4-1.47c-.27-.32-.6-.48-1-.48-.44,0-.8.17-1.07.51-.27.34-.41.84-.41,1.49,0,.56.12,1.03.35,1.41Z"/>
        <path class="cls-1" d="M450.55,70.55c-.1-.24-.15-.47-.15-.69,0-.46.16-.85.47-1.15s.73-.46,1.25-.46c.5,0,.88.14,1.16.42.28.28.42.62.42,1.02,0,.46-.14.86-.43,1.21-.17.2-.45.43-.85.7l1.3,1.56c.09-.26.15-.46.18-.58.03-.13.07-.31.1-.54h.83c-.06.46-.17.9-.33,1.32-.17.42-.25.59-.25.51l1.27,1.55h-1.13l-.67-.82c-.27.29-.51.5-.73.63-.39.23-.83.35-1.33.35-.74,0-1.28-.2-1.62-.6s-.51-.86-.51-1.36c0-.54.16-1,.49-1.36.2-.22.58-.5,1.12-.83-.3-.35-.51-.64-.61-.88ZM452.66,74.56c.26-.17.46-.35.6-.56l-1.62-1.98c-.46.31-.75.54-.89.7-.21.24-.32.54-.32.89,0,.38.14.67.42.88s.57.31.89.31c.36,0,.67-.08.93-.25ZM452.59,70.49c.19-.22.28-.47.28-.74,0-.21-.07-.39-.21-.55-.14-.15-.33-.23-.56-.23-.36,0-.61.12-.75.36-.07.12-.11.26-.11.4,0,.2.05.39.16.57.11.18.29.42.55.71.31-.22.52-.4.63-.53Z"/>
        <path class="cls-1" d="M410.78,78.24h4.98v.88h-4v2.18h3.52v.85h-3.52v3.26h-.97v-7.17Z"/>
        <path class="cls-1" d="M420.47,80.71c.46.45.69,1.11.69,1.98s-.2,1.54-.61,2.09c-.41.55-1.04.82-1.9.82-.71,0-1.28-.24-1.7-.73-.42-.49-.63-1.14-.63-1.96,0-.88.22-1.58.66-2.1.44-.52,1.04-.78,1.78-.78.67,0,1.23.22,1.7.67ZM419.92,84.18c.21-.44.32-.93.32-1.47,0-.49-.08-.88-.23-1.19-.24-.48-.67-.72-1.26-.72-.53,0-.92.21-1.16.61-.24.41-.36.9-.36,1.48s.12,1.02.36,1.39c.24.37.62.56,1.15.56.58,0,.97-.22,1.19-.66Z"/>
        <path class="cls-1" d="M422.26,80.18h.83v.9c.07-.18.24-.39.5-.64s.57-.38.92-.38c.02,0,.04,0,.08,0s.11,0,.2.02v.93c-.05,0-.1-.02-.14-.02s-.09,0-.14,0c-.44,0-.78.14-1.02.43s-.36.61-.36.98v3.01h-.88v-5.23Z"/>
        <path class="cls-1" d="M425.98,80.18l1.01,4.12,1.02-4.12h.99l1.03,4.1,1.07-4.1h.88l-1.52,5.23h-.91l-1.06-4.05-1.03,4.05h-.91l-1.51-5.23h.96Z"/>
        <path class="cls-1" d="M435.59,82.25c.2-.03.34-.11.41-.25.04-.08.06-.19.06-.34,0-.3-.11-.52-.32-.65-.21-.14-.52-.2-.91-.2-.46,0-.78.12-.97.37-.11.14-.18.34-.21.61h-.82c.02-.65.23-1.1.63-1.35.4-.25.87-.38,1.4-.38.61,0,1.11.12,1.5.35.38.23.57.6.57,1.09v3.01c0,.09.02.16.06.22s.12.08.24.08c.04,0,.08,0,.13,0s.1-.01.16-.02v.65c-.14.04-.24.06-.31.07s-.17.01-.29.01c-.3,0-.52-.11-.66-.32-.07-.11-.12-.27-.15-.48-.18.23-.44.44-.77.61s-.7.26-1.11.26c-.48,0-.88-.15-1.19-.44-.31-.29-.46-.66-.46-1.1,0-.48.15-.86.45-1.13s.7-.43,1.19-.49l1.4-.18ZM433.74,84.62c.19.15.41.22.66.22.31,0,.61-.07.9-.21.49-.24.73-.63.73-1.17v-.71c-.11.07-.25.13-.41.17s-.33.08-.5.1l-.53.07c-.32.04-.56.11-.72.2-.27.15-.41.4-.41.73,0,.25.09.45.28.6Z"/>
        <path class="cls-1" d="M438.38,80.18h.83v.9c.07-.18.24-.39.5-.64s.57-.38.92-.38c.02,0,.04,0,.08,0s.11,0,.2.02v.93c-.05,0-.1-.02-.14-.02s-.09,0-.14,0c-.44,0-.78.14-1.02.43s-.36.61-.36.98v3.01h-.88v-5.23Z"/>
        <path class="cls-1" d="M444.56,80.35c.16.1.33.27.53.51v-2.64h.84v7.2h-.79v-.73c-.2.32-.45.56-.72.7-.28.14-.6.21-.96.21-.58,0-1.08-.25-1.51-.73s-.64-1.14-.64-1.96c0-.76.19-1.42.58-1.98.39-.56.94-.84,1.66-.84.4,0,.73.08,1,.25ZM442.59,84.27c.24.38.62.57,1.14.57.4,0,.74-.17,1-.52s.39-.85.39-1.51-.13-1.15-.4-1.47c-.27-.32-.6-.48-1-.48-.44,0-.8.17-1.07.51-.27.34-.41.84-.41,1.49,0,.56.12,1.03.35,1.41Z"/>
        <path class="cls-1" d="M447.24,78.24h.89v1h-.89v-1ZM447.24,80.21h.89v5.21h-.89v-5.21Z"/>
        <path class="cls-1" d="M449.47,80.18h.83v.74c.25-.31.51-.53.79-.66s.58-.2.92-.2c.74,0,1.24.26,1.5.78.14.28.21.69.21,1.22v3.35h-.89v-3.3c0-.32-.05-.58-.14-.77-.16-.33-.44-.49-.85-.49-.21,0-.38.02-.51.06-.24.07-.45.21-.63.43-.15.17-.24.35-.29.53s-.07.45-.07.79v2.74h-.88v-5.23Z"/>
        <path class="cls-1" d="M457.93,80.39c.17.11.33.28.51.5v-.66h.81v4.76c0,.66-.1,1.19-.29,1.57-.36.71-1.05,1.06-2.06,1.06-.56,0-1.03-.13-1.42-.38s-.6-.65-.64-1.18h.89c.04.23.13.42.25.54.2.2.51.29.93.29.67,0,1.11-.24,1.32-.71.12-.28.18-.78.17-1.5-.18.27-.39.47-.63.6s-.57.2-.98.2c-.56,0-1.06-.2-1.48-.6-.42-.4-.63-1.07-.63-1.99,0-.88.21-1.56.64-2.05s.94-.74,1.54-.74c.41,0,.77.1,1.07.3ZM458.04,81.34c-.27-.31-.6-.47-1.02-.47-.62,0-1.04.29-1.26.87-.12.31-.18.71-.18,1.22,0,.59.12,1.04.36,1.35.24.31.56.46.96.46.63,0,1.07-.28,1.33-.85.14-.32.21-.7.21-1.13,0-.65-.13-1.13-.4-1.44Z"/>
      </g>
    </g>
    <g>
      <rect class="cls-4" x="402.23" y="110.15" width="150.07" height="37.83" rx="2" ry="2"/>
      <g>
        <path class="cls-1" d="M441.13,126.18c.48.63.71,1.45.71,2.44,0,1.07-.27,1.96-.82,2.67-.64.83-1.55,1.25-2.73,1.25-1.1,0-1.97-.36-2.6-1.09-.56-.7-.84-1.59-.84-2.67,0-.97.24-1.8.72-2.49.62-.89,1.53-1.33,2.74-1.33s2.2.41,2.81,1.22ZM440.28,130.76c.38-.61.57-1.32.57-2.12,0-.84-.22-1.52-.66-2.04-.44-.51-1.04-.77-1.81-.77s-1.35.25-1.82.76c-.47.51-.7,1.26-.7,2.26,0,.79.2,1.47.6,2.01.4.55,1.05.82,1.96.82s1.48-.31,1.86-.92Z"/>
        <path class="cls-1" d="M442.81,127.13h.86v.69c.18-.24.37-.42.58-.55.3-.2.65-.29,1.05-.29.59,0,1.1.23,1.51.68.41.45.62,1.1.62,1.95,0,1.14-.3,1.95-.9,2.44-.38.31-.82.46-1.32.46-.4,0-.73-.09-1-.26-.16-.1-.33-.27-.52-.5v2.67h-.88v-7.29ZM446.12,131.23c.27-.34.41-.86.41-1.54,0-.42-.06-.77-.18-1.07-.23-.58-.65-.86-1.25-.86s-1.03.3-1.25.91c-.12.33-.18.74-.18,1.24,0,.4.06.75.18,1.03.23.54.65.81,1.25.81.41,0,.75-.17,1.03-.52Z"/>
        <path class="cls-1" d="M451.68,127.25c.35.17.61.4.79.68.17.26.29.57.35.92.05.24.08.62.08,1.15h-3.8c.02.53.14.96.37,1.28.23.32.59.48,1.08.48.46,0,.82-.15,1.09-.46.15-.18.26-.38.32-.61h.86c-.02.19-.1.41-.23.64s-.27.43-.43.58c-.27.26-.59.44-.98.53-.21.05-.45.08-.71.08-.65,0-1.2-.24-1.65-.71s-.67-1.14-.67-1.99.23-1.52.68-2.05c.45-.52,1.04-.79,1.78-.79.37,0,.73.09,1.07.26ZM451.99,129.3c-.04-.38-.12-.69-.25-.91-.24-.42-.64-.63-1.2-.63-.4,0-.74.15-1.01.44-.27.29-.41.66-.43,1.11h2.88Z"/>
        <path class="cls-1" d="M454.03,127.1h.83v.9c.07-.18.24-.39.5-.64s.57-.38.92-.38c.02,0,.04,0,.08,0s.11,0,.2.02v.93c-.05,0-.1-.02-.14-.02s-.09,0-.14,0c-.44,0-.78.14-1.02.43s-.36.61-.36.98v3.01h-.88v-5.23Z"/>
        <path class="cls-1" d="M460.14,129.17c.2-.03.34-.11.41-.25.04-.08.06-.19.06-.34,0-.3-.11-.52-.32-.65-.21-.14-.52-.2-.91-.2-.46,0-.78.12-.97.37-.11.14-.18.34-.21.61h-.82c.02-.65.23-1.1.63-1.35.4-.25.87-.38,1.4-.38.61,0,1.11.12,1.5.35.38.23.57.6.57,1.09v3.01c0,.09.02.16.06.22s.12.08.24.08c.04,0,.08,0,.13,0s.1-.01.16-.02v.65c-.14.04-.24.06-.31.07s-.17.01-.29.01c-.3,0-.52-.11-.66-.32-.07-.11-.12-.27-.15-.48-.18.23-.44.44-.77.61s-.7.26-1.11.26c-.48,0-.88-.15-1.19-.44-.31-.29-.46-.66-.46-1.1,0-.48.15-.86.45-1.13s.7-.43,1.19-.49l1.4-.18ZM458.29,131.54c.19.15.41.22.66.22.31,0,.61-.07.9-.21.49-.24.73-.63.73-1.17v-.71c-.11.07-.25.13-.41.17s-.33.08-.5.1l-.53.07c-.32.04-.56.11-.72.2-.27.15-.41.4-.41.73,0,.25.09.45.28.6Z"/>
        <path class="cls-1" d="M462.9,127.1h.83v.74c.25-.31.51-.53.79-.66s.58-.2.92-.2c.74,0,1.24.26,1.5.78.14.28.21.69.21,1.22v3.35h-.89v-3.3c0-.32-.05-.58-.14-.77-.16-.33-.44-.49-.85-.49-.21,0-.38.02-.51.06-.24.07-.45.21-.63.43-.15.17-.24.35-.29.53s-.07.45-.07.79v2.74h-.88v-5.23Z"/>
        <path class="cls-1" d="M471.33,127.26c.16.1.33.27.53.51v-2.64h.84v7.2h-.79v-.73c-.2.32-.45.56-.72.7-.28.14-.6.21-.96.21-.58,0-1.08-.25-1.51-.73s-.64-1.14-.64-1.96c0-.76.19-1.42.58-1.98.39-.56.94-.84,1.66-.84.4,0,.73.08,1,.25ZM469.37,131.18c.24.38.62.57,1.14.57.4,0,.74-.17,1-.52s.39-.85.39-1.51-.13-1.15-.4-1.47c-.27-.32-.6-.48-1-.48-.44,0-.8.17-1.07.51-.27.34-.41.84-.41,1.49,0,.56.12,1.03.35,1.41Z"/>
        <path class="cls-1" d="M481.99,125.68c.5.48.77,1.02.83,1.63h-.95c-.11-.46-.32-.83-.63-1.1-.31-.27-.76-.41-1.33-.41-.69,0-1.25.25-1.68.75-.43.5-.64,1.26-.64,2.28,0,.84.19,1.52.58,2.05s.96.78,1.72.78c.7,0,1.24-.27,1.61-.83.19-.29.34-.67.44-1.14h.95c-.08.76-.36,1.39-.83,1.9-.56.62-1.32.92-2.28.92-.82,0-1.52-.25-2.08-.76-.74-.67-1.11-1.7-1.11-3.09,0-1.06.28-1.93.83-2.6.6-.74,1.42-1.1,2.48-1.1.9,0,1.59.24,2.09.72Z"/>
        <path class="cls-1" d="M487.81,127.62c.46.45.69,1.11.69,1.98s-.2,1.54-.61,2.09c-.41.55-1.04.82-1.9.82-.71,0-1.28-.24-1.7-.73-.42-.49-.63-1.14-.63-1.96,0-.88.22-1.58.66-2.1.44-.52,1.04-.78,1.78-.78.67,0,1.23.22,1.7.67ZM487.27,131.1c.21-.44.32-.93.32-1.47,0-.49-.08-.88-.23-1.19-.24-.48-.67-.72-1.26-.72-.53,0-.92.21-1.16.61-.24.41-.36.9-.36,1.48s.12,1.02.36,1.39c.24.37.62.56,1.15.56.58,0,.97-.22,1.19-.66Z"/>
        <path class="cls-1" d="M489.61,125.16h.88v7.17h-.88v-7.17Z"/>
        <path class="cls-1" d="M491.83,125.16h.88v7.17h-.88v-7.17Z"/>
        <path class="cls-1" d="M497.26,127.25c.35.17.61.4.79.68.17.26.29.57.35.92.05.24.08.62.08,1.15h-3.8c.02.53.14.96.37,1.28.23.32.59.48,1.08.48.46,0,.82-.15,1.09-.46.15-.18.26-.38.32-.61h.86c-.02.19-.1.41-.23.64s-.27.43-.43.58c-.27.26-.59.44-.98.53-.21.05-.45.08-.71.08-.65,0-1.2-.24-1.65-.71s-.67-1.14-.67-1.99.23-1.52.68-2.05c.45-.52,1.04-.79,1.78-.79.37,0,.73.09,1.07.26ZM497.57,129.3c-.04-.38-.12-.69-.25-.91-.24-.42-.64-.63-1.2-.63-.4,0-.74.15-1.01.44-.27.29-.41.66-.43,1.11h2.88Z"/>
        <path class="cls-1" d="M503.04,127.38c.37.29.59.78.67,1.48h-.85c-.05-.32-.17-.59-.36-.8s-.48-.32-.89-.32c-.56,0-.96.27-1.2.82-.16.35-.23.79-.23,1.31s.11.96.33,1.32c.22.36.57.54,1.04.54.36,0,.65-.11.87-.33s.36-.53.44-.91h.85c-.1.69-.34,1.2-.73,1.52s-.89.48-1.5.48c-.68,0-1.23-.25-1.64-.75s-.61-1.12-.61-1.87c0-.92.22-1.63.67-2.14s1.01-.77,1.7-.77c.59,0,1.07.14,1.44.43Z"/>
        <path class="cls-1" d="M504.77,125.64h.89v1.46h.83v.72h-.83v3.41c0,.18.06.3.19.37.07.04.18.05.34.05.04,0,.09,0,.14,0,.05,0,.11,0,.17-.02v.7c-.1.03-.21.05-.31.06s-.23.02-.35.02c-.41,0-.69-.1-.83-.31s-.22-.48-.22-.82v-3.46h-.71v-.72h.71v-1.46Z"/>
        <path class="cls-1" d="M507.37,125.16h.89v1h-.89v-1ZM507.37,127.13h.89v5.21h-.89v-5.21Z"/>
        <path class="cls-1" d="M513.38,127.62c.46.45.69,1.11.69,1.98s-.2,1.54-.61,2.09c-.41.55-1.04.82-1.9.82-.71,0-1.28-.24-1.7-.73-.42-.49-.63-1.14-.63-1.96,0-.88.22-1.58.66-2.1.44-.52,1.04-.78,1.78-.78.67,0,1.23.22,1.7.67ZM512.83,131.1c.21-.44.32-.93.32-1.47,0-.49-.08-.88-.23-1.19-.24-.48-.67-.72-1.26-.72-.53,0-.92.21-1.16.61-.24.41-.36.9-.36,1.48s.12,1.02.36,1.39c.24.37.62.56,1.15.56.58,0,.97-.22,1.19-.66Z"/>
        <path class="cls-1" d="M515.15,127.1h.83v.74c.25-.31.51-.53.79-.66s.58-.2.92-.2c.74,0,1.24.26,1.5.78.14.28.21.69.21,1.22v3.35h-.89v-3.3c0-.32-.05-.58-.14-.77-.16-.33-.44-.49-.85-.49-.21,0-.38.02-.51.06-.24.07-.45.21-.63.43-.15.17-.24.35-.29.53s-.07.45-.07.79v2.74h-.88v-5.23Z"/>
      </g>
    </g>
    <g>
      <rect class="cls-4" x="100.72" y="161.9" width="59.67" height="23.36" rx="2" ry="2"/>
      <g>
        <path class="cls-1" d="M107.22,169.46h3.21c.63,0,1.15.18,1.54.54.39.36.59.87.59,1.52,0,.56-.17,1.05-.52,1.46s-.88.62-1.6.62h-2.24v3.03h-.97v-7.17ZM110.99,170.45c-.21-.1-.51-.15-.88-.15h-1.92v2.49h1.92c.43,0,.78-.09,1.05-.28s.4-.51.4-.98c0-.53-.19-.88-.58-1.07Z"/>
        <path class="cls-1" d="M113.7,171.4h.83v.9c.07-.18.24-.39.5-.64.27-.25.57-.38.92-.38.02,0,.04,0,.08,0,.04,0,.11,0,.2.02v.93c-.05,0-.1-.02-.14-.02-.04,0-.09,0-.14,0-.44,0-.78.14-1.02.43-.24.28-.36.61-.36.98v3.01h-.88v-5.23Z"/>
        <path class="cls-1" d="M120.24,171.55c.35.17.61.4.79.68.17.26.29.57.35.92.05.24.08.62.08,1.15h-3.8c.02.53.14.96.37,1.28.23.32.59.48,1.08.48.46,0,.82-.15,1.09-.46.15-.18.26-.38.32-.61h.86c-.02.19-.1.41-.23.64-.13.24-.27.43-.43.58-.27.26-.59.44-.98.53-.21.05-.45.08-.71.08-.65,0-1.2-.24-1.65-.71s-.67-1.14-.67-1.99.23-1.52.68-2.05c.45-.52,1.04-.79,1.78-.79.37,0,.73.09,1.07.26ZM120.56,173.6c-.04-.38-.12-.68-.25-.91-.24-.42-.64-.63-1.2-.63-.4,0-.74.15-1.01.44-.27.29-.41.66-.43,1.11h2.88Z"/>
        <path class="cls-1" d="M125.44,171.56c.16.1.33.27.53.51v-2.64h.84v7.2h-.79v-.73c-.2.32-.45.56-.72.7-.28.14-.6.21-.96.21-.58,0-1.08-.25-1.51-.73-.42-.49-.64-1.14-.64-1.96,0-.76.19-1.42.58-1.98.39-.56.94-.84,1.66-.84.4,0,.73.08,1,.25ZM123.48,175.48c.24.38.62.57,1.14.57.4,0,.74-.17,1-.52.26-.35.39-.85.39-1.51s-.13-1.15-.4-1.47c-.27-.32-.6-.48-1-.48-.44,0-.8.17-1.07.51-.27.34-.41.84-.41,1.49,0,.56.12,1.03.35,1.41Z"/>
        <path class="cls-1" d="M131.36,171.55c.35.17.61.4.79.68.17.26.29.57.35.92.05.24.08.62.08,1.15h-3.8c.02.53.14.96.37,1.28.23.32.59.48,1.08.48.46,0,.82-.15,1.09-.46.15-.18.26-.38.32-.61h.86c-.02.19-.1.41-.23.64-.13.24-.27.43-.43.58-.27.26-.59.44-.98.53-.21.05-.45.08-.71.08-.65,0-1.2-.24-1.65-.71s-.67-1.14-.67-1.99.23-1.52.68-2.05c.45-.52,1.04-.79,1.78-.79.37,0,.73.09,1.07.26ZM131.68,173.6c-.04-.38-.12-.68-.25-.91-.24-.42-.64-.63-1.2-.63-.4,0-.74.15-1.01.44-.27.29-.41.66-.43,1.11h2.88Z"/>
        <path class="cls-1" d="M137.15,171.68c.37.29.59.78.67,1.48h-.85c-.05-.32-.17-.59-.36-.8-.19-.21-.48-.32-.89-.32-.56,0-.96.27-1.2.82-.16.35-.23.79-.23,1.31s.11.96.33,1.32.57.54,1.04.54c.36,0,.65-.11.87-.33.21-.22.36-.53.44-.91h.85c-.1.69-.34,1.2-.73,1.52-.39.32-.89.48-1.5.48-.68,0-1.23-.25-1.64-.75-.41-.5-.61-1.12-.61-1.87,0-.92.22-1.63.67-2.14.45-.51,1.01-.77,1.7-.77.59,0,1.07.14,1.44.43Z"/>
        <path class="cls-1" d="M142.48,171.93c.46.45.69,1.11.69,1.98s-.2,1.54-.61,2.09-1.04.82-1.9.82c-.71,0-1.28-.24-1.7-.73-.42-.49-.63-1.14-.63-1.96,0-.88.22-1.58.66-2.1.44-.52,1.04-.78,1.78-.78.67,0,1.23.22,1.7.67ZM141.94,175.4c.21-.44.32-.93.32-1.47,0-.49-.08-.88-.23-1.19-.24-.48-.67-.72-1.26-.72-.53,0-.92.21-1.16.62-.24.41-.36.9-.36,1.48s.12,1.02.36,1.39c.24.37.62.56,1.15.56.58,0,.97-.22,1.19-.66Z"/>
        <path class="cls-1" d="M147.13,171.56c.16.1.33.27.53.51v-2.64h.84v7.2h-.79v-.73c-.2.32-.45.56-.72.7-.28.14-.6.21-.96.21-.58,0-1.08-.25-1.51-.73-.42-.49-.64-1.14-.64-1.96,0-.76.19-1.42.58-1.98.39-.56.94-.84,1.66-.84.4,0,.73.08,1,.25ZM145.17,175.48c.24.38.62.57,1.14.57.4,0,.74-.17,1-.52.26-.35.39-.85.39-1.51s-.13-1.15-.4-1.47c-.27-.32-.6-.48-1-.48-.44,0-.8.17-1.07.51-.27.34-.41.84-.41,1.49,0,.56.12,1.03.35,1.41Z"/>
        <path class="cls-1" d="M153.05,171.55c.35.17.61.4.79.68.17.26.29.57.35.92.05.24.08.62.08,1.15h-3.8c.02.53.14.96.37,1.28.23.32.59.48,1.08.48.46,0,.82-.15,1.09-.46.15-.18.26-.38.32-.61h.86c-.02.19-.1.41-.23.64-.13.24-.27.43-.43.58-.27.26-.59.44-.98.53-.21.05-.45.08-.71.08-.65,0-1.2-.24-1.65-.71s-.67-1.14-.67-1.99.23-1.52.68-2.05c.45-.52,1.04-.79,1.78-.79.37,0,.73.09,1.07.26ZM153.36,173.6c-.04-.38-.12-.68-.25-.91-.24-.42-.64-.63-1.2-.63-.4,0-.74.15-1.01.44-.27.29-.41.66-.43,1.11h2.88Z"/>
      </g>
    </g>
    <g>
      <line class="cls-3" x1="621.26" y1="129.07" x2="634.75" y2="129.07"/>
      <polygon class="cls-1" points="634.02 131.56 638.33 129.07 634.02 126.58 634.02 131.56"/>
    </g>
    <g>
      <line class="cls-3" x1="552.3" y1="129.07" x2="567.97" y2="129.07"/>
      <polygon class="cls-1" points="567.24 131.56 571.56 129.07 567.24 126.58 567.24 131.56"/>
    </g>
    <g>
      <line class="cls-3" x1="382.97" y1="129.07" x2="398.64" y2="129.07"/>
      <polygon class="cls-1" points="397.91 131.56 402.23 129.07 397.91 126.58 397.91 131.56"/>
    </g>
    <g>
      <line class="cls-3" x1="298.31" y1="129.07" x2="313.98" y2="129.07"/>
      <polygon class="cls-1" points="313.25 131.56 317.57 129.07 313.25 126.58 313.25 131.56"/>
    </g>
    <g>
      <line class="cls-3" x1="229.35" y1="129.07" x2="245.02" y2="129.07"/>
      <polygon class="cls-1" points="244.29 131.56 248.6 129.07 244.29 126.58 244.29 131.56"/>
    </g>
    <g>
      <line class="cls-3" x1="160.38" y1="129.07" x2="176.05" y2="129.07"/>
      <polygon class="cls-1" points="175.32 131.56 179.64 129.07 175.32 126.58 175.32 131.56"/>
    </g>
    <g>
      <line class="cls-3" x1="81.24" y1="129.07" x2="96.91" y2="129.07"/>
      <polygon class="cls-1" points="96.18 131.56 100.5 129.07 96.18 126.58 96.18 131.56"/>
    </g>
    <g>
      <line class="cls-3" x1="652.31" y1="84.66" x2="665.79" y2="84.66"/>
      <polygon class="cls-1" points="665.06 87.15 669.38 84.66 665.06 82.17 665.06 87.15"/>
    </g>
    <g>
      <line class="cls-3" x1="652.31" y1="117.67" x2="665.79" y2="117.67"/>
      <polygon class="cls-1" points="665.06 120.16 669.38 117.67 665.06 115.18 665.06 120.16"/>
    </g>
    <g>
      <line class="cls-3" x1="652.31" y1="150.68" x2="665.79" y2="150.68"/>
      <polygon class="cls-1" points="665.06 153.17 669.38 150.68 665.06 148.18 665.06 153.17"/>
    </g>
    <g>
      <line class="cls-3" x1="652.31" y1="183.68" x2="665.79" y2="183.68"/>
      <polygon class="cls-1" points="665.06 186.18 669.38 183.68 665.06 181.19 665.06 186.18"/>
    </g>
    <g>
      <line class="cls-3" x1="652.31" y1="216.69" x2="665.79" y2="216.69"/>
      <polygon class="cls-1" points="665.06 219.19 669.38 216.69 665.06 214.2 665.06 219.19"/>
    </g>
    <g>
      <line class="cls-3" x1="785.46" y1="84.66" x2="798.94" y2="84.66"/>
      <polygon class="cls-1" points="798.21 87.15 802.53 84.66 798.21 82.17 798.21 87.15"/>
    </g>
    <g>
      <line class="cls-3" x1="785.46" y1="117.67" x2="798.94" y2="117.67"/>
      <polygon class="cls-1" points="798.21 120.16 802.53 117.67 798.21 115.18 798.21 120.16"/>
    </g>
    <g>
      <line class="cls-3" x1="785.46" y1="150.68" x2="798.94" y2="150.68"/>
      <polygon class="cls-1" points="798.21 153.17 802.53 150.68 798.21 148.18 798.21 153.17"/>
    </g>
    <g>
      <line class="cls-3" x1="785.46" y1="183.68" x2="798.94" y2="183.68"/>
      <polygon class="cls-1" points="798.21 186.18 802.53 183.68 798.21 181.19 798.21 186.18"/>
    </g>
    <g>
      <line class="cls-3" x1="785.46" y1="216.69" x2="798.94" y2="216.69"/>
      <polygon class="cls-1" points="798.21 219.19 802.53 216.69 798.21 214.2 798.21 219.19"/>
    </g>
    <polygon class="cls-4" points="638.33 212.29 652.05 225.94 652.05 75.41 638.33 89.06 638.33 212.29"/>
    <polygon class="cls-4" points="816.24 212.29 802.53 225.94 802.53 75.41 816.24 89.06 816.24 212.29"/>
    <g>
      <line class="cls-3" x1="816.24" y1="129.64" x2="829.52" y2="129.64"/>
      <polygon class="cls-1" points="828.79 132.13 833.11 129.64 828.79 127.14 828.79 132.13"/>
    </g>
    <g>
      <polyline class="cls-3" points="863.62 110.15 863.62 43.26 434.93 43.26 434.93 54.63"/>
      <polygon class="cls-1" points="432.44 53.9 434.93 58.22 437.43 53.9 432.44 53.9"/>
    </g>
    <g>
      <polyline class="cls-3" points="434.93 43.26 350.27 43.26 350.27 106.57"/>
      <polygon class="cls-1" points="347.78 105.84 350.27 110.15 352.76 105.84 347.78 105.84"/>
    </g>
    <g>
      <line class="cls-3" x1="130.55" y1="147.99" x2="130.55" y2="158.31"/>
      <polygon class="cls-1" points="128.06 157.59 130.55 161.9 133.04 157.59 128.06 157.59"/>
    </g>
    <g>
      <line class="cls-3" x1="423.52" y1="147.99" x2="423.52" y2="158.31"/>
      <polygon class="cls-1" points="421.03 157.59 423.52 161.9 426.02 157.59 421.03 157.59"/>
    </g>
    <g>
      <line class="cls-3" x1="449.28" y1="161.9" x2="449.28" y2="151.57"/>
      <polygon class="cls-1" points="451.77 152.3 449.28 147.99 446.79 152.3 451.77 152.3"/>
    </g>
    <g>
      <polyline class="cls-3" points="100.5 173.58 45.68 173.58 45.68 151.57"/>
      <polygon class="cls-1" points="48.18 152.3 45.68 147.99 43.19 152.3 48.18 152.3"/>
    </g>
    <g>
      <polyline class="cls-3" points="392.35 129.07 392.35 77.13 398.64 77.13"/>
      <polygon class="cls-1" points="397.91 79.62 402.23 77.13 397.91 74.64 397.91 79.62"/>
    </g>
    <circle class="cls-1" cx="434.93" cy="43.26" r="1.47"/>
    <circle class="cls-1" cx="392.35" cy="129.07" r="1.47"/>
  </g>
</svg>