<?xml version="1.0" encoding="UTF-8"?>
<svg id="Layer_2" data-name="Layer 2" xmlns="http://www.w3.org/2000/svg" viewBox="0 0 1032.07 229.16">
  <defs>
    <style>
      .cls-1 {
        fill: #231f20;
      }

      .cls-2 {
        stroke: #bcbec0;
        stroke-dasharray: 2;
      }

      .cls-2, .cls-3, .cls-4, .cls-5, .cls-6 {
        stroke-miterlimit: 10;
      }

      .cls-2, .cls-3, .cls-6 {
        fill: none;
      }

      .cls-3, .cls-4, .cls-5 {
        stroke: #231f20;
      }

      .cls-3, .cls-5, .cls-6 {
        stroke-width: .5px;
      }

      .cls-7 {
        fill: #808285;
      }

      .cls-4, .cls-5 {
        fill: #fff;
      }

      .cls-6 {
        stroke: #808285;
      }
    </style>
  </defs>
  <g id="Layer_2-2" data-name="Layer 2">
    <line class="cls-2" x1="90.87" y1="23.53" x2="90.87" y2="228.66"/>
    <line class="cls-2" x1=".5" y1="23.53" x2=".5" y2="228.66"/>
    <line class="cls-2" x1="170.01" y1="23.53" x2="170.01" y2="228.66"/>
    <line class="cls-2" x1="238.98" y1="23.53" x2="238.98" y2="228.66"/>
    <line class="cls-2" x1="311.36" y1="23.53" x2="311.36" y2="228.66"/>
    <line class="cls-2" x1="521.36" y1="23.53" x2="521.36" y2="228.66"/>
    <line class="cls-2" x1="380.32" y1="23.53" x2="380.32" y2="228.66"/>
    <line class="cls-2" x1="607.44" y1="23.53" x2="607.44" y2="228.66"/>
    <line class="cls-2" x1="690.94" y1="23.53" x2="690.94" y2="228.66"/>
    <line class="cls-2" x1="758.81" y1="23.53" x2="758.81" y2="228.66"/>
    <line class="cls-2" x1="823.77" y1="23.53" x2="823.77" y2="228.66"/>
    <line class="cls-2" x1="888.73" y1="23.53" x2="888.73" y2="228.66"/>
    <line class="cls-2" x1="953.69" y1="23.53" x2="953.69" y2="228.66"/>
    <line class="cls-2" x1="1031.57" y1="23.53" x2="1031.57" y2="228.66"/>
    <g>
      <path class="cls-7" d="M26.83,31.07c.36,0,.64-.04.86-.12.42-.15.63-.43.63-.83,0-.24-.1-.42-.31-.55-.21-.13-.54-.24-.98-.34l-.76-.17c-.75-.17-1.27-.35-1.55-.55-.48-.33-.73-.85-.73-1.56,0-.64.23-1.18.7-1.61s1.16-.64,2.07-.64c.76,0,1.41.2,1.94.6.54.4.82.99.84,1.75h-1.45c-.03-.43-.21-.74-.57-.92-.23-.12-.53-.18-.87-.18-.39,0-.7.08-.93.23-.23.16-.35.37-.35.65,0,.26.11.45.34.58.15.08.46.18.94.3l1.24.3c.54.13.95.3,1.23.52.43.34.64.83.64,1.47s-.25,1.2-.75,1.64-1.21.65-2.13.65-1.67-.21-2.21-.64-.81-1.02-.81-1.77h1.44c.05.33.14.57.27.74.24.3.66.44,1.25.44Z"/>
      <path class="cls-7" d="M35.38,28.7h-1.43c-.03-.2-.09-.38-.2-.54-.16-.21-.4-.32-.73-.32-.47,0-.79.23-.96.7-.09.25-.14.58-.14.99s.05.7.14.94c.17.44.48.66.94.66.33,0,.56-.09.69-.26s.22-.4.25-.68h1.42c-.03.42-.19.82-.46,1.2-.44.61-1.08.91-1.94.91s-1.49-.25-1.89-.76c-.4-.51-.61-1.17-.61-1.98,0-.91.22-1.63.67-2.13.45-.51,1.06-.76,1.85-.76.67,0,1.21.15,1.64.45s.68.83.75,1.59Z"/>
      <path class="cls-7" d="M41.15,28.99v3.12h-1.42v-3.24c0-.29-.05-.52-.15-.69-.13-.25-.37-.37-.72-.37s-.65.12-.84.37-.29.6-.29,1.05v2.88h-1.39v-7.17h1.39v2.54c.2-.31.44-.52.7-.65.26-.12.54-.18.84-.18.33,0,.63.06.9.17s.49.29.66.52c.15.2.24.4.27.61.03.21.05.55.05,1.03Z"/>
      <path class="cls-7" d="M47,30.55c-.04.32-.2.64-.49.96-.46.52-1.09.78-1.91.78-.68,0-1.27-.22-1.79-.65s-.78-1.15-.78-2.13c0-.92.23-1.63.7-2.12.47-.49,1.07-.74,1.82-.74.44,0,.84.08,1.2.25.36.17.65.43.88.79.21.32.34.68.41,1.1.04.24.05.6.04,1.05h-3.64c.02.53.19.91.5,1.12.19.13.42.2.69.2.29,0,.52-.08.7-.24.1-.09.18-.21.26-.37h1.42ZM45.62,28.92c-.02-.37-.13-.65-.33-.84s-.45-.29-.75-.29c-.32,0-.57.1-.75.3-.18.2-.29.48-.33.82h2.16Z"/>
      <path class="cls-7" d="M52.85,24.92v7.19h-1.35v-.74c-.2.32-.42.55-.68.69s-.57.21-.95.21c-.62,0-1.14-.25-1.57-.75s-.64-1.15-.64-1.94c0-.91.21-1.62.63-2.14.42-.52.98-.78,1.68-.78.32,0,.61.07.86.21.25.14.45.34.61.59v-2.54h1.41ZM49.1,29.49c0,.49.1.88.29,1.18.19.3.49.44.88.44s.69-.15.9-.44.31-.67.31-1.14c0-.65-.16-1.12-.49-1.4-.2-.17-.44-.25-.7-.25-.41,0-.71.15-.9.46s-.29.69-.29,1.15Z"/>
      <path class="cls-7" d="M57.53,31.36s-.04.06-.1.15c-.05.08-.11.15-.19.21-.22.2-.43.33-.63.4-.2.07-.44.11-.72.11-.79,0-1.32-.28-1.59-.85-.15-.31-.23-.77-.23-1.38v-3.21h1.43v3.21c0,.3.04.53.11.68.13.27.38.41.75.41.48,0,.8-.19.98-.58.09-.21.14-.48.14-.83v-2.9h1.41v5.32h-1.35v-.75Z"/>
      <path class="cls-7" d="M60.25,24.92h1.39v7.2h-1.39v-7.2Z"/>
      <path class="cls-7" d="M67.56,30.55c-.04.32-.2.64-.49.96-.46.52-1.09.78-1.91.78-.68,0-1.27-.22-1.79-.65s-.78-1.15-.78-2.13c0-.92.23-1.63.7-2.12.47-.49,1.07-.74,1.82-.74.44,0,.84.08,1.2.25.36.17.65.43.88.79.21.32.34.68.41,1.1.04.24.05.6.04,1.05h-3.64c.02.53.19.91.5,1.12.19.13.42.2.69.2.29,0,.52-.08.7-.24.1-.09.18-.21.26-.37h1.42ZM66.18,28.92c-.02-.37-.13-.65-.33-.84s-.45-.29-.75-.29c-.32,0-.57.1-.75.3-.18.2-.29.48-.33.82h2.16Z"/>
    </g>
    <g>
      <path class="cls-7" d="M123.08,26.19h-3.61v1.66h3.16v1.25h-3.16v3.02h-1.49v-7.19h5.1v1.26Z"/>
      <path class="cls-7" d="M128.53,30.55c-.04.32-.2.64-.49.96-.46.52-1.09.78-1.91.78-.68,0-1.27-.22-1.79-.65s-.78-1.15-.78-2.13c0-.92.23-1.63.7-2.12s1.07-.74,1.82-.74c.44,0,.84.08,1.2.25s.65.43.88.79c.21.32.34.68.41,1.1.04.24.05.6.04,1.05h-3.64c.02.53.19.91.5,1.12.19.13.42.2.69.2.29,0,.52-.08.7-.24.1-.09.18-.21.26-.37h1.42ZM127.15,28.92c-.02-.37-.13-.65-.33-.84s-.45-.29-.74-.29c-.32,0-.57.1-.75.3s-.29.48-.33.82h2.16Z"/>
      <path class="cls-7" d="M131.97,31.12v1.04l-.66.02c-.66.02-1.11-.09-1.35-.34-.16-.16-.23-.41-.23-.74v-3.28h-.74v-.99h.74v-1.48h1.38v1.48h.86v.99h-.86v2.81c0,.22.03.35.08.41s.22.08.51.08c.04,0,.09,0,.13,0s.09,0,.14,0Z"/>
      <path class="cls-7" d="M137.47,28.7h-1.43c-.03-.2-.09-.38-.2-.54-.16-.21-.4-.32-.73-.32-.47,0-.79.23-.96.7-.09.25-.14.58-.14.99s.05.7.14.94c.17.44.48.66.94.66.33,0,.56-.09.69-.26s.22-.4.25-.68h1.42c-.03.42-.19.82-.46,1.2-.44.61-1.08.91-1.94.91s-1.49-.25-1.89-.76-.61-1.17-.61-1.98c0-.91.22-1.63.67-2.13s1.06-.76,1.85-.76c.67,0,1.21.15,1.64.45s.68.83.75,1.59Z"/>
      <path class="cls-7" d="M143.24,28.99v3.12h-1.42v-3.24c0-.29-.05-.52-.15-.69-.13-.25-.37-.37-.72-.37s-.65.12-.84.37-.29.6-.29,1.05v2.88h-1.39v-7.17h1.39v2.54c.2-.31.44-.52.7-.65s.54-.18.84-.18c.33,0,.63.06.9.17s.49.29.66.52c.15.2.24.4.27.61s.05.55.05,1.03Z"/>
    </g>
    <g>
      <path class="cls-7" d="M190.29,32.11h-3.1v-7.2h3.1c.45,0,.82.06,1.11.16.5.17.91.47,1.23.91.25.36.42.75.51,1.16s.14.81.14,1.19c0,.96-.19,1.77-.58,2.43-.52.9-1.32,1.34-2.41,1.34ZM191.41,26.75c-.23-.39-.69-.59-1.37-.59h-1.39v4.7h1.39c.71,0,1.2-.35,1.48-1.05.15-.38.23-.84.23-1.37,0-.73-.11-1.3-.34-1.69Z"/>
      <path class="cls-7" d="M198.86,30.55c-.04.32-.2.64-.49.96-.46.52-1.09.78-1.91.78-.68,0-1.27-.22-1.79-.65s-.78-1.15-.78-2.13c0-.92.23-1.63.7-2.12s1.07-.74,1.82-.74c.44,0,.84.08,1.2.25s.65.43.88.79c.21.32.34.68.41,1.1.04.24.05.6.04,1.05h-3.64c.02.53.19.91.5,1.12.19.13.42.2.69.2.29,0,.52-.08.7-.24.1-.09.18-.21.26-.37h1.42ZM197.48,28.92c-.02-.37-.13-.65-.33-.84s-.45-.29-.74-.29c-.32,0-.57.1-.75.3s-.29.48-.33.82h2.16Z"/>
      <path class="cls-7" d="M204.47,28.7h-1.43c-.03-.2-.09-.38-.2-.54-.16-.21-.4-.32-.73-.32-.47,0-.79.23-.96.7-.09.25-.14.58-.14.99s.05.7.14.94c.17.44.48.66.94.66.33,0,.56-.09.69-.26s.22-.4.25-.68h1.42c-.03.42-.19.82-.46,1.2-.44.61-1.08.91-1.94.91s-1.49-.25-1.89-.76-.61-1.17-.61-1.98c0-.91.22-1.63.67-2.13s1.06-.76,1.85-.76c.67,0,1.21.15,1.64.45s.68.83.75,1.59Z"/>
      <path class="cls-7" d="M209.87,27.46c.45.56.67,1.23.67,2s-.22,1.45-.67,2-1.13.83-2.05.83-1.6-.28-2.05-.83-.67-1.22-.67-2,.22-1.43.67-2,1.13-.84,2.05-.84,1.6.28,2.05.84ZM207.81,27.8c-.41,0-.72.14-.94.43s-.33.7-.33,1.23.11.95.33,1.24.53.43.94.43.72-.15.94-.43.33-.7.33-1.24-.11-.94-.33-1.23-.53-.43-.94-.43Z"/>
      <path class="cls-7" d="M216.38,24.92v7.19h-1.35v-.74c-.2.32-.42.55-.68.69s-.57.21-.95.21c-.62,0-1.15-.25-1.57-.75s-.64-1.15-.64-1.94c0-.91.21-1.62.63-2.14s.98-.78,1.68-.78c.32,0,.61.07.86.21s.45.34.61.59v-2.54h1.41ZM212.63,29.49c0,.49.1.88.29,1.18.19.3.48.44.88.44s.69-.15.9-.44.31-.67.31-1.14c0-.65-.16-1.12-.49-1.4-.2-.17-.44-.25-.7-.25-.41,0-.71.15-.9.46s-.29.69-.29,1.15Z"/>
      <path class="cls-7" d="M222.2,30.55c-.04.32-.2.64-.49.96-.46.52-1.09.78-1.91.78-.68,0-1.27-.22-1.79-.65s-.78-1.15-.78-2.13c0-.92.23-1.63.7-2.12s1.07-.74,1.82-.74c.44,0,.84.08,1.2.25s.65.43.88.79c.21.32.34.68.41,1.1.04.24.05.6.04,1.05h-3.64c.02.53.19.91.5,1.12.19.13.42.2.69.2.29,0,.52-.08.7-.24.1-.09.18-.21.26-.37h1.42ZM220.82,28.92c-.02-.37-.13-.65-.33-.84s-.45-.29-.74-.29c-.32,0-.57.1-.75.3s-.29.48-.33.82h2.16Z"/>
    </g>
    <g>
      <path class="cls-7" d="M330.37,24.92h1.49v7.2h-1.49v-7.2Z"/>
      <path class="cls-7" d="M336.56,32.11h-3.26v-7.2h3.5c.88.01,1.51.27,1.88.77.22.31.33.67.33,1.1s-.11.79-.33,1.06c-.12.15-.31.29-.55.41.37.13.65.35.83.63s.28.64.28,1.05-.11.81-.32,1.15c-.14.22-.31.41-.51.57-.23.18-.5.3-.82.36s-.66.1-1.02.1ZM337.27,27.57c.2-.12.29-.33.29-.63,0-.34-.13-.56-.39-.66-.22-.07-.51-.11-.86-.11h-1.58v1.59h1.77c.32,0,.57-.06.77-.18ZM336.52,28.94h-1.79v1.92h1.77c.32,0,.56-.04.74-.13.32-.16.48-.46.48-.9,0-.37-.15-.63-.46-.77-.17-.08-.42-.12-.73-.12Z"/>
      <path class="cls-7" d="M343.79,31.36s-.05.06-.1.15-.11.15-.19.21c-.22.2-.43.33-.63.4s-.44.11-.72.11c-.79,0-1.32-.28-1.59-.85-.15-.31-.23-.77-.23-1.38v-3.21h1.43v3.21c0,.3.04.53.11.68.13.27.38.41.75.41.48,0,.8-.19.98-.58.09-.21.14-.48.14-.83v-2.9h1.41v5.32h-1.35v-.75Z"/>
      <path class="cls-7" d="M348.98,24.87v1.13c-.08,0-.21-.02-.39-.02s-.31.04-.38.12-.1.18-.1.29v.45h.91v.98h-.91v4.29h-1.39v-4.29h-.78v-.98h.76v-.34c0-.57.1-.96.29-1.18.2-.32.69-.48,1.46-.48.09,0,.17,0,.24,0s.17.01.29.02Z"/>
      <path class="cls-7" d="M352.31,24.87v1.13c-.08,0-.21-.02-.39-.02s-.31.04-.38.12-.1.18-.1.29v.45h.91v.98h-.91v4.29h-1.39v-4.29h-.78v-.98h.76v-.34c0-.57.1-.96.29-1.18.2-.32.69-.48,1.46-.48.09,0,.17,0,.24,0s.17.01.29.02Z"/>
      <path class="cls-7" d="M357.7,30.55c-.04.32-.2.64-.49.96-.46.52-1.09.78-1.91.78-.68,0-1.27-.22-1.79-.65s-.78-1.15-.78-2.13c0-.92.23-1.63.7-2.12s1.07-.74,1.82-.74c.44,0,.84.08,1.2.25s.65.43.88.79c.21.32.34.68.41,1.1.04.24.05.6.04,1.05h-3.64c.02.53.19.91.5,1.12.19.13.42.2.69.2.29,0,.52-.08.7-.24.1-.09.18-.21.26-.37h1.42ZM356.33,28.92c-.02-.37-.13-.65-.33-.84s-.45-.29-.74-.29c-.32,0-.57.1-.75.3s-.29.48-.33.82h2.16Z"/>
      <path class="cls-7" d="M361.39,28.07c-.56,0-.94.18-1.13.55-.11.21-.16.52-.16.95v2.54h-1.4v-5.32h1.33v.93c.21-.35.4-.6.56-.73.26-.22.6-.33,1.02-.33.03,0,.05,0,.07,0s.06,0,.12,0v1.43c-.09,0-.17-.02-.23-.02s-.12,0-.17,0Z"/>
    </g>
    <g>
      <path class="cls-7" d="M259.53,29.29h-1.55v2.82h-1.47v-7.2h3.53c.5,0,.89.07,1.16.19s.5.28.69.5c.16.18.28.38.37.61s.14.47.14.76c0,.34-.09.68-.26,1.01s-.46.56-.85.7c.33.13.57.32.71.57s.21.62.21,1.13v.48c0,.33.01.55.04.67.04.19.13.32.27.41v.18h-1.66c-.05-.16-.08-.29-.1-.39-.04-.2-.06-.41-.06-.62v-.67c-.02-.46-.1-.77-.26-.92s-.46-.23-.91-.23ZM260.45,27.98c.3-.14.45-.41.45-.81,0-.44-.15-.73-.43-.88-.16-.08-.41-.13-.73-.13h-1.75v1.93h1.7c.34,0,.59-.04.76-.12Z"/>
      <path class="cls-7" d="M268.14,30.55c-.04.32-.2.64-.49.96-.46.52-1.09.78-1.91.78-.68,0-1.27-.22-1.79-.65s-.78-1.15-.78-2.13c0-.92.23-1.63.7-2.12s1.07-.74,1.82-.74c.44,0,.84.08,1.2.25s.65.43.88.79c.21.32.34.68.41,1.1.04.24.05.6.04,1.05h-3.64c.02.53.19.91.5,1.12.19.13.42.2.69.2.29,0,.52-.08.7-.24.1-.09.18-.21.26-.37h1.42ZM266.76,28.92c-.02-.37-.13-.65-.33-.84s-.45-.29-.74-.29c-.32,0-.57.1-.75.3s-.29.48-.33.82h2.16Z"/>
      <path class="cls-7" d="M271.65,27.82c-.47,0-.8.2-.97.6-.09.21-.14.48-.14.81v2.88h-1.39v-5.31h1.34v.78c.18-.27.35-.47.51-.59.29-.21.65-.32,1.09-.32.55,0,1,.14,1.35.43s.52.77.52,1.43v3.58h-1.43v-3.24c0-.28-.04-.49-.11-.64-.14-.27-.4-.41-.78-.41Z"/>
      <path class="cls-7" d="M275.46,27.37c.37-.47,1-.7,1.89-.7.58,0,1.1.12,1.55.35s.68.67.68,1.31v2.44c0,.17,0,.37,0,.62,0,.18.04.31.08.37s.11.12.21.16v.21h-1.51c-.04-.11-.07-.21-.09-.3s-.03-.2-.04-.32c-.19.21-.41.39-.66.53-.3.17-.64.26-1.02.26-.48,0-.88-.14-1.19-.41s-.47-.67-.47-1.17c0-.65.25-1.13.76-1.42.28-.16.68-.27,1.22-.34l.47-.06c.26-.03.44-.07.55-.12.2-.08.3-.22.3-.4,0-.22-.08-.37-.23-.45s-.37-.12-.67-.12c-.33,0-.56.08-.7.24-.1.12-.16.28-.2.49h-1.34c.03-.47.16-.85.39-1.15ZM276.49,31.11c.13.11.29.16.48.16.3,0,.58-.09.83-.26s.38-.5.39-.96v-.52c-.09.06-.18.1-.27.13s-.21.07-.37.1l-.31.06c-.29.05-.5.12-.63.19-.21.13-.32.32-.32.59,0,.24.07.41.2.51Z"/>
      <path class="cls-7" d="M283.81,28.25c-.12-.26-.35-.39-.69-.39-.4,0-.66.13-.8.39-.07.15-.11.36-.11.65v3.2h-1.41v-5.31h1.35v.78c.17-.28.34-.47.49-.59.27-.21.62-.31,1.05-.31.41,0,.74.09.99.27.2.17.35.38.46.64.18-.31.41-.54.68-.69.29-.15.61-.22.96-.22.23,0,.47.05.69.14s.43.25.62.48c.15.19.25.41.3.68.03.18.05.44.05.79v3.35h-1.44v-3.39c0-.2-.03-.37-.1-.5-.12-.25-.35-.37-.68-.37-.38,0-.65.16-.8.48-.07.17-.11.37-.11.61v3.17h-1.4v-3.17c0-.32-.03-.55-.1-.69Z"/>
      <path class="cls-7" d="M294.26,30.55c-.04.32-.2.64-.49.96-.46.52-1.09.78-1.91.78-.68,0-1.27-.22-1.79-.65s-.78-1.15-.78-2.13c0-.92.23-1.63.7-2.12s1.07-.74,1.82-.74c.44,0,.84.08,1.2.25s.65.43.88.79c.21.32.34.68.41,1.1.04.24.05.6.04,1.05h-3.64c.02.53.19.91.5,1.12.19.13.42.2.69.2.29,0,.52-.08.7-.24.1-.09.18-.21.26-.37h1.42ZM292.89,28.92c-.02-.37-.13-.65-.33-.84s-.45-.29-.74-.29c-.32,0-.57.1-.75.3s-.29.48-.33.82h2.16Z"/>
    </g>
    <g>
      <path class="cls-7" d="M440.14,24.92h1.49v7.2h-1.49v-7.2Z"/>
      <path class="cls-7" d="M446.59,27.03c.42.27.66.73.72,1.38h-1.39c-.02-.18-.07-.32-.15-.42-.15-.19-.41-.28-.78-.28-.3,0-.52.05-.65.14s-.19.21-.19.33c0,.16.07.27.21.35.14.07.62.2,1.45.39.55.13.97.33,1.25.59.27.27.41.6.41,1,0,.53-.2.96-.59,1.29s-1,.5-1.82.5-1.45-.18-1.85-.53-.6-.8-.6-1.35h1.41c.03.25.09.42.19.53.17.19.49.28.96.28.27,0,.49-.04.65-.12s.24-.2.24-.37-.06-.27-.2-.36-.61-.22-1.45-.42c-.6-.15-1.03-.34-1.27-.56-.25-.22-.37-.54-.37-.96,0-.49.19-.91.58-1.27s.93-.53,1.63-.53,1.21.13,1.63.4Z"/>
      <path class="cls-7" d="M452.15,27.03c.42.27.66.73.72,1.38h-1.39c-.02-.18-.07-.32-.15-.42-.15-.19-.41-.28-.78-.28-.3,0-.52.05-.65.14s-.19.21-.19.33c0,.16.07.27.21.35.14.07.62.2,1.45.39.55.13.97.33,1.25.59.27.27.41.6.41,1,0,.53-.2.96-.59,1.29s-1,.5-1.82.5-1.45-.18-1.85-.53-.6-.8-.6-1.35h1.41c.03.25.09.42.19.53.17.19.49.28.96.28.27,0,.49-.04.65-.12s.24-.2.24-.37-.06-.27-.2-.36-.61-.22-1.45-.42c-.6-.15-1.03-.34-1.27-.56-.25-.22-.37-.54-.37-.96,0-.49.19-.91.58-1.27s.93-.53,1.63-.53,1.21.13,1.63.4Z"/>
      <path class="cls-7" d="M457.46,31.36s-.05.06-.1.15-.11.15-.19.21c-.22.2-.43.33-.63.4s-.44.11-.72.11c-.79,0-1.32-.28-1.59-.85-.15-.31-.23-.77-.23-1.38v-3.21h1.43v3.21c0,.3.04.53.11.68.13.27.38.41.75.41.48,0,.8-.19.98-.58.09-.21.14-.48.14-.83v-2.9h1.41v5.32h-1.35v-.75Z"/>
      <path class="cls-7" d="M464.71,30.55c-.04.32-.2.64-.49.96-.46.52-1.09.78-1.91.78-.68,0-1.27-.22-1.79-.65s-.78-1.15-.78-2.13c0-.92.23-1.63.7-2.12s1.07-.74,1.82-.74c.44,0,.84.08,1.2.25s.65.43.88.79c.21.32.34.68.41,1.1.04.24.05.6.04,1.05h-3.64c.02.53.19.91.5,1.12.19.13.42.2.69.2.29,0,.52-.08.7-.24.1-.09.18-.21.26-.37h1.42ZM463.33,28.92c-.02-.37-.13-.65-.33-.84s-.45-.29-.74-.29c-.32,0-.57.1-.75.3s-.29.48-.33.82h2.16Z"/>
      <path class="cls-7" d="M467.82,32.29c-.9,0-1.53-.32-1.9-.95s-.54-1.53-.54-2.7.18-2.07.54-2.71,1-.95,1.9-.95,1.53.32,1.9.95c.36.63.54,1.54.54,2.71s-.18,2.07-.54,2.7-1,.95-1.9.95ZM468.63,30.51c.13-.43.19-1.05.19-1.87s-.06-1.48-.19-1.89-.4-.62-.81-.62-.69.21-.82.62-.2,1.04-.2,1.89.07,1.44.2,1.87.41.65.82.65.69-.22.82-.65Z"/>
    </g>
    <g>
      <path class="cls-7" d="M549.02,24.92h1.49v7.2h-1.49v-7.2Z"/>
      <path class="cls-7" d="M555.47,27.03c.42.27.66.73.72,1.38h-1.39c-.02-.18-.07-.32-.15-.42-.15-.19-.41-.28-.78-.28-.3,0-.52.05-.65.14s-.19.21-.19.33c0,.16.07.27.21.35.14.07.62.2,1.45.39.55.13.97.33,1.25.59.27.27.41.6.41,1,0,.53-.2.96-.59,1.29s-1,.5-1.82.5-1.45-.18-1.85-.53-.6-.8-.6-1.35h1.41c.03.25.09.42.19.53.17.19.49.28.96.28.27,0,.49-.04.65-.12s.24-.2.24-.37-.06-.27-.2-.36-.61-.22-1.45-.42c-.6-.15-1.03-.34-1.27-.56-.25-.22-.37-.54-.37-.96,0-.49.19-.91.58-1.27s.93-.53,1.63-.53,1.21.13,1.63.4Z"/>
      <path class="cls-7" d="M561.03,27.03c.42.27.66.73.72,1.38h-1.39c-.02-.18-.07-.32-.15-.42-.15-.19-.41-.28-.78-.28-.3,0-.52.05-.65.14s-.19.21-.19.33c0,.16.07.27.21.35.14.07.62.2,1.45.39.55.13.97.33,1.25.59.27.27.41.6.41,1,0,.53-.2.96-.59,1.29s-1,.5-1.82.5-1.45-.18-1.85-.53-.6-.8-.6-1.35h1.41c.03.25.09.42.19.53.17.19.49.28.96.28.27,0,.49-.04.65-.12s.24-.2.24-.37-.06-.27-.2-.36-.61-.22-1.45-.42c-.6-.15-1.03-.34-1.27-.56-.25-.22-.37-.54-.37-.96,0-.49.19-.91.58-1.27s.93-.53,1.63-.53,1.21.13,1.63.4Z"/>
      <path class="cls-7" d="M566.34,31.36s-.05.06-.1.15-.11.15-.19.21c-.22.2-.43.33-.63.4s-.44.11-.72.11c-.79,0-1.32-.28-1.59-.85-.15-.31-.23-.77-.23-1.38v-3.21h1.43v3.21c0,.3.04.53.11.68.13.27.38.41.75.41.48,0,.8-.19.98-.58.09-.21.14-.48.14-.83v-2.9h1.41v5.32h-1.35v-.75Z"/>
      <path class="cls-7" d="M573.59,30.55c-.04.32-.2.64-.49.96-.46.52-1.09.78-1.91.78-.68,0-1.27-.22-1.79-.65s-.78-1.15-.78-2.13c0-.92.23-1.63.7-2.12s1.07-.74,1.82-.74c.44,0,.84.08,1.2.25s.65.43.88.79c.21.32.34.68.41,1.1.04.24.05.6.04,1.05h-3.64c.02.53.19.91.5,1.12.19.13.42.2.69.2.29,0,.52-.08.7-.24.1-.09.18-.21.26-.37h1.42ZM572.21,28.92c-.02-.37-.13-.65-.33-.84s-.45-.29-.74-.29c-.32,0-.57.1-.75.3s-.29.48-.33.82h2.16Z"/>
      <path class="cls-7" d="M577.73,32.11h-1.43v-4.88h-1.67v-.95c.44-.02.75-.05.92-.09.28-.06.51-.19.68-.37.12-.13.21-.3.27-.51.04-.13.05-.22.05-.28h1.16v7.08Z"/>
    </g>
    <g>
      <path class="cls-7" d="M633.07,24.92h1.49v7.2h-1.49v-7.2Z"/>
      <path class="cls-7" d="M639.52,27.03c.42.27.66.73.72,1.38h-1.39c-.02-.18-.07-.32-.15-.42-.15-.19-.41-.28-.78-.28-.3,0-.52.05-.65.14s-.19.21-.19.33c0,.16.07.27.21.35.14.07.62.2,1.45.39.55.13.97.33,1.25.59.27.27.41.6.41,1,0,.53-.2.96-.59,1.29s-1,.5-1.82.5-1.45-.18-1.85-.53-.6-.8-.6-1.35h1.41c.03.25.09.42.19.53.17.19.49.28.96.28.27,0,.49-.04.65-.12s.24-.2.24-.37-.06-.27-.2-.36-.61-.22-1.45-.42c-.6-.15-1.03-.34-1.27-.56-.25-.22-.37-.54-.37-.96,0-.49.19-.91.58-1.27s.93-.53,1.63-.53,1.21.13,1.63.4Z"/>
      <path class="cls-7" d="M645.09,27.03c.42.27.66.73.72,1.38h-1.39c-.02-.18-.07-.32-.15-.42-.15-.19-.41-.28-.78-.28-.3,0-.52.05-.65.14s-.19.21-.19.33c0,.16.07.27.21.35.14.07.62.2,1.45.39.55.13.97.33,1.25.59.27.27.41.6.41,1,0,.53-.2.96-.59,1.29s-1,.5-1.82.5-1.45-.18-1.85-.53-.6-.8-.6-1.35h1.41c.03.25.09.42.19.53.17.19.49.28.96.28.27,0,.49-.04.65-.12s.24-.2.24-.37-.06-.27-.2-.36-.61-.22-1.45-.42c-.6-.15-1.03-.34-1.27-.56-.25-.22-.37-.54-.37-.96,0-.49.19-.91.58-1.27s.93-.53,1.63-.53,1.21.13,1.63.4Z"/>
      <path class="cls-7" d="M650.39,31.36s-.05.06-.1.15-.11.15-.19.21c-.22.2-.43.33-.63.4s-.44.11-.72.11c-.79,0-1.32-.28-1.59-.85-.15-.31-.23-.77-.23-1.38v-3.21h1.43v3.21c0,.3.04.53.11.68.13.27.38.41.75.41.48,0,.8-.19.98-.58.09-.21.14-.48.14-.83v-2.9h1.41v5.32h-1.35v-.75Z"/>
      <path class="cls-7" d="M657.64,30.55c-.04.32-.2.64-.49.96-.46.52-1.09.78-1.91.78-.68,0-1.27-.22-1.79-.65s-.78-1.15-.78-2.13c0-.92.23-1.63.7-2.12s1.07-.74,1.82-.74c.44,0,.84.08,1.2.25s.65.43.88.79c.21.32.34.68.41,1.1.04.24.05.6.04,1.05h-3.64c.02.53.19.91.5,1.12.19.13.42.2.69.2.29,0,.52-.08.7-.24.1-.09.18-.21.26-.37h1.42ZM656.27,28.92c-.02-.37-.13-.65-.33-.84s-.45-.29-.74-.29c-.32,0-.57.1-.75.3s-.29.48-.33.82h2.16Z"/>
      <path class="cls-7" d="M661.48,26.47c-.17-.2-.4-.3-.71-.3-.42,0-.71.16-.86.47-.09.18-.14.47-.16.87h-1.35c.02-.6.13-1.09.33-1.46.37-.71,1.03-1.06,1.98-1.06.75,0,1.34.21,1.79.62s.66.96.66,1.65c0,.52-.16.99-.47,1.4-.21.27-.54.57-1.01.9l-.56.4c-.35.25-.59.43-.72.54s-.24.24-.32.39h3.09v1.23h-4.85c.01-.51.12-.97.33-1.39.2-.47.67-.97,1.41-1.5.64-.46,1.06-.79,1.25-.99.29-.31.43-.65.43-1.02,0-.3-.08-.55-.25-.75Z"/>
    </g>
    <g>
      <path class="cls-7" d="M710.5,24.92h1.49v7.2h-1.49v-7.2Z"/>
      <path class="cls-7" d="M716.95,27.03c.42.27.66.73.72,1.38h-1.39c-.02-.18-.07-.32-.15-.42-.15-.19-.41-.28-.78-.28-.3,0-.52.05-.65.14s-.19.21-.19.33c0,.16.07.27.21.35.14.07.62.2,1.45.39.55.13.97.33,1.25.59.27.27.41.6.41,1,0,.53-.2.96-.59,1.29s-1,.5-1.82.5-1.45-.18-1.85-.53-.6-.8-.6-1.35h1.41c.03.25.09.42.19.53.17.19.49.28.96.28.27,0,.49-.04.65-.12s.24-.2.24-.37-.06-.27-.2-.36-.61-.22-1.45-.42c-.6-.15-1.03-.34-1.27-.56-.25-.22-.37-.54-.37-.96,0-.49.19-.91.58-1.27s.93-.53,1.63-.53,1.21.13,1.63.4Z"/>
      <path class="cls-7" d="M722.51,27.03c.42.27.66.73.72,1.38h-1.39c-.02-.18-.07-.32-.15-.42-.15-.19-.41-.28-.78-.28-.3,0-.52.05-.65.14s-.19.21-.19.33c0,.16.07.27.21.35.14.07.62.2,1.45.39.55.13.97.33,1.25.59.27.27.41.6.41,1,0,.53-.2.96-.59,1.29s-1,.5-1.82.5-1.45-.18-1.85-.53-.6-.8-.6-1.35h1.41c.03.25.09.42.19.53.17.19.49.28.96.28.27,0,.49-.04.65-.12s.24-.2.24-.37-.06-.27-.2-.36-.61-.22-1.45-.42c-.6-.15-1.03-.34-1.27-.56-.25-.22-.37-.54-.37-.96,0-.49.19-.91.58-1.27s.93-.53,1.63-.53,1.21.13,1.63.4Z"/>
      <path class="cls-7" d="M727.82,31.36s-.05.06-.1.15-.11.15-.19.21c-.22.2-.43.33-.63.4s-.44.11-.72.11c-.79,0-1.32-.28-1.59-.85-.15-.31-.23-.77-.23-1.38v-3.21h1.43v3.21c0,.3.04.53.11.68.13.27.38.41.75.41.48,0,.8-.19.98-.58.09-.21.14-.48.14-.83v-2.9h1.41v5.32h-1.35v-.75Z"/>
      <path class="cls-7" d="M735.07,30.55c-.04.32-.2.64-.49.96-.46.52-1.09.78-1.91.78-.68,0-1.27-.22-1.79-.65s-.78-1.15-.78-2.13c0-.92.23-1.63.7-2.12s1.07-.74,1.82-.74c.44,0,.84.08,1.2.25s.65.43.88.79c.21.32.34.68.41,1.1.04.24.05.6.04,1.05h-3.64c.02.53.19.91.5,1.12.19.13.42.2.69.2.29,0,.52-.08.7-.24.1-.09.18-.21.26-.37h1.42ZM733.69,28.92c-.02-.37-.13-.65-.33-.84s-.45-.29-.74-.29c-.32,0-.57.1-.75.3s-.29.48-.33.82h2.16Z"/>
      <path class="cls-7" d="M737.34,26.44c-.16.21-.23.49-.22.83h-1.3c.01-.35.07-.69.18-1,.11-.28.29-.53.54-.77.18-.17.4-.29.65-.38s.56-.13.92-.13c.68,0,1.22.17,1.64.52s.62.82.62,1.41c0,.42-.12.77-.37,1.05-.16.18-.32.3-.49.37.13,0,.31.11.55.33.35.33.53.78.53,1.35,0,.6-.21,1.13-.62,1.58s-1.03.68-1.84.68c-1,0-1.7-.33-2.09-.98-.21-.35-.32-.8-.34-1.37h1.37c0,.28.05.52.14.7.17.34.48.51.92.51.27,0,.51-.09.72-.28s.31-.46.31-.81c0-.47-.19-.78-.57-.93-.21-.09-.55-.13-1.02-.13v-1c.45,0,.77-.05.95-.13.31-.14.46-.41.46-.83,0-.27-.08-.49-.24-.66s-.38-.25-.67-.25c-.33,0-.57.1-.72.31Z"/>
    </g>
    <g>
      <path class="cls-7" d="M786.72,28.97h-3.5v1.85h3.98v1.29h-5.45v-7.2h5.28v1.27h-3.81v1.53h3.5v1.25Z"/>
      <path class="cls-7" d="M793.01,32.11h-1.73l-.92-1.6-.92,1.6h-1.69l1.82-2.7-1.74-2.62h1.7l.89,1.54.87-1.54h1.66l-1.75,2.59,1.82,2.72Z"/>
      <path class="cls-7" d="M795.94,32.29c-.9,0-1.53-.32-1.9-.95s-.54-1.53-.54-2.7.18-2.07.54-2.71,1-.95,1.9-.95,1.53.32,1.9.95c.36.63.54,1.54.54,2.71s-.18,2.07-.54,2.7-1,.95-1.9.95ZM796.75,30.51c.13-.43.19-1.05.19-1.87s-.06-1.48-.19-1.89-.4-.62-.81-.62-.69.21-.82.62-.2,1.04-.2,1.89.07,1.44.2,1.87.41.65.82.65.69-.22.82-.65Z"/>
    </g>
    <g>
      <path class="cls-7" d="M853.3,28.97h-3.5v1.85h3.98v1.29h-5.45v-7.2h5.28v1.27h-3.81v1.53h3.5v1.25Z"/>
      <path class="cls-7" d="M859.59,32.11h-1.73l-.92-1.6-.92,1.6h-1.69l1.82-2.7-1.74-2.62h1.7l.89,1.54.87-1.54h1.66l-1.75,2.59,1.82,2.72Z"/>
      <path class="cls-7" d="M863.55,32.11h-1.43v-4.88h-1.67v-.95c.44-.02.75-.05.92-.09.28-.06.51-.19.68-.37.12-.13.21-.3.27-.51.04-.13.05-.22.05-.28h1.16v7.08Z"/>
    </g>
    <g>
      <path class="cls-7" d="M919.88,28.97h-3.5v1.85h3.98v1.29h-5.45v-7.2h5.28v1.27h-3.81v1.53h3.5v1.25Z"/>
      <path class="cls-7" d="M926.17,32.11h-1.73l-.92-1.6-.92,1.6h-1.69l1.82-2.7-1.74-2.62h1.7l.89,1.54.87-1.54h1.66l-1.75,2.59,1.82,2.72Z"/>
      <path class="cls-7" d="M929.82,26.47c-.17-.2-.4-.3-.71-.3-.42,0-.71.16-.86.47-.09.18-.14.47-.16.87h-1.35c.02-.6.13-1.09.33-1.46.37-.71,1.03-1.06,1.98-1.06.75,0,1.34.21,1.79.62.44.42.66.96.66,1.65,0,.52-.16.99-.47,1.4-.21.27-.54.57-1.01.9l-.56.4c-.35.25-.59.43-.72.54-.13.11-.24.24-.32.39h3.09v1.23h-4.85c.01-.51.12-.97.33-1.39.2-.47.67-.97,1.41-1.5.64-.46,1.06-.79,1.25-.99.29-.31.43-.65.43-1.02,0-.3-.08-.55-.25-.75Z"/>
    </g>
    <g>
      <path class="cls-7" d="M976.58,24.92h1.53l-2.03,7.2h-1.44l-.87-4.21-.25-1.39-.25,1.39-.87,4.21h-1.4l-2.04-7.2h1.6l.95,4.12.21,1.15.21-1.12.81-4.15h1.59l.85,4.12.22,1.15.22-1.1.96-4.17Z"/>
      <path class="cls-7" d="M981.41,28.07c-.56,0-.94.18-1.13.55-.11.21-.16.52-.16.95v2.54h-1.4v-5.32h1.33v.93c.21-.35.4-.6.56-.73.26-.22.6-.33,1.02-.33.03,0,.05,0,.07,0,.02,0,.06,0,.12,0v1.43c-.09,0-.17-.02-.23-.02s-.12,0-.17,0Z"/>
      <path class="cls-7" d="M984.05,24.87v1.28h-1.41v-1.28h1.41ZM984.05,26.79v5.32h-1.41v-5.32h1.41Z"/>
      <path class="cls-7" d="M987.84,31.12v1.04l-.66.02c-.66.02-1.11-.09-1.35-.34-.16-.16-.23-.41-.23-.74v-3.28h-.74v-.99h.74v-1.48h1.38v1.48h.86v.99h-.86v2.81c0,.22.03.35.08.41.06.05.22.08.51.08.04,0,.09,0,.13,0,.05,0,.09,0,.14,0Z"/>
      <path class="cls-7" d="M993.29,30.55c-.04.32-.2.64-.49.96-.46.52-1.09.78-1.91.78-.68,0-1.27-.22-1.79-.65s-.78-1.15-.78-2.13c0-.92.23-1.63.7-2.12.47-.49,1.07-.74,1.82-.74.44,0,.84.08,1.2.25.36.17.65.43.88.79.21.32.34.68.41,1.1.04.24.05.6.04,1.05h-3.64c.02.53.19.91.5,1.12.19.13.42.2.69.2.29,0,.52-.08.7-.24.1-.09.18-.21.26-.37h1.42ZM991.91,28.92c-.02-.37-.13-.65-.33-.84s-.45-.29-.75-.29c-.32,0-.57.1-.75.3-.18.2-.29.48-.33.82h2.16Z"/>
      <path class="cls-7" d="M997.18,32.25c-.44,0-.79-.09-1.06-.26-.16-.1-.33-.29-.52-.55v.67h-1.36v-7.19h1.39v2.56c.18-.25.37-.44.58-.57.25-.16.57-.24.96-.24.7,0,1.25.25,1.64.76s.59,1.16.59,1.95-.2,1.51-.59,2.06-.94.82-1.64.82ZM997.95,29.53c0-.38-.05-.69-.15-.94-.19-.47-.53-.7-1.03-.7s-.85.23-1.04.69c-.1.24-.15.56-.15.95,0,.46.1.83.3,1.13.2.3.51.45.92.45.36,0,.64-.15.83-.43.2-.29.3-.67.3-1.14Z"/>
      <path class="cls-7" d="M1000.6,27.37c.37-.47,1-.7,1.89-.7.58,0,1.1.12,1.55.35.45.23.68.67.68,1.31v2.44c0,.17,0,.37,0,.62,0,.18.04.31.08.37.05.06.11.12.21.16v.21h-1.51c-.04-.11-.07-.21-.09-.3-.02-.09-.03-.2-.04-.32-.19.21-.41.39-.66.53-.3.17-.64.26-1.02.26-.48,0-.88-.14-1.19-.41-.31-.27-.47-.67-.47-1.17,0-.65.25-1.13.76-1.42.28-.16.68-.27,1.22-.34l.47-.06c.26-.03.44-.07.55-.12.2-.08.3-.22.3-.4,0-.22-.08-.37-.23-.45s-.37-.12-.67-.12c-.33,0-.56.08-.7.24-.1.12-.16.28-.2.49h-1.34c.03-.47.16-.85.39-1.15ZM1001.64,31.11c.13.11.29.16.48.16.3,0,.58-.09.83-.26.25-.18.38-.5.39-.96v-.52c-.09.06-.18.1-.27.13-.09.03-.21.07-.37.1l-.31.06c-.29.05-.5.12-.63.19-.21.13-.32.32-.32.59,0,.24.07.41.2.51Z"/>
      <path class="cls-7" d="M1010.57,28.7h-1.43c-.03-.2-.09-.38-.2-.54-.16-.21-.4-.32-.73-.32-.47,0-.79.23-.96.7-.09.25-.14.58-.14.99s.05.7.14.94c.17.44.48.66.94.66.33,0,.56-.09.69-.26s.22-.4.25-.68h1.42c-.03.42-.19.82-.46,1.2-.44.61-1.08.91-1.94.91s-1.49-.25-1.89-.76c-.4-.51-.61-1.17-.61-1.98,0-.91.22-1.63.67-2.13.45-.51,1.06-.76,1.85-.76.67,0,1.21.15,1.64.45s.68.83.75,1.59Z"/>
      <path class="cls-7" d="M1016.41,32.11h-1.68l-1.27-2.28-.58.6v1.67h-1.37v-7.17h1.37v3.88l1.73-2h1.72l-1.86,2.04,1.93,3.26Z"/>
    </g>
    <g>
      <path class="cls-7" d="M591.02,1.41l.76,6.11,3.33-6.11h1.09l-4.14,7.17h-1.03l-1.09-7.17h1.07Z"/>
      <path class="cls-7" d="M598.22,5.42c.21-.03.36-.11.46-.25.06-.08.1-.19.13-.34.06-.3,0-.52-.18-.65s-.48-.2-.87-.2c-.46,0-.81.12-1.05.37-.14.14-.25.34-.34.61h-.82c.15-.64.46-1.09.91-1.35s.95-.38,1.48-.38c.62,0,1.09.12,1.42.35s.45.6.34,1.09l-.64,3.01c-.02.09-.02.16,0,.22s.1.08.22.08c.04,0,.08,0,.13,0s.1-.01.16-.02l-.14.65c-.14.04-.25.06-.32.07s-.17.01-.3.01c-.3,0-.5-.11-.59-.32-.05-.11-.06-.27-.05-.48-.23.23-.53.44-.9.61s-.76.26-1.16.26c-.48,0-.85-.15-1.1-.44s-.32-.66-.23-1.11c.1-.48.34-.86.7-1.13s.79-.43,1.3-.49l1.44-.18ZM596.48,8.02c.31,0,.62-.07.95-.21.54-.24.86-.63.98-1.17l.15-.71c-.12.07-.27.13-.45.17s-.35.08-.52.1l-.55.07c-.33.04-.58.11-.76.2-.3.15-.49.4-.56.73-.06.25,0,.45.15.6s.36.22.61.22Z"/>
      <path class="cls-7" d="M601.44,3.36h.83l-.19.9c.1-.18.32-.39.64-.64s.66-.38,1-.38c.02,0,.04,0,.08,0s.1,0,.2.02l-.2.93c-.05,0-.1-.02-.14-.02s-.09,0-.14,0c-.44,0-.81.14-1.11.43s-.49.61-.57.98l-.63,3.01h-.88l1.11-5.23Z"/>
      <path class="cls-7" d="M604.74,3.38h.89l-1.1,5.21h-.89l1.1-5.21ZM605.16,1.41h.89l-.21,1h-.89l.21-1Z"/>
      <path class="cls-7" d="M609.33,5.42c.21-.03.36-.11.46-.25.06-.08.1-.19.13-.34.06-.3,0-.52-.18-.65s-.48-.2-.87-.2c-.46,0-.81.12-1.05.37-.14.14-.25.34-.34.61h-.82c.15-.64.46-1.09.91-1.35s.95-.38,1.48-.38c.62,0,1.09.12,1.42.35s.45.6.34,1.09l-.64,3.01c-.02.09-.02.16,0,.22s.1.08.22.08c.04,0,.08,0,.13,0s.1-.01.16-.02l-.14.65c-.14.04-.25.06-.32.07s-.17.01-.3.01c-.3,0-.5-.11-.59-.32-.05-.11-.06-.27-.05-.48-.23.23-.53.44-.9.61s-.76.26-1.16.26c-.48,0-.85-.15-1.1-.44s-.32-.66-.23-1.11c.1-.48.34-.86.7-1.13s.79-.43,1.3-.49l1.44-.18ZM607.59,8.02c.31,0,.62-.07.95-.21.54-.24.86-.63.98-1.17l.15-.71c-.12.07-.27.13-.45.17s-.35.08-.52.1l-.55.07c-.33.04-.58.11-.76.2-.3.15-.49.4-.56.73-.06.25,0,.45.15.6s.36.22.61.22Z"/>
      <path class="cls-7" d="M612.88,1.39h.85l-.55,2.6c.24-.25.51-.44.81-.57s.6-.2.91-.2c.65,0,1.13.22,1.44.67s.37,1.11.19,1.98c-.18.83-.52,1.51-1.04,2.06s-1.13.82-1.84.82c-.4,0-.71-.1-.94-.29-.14-.11-.27-.3-.41-.55l-.14.67h-.81l1.53-7.2ZM615.63,5.92c.12-.55.1-1.01-.06-1.37s-.47-.54-.93-.54c-.4,0-.78.15-1.15.44s-.62.78-.76,1.46c-.1.49-.13.89-.07,1.2.11.58.48.86,1.11.86.48,0,.87-.19,1.19-.57s.54-.88.67-1.49Z"/>
      <path class="cls-7" d="M618.53,1.41h.88l-1.52,7.17h-.88l1.52-7.17Z"/>
      <path class="cls-7" d="M624.19,4.18c.12.26.17.57.16.92,0,.24-.05.62-.17,1.15h-3.83c-.1.53-.06.96.1,1.28s.5.48.99.48c.46,0,.86-.15,1.19-.45.2-.18.35-.38.46-.61h.86c-.06.19-.19.41-.36.64s-.36.43-.55.58c-.32.26-.69.44-1.1.53-.22.05-.47.08-.74.08-.65,0-1.15-.24-1.5-.71s-.44-1.14-.25-1.99c.18-.84.55-1.52,1.12-2.05s1.22-.79,1.95-.79c.37,0,.71.09,1.03.26s.53.4.65.68ZM623.42,5.55c.05-.38.03-.69-.05-.91-.15-.42-.51-.63-1.07-.63-.4,0-.77.15-1.11.44s-.56.66-.67,1.11h2.91Z"/>
    </g>
    <g>
      <line class="cls-6" x1="524.94" y1="13.19" x2="687.35" y2="13.19"/>
      <polygon class="cls-7" points="525.67 15.68 521.36 13.19 525.67 10.69 525.67 15.68"/>
      <polygon class="cls-7" points="686.62 15.68 690.94 13.19 686.62 10.69 686.62 15.68"/>
    </g>
    <g>
      <path class="cls-7" d="M841.12,1.41l.76,6.11,3.33-6.11h1.09l-4.14,7.17h-1.03l-1.09-7.17h1.07Z"/>
      <path class="cls-7" d="M848.32,5.42c.21-.03.36-.11.46-.25.06-.08.1-.19.13-.34.07-.3,0-.52-.18-.65s-.48-.2-.87-.2c-.46,0-.81.12-1.05.37-.14.14-.25.34-.34.61h-.82c.15-.64.46-1.09.91-1.35.46-.25.95-.38,1.48-.38.62,0,1.09.12,1.42.35s.45.6.34,1.09l-.64,3.01c-.02.09-.02.16,0,.22s.1.08.22.08c.04,0,.08,0,.13,0,.05,0,.1-.01.16-.02l-.14.65c-.14.04-.25.06-.32.07s-.17.01-.3.01c-.3,0-.5-.11-.59-.32-.05-.11-.06-.27-.05-.48-.23.23-.53.44-.9.61s-.76.26-1.16.26c-.48,0-.85-.15-1.1-.44-.25-.29-.32-.66-.23-1.11.1-.48.34-.86.7-1.13.36-.27.79-.43,1.3-.49l1.44-.18ZM846.58,8.02c.31,0,.62-.07.95-.21.54-.24.86-.63.98-1.17l.15-.71c-.12.07-.27.13-.45.17-.18.05-.35.08-.52.1l-.55.07c-.33.04-.58.11-.76.2-.3.15-.49.4-.56.73-.05.25,0,.45.15.6.15.15.36.22.61.22Z"/>
      <path class="cls-7" d="M851.54,3.36h.83l-.19.9c.1-.18.32-.39.64-.64.32-.25.66-.38,1-.38.02,0,.04,0,.08,0s.1,0,.2.02l-.2.93c-.05,0-.1-.02-.14-.02-.04,0-.09,0-.14,0-.44,0-.81.14-1.11.43s-.49.61-.57.98l-.63,3.01h-.88l1.11-5.23Z"/>
      <path class="cls-7" d="M854.84,3.38h.89l-1.1,5.21h-.89l1.1-5.21ZM855.26,1.41h.89l-.21,1h-.89l.21-1Z"/>
      <path class="cls-7" d="M859.43,5.42c.21-.03.36-.11.46-.25.06-.08.1-.19.13-.34.07-.3,0-.52-.18-.65s-.48-.2-.87-.2c-.46,0-.81.12-1.05.37-.14.14-.25.34-.34.61h-.82c.15-.64.46-1.09.91-1.35.46-.25.95-.38,1.48-.38.62,0,1.09.12,1.42.35s.45.6.34,1.09l-.64,3.01c-.02.09-.02.16,0,.22s.1.08.22.08c.04,0,.08,0,.13,0,.05,0,.1-.01.16-.02l-.14.65c-.14.04-.25.06-.32.07s-.17.01-.3.01c-.3,0-.5-.11-.59-.32-.05-.11-.06-.27-.05-.48-.23.23-.53.44-.9.61s-.76.26-1.16.26c-.48,0-.85-.15-1.1-.44-.25-.29-.32-.66-.23-1.11.1-.48.34-.86.7-1.13.36-.27.79-.43,1.3-.49l1.44-.18ZM857.69,8.02c.31,0,.62-.07.95-.21.54-.24.86-.63.98-1.17l.15-.71c-.12.07-.27.13-.45.17-.18.05-.35.08-.52.1l-.55.07c-.33.04-.58.11-.76.2-.3.15-.49.4-.56.73-.05.25,0,.45.15.6.15.15.36.22.61.22Z"/>
      <path class="cls-7" d="M862.98,1.39h.85l-.55,2.6c.24-.25.51-.44.81-.57.29-.13.6-.2.91-.2.65,0,1.13.22,1.44.67.31.45.37,1.11.19,1.98-.18.83-.52,1.51-1.04,2.06s-1.13.82-1.84.82c-.4,0-.71-.1-.94-.29-.14-.11-.27-.3-.41-.55l-.14.67h-.81l1.53-7.2ZM865.73,5.92c.12-.55.1-1.01-.06-1.37-.16-.36-.47-.54-.93-.54-.4,0-.78.15-1.15.44-.36.3-.62.78-.76,1.46-.1.49-.13.89-.07,1.2.11.58.48.86,1.11.86.48,0,.87-.19,1.19-.57.32-.38.54-.88.67-1.49Z"/>
      <path class="cls-7" d="M868.63,1.41h.88l-1.52,7.17h-.88l1.52-7.17Z"/>
      <path class="cls-7" d="M874.29,4.18c.12.26.17.57.16.92,0,.24-.05.62-.17,1.15h-3.83c-.1.53-.06.96.11,1.28.17.32.5.48.99.48.46,0,.86-.15,1.19-.45.2-.18.35-.38.46-.61h.86c-.06.19-.19.41-.36.64-.18.24-.36.43-.55.58-.32.26-.69.44-1.1.53-.22.05-.47.08-.74.08-.65,0-1.15-.24-1.5-.71s-.44-1.14-.25-1.99c.18-.84.55-1.52,1.12-2.05s1.22-.79,1.95-.79c.37,0,.71.09,1.03.26s.53.4.65.68ZM873.53,5.55c.05-.38.03-.69-.05-.91-.15-.42-.51-.63-1.07-.63-.4,0-.77.15-1.11.44-.33.29-.56.66-.67,1.11h2.91Z"/>
    </g>
    <g>
      <line class="cls-6" x1="762.4" y1="13.19" x2="950.1" y2="13.19"/>
      <polygon class="cls-7" points="763.13 15.68 758.81 13.19 763.13 10.69 763.13 15.68"/>
      <polygon class="cls-7" points="949.37 15.68 953.69 13.19 949.37 10.69 949.37 15.68"/>
    </g>
  </g>
  <g id="Layer_1-2" data-name="Layer 1">
    <g>
      <line class="cls-3" x1="551.78" y1="147.99" x2="551.78" y2="158.31"/>
      <polygon class="cls-1" points="549.29 157.59 551.78 161.9 554.27 157.59 549.29 157.59"/>
    </g>
    <g>
      <line class="cls-3" x1="577.54" y1="161.9" x2="577.54" y2="151.57"/>
      <polygon class="cls-1" points="580.03 152.3 577.54 147.99 575.05 152.3 580.03 152.3"/>
    </g>
    <g>
      <rect class="cls-4" x="10.35" y="110.15" width="70.67" height="37.83" rx="2" ry="2"/>
      <g>
        <path class="cls-1" d="M35.16,120.27l1.35,5.83,1.62-5.83h1.05l1.62,5.84,1.35-5.84h1.07l-1.88,7.17h-1.02l-1.66-5.95-1.67,5.95h-1.02l-1.88-7.17h1.05Z"/>
        <path class="cls-1" d="M46.44,124.28c.2-.03.34-.11.41-.25.04-.08.06-.19.06-.34,0-.3-.11-.52-.32-.65-.21-.14-.52-.2-.91-.2-.46,0-.78.12-.97.37-.11.14-.18.34-.21.61h-.82c.02-.65.23-1.1.63-1.35.4-.25.87-.38,1.4-.38.61,0,1.11.12,1.5.35.38.23.57.6.57,1.09v3.01c0,.09.02.17.06.22.04.06.12.08.24.08.04,0,.08,0,.13,0s.1-.01.16-.02v.65c-.14.04-.24.06-.31.07s-.17.01-.29.01c-.3,0-.52-.11-.66-.32-.07-.11-.12-.27-.15-.48-.18.23-.44.44-.77.61-.34.17-.7.26-1.11.26-.48,0-.88-.15-1.19-.44-.31-.29-.46-.66-.46-1.1,0-.48.15-.86.45-1.13s.7-.43,1.19-.49l1.4-.18ZM44.59,126.65c.19.15.41.22.66.22.31,0,.61-.07.9-.21.49-.24.73-.63.73-1.17v-.71c-.11.07-.25.12-.41.17s-.33.08-.5.1l-.53.07c-.32.04-.56.11-.72.2-.27.15-.41.4-.41.73,0,.25.09.45.28.6Z"/>
        <path class="cls-1" d="M49.22,122.21h.83v.9c.07-.18.24-.39.5-.64.27-.25.57-.38.92-.38.02,0,.04,0,.08,0,.04,0,.11,0,.2.02v.93c-.05,0-.1-.02-.14-.02-.04,0-.09,0-.14,0-.44,0-.78.14-1.02.43-.24.28-.36.61-.36.98v3.01h-.88v-5.23Z"/>
        <path class="cls-1" d="M52.46,122.24h.86v.69c.18-.24.37-.42.58-.55.3-.2.65-.29,1.05-.29.59,0,1.1.23,1.51.68.41.45.62,1.1.62,1.95,0,1.14-.3,1.95-.9,2.44-.38.31-.82.46-1.32.46-.4,0-.73-.09-1-.26-.16-.1-.33-.26-.52-.5v2.67h-.88v-7.29ZM55.76,126.34c.27-.34.41-.86.41-1.54,0-.42-.06-.77-.18-1.07-.23-.58-.65-.86-1.25-.86s-1.03.3-1.25.91c-.12.33-.18.74-.18,1.24,0,.4.06.75.18,1.03.23.54.65.81,1.25.81.41,0,.75-.17,1.03-.51Z"/>
        <path class="cls-1" d="M22.34,135.13c.02.41.11.74.28.99.31.48.86.71,1.64.71.35,0,.67-.05.96-.16.56-.2.84-.56.84-1.08,0-.39-.12-.67-.35-.83-.24-.16-.61-.3-1.13-.42l-.94-.22c-.61-.14-1.05-.3-1.31-.47-.44-.3-.66-.75-.66-1.34,0-.64.22-1.17.65-1.59.43-.41,1.05-.62,1.84-.62.73,0,1.35.18,1.86.54.51.36.77.94.77,1.74h-.91c-.05-.38-.15-.68-.3-.88-.28-.37-.77-.56-1.45-.56-.55,0-.94.12-1.18.36-.24.24-.36.52-.36.84,0,.35.14.61.43.77.19.1.61.23,1.26.39l.97.23c.47.11.83.26,1.09.45.44.34.66.82.66,1.46,0,.79-.28,1.36-.85,1.7s-1.22.51-1.96.51c-.87,0-1.55-.23-2.04-.68-.49-.45-.73-1.07-.72-1.84h.91Z"/>
        <path class="cls-1" d="M31.71,132.49c.37.29.59.78.67,1.48h-.85c-.05-.32-.17-.59-.36-.8-.19-.21-.48-.32-.89-.32-.56,0-.96.27-1.2.82-.16.35-.23.79-.23,1.31s.11.96.33,1.32.57.54,1.04.54c.36,0,.65-.11.87-.33.21-.22.36-.53.44-.91h.85c-.1.69-.34,1.2-.73,1.52-.39.32-.89.48-1.5.48-.68,0-1.23-.25-1.64-.75-.41-.5-.61-1.12-.61-1.87,0-.92.22-1.63.67-2.14.45-.51,1.01-.77,1.7-.77.59,0,1.07.14,1.44.43Z"/>
        <path class="cls-1" d="M33.26,130.24h.88v2.68c.21-.26.4-.45.56-.56.28-.19.64-.28,1.06-.28.76,0,1.27.27,1.54.8.15.29.22.69.22,1.21v3.35h-.9v-3.3c0-.38-.05-.67-.15-.84-.16-.29-.46-.43-.9-.43-.36,0-.69.13-.99.38-.3.25-.44.72-.44,1.42v2.77h-.88v-7.2Z"/>
        <path class="cls-1" d="M42.05,132.36c.35.17.61.4.79.68.17.26.29.57.35.92.05.24.08.62.08,1.15h-3.8c.02.53.14.96.37,1.28.23.32.59.48,1.08.48.46,0,.82-.15,1.09-.46.15-.18.26-.38.32-.61h.86c-.02.19-.1.41-.23.64-.13.24-.27.43-.43.58-.27.26-.59.44-.98.53-.21.05-.45.08-.71.08-.65,0-1.2-.24-1.65-.71s-.67-1.14-.67-1.99.23-1.52.68-2.05c.45-.52,1.04-.79,1.78-.79.37,0,.73.09,1.07.26ZM42.36,134.41c-.04-.38-.12-.68-.25-.91-.24-.42-.64-.63-1.2-.63-.4,0-.74.15-1.01.44-.27.29-.41.66-.43,1.11h2.88Z"/>
        <path class="cls-1" d="M47.25,132.37c.16.1.33.27.53.51v-2.64h.84v7.2h-.79v-.73c-.2.32-.45.56-.72.7-.28.14-.6.21-.96.21-.58,0-1.08-.25-1.51-.73-.42-.49-.64-1.14-.64-1.96,0-.76.19-1.42.58-1.98.39-.56.94-.84,1.66-.84.4,0,.73.08,1,.25ZM45.29,136.29c.24.38.62.57,1.14.57.4,0,.74-.17,1-.52.26-.35.39-.85.39-1.51s-.13-1.15-.4-1.47c-.27-.32-.6-.48-1-.48-.44,0-.8.17-1.07.51-.27.34-.41.84-.41,1.49,0,.56.12,1.03.35,1.41Z"/>
        <path class="cls-1" d="M50.82,132.21v3.47c0,.27.04.49.12.65.15.31.44.47.85.47.6,0,1-.27,1.22-.82.12-.29.18-.69.18-1.21v-2.57h.88v5.23h-.83v-.77c-.1.2-.24.37-.41.5-.33.27-.73.41-1.2.41-.73,0-1.23-.25-1.49-.75-.14-.27-.22-.62-.22-1.07v-3.55h.9Z"/>
        <path class="cls-1" d="M55.53,130.27h.88v7.17h-.88v-7.17Z"/>
        <path class="cls-1" d="M57.73,130.27h.89v1h-.89v-1ZM57.73,132.24h.89v5.21h-.89v-5.21Z"/>
        <path class="cls-1" d="M59.95,132.21h.83v.74c.25-.31.51-.53.79-.66.28-.13.58-.2.92-.2.74,0,1.24.26,1.5.78.14.28.21.69.21,1.22v3.35h-.89v-3.3c0-.32-.05-.58-.14-.77-.16-.33-.44-.49-.85-.49-.21,0-.38.02-.51.06-.24.07-.45.21-.63.43-.15.17-.24.35-.29.54-.04.18-.07.45-.07.79v2.74h-.88v-5.23Z"/>
        <path class="cls-1" d="M68.42,132.42c.17.11.33.28.51.5v-.66h.81v4.76c0,.66-.1,1.19-.29,1.57-.36.71-1.05,1.06-2.06,1.06-.56,0-1.03-.13-1.42-.38-.38-.25-.6-.65-.64-1.18h.89c.04.23.13.42.25.54.2.2.51.29.93.29.67,0,1.11-.24,1.32-.71.12-.28.18-.78.17-1.5-.18.27-.39.47-.63.6-.25.13-.57.2-.98.2-.56,0-1.06-.2-1.48-.6-.42-.4-.63-1.07-.63-2,0-.88.21-1.56.64-2.05.43-.49.94-.74,1.54-.74.41,0,.77.1,1.07.3ZM68.52,133.36c-.27-.31-.6-.47-1.02-.47-.62,0-1.04.29-1.26.87-.12.31-.18.71-.18,1.22,0,.59.12,1.04.36,1.35.24.31.56.46.96.46.63,0,1.07-.28,1.33-.85.14-.32.21-.7.21-1.13,0-.65-.13-1.13-.4-1.44Z"/>
      </g>
    </g>
    <g>
      <rect class="cls-4" x="100.72" y="110.15" width="59.67" height="37.83" rx="2" ry="2"/>
      <g>
        <path class="cls-1" d="M118.9,124.95h4.98v.88h-4v2.18h3.52v.85h-3.52v3.26h-.97v-7.17Z"/>
        <path class="cls-1" d="M128.03,127.04c.35.17.61.4.79.68.17.26.29.57.35.92.05.24.08.62.08,1.15h-3.8c.02.53.14.96.37,1.28s.59.48,1.08.48c.46,0,.82-.15,1.09-.46.15-.18.26-.38.32-.61h.86c-.02.19-.1.41-.23.64-.13.24-.27.43-.43.58-.27.26-.59.44-.98.53-.21.05-.45.08-.71.08-.65,0-1.2-.24-1.65-.71s-.67-1.14-.67-1.99.23-1.52.68-2.05c.45-.52,1.04-.79,1.78-.79.37,0,.73.09,1.07.26ZM128.34,129.09c-.04-.38-.12-.69-.25-.91-.24-.42-.64-.63-1.2-.63-.4,0-.74.15-1.01.44-.27.29-.41.66-.43,1.11h2.88Z"/>
        <path class="cls-1" d="M130.54,125.43h.89v1.46h.83v.72h-.83v3.41c0,.18.06.3.19.37.07.04.18.05.34.05.04,0,.09,0,.14,0,.05,0,.11,0,.17-.02v.7c-.1.03-.21.05-.31.06-.11.01-.23.02-.35.02-.41,0-.69-.11-.83-.32s-.22-.48-.22-.82v-3.46h-.71v-.72h.71v-1.46Z"/>
        <path class="cls-1" d="M136.59,127.17c.37.29.59.78.67,1.48h-.85c-.05-.32-.17-.59-.36-.8-.19-.21-.48-.32-.89-.32-.56,0-.96.27-1.2.82-.16.35-.23.79-.23,1.31s.11.96.33,1.32c.22.36.57.54,1.04.54.36,0,.65-.11.87-.33.21-.22.36-.53.44-.91h.85c-.1.69-.34,1.2-.73,1.52-.39.32-.89.48-1.5.48-.68,0-1.23-.25-1.64-.75-.41-.5-.61-1.12-.61-1.87,0-.92.22-1.63.67-2.14.45-.51,1.01-.77,1.7-.77.59,0,1.07.14,1.44.43Z"/>
        <path class="cls-1" d="M138.14,124.92h.88v2.68c.21-.26.4-.45.56-.56.28-.19.64-.28,1.06-.28.76,0,1.27.26,1.54.8.15.29.22.69.22,1.21v3.35h-.9v-3.3c0-.38-.05-.67-.15-.84-.16-.29-.46-.43-.9-.43-.36,0-.69.12-.99.38-.3.25-.44.72-.44,1.42v2.77h-.88v-7.2Z"/>
      </g>
    </g>
    <g>
      <rect class="cls-4" x="700.57" y="110.15" width="49.71" height="37.83" rx="2" ry="2"/>
      <g>
        <path class="cls-1" d="M706.77,120.38h2.87c.97,0,1.73.35,2.26,1.05.48.63.72,1.44.72,2.43,0,.76-.14,1.45-.42,2.07-.5,1.09-1.35,1.63-2.57,1.63h-2.86v-7.17ZM709.45,126.72c.32,0,.59-.03.79-.1.37-.13.67-.37.91-.73.19-.29.32-.66.41-1.11.05-.27.07-.52.07-.75,0-.89-.17-1.58-.52-2.07-.35-.49-.9-.74-1.67-.74h-1.69v5.51h1.69Z"/>
        <path class="cls-1" d="M713.83,120.38h.89v1h-.89v-1ZM713.83,122.35h.89v5.21h-.89v-5.21Z"/>
        <path class="cls-1" d="M716.58,125.91c.03.29.1.52.22.67.23.28.62.42,1.18.42.33,0,.62-.07.88-.21s.38-.36.38-.66c0-.22-.1-.4-.3-.51-.13-.07-.38-.15-.76-.25l-.71-.18c-.45-.11-.79-.23-1-.37-.38-.24-.58-.57-.58-.99,0-.49.18-.89.54-1.2.36-.31.85-.46,1.46-.46.8,0,1.37.23,1.73.69.22.29.33.61.32.95h-.83c-.02-.2-.09-.38-.21-.54-.21-.23-.56-.34-1.07-.34-.34,0-.6.06-.77.19-.17.13-.26.29-.26.5,0,.23.11.41.34.54.13.08.33.15.59.21l.59.14c.64.15,1.07.3,1.29.44.34.22.51.58.51,1.06s-.18.87-.54,1.21c-.36.34-.9.51-1.63.51-.79,0-1.35-.18-1.67-.53-.33-.35-.5-.79-.53-1.31h.84Z"/>
        <path class="cls-1" d="M720.98,122.35h.86v.69c.18-.24.37-.42.58-.55.3-.2.65-.29,1.05-.29.59,0,1.1.23,1.51.68.41.45.62,1.1.62,1.95,0,1.14-.3,1.95-.9,2.44-.38.31-.82.46-1.32.46-.4,0-.73-.09-1-.26-.16-.1-.33-.26-.52-.5v2.67h-.88v-7.29ZM724.29,126.45c.27-.34.41-.86.41-1.54,0-.42-.06-.77-.18-1.07-.23-.58-.65-.86-1.25-.86s-1.03.3-1.25.91c-.12.33-.18.74-.18,1.24,0,.4.06.75.18,1.03.23.54.65.81,1.25.81.41,0,.75-.17,1.03-.51Z"/>
        <path class="cls-1" d="M729.42,124.39c.2-.03.34-.11.41-.25.04-.08.06-.19.06-.34,0-.3-.11-.52-.32-.65-.21-.14-.52-.2-.91-.2-.46,0-.78.12-.97.37-.11.14-.18.34-.21.61h-.82c.02-.65.23-1.1.63-1.35.4-.25.87-.38,1.4-.38.61,0,1.11.12,1.5.35.38.23.57.6.57,1.09v3.01c0,.09.02.17.06.22.04.06.12.08.24.08.04,0,.08,0,.13,0s.1-.01.16-.02v.65c-.14.04-.24.06-.31.07s-.17.01-.29.01c-.3,0-.52-.11-.66-.32-.07-.11-.12-.27-.15-.48-.18.23-.44.44-.77.61-.34.17-.7.26-1.11.26-.48,0-.88-.15-1.19-.44-.31-.29-.46-.66-.46-1.1,0-.48.15-.86.45-1.13s.7-.43,1.19-.49l1.4-.18ZM727.57,126.76c.19.15.41.22.66.22.31,0,.61-.07.9-.21.49-.24.73-.63.73-1.17v-.71c-.11.07-.25.12-.41.17s-.33.08-.5.1l-.53.07c-.32.04-.56.11-.72.2-.27.15-.41.4-.41.73,0,.25.09.45.28.6Z"/>
        <path class="cls-1" d="M732.35,120.86h.89v1.46h.83v.72h-.83v3.41c0,.18.06.3.19.37.07.04.18.05.34.05.04,0,.09,0,.14,0s.11,0,.17-.02v.7c-.1.03-.21.05-.31.06-.11.01-.23.02-.35.02-.41,0-.69-.1-.83-.31s-.22-.48-.22-.82v-3.46h-.71v-.72h.71v-1.46Z"/>
        <path class="cls-1" d="M738.41,122.6c.37.29.59.78.67,1.48h-.85c-.05-.32-.17-.59-.36-.8-.19-.21-.48-.32-.89-.32-.56,0-.96.27-1.2.82-.16.35-.23.79-.23,1.31s.11.96.33,1.32.57.54,1.04.54c.36,0,.65-.11.87-.33.21-.22.36-.53.44-.91h.85c-.1.69-.34,1.2-.73,1.52-.39.32-.89.48-1.5.48-.68,0-1.23-.25-1.64-.75-.41-.5-.61-1.12-.61-1.87,0-.92.22-1.63.67-2.14.45-.51,1.01-.77,1.7-.77.59,0,1.07.14,1.44.43Z"/>
        <path class="cls-1" d="M739.96,120.35h.88v2.68c.21-.26.4-.45.56-.56.28-.19.64-.28,1.06-.28.76,0,1.27.27,1.54.8.15.29.22.69.22,1.21v3.35h-.9v-3.3c0-.38-.05-.67-.15-.84-.16-.29-.46-.43-.9-.43-.36,0-.69.13-.99.38-.3.25-.44.72-.44,1.42v2.77h-.88v-7.2Z"/>
        <path class="cls-1" d="M711.25,135.24c.02.41.11.74.28.99.31.48.86.71,1.64.71.35,0,.67-.05.96-.16.56-.2.84-.56.84-1.08,0-.39-.12-.67-.35-.83-.24-.16-.61-.3-1.13-.42l-.94-.22c-.61-.14-1.05-.3-1.31-.47-.44-.3-.66-.75-.66-1.34,0-.64.22-1.17.65-1.59.43-.41,1.05-.62,1.84-.62.73,0,1.35.18,1.86.54.51.36.77.94.77,1.74h-.91c-.05-.38-.15-.68-.3-.88-.28-.37-.77-.56-1.45-.56-.55,0-.94.12-1.18.36-.24.24-.36.52-.36.84,0,.35.14.61.43.77.19.1.61.23,1.26.39l.97.23c.47.11.83.26,1.09.45.44.34.66.82.66,1.46,0,.79-.28,1.36-.85,1.7s-1.22.51-1.96.51c-.87,0-1.55-.23-2.04-.68-.49-.45-.73-1.07-.72-1.84h.91Z"/>
        <path class="cls-1" d="M720.62,132.6c.37.29.59.78.67,1.48h-.85c-.05-.32-.17-.59-.36-.8-.19-.21-.48-.32-.89-.32-.56,0-.96.27-1.2.82-.16.35-.23.79-.23,1.31s.11.96.33,1.32.57.54,1.04.54c.36,0,.65-.11.87-.33.21-.22.36-.53.44-.91h.85c-.1.69-.34,1.2-.73,1.52-.39.32-.89.48-1.5.48-.68,0-1.23-.25-1.64-.75-.41-.5-.61-1.12-.61-1.87,0-.92.22-1.63.67-2.14.45-.51,1.01-.77,1.7-.77.59,0,1.07.14,1.44.43Z"/>
        <path class="cls-1" d="M722.17,130.35h.88v2.68c.21-.26.4-.45.56-.56.28-.19.64-.28,1.06-.28.76,0,1.27.27,1.54.8.15.29.22.69.22,1.21v3.35h-.9v-3.3c0-.38-.05-.67-.15-.84-.16-.29-.46-.43-.9-.43-.36,0-.69.13-.99.38-.3.25-.44.72-.44,1.42v2.77h-.88v-7.2Z"/>
        <path class="cls-1" d="M730.96,132.47c.35.17.61.4.79.68.17.26.29.57.35.92.05.24.08.62.08,1.15h-3.8c.02.53.14.96.37,1.28.23.32.59.48,1.08.48.46,0,.82-.15,1.09-.46.15-.18.26-.38.32-.61h.86c-.02.19-.1.41-.23.64-.13.24-.27.43-.43.58-.27.26-.59.44-.98.53-.21.05-.45.08-.71.08-.65,0-1.2-.24-1.65-.71s-.67-1.14-.67-1.99.23-1.52.68-2.05c.45-.52,1.04-.79,1.78-.79.37,0,.73.09,1.07.26ZM731.27,134.52c-.04-.38-.12-.68-.25-.91-.24-.42-.64-.63-1.2-.63-.4,0-.74.15-1.01.44-.27.29-.41.66-.43,1.11h2.88Z"/>
        <path class="cls-1" d="M736.16,132.48c.16.1.33.27.53.51v-2.64h.84v7.2h-.79v-.73c-.2.32-.45.56-.72.7-.28.14-.6.21-.96.21-.58,0-1.08-.25-1.51-.73-.42-.49-.64-1.14-.64-1.96,0-.76.19-1.42.58-1.98.39-.56.94-.84,1.66-.84.4,0,.73.08,1,.25ZM734.2,136.4c.24.38.62.57,1.14.57.4,0,.74-.17,1-.52.26-.35.39-.85.39-1.51s-.13-1.15-.4-1.47c-.27-.32-.6-.48-1-.48-.44,0-.8.17-1.07.51-.27.34-.41.84-.41,1.49,0,.56.12,1.03.35,1.41Z"/>
        <path class="cls-1" d="M739.06,136.49h1.02v1.06h-1.02v-1.06Z"/>
      </g>
    </g>
    <g>
      <rect class="cls-4" x="962.32" y="110.15" width="60.61" height="37.83" rx="2" ry="2"/>
      <g>
        <path class="cls-1" d="M971.73,124.95l1.35,5.83,1.62-5.83h1.05l1.62,5.84,1.35-5.84h1.07l-1.88,7.17h-1.02l-1.66-5.95-1.67,5.95h-1.02l-1.88-7.17h1.05Z"/>
        <path class="cls-1" d="M980.42,126.89h.83v.9c.07-.18.24-.39.5-.64.27-.25.58-.38.92-.38.02,0,.04,0,.08,0,.04,0,.11,0,.2.02v.93c-.05,0-.1-.02-.14-.02-.04,0-.09,0-.14,0-.44,0-.78.14-1.02.43-.24.29-.36.61-.36.98v3.01h-.88v-5.23Z"/>
        <path class="cls-1" d="M983.73,124.95h.89v1h-.89v-1ZM983.73,126.92h.89v5.21h-.89v-5.21Z"/>
        <path class="cls-1" d="M986.12,125.43h.89v1.46h.83v.72h-.83v3.41c0,.18.06.3.19.37.07.04.18.05.34.05.04,0,.09,0,.14,0,.05,0,.11,0,.17-.02v.7c-.1.03-.21.05-.31.06-.11.01-.23.02-.35.02-.41,0-.69-.11-.83-.32s-.22-.48-.22-.82v-3.46h-.71v-.72h.71v-1.46Z"/>
        <path class="cls-1" d="M991.96,127.04c.35.17.61.4.79.68.17.26.29.57.35.92.05.24.08.62.08,1.15h-3.8c.02.53.14.96.37,1.28s.59.48,1.08.48c.46,0,.82-.15,1.09-.46.15-.18.26-.38.32-.61h.86c-.02.19-.1.41-.23.64-.13.24-.27.43-.43.58-.26.26-.59.44-.98.53-.21.05-.45.08-.71.08-.65,0-1.2-.24-1.64-.71-.45-.47-.67-1.14-.67-1.99s.23-1.52.68-2.05c.45-.52,1.04-.79,1.78-.79.37,0,.73.09,1.07.26ZM992.27,129.09c-.04-.38-.12-.69-.25-.91-.24-.42-.64-.63-1.2-.63-.4,0-.74.15-1.01.44-.27.29-.41.66-.43,1.11h2.88Z"/>
        <path class="cls-1" d="M994.21,124.92h.85v2.6c.19-.25.42-.44.69-.57s.56-.2.87-.2c.65,0,1.18.22,1.59.67.41.45.61,1.11.61,1.98,0,.83-.2,1.51-.6,2.06-.4.55-.96.82-1.67.82-.4,0-.74-.1-1.01-.29-.16-.11-.34-.3-.52-.55v.67h-.81v-7.2ZM997.57,130.94c.24-.38.36-.88.36-1.49,0-.55-.12-1.01-.36-1.37-.24-.36-.58-.54-1.05-.54-.4,0-.75.15-1.06.44-.3.3-.45.78-.45,1.46,0,.49.06.89.19,1.2.23.58.66.86,1.3.86.48,0,.83-.19,1.07-.57Z"/>
        <path class="cls-1" d="M1002.65,128.96c.2-.03.34-.11.41-.25.04-.08.06-.19.06-.34,0-.3-.11-.52-.32-.65s-.52-.2-.91-.2c-.46,0-.78.12-.97.37-.11.14-.18.34-.21.61h-.82c.02-.65.23-1.1.63-1.35s.87-.38,1.4-.38c.61,0,1.11.12,1.5.35.38.23.57.6.57,1.09v3.01c0,.09.02.16.06.22.04.05.12.08.24.08.04,0,.08,0,.13,0s.1-.01.16-.02v.65c-.14.04-.24.06-.31.07-.07,0-.17.01-.29.01-.3,0-.52-.11-.66-.32-.07-.11-.12-.28-.15-.48-.18.23-.44.44-.77.61-.33.17-.7.26-1.11.26-.48,0-.88-.15-1.19-.44s-.46-.66-.46-1.1c0-.48.15-.86.45-1.13s.7-.43,1.19-.49l1.4-.18ZM1000.8,131.33c.19.15.41.22.66.22.31,0,.61-.07.9-.21.49-.24.73-.62.73-1.17v-.71c-.11.07-.25.13-.41.17s-.33.08-.5.1l-.53.07c-.32.04-.56.11-.72.2-.27.15-.41.4-.41.73,0,.25.09.45.28.6Z"/>
        <path class="cls-1" d="M1008.87,127.17c.37.29.59.78.67,1.48h-.85c-.05-.32-.17-.59-.36-.8-.19-.21-.48-.32-.89-.32-.56,0-.96.27-1.2.82-.16.35-.23.79-.23,1.31s.11.96.33,1.32c.22.36.57.54,1.04.54.37,0,.65-.11.87-.33.21-.22.36-.53.44-.91h.85c-.1.69-.34,1.2-.73,1.52-.39.32-.89.48-1.5.48-.68,0-1.23-.25-1.64-.75-.41-.5-.61-1.12-.61-1.87,0-.92.22-1.63.67-2.14.45-.51,1.01-.77,1.7-.77.59,0,1.07.14,1.44.43Z"/>
        <path class="cls-1" d="M1010.39,124.95h.84v4.16l2.25-2.22h1.12l-2.01,1.94,2.12,3.29h-1.12l-1.65-2.66-.72.7v1.96h-.84v-7.17Z"/>
      </g>
    </g>
    <g>
      <rect class="cls-4" x="798.39" y="72.69" width="116.08" height="23.94" rx="2" ry="2"/>
      <g>
        <path class="cls-1" d="M849.35,80.54h.98v7.17h-.98v-7.17Z"/>
        <path class="cls-1" d="M851.91,80.54h1.14l3.58,5.8v-5.8h.93v7.17h-1.09l-3.63-5.79v5.79h-.93v-7.17Z"/>
        <path class="cls-1" d="M864.35,80.54v.85h-2.42v6.32h-.98v-6.32h-2.42v-.85h5.82Z"/>
      </g>
    </g>
    <g>
      <rect class="cls-4" x="798.39" y="105.7" width="116.08" height="23.94" rx="2" ry="2"/>
      <g>
        <path class="cls-1" d="M847.28,113.55h4.98v.88h-4v2.18h3.52v.85h-3.52v3.26h-.97v-7.17Z"/>
        <path class="cls-1" d="M853.39,113.55h3.21c.63,0,1.15.18,1.54.54.39.36.59.87.59,1.52,0,.56-.17,1.05-.52,1.46-.35.42-.88.62-1.6.62h-2.24v3.03h-.97v-7.17ZM857.16,114.53c-.21-.1-.51-.15-.88-.15h-1.92v2.49h1.92c.43,0,.78-.09,1.05-.28.27-.19.41-.51.41-.98,0-.53-.19-.88-.58-1.07Z"/>
        <path class="cls-1" d="M861.02,113.55v4.43c0,.52.1.95.29,1.3.29.52.78.78,1.48.78.83,0,1.39-.28,1.69-.84.16-.31.24-.72.24-1.24v-4.43h.98v4.03c0,.88-.12,1.56-.36,2.04-.44.87-1.26,1.3-2.48,1.3s-2.04-.43-2.47-1.3c-.24-.47-.36-1.15-.36-2.04v-4.03h.98Z"/>
      </g>
    </g>
    <g>
      <rect class="cls-4" x="798.39" y="138.71" width="116.08" height="23.94" rx="2" ry="2"/>
      <g>
        <path class="cls-1" d="M847.46,146.56h.97v6.32h3.6v.85h-4.57v-7.17Z"/>
        <path class="cls-1" d="M853.66,151.41c.02.41.11.74.28.99.31.48.86.71,1.64.71.35,0,.67-.05.96-.16.56-.2.84-.56.84-1.08,0-.39-.12-.67-.36-.83-.24-.16-.61-.3-1.12-.42l-.94-.22c-.62-.14-1.05-.3-1.31-.47-.44-.3-.66-.75-.66-1.34,0-.64.22-1.17.65-1.59.43-.41,1.05-.62,1.84-.62.73,0,1.35.18,1.87.54.51.36.77.94.77,1.74h-.91c-.05-.38-.15-.68-.3-.88-.28-.37-.77-.56-1.45-.56-.55,0-.94.12-1.18.36-.24.24-.36.52-.36.84,0,.35.14.61.43.77.19.1.61.23,1.26.39l.97.23c.47.11.83.26,1.09.45.44.34.66.82.66,1.46,0,.79-.28,1.36-.85,1.7s-1.22.51-1.96.51c-.87,0-1.55-.23-2.04-.68-.49-.45-.73-1.07-.72-1.84h.91Z"/>
        <path class="cls-1" d="M860.74,146.56v4.43c0,.52.1.95.29,1.3.29.52.78.78,1.48.78.83,0,1.39-.28,1.69-.84.16-.31.24-.72.24-1.24v-4.43h.98v4.03c0,.88-.12,1.56-.36,2.04-.44.87-1.26,1.3-2.48,1.3s-2.04-.43-2.47-1.3c-.24-.47-.36-1.15-.36-2.04v-4.03h.98Z"/>
      </g>
    </g>
    <g>
      <rect class="cls-4" x="798.39" y="171.72" width="116.08" height="23.94" rx="2" ry="2"/>
      <g>
        <path class="cls-1" d="M847.82,184.42c.02.41.11.74.28.99.31.47.86.71,1.64.71.35,0,.67-.05.96-.16.56-.2.84-.56.84-1.08,0-.39-.12-.67-.36-.83-.24-.16-.61-.3-1.12-.42l-.94-.22c-.62-.14-1.05-.3-1.31-.47-.44-.3-.66-.75-.66-1.34,0-.64.22-1.17.65-1.59.43-.41,1.05-.62,1.84-.62.73,0,1.35.18,1.87.54.51.36.77.94.77,1.74h-.91c-.05-.38-.15-.68-.3-.88-.28-.38-.77-.56-1.45-.56-.55,0-.94.12-1.18.36-.24.24-.36.52-.36.84,0,.35.14.61.43.77.19.1.61.23,1.26.39l.97.23c.47.11.83.26,1.09.45.44.33.66.82.66,1.46,0,.79-.28,1.36-.85,1.7s-1.22.51-1.96.51c-.87,0-1.55-.23-2.04-.68-.49-.45-.73-1.07-.72-1.84h.91Z"/>
        <path class="cls-1" d="M853.95,179.56h4.98v.88h-4v2.18h3.52v.85h-3.52v3.26h-.97v-7.17Z"/>
        <path class="cls-1" d="M861.02,179.56v4.43c0,.52.1.95.29,1.3.29.52.78.78,1.48.78.83,0,1.39-.28,1.69-.84.16-.31.24-.72.24-1.24v-4.43h.98v4.03c0,.88-.12,1.56-.36,2.04-.44.87-1.26,1.3-2.48,1.3s-2.04-.43-2.47-1.3c-.24-.48-.36-1.15-.36-2.04v-4.03h.98Z"/>
      </g>
    </g>
    <g>
      <rect class="cls-4" x="798.13" y="204.72" width="116.34" height="23.94" rx="2" ry="2"/>
      <g>
        <path class="cls-1" d="M838.13,212.57l1.35,5.83,1.62-5.83h1.05l1.62,5.84,1.35-5.84h1.07l-1.88,7.17h-1.02l-1.66-5.95-1.67,5.95h-1.02l-1.88-7.17h1.05Z"/>
        <path class="cls-1" d="M849.41,216.58c.2-.03.34-.11.41-.25.04-.08.06-.19.06-.34,0-.3-.11-.52-.32-.65-.21-.14-.52-.2-.91-.2-.46,0-.78.12-.97.37-.11.14-.18.34-.21.61h-.82c.02-.65.22-1.1.63-1.35.4-.25.87-.38,1.4-.38.61,0,1.11.12,1.5.35.38.23.57.6.57,1.09v3.01c0,.09.02.17.06.22.04.06.12.08.24.08.04,0,.08,0,.13,0s.1-.01.16-.02v.65c-.14.04-.24.06-.31.07-.07,0-.17.01-.29.01-.3,0-.52-.11-.66-.32-.07-.11-.12-.27-.15-.48-.18.23-.44.44-.77.61-.34.17-.71.26-1.11.26-.49,0-.88-.15-1.19-.44-.31-.29-.46-.66-.46-1.1,0-.48.15-.86.45-1.13s.7-.43,1.19-.49l1.4-.18ZM847.56,218.95c.19.15.41.22.66.22.31,0,.61-.07.9-.21.49-.24.73-.63.73-1.17v-.71c-.11.07-.25.12-.41.17s-.33.08-.5.1l-.53.07c-.32.04-.56.11-.72.2-.27.15-.41.4-.41.73,0,.25.09.45.28.6Z"/>
        <path class="cls-1" d="M852.19,214.52h.83v.9c.07-.18.24-.39.5-.64.27-.25.57-.38.92-.38.02,0,.04,0,.08,0,.04,0,.11,0,.2.02v.93c-.05,0-.1-.02-.14-.02-.04,0-.09,0-.14,0-.44,0-.78.14-1.02.43-.24.28-.36.61-.36.98v3.01h-.88v-5.23Z"/>
        <path class="cls-1" d="M855.42,214.54h.86v.69c.18-.24.37-.42.58-.55.3-.2.65-.29,1.05-.29.59,0,1.1.23,1.51.68s.62,1.1.62,1.95c0,1.14-.3,1.95-.9,2.44-.38.31-.82.46-1.32.46-.4,0-.73-.09-1-.26-.16-.1-.33-.26-.52-.5v2.67h-.88v-7.29ZM858.73,218.64c.27-.34.41-.86.41-1.54,0-.42-.06-.77-.18-1.07-.23-.58-.65-.86-1.25-.86s-1.03.3-1.25.91c-.12.33-.18.74-.18,1.24,0,.4.06.75.18,1.03.23.54.65.81,1.25.81.41,0,.75-.17,1.03-.51Z"/>
        <path class="cls-1" d="M866.25,213.09c.5.48.77,1.02.83,1.63h-.95c-.11-.46-.32-.83-.63-1.1-.31-.27-.76-.41-1.33-.41-.69,0-1.25.25-1.68.75-.43.5-.64,1.26-.64,2.29,0,.84.19,1.52.58,2.04.38.52.96.78,1.72.78.7,0,1.24-.27,1.61-.83.19-.29.34-.67.44-1.14h.95c-.08.76-.36,1.39-.83,1.9-.56.62-1.32.92-2.28.92-.82,0-1.52-.25-2.08-.76-.74-.67-1.11-1.7-1.11-3.09,0-1.06.28-1.93.83-2.6.6-.74,1.42-1.1,2.48-1.1.9,0,1.59.24,2.09.72Z"/>
        <path class="cls-1" d="M868.46,213.06h.89v1.46h.83v.72h-.83v3.41c0,.18.06.3.19.37.07.04.18.05.34.05.04,0,.09,0,.14,0s.11,0,.17-.02v.7c-.1.03-.21.05-.32.06-.11.01-.23.02-.35.02-.41,0-.69-.1-.83-.31s-.22-.48-.22-.82v-3.46h-.71v-.72h.71v-1.46Z"/>
        <path class="cls-1" d="M871.08,214.52h.83v.9c.07-.18.24-.39.5-.64.27-.25.57-.38.92-.38.02,0,.04,0,.08,0,.04,0,.11,0,.2.02v.93c-.05,0-.1-.02-.14-.02-.04,0-.09,0-.14,0-.44,0-.78.14-1.02.43-.24.28-.36.61-.36.98v3.01h-.88v-5.23Z"/>
        <path class="cls-1" d="M874.41,212.57h.88v7.17h-.88v-7.17Z"/>
      </g>
    </g>
    <g>
      <rect class="cls-4" x="179.64" y="110.15" width="49.71" height="37.83" rx="2" ry="2"/>
      <g>
        <path class="cls-1" d="M188.07,124.95h2.87c.97,0,1.73.35,2.26,1.05.48.63.72,1.44.72,2.43,0,.76-.14,1.45-.42,2.07-.5,1.09-1.35,1.63-2.57,1.63h-2.86v-7.17ZM190.74,131.29c.32,0,.59-.03.79-.1.37-.13.67-.37.91-.73.19-.29.32-.66.41-1.11.05-.27.07-.52.07-.75,0-.89-.17-1.58-.52-2.07-.35-.49-.9-.74-1.67-.74h-1.69v5.51h1.69Z"/>
        <path class="cls-1" d="M198.36,127.04c.35.17.61.4.79.68.17.26.29.57.35.92.05.24.08.62.08,1.15h-3.8c.02.53.14.96.37,1.28s.59.48,1.08.48c.46,0,.82-.15,1.09-.46.15-.18.26-.38.32-.61h.86c-.02.19-.1.41-.23.64-.13.24-.27.43-.43.58-.27.26-.59.44-.98.53-.21.05-.45.08-.71.08-.65,0-1.2-.24-1.65-.71s-.67-1.14-.67-1.99.23-1.52.68-2.05c.45-.52,1.04-.79,1.78-.79.37,0,.73.09,1.07.26ZM198.67,129.09c-.04-.38-.12-.69-.25-.91-.24-.42-.64-.63-1.2-.63-.4,0-.74.15-1.01.44-.27.29-.41.66-.43,1.11h2.88Z"/>
        <path class="cls-1" d="M204.14,127.17c.37.29.59.78.67,1.48h-.85c-.05-.32-.17-.59-.36-.8-.19-.21-.48-.32-.89-.32-.56,0-.96.27-1.2.82-.16.35-.23.79-.23,1.31s.11.96.33,1.32c.22.36.57.54,1.04.54.36,0,.65-.11.87-.33.21-.22.36-.53.44-.91h.85c-.1.69-.34,1.2-.73,1.52-.39.32-.89.48-1.5.48-.68,0-1.23-.25-1.64-.75-.41-.5-.61-1.12-.61-1.87,0-.92.22-1.63.67-2.14.45-.51,1.01-.77,1.7-.77.59,0,1.07.14,1.44.43Z"/>
        <path class="cls-1" d="M209.48,127.41c.46.45.69,1.11.69,1.98s-.2,1.54-.61,2.09c-.41.55-1.04.82-1.9.82-.71,0-1.28-.24-1.7-.73-.42-.49-.63-1.14-.63-1.96,0-.88.22-1.58.66-2.1s1.04-.78,1.78-.78c.67,0,1.23.22,1.7.67ZM208.93,130.89c.21-.44.32-.93.32-1.47,0-.49-.08-.88-.23-1.19-.24-.48-.67-.72-1.26-.72-.53,0-.92.21-1.16.61-.24.41-.36.9-.36,1.48s.12,1.02.36,1.39c.24.37.62.56,1.15.56.58,0,.97-.22,1.19-.66Z"/>
        <path class="cls-1" d="M214.12,127.05c.16.1.33.27.53.51v-2.64h.84v7.2h-.79v-.73c-.2.32-.45.55-.72.7-.28.14-.6.21-.96.21-.58,0-1.08-.25-1.51-.74-.42-.49-.64-1.14-.64-1.96,0-.76.19-1.42.58-1.98.39-.56.94-.84,1.66-.84.4,0,.73.08,1,.25ZM212.16,130.97c.24.38.62.57,1.14.57.4,0,.74-.17,1-.53.26-.35.39-.85.39-1.51s-.13-1.15-.4-1.47c-.27-.32-.6-.48-1-.48-.44,0-.8.17-1.07.51-.27.34-.41.84-.41,1.49,0,.56.12,1.03.35,1.41Z"/>
        <path class="cls-1" d="M220.04,127.04c.35.17.61.4.79.68.17.26.29.57.35.92.05.24.08.62.08,1.15h-3.8c.02.53.14.96.37,1.28s.59.48,1.08.48c.46,0,.82-.15,1.09-.46.15-.18.26-.38.32-.61h.86c-.02.19-.1.41-.23.64-.13.24-.27.43-.43.58-.27.26-.59.44-.98.53-.21.05-.45.08-.71.08-.65,0-1.2-.24-1.65-.71s-.67-1.14-.67-1.99.23-1.52.68-2.05c.45-.52,1.04-.79,1.78-.79.37,0,.73.09,1.07.26ZM220.36,129.09c-.04-.38-.12-.69-.25-.91-.24-.42-.64-.63-1.2-.63-.4,0-.74.15-1.01.44-.27.29-.41.66-.43,1.11h2.88Z"/>
      </g>
    </g>
    <g>
      <rect class="cls-4" x="320.99" y="110.15" width="49.71" height="37.83" rx="2" ry="2"/>
      <g>
        <path class="cls-1" d="M332.18,124.95h.98v7.17h-.98v-7.17Z"/>
        <path class="cls-1" d="M334.72,124.95h3.1c.85,0,1.45.25,1.8.75.21.3.31.64.31,1.03,0,.45-.13.82-.39,1.11-.13.15-.33.29-.58.42.37.14.64.3.83.47.32.31.48.74.48,1.29,0,.46-.15.88-.44,1.25-.44.56-1.13.84-2.08.84h-3.05v-7.17ZM337.45,127.98c.41,0,.74-.06.97-.17.36-.18.54-.5.54-.97s-.19-.79-.58-.95c-.22-.09-.54-.14-.97-.14h-1.75v2.22h1.79ZM337.78,131.29c.6,0,1.03-.17,1.29-.52.16-.22.24-.48.24-.79,0-.52-.23-.88-.71-1.06-.25-.1-.58-.15-.99-.15h-1.95v2.52h2.11Z"/>
        <path class="cls-1" d="M342.17,126.89v3.47c0,.27.04.48.12.65.15.31.44.47.85.47.6,0,1-.27,1.22-.82.12-.29.18-.7.18-1.21v-2.57h.88v5.23h-.83v-.77c-.1.2-.24.37-.41.5-.33.27-.73.41-1.2.41-.73,0-1.23-.25-1.49-.75-.14-.27-.22-.62-.22-1.07v-3.55h.9Z"/>
        <path class="cls-1" d="M347.26,125.3c.21-.3.6-.45,1.19-.45.06,0,.11,0,.17,0,.06,0,.13,0,.2.01v.8c-.09,0-.16-.01-.2-.01-.04,0-.08,0-.12,0-.27,0-.43.07-.48.21-.05.14-.08.49-.08,1.06h.88v.69h-.88v4.51h-.87v-4.51h-.73v-.69h.73v-.82c.01-.37.08-.63.19-.8Z"/>
        <path class="cls-1" d="M349.87,125.3c.21-.3.6-.45,1.19-.45.06,0,.11,0,.17,0,.06,0,.13,0,.2.01v.8c-.09,0-.16-.01-.2-.01-.04,0-.08,0-.12,0-.27,0-.43.07-.48.21-.05.14-.08.49-.08,1.06h.88v.69h-.88v4.51h-.87v-4.51h-.73v-.69h.73v-.82c.01-.37.08-.63.19-.8Z"/>
        <path class="cls-1" d="M355.46,127.04c.35.17.61.4.79.68.17.26.29.57.35.92.05.24.08.62.08,1.15h-3.8c.02.53.14.96.37,1.28s.59.48,1.08.48c.46,0,.82-.15,1.09-.46.15-.18.26-.38.32-.61h.86c-.02.19-.1.41-.23.64-.13.24-.27.43-.43.58-.27.26-.59.44-.98.53-.21.05-.45.08-.71.08-.65,0-1.2-.24-1.65-.71s-.67-1.14-.67-1.99.23-1.52.68-2.05c.45-.52,1.04-.79,1.78-.79.37,0,.73.09,1.07.26ZM355.78,129.09c-.04-.38-.12-.69-.25-.91-.24-.42-.64-.63-1.2-.63-.4,0-.74.15-1.01.44-.27.29-.41.66-.43,1.11h2.88Z"/>
        <path class="cls-1" d="M357.82,126.89h.83v.9c.07-.18.24-.39.5-.64.27-.25.57-.38.92-.38.02,0,.04,0,.08,0,.04,0,.11,0,.2.02v.93c-.05,0-.1-.02-.14-.02-.04,0-.09,0-.14,0-.44,0-.78.14-1.02.43-.24.29-.36.61-.36.98v3.01h-.88v-5.23Z"/>
      </g>
    </g>
    <g>
      <rect class="cls-4" x="389.95" y="110.15" width="65.41" height="37.83" rx="2" ry="2"/>
      <g>
        <path class="cls-1" d="M398.2,129.81c.02.41.11.74.28.99.31.47.86.71,1.64.71.35,0,.67-.05.96-.16.56-.2.84-.56.84-1.08,0-.39-.12-.67-.35-.83-.24-.16-.61-.3-1.13-.42l-.94-.22c-.61-.14-1.05-.3-1.31-.47-.44-.3-.66-.75-.66-1.34,0-.64.22-1.17.65-1.59.43-.41,1.05-.62,1.84-.62.73,0,1.35.18,1.86.54.51.36.77.94.77,1.74h-.91c-.05-.38-.15-.68-.3-.88-.28-.38-.77-.56-1.45-.56-.55,0-.94.12-1.18.36-.24.24-.36.52-.36.84,0,.35.14.61.43.77.19.1.61.23,1.26.39l.97.23c.47.11.83.26,1.09.45.44.33.66.82.66,1.46,0,.79-.28,1.36-.85,1.7s-1.22.51-1.96.51c-.87,0-1.55-.23-2.04-.68-.49-.45-.73-1.07-.72-1.84h.91Z"/>
        <path class="cls-1" d="M407.57,127.17c.37.29.59.78.67,1.48h-.85c-.05-.32-.17-.59-.36-.8-.19-.21-.48-.32-.89-.32-.56,0-.96.27-1.2.82-.16.35-.23.79-.23,1.31s.11.96.33,1.32c.22.36.57.54,1.04.54.36,0,.65-.11.87-.33.21-.22.36-.53.44-.91h.85c-.1.69-.34,1.2-.73,1.52-.39.32-.89.48-1.5.48-.68,0-1.23-.25-1.64-.75-.41-.5-.61-1.12-.61-1.87,0-.92.22-1.63.67-2.14.45-.51,1.01-.77,1.7-.77.59,0,1.07.14,1.44.43Z"/>
        <path class="cls-1" d="M412.91,127.41c.46.45.69,1.11.69,1.98s-.2,1.54-.61,2.09c-.41.55-1.04.82-1.9.82-.71,0-1.28-.24-1.7-.73-.42-.49-.63-1.14-.63-1.96,0-.88.22-1.58.66-2.1s1.04-.78,1.78-.78c.67,0,1.23.22,1.7.67ZM412.36,130.89c.21-.44.32-.93.32-1.47,0-.49-.08-.88-.23-1.19-.24-.48-.67-.72-1.26-.72-.53,0-.92.21-1.16.61-.24.41-.36.9-.36,1.48s.12,1.02.36,1.39c.24.37.62.56,1.15.56.58,0,.97-.22,1.19-.66Z"/>
        <path class="cls-1" d="M414.7,126.89h.83v.9c.07-.18.24-.39.5-.64.27-.25.57-.38.92-.38.02,0,.04,0,.08,0,.04,0,.11,0,.2.02v.93c-.05,0-.1-.02-.14-.02-.04,0-.09,0-.14,0-.44,0-.78.14-1.02.43-.24.29-.36.61-.36.98v3.01h-.88v-5.23Z"/>
        <path class="cls-1" d="M421.24,127.04c.35.17.61.4.79.68.17.26.29.57.35.92.05.24.08.62.08,1.15h-3.8c.02.53.14.96.37,1.28s.59.48,1.08.48c.46,0,.82-.15,1.09-.46.15-.18.26-.38.32-.61h.86c-.02.19-.1.41-.23.64-.13.24-.27.43-.43.58-.27.26-.59.44-.98.53-.21.05-.45.08-.71.08-.65,0-1.2-.24-1.65-.71s-.67-1.14-.67-1.99.23-1.52.68-2.05c.45-.52,1.04-.79,1.78-.79.37,0,.73.09,1.07.26ZM421.56,129.09c-.04-.38-.12-.69-.25-.91-.24-.42-.64-.63-1.2-.63-.4,0-.74.15-1.01.44-.27.29-.41.66-.43,1.11h2.88Z"/>
        <path class="cls-1" d="M423.5,124.92h.85v2.6c.19-.25.42-.44.69-.57.27-.13.56-.2.87-.2.65,0,1.18.22,1.59.67.41.45.61,1.11.61,1.98,0,.83-.2,1.51-.6,2.06s-.96.82-1.67.82c-.4,0-.74-.1-1.01-.29-.16-.11-.34-.3-.52-.55v.67h-.81v-7.2ZM426.86,130.94c.24-.38.36-.88.36-1.49,0-.55-.12-1.01-.36-1.37-.24-.36-.59-.54-1.05-.54-.4,0-.75.15-1.06.44-.3.3-.45.78-.45,1.46,0,.49.06.89.19,1.2.23.58.66.86,1.3.86.48,0,.83-.19,1.07-.57Z"/>
        <path class="cls-1" d="M432.92,127.41c.46.45.69,1.11.69,1.98s-.2,1.54-.61,2.09c-.41.55-1.04.82-1.9.82-.71,0-1.28-.24-1.7-.73-.42-.49-.63-1.14-.63-1.96,0-.88.22-1.58.66-2.1s1.04-.78,1.78-.78c.67,0,1.23.22,1.7.67ZM432.38,130.89c.21-.44.32-.93.32-1.47,0-.49-.08-.88-.23-1.19-.24-.48-.67-.72-1.26-.72-.53,0-.92.21-1.16.61-.24.41-.36.9-.36,1.48s.12,1.02.36,1.39c.24.37.62.56,1.15.56.58,0,.97-.22,1.19-.66Z"/>
        <path class="cls-1" d="M437.5,128.96c.2-.03.34-.11.41-.25.04-.08.06-.19.06-.34,0-.3-.11-.52-.32-.65s-.52-.2-.91-.2c-.46,0-.78.12-.97.37-.11.14-.18.34-.21.61h-.82c.02-.65.23-1.1.63-1.35.4-.25.87-.38,1.4-.38.61,0,1.11.12,1.5.35.38.23.57.6.57,1.09v3.01c0,.09.02.16.06.22.04.05.12.08.24.08.04,0,.08,0,.13,0s.1-.01.16-.02v.65c-.14.04-.24.06-.31.07s-.17.01-.29.01c-.3,0-.52-.11-.66-.32-.07-.11-.12-.28-.15-.48-.18.23-.44.44-.77.61-.34.17-.7.26-1.11.26-.48,0-.88-.15-1.19-.44s-.46-.66-.46-1.1c0-.48.15-.86.45-1.13s.7-.43,1.19-.49l1.4-.18ZM435.65,131.33c.19.15.41.22.66.22.31,0,.61-.07.9-.21.49-.24.73-.62.73-1.17v-.71c-.11.07-.25.13-.41.17s-.33.08-.5.1l-.53.07c-.32.04-.56.11-.72.2-.27.15-.41.4-.41.73,0,.25.09.45.28.6Z"/>
        <path class="cls-1" d="M440.28,126.89h.83v.9c.07-.18.24-.39.5-.64.27-.25.57-.38.92-.38.02,0,.04,0,.08,0,.04,0,.11,0,.2.02v.93c-.05,0-.1-.02-.14-.02-.04,0-.09,0-.14,0-.44,0-.78.14-1.02.43-.24.29-.36.61-.36.98v3.01h-.88v-5.23Z"/>
        <path class="cls-1" d="M446.46,127.05c.16.1.33.27.53.51v-2.64h.84v7.2h-.79v-.73c-.2.32-.45.55-.72.7-.28.14-.6.21-.96.21-.58,0-1.08-.25-1.51-.74-.42-.49-.64-1.14-.64-1.96,0-.76.19-1.42.58-1.98.39-.56.94-.84,1.66-.84.4,0,.73.08,1,.25ZM444.5,130.97c.24.38.62.57,1.14.57.4,0,.74-.17,1-.53.26-.35.39-.85.39-1.51s-.13-1.15-.4-1.47c-.27-.32-.6-.48-1-.48-.44,0-.8.17-1.07.51-.27.34-.41.84-.41,1.49,0,.56.12,1.03.35,1.41Z"/>
      </g>
    </g>
    <g>
      <rect class="cls-4" x="248.6" y="110.15" width="53.13" height="37.83" rx="2" ry="2"/>
      <g>
        <path class="cls-1" d="M257.15,124.95h3.26c.54,0,.98.08,1.33.24.66.31.99.87.99,1.69,0,.43-.09.78-.27,1.05s-.43.49-.74.66c.28.11.49.26.63.45s.22.49.24.9l.03.96c0,.27.03.48.07.61.06.23.16.37.31.44v.16h-1.19c-.03-.06-.06-.14-.08-.24s-.04-.29-.05-.57l-.06-1.2c-.02-.47-.19-.78-.51-.94-.18-.09-.46-.13-.85-.13h-2.15v3.08h-.97v-7.17ZM260.3,128.23c.44,0,.79-.09,1.05-.27.26-.18.39-.51.39-.99,0-.51-.18-.86-.54-1.04-.19-.1-.45-.15-.77-.15h-2.31v2.45h2.18Z"/>
        <path class="cls-1" d="M267.36,127.04c.35.17.61.4.79.68.17.26.29.57.35.92.05.24.08.62.08,1.15h-3.8c.02.53.14.96.37,1.28s.59.48,1.08.48c.46,0,.82-.15,1.09-.46.15-.18.26-.38.32-.61h.86c-.02.19-.1.41-.23.64-.13.24-.27.43-.43.58-.27.26-.59.44-.98.53-.21.05-.45.08-.71.08-.65,0-1.2-.24-1.65-.71s-.67-1.14-.67-1.99.23-1.52.68-2.05c.45-.52,1.04-.79,1.78-.79.37,0,.73.09,1.07.26ZM267.68,129.09c-.04-.38-.12-.69-.25-.91-.24-.42-.64-.63-1.2-.63-.4,0-.74.15-1.01.44-.27.29-.41.66-.43,1.11h2.88Z"/>
        <path class="cls-1" d="M269.7,126.89h.83v.74c.25-.31.51-.53.79-.66.28-.13.58-.2.92-.2.74,0,1.24.26,1.5.78.14.28.21.69.21,1.22v3.35h-.89v-3.3c0-.32-.05-.58-.14-.77-.16-.33-.44-.49-.85-.49-.21,0-.38.02-.51.06-.24.07-.45.21-.63.43-.15.17-.24.35-.29.53-.04.18-.07.45-.07.79v2.74h-.88v-5.23Z"/>
        <path class="cls-1" d="M278.06,128.96c.2-.03.34-.11.41-.25.04-.08.06-.19.06-.34,0-.3-.11-.52-.32-.65s-.52-.2-.91-.2c-.46,0-.78.12-.97.37-.11.14-.18.34-.21.61h-.82c.02-.65.23-1.1.63-1.35.4-.25.87-.38,1.4-.38.61,0,1.11.12,1.5.35.38.23.57.6.57,1.09v3.01c0,.09.02.16.06.22.04.05.12.08.24.08.04,0,.08,0,.13,0s.1-.01.16-.02v.65c-.14.04-.24.06-.31.07s-.17.01-.29.01c-.3,0-.52-.11-.66-.32-.07-.11-.12-.28-.15-.48-.18.23-.44.44-.77.61-.34.17-.7.26-1.11.26-.48,0-.88-.15-1.19-.44s-.46-.66-.46-1.1c0-.48.15-.86.45-1.13s.7-.43,1.19-.49l1.4-.18ZM276.21,131.33c.19.15.41.22.66.22.31,0,.61-.07.9-.21.49-.24.73-.62.73-1.17v-.71c-.11.07-.25.13-.41.17s-.33.08-.5.1l-.53.07c-.32.04-.56.11-.72.2-.27.15-.41.4-.41.73,0,.25.09.45.28.6Z"/>
        <path class="cls-1" d="M280.82,126.89h.87v.74c.21-.26.4-.44.57-.56.29-.2.62-.3.99-.3.42,0,.75.1,1.01.31.14.12.27.29.39.52.2-.28.42-.49.69-.62.26-.13.56-.2.89-.2.7,0,1.18.25,1.44.76.14.27.21.64.21,1.1v3.48h-.91v-3.63c0-.35-.09-.59-.26-.72-.17-.13-.39-.2-.64-.2-.35,0-.64.12-.89.35-.25.23-.37.62-.37,1.16v3.04h-.89v-3.41c0-.36-.04-.61-.13-.78-.13-.24-.38-.37-.75-.37-.33,0-.63.13-.91.39-.27.26-.41.72-.41,1.4v2.77h-.88v-5.23Z"/>
        <path class="cls-1" d="M292.38,127.04c.35.17.61.4.79.68.17.26.29.57.35.92.05.24.08.62.08,1.15h-3.8c.02.53.14.96.37,1.28s.59.48,1.08.48c.46,0,.82-.15,1.09-.46.15-.18.26-.38.32-.61h.86c-.02.19-.1.41-.23.64-.13.24-.27.43-.43.58-.27.26-.59.44-.98.53-.21.05-.45.08-.71.08-.65,0-1.2-.24-1.65-.71s-.67-1.14-.67-1.99.23-1.52.68-2.05c.45-.52,1.04-.79,1.78-.79.37,0,.73.09,1.07.26ZM292.69,129.09c-.04-.38-.12-.69-.25-.91-.24-.42-.64-.63-1.2-.63-.4,0-.74.15-1.01.44-.27.29-.41.66-.43,1.11h2.88Z"/>
      </g>
    </g>
    <g>
      <rect class="cls-4" x="531.24" y="110.15" width="66.84" height="37.83" rx="2" ry="2"/>
      <g>
        <path class="cls-1" d="M538.86,120.18h3.26c.54,0,.98.08,1.33.24.66.31.99.87.99,1.69,0,.43-.09.78-.27,1.05s-.43.49-.74.66c.28.11.49.26.63.45s.22.49.24.9l.03.96c0,.27.03.48.07.61.06.23.16.37.31.44v.16h-1.19c-.03-.06-.06-.14-.08-.24s-.04-.29-.05-.57l-.06-1.2c-.02-.47-.19-.78-.51-.94-.18-.09-.46-.13-.85-.13h-2.15v3.08h-.97v-7.17ZM542.01,123.47c.44,0,.79-.09,1.05-.27.26-.18.39-.51.39-.99,0-.51-.18-.86-.54-1.04-.19-.1-.45-.15-.77-.15h-2.31v2.45h2.18Z"/>
        <path class="cls-1" d="M549.08,122.27c.35.17.61.4.79.68.17.26.29.57.35.92.05.24.08.62.08,1.15h-3.8c.02.53.14.96.37,1.28s.59.48,1.08.48c.46,0,.82-.15,1.09-.46.15-.18.26-.38.32-.61h.86c-.02.19-.1.41-.23.64-.13.24-.27.43-.43.58-.27.26-.59.44-.98.53-.21.05-.45.08-.71.08-.65,0-1.2-.24-1.65-.71s-.67-1.14-.67-1.99.23-1.52.68-2.05c.45-.52,1.04-.79,1.78-.79.37,0,.73.09,1.07.26ZM549.39,124.32c-.04-.38-.12-.69-.25-.91-.24-.42-.64-.63-1.2-.63-.4,0-.74.15-1.01.44-.27.29-.41.66-.43,1.11h2.88Z"/>
        <path class="cls-1" d="M551.93,125.71c.03.29.1.52.22.67.23.28.62.42,1.18.42.33,0,.62-.07.88-.21s.38-.36.38-.66c0-.22-.1-.4-.3-.51-.13-.07-.38-.16-.76-.25l-.71-.18c-.45-.11-.79-.23-1-.37-.38-.24-.58-.57-.58-.99,0-.5.18-.9.54-1.2.36-.31.85-.46,1.46-.46.8,0,1.37.23,1.73.69.22.29.33.61.32.95h-.83c-.02-.2-.09-.38-.21-.54-.21-.23-.56-.34-1.07-.34-.34,0-.6.06-.77.19-.17.13-.26.29-.26.5,0,.23.11.41.34.54.13.08.33.15.59.21l.59.14c.64.15,1.07.3,1.29.44.34.22.51.58.51,1.06s-.18.87-.54,1.21c-.36.34-.9.51-1.63.51-.79,0-1.35-.18-1.67-.53-.33-.35-.5-.79-.53-1.31h.84Z"/>
        <path class="cls-1" d="M559.64,122.27c.35.17.61.4.79.68.17.26.29.57.35.92.05.24.08.62.08,1.15h-3.8c.02.53.14.96.37,1.28s.59.48,1.08.48c.46,0,.82-.15,1.09-.46.15-.18.26-.38.32-.61h.86c-.02.19-.1.41-.23.64-.13.24-.27.43-.43.58-.27.26-.59.44-.98.53-.21.05-.45.08-.71.08-.65,0-1.2-.24-1.65-.71s-.67-1.14-.67-1.99.23-1.52.68-2.05c.45-.52,1.04-.79,1.78-.79.37,0,.73.09,1.07.26ZM559.95,124.32c-.04-.38-.12-.69-.25-.91-.24-.42-.64-.63-1.2-.63-.4,0-.74.15-1.01.44-.27.29-.41.66-.43,1.11h2.88Z"/>
        <path class="cls-1" d="M561.99,122.12h.83v.9c.07-.18.24-.39.5-.64.27-.25.57-.38.92-.38.02,0,.04,0,.08,0,.04,0,.11,0,.2.02v.93c-.05,0-.1-.02-.14-.02-.04,0-.09,0-.14,0-.44,0-.78.14-1.02.43-.24.29-.36.61-.36.98v3.01h-.88v-5.23Z"/>
        <path class="cls-1" d="M565.73,122.12l1.4,4.26,1.46-4.26h.96l-1.97,5.23h-.94l-1.93-5.23h1.02Z"/>
        <path class="cls-1" d="M573.1,124.19c.2-.03.34-.11.41-.25.04-.08.06-.19.06-.34,0-.3-.11-.52-.32-.65s-.52-.2-.91-.2c-.46,0-.78.12-.97.37-.11.14-.18.34-.21.61h-.82c.02-.65.23-1.1.63-1.35.4-.25.87-.38,1.4-.38.61,0,1.11.12,1.5.35.38.23.57.6.57,1.09v3.01c0,.09.02.16.06.22.04.05.12.08.24.08.04,0,.08,0,.13,0s.1-.01.16-.02v.65c-.14.04-.24.06-.31.07s-.17.01-.29.01c-.3,0-.52-.11-.66-.32-.07-.11-.12-.28-.15-.48-.18.23-.44.44-.77.61-.34.17-.7.26-1.11.26-.48,0-.88-.15-1.19-.44s-.46-.66-.46-1.1c0-.48.15-.86.45-1.13s.7-.43,1.19-.49l1.4-.18ZM571.25,126.56c.19.15.41.22.66.22.31,0,.61-.07.9-.21.49-.24.73-.62.73-1.17v-.71c-.11.07-.25.13-.41.17s-.33.08-.5.1l-.53.07c-.32.04-.56.11-.72.2-.27.15-.41.4-.41.73,0,.25.09.45.28.6Z"/>
        <path class="cls-1" d="M576.04,120.66h.89v1.46h.83v.72h-.83v3.41c0,.18.06.3.19.37.07.04.18.05.34.05.04,0,.09,0,.14,0,.05,0,.11,0,.17-.02v.7c-.1.03-.21.05-.31.06-.11.01-.23.02-.35.02-.41,0-.69-.11-.83-.32s-.22-.48-.22-.82v-3.46h-.71v-.72h.71v-1.46Z"/>
        <path class="cls-1" d="M578.64,120.18h.89v1h-.89v-1ZM578.64,122.15h.89v5.21h-.89v-5.21Z"/>
        <path class="cls-1" d="M584.65,122.64c.46.45.69,1.11.69,1.98s-.2,1.54-.61,2.09c-.41.55-1.04.82-1.9.82-.71,0-1.28-.24-1.7-.73-.42-.49-.63-1.14-.63-1.96,0-.88.22-1.58.66-2.1s1.04-.78,1.78-.78c.67,0,1.23.22,1.7.67ZM584.1,126.12c.21-.44.32-.93.32-1.47,0-.49-.08-.88-.23-1.19-.24-.48-.67-.72-1.26-.72-.53,0-.92.21-1.16.61-.24.41-.36.9-.36,1.48s.12,1.02.36,1.39c.24.37.62.56,1.15.56.58,0,.97-.22,1.19-.66Z"/>
        <path class="cls-1" d="M586.42,122.12h.83v.74c.25-.31.51-.53.79-.66.28-.13.58-.2.92-.2.74,0,1.24.26,1.5.78.14.28.21.69.21,1.22v3.35h-.89v-3.3c0-.32-.05-.58-.14-.77-.16-.33-.44-.49-.85-.49-.21,0-.38.02-.51.06-.24.07-.45.21-.63.43-.15.17-.24.35-.29.53-.04.18-.07.45-.07.79v2.74h-.88v-5.23Z"/>
        <path class="cls-1" d="M550.49,135.04c.02.41.11.74.28.99.31.47.86.71,1.64.71.35,0,.67-.05.96-.16.56-.2.84-.56.84-1.08,0-.39-.12-.67-.35-.83-.24-.16-.61-.3-1.13-.42l-.94-.22c-.61-.14-1.05-.3-1.31-.47-.44-.3-.66-.75-.66-1.34,0-.64.22-1.17.65-1.59.43-.41,1.05-.62,1.84-.62.73,0,1.35.18,1.86.54.51.36.77.94.77,1.74h-.91c-.05-.38-.15-.68-.3-.88-.28-.38-.77-.56-1.45-.56-.55,0-.94.12-1.18.36-.24.24-.36.52-.36.84,0,.35.14.61.43.77.19.1.61.23,1.26.39l.97.23c.47.11.83.26,1.09.45.44.33.66.82.66,1.46,0,.79-.28,1.36-.85,1.7s-1.22.51-1.96.51c-.87,0-1.55-.23-2.04-.68-.49-.45-.73-1.07-.72-1.84h.91Z"/>
        <path class="cls-1" d="M556.58,130.66h.89v1.46h.83v.72h-.83v3.41c0,.18.06.3.19.37.07.04.18.05.34.05.04,0,.09,0,.14,0,.05,0,.11,0,.17-.02v.7c-.1.03-.21.05-.31.06-.11.01-.23.02-.35.02-.41,0-.69-.11-.83-.32s-.22-.48-.22-.82v-3.46h-.71v-.72h.71v-1.46Z"/>
        <path class="cls-1" d="M561.99,134.19c.2-.03.34-.11.41-.25.04-.08.06-.19.06-.34,0-.3-.11-.52-.32-.65s-.52-.2-.91-.2c-.46,0-.78.12-.97.37-.11.14-.18.34-.21.61h-.82c.02-.65.23-1.1.63-1.35.4-.25.87-.38,1.4-.38.61,0,1.11.12,1.5.35.38.23.57.6.57,1.09v3.01c0,.09.02.16.06.22.04.05.12.08.24.08.04,0,.08,0,.13,0s.1-.01.16-.02v.65c-.14.04-.24.06-.31.07s-.17.01-.29.01c-.3,0-.52-.11-.66-.32-.07-.11-.12-.28-.15-.48-.18.23-.44.44-.77.61-.34.17-.7.26-1.11.26-.48,0-.88-.15-1.19-.44s-.46-.66-.46-1.1c0-.48.15-.86.45-1.13s.7-.43,1.19-.49l1.4-.18ZM560.14,136.56c.19.15.41.22.66.22.31,0,.61-.07.9-.21.49-.24.73-.62.73-1.17v-.71c-.11.07-.25.13-.41.17s-.33.08-.5.1l-.53.07c-.32.04-.56.11-.72.2-.27.15-.41.4-.41.73,0,.25.09.45.28.6Z"/>
        <path class="cls-1" d="M564.92,130.66h.89v1.46h.83v.72h-.83v3.41c0,.18.06.3.19.37.07.04.18.05.34.05.04,0,.09,0,.14,0,.05,0,.11,0,.17-.02v.7c-.1.03-.21.05-.31.06-.11.01-.23.02-.35.02-.41,0-.69-.11-.83-.32s-.22-.48-.22-.82v-3.46h-.71v-.72h.71v-1.46Z"/>
        <path class="cls-1" d="M567.53,130.18h.89v1h-.89v-1ZM567.53,132.15h.89v5.21h-.89v-5.21Z"/>
        <path class="cls-1" d="M573.54,132.64c.46.45.69,1.11.69,1.98s-.2,1.54-.61,2.09c-.41.55-1.04.82-1.9.82-.71,0-1.28-.24-1.7-.73-.42-.49-.63-1.14-.63-1.96,0-.88.22-1.58.66-2.1s1.04-.78,1.78-.78c.67,0,1.23.22,1.7.67ZM572.99,136.12c.21-.44.32-.93.32-1.47,0-.49-.08-.88-.23-1.19-.24-.48-.67-.72-1.26-.72-.53,0-.92.21-1.16.61-.24.41-.36.9-.36,1.48s.12,1.02.36,1.39c.24.37.62.56,1.15.56.58,0,.97-.22,1.19-.66Z"/>
        <path class="cls-1" d="M575.31,132.12h.83v.74c.25-.31.51-.53.79-.66.28-.13.58-.2.92-.2.74,0,1.24.26,1.5.78.14.28.21.69.21,1.22v3.35h-.89v-3.3c0-.32-.05-.58-.14-.77-.16-.33-.44-.49-.85-.49-.21,0-.38.02-.51.06-.24.07-.45.21-.63.43-.15.17-.24.35-.29.53-.04.18-.07.45-.07.79v2.74h-.88v-5.23Z"/>
      </g>
    </g>
    <g>
      <rect class="cls-4" x="464.9" y="110.15" width="46.91" height="37.83" rx="2" ry="2"/>
      <g>
        <path class="cls-1" d="M473.02,120.18h.98v2.96h3.69v-2.96h.98v7.17h-.98v-3.35h-3.69v3.35h-.98v-7.17Z"/>
        <path class="cls-1" d="M482.9,124.19c.2-.03.34-.11.41-.25.04-.08.06-.19.06-.34,0-.3-.11-.52-.32-.65s-.52-.2-.91-.2c-.46,0-.78.12-.97.37-.11.14-.18.34-.21.61h-.82c.02-.65.23-1.1.63-1.35.4-.25.87-.38,1.4-.38.61,0,1.11.12,1.5.35.38.23.57.6.57,1.09v3.01c0,.09.02.16.06.22.04.05.12.08.24.08.04,0,.08,0,.13,0s.1-.01.16-.02v.65c-.14.04-.24.06-.31.07s-.17.01-.29.01c-.3,0-.52-.11-.66-.32-.07-.11-.12-.28-.15-.48-.18.23-.44.44-.77.61-.34.17-.7.26-1.11.26-.48,0-.88-.15-1.19-.44s-.46-.66-.46-1.1c0-.48.15-.86.45-1.13s.7-.43,1.19-.49l1.4-.18ZM481.05,126.56c.19.15.41.22.66.22.31,0,.61-.07.9-.21.49-.24.73-.62.73-1.17v-.71c-.11.07-.25.13-.41.17s-.33.08-.5.1l-.53.07c-.32.04-.56.11-.72.2-.27.15-.41.4-.41.73,0,.25.09.45.28.6Z"/>
        <path class="cls-1" d="M485.27,126.66l3.11-3.75h-2.88v-.79h4.06v.72l-3.09,3.73h3.18v.79h-4.38v-.69Z"/>
        <path class="cls-1" d="M493.47,124.19c.2-.03.34-.11.41-.25.04-.08.06-.19.06-.34,0-.3-.11-.52-.32-.65s-.52-.2-.91-.2c-.46,0-.78.12-.97.37-.11.14-.18.34-.21.61h-.82c.02-.65.23-1.1.63-1.35.4-.25.87-.38,1.4-.38.61,0,1.11.12,1.5.35.38.23.57.6.57,1.09v3.01c0,.09.02.16.06.22.04.05.12.08.24.08.04,0,.08,0,.13,0s.1-.01.16-.02v.65c-.14.04-.24.06-.31.07s-.17.01-.29.01c-.3,0-.52-.11-.66-.32-.07-.11-.12-.28-.15-.48-.18.23-.44.44-.77.61-.34.17-.7.26-1.11.26-.48,0-.88-.15-1.19-.44s-.46-.66-.46-1.1c0-.48.15-.86.45-1.13s.7-.43,1.19-.49l1.4-.18ZM491.61,126.56c.19.15.41.22.66.22.31,0,.61-.07.9-.21.49-.24.73-.62.73-1.17v-.71c-.11.07-.25.13-.41.17s-.33.08-.5.1l-.53.07c-.32.04-.56.11-.72.2-.27.15-.41.4-.41.73,0,.25.09.45.28.6Z"/>
        <path class="cls-1" d="M496.25,122.12h.83v.9c.07-.18.24-.39.5-.64.27-.25.57-.38.92-.38.02,0,.04,0,.08,0,.04,0,.11,0,.2.02v.93c-.05,0-.1-.02-.14-.02-.04,0-.09,0-.14,0-.44,0-.78.14-1.02.43-.24.29-.36.61-.36.98v3.01h-.88v-5.23Z"/>
        <path class="cls-1" d="M502.43,122.28c.16.1.33.27.53.51v-2.64h.84v7.2h-.79v-.73c-.2.32-.45.55-.72.7-.28.14-.6.21-.96.21-.58,0-1.08-.25-1.51-.74-.42-.49-.64-1.14-.64-1.96,0-.76.19-1.42.58-1.98.39-.56.94-.84,1.66-.84.4,0,.73.08,1,.25ZM500.47,126.2c.24.38.62.57,1.14.57.4,0,.74-.17,1-.53.26-.35.39-.85.39-1.51s-.13-1.15-.4-1.47c-.27-.32-.6-.48-1-.48-.44,0-.8.17-1.07.51-.27.34-.41.84-.41,1.49,0,.56.12,1.03.35,1.41Z"/>
        <path class="cls-1" d="M480.02,130.7c.5.48.77,1.02.83,1.63h-.95c-.11-.46-.32-.83-.63-1.1-.31-.27-.76-.41-1.33-.41-.69,0-1.25.25-1.68.75s-.64,1.26-.64,2.28c0,.84.19,1.52.58,2.05.39.52.96.78,1.72.78.7,0,1.24-.28,1.61-.83.19-.29.34-.67.44-1.14h.95c-.08.75-.36,1.39-.83,1.9-.56.62-1.32.92-2.28.92-.82,0-1.52-.25-2.08-.76-.74-.67-1.11-1.7-1.11-3.09,0-1.06.28-1.93.83-2.6.6-.74,1.42-1.1,2.48-1.1.9,0,1.59.24,2.09.72Z"/>
        <path class="cls-1" d="M482.05,130.15h.88v2.68c.21-.26.4-.45.56-.56.28-.19.64-.28,1.06-.28.76,0,1.27.26,1.54.8.15.29.22.69.22,1.21v3.35h-.9v-3.3c0-.38-.05-.67-.15-.84-.16-.29-.46-.43-.9-.43-.36,0-.69.12-.99.38-.3.25-.44.72-.44,1.42v2.77h-.88v-7.2Z"/>
        <path class="cls-1" d="M490.84,132.27c.35.17.61.4.79.68.17.26.29.57.35.92.05.24.08.62.08,1.15h-3.8c.02.53.14.96.37,1.28s.59.48,1.08.48c.46,0,.82-.15,1.09-.46.15-.18.26-.38.32-.61h.86c-.02.19-.1.41-.23.64-.13.24-.27.43-.43.58-.27.26-.59.44-.98.53-.21.05-.45.08-.71.08-.65,0-1.2-.24-1.65-.71s-.67-1.14-.67-1.99.23-1.52.68-2.05c.45-.52,1.04-.79,1.78-.79.37,0,.73.09,1.07.26ZM491.15,134.32c-.04-.38-.12-.69-.25-.91-.24-.42-.64-.63-1.2-.63-.4,0-.74.15-1.01.44-.27.29-.41.66-.43,1.11h2.88Z"/>
        <path class="cls-1" d="M496.62,132.4c.37.29.59.78.67,1.48h-.85c-.05-.32-.17-.59-.36-.8-.19-.21-.48-.32-.89-.32-.56,0-.96.27-1.2.82-.16.35-.23.79-.23,1.31s.11.96.33,1.32c.22.36.57.54,1.04.54.36,0,.65-.11.87-.33.21-.22.36-.53.44-.91h.85c-.1.69-.34,1.2-.73,1.52-.39.32-.89.48-1.5.48-.68,0-1.23-.25-1.64-.75-.41-.5-.61-1.12-.61-1.87,0-.92.22-1.63.67-2.14.45-.51,1.01-.77,1.7-.77.59,0,1.07.14,1.44.43Z"/>
        <path class="cls-1" d="M498.15,130.18h.84v4.16l2.25-2.22h1.12l-2.01,1.94,2.12,3.29h-1.12l-1.65-2.66-.72.7v1.96h-.84v-7.17Z"/>
      </g>
    </g>
    <g>
      <rect class="cls-4" x="531.24" y="162.09" width="150.07" height="37.83" rx="2" ry="2"/>
      <g>
        <path class="cls-1" d="M570.14,178.12c.48.63.71,1.45.71,2.44,0,1.07-.27,1.96-.82,2.67-.64.83-1.55,1.25-2.73,1.25-1.1,0-1.97-.36-2.6-1.09-.56-.7-.84-1.59-.84-2.67,0-.97.24-1.8.72-2.49.62-.88,1.53-1.33,2.74-1.33s2.2.41,2.81,1.22ZM569.28,182.69c.38-.61.57-1.32.57-2.12,0-.84-.22-1.52-.66-2.04s-1.04-.77-1.81-.77-1.35.25-1.82.76c-.47.51-.7,1.26-.7,2.26,0,.79.2,1.46.6,2.01s1.05.82,1.96.82,1.48-.31,1.86-.92Z"/>
        <path class="cls-1" d="M571.82,179.06h.86v.69c.18-.24.37-.42.58-.55.3-.2.65-.29,1.05-.29.59,0,1.1.23,1.51.68.41.45.62,1.1.62,1.95,0,1.14-.3,1.95-.9,2.44-.38.31-.82.46-1.32.46-.4,0-.73-.09-1-.26-.16-.1-.33-.26-.52-.5v2.67h-.88v-7.29ZM575.13,183.16c.27-.34.41-.86.41-1.54,0-.42-.06-.77-.18-1.07-.23-.58-.65-.86-1.25-.86s-1.03.3-1.25.91c-.12.33-.18.74-.18,1.24,0,.4.06.75.18,1.03.23.54.65.81,1.25.81.41,0,.75-.17,1.03-.51Z"/>
        <path class="cls-1" d="M580.69,179.18c.35.17.61.4.79.68.17.26.29.57.35.92.05.24.08.62.08,1.15h-3.8c.02.53.14.96.37,1.28.23.32.59.48,1.08.48.46,0,.82-.15,1.09-.46.15-.18.26-.38.32-.61h.86c-.02.19-.1.41-.23.64-.13.24-.27.43-.43.58-.27.26-.59.44-.98.53-.21.05-.45.08-.71.08-.65,0-1.2-.24-1.65-.71s-.67-1.14-.67-1.99.23-1.52.68-2.05c.45-.52,1.04-.79,1.78-.79.37,0,.73.09,1.07.26ZM581,181.24c-.04-.38-.12-.68-.25-.91-.24-.42-.64-.63-1.2-.63-.4,0-.74.15-1.01.44-.27.29-.41.66-.43,1.11h2.88Z"/>
        <path class="cls-1" d="M583.04,179.04h.83v.9c.07-.18.24-.39.5-.64.27-.25.57-.38.92-.38.02,0,.04,0,.08,0,.04,0,.11,0,.2.02v.93c-.05,0-.1-.02-.14-.02-.04,0-.09,0-.14,0-.44,0-.78.14-1.02.43-.24.28-.36.61-.36.98v3.01h-.88v-5.23Z"/>
        <path class="cls-1" d="M589.15,181.1c.2-.03.34-.11.41-.25.04-.08.06-.19.06-.34,0-.3-.11-.52-.32-.65-.21-.14-.52-.2-.91-.2-.46,0-.78.12-.97.37-.11.14-.18.34-.21.61h-.82c.02-.65.23-1.1.63-1.35.4-.25.87-.38,1.4-.38.61,0,1.11.12,1.5.35.38.23.57.6.57,1.09v3.01c0,.09.02.17.06.22.04.06.12.08.24.08.04,0,.08,0,.13,0s.1-.01.16-.02v.65c-.14.04-.24.06-.31.07s-.17.01-.29.01c-.3,0-.52-.11-.66-.32-.07-.11-.12-.27-.15-.48-.18.23-.44.44-.77.61-.34.17-.7.26-1.11.26-.48,0-.88-.15-1.19-.44-.31-.29-.46-.66-.46-1.1,0-.48.15-.86.45-1.13s.7-.43,1.19-.49l1.4-.18ZM587.3,183.48c.19.15.41.22.66.22.31,0,.61-.07.9-.21.49-.24.73-.63.73-1.17v-.71c-.11.07-.25.12-.41.17s-.33.08-.5.1l-.53.07c-.32.04-.56.11-.72.2-.27.15-.41.4-.41.73,0,.25.09.45.28.6Z"/>
        <path class="cls-1" d="M591.91,179.04h.83v.74c.25-.31.51-.53.79-.66.28-.13.58-.2.92-.2.74,0,1.24.26,1.5.78.14.28.21.69.21,1.22v3.35h-.89v-3.3c0-.32-.05-.58-.14-.77-.16-.33-.44-.49-.85-.49-.21,0-.38.02-.51.06-.24.07-.45.21-.63.43-.15.17-.24.35-.29.54-.04.18-.07.45-.07.79v2.74h-.88v-5.23Z"/>
        <path class="cls-1" d="M600.34,179.2c.16.1.33.27.53.51v-2.64h.84v7.2h-.79v-.73c-.2.32-.45.56-.72.7-.28.14-.6.21-.96.21-.58,0-1.08-.25-1.51-.73-.42-.49-.64-1.14-.64-1.96,0-.76.19-1.42.58-1.98.39-.56.94-.84,1.66-.84.4,0,.73.08,1,.25ZM598.38,183.12c.24.38.62.57,1.14.57.4,0,.74-.17,1-.52.26-.35.39-.85.39-1.51s-.13-1.15-.4-1.47c-.27-.32-.6-.48-1-.48-.44,0-.8.17-1.07.51-.27.34-.41.84-.41,1.49,0,.56.12,1.03.35,1.41Z"/>
        <path class="cls-1" d="M611,177.62c.5.48.77,1.02.83,1.63h-.95c-.11-.46-.32-.83-.63-1.1-.31-.27-.76-.41-1.33-.41-.69,0-1.25.25-1.68.75-.43.5-.64,1.26-.64,2.29,0,.84.19,1.52.58,2.04.39.52.96.78,1.72.78.7,0,1.24-.27,1.61-.83.19-.29.34-.67.44-1.14h.95c-.08.76-.36,1.39-.83,1.9-.56.62-1.32.92-2.28.92-.82,0-1.52-.25-2.08-.76-.74-.67-1.11-1.7-1.11-3.09,0-1.06.28-1.93.83-2.6.6-.74,1.42-1.1,2.48-1.1.9,0,1.59.24,2.09.72Z"/>
        <path class="cls-1" d="M616.82,179.56c.46.45.69,1.11.69,1.98s-.2,1.54-.61,2.09-1.04.82-1.9.82c-.71,0-1.28-.24-1.7-.73-.42-.49-.63-1.14-.63-1.96,0-.88.22-1.58.66-2.1.44-.52,1.04-.78,1.78-.78.67,0,1.23.22,1.7.67ZM616.28,183.04c.21-.44.32-.93.32-1.47,0-.49-.08-.88-.23-1.19-.24-.48-.67-.72-1.26-.72-.53,0-.92.21-1.16.62-.24.41-.36.9-.36,1.48s.12,1.02.36,1.39c.24.37.62.56,1.15.56.58,0,.97-.22,1.19-.66Z"/>
        <path class="cls-1" d="M618.62,177.1h.88v7.17h-.88v-7.17Z"/>
        <path class="cls-1" d="M620.84,177.1h.88v7.17h-.88v-7.17Z"/>
        <path class="cls-1" d="M626.27,179.18c.35.17.61.4.79.68.17.26.29.57.35.92.05.24.08.62.08,1.15h-3.8c.02.53.14.96.37,1.28.23.32.59.48,1.08.48.46,0,.82-.15,1.09-.46.15-.18.26-.38.32-.61h.86c-.02.19-.1.41-.23.64-.13.24-.27.43-.43.58-.27.26-.59.44-.98.53-.21.05-.45.08-.71.08-.65,0-1.2-.24-1.65-.71s-.67-1.14-.67-1.99.23-1.52.68-2.05c.45-.52,1.04-.79,1.78-.79.37,0,.73.09,1.07.26ZM626.58,181.24c-.04-.38-.12-.68-.25-.91-.24-.42-.64-.63-1.2-.63-.4,0-.74.15-1.01.44-.27.29-.41.66-.43,1.11h2.88Z"/>
        <path class="cls-1" d="M632.05,179.32c.37.29.59.78.67,1.48h-.85c-.05-.32-.17-.59-.36-.8-.19-.21-.48-.32-.89-.32-.56,0-.96.27-1.2.82-.16.35-.23.79-.23,1.31s.11.96.33,1.32.57.54,1.04.54c.36,0,.65-.11.87-.33.21-.22.36-.53.44-.91h.85c-.1.69-.34,1.2-.73,1.52-.39.32-.89.48-1.5.48-.68,0-1.23-.25-1.64-.75-.41-.5-.61-1.12-.61-1.87,0-.92.22-1.63.67-2.14.45-.51,1.01-.77,1.7-.77.59,0,1.07.14,1.44.43Z"/>
        <path class="cls-1" d="M633.77,177.58h.89v1.46h.83v.72h-.83v3.41c0,.18.06.3.19.37.07.04.18.05.34.05.04,0,.09,0,.14,0s.11,0,.17-.02v.7c-.1.03-.21.05-.31.06-.11.01-.23.02-.35.02-.41,0-.69-.1-.83-.31s-.22-.48-.22-.82v-3.46h-.71v-.72h.71v-1.46Z"/>
        <path class="cls-1" d="M636.38,177.1h.89v1h-.89v-1ZM636.38,179.06h.89v5.21h-.89v-5.21Z"/>
        <path class="cls-1" d="M642.39,179.56c.46.45.69,1.11.69,1.98s-.2,1.54-.61,2.09-1.04.82-1.9.82c-.71,0-1.28-.24-1.7-.73-.42-.49-.63-1.14-.63-1.96,0-.88.22-1.58.66-2.1.44-.52,1.04-.78,1.78-.78.67,0,1.23.22,1.7.67ZM641.84,183.04c.21-.44.32-.93.32-1.47,0-.49-.08-.88-.23-1.19-.24-.48-.67-.72-1.26-.72-.53,0-.92.21-1.16.62-.24.41-.36.9-.36,1.48s.12,1.02.36,1.39c.24.37.62.56,1.15.56.58,0,.97-.22,1.19-.66Z"/>
        <path class="cls-1" d="M644.16,179.04h.83v.74c.25-.31.51-.53.79-.66.28-.13.58-.2.92-.2.74,0,1.24.26,1.5.78.14.28.21.69.21,1.22v3.35h-.89v-3.3c0-.32-.05-.58-.14-.77-.16-.33-.44-.49-.85-.49-.21,0-.38.02-.51.06-.24.07-.45.21-.63.43-.15.17-.24.35-.29.54-.04.18-.07.45-.07.79v2.74h-.88v-5.23Z"/>
      </g>
    </g>
    <g>
      <rect class="cls-4" x="100.72" y="161.9" width="59.67" height="23.36" rx="2" ry="2"/>
      <g>
        <path class="cls-1" d="M107.22,169.46h3.21c.63,0,1.15.18,1.54.54.39.36.59.87.59,1.52,0,.56-.17,1.05-.52,1.46s-.88.62-1.6.62h-2.24v3.03h-.97v-7.17ZM110.99,170.45c-.21-.1-.51-.15-.88-.15h-1.92v2.49h1.92c.43,0,.78-.09,1.05-.28s.4-.51.4-.98c0-.53-.19-.88-.58-1.07Z"/>
        <path class="cls-1" d="M113.7,171.4h.83v.9c.07-.18.24-.39.5-.64.27-.25.57-.38.92-.38.02,0,.04,0,.08,0,.04,0,.11,0,.2.02v.93c-.05,0-.1-.02-.14-.02-.04,0-.09,0-.14,0-.44,0-.78.14-1.02.43-.24.28-.36.61-.36.98v3.01h-.88v-5.23Z"/>
        <path class="cls-1" d="M120.24,171.55c.35.17.61.4.79.68.17.26.29.57.35.92.05.24.08.62.08,1.15h-3.8c.02.53.14.96.37,1.28.23.32.59.48,1.08.48.46,0,.82-.15,1.09-.46.15-.18.26-.38.32-.61h.86c-.02.19-.1.41-.23.64-.13.24-.27.43-.43.58-.27.26-.59.44-.98.53-.21.05-.45.08-.71.08-.65,0-1.2-.24-1.65-.71s-.67-1.14-.67-1.99.23-1.52.68-2.05c.45-.52,1.04-.79,1.78-.79.37,0,.73.09,1.07.26ZM120.56,173.6c-.04-.38-.12-.68-.25-.91-.24-.42-.64-.63-1.2-.63-.4,0-.74.15-1.01.44-.27.29-.41.66-.43,1.11h2.88Z"/>
        <path class="cls-1" d="M125.45,171.56c.16.1.33.27.53.51v-2.64h.84v7.2h-.79v-.73c-.2.32-.45.56-.72.7-.28.14-.6.21-.96.21-.58,0-1.08-.25-1.51-.73-.42-.49-.64-1.14-.64-1.96,0-.76.19-1.42.58-1.98.39-.56.94-.84,1.66-.84.4,0,.73.08,1,.25ZM123.48,175.48c.24.38.62.57,1.14.57.4,0,.74-.17,1-.52.26-.35.39-.85.39-1.51s-.13-1.15-.4-1.47c-.27-.32-.6-.48-1-.48-.44,0-.8.17-1.07.51-.27.34-.41.84-.41,1.49,0,.56.12,1.03.35,1.41Z"/>
        <path class="cls-1" d="M131.36,171.55c.35.17.61.4.79.68.17.26.29.57.35.92.05.24.08.62.08,1.15h-3.8c.02.53.14.96.37,1.28.23.32.59.48,1.08.48.46,0,.82-.15,1.09-.46.15-.18.26-.38.32-.61h.86c-.02.19-.1.41-.23.64-.13.24-.27.43-.43.58-.27.26-.59.44-.98.53-.21.05-.45.08-.71.08-.65,0-1.2-.24-1.65-.71s-.67-1.14-.67-1.99.23-1.52.68-2.05c.45-.52,1.04-.79,1.78-.79.37,0,.73.09,1.07.26ZM131.68,173.6c-.04-.38-.12-.68-.25-.91-.24-.42-.64-.63-1.2-.63-.4,0-.74.15-1.01.44-.27.29-.41.66-.43,1.11h2.88Z"/>
        <path class="cls-1" d="M137.15,171.68c.37.29.59.78.67,1.48h-.85c-.05-.32-.17-.59-.36-.8-.19-.21-.48-.32-.89-.32-.56,0-.96.27-1.2.82-.16.35-.23.79-.23,1.31s.11.96.33,1.32.57.54,1.04.54c.36,0,.65-.11.87-.33.21-.22.36-.53.44-.91h.85c-.1.69-.34,1.2-.73,1.52-.39.32-.89.48-1.5.48-.68,0-1.23-.25-1.64-.75-.41-.5-.61-1.12-.61-1.87,0-.92.22-1.63.67-2.14.45-.51,1.01-.77,1.7-.77.59,0,1.07.14,1.44.43Z"/>
        <path class="cls-1" d="M142.48,171.93c.46.45.69,1.11.69,1.98s-.2,1.54-.61,2.09-1.04.82-1.9.82c-.71,0-1.28-.24-1.7-.73-.42-.49-.63-1.14-.63-1.96,0-.88.22-1.58.66-2.1.44-.52,1.04-.78,1.78-.78.67,0,1.23.22,1.7.67ZM141.94,175.4c.21-.44.32-.93.32-1.47,0-.49-.08-.88-.23-1.19-.24-.48-.67-.72-1.26-.72-.53,0-.92.21-1.16.62-.24.41-.36.9-.36,1.48s.12,1.02.36,1.39c.24.37.62.56,1.15.56.58,0,.97-.22,1.19-.66Z"/>
        <path class="cls-1" d="M147.13,171.56c.16.1.33.27.53.51v-2.64h.84v7.2h-.79v-.73c-.2.32-.45.56-.72.7-.28.14-.6.21-.96.21-.58,0-1.08-.25-1.51-.73-.42-.49-.64-1.14-.64-1.96,0-.76.19-1.42.58-1.98.39-.56.94-.84,1.66-.84.4,0,.73.08,1,.25ZM145.17,175.48c.24.38.62.57,1.14.57.4,0,.74-.17,1-.52.26-.35.39-.85.39-1.51s-.13-1.15-.4-1.47c-.27-.32-.6-.48-1-.48-.44,0-.8.17-1.07.51-.27.34-.41.84-.41,1.49,0,.56.12,1.03.35,1.41Z"/>
        <path class="cls-1" d="M153.05,171.55c.35.17.61.4.79.68.17.26.29.57.35.92.05.24.08.62.08,1.15h-3.8c.02.53.14.96.37,1.28.23.32.59.48,1.08.48.46,0,.82-.15,1.09-.46.15-.18.26-.38.32-.61h.86c-.02.19-.1.41-.23.64-.13.24-.27.43-.43.58-.27.26-.59.44-.98.53-.21.05-.45.08-.71.08-.65,0-1.2-.24-1.65-.71s-.67-1.14-.67-1.99.23-1.52.68-2.05c.45-.52,1.04-.79,1.78-.79.37,0,.73.09,1.07.26ZM153.36,173.6c-.04-.38-.12-.68-.25-.91-.24-.42-.64-.63-1.2-.63-.4,0-.74.15-1.01.44-.27.29-.41.66-.43,1.11h2.88Z"/>
      </g>
    </g>
    <g>
      <line class="cls-3" x1="750.27" y1="129.07" x2="763.76" y2="129.07"/>
      <polygon class="cls-1" points="763.03 131.56 767.34 129.07 763.03 126.58 763.03 131.56"/>
    </g>
    <g>
      <line class="cls-3" x1="598.08" y1="129.07" x2="696.98" y2="129.07"/>
      <polygon class="cls-1" points="696.25 131.56 700.57 129.07 696.25 126.58 696.25 131.56"/>
    </g>
    <g>
      <line class="cls-3" x1="511.98" y1="129.07" x2="527.65" y2="129.07"/>
      <polygon class="cls-1" points="526.92 131.56 531.24 129.07 526.92 126.58 526.92 131.56"/>
    </g>
    <g>
      <line class="cls-3" x1="370.69" y1="129.07" x2="386.36" y2="129.07"/>
      <polygon class="cls-1" points="385.63 131.56 389.95 129.07 385.63 126.58 385.63 131.56"/>
    </g>
    <g>
      <line class="cls-3" x1="301.73" y1="129.07" x2="317.4" y2="129.07"/>
      <polygon class="cls-1" points="316.67 131.56 320.99 129.07 316.67 126.58 316.67 131.56"/>
    </g>
    <line class="cls-5" x1="455.36" y1="129.07" x2="464.9" y2="129.07"/>
    <g>
      <line class="cls-3" x1="229.35" y1="129.07" x2="245.02" y2="129.07"/>
      <polygon class="cls-1" points="244.29 131.56 248.6 129.07 244.29 126.58 244.29 131.56"/>
    </g>
    <g>
      <line class="cls-3" x1="160.38" y1="129.07" x2="176.05" y2="129.07"/>
      <polygon class="cls-1" points="175.32 131.56 179.64 129.07 175.32 126.58 175.32 131.56"/>
    </g>
    <g>
      <line class="cls-3" x1="81.24" y1="129.07" x2="96.91" y2="129.07"/>
      <polygon class="cls-1" points="96.18 131.56 100.5 129.07 96.18 126.58 96.18 131.56"/>
    </g>
    <g>
      <line class="cls-3" x1="781.31" y1="84.66" x2="794.8" y2="84.66"/>
      <polygon class="cls-1" points="794.07 87.15 798.39 84.66 794.07 82.17 794.07 87.15"/>
    </g>
    <g>
      <line class="cls-3" x1="781.31" y1="117.67" x2="794.8" y2="117.67"/>
      <polygon class="cls-1" points="794.07 120.16 798.39 117.67 794.07 115.18 794.07 120.16"/>
    </g>
    <g>
      <line class="cls-3" x1="781.31" y1="150.68" x2="794.8" y2="150.68"/>
      <polygon class="cls-1" points="794.07 153.17 798.39 150.68 794.07 148.18 794.07 153.17"/>
    </g>
    <g>
      <line class="cls-3" x1="781.31" y1="183.68" x2="794.8" y2="183.68"/>
      <polygon class="cls-1" points="794.07 186.18 798.39 183.68 794.07 181.19 794.07 186.18"/>
    </g>
    <g>
      <line class="cls-3" x1="781.31" y1="216.69" x2="794.8" y2="216.69"/>
      <polygon class="cls-1" points="794.07 219.19 798.39 216.69 794.07 214.2 794.07 219.19"/>
    </g>
    <g>
      <line class="cls-3" x1="914.47" y1="84.66" x2="927.95" y2="84.66"/>
      <polygon class="cls-1" points="927.22 87.15 931.54 84.66 927.22 82.17 927.22 87.15"/>
    </g>
    <g>
      <line class="cls-3" x1="914.47" y1="117.67" x2="927.95" y2="117.67"/>
      <polygon class="cls-1" points="927.22 120.16 931.54 117.67 927.22 115.18 927.22 120.16"/>
    </g>
    <g>
      <line class="cls-3" x1="914.47" y1="150.68" x2="927.95" y2="150.68"/>
      <polygon class="cls-1" points="927.22 153.17 931.54 150.68 927.22 148.18 927.22 153.17"/>
    </g>
    <g>
      <line class="cls-3" x1="914.47" y1="183.68" x2="927.95" y2="183.68"/>
      <polygon class="cls-1" points="927.22 186.18 931.54 183.68 927.22 181.19 927.22 186.18"/>
    </g>
    <g>
      <line class="cls-3" x1="914.47" y1="216.69" x2="927.95" y2="216.69"/>
      <polygon class="cls-1" points="927.22 219.19 931.54 216.69 927.22 214.2 927.22 219.19"/>
    </g>
    <polygon class="cls-4" points="767.34 212.29 781.06 225.94 781.06 75.41 767.34 89.06 767.34 212.29"/>
    <polygon class="cls-4" points="945.25 212.29 931.54 225.94 931.54 75.41 945.25 89.06 945.25 212.29"/>
    <g>
      <line class="cls-3" x1="945.25" y1="129.64" x2="958.53" y2="129.64"/>
      <polygon class="cls-1" points="957.8 132.13 962.12 129.64 957.8 127.14 957.8 132.13"/>
    </g>
    <g>
      <polyline class="cls-3" points="992.63 110.15 992.63 52.61 564.66 52.61 564.66 106.57"/>
      <polygon class="cls-1" points="562.17 105.84 564.66 110.15 567.15 105.84 562.17 105.84"/>
    </g>
    <g>
      <polyline class="cls-3" points="564.66 52.61 422.61 52.61 422.61 106.57"/>
      <polygon class="cls-1" points="420.12 105.84 422.61 110.15 425.1 105.84 420.12 105.84"/>
    </g>
    <g>
      <line class="cls-3" x1="130.55" y1="147.99" x2="130.55" y2="158.31"/>
      <polygon class="cls-1" points="128.06 157.59 130.55 161.9 133.04 157.59 128.06 157.59"/>
    </g>
    <g>
      <polyline class="cls-3" points="100.5 173.58 45.68 173.58 45.68 151.57"/>
      <polygon class="cls-1" points="48.18 152.3 45.68 147.99 43.19 152.3 48.18 152.3"/>
    </g>
    <circle class="cls-1" cx="564.66" cy="52.61" r="1.47"/>
  </g>
</svg>