<?xml version="1.0" encoding="UTF-8"?>
<svg id="Layer_2" data-name="Layer 2" xmlns="http://www.w3.org/2000/svg" viewBox="0 0 326.73 512.8">
  <defs>
    <style>
      .cls-1, .cls-2, .cls-3 {
        fill: none;
      }

      .cls-4, .cls-2, .cls-5, .cls-6, .cls-7, .cls-8, .cls-9, .cls-10, .cls-11, .cls-12 {
        stroke: #231f20;
      }

      .cls-4, .cls-2, .cls-5, .cls-6, .cls-7, .cls-8, .cls-9, .cls-10, .cls-11, .cls-12, .cls-3 {
        stroke-miterlimit: 10;
      }

      .cls-4, .cls-13 {
        fill: #fcb515;
      }

      .cls-5 {
        fill: #ffe8bb;
      }

      .cls-6 {
        fill: #47535e;
      }

      .cls-7 {
        fill: #dd9fb4;
      }

      .cls-8 {
        fill: #e0e8f0;
      }

      .cls-14 {
        fill: #231f20;
      }

      .cls-9 {
        fill: #f2f2f3;
      }

      .cls-15 {
        fill: #f1f2f2;
      }

      .cls-10 {
        fill: #c8d2d8;
      }

      .cls-11 {
        fill: #fff;
      }

      .cls-12 {
        fill: #ee3160;
      }

      .cls-3 {
        stroke: #fcb515;
      }
    </style>
  </defs>
  <g id="Background">
    <rect class="cls-11" x="104.63" y=".5" width="221.61" height="300.82"/>
    <rect class="cls-11" x="99.63" y="5.5" width="221.61" height="300.82"/>
    <rect class="cls-11" x="94.63" y="10.5" width="221.61" height="300.82"/>
    <g>
      <rect class="cls-1" x="106.62" y="19.12" width="154.61" height="18.33"/>
      <path class="cls-14" d="M111.97,29.37h-2.17v3.95h-2.06v-10.08h4.94c.71.01,1.25.1,1.63.26.38.16.7.39.97.7.22.26.39.54.52.85.13.31.19.66.19,1.06,0,.48-.12.95-.36,1.41-.24.46-.64.79-1.2.98.46.19.79.45.99.8.19.34.29.87.29,1.58v.68c0,.46.02.77.05.94.05.26.18.45.38.57v.25h-2.32c-.06-.22-.11-.4-.14-.54-.05-.28-.08-.57-.09-.87v-.94c-.02-.64-.14-1.07-.37-1.29-.23-.21-.65-.32-1.27-.32ZM113.24,27.54c.42-.19.63-.57.63-1.13,0-.61-.2-1.02-.61-1.23-.23-.12-.57-.18-1.03-.18h-2.45v2.71h2.38c.47,0,.83-.05,1.07-.16Z"/>
      <path class="cls-14" d="M117.92,26.68c.52-.66,1.4-.98,2.65-.98.82,0,1.54.16,2.17.49.63.32.95.93.95,1.83v3.42c0,.24,0,.52.01.86.01.26.05.43.12.52.06.09.16.17.29.23v.29h-2.12c-.06-.15-.1-.29-.12-.42-.02-.13-.04-.28-.05-.45-.27.29-.58.54-.93.75-.42.24-.89.36-1.42.36-.67,0-1.23-.19-1.67-.58-.44-.39-.66-.93-.66-1.64,0-.92.35-1.58,1.06-1.99.39-.22.96-.38,1.71-.48l.66-.08c.36-.04.62-.1.77-.17.28-.12.42-.3.42-.55,0-.3-.11-.52-.32-.63s-.52-.17-.93-.17c-.46,0-.79.11-.98.34-.14.17-.23.4-.27.68h-1.88c.04-.65.22-1.19.55-1.61ZM119.37,31.92c.18.15.41.23.67.23.42,0,.81-.12,1.16-.37s.54-.69.55-1.35v-.72c-.12.08-.25.14-.37.19s-.3.09-.52.13l-.44.08c-.41.07-.7.16-.88.27-.3.18-.45.45-.45.83,0,.33.09.57.28.72Z"/>
      <path class="cls-14" d="M132.21,23.26v10.06h-1.89v-1.03c-.28.44-.6.76-.95.96-.36.2-.8.3-1.33.3-.87,0-1.6-.35-2.2-1.06s-.89-1.61-.89-2.71c0-1.27.29-2.27.88-3,.59-.73,1.37-1.09,2.35-1.09.45,0,.85.1,1.2.3.35.2.64.47.86.82v-3.55h1.97ZM126.96,29.65c0,.69.14,1.24.41,1.65.27.42.68.62,1.23.62s.97-.21,1.26-.62.43-.94.43-1.59c0-.91-.23-1.56-.69-1.96-.28-.24-.61-.36-.98-.36-.57,0-.99.22-1.25.65s-.4.96-.4,1.6Z"/>
      <path class="cls-14" d="M135.98,23.19v1.8h-1.97v-1.8h1.97ZM135.98,25.87v7.45h-1.97v-7.45h1.97Z"/>
      <path class="cls-14" d="M138.15,26.68c.51-.66,1.4-.98,2.65-.98.82,0,1.54.16,2.17.49.63.32.95.93.95,1.83v3.42c0,.24,0,.52.01.86.01.26.05.43.12.52.06.09.16.17.29.23v.29h-2.12c-.06-.15-.1-.29-.12-.42-.02-.13-.04-.28-.05-.45-.27.29-.58.54-.93.75-.42.24-.89.36-1.42.36-.67,0-1.23-.19-1.67-.58-.44-.39-.66-.93-.66-1.64,0-.92.35-1.58,1.06-1.99.39-.22.96-.38,1.71-.48l.66-.08c.36-.04.62-.1.77-.17.28-.12.42-.3.42-.55,0-.3-.11-.52-.32-.63s-.52-.17-.93-.17c-.46,0-.79.11-.98.34-.14.17-.23.4-.27.68h-1.88c.04-.65.22-1.19.55-1.61ZM139.6,31.92c.18.15.41.23.67.23.42,0,.8-.12,1.16-.37s.54-.69.55-1.35v-.72c-.12.08-.25.14-.37.19s-.3.09-.52.13l-.44.08c-.41.07-.71.16-.88.27-.3.18-.45.45-.45.83,0,.33.09.57.28.72Z"/>
      <path class="cls-14" d="M149.16,27.32c-.66,0-1.11.28-1.36.84-.13.3-.19.67-.19,1.13v4.03h-1.94v-7.44h1.88v1.09c.25-.38.49-.66.71-.83.4-.3.91-.45,1.53-.45.77,0,1.4.2,1.89.61s.74,1.07.74,2.01v5.02h-2v-4.53c0-.39-.05-.69-.16-.9-.19-.38-.56-.57-1.09-.57Z"/>
      <path class="cls-14" d="M160.65,28.55h-2c-.04-.28-.13-.53-.28-.75-.22-.3-.56-.45-1.02-.45-.66,0-1.11.33-1.35.98-.13.35-.19.81-.19,1.38s.06.99.19,1.32c.23.62.67.93,1.31.93.46,0,.78-.12.97-.37s.31-.56.35-.96h1.99c-.04.59-.26,1.15-.64,1.68-.61.85-1.51,1.28-2.71,1.28s-2.08-.36-2.65-1.07c-.56-.71-.85-1.63-.85-2.77,0-1.28.31-2.28.94-2.99.62-.71,1.49-1.07,2.58-1.07.93,0,1.7.21,2.29.63.59.42.95,1.16,1.06,2.22Z"/>
      <path class="cls-14" d="M168.37,31.14c-.05.44-.28.89-.69,1.35-.64.72-1.53,1.09-2.68,1.09-.95,0-1.79-.3-2.51-.92-.72-.61-1.09-1.6-1.09-2.98,0-1.29.33-2.28.98-2.97.65-.69,1.5-1.03,2.55-1.03.62,0,1.18.12,1.67.35.5.23.91.6,1.23,1.1.29.44.48.96.57,1.54.05.34.07.83.06,1.48h-5.1c.03.75.26,1.27.71,1.57.27.19.59.28.97.28.4,0,.73-.11.98-.34.14-.12.26-.29.36-.51h1.99ZM166.44,28.85c-.03-.51-.19-.91-.47-1.17s-.63-.4-1.04-.4c-.45,0-.8.14-1.05.42-.25.28-.4.67-.47,1.15h3.03Z"/>
      <path class="cls-14" d="M180.51,23.57c.98.52,1.58,1.44,1.8,2.75h-1.35c-.16-.73-.49-1.27-1-1.6s-1.14-.5-1.91-.5c-.91,0-1.68.35-2.3,1.05-.62.7-.93,1.74-.93,3.12,0,1.19.26,2.17.77,2.92.51.75,1.35,1.12,2.51,1.12.89,0,1.62-.26,2.21-.79.58-.53.88-1.38.89-2.55h-3.14v-1.13h4.41v5.37h-.88l-.33-1.29c-.45.51-.85.86-1.2,1.05-.59.34-1.33.51-2.24.51-1.17,0-2.18-.38-3.02-1.16-.92-.97-1.38-2.29-1.38-3.98s.45-3.02,1.35-4.01c.85-.95,1.96-1.42,3.31-1.42.93,0,1.73.18,2.41.55Z"/>
      <path class="cls-14" d="M184.84,23.28h4.49c.89,0,1.61.25,2.15.76.55.5.82,1.21.82,2.12,0,.78-.24,1.47-.73,2.05-.49.58-1.23.87-2.24.87h-3.13v4.25h-1.36v-10.04ZM190.12,24.66c-.3-.14-.71-.21-1.23-.21h-2.69v3.48h2.69c.61,0,1.1-.13,1.48-.39s.57-.72.57-1.37c0-.74-.27-1.24-.81-1.5Z"/>
      <path class="cls-14" d="M195.52,23.28v6.21c0,.73.14,1.34.41,1.82.41.73,1.1,1.09,2.07,1.09,1.16,0,1.95-.39,2.37-1.18.22-.43.34-1,.34-1.73v-6.21h1.37v5.64c0,1.24-.17,2.19-.5,2.85-.61,1.21-1.77,1.82-3.47,1.82s-2.86-.61-3.46-1.82c-.33-.67-.5-1.62-.5-2.85v-5.64h1.37Z"/>
      <path class="cls-14" d="M215.15,24.01c.69.67,1.08,1.43,1.16,2.28h-1.33c-.15-.65-.44-1.16-.88-1.54-.44-.38-1.06-.57-1.86-.57-.97,0-1.75.35-2.35,1.04-.6.7-.9,1.76-.9,3.2,0,1.18.27,2.13.81,2.86s1.34,1.1,2.41,1.1c.98,0,1.73-.38,2.25-1.16.27-.41.48-.94.61-1.6h1.33c-.12,1.06-.5,1.94-1.16,2.66-.79.86-1.85,1.29-3.19,1.29-1.15,0-2.12-.35-2.91-1.06-1.03-.94-1.55-2.38-1.55-4.33,0-1.48.39-2.7,1.16-3.65.84-1.03,1.99-1.55,3.46-1.55,1.26,0,2.23.33,2.93,1Z"/>
      <path class="cls-14" d="M218.03,23.28h1.23v10.04h-1.23v-10.04Z"/>
      <path class="cls-14" d="M222.34,26v4.86c0,.37.06.68.17.92.21.44.61.66,1.19.66.83,0,1.4-.38,1.7-1.15.16-.41.25-.97.25-1.69v-3.6h1.23v7.32h-1.16v-1.08c-.14.28-.34.51-.57.7-.46.38-1.02.57-1.68.57-1.02,0-1.72-.35-2.09-1.05-.2-.37-.3-.87-.3-1.5v-4.98h1.26Z"/>
      <path class="cls-14" d="M229.63,31.03c.04.41.14.72.31.94.32.4.87.59,1.65.59.47,0,.87-.1,1.23-.3s.53-.5.53-.92c0-.31-.14-.55-.42-.72-.18-.1-.54-.22-1.07-.35l-.99-.25c-.63-.15-1.1-.33-1.4-.52-.54-.33-.81-.79-.81-1.38,0-.69.25-1.25.76-1.68.5-.43,1.19-.64,2.04-.64,1.12,0,1.92.32,2.42.97.31.41.46.85.45,1.33h-1.16c-.02-.28-.12-.53-.3-.75-.29-.32-.79-.48-1.51-.48-.47,0-.84.09-1.08.27-.25.18-.37.41-.37.7,0,.32.16.57.48.76.19.11.46.21.82.3l.83.2c.9.21,1.5.42,1.81.62.48.31.72.81.72,1.48s-.25,1.21-.75,1.69c-.5.47-1.26.71-2.29.71-1.1,0-1.88-.25-2.34-.74-.46-.5-.71-1.11-.74-1.84h1.18Z"/>
      <path class="cls-14" d="M236.14,23.96h1.24v2.04h1.17v1h-1.17v4.78c0,.26.09.43.26.51.1.05.26.08.48.08.06,0,.12,0,.19,0s.15-.01.24-.02v.98c-.14.04-.29.07-.44.09-.15.02-.32.03-.5.03-.57,0-.96-.15-1.17-.44s-.31-.68-.31-1.15v-4.85h-.99v-1h.99v-2.04Z"/>
      <path class="cls-14" d="M244.31,26.2c.48.24.85.56,1.11.95.24.37.41.8.49,1.29.07.34.11.88.11,1.61h-5.32c.02.75.2,1.34.52,1.79.33.45.83.67,1.51.67.64,0,1.15-.21,1.53-.64.21-.25.36-.53.45-.86h1.21c-.03.27-.14.57-.32.9-.18.33-.38.6-.6.81-.37.37-.83.61-1.38.74-.29.07-.63.11-1,.11-.91,0-1.67-.33-2.3-.99-.63-.66-.95-1.59-.95-2.79s.32-2.13.95-2.86c.63-.73,1.46-1.1,2.49-1.1.52,0,1.02.12,1.5.37ZM244.75,29.08c-.05-.53-.17-.96-.35-1.28-.33-.59-.89-.89-1.67-.89-.56,0-1.03.2-1.41.61-.38.41-.58.93-.6,1.55h4.03Z"/>
      <path class="cls-14" d="M247.6,26h1.17v1.26c.1-.25.33-.55.71-.9.37-.35.8-.53,1.29-.53.02,0,.06,0,.12,0,.05,0,.15.01.28.03v1.3c-.07-.01-.14-.02-.2-.03-.06,0-.13,0-.2,0-.62,0-1.1.2-1.43.6-.33.4-.5.86-.5,1.38v4.21h-1.23v-7.32Z"/>
    </g>
  </g>
  <g id="Main">
    <rect class="cls-8" x="106.48" y="46.31" width="78.82" height="58.01"/>
    <g>
      <rect class="cls-1" x="115.25" y="50.93" width="60.06" height="18.33"/>
      <path class="cls-14" d="M123.15,64.41h-1.8l-3.53-6.13v6.13h-1.68v-8.64h1.89l3.44,6.03v-6.03h1.68v8.64Z"/>
      <path class="cls-14" d="M130.17,62.53c-.04.38-.24.76-.59,1.15-.55.62-1.31.93-2.3.93-.81,0-1.53-.26-2.15-.79s-.93-1.38-.93-2.55c0-1.11.28-1.95.84-2.54s1.29-.88,2.18-.88c.53,0,1.01.1,1.44.3s.78.51,1.05.94c.25.38.41.82.49,1.32.04.29.06.71.05,1.27h-4.37c.02.64.22,1.09.6,1.35.23.16.51.24.83.24.34,0,.62-.1.84-.29.12-.11.22-.25.31-.44h1.71ZM128.51,60.58c-.03-.44-.16-.78-.4-1s-.54-.34-.89-.34c-.39,0-.69.12-.9.36s-.35.57-.4.98h2.6Z"/>
      <path class="cls-14" d="M135.47,63.5s-.05.08-.12.18-.14.18-.22.26c-.26.23-.52.39-.76.48s-.53.13-.86.13c-.95,0-1.58-.34-1.91-1.02-.18-.38-.28-.93-.28-1.66v-3.85h1.71v3.85c0,.36.04.64.13.82.15.32.45.49.9.49.57,0,.96-.23,1.17-.69.11-.25.16-.58.16-.99v-3.47h1.69v6.39h-1.62v-.9Z"/>
      <path class="cls-14" d="M141.63,63.22v1.25l-.79.03c-.79.03-1.33-.11-1.62-.41-.19-.19-.28-.49-.28-.88v-3.93h-.89v-1.19h.89v-1.78h1.65v1.78h1.04v1.19h-1.04v3.38c0,.26.03.42.1.49s.27.1.61.1c.05,0,.1,0,.16,0s.11,0,.17,0Z"/>
      <path class="cls-14" d="M145.91,59.56c-.67,0-1.12.22-1.35.66-.13.25-.19.62-.19,1.14v3.05h-1.68v-6.39h1.59v1.11c.26-.43.48-.72.67-.87.31-.26.72-.39,1.22-.39.03,0,.06,0,.08,0s.07,0,.14,0v1.71c-.11-.01-.2-.02-.28-.02s-.15,0-.2,0Z"/>
      <path class="cls-14" d="M149.09,55.72v1.54h-1.69v-1.54h1.69ZM149.09,58.02v6.39h-1.69v-6.39h1.69Z"/>
      <path class="cls-14" d="M153.71,59.26c-.57,0-.96.24-1.17.72-.11.25-.16.58-.16.97v3.46h-1.66v-6.38h1.61v.93c.21-.33.42-.56.61-.71.34-.26.78-.39,1.31-.39.66,0,1.2.17,1.62.52s.63.92.63,1.72v4.3h-1.71v-3.88c0-.34-.04-.59-.13-.77-.16-.33-.48-.49-.94-.49Z"/>
      <path class="cls-14" d="M163.36,58.83c.54.68.81,1.47.81,2.4s-.27,1.74-.81,2.41-1.36,1-2.46,1-1.92-.33-2.46-1-.81-1.47-.81-2.41.27-1.72.81-2.4,1.36-1.01,2.46-1.01,1.92.34,2.46,1.01ZM160.9,59.23c-.49,0-.87.17-1.13.52s-.39.84-.39,1.48.13,1.13.39,1.48.64.52,1.13.52.86-.17,1.12-.52.39-.84.39-1.48-.13-1.13-.39-1.48-.64-.52-1.12-.52Z"/>
    </g>
    <g>
      <line class="cls-2" x1="146.87" y1="109.46" x2="146.87" y2="104.32"/>
      <polygon class="cls-14" points="150.86 108.3 146.87 115.21 142.88 108.3 150.86 108.3"/>
    </g>
    <g>
      <line class="cls-2" x1="146.87" y1="206.28" x2="146.87" y2="201.13"/>
      <polygon class="cls-14" points="150.86 205.11 146.87 212.02 142.88 205.11 150.86 205.11"/>
    </g>
    <rect class="cls-9" x="106.48" y="115.21" width="78.82" height="86.29"/>
    <rect class="cls-11" x="115.84" y="140.88" width="59.21" height="22.24"/>
    <g>
      <rect class="cls-1" x="114.98" y="119.82" width="63.78" height="18.33"/>
      <path class="cls-14" d="M117.55,133.3h-1.68v-8.64h2.62l1.57,6.79,1.56-6.79h2.6v8.64h-1.68v-5.84c0-.17,0-.4,0-.71s0-.54,0-.7l-1.63,7.25h-1.75l-1.62-7.25c0,.16,0,.4,0,.7s0,.54,0,.71v5.84Z"/>
      <path class="cls-14" d="M129.85,132.4s-.05.08-.12.18-.14.18-.22.26c-.26.23-.51.39-.76.48s-.53.13-.86.13c-.95,0-1.58-.34-1.91-1.02-.18-.38-.28-.93-.28-1.66v-3.85h1.71v3.85c0,.36.04.64.13.82.15.32.45.49.9.49.57,0,.96-.23,1.17-.69.11-.25.16-.58.16-.99v-3.47h1.69v6.39h-1.62v-.9Z"/>
      <path class="cls-14" d="M138.41,127.73c.54.68.81,1.47.81,2.4s-.27,1.74-.81,2.41-1.36,1-2.46,1-1.92-.33-2.46-1-.81-1.47-.81-2.41.27-1.72.81-2.4,1.36-1.01,2.46-1.01,1.92.34,2.46,1.01ZM135.95,128.12c-.49,0-.86.17-1.13.52s-.4.84-.4,1.48.13,1.13.4,1.48.64.52,1.13.52.86-.17,1.12-.52.39-.84.39-1.48-.13-1.13-.39-1.48-.64-.52-1.12-.52Z"/>
      <path class="cls-14" d="M143.42,128.15c-.57,0-.96.24-1.17.72-.11.25-.16.58-.16.97v3.46h-1.66v-6.38h1.61v.93c.21-.33.42-.56.61-.71.34-.26.78-.39,1.31-.39.66,0,1.2.17,1.62.52s.63.92.63,1.72v4.3h-1.71v-3.88c0-.34-.04-.59-.13-.77-.16-.33-.48-.49-.94-.49Z"/>
      <path class="cls-14" d="M157.3,125.32c.59.57.92,1.23.99,1.96h-1.14c-.13-.55-.38-.99-.76-1.32s-.91-.49-1.59-.49c-.83,0-1.5.3-2.02.89-.51.6-.77,1.51-.77,2.74,0,1.01.23,1.83.69,2.45s1.15.94,2.07.94c.84,0,1.49-.33,1.93-.99.23-.35.41-.8.52-1.37h1.14c-.1.91-.43,1.67-1,2.28-.68.74-1.59,1.11-2.73,1.11-.99,0-1.82-.3-2.49-.91-.88-.8-1.33-2.04-1.33-3.71,0-1.27.33-2.31,1-3.12.72-.88,1.71-1.33,2.97-1.33,1.08,0,1.91.29,2.51.86Z"/>
      <path class="cls-14" d="M164.29,127.66c.55.54.83,1.33.83,2.38s-.25,1.85-.73,2.51-1.25.99-2.27.99c-.86,0-1.54-.29-2.04-.88-.5-.58-.76-1.37-.76-2.35,0-1.05.27-1.89.8-2.52.53-.62,1.25-.94,2.14-.94.8,0,1.48.27,2.04.81ZM163.63,131.83c.26-.53.39-1.12.39-1.76,0-.58-.09-1.06-.28-1.43-.29-.58-.8-.87-1.52-.87-.64,0-1.1.25-1.39.74s-.43,1.08-.43,1.78.15,1.22.43,1.67.75.67,1.38.67c.69,0,1.17-.26,1.42-.79Z"/>
      <path class="cls-14" d="M166.45,127.03h1v1.08c.08-.21.28-.47.6-.77s.69-.45,1.11-.45c.02,0,.05,0,.1,0s.13.01.24.02v1.11c-.06-.01-.12-.02-.17-.02s-.11,0-.17,0c-.53,0-.94.17-1.22.51s-.43.74-.43,1.18v3.61h-1.05v-6.28Z"/>
      <path class="cls-14" d="M174.29,127.2c.42.21.73.48.95.81.21.32.35.69.42,1.11.06.29.09.75.09,1.38h-4.56c.02.64.17,1.15.45,1.54.28.39.71.58,1.3.58.55,0,.98-.18,1.31-.55.18-.21.31-.46.39-.74h1.04c-.03.23-.12.49-.27.77s-.33.51-.52.69c-.32.31-.71.52-1.18.63-.25.06-.54.09-.85.09-.78,0-1.43-.28-1.97-.85-.54-.57-.81-1.36-.81-2.39s.27-1.83.82-2.46c.54-.63,1.25-.94,2.13-.94.44,0,.87.1,1.29.31ZM174.67,129.67c-.04-.46-.14-.82-.3-1.1-.29-.51-.77-.76-1.44-.76-.48,0-.88.17-1.21.52-.32.35-.5.79-.52,1.33h3.46Z"/>
    </g>
    <g>
      <rect class="cls-1" x="119.45" y="147.35" width="50.04" height="9.31"/>
      <path class="cls-14" d="M123.28,147.71l1.62,6.99,1.95-6.99h1.26l1.95,7.01,1.62-7.01h1.28l-2.26,8.61h-1.22l-1.99-7.14-2,7.14h-1.22l-2.25-8.61h1.27Z"/>
      <path class="cls-14" d="M134.79,153.54c.03.49.14.88.33,1.19.37.57,1.03.86,1.97.86.42,0,.81-.06,1.15-.19.67-.24,1-.68,1-1.3,0-.47-.14-.8-.43-1-.29-.2-.74-.37-1.35-.51l-1.13-.26c-.74-.17-1.26-.36-1.57-.57-.53-.36-.79-.9-.79-1.61,0-.77.26-1.41.78-1.9.52-.5,1.26-.74,2.21-.74.88,0,1.62.22,2.24.65.61.44.92,1.13.92,2.09h-1.1c-.06-.46-.18-.81-.36-1.06-.34-.45-.92-.67-1.74-.67-.66,0-1.13.14-1.42.43-.29.29-.43.62-.43,1.01,0,.42.17.73.51.93.22.12.73.28,1.52.47l1.17.28c.56.13,1,.31,1.3.54.53.4.79.99.79,1.75,0,.95-.34,1.63-1.01,2.04s-1.46.62-2.36.62c-1.04,0-1.86-.27-2.45-.82-.59-.54-.88-1.28-.87-2.21h1.1Z"/>
      <path class="cls-14" d="M146.04,150.38c.44.34.71.94.8,1.78h-1.03c-.06-.39-.21-.71-.43-.96s-.58-.38-1.07-.38c-.67,0-1.15.33-1.44.98-.19.42-.28.95-.28,1.57s.13,1.16.4,1.59c.27.43.68.64,1.25.64.44,0,.79-.13,1.04-.4s.43-.63.53-1.09h1.03c-.12.83-.41,1.44-.88,1.83s-1.07.58-1.8.58c-.82,0-1.47-.3-1.96-.9s-.73-1.35-.73-2.25c0-1.1.27-1.96.8-2.57s1.22-.92,2.04-.92c.71,0,1.28.17,1.73.52Z"/>
      <path class="cls-14" d="M147.89,147.68h1.05v3.21c.25-.32.47-.54.67-.67.34-.22.76-.33,1.27-.33.91,0,1.53.32,1.85.96.18.35.26.83.26,1.45v4.03h-1.08v-3.96c0-.46-.06-.8-.18-1.01-.19-.34-.55-.52-1.08-.52-.44,0-.83.15-1.19.45s-.53.87-.53,1.71v3.33h-1.05v-8.64Z"/>
      <path class="cls-14" d="M158.44,150.22c.42.21.73.48.95.81.21.32.35.69.42,1.11.06.29.09.75.09,1.38h-4.56c.02.64.17,1.15.45,1.54.28.39.71.58,1.3.58.55,0,.98-.18,1.31-.55.18-.21.31-.46.39-.74h1.04c-.03.23-.12.49-.27.77s-.33.51-.52.69c-.32.31-.71.52-1.18.63-.25.06-.54.09-.86.09-.78,0-1.43-.28-1.97-.85-.54-.57-.81-1.36-.81-2.39s.27-1.83.82-2.46c.54-.63,1.25-.94,2.13-.94.44,0,.87.1,1.29.31ZM158.82,152.68c-.04-.46-.14-.82-.3-1.1-.29-.51-.76-.76-1.43-.76-.48,0-.88.17-1.21.52s-.5.79-.52,1.33h3.46Z"/>
      <path class="cls-14" d="M164.69,150.24c.19.12.4.32.64.62v-3.17h1.01v8.64h-.95v-.87c-.24.39-.54.67-.87.84-.33.17-.72.26-1.15.26-.7,0-1.3-.29-1.81-.88s-.77-1.37-.77-2.35c0-.91.23-1.71.7-2.38.47-.67,1.13-1,1.99-1,.48,0,.88.1,1.2.3ZM162.33,154.94c.28.45.74.68,1.36.68.49,0,.89-.21,1.2-.63s.47-1.02.47-1.81-.16-1.38-.48-1.76-.72-.57-1.2-.57c-.53,0-.96.2-1.29.61-.33.41-.49,1-.49,1.79,0,.67.14,1.23.43,1.69Z"/>
    </g>
    <rect class="cls-11" x="148.6" y="169.18" width="26.45" height="22.24"/>
    <g>
      <rect class="cls-1" x="153.14" y="171.13" width="17.36" height="18.33"/>
      <path class="cls-14" d="M154.85,176h5.97v1.05h-4.8v2.61h4.22v1.03h-4.22v3.91h-1.17v-8.61Z"/>
      <path class="cls-14" d="M163.33,176v5.32c0,.62.12,1.14.36,1.56.35.62.94.94,1.77.94,1,0,1.67-.34,2.03-1.01.19-.37.29-.86.29-1.48v-5.32h1.18v4.83c0,1.06-.14,1.87-.43,2.44-.53,1.04-1.52,1.56-2.98,1.56s-2.45-.52-2.97-1.56c-.29-.57-.43-1.38-.43-2.44v-4.83h1.18Z"/>
    </g>
    <rect class="cls-11" x="115.84" y="169.18" width="26.45" height="22.24"/>
    <g>
      <rect class="cls-1" x="120.38" y="171.13" width="17.36" height="18.33"/>
      <path class="cls-14" d="M122.12,176h3.91c.64,0,1.18.1,1.59.29.79.37,1.19,1.04,1.19,2.03,0,.52-.11.94-.32,1.27s-.51.59-.89.79c.34.14.59.32.76.54s.27.58.29,1.08l.04,1.15c.01.33.04.57.08.73.07.27.2.45.38.53v.19h-1.43c-.04-.07-.07-.17-.09-.29s-.04-.34-.06-.68l-.07-1.44c-.03-.56-.23-.94-.61-1.13-.22-.11-.56-.16-1.02-.16h-2.58v3.69h-1.17v-8.61ZM125.91,179.95c.53,0,.95-.11,1.26-.33s.46-.61.46-1.18c0-.61-.22-1.03-.65-1.25-.23-.12-.54-.18-.93-.18h-2.77v2.94h2.62Z"/>
      <path class="cls-14" d="M130.75,176h5.97v1.05h-4.8v2.61h4.22v1.03h-4.22v3.91h-1.17v-8.61Z"/>
    </g>
    <rect class="cls-11" x="115.84" y="72.44" width="59.21" height="22.24"/>
    <g>
      <rect class="cls-1" x="120.77" y="74.39" width="50.51" height="18.33"/>
      <path class="cls-14" d="M123.35,85.1c.03.49.14.88.33,1.19.37.57,1.03.86,1.97.86.42,0,.81-.06,1.15-.19.67-.24,1-.68,1-1.3,0-.47-.14-.8-.43-1-.29-.2-.74-.37-1.35-.51l-1.13-.26c-.74-.17-1.26-.36-1.57-.57-.53-.36-.79-.9-.79-1.61,0-.77.26-1.41.78-1.9.52-.5,1.26-.74,2.21-.74.88,0,1.62.22,2.24.65.61.44.92,1.13.92,2.09h-1.1c-.06-.46-.18-.81-.36-1.06-.34-.45-.92-.67-1.74-.67-.66,0-1.13.14-1.42.43-.29.29-.43.62-.43,1.01,0,.42.17.73.51.93.22.12.73.28,1.52.47l1.17.28c.56.13,1,.31,1.3.54.53.4.79.99.79,1.75,0,.95-.34,1.63-1.01,2.04s-1.46.62-2.36.62c-1.04,0-1.86-.27-2.45-.82-.59-.54-.88-1.28-.87-2.21h1.1Z"/>
      <path class="cls-14" d="M136.68,79.89c.59.57.93,1.23.99,1.96h-1.14c-.13-.55-.38-.99-.76-1.32-.38-.32-.91-.49-1.59-.49-.83,0-1.5.3-2.02.89-.51.6-.77,1.51-.77,2.74,0,1.01.23,1.83.69,2.45.46.63,1.15.94,2.07.94.84,0,1.49-.33,1.93-.99.23-.35.41-.8.52-1.37h1.14c-.1.91-.43,1.67-1,2.28-.68.74-1.59,1.11-2.73,1.11-.99,0-1.82-.3-2.49-.91-.88-.8-1.33-2.04-1.33-3.71,0-1.27.33-2.31,1-3.12.72-.88,1.71-1.33,2.97-1.33,1.08,0,1.91.29,2.51.86Z"/>
      <path class="cls-14" d="M139.23,79.27h3.72c1.01,0,1.74.3,2.16.9.25.36.38.77.38,1.23,0,.54-.15.99-.46,1.34-.16.18-.39.35-.69.5.44.17.77.36.99.57.39.38.58.89.58,1.55,0,.55-.17,1.06-.52,1.51-.52.67-1.35,1.01-2.49,1.01h-3.66v-8.61ZM142.52,82.9c.5,0,.88-.07,1.16-.21.43-.21.65-.6.65-1.16s-.23-.94-.69-1.14c-.26-.11-.65-.16-1.16-.16h-2.1v2.67h2.14ZM142.91,86.88c.72,0,1.24-.21,1.54-.62.19-.26.29-.58.29-.95,0-.62-.28-1.05-.85-1.28-.3-.12-.7-.18-1.19-.18h-2.34v3.03h2.54Z"/>
      <path class="cls-14" d="M151.67,82.22c.55.54.83,1.33.83,2.38s-.24,1.85-.73,2.51c-.49.66-1.25.99-2.28.99-.86,0-1.54-.29-2.04-.88-.5-.58-.76-1.37-.76-2.35,0-1.05.27-1.89.8-2.52.53-.62,1.25-.94,2.14-.94.8,0,1.48.27,2.04.81ZM151.02,86.39c.26-.53.38-1.12.38-1.76,0-.58-.09-1.06-.28-1.43-.29-.58-.8-.87-1.52-.87-.64,0-1.1.25-1.39.74-.29.49-.44,1.08-.44,1.78s.15,1.22.44,1.67c.29.45.75.67,1.38.67.69,0,1.17-.26,1.42-.79Z"/>
      <path class="cls-14" d="M157.16,84.08c.24-.03.4-.13.49-.3.05-.09.07-.23.07-.41,0-.36-.13-.62-.38-.79-.25-.16-.62-.24-1.1-.24-.55,0-.94.15-1.17.45-.13.17-.21.41-.25.74h-.98c.02-.78.27-1.32.75-1.62.48-.3,1.04-.46,1.68-.46.74,0,1.34.14,1.8.42.46.28.68.72.68,1.31v3.62c0,.11.02.2.07.26.04.07.14.1.28.1.05,0,.1,0,.16,0s.12-.01.19-.03v.78c-.16.05-.29.08-.38.09s-.2.02-.35.02c-.36,0-.63-.13-.79-.39-.09-.14-.15-.33-.18-.58-.21.28-.52.53-.93.73s-.85.31-1.33.31c-.58,0-1.06-.18-1.43-.53-.37-.35-.55-.79-.55-1.33,0-.58.18-1.03.54-1.35.36-.32.84-.52,1.43-.59l1.68-.21ZM154.94,86.92c.22.18.49.26.79.26.37,0,.73-.09,1.08-.26.59-.29.88-.75.88-1.4v-.85c-.13.08-.29.15-.5.21-.2.05-.4.09-.6.12l-.64.08c-.38.05-.67.13-.86.24-.33.18-.49.48-.49.88,0,.3.11.54.33.72Z"/>
      <path class="cls-14" d="M160.5,81.6h1v1.08c.08-.21.28-.47.6-.77s.69-.45,1.11-.45c.02,0,.05,0,.1,0s.13.01.24.02v1.11c-.06-.01-.12-.02-.17-.02s-.11,0-.17,0c-.53,0-.94.17-1.22.51s-.43.74-.43,1.18v3.61h-1.05v-6.28Z"/>
      <path class="cls-14" d="M167.92,81.79c.19.12.4.32.64.62v-3.17h1.01v8.64h-.95v-.87c-.24.39-.54.67-.87.84-.33.17-.72.26-1.15.26-.7,0-1.3-.29-1.81-.88s-.77-1.37-.77-2.35c0-.91.23-1.71.7-2.38.47-.67,1.13-1,1.99-1,.48,0,.88.1,1.2.3ZM165.56,86.5c.28.45.74.68,1.36.68.49,0,.89-.21,1.2-.63s.47-1.02.47-1.81-.16-1.38-.48-1.76-.72-.57-1.2-.57c-.53,0-.96.2-1.29.61-.33.41-.49,1-.49,1.79,0,.67.14,1.23.43,1.69Z"/>
    </g>
    <rect class="cls-9" x="106.48" y="212.38" width="78.82" height="86.29"/>
    <rect class="cls-11" x="115.84" y="238.06" width="59.21" height="22.24"/>
    <g>
      <rect class="cls-1" x="114.98" y="217" width="63.78" height="18.33"/>
      <path class="cls-14" d="M117.55,230.48h-1.68v-8.64h2.62l1.57,6.79,1.56-6.79h2.6v8.64h-1.68v-5.84c0-.17,0-.4,0-.71s0-.54,0-.7l-1.63,7.25h-1.75l-1.62-7.25c0,.16,0,.4,0,.7s0,.54,0,.71v5.84Z"/>
      <path class="cls-14" d="M129.85,229.58s-.05.08-.12.18-.14.18-.22.26c-.26.23-.51.39-.76.48s-.53.13-.86.13c-.95,0-1.58-.34-1.91-1.02-.18-.38-.28-.93-.28-1.66v-3.85h1.71v3.85c0,.36.04.64.13.82.15.32.45.49.9.49.57,0,.96-.23,1.17-.69.11-.25.16-.58.16-.99v-3.47h1.69v6.39h-1.62v-.9Z"/>
      <path class="cls-14" d="M138.41,224.91c.54.68.81,1.47.81,2.4s-.27,1.74-.81,2.4-1.36,1-2.46,1-1.92-.33-2.46-1-.81-1.47-.81-2.4.27-1.72.81-2.4,1.36-1.01,2.46-1.01,1.92.34,2.46,1.01ZM135.95,225.3c-.49,0-.86.17-1.13.52s-.4.84-.4,1.48.13,1.13.4,1.48.64.52,1.13.52.86-.17,1.12-.52.39-.84.39-1.48-.13-1.13-.39-1.48-.64-.52-1.12-.52Z"/>
      <path class="cls-14" d="M143.42,225.33c-.57,0-.96.24-1.17.72-.11.25-.16.58-.16.97v3.46h-1.66v-6.38h1.61v.93c.21-.33.42-.56.61-.71.34-.26.78-.39,1.31-.39.66,0,1.2.17,1.62.52s.63.92.63,1.72v4.3h-1.71v-3.88c0-.34-.04-.59-.13-.77-.16-.33-.48-.49-.94-.49Z"/>
      <path class="cls-14" d="M157.3,222.5c.59.57.92,1.23.99,1.96h-1.14c-.13-.55-.38-.99-.76-1.32s-.91-.49-1.59-.49c-.83,0-1.5.3-2.02.89-.51.6-.77,1.51-.77,2.74,0,1.01.23,1.83.69,2.46.46.63,1.15.94,2.07.94.84,0,1.49-.33,1.93-.99.23-.35.41-.8.52-1.37h1.14c-.1.91-.43,1.67-1,2.28-.68.74-1.59,1.11-2.73,1.11-.99,0-1.82-.3-2.49-.91-.88-.8-1.33-2.04-1.33-3.71,0-1.27.33-2.31,1-3.12.72-.88,1.71-1.32,2.97-1.32,1.08,0,1.91.29,2.51.86Z"/>
      <path class="cls-14" d="M164.29,224.83c.55.54.83,1.33.83,2.38s-.25,1.85-.73,2.51c-.49.66-1.25.99-2.27.99-.86,0-1.54-.29-2.04-.88-.5-.58-.76-1.37-.76-2.35,0-1.05.27-1.89.8-2.52.53-.62,1.25-.94,2.14-.94.8,0,1.48.27,2.04.81ZM163.63,229c.26-.53.39-1.12.39-1.77,0-.58-.09-1.06-.28-1.43-.29-.58-.8-.87-1.52-.87-.64,0-1.1.25-1.39.74-.29.49-.43,1.09-.43,1.78s.15,1.22.43,1.67c.29.45.75.67,1.38.67.69,0,1.17-.26,1.42-.79Z"/>
      <path class="cls-14" d="M166.45,224.21h1v1.08c.08-.21.28-.47.6-.77s.69-.45,1.11-.45c.02,0,.05,0,.1,0s.13.01.24.02v1.11c-.06-.01-.12-.02-.17-.02s-.11,0-.17,0c-.53,0-.94.17-1.22.51s-.43.74-.43,1.18v3.61h-1.05v-6.28Z"/>
      <path class="cls-14" d="M174.29,224.38c.42.21.73.48.95.81.21.32.35.69.42,1.11.06.29.09.75.09,1.38h-4.56c.02.64.17,1.15.45,1.54.28.39.71.58,1.3.58.55,0,.98-.18,1.31-.55.18-.21.31-.46.39-.74h1.04c-.03.23-.12.49-.27.77s-.33.52-.52.7c-.32.31-.71.52-1.18.63-.25.06-.54.09-.85.09-.78,0-1.43-.29-1.97-.85-.54-.57-.81-1.36-.81-2.39s.27-1.83.82-2.46c.54-.63,1.25-.94,2.13-.94.44,0,.87.1,1.29.31ZM174.67,226.84c-.04-.46-.14-.82-.3-1.1-.29-.51-.77-.76-1.44-.76-.48,0-.88.17-1.21.52-.32.35-.5.79-.52,1.33h3.46Z"/>
    </g>
    <g>
      <rect class="cls-1" x="119.45" y="244.53" width="50.04" height="9.31"/>
      <path class="cls-14" d="M123.28,244.89l1.62,6.99,1.95-6.99h1.26l1.95,7.01,1.62-7.01h1.28l-2.26,8.61h-1.22l-1.99-7.14-2,7.14h-1.22l-2.25-8.61h1.27Z"/>
      <path class="cls-14" d="M134.79,250.72c.03.49.14.88.33,1.19.37.57,1.03.86,1.97.86.42,0,.81-.06,1.15-.19.67-.24,1-.68,1-1.3,0-.47-.14-.8-.43-1-.29-.2-.74-.37-1.35-.51l-1.13-.26c-.74-.17-1.26-.36-1.57-.57-.53-.36-.79-.9-.79-1.61,0-.77.26-1.41.78-1.9.52-.5,1.26-.74,2.21-.74.88,0,1.62.22,2.24.65.61.44.92,1.13.92,2.09h-1.1c-.06-.46-.18-.81-.36-1.06-.34-.45-.92-.67-1.74-.67-.66,0-1.13.14-1.42.43-.29.29-.43.62-.43,1.01,0,.42.17.73.51.93.22.12.73.28,1.52.47l1.17.28c.56.13,1,.31,1.3.54.53.4.79.99.79,1.75,0,.95-.34,1.63-1.01,2.04s-1.46.62-2.36.62c-1.04,0-1.86-.27-2.45-.82-.59-.54-.88-1.28-.87-2.21h1.1Z"/>
      <path class="cls-14" d="M146.04,247.56c.44.34.71.94.8,1.78h-1.03c-.06-.39-.21-.71-.43-.96s-.58-.38-1.07-.38c-.67,0-1.15.33-1.44.98-.19.42-.28.95-.28,1.57s.13,1.16.4,1.59c.27.43.68.64,1.25.64.44,0,.79-.13,1.04-.4s.43-.63.53-1.09h1.03c-.12.83-.41,1.44-.88,1.83s-1.07.58-1.8.58c-.82,0-1.47-.3-1.96-.9s-.73-1.35-.73-2.25c0-1.1.27-1.96.8-2.57s1.22-.92,2.04-.92c.71,0,1.28.17,1.73.52Z"/>
      <path class="cls-14" d="M147.89,244.86h1.05v3.21c.25-.32.47-.54.67-.67.34-.22.76-.33,1.27-.33.91,0,1.53.32,1.85.96.18.35.26.83.26,1.45v4.03h-1.08v-3.96c0-.46-.06-.8-.18-1.01-.19-.34-.55-.52-1.08-.52-.44,0-.83.15-1.19.45s-.53.87-.53,1.71v3.33h-1.05v-8.64Z"/>
      <path class="cls-14" d="M158.44,247.4c.42.21.73.48.95.81.21.32.35.69.42,1.11.06.29.09.75.09,1.38h-4.56c.02.64.17,1.15.45,1.54.28.39.71.58,1.3.58.55,0,.98-.18,1.31-.55.18-.21.31-.46.39-.74h1.04c-.03.23-.12.49-.27.77s-.33.51-.52.69c-.32.31-.71.52-1.18.63-.25.06-.54.09-.86.09-.78,0-1.43-.28-1.97-.85-.54-.57-.81-1.37-.81-2.39s.27-1.83.82-2.46c.54-.63,1.25-.94,2.13-.94.44,0,.87.11,1.29.31ZM158.82,249.86c-.04-.46-.14-.82-.3-1.1-.29-.51-.76-.76-1.43-.76-.48,0-.88.18-1.21.53s-.5.79-.52,1.33h3.46Z"/>
      <path class="cls-14" d="M164.69,247.41c.19.12.4.32.64.62v-3.17h1.01v8.64h-.95v-.87c-.24.39-.54.67-.87.84-.33.17-.72.26-1.15.26-.7,0-1.3-.29-1.81-.88s-.77-1.37-.77-2.35c0-.91.23-1.71.7-2.38.47-.67,1.13-1.01,1.99-1.01.48,0,.88.1,1.2.3ZM162.33,252.12c.28.45.74.68,1.36.68.49,0,.89-.21,1.2-.63s.47-1.02.47-1.81-.16-1.38-.48-1.76-.72-.57-1.2-.57c-.53,0-.96.2-1.29.61-.33.41-.49,1-.49,1.79,0,.67.14,1.23.43,1.69Z"/>
    </g>
    <rect class="cls-11" x="148.6" y="266.35" width="26.45" height="22.24"/>
    <g>
      <rect class="cls-1" x="153.14" y="268.31" width="17.36" height="18.33"/>
      <path class="cls-14" d="M154.85,273.18h5.97v1.05h-4.8v2.61h4.22v1.03h-4.22v3.91h-1.17v-8.61Z"/>
      <path class="cls-14" d="M163.33,273.18v5.32c0,.62.12,1.14.36,1.56.35.62.94.94,1.77.94,1,0,1.67-.34,2.03-1.01.19-.37.29-.86.29-1.48v-5.32h1.18v4.83c0,1.06-.14,1.87-.43,2.44-.53,1.04-1.52,1.56-2.98,1.56s-2.45-.52-2.97-1.56c-.29-.57-.43-1.38-.43-2.44v-4.83h1.18Z"/>
    </g>
    <rect class="cls-11" x="115.84" y="266.35" width="26.45" height="22.24"/>
    <g>
      <rect class="cls-1" x="120.38" y="268.31" width="17.36" height="18.33"/>
      <path class="cls-14" d="M122.12,273.18h3.91c.64,0,1.18.1,1.59.29.79.37,1.19,1.04,1.19,2.03,0,.52-.11.94-.32,1.27s-.51.59-.89.79c.34.14.59.32.76.54s.27.58.29,1.08l.04,1.15c.01.33.04.57.08.73.07.27.2.45.38.53v.19h-1.43c-.04-.07-.07-.17-.09-.29s-.04-.34-.06-.68l-.07-1.44c-.03-.56-.23-.94-.61-1.13-.22-.11-.56-.16-1.02-.16h-2.58v3.69h-1.17v-8.61ZM125.91,277.12c.53,0,.95-.11,1.26-.33s.46-.61.46-1.18c0-.61-.22-1.03-.65-1.25-.23-.12-.54-.18-.93-.18h-2.77v2.94h2.62Z"/>
      <path class="cls-14" d="M130.75,273.18h5.97v1.05h-4.8v2.61h4.22v1.03h-4.22v3.91h-1.17v-8.61Z"/>
    </g>
    <rect class="cls-11" x=".5" y="293.8" width="77.32" height="71.62"/>
    <g>
      <rect class="cls-1" x="9.19" y="316.37" width="60.06" height="28.74"/>
      <path class="cls-14" d="M25.93,317.73h1.37v4.15h5.16v-4.15h1.37v10.04h-1.37v-4.7h-5.16v4.7h-1.37v-10.04Z"/>
      <path class="cls-14" d="M41.15,321.18c.65.63.97,1.55.97,2.77s-.29,2.15-.86,2.92-1.46,1.15-2.65,1.15c-1,0-1.79-.34-2.38-1.02-.59-.68-.88-1.6-.88-2.74,0-1.23.31-2.21.93-2.94s1.45-1.09,2.5-1.09c.94,0,1.73.31,2.38.94ZM40.39,326.04c.3-.62.45-1.3.45-2.06,0-.68-.11-1.24-.32-1.67-.34-.67-.93-1.01-1.77-1.01-.74,0-1.28.29-1.62.86s-.51,1.27-.51,2.08.17,1.43.51,1.95.87.78,1.61.78c.81,0,1.36-.31,1.66-.93Z"/>
      <path class="cls-14" d="M44.36,325.47c.04.41.14.72.31.94.32.4.87.59,1.65.59.46,0,.87-.1,1.23-.3.35-.2.53-.51.53-.92,0-.31-.14-.55-.42-.72-.18-.1-.54-.22-1.07-.35l-.99-.25c-.63-.15-1.1-.33-1.4-.52-.54-.33-.81-.79-.81-1.38,0-.69.25-1.25.76-1.68s1.19-.64,2.04-.64c1.12,0,1.92.32,2.42.97.31.41.46.85.45,1.33h-1.16c-.02-.28-.12-.53-.3-.75-.29-.32-.79-.48-1.5-.48-.48,0-.84.09-1.08.27-.24.18-.37.41-.37.7,0,.32.16.57.48.76.19.11.46.21.82.3l.83.2c.9.21,1.5.42,1.81.62.48.31.72.81.72,1.48s-.25,1.21-.75,1.69-1.26.71-2.29.71c-1.1,0-1.88-.25-2.34-.74-.46-.49-.71-1.11-.74-1.83h1.18Z"/>
      <path class="cls-14" d="M50.88,318.4h1.24v2.04h1.17v1h-1.17v4.78c0,.26.09.43.26.51.1.05.25.08.48.08.06,0,.12,0,.19,0,.07,0,.15-.01.24-.02v.98c-.14.04-.29.07-.44.09-.15.02-.32.03-.5.03-.57,0-.96-.15-1.17-.44-.21-.29-.31-.68-.31-1.14v-4.85h-.99v-1h.99v-2.04Z"/>
      <path class="cls-14" d="M32.62,334.46c.69.67,1.08,1.43,1.16,2.28h-1.33c-.15-.65-.44-1.16-.88-1.54-.44-.38-1.06-.57-1.86-.57-.97,0-1.75.35-2.35,1.04-.6.7-.9,1.76-.9,3.2,0,1.18.27,2.13.81,2.86.54.73,1.34,1.1,2.41,1.1.98,0,1.73-.39,2.25-1.16.27-.41.48-.94.61-1.6h1.33c-.12,1.06-.5,1.94-1.16,2.66-.79.86-1.85,1.29-3.19,1.29-1.15,0-2.12-.35-2.91-1.06-1.03-.93-1.55-2.38-1.55-4.33,0-1.48.39-2.7,1.16-3.65.84-1.03,1.99-1.55,3.46-1.55,1.26,0,2.23.33,2.93,1Z"/>
      <path class="cls-14" d="M35.75,333.73h4.49c.89,0,1.61.25,2.15.76.55.5.82,1.21.82,2.12,0,.78-.24,1.47-.73,2.05-.49.58-1.23.87-2.24.87h-3.14v4.25h-1.36v-10.04ZM41.03,335.11c-.3-.14-.71-.21-1.23-.21h-2.69v3.48h2.69c.61,0,1.1-.13,1.48-.39.38-.26.57-.72.57-1.37,0-.74-.27-1.24-.81-1.5Z"/>
      <path class="cls-14" d="M46.43,333.73v6.21c0,.73.14,1.34.41,1.82.41.73,1.1,1.09,2.07,1.09,1.16,0,1.95-.39,2.37-1.18.22-.43.34-1,.34-1.73v-6.21h1.38v5.64c0,1.24-.17,2.18-.5,2.85-.61,1.21-1.77,1.82-3.47,1.82s-2.86-.61-3.46-1.82c-.33-.67-.5-1.62-.5-2.85v-5.64h1.38Z"/>
    </g>
    <rect class="cls-11" x="108.38" y="437.68" width="217.86" height="36.1"/>
    <g>
      <rect class="cls-1" x="158" y="446.57" width="118.61" height="18.33"/>
      <path class="cls-14" d="M189.19,450.72h1.36v8.85h5.04v1.2h-6.4v-10.04Z"/>
      <path class="cls-14" d="M196.87,458.56c.3-.62.89-1.19,1.77-1.7l1.31-.76c.59-.34,1-.63,1.24-.88.37-.38.56-.81.56-1.3,0-.57-.17-1.02-.51-1.36-.34-.33-.8-.5-1.37-.5-.84,0-1.43.32-1.75.96-.17.34-.27.82-.29,1.43h-1.25c.01-.85.17-1.55.47-2.08.53-.95,1.47-1.42,2.82-1.42,1.12,0,1.94.3,2.46.91.52.61.78,1.28.78,2.02,0,.78-.28,1.45-.83,2.01-.32.32-.89.71-1.72,1.18l-.94.52c-.45.25-.8.48-1.05.7-.46.4-.74.84-.86,1.32h5.35v1.16h-6.72c.04-.84.22-1.58.52-2.2Z"/>
      <path class="cls-14" d="M208.62,450.72h4.34c1.18,0,2.03.35,2.53,1.05.29.41.44.89.44,1.44,0,.63-.18,1.15-.54,1.56-.19.21-.46.41-.81.59.51.2.9.42,1.16.66.45.44.68,1.04.68,1.81,0,.65-.2,1.23-.61,1.76-.61.78-1.58,1.18-2.91,1.18h-4.27v-10.04ZM212.45,454.97c.58,0,1.03-.08,1.35-.24.51-.25.76-.7.76-1.35s-.27-1.1-.81-1.33c-.3-.13-.76-.19-1.35-.19h-2.45v3.11h2.5ZM212.91,459.6c.84,0,1.44-.24,1.8-.72.22-.31.34-.67.34-1.11,0-.73-.33-1.23-.99-1.49-.35-.14-.81-.21-1.39-.21h-2.73v3.53h2.96Z"/>
      <path class="cls-14" d="M221.75,456.33c.28-.04.47-.16.57-.36.05-.11.08-.27.08-.47,0-.42-.15-.73-.45-.92-.3-.19-.72-.28-1.28-.28-.64,0-1.1.17-1.37.52-.15.19-.25.48-.29.86h-1.15c.02-.91.32-1.54.88-1.89.56-.35,1.21-.53,1.96-.53.86,0,1.56.16,2.1.49.53.33.8.84.8,1.53v4.22c0,.13.03.23.08.31.05.08.16.12.33.12.05,0,.12,0,.18-.01s.14-.02.22-.03v.91c-.19.05-.34.09-.44.1s-.24.02-.41.02c-.42,0-.73-.15-.92-.45-.1-.16-.17-.38-.21-.68-.25.33-.61.61-1.08.85s-.99.36-1.55.36c-.68,0-1.23-.21-1.66-.62-.43-.41-.65-.93-.65-1.55,0-.68.21-1.2.64-1.58.42-.37.98-.6,1.67-.69l1.96-.25ZM219.16,459.66c.26.2.57.31.92.31.43,0,.85-.1,1.26-.3.68-.33,1.03-.88,1.03-1.63v-.99c-.15.1-.34.18-.58.24-.24.06-.47.11-.7.14l-.74.09c-.45.06-.78.15-1.01.28-.38.21-.57.55-.57,1.02,0,.36.13.63.39.84Z"/>
      <path class="cls-14" d="M225.61,453.44h1.17v1.04c.35-.43.71-.74,1.1-.92.39-.19.82-.28,1.29-.28,1.04,0,1.74.36,2.11,1.09.2.4.3.96.3,1.7v4.7h-1.25v-4.61c0-.45-.07-.81-.2-1.08-.22-.46-.62-.68-1.19-.68-.29,0-.53.03-.72.09-.34.1-.63.3-.89.6-.21.24-.34.49-.4.75-.06.26-.09.63-.09,1.1v3.83h-1.23v-7.32Z"/>
      <path class="cls-14" d="M233.37,450.72h1.18v5.83l3.16-3.11h1.57l-2.81,2.72,2.97,4.6h-1.57l-2.3-3.73-1.01.98v2.75h-1.18v-10.04Z"/>
      <path class="cls-14" d="M241.13,458.47c.04.41.14.72.31.94.32.4.87.59,1.65.59.47,0,.88-.1,1.23-.3s.53-.5.53-.92c0-.31-.14-.55-.42-.72-.18-.1-.54-.22-1.07-.35l-.99-.25c-.63-.16-1.1-.33-1.4-.52-.54-.33-.81-.79-.81-1.38,0-.69.25-1.25.76-1.68.5-.43,1.19-.64,2.04-.64,1.12,0,1.92.32,2.42.97.31.41.46.85.45,1.33h-1.16c-.02-.28-.12-.53-.3-.75-.29-.32-.79-.48-1.5-.48-.48,0-.84.09-1.08.27-.25.18-.37.41-.37.7,0,.32.16.57.48.76.19.11.46.21.82.3l.83.2c.9.21,1.5.42,1.81.62.48.31.72.81.72,1.48s-.25,1.21-.75,1.69c-.5.47-1.26.71-2.29.71-1.1,0-1.88-.25-2.34-.74-.46-.49-.71-1.11-.74-1.83h1.18Z"/>
    </g>
    <rect class="cls-11" x=".5" y="437.68" width="91.52" height="36.1"/>
    <g>
      <rect class="cls-1" x="7.51" y="446.57" width="77.49" height="18.33"/>
      <path class="cls-14" d="M12.05,450.72h4.49c.89,0,1.61.25,2.15.75.55.5.82,1.21.82,2.12,0,.78-.24,1.47-.73,2.05-.49.58-1.23.87-2.24.87h-3.13v4.25h-1.36v-10.04ZM17.32,452.1c-.3-.14-.71-.21-1.23-.21h-2.69v3.48h2.69c.61,0,1.1-.13,1.48-.39s.57-.72.57-1.37c0-.74-.27-1.24-.81-1.5Z"/>
      <path class="cls-14" d="M25.61,453.65c.48.24.85.56,1.11.95.24.37.41.8.49,1.29.07.34.11.88.11,1.61h-5.32c.02.75.2,1.34.52,1.79.33.45.83.68,1.51.68.64,0,1.15-.21,1.53-.64.21-.25.36-.53.45-.86h1.21c-.03.27-.14.57-.32.9-.18.33-.38.6-.6.81-.37.36-.83.61-1.38.74-.29.07-.63.11-1,.11-.91,0-1.67-.33-2.3-1-.63-.66-.95-1.59-.95-2.79s.32-2.13.95-2.86c.63-.73,1.46-1.1,2.49-1.1.52,0,1.02.12,1.5.37ZM26.06,456.52c-.05-.53-.17-.96-.35-1.28-.33-.59-.89-.89-1.67-.89-.56,0-1.03.2-1.41.61-.38.41-.58.93-.6,1.56h4.03Z"/>
      <path class="cls-14" d="M28.91,453.44h1.17v1.26c.1-.25.33-.55.71-.9.37-.35.8-.53,1.29-.53.02,0,.06,0,.12,0,.05,0,.15.01.28.03v1.3c-.07-.01-.14-.02-.2-.03-.06,0-.13,0-.2,0-.62,0-1.1.2-1.43.6-.33.4-.5.86-.5,1.38v4.21h-1.23v-7.32Z"/>
      <path class="cls-14" d="M33.54,450.72h1.25v1.39h-1.25v-1.39ZM33.54,453.48h1.25v7.29h-1.25v-7.29Z"/>
      <path class="cls-14" d="M36.55,453.48h1.2v.97c.25-.33.52-.59.81-.77.42-.27.91-.41,1.47-.41.83,0,1.54.32,2.12.95.58.64.87,1.54.87,2.72,0,1.59-.42,2.73-1.26,3.42-.53.43-1.15.65-1.85.65-.55,0-1.02-.12-1.39-.36-.22-.14-.46-.37-.73-.7v3.74h-1.23v-10.21ZM41.18,459.22c.38-.48.57-1.2.57-2.16,0-.58-.08-1.08-.25-1.5-.32-.81-.91-1.21-1.76-1.21s-1.44.43-1.76,1.28c-.17.46-.25,1.03-.25,1.74,0,.56.08,1.05.25,1.44.32.76.9,1.13,1.76,1.13.58,0,1.05-.24,1.44-.72Z"/>
      <path class="cls-14" d="M44.44,450.69h1.23v3.75c.29-.37.55-.63.79-.78.4-.26.89-.39,1.48-.39,1.06,0,1.78.37,2.16,1.11.21.41.31.97.31,1.69v4.7h-1.27v-4.61c0-.54-.07-.93-.21-1.18-.22-.4-.64-.6-1.26-.6-.51,0-.97.17-1.39.53-.42.35-.62,1.01-.62,1.99v3.88h-1.23v-10.08Z"/>
      <path class="cls-14" d="M56.74,453.65c.48.24.85.56,1.11.95.24.37.41.8.49,1.29.07.34.11.88.11,1.61h-5.32c.02.75.2,1.34.52,1.79.33.45.83.68,1.51.68.64,0,1.15-.21,1.53-.64.21-.25.36-.53.45-.86h1.21c-.03.27-.14.57-.32.9-.18.33-.38.6-.6.81-.37.36-.83.61-1.38.74-.29.07-.63.11-1,.11-.91,0-1.67-.33-2.3-1-.63-.66-.95-1.59-.95-2.79s.32-2.13.95-2.86c.63-.73,1.46-1.1,2.49-1.1.52,0,1.02.12,1.5.37ZM57.19,456.52c-.05-.53-.17-.96-.35-1.28-.33-.59-.89-.89-1.67-.89-.56,0-1.03.2-1.41.61-.38.41-.58.93-.6,1.56h4.03Z"/>
      <path class="cls-14" d="M60.04,453.44h1.17v1.26c.1-.25.33-.55.71-.9.37-.35.8-.53,1.29-.53.02,0,.06,0,.12,0,.05,0,.15.01.28.03v1.3c-.07-.01-.14-.02-.2-.03-.06,0-.13,0-.2,0-.62,0-1.1.2-1.43.6-.33.4-.5.86-.5,1.38v4.21h-1.23v-7.32Z"/>
      <path class="cls-14" d="M68.59,456.33c.28-.04.47-.16.57-.36.05-.11.08-.27.08-.47,0-.42-.15-.73-.45-.92-.3-.19-.72-.28-1.28-.28-.64,0-1.1.17-1.36.52-.15.19-.25.48-.29.86h-1.15c.02-.91.32-1.54.88-1.89.56-.35,1.21-.53,1.96-.53.86,0,1.56.16,2.1.49.53.33.8.84.8,1.53v4.22c0,.13.03.23.08.31s.16.12.33.12c.05,0,.12,0,.19-.01s.14-.02.22-.03v.91c-.19.05-.34.09-.44.1-.1.01-.24.02-.41.02-.42,0-.73-.15-.92-.45-.1-.16-.17-.38-.21-.68-.25.33-.61.61-1.08.85-.47.24-.99.36-1.55.36-.68,0-1.23-.21-1.66-.62s-.65-.93-.65-1.55c0-.68.21-1.2.64-1.58.42-.37.98-.6,1.67-.69l1.96-.25ZM66,459.66c.26.2.57.31.92.31.43,0,.85-.1,1.26-.3.68-.33,1.03-.88,1.03-1.63v-.99c-.15.1-.34.18-.58.24-.24.06-.47.11-.7.14l-.74.09c-.45.06-.78.15-1,.28-.38.21-.57.55-.57,1.02,0,.36.13.63.39.84Z"/>
      <path class="cls-14" d="M72.49,450.72h1.23v10.04h-1.23v-10.04Z"/>
      <path class="cls-14" d="M76.3,458.47c.04.41.14.72.31.94.32.4.87.59,1.65.59.47,0,.87-.1,1.23-.3s.53-.5.53-.92c0-.31-.14-.55-.42-.72-.18-.1-.54-.22-1.07-.35l-.99-.25c-.63-.16-1.1-.33-1.4-.52-.54-.33-.81-.79-.81-1.38,0-.69.25-1.25.76-1.68.5-.43,1.19-.64,2.04-.64,1.12,0,1.92.32,2.42.97.31.41.46.85.45,1.33h-1.16c-.02-.28-.12-.53-.3-.75-.29-.32-.79-.48-1.51-.48-.47,0-.84.09-1.08.27-.25.18-.37.41-.37.7,0,.32.16.57.48.76.19.11.46.21.82.3l.83.2c.9.21,1.5.42,1.81.62.48.31.72.81.72,1.48s-.25,1.21-.75,1.69c-.5.47-1.26.71-2.29.71-1.1,0-1.88-.25-2.34-.74-.46-.49-.71-1.11-.74-1.83h1.18Z"/>
    </g>
    <g>
      <rect class="cls-1" x="9.67" y="491.86" width="73.17" height="18.33"/>
      <path class="cls-14" d="M40.24,496.02h1.37v10.04h-1.37v-10.04Z"/>
      <path class="cls-14" d="M52.1,497.46c.67.89,1,2.03,1,3.41,0,1.5-.38,2.75-1.14,3.74-.89,1.17-2.17,1.75-3.82,1.75-1.54,0-2.76-.51-3.64-1.53-.79-.98-1.18-2.23-1.18-3.73,0-1.36.34-2.52,1.01-3.49.87-1.24,2.15-1.86,3.84-1.86s3.09.57,3.94,1.71ZM50.9,503.86c.54-.86.8-1.85.8-2.97,0-1.18-.31-2.13-.93-2.85-.62-.72-1.46-1.08-2.53-1.08s-1.89.36-2.54,1.07-.98,1.77-.98,3.16c0,1.11.28,2.05.84,2.82.56.76,1.48,1.15,2.74,1.15s2.07-.43,2.6-1.29Z"/>
    </g>
    <g>
      <rect class="cls-1" x="180.72" y="491.86" width="73.17" height="18.33"/>
      <path class="cls-14" d="M197.82,496.02h4.01c1.36,0,2.42.49,3.17,1.47.67.88,1.01,2.02,1.01,3.4,0,1.07-.2,2.03-.59,2.89-.7,1.52-1.9,2.28-3.6,2.28h-4v-10.04ZM201.57,504.9c.45,0,.82-.05,1.11-.14.52-.18.94-.52,1.27-1.03.26-.41.45-.93.57-1.56.07-.38.1-.73.1-1.05,0-1.24-.24-2.21-.73-2.9-.48-.69-1.26-1.03-2.34-1.03h-2.36v7.71h2.37Z"/>
      <path class="cls-14" d="M208.04,496.02h4.56c.75,0,1.37.11,1.86.33.93.43,1.39,1.22,1.39,2.37,0,.6-.12,1.09-.37,1.48s-.6.69-1.04.92c.39.16.69.37.88.63s.31.68.33,1.26l.05,1.35c.01.38.05.67.1.85.08.32.23.52.44.62v.23h-1.67c-.04-.09-.08-.2-.11-.33s-.05-.4-.07-.79l-.08-1.67c-.03-.66-.27-1.1-.71-1.32-.25-.12-.65-.18-1.19-.18h-3.01v4.31h-1.36v-10.04ZM212.46,500.62c.62,0,1.11-.13,1.47-.38.36-.26.54-.72.54-1.38,0-.72-.25-1.2-.76-1.46-.27-.14-.63-.21-1.08-.21h-3.23v3.43h3.06Z"/>
      <path class="cls-14" d="M220.9,496.02h1.54l3.64,10.04h-1.49l-1.02-3.01h-3.97l-1.09,3.01h-1.39l3.78-10.04ZM223.14,501.95l-1.52-4.44-1.62,4.44h3.14Z"/>
      <path class="cls-14" d="M227.29,496.02h1.95l2.89,8.49,2.87-8.49h1.94v10.04h-1.3v-5.93c0-.21,0-.54.01-1.02,0-.47.01-.98.01-1.52l-2.87,8.47h-1.35l-2.89-8.47v.31c0,.25,0,.62.02,1.12.01.5.02.87.02,1.11v5.93h-1.3v-10.04Z"/>
    </g>
    <g>
      <line class="cls-2" x1="39.25" y1="377.64" x2="39.25" y2="365.42"/>
      <polygon class="cls-14" points="43.24 376.47 39.25 383.38 35.26 376.47 43.24 376.47"/>
    </g>
    <g>
      <line class="cls-2" x1="212.69" y1="377.64" x2="212.69" y2="317.06"/>
      <polygon class="cls-14" points="216.68 376.47 212.69 383.38 208.7 376.47 216.68 376.47"/>
      <polygon class="cls-14" points="216.68 318.23 212.69 311.32 208.7 318.23 216.68 318.23"/>
    </g>
    <g>
      <line class="cls-2" x1="217.2" y1="431.94" x2="217.2" y2="419.6"/>
      <polygon class="cls-14" points="221.18 430.77 217.2 437.68 213.21 430.77 221.18 430.77"/>
    </g>
    <g>
      <line class="cls-2" x1="217.2" y1="486.12" x2="217.2" y2="473.78"/>
      <polygon class="cls-14" points="221.18 484.96 217.2 491.86 213.21 484.96 221.18 484.96"/>
    </g>
    <g>
      <line class="cls-2" x1="46.26" y1="486.12" x2="46.26" y2="473.78"/>
      <polygon class="cls-14" points="50.25 484.96 46.26 491.86 42.27 484.96 50.25 484.96"/>
    </g>
    <g>
      <line class="cls-2" x1="46.26" y1="431.94" x2="46.26" y2="419.6"/>
      <polygon class="cls-14" points="50.25 430.77 46.26 437.68 42.27 430.77 50.25 430.77"/>
    </g>
    <g>
      <line class="cls-3" x1="228.04" y1="243.22" x2="228.04" y2="250.93"/>
      <polygon class="cls-13" points="224.05 244.38 228.04 237.48 232.02 244.38 224.05 244.38"/>
      <polygon class="cls-13" points="224.05 249.76 228.04 256.67 232.02 249.76 224.05 249.76"/>
    </g>
    <g>
      <line class="cls-3" x1="253.93" y1="243.38" x2="253.93" y2="377.92"/>
      <polygon class="cls-13" points="249.94 244.55 253.93 237.64 257.92 244.55 249.94 244.55"/>
      <polygon class="cls-13" points="249.94 376.75 253.93 383.66 257.92 376.75 249.94 376.75"/>
    </g>
    <g>
      <line class="cls-3" x1="197.53" y1="277.67" x2="191.04" y2="277.67"/>
      <polygon class="cls-13" points="196.36 273.68 203.27 277.67 196.36 281.66 196.36 273.68"/>
      <polygon class="cls-13" points="192.21 273.68 185.3 277.67 192.21 281.66 192.21 273.68"/>
    </g>
    <g>
      <line class="cls-3" x1="279.82" y1="182.02" x2="279.82" y2="250.93"/>
      <polygon class="cls-13" points="275.83 183.19 279.82 176.28 283.81 183.19 275.83 183.19"/>
      <polygon class="cls-13" points="275.83 249.76 279.82 256.67 283.81 249.76 275.83 249.76"/>
    </g>
    <rect class="cls-5" x="203.27" y="256.67" width="100.49" height="42"/>
    <g>
      <rect class="cls-1" x="214.96" y="259.2" width="64.87" height="37.05"/>
      <path class="cls-14" d="M216.63,273.26c.03.49.14.88.33,1.19.37.57,1.03.86,1.97.86.42,0,.81-.06,1.15-.19.67-.24,1-.68,1-1.3,0-.47-.14-.8-.43-1-.29-.2-.74-.37-1.35-.51l-1.13-.26c-.74-.17-1.26-.36-1.57-.57-.53-.36-.79-.9-.79-1.61,0-.77.26-1.41.78-1.9s1.26-.74,2.21-.74c.88,0,1.62.22,2.24.65s.92,1.13.92,2.09h-1.1c-.06-.46-.18-.81-.36-1.06-.34-.45-.92-.67-1.74-.67-.66,0-1.13.14-1.42.43-.29.29-.43.62-.43,1.01,0,.42.17.73.51.93.22.12.73.28,1.52.47l1.17.28c.56.13,1,.31,1.31.54.53.4.79.99.79,1.75,0,.95-.34,1.63-1.01,2.04-.68.41-1.46.62-2.36.62-1.04,0-1.86-.27-2.45-.82-.59-.54-.88-1.28-.87-2.21h1.1Z"/>
      <path class="cls-14" d="M223.73,267.41h1.05v3.21c.25-.32.47-.54.67-.67.34-.22.76-.33,1.27-.33.91,0,1.53.32,1.85.96.18.35.26.83.26,1.45v4.03h-1.08v-3.96c0-.46-.06-.8-.18-1.01-.19-.34-.55-.52-1.08-.52-.44,0-.83.15-1.19.45s-.53.87-.53,1.71v3.33h-1.05v-8.64Z"/>
      <path class="cls-14" d="M233.77,272.24c.24-.03.4-.13.49-.3.05-.09.07-.23.07-.41,0-.36-.13-.62-.38-.79-.25-.16-.62-.24-1.1-.24-.55,0-.94.15-1.17.45-.13.17-.21.41-.25.74h-.98c.02-.78.27-1.32.75-1.62.48-.3,1.04-.46,1.68-.46.74,0,1.34.14,1.8.42.46.28.68.72.68,1.31v3.62c0,.11.02.2.07.26.04.07.14.1.28.1.05,0,.1,0,.16,0s.12-.01.19-.03v.78c-.16.05-.29.08-.38.09s-.2.02-.35.02c-.36,0-.63-.13-.79-.39-.09-.14-.15-.33-.18-.58-.21.28-.52.53-.93.73s-.85.31-1.33.31c-.58,0-1.06-.18-1.43-.53-.37-.35-.55-.79-.55-1.33,0-.58.18-1.03.54-1.35.36-.32.84-.52,1.43-.59l1.68-.21ZM231.55,275.09c.22.18.49.26.79.26.37,0,.73-.09,1.08-.26.59-.29.88-.75.88-1.4v-.85c-.13.08-.29.15-.5.21s-.4.09-.6.12l-.64.08c-.38.05-.67.13-.86.24-.33.18-.49.48-.49.88,0,.3.11.54.33.72Z"/>
      <path class="cls-14" d="M237.11,269.77h1v1.08c.08-.21.28-.47.6-.77s.69-.45,1.11-.45c.02,0,.05,0,.1,0s.13.01.24.02v1.11c-.06-.01-.12-.02-.17-.02s-.11,0-.17,0c-.53,0-.94.17-1.22.51s-.43.74-.43,1.18v3.61h-1.05v-6.28Z"/>
      <path class="cls-14" d="M244.95,269.94c.42.21.73.48.95.81.21.32.35.69.42,1.11.06.29.09.75.09,1.38h-4.56c.02.64.17,1.15.45,1.54.28.39.71.58,1.3.58.55,0,.98-.18,1.31-.55.18-.21.31-.46.39-.74h1.04c-.03.23-.12.49-.27.77s-.33.51-.52.69c-.32.31-.71.52-1.18.63-.25.06-.54.09-.85.09-.78,0-1.43-.28-1.97-.85-.54-.57-.81-1.36-.81-2.39s.27-1.83.82-2.46c.54-.63,1.25-.94,2.13-.94.44,0,.87.1,1.29.31ZM245.33,272.4c-.04-.46-.14-.82-.3-1.1-.29-.51-.77-.76-1.44-.76-.48,0-.88.17-1.21.52-.32.35-.5.79-.52,1.33h3.46Z"/>
      <path class="cls-14" d="M251.2,269.96c.19.12.4.32.64.62v-3.17h1.01v8.64h-.95v-.87c-.25.39-.54.67-.87.84-.33.17-.72.26-1.15.26-.7,0-1.3-.29-1.81-.88s-.76-1.37-.76-2.35c0-.91.23-1.71.7-2.38.47-.67,1.13-1,1.99-1,.48,0,.88.1,1.2.3ZM248.85,274.66c.28.45.74.68,1.36.68.49,0,.88-.21,1.2-.63.31-.42.47-1.02.47-1.81s-.16-1.38-.48-1.76c-.32-.38-.72-.57-1.2-.57-.53,0-.96.2-1.29.61-.33.41-.49,1-.49,1.79,0,.67.14,1.23.43,1.69Z"/>
      <path class="cls-14" d="M215.84,279.43h1.67l2.47,7.28,2.46-7.28h1.66v8.61h-1.11v-5.08c0-.18,0-.47.01-.87s.01-.84.01-1.31l-2.46,7.26h-1.15l-2.48-7.26v.26c0,.21,0,.53.02.96s.02.75.02.95v5.08h-1.11v-8.61Z"/>
      <path class="cls-14" d="M229.6,281.94c.42.21.73.48.95.81.21.32.35.69.42,1.11.06.29.09.75.09,1.38h-4.56c.02.64.17,1.15.45,1.54.28.39.71.58,1.3.58.55,0,.98-.18,1.31-.55.18-.21.31-.46.39-.74h1.04c-.03.23-.12.49-.27.77s-.33.51-.52.69c-.32.31-.71.52-1.18.63-.25.06-.54.09-.85.09-.78,0-1.43-.28-1.97-.85-.54-.57-.81-1.36-.81-2.39s.27-1.83.82-2.46c.54-.63,1.25-.94,2.13-.94.44,0,.87.1,1.29.31ZM229.98,284.4c-.04-.46-.14-.82-.3-1.1-.29-.51-.77-.76-1.44-.76-.48,0-.88.17-1.21.52-.32.35-.5.79-.52,1.33h3.46Z"/>
      <path class="cls-14" d="M232.4,281.77h1.04v.89c.25-.31.48-.53.68-.67.35-.24.74-.36,1.18-.36.5,0,.9.12,1.21.37.17.14.33.35.47.62.23-.34.51-.58.83-.75s.67-.24,1.07-.24c.84,0,1.42.3,1.72.91.16.33.25.77.25,1.32v4.18h-1.1v-4.36c0-.42-.1-.71-.31-.86s-.46-.23-.76-.23c-.41,0-.77.14-1.07.42s-.45.74-.45,1.39v3.65h-1.07v-4.1c0-.43-.05-.74-.15-.93-.16-.29-.46-.44-.9-.44-.4,0-.76.15-1.09.46s-.49.87-.49,1.68v3.33h-1.05v-6.28Z"/>
      <path class="cls-14" d="M246.94,282.39c.55.54.83,1.33.83,2.38s-.25,1.85-.73,2.51c-.49.66-1.25.99-2.27.99-.86,0-1.54-.29-2.04-.88-.5-.58-.76-1.37-.76-2.35,0-1.05.27-1.89.8-2.52.53-.62,1.25-.94,2.14-.94.8,0,1.48.27,2.04.81ZM246.29,286.56c.26-.53.39-1.12.39-1.76,0-.58-.09-1.06-.28-1.43-.29-.58-.8-.87-1.52-.87-.64,0-1.1.25-1.39.74-.29.49-.43,1.08-.43,1.78s.15,1.22.43,1.67c.29.45.75.67,1.38.67.69,0,1.17-.26,1.42-.79Z"/>
      <path class="cls-14" d="M249.1,281.77h1v1.08c.08-.21.28-.47.6-.77s.69-.45,1.11-.45c.02,0,.05,0,.1,0s.13.01.24.02v1.11c-.06-.01-.12-.02-.17-.02s-.11,0-.17,0c-.53,0-.94.17-1.22.51s-.43.74-.43,1.18v3.61h-1.05v-6.28Z"/>
      <path class="cls-14" d="M256.99,281.77h1.17c-.15.4-.48,1.32-.99,2.76-.38,1.08-.7,1.96-.96,2.64-.61,1.6-1.04,2.58-1.29,2.93-.25.35-.68.53-1.29.53-.15,0-.26,0-.34-.02s-.18-.03-.3-.06v-.96c.18.05.32.08.4.09s.15.02.22.02c.2,0,.34-.03.43-.1.09-.06.17-.14.23-.24.02-.03.09-.19.21-.48.12-.29.21-.5.26-.64l-2.32-6.46h1.2l1.68,5.11,1.69-5.11Z"/>
    </g>
    <rect class="cls-10" x="203.55" y="195.48" width="100.21" height="42"/>
    <g>
      <rect class="cls-1" x="215.31" y="206.57" width="45.78" height="20.93"/>
      <path class="cls-14" d="M216.28,212.74h3.44c1.17,0,2.07.42,2.72,1.26.57.76.86,1.73.86,2.91,0,.91-.17,1.74-.51,2.48-.6,1.3-1.62,1.96-3.08,1.96h-3.43v-8.61ZM219.49,220.36c.39,0,.7-.04.95-.12.44-.15.81-.45,1.09-.88.23-.35.39-.79.49-1.34.06-.32.09-.62.09-.9,0-1.07-.21-1.89-.62-2.48s-1.08-.88-2-.88h-2.02v6.61h2.03Z"/>
      <path class="cls-14" d="M224.86,212.74h1.67l2.47,7.28,2.46-7.28h1.66v8.61h-1.11v-5.08c0-.18,0-.47.01-.87s.01-.84.01-1.31l-2.46,7.26h-1.16l-2.48-7.26v.26c0,.21,0,.53.02.96s.02.75.02.95v5.08h-1.11v-8.61Z"/>
      <path class="cls-14" d="M237.39,212.74h1.32l3.12,8.61h-1.28l-.87-2.58h-3.4l-.93,2.58h-1.2l3.24-8.61ZM239.31,217.82l-1.31-3.8-1.39,3.8h2.7Z"/>
    </g>
    <g>
      <rect class="cls-4" x="266.72" y="265.6" width="25.58" height="24.25"/>
      <g>
        <rect class="cls-1" x="268.45" y="268.52" width="21.99" height="18.42"/>
        <path class="cls-14" d="M277.35,273.79v.94h-2.66v6.95h-1.08v-6.95h-2.66v-.94h6.4Z"/>
        <path class="cls-14" d="M277.81,273.79h.98v1.1h-.98v-1.1ZM277.81,275.96h.98v5.73h-.98v-5.73Z"/>
        <path class="cls-14" d="M280.28,273.79h.97v7.89h-.97v-7.89Z"/>
        <path class="cls-14" d="M286.25,276.09c.38.19.67.44.87.74.19.29.32.63.38,1.01.06.27.08.69.08,1.27h-4.18c.02.59.16,1.05.41,1.41.26.35.65.53,1.19.53.5,0,.9-.17,1.2-.5.17-.19.29-.42.35-.67h.95c-.02.21-.11.45-.25.71-.14.26-.3.47-.47.64-.29.29-.65.48-1.08.58-.23.06-.49.09-.78.09-.71,0-1.32-.26-1.81-.78-.49-.52-.74-1.25-.74-2.19s.25-1.67.75-2.25c.5-.58,1.15-.86,1.95-.86.41,0,.8.1,1.18.29ZM286.59,278.35c-.04-.42-.13-.75-.27-1-.26-.46-.7-.7-1.32-.7-.44,0-.81.16-1.11.48-.3.32-.46.73-.47,1.22h3.17Z"/>
      </g>
    </g>
    <g>
      <rect class="cls-6" x="266.72" y="204.91" width="25.58" height="24.25"/>
      <g>
        <rect class="cls-1" x="262.6" y="201.84" width="33.68" height="30.39"/>
        <path class="cls-15" d="M277.35,213.1v.94h-2.66v6.95h-1.08v-6.95h-2.66v-.94h6.4Z"/>
        <path class="cls-15" d="M277.81,213.1h.98v1.1h-.98v-1.1ZM277.81,215.27h.98v5.73h-.98v-5.73Z"/>
        <path class="cls-15" d="M280.28,213.1h.97v7.89h-.97v-7.89Z"/>
        <path class="cls-15" d="M286.25,215.4c.38.19.67.44.87.74.19.29.32.63.38,1.02.06.26.08.69.08,1.27h-4.18c.02.58.16,1.05.41,1.41.26.35.65.53,1.19.53.5,0,.9-.17,1.2-.5.17-.19.29-.42.35-.67h.95c-.02.21-.11.45-.25.71-.14.26-.3.47-.47.64-.29.29-.65.48-1.08.58-.23.06-.49.09-.78.09-.71,0-1.32-.26-1.81-.78-.49-.52-.74-1.25-.74-2.19s.25-1.67.75-2.25c.5-.58,1.15-.87,1.95-.87.41,0,.8.1,1.18.29ZM286.59,217.66c-.04-.42-.13-.75-.27-1-.26-.47-.7-.7-1.32-.7-.44,0-.81.16-1.11.48s-.46.73-.47,1.22h3.17Z"/>
      </g>
    </g>
    <rect class="cls-7" x="203.55" y="46.4" width="100.21" height="129.73"/>
    <rect class="cls-11" x="214.11" y="75.53" width="79.31" height="54.5"/>
    <rect class="cls-11" x="214.11" y="139.9" width="79.31" height="24.88"/>
    <g>
      <rect class="cls-1" x="214.11" y="52.22" width="79.31" height="18.33"/>
      <path class="cls-14" d="M216.67,65.7h-1.68v-8.64h2.62l1.57,6.79,1.56-6.79h2.6v8.64h-1.68v-5.84c0-.17,0-.4,0-.71s0-.54,0-.7l-1.63,7.25h-1.75l-1.62-7.25c0,.16,0,.4,0,.7s0,.54,0,.71v5.84Z"/>
      <path class="cls-14" d="M225.12,60.01c.44-.56,1.2-.84,2.27-.84.7,0,1.32.14,1.86.42s.81.8.81,1.57v2.93c0,.2,0,.45.01.74.01.22.04.37.1.45s.14.14.25.19v.25h-1.82c-.05-.13-.09-.25-.11-.36s-.04-.24-.05-.39c-.23.25-.5.46-.8.64-.36.21-.77.31-1.22.31-.58,0-1.05-.17-1.43-.5s-.57-.8-.57-1.4c0-.79.3-1.35.91-1.71.33-.19.82-.33,1.46-.41l.57-.07c.31-.04.53-.09.66-.15.24-.1.36-.26.36-.47,0-.26-.09-.44-.27-.54s-.45-.15-.8-.15c-.39,0-.67.1-.84.29-.12.14-.2.34-.23.59h-1.61c.04-.56.19-1.02.47-1.38ZM226.36,64.49c.16.13.35.19.57.19.36,0,.69-.11.99-.32s.46-.6.47-1.15v-.62c-.11.07-.21.12-.32.16s-.26.08-.44.11l-.38.07c-.35.06-.6.14-.76.23-.26.15-.39.39-.39.71,0,.29.08.49.24.62Z"/>
      <path class="cls-14" d="M234.48,64.51v1.25l-.79.03c-.79.03-1.33-.11-1.62-.41-.19-.19-.28-.49-.28-.88v-3.93h-.89v-1.19h.89v-1.78h1.65v1.78h1.04v1.19h-1.04v3.38c0,.26.03.42.1.49s.27.1.61.1c.05,0,.11,0,.16,0s.11,0,.17,0Z"/>
      <path class="cls-14" d="M238.76,60.86c-.67,0-1.12.22-1.35.66-.13.25-.19.62-.19,1.14v3.05h-1.68v-6.39h1.59v1.11c.26-.43.48-.72.67-.87.31-.26.72-.39,1.22-.39.03,0,.06,0,.08,0s.07,0,.14,0v1.71c-.11-.01-.2-.02-.28-.02s-.15,0-.2,0Z"/>
      <path class="cls-14" d="M241.94,57.01v1.54h-1.69v-1.54h1.69ZM241.94,59.31v6.39h-1.69v-6.39h1.69Z"/>
      <path class="cls-14" d="M249.24,65.7h-2.08l-1.1-1.92-1.11,1.92h-2.03l2.18-3.23-2.09-3.14h2.04l1.07,1.85,1.04-1.85h1.99l-2.1,3.11,2.18,3.26Z"/>
      <path class="cls-14" d="M254.96,57.09v5.32c0,.62.12,1.14.36,1.56.35.62.94.94,1.77.94,1,0,1.67-.34,2.03-1.01.19-.37.29-.86.29-1.48v-5.32h1.18v4.83c0,1.06-.14,1.87-.43,2.44-.53,1.04-1.52,1.56-2.98,1.56s-2.45-.52-2.97-1.56c-.29-.57-.43-1.38-.43-2.44v-4.83h1.18Z"/>
      <path class="cls-14" d="M262.22,59.43h1v.89c.3-.37.61-.63.94-.79s.7-.24,1.11-.24c.89,0,1.49.31,1.8.93.17.34.26.83.26,1.46v4.03h-1.07v-3.96c0-.38-.06-.69-.17-.93-.19-.39-.53-.59-1.02-.59-.25,0-.46.03-.62.08-.29.09-.54.26-.76.52-.18.21-.29.42-.34.64s-.08.54-.08.95v3.29h-1.05v-6.28Z"/>
      <path class="cls-14" d="M268.9,57.09h1.07v1.2h-1.07v-1.2ZM268.9,59.45h1.07v6.25h-1.07v-6.25Z"/>
      <path class="cls-14" d="M271.77,57.67h1.07v1.75h1v.86h-1v4.1c0,.22.07.37.22.44.08.04.22.06.41.06.05,0,.11,0,.16,0,.06,0,.13,0,.21-.02v.84c-.12.04-.25.06-.38.08s-.27.02-.43.02c-.49,0-.83-.13-1-.38s-.26-.58-.26-.98v-4.15h-.85v-.86h.85v-1.75Z"/>
    </g>
    <g>
      <rect class="cls-1" x="222.55" y="85.15" width="26.78" height="33.23"/>
      <path class="cls-14" d="M223.58,97.47h3.85c.76,0,1.38.22,1.84.65.47.43.7,1.04.7,1.82,0,.67-.21,1.26-.63,1.75s-1.06.75-1.92.75h-2.69v3.64h-1.17v-8.61ZM228.1,98.66c-.26-.12-.61-.18-1.05-.18h-2.3v2.98h2.3c.52,0,.94-.11,1.27-.33s.49-.62.49-1.18c0-.63-.23-1.06-.7-1.29Z"/>
      <path class="cls-14" d="M231.58,97.47h6.25v1.05h-5.11v2.61h4.72v1h-4.72v2.92h5.2v1.03h-6.33v-8.61Z"/>
    </g>
    <g>
      <rect class="cls-1" x="222.55" y="143.98" width="69.75" height="16.71"/>
      <path class="cls-14" d="M225.97,148.04h1.32l3.12,8.61h-1.28l-.87-2.58h-3.4l-.93,2.58h-1.2l3.24-8.61ZM227.89,153.12l-1.31-3.8-1.39,3.8h2.7Z"/>
      <path class="cls-14" d="M235.48,150.71c.44.34.71.94.8,1.78h-1.03c-.06-.39-.21-.71-.43-.96s-.58-.38-1.07-.38c-.67,0-1.15.33-1.44.98-.19.42-.28.95-.28,1.57s.13,1.16.4,1.59.68.64,1.25.64c.44,0,.78-.13,1.04-.4.26-.27.43-.63.53-1.09h1.03c-.12.83-.41,1.44-.88,1.83s-1.07.58-1.8.58c-.82,0-1.47-.3-1.96-.9s-.73-1.35-.73-2.25c0-1.1.27-1.96.8-2.57s1.22-.92,2.04-.92c.71,0,1.28.17,1.73.52Z"/>
      <path class="cls-14" d="M241.48,150.71c.44.34.71.94.8,1.78h-1.03c-.06-.39-.21-.71-.43-.96s-.58-.38-1.07-.38c-.67,0-1.15.33-1.44.98-.19.42-.28.95-.28,1.57s.13,1.16.4,1.59.68.64,1.25.64c.44,0,.78-.13,1.04-.4.26-.27.43-.63.53-1.09h1.03c-.12.83-.41,1.44-.88,1.83s-1.07.58-1.8.58c-.82,0-1.47-.3-1.96-.9s-.73-1.35-.73-2.25c0-1.1.27-1.96.8-2.57s1.22-.92,2.04-.92c.71,0,1.28.17,1.73.52Z"/>
      <path class="cls-14" d="M246.78,148.04h1.67l2.48,7.28,2.46-7.28h1.66v8.61h-1.11v-5.08c0-.18,0-.47.01-.87s.01-.84.01-1.31l-2.46,7.26h-1.16l-2.48-7.26v.26c0,.21,0,.53.02.96s.02.75.02.95v5.08h-1.11v-8.61Z"/>
      <path class="cls-14" d="M260.54,150.55c.42.21.73.48.95.81.21.32.35.69.42,1.11.06.29.09.75.09,1.38h-4.56c.02.64.17,1.15.45,1.54.28.39.71.58,1.3.58.55,0,.98-.18,1.31-.55.18-.21.31-.46.39-.74h1.04c-.03.23-.12.49-.27.77s-.33.51-.52.69c-.32.31-.71.52-1.18.63-.25.06-.54.09-.86.09-.78,0-1.43-.28-1.97-.85s-.81-1.36-.81-2.39.27-1.83.82-2.46,1.25-.94,2.13-.94c.44,0,.87.1,1.29.31ZM260.92,153.01c-.04-.46-.14-.82-.3-1.1-.29-.51-.76-.76-1.43-.76-.48,0-.88.17-1.21.52-.33.35-.5.79-.52,1.33h3.46Z"/>
      <path class="cls-14" d="M263.34,150.38h1.04v.89c.25-.31.48-.53.68-.67.35-.24.74-.36,1.18-.36.5,0,.9.12,1.21.37.17.14.33.35.47.62.23-.34.51-.58.83-.75s.67-.24,1.07-.24c.84,0,1.42.3,1.72.91.16.33.25.77.25,1.32v4.18h-1.1v-4.36c0-.42-.1-.71-.31-.86s-.46-.23-.76-.23c-.41,0-.77.14-1.07.42s-.45.74-.45,1.39v3.65h-1.07v-4.1c0-.43-.05-.74-.15-.93-.16-.29-.46-.44-.9-.44-.4,0-.76.15-1.09.46s-.49.87-.49,1.68v3.33h-1.05v-6.28Z"/>
    </g>
    <rect class="cls-12" x="247.39" y="83.6" width="16.11" height="16.11"/>
    <rect class="cls-12" x="247.39" y="105.91" width="16.11" height="16.11"/>
    <rect class="cls-12" x="269.45" y="83.6" width="16.11" height="16.11"/>
    <rect class="cls-12" x="269.45" y="105.91" width="16.11" height="16.11"/>
    <g>
      <line class="cls-2" x1="191.04" y1="74.39" x2="197.81" y2="74.39"/>
      <polygon class="cls-14" points="192.21 78.38 185.3 74.39 192.21 70.4 192.21 78.38"/>
      <polygon class="cls-14" points="196.65 78.38 203.55 74.39 196.65 70.4 196.65 78.38"/>
    </g>
    <g>
      <polyline class="cls-2" points="191.04 74.39 194.43 74.39 194.43 214.54 197.81 214.54"/>
      <polygon class="cls-14" points="192.21 78.38 185.3 74.39 192.21 70.4 192.21 78.38"/>
      <polygon class="cls-14" points="196.65 218.53 203.55 214.54 196.65 210.55 196.65 218.53"/>
    </g>
    <rect class="cls-11" x=".5" y="383.5" width="325.62" height="36.1"/>
    <g>
      <rect class="cls-1" x="113.32" y="392.42" width="89.94" height="18.33"/>
      <path class="cls-14" d="M120.97,403.38c.03.57.16,1.03.39,1.39.44.67,1.2,1,2.3,1,.49,0,.94-.07,1.34-.22.78-.28,1.17-.79,1.17-1.52,0-.55-.17-.94-.5-1.17-.33-.23-.86-.43-1.58-.59l-1.32-.31c-.86-.2-1.47-.42-1.83-.66-.62-.42-.93-1.05-.93-1.88,0-.9.3-1.64.91-2.22.61-.58,1.47-.87,2.58-.87,1.03,0,1.9.25,2.61.76.72.51,1.07,1.32,1.07,2.44h-1.28c-.07-.54-.21-.95-.42-1.24-.4-.52-1.07-.79-2.03-.79-.77,0-1.32.17-1.66.51-.34.34-.5.73-.5,1.18,0,.49.2.85.6,1.08.26.15.85.33,1.77.55l1.36.32c.66.16,1.17.37,1.52.64.62.47.93,1.15.93,2.04,0,1.11-.39,1.91-1.18,2.39s-1.71.72-2.75.72c-1.22,0-2.17-.32-2.86-.96-.69-.63-1.03-1.49-1.01-2.58h1.28Z"/>
      <path class="cls-14" d="M133.83,399.3h1.36c-.17.47-.56,1.54-1.16,3.21-.45,1.26-.82,2.28-1.12,3.08-.71,1.87-1.21,3.01-1.5,3.42-.29.41-.79.61-1.5.61-.17,0-.31,0-.4-.02-.09-.01-.21-.04-.34-.08v-1.12c.21.06.37.1.46.11.1.01.18.02.25.02.23,0,.39-.04.5-.11s.2-.17.27-.28c.02-.04.1-.22.25-.56.14-.34.24-.59.31-.75l-2.71-7.54h1.39l1.96,5.96,1.98-5.96Z"/>
      <path class="cls-14" d="M136.98,404.33c.04.41.14.72.31.94.32.4.87.59,1.65.59.47,0,.87-.1,1.23-.3s.53-.5.53-.92c0-.31-.14-.55-.42-.72-.18-.1-.54-.22-1.07-.35l-.99-.25c-.63-.15-1.1-.33-1.4-.52-.54-.33-.81-.79-.81-1.38,0-.69.25-1.25.76-1.68.5-.43,1.19-.64,2.04-.64,1.12,0,1.92.32,2.42.97.31.41.46.85.45,1.33h-1.16c-.02-.28-.12-.53-.3-.75-.29-.32-.79-.48-1.51-.48-.47,0-.84.09-1.08.27-.25.18-.37.41-.37.7,0,.32.16.57.48.76.19.11.46.21.82.3l.83.2c.9.21,1.5.42,1.81.62.48.31.72.81.72,1.48s-.25,1.21-.75,1.69c-.5.47-1.26.71-2.29.71-1.1,0-1.88-.25-2.34-.74-.46-.5-.71-1.11-.74-1.84h1.18Z"/>
      <path class="cls-14" d="M143.5,397.26h1.24v2.04h1.17v1h-1.17v4.78c0,.26.09.43.26.51.1.05.26.08.48.08.06,0,.12,0,.19,0s.15-.01.24-.02v.98c-.14.04-.29.07-.44.09-.15.02-.32.03-.5.03-.57,0-.96-.15-1.17-.44s-.31-.68-.31-1.15v-4.85h-.99v-1h.99v-2.04Z"/>
      <path class="cls-14" d="M151.66,399.5c.48.24.85.56,1.11.95.24.37.41.8.49,1.29.07.34.11.88.11,1.61h-5.32c.02.75.2,1.34.52,1.79.33.45.83.67,1.51.67.64,0,1.15-.21,1.53-.64.21-.25.36-.53.45-.86h1.21c-.03.27-.14.57-.32.9-.18.33-.38.6-.6.81-.37.37-.83.61-1.38.74-.29.07-.63.11-1,.11-.91,0-1.67-.33-2.3-.99-.63-.66-.95-1.59-.95-2.79s.32-2.13.95-2.86c.63-.73,1.46-1.1,2.49-1.1.52,0,1.02.12,1.5.37ZM152.1,402.38c-.05-.53-.17-.96-.35-1.28-.33-.59-.89-.89-1.67-.89-.56,0-1.03.2-1.41.61-.38.41-.58.93-.6,1.55h4.03Z"/>
      <path class="cls-14" d="M154.93,399.3h1.22v1.04c.29-.36.56-.62.79-.79.41-.28.87-.42,1.38-.42.58,0,1.05.14,1.41.43.2.16.38.41.55.72.27-.39.6-.68.96-.87.37-.19.78-.28,1.24-.28.98,0,1.65.36,2.01,1.07.19.38.29.9.29,1.54v4.87h-1.28v-5.09c0-.49-.12-.82-.37-1-.24-.18-.54-.27-.89-.27-.48,0-.9.16-1.25.49-.35.32-.52.86-.52,1.62v4.26h-1.25v-4.78c0-.5-.06-.86-.18-1.09-.19-.34-.54-.51-1.04-.51-.46,0-.89.18-1.27.54-.38.36-.57,1.01-.57,1.96v3.88h-1.23v-7.32Z"/>
      <path class="cls-14" d="M170.64,396.58h1.6l5.01,8.11v-8.11h1.3v10.04h-1.53l-5.08-8.1v8.1h-1.3v-10.04Z"/>
      <path class="cls-14" d="M185.89,400.03c.65.63.97,1.55.97,2.77s-.29,2.15-.86,2.92c-.57.77-1.45,1.15-2.65,1.15-1,0-1.79-.34-2.38-1.02s-.88-1.59-.88-2.74c0-1.23.31-2.21.93-2.94.62-.73,1.45-1.09,2.5-1.09.94,0,1.73.31,2.38.94ZM185.13,404.9c.3-.62.45-1.3.45-2.06,0-.68-.11-1.24-.32-1.67-.34-.67-.93-1.01-1.77-1.01-.74,0-1.28.29-1.62.86-.34.57-.51,1.27-.51,2.08s.17,1.43.51,1.95c.34.52.87.78,1.61.78.81,0,1.36-.31,1.66-.92Z"/>
      <path class="cls-14" d="M195.64,397.31c.69.67,1.08,1.43,1.16,2.28h-1.33c-.15-.65-.44-1.16-.88-1.54-.44-.38-1.06-.57-1.86-.57-.97,0-1.75.35-2.35,1.04-.6.7-.9,1.76-.9,3.2,0,1.18.27,2.13.81,2.86s1.34,1.1,2.41,1.1c.98,0,1.73-.38,2.25-1.16.27-.41.48-.94.61-1.6h1.33c-.12,1.06-.5,1.94-1.16,2.66-.79.86-1.85,1.29-3.19,1.29-1.15,0-2.12-.35-2.91-1.06-1.03-.94-1.55-2.38-1.55-4.33,0-1.48.39-2.7,1.16-3.65.84-1.03,1.99-1.55,3.46-1.55,1.26,0,2.23.33,2.93,1Z"/>
    </g>
    <rect class="cls-8" x="94.63" y="329.32" width="231.5" height="36.1"/>
    <g>
      <rect class="cls-1" x="132.24" y="338.2" width="156.28" height="18.33"/>
      <path class="cls-14" d="M150.87,351.65c-.75.69-1.71,1.03-2.88,1.03-1.45,0-2.59-.46-3.42-1.39-.83-.93-1.24-2.21-1.24-3.84,0-1.76.47-3.12,1.42-4.07.82-.83,1.86-1.24,3.13-1.24,1.7,0,2.94.56,3.72,1.67.43.62.67,1.25.7,1.88h-2.11c-.14-.48-.31-.85-.53-1.09-.38-.44-.95-.66-1.7-.66s-1.37.31-1.81.93c-.44.62-.66,1.49-.66,2.62s.23,1.98.7,2.54c.47.56,1.06.84,1.78.84s1.3-.24,1.69-.72c.21-.26.39-.65.53-1.17h2.08c-.18,1.1-.65,1.99-1.39,2.68Z"/>
      <path class="cls-14" d="M159.93,345.89c.63.79.94,1.72.94,2.8s-.31,2.03-.94,2.81c-.63.78-1.58,1.17-2.86,1.17s-2.24-.39-2.86-1.17c-.63-.78-.94-1.71-.94-2.81s.31-2.01.94-2.8c.63-.79,1.58-1.18,2.86-1.18s2.24.39,2.86,1.18ZM157.06,346.36c-.57,0-1.01.2-1.32.6-.31.4-.46.98-.46,1.73s.15,1.32.46,1.73c.31.41.75.61,1.32.61s1.01-.2,1.31-.61c.3-.41.46-.98.46-1.73s-.15-1.32-.46-1.73-.74-.6-1.31-.6Z"/>
      <path class="cls-14" d="M166.45,347c-.16-.36-.49-.54-.96-.54-.56,0-.93.18-1.12.54-.1.21-.16.51-.16.92v4.48h-1.98v-7.44h1.89v1.09c.24-.39.47-.66.68-.83.38-.29.87-.44,1.47-.44.57,0,1.03.12,1.38.38.28.23.5.53.64.9.25-.44.57-.76.95-.96.4-.21.85-.31,1.34-.31.33,0,.65.06.97.19.32.13.61.35.87.67.21.26.35.58.42.96.05.25.07.62.07,1.1v4.7h-2.01v-4.74c0-.28-.05-.52-.14-.7-.17-.35-.49-.52-.96-.52-.54,0-.91.22-1.11.67-.11.24-.16.52-.16.85v4.44h-1.96v-4.44c0-.44-.04-.76-.14-.96Z"/>
      <path class="cls-14" d="M178.9,347c-.16-.36-.49-.54-.96-.54-.56,0-.93.18-1.12.54-.11.21-.16.51-.16.92v4.48h-1.98v-7.44h1.89v1.09c.24-.39.47-.66.68-.83.38-.29.87-.44,1.47-.44.57,0,1.03.12,1.38.38.28.23.5.53.64.9.26-.44.57-.76.95-.96.4-.21.85-.31,1.34-.31.33,0,.65.06.97.19.32.13.61.35.87.67.21.26.35.58.42.96.04.25.07.62.07,1.1v4.7h-2.01v-4.74c0-.28-.04-.52-.14-.7-.17-.35-.49-.52-.96-.52-.54,0-.91.22-1.11.67-.1.24-.16.52-.16.85v4.44h-1.96v-4.44c0-.44-.05-.76-.14-.96Z"/>
      <path class="cls-14" d="M187.44,345.76c.51-.66,1.4-.98,2.65-.98.82,0,1.54.16,2.17.49.63.32.95.93.95,1.83v3.42c0,.24,0,.52.01.86.01.25.05.43.12.52.06.09.16.17.29.23v.29h-2.12c-.06-.15-.1-.29-.12-.42-.02-.13-.04-.28-.05-.45-.27.29-.58.54-.93.75-.42.24-.89.36-1.42.36-.67,0-1.23-.19-1.67-.58-.44-.38-.66-.93-.66-1.64,0-.92.35-1.58,1.06-1.99.39-.22.96-.38,1.71-.48l.66-.08c.36-.05.62-.1.77-.17.28-.12.42-.3.42-.55,0-.31-.11-.52-.32-.63-.21-.12-.52-.17-.93-.17-.46,0-.79.11-.98.34-.14.17-.23.4-.27.68h-1.88c.04-.65.22-1.19.55-1.61ZM188.89,350.99c.18.15.41.23.67.23.42,0,.81-.12,1.16-.37.35-.25.54-.7.55-1.35v-.72c-.12.08-.25.14-.37.19-.13.05-.3.09-.52.13l-.44.08c-.41.07-.7.16-.88.27-.3.18-.45.45-.45.83,0,.33.09.57.28.72Z"/>
      <path class="cls-14" d="M198.46,346.39c-.66,0-1.11.28-1.36.84-.13.3-.19.67-.19,1.13v4.03h-1.94v-7.44h1.88v1.09c.25-.38.49-.66.71-.83.4-.3.91-.45,1.52-.45.77,0,1.4.2,1.89.6.49.4.74,1.07.74,2.01v5.02h-2v-4.53c0-.39-.05-.69-.16-.9-.19-.38-.56-.57-1.09-.57Z"/>
      <path class="cls-14" d="M210.28,342.34v10.06h-1.89v-1.03c-.28.44-.59.76-.95.96-.36.2-.8.3-1.33.3-.87,0-1.6-.35-2.2-1.06-.6-.7-.89-1.61-.89-2.71,0-1.27.29-2.27.88-3,.58-.73,1.37-1.09,2.35-1.09.45,0,.85.1,1.2.3s.64.47.85.82v-3.55h1.98ZM205.03,348.72c0,.69.14,1.24.41,1.65.27.41.68.62,1.23.62s.97-.21,1.26-.62.43-.94.43-1.59c0-.91-.23-1.56-.69-1.96-.28-.24-.61-.36-.98-.36-.57,0-.99.21-1.25.65-.27.43-.4.96-.4,1.6Z"/>
      <path class="cls-14" d="M216.23,342.36h4.49c.89,0,1.61.25,2.15.75.55.5.82,1.21.82,2.12,0,.78-.24,1.47-.73,2.05-.49.58-1.23.87-2.24.87h-3.14v4.25h-1.36v-10.04ZM221.51,343.74c-.3-.14-.71-.21-1.23-.21h-2.69v3.48h2.69c.61,0,1.1-.13,1.48-.39.38-.26.57-.72.57-1.37,0-.74-.27-1.24-.81-1.5Z"/>
      <path class="cls-14" d="M225.31,345.08h1.17v1.26c.1-.25.33-.55.7-.9.37-.35.8-.53,1.29-.53.02,0,.06,0,.12,0,.05,0,.15.01.28.03v1.3c-.07-.01-.14-.02-.2-.03-.06,0-.13,0-.2,0-.62,0-1.1.2-1.43.6-.33.4-.5.86-.5,1.38v4.21h-1.23v-7.32Z"/>
      <path class="cls-14" d="M235.24,345.81c.65.63.97,1.55.97,2.77s-.29,2.15-.86,2.92c-.57.77-1.45,1.15-2.65,1.15-1,0-1.79-.34-2.38-1.02-.59-.68-.88-1.59-.88-2.74,0-1.23.31-2.21.93-2.94.62-.73,1.45-1.09,2.5-1.09.94,0,1.73.31,2.38.94ZM234.48,350.67c.3-.62.45-1.3.45-2.06,0-.68-.11-1.24-.33-1.67-.34-.67-.93-1.01-1.77-1.01-.74,0-1.29.29-1.62.86-.34.57-.51,1.27-.51,2.08s.17,1.43.51,1.95c.34.52.87.78,1.61.78.81,0,1.36-.31,1.66-.93Z"/>
      <path class="cls-14" d="M242.56,345.47c.52.4.83,1.09.93,2.07h-1.2c-.07-.45-.24-.83-.5-1.12-.26-.3-.68-.45-1.25-.45-.78,0-1.34.38-1.68,1.15-.22.5-.33,1.11-.33,1.84s.16,1.35.46,1.85c.31.5.8.75,1.46.75.51,0,.92-.16,1.21-.47.3-.31.5-.74.62-1.28h1.2c-.14.97-.48,1.68-1.03,2.13-.55.45-1.25.67-2.1.67-.96,0-1.72-.35-2.29-1.05-.57-.7-.85-1.57-.85-2.62,0-1.29.31-2.29.94-3,.62-.72,1.42-1.07,2.39-1.07.83,0,1.5.2,2.01.6Z"/>
      <path class="cls-14" d="M249.24,345.28c.49.24.85.56,1.11.95.25.37.41.8.49,1.29.07.34.11.88.11,1.61h-5.33c.02.75.2,1.34.52,1.79s.83.68,1.51.68c.64,0,1.15-.21,1.53-.64.21-.25.36-.53.45-.86h1.21c-.03.27-.14.57-.32.9-.18.33-.38.6-.6.81-.37.36-.83.61-1.38.74-.29.07-.63.11-1,.11-.91,0-1.67-.33-2.3-1-.63-.66-.94-1.59-.94-2.79s.32-2.13.95-2.86c.63-.73,1.46-1.1,2.49-1.1.52,0,1.02.12,1.5.37ZM249.68,348.16c-.05-.53-.17-.96-.35-1.28-.33-.59-.89-.89-1.67-.89-.56,0-1.03.2-1.41.61-.38.41-.58.93-.6,1.56h4.03Z"/>
      <path class="cls-14" d="M253.24,350.1c.04.41.14.72.31.94.32.4.87.59,1.65.59.46,0,.87-.1,1.23-.3s.53-.5.53-.92c0-.31-.14-.55-.42-.72-.18-.1-.54-.22-1.07-.35l-.99-.25c-.63-.16-1.1-.33-1.4-.52-.54-.33-.81-.79-.81-1.38,0-.69.25-1.25.76-1.68.51-.43,1.19-.64,2.04-.64,1.12,0,1.92.32,2.42.97.31.41.46.85.45,1.33h-1.16c-.02-.28-.12-.53-.3-.75-.29-.32-.79-.48-1.5-.48-.48,0-.84.09-1.08.27-.24.18-.37.41-.37.7,0,.32.16.57.48.76.19.11.46.21.82.3l.83.2c.9.21,1.5.42,1.81.62.48.31.72.81.72,1.48s-.25,1.21-.75,1.69c-.5.47-1.26.71-2.29.71-1.1,0-1.88-.25-2.34-.74-.46-.49-.71-1.11-.74-1.83h1.18Z"/>
      <path class="cls-14" d="M260.24,350.1c.04.41.14.72.31.94.32.4.87.59,1.65.59.46,0,.87-.1,1.23-.3s.53-.5.53-.92c0-.31-.14-.55-.42-.72-.18-.1-.54-.22-1.07-.35l-.99-.25c-.63-.16-1.1-.33-1.4-.52-.54-.33-.81-.79-.81-1.38,0-.69.25-1.25.76-1.68.51-.43,1.19-.64,2.04-.64,1.12,0,1.92.32,2.42.97.31.41.46.85.45,1.33h-1.16c-.02-.28-.12-.53-.3-.75-.29-.32-.79-.48-1.5-.48-.48,0-.84.09-1.08.27-.24.18-.37.41-.37.7,0,.32.16.57.48.76.19.11.46.21.82.3l.83.2c.9.21,1.5.42,1.81.62.48.31.72.81.72,1.48s-.25,1.21-.75,1.69c-.5.47-1.26.71-2.29.71-1.1,0-1.88-.25-2.34-.74-.46-.49-.71-1.11-.74-1.83h1.18Z"/>
      <path class="cls-14" d="M271.81,345.81c.65.63.97,1.55.97,2.77s-.29,2.15-.86,2.92c-.57.77-1.45,1.15-2.65,1.15-1,0-1.79-.34-2.38-1.02-.59-.68-.88-1.59-.88-2.74,0-1.23.31-2.21.93-2.94.62-.73,1.45-1.09,2.5-1.09.94,0,1.73.31,2.38.94ZM271.05,350.67c.3-.62.45-1.3.45-2.06,0-.68-.11-1.24-.33-1.67-.34-.67-.93-1.01-1.77-1.01-.74,0-1.29.29-1.62.86-.34.57-.51,1.27-.51,2.08s.17,1.43.51,1.95c.34.52.87.78,1.61.78.81,0,1.36-.31,1.66-.93Z"/>
      <path class="cls-14" d="M274.33,345.08h1.17v1.26c.1-.25.33-.55.7-.9.37-.35.8-.53,1.29-.53.02,0,.06,0,.12,0,.05,0,.15.01.28.03v1.3c-.07-.01-.14-.02-.2-.03-.06,0-.13,0-.2,0-.62,0-1.1.2-1.43.6-.33.4-.5.86-.5,1.38v4.21h-1.23v-7.32Z"/>
    </g>
  </g>
</svg>