<?xml version="1.0" encoding="UTF-8"?>
<svg id="Layer_1" data-name="Layer 1" xmlns="http://www.w3.org/2000/svg" viewBox="0 0 828 332">
  <defs>
    <style>
      .cls-1, .cls-2 {
        font-size: 12px;
      }

      .cls-1, .cls-2, .cls-3 {
        font-family: Helvetica, Helvetica;
      }

      .cls-2, .cls-3, .cls-4, .cls-5 {
        fill: #666;
      }

      .cls-3, .cls-4, .cls-6 {
        font-size: 10px;
      }

      .cls-4 {
        font-family: SFPro-Medium, 'SF Pro';
        font-variation-settings: 'wdth' 100, 'opsz' 28, 'wght' 510;
        font-weight: 500;
      }

      .cls-7, .cls-8 {
        fill: #fff;
      }

      .cls-7, .cls-9, .cls-10 {
        stroke: #000;
        stroke-miterlimit: 10;
      }

      .cls-9 {
        fill: none;
      }

      .cls-11 {
        letter-spacing: -.074em;
      }

      .cls-12 {
        letter-spacing: -.111em;
      }

      .cls-13 {
        letter-spacing: -.018em;
      }

      .cls-14 {
        letter-spacing: -.055em;
      }

      .cls-15 {
        letter-spacing: -.052em;
      }

      .cls-6 {
        font-family: InputMonoNarrow-Regular, 'Input Mono Narrow';
      }
    </style>
  </defs>
  <g>
    <rect class="cls-8" x="406.5" y="54.5" width="139" height="175"/>
    <path d="M545,55v174h-138V55h138M546,54h-140v176h140V54h0Z"/>
  </g>
  <g>
    <rect class="cls-8" x="104.5" y="54.5" width="143" height="22"/>
    <path d="M247,55v21H105v-21h142M248,54H104v23h144v-23h0Z"/>
  </g>
  <text class="cls-3" transform="translate(114.686 68.992)"><tspan x="0" y="0">warp 0</tspan></text>
  <g>
    <rect class="cls-8" x="104.5" y="76.5" width="143" height="22"/>
    <path d="M247,77v21H105v-21h142M248,76H104v23h144v-23h0Z"/>
  </g>
  <text class="cls-3" transform="translate(114.686 90.992)"><tspan x="0" y="0">warp 1</tspan></text>
  <g>
    <rect class="cls-8" x="104.5" y="98.5" width="143" height="22"/>
    <path d="M247,99v21H105v-21h142M248,98H104v23h144v-23h0Z"/>
  </g>
  <text class="cls-3" transform="translate(114.686 112.992)"><tspan x="0" y="0">warp 2</tspan></text>
  <g>
    <rect class="cls-8" x="104.5" y="120.5" width="143" height="22"/>
    <path d="M247,121v21H105v-21h142M248,120H104v23h144v-23h0Z"/>
  </g>
  <text class="cls-3" transform="translate(114.686 134.992)"><tspan x="0" y="0">warp 3</tspan></text>
  <text class="cls-1" transform="translate(103.801 47.817)"><tspan class="cls-11" x="0" y="0">V</tspan><tspan x="7.119" y="0">alid</tspan><tspan class="cls-14" x="25.799" y="0"> </tspan><tspan x="28.477" y="0">ARs </tspan></text>
  <g>
    <circle class="cls-10" cx="157.5" cy="65.5" r="3"/>
    <circle class="cls-10" cx="167.5" cy="65.5" r="3"/>
    <circle class="cls-10" cx="177.5" cy="65.5" r="3"/>
    <circle class="cls-10" cx="217.5" cy="65.5" r="3"/>
    <rect class="cls-9" x="152.5" y="60.5" width="10" height="10"/>
    <rect class="cls-9" x="162.5" y="60.5" width="10" height="10"/>
    <rect class="cls-9" x="172.5" y="60.5" width="10" height="10"/>
    <rect class="cls-9" x="182.5" y="60.5" width="10" height="10"/>
    <rect class="cls-9" x="192.5" y="60.5" width="10" height="10"/>
    <rect class="cls-9" x="202.5" y="60.5" width="10" height="10"/>
    <rect class="cls-9" x="212.5" y="60.5" width="10" height="10"/>
    <rect class="cls-9" x="222.5" y="60.5" width="10" height="10"/>
  </g>
  <g>
    <circle class="cls-10" cx="157.5" cy="87.5" r="3"/>
    <circle class="cls-10" cx="167.5" cy="87.5" r="3"/>
    <circle class="cls-10" cx="177.5" cy="87.5" r="3"/>
    <circle class="cls-10" cx="217.5" cy="87.5" r="3"/>
    <rect class="cls-9" x="152.5" y="82.5" width="10" height="10"/>
    <rect class="cls-9" x="162.5" y="82.5" width="10" height="10"/>
    <rect class="cls-9" x="172.5" y="82.5" width="10" height="10"/>
    <rect class="cls-9" x="182.5" y="82.5" width="10" height="10"/>
    <rect class="cls-9" x="192.5" y="82.5" width="10" height="10"/>
    <rect class="cls-9" x="202.5" y="82.5" width="10" height="10"/>
    <rect class="cls-9" x="212.5" y="82.5" width="10" height="10"/>
    <rect class="cls-9" x="222.5" y="82.5" width="10" height="10"/>
  </g>
  <g>
    <circle class="cls-10" cx="157.5" cy="109.5" r="3"/>
    <circle class="cls-10" cx="167.5" cy="109.5" r="3"/>
    <circle class="cls-10" cx="177.5" cy="109.5" r="3"/>
    <circle class="cls-10" cx="217.5" cy="109.5" r="3"/>
    <rect class="cls-9" x="152.5" y="104.5" width="10" height="10"/>
    <rect class="cls-9" x="162.5" y="104.5" width="10" height="10"/>
    <rect class="cls-9" x="172.5" y="104.5" width="10" height="10"/>
    <rect class="cls-9" x="182.5" y="104.5" width="10" height="10"/>
    <rect class="cls-9" x="192.5" y="104.5" width="10" height="10"/>
    <rect class="cls-9" x="202.5" y="104.5" width="10" height="10"/>
    <rect class="cls-9" x="212.5" y="104.5" width="10" height="10"/>
    <rect class="cls-9" x="222.5" y="104.5" width="10" height="10"/>
  </g>
  <g>
    <circle class="cls-10" cx="157.5" cy="131.5" r="3"/>
    <circle class="cls-10" cx="167.5" cy="131.5" r="3"/>
    <circle class="cls-10" cx="177.5" cy="131.5" r="3"/>
    <circle class="cls-10" cx="217.5" cy="131.5" r="3"/>
    <rect class="cls-9" x="152.5" y="126.5" width="10" height="10"/>
    <rect class="cls-9" x="162.5" y="126.5" width="10" height="10"/>
    <rect class="cls-9" x="172.5" y="126.5" width="10" height="10"/>
    <rect class="cls-9" x="182.5" y="126.5" width="10" height="10"/>
    <rect class="cls-9" x="192.5" y="126.5" width="10" height="10"/>
    <rect class="cls-9" x="202.5" y="126.5" width="10" height="10"/>
    <rect class="cls-9" x="212.5" y="126.5" width="10" height="10"/>
    <rect class="cls-9" x="222.5" y="126.5" width="10" height="10"/>
  </g>
  <path class="cls-7" d="M140.63,212.5h-11.13v-16h11.13c2.087,0,7.652,1.391,7.652,8s-5.565,8-7.652,8Z"/>
  <g>
    <line class="cls-9" x1="148" y1="204.5" x2="170.412" y2="204.5"/>
    <polygon points="169.682 206.993 174 204.5 169.682 202.007 169.682 206.993"/>
  </g>
  <path class="cls-7" d="M140.63,234.5h-11.13v-16h11.13c2.087,0,7.652,1.391,7.652,8s-5.565,8-7.652,8Z"/>
  <g>
    <line class="cls-9" x1="148" y1="226.5" x2="170.412" y2="226.5"/>
    <polygon points="169.682 228.993 174 226.5 169.682 224.007 169.682 228.993"/>
  </g>
  <path class="cls-7" d="M140.63,256.5h-11.13v-16h11.13c2.087,0,7.652,1.391,7.652,8s-5.565,8-7.652,8Z"/>
  <g>
    <line class="cls-9" x1="148" y1="248.5" x2="170.412" y2="248.5"/>
    <polygon points="169.682 250.993 174 248.5 169.682 246.007 169.682 250.993"/>
  </g>
  <path class="cls-7" d="M140.63,278.5h-11.13v-16h11.13c2.087,0,7.652,1.391,7.652,8s-5.565,8-7.652,8Z"/>
  <g>
    <line class="cls-9" x1="148" y1="270.5" x2="170.412" y2="270.5"/>
    <polygon points="169.682 272.993 174 270.5 169.682 268.007 169.682 272.993"/>
  </g>
  <g>
    <line class="cls-9" x1="248" y1="65.5" x2="263.412" y2="65.5"/>
    <polygon points="262.682 67.993 267 65.5 262.682 63.007 262.682 67.993"/>
  </g>
  <g>
    <line class="cls-9" x1="248" y1="87.5" x2="263.412" y2="87.5"/>
    <polygon points="262.682 89.993 267 87.5 262.682 85.007 262.682 89.993"/>
  </g>
  <g>
    <line class="cls-9" x1="248" y1="109.5" x2="263.412" y2="109.5"/>
    <polygon points="262.682 111.993 267 109.5 262.682 107.007 262.682 111.993"/>
  </g>
  <g>
    <line class="cls-9" x1="248" y1="131.5" x2="263.412" y2="131.5"/>
    <polygon points="262.682 133.993 267 131.5 262.682 129.007 262.682 133.993"/>
  </g>
  <text class="cls-6" transform="translate(150.433 199.809)"><tspan x="0" y="0">inc</tspan></text>
  <g>
    <line class="cls-9" x1="85" y1="204.5" x2="125.412" y2="204.5"/>
    <polygon points="124.682 206.993 129 204.5 124.682 202.007 124.682 206.993"/>
  </g>
  <g>
    <line class="cls-9" x1="85" y1="226.5" x2="125.412" y2="226.5"/>
    <polygon points="124.682 228.993 129 226.5 124.682 224.007 124.682 228.993"/>
  </g>
  <g>
    <line class="cls-9" x1="85" y1="248.5" x2="125.412" y2="248.5"/>
    <polygon points="124.682 250.993 129 248.5 124.682 246.007 124.682 250.993"/>
  </g>
  <g>
    <line class="cls-9" x1="85" y1="270.5" x2="125.412" y2="270.5"/>
    <polygon points="124.682 272.993 129 270.5 124.682 268.007 124.682 272.993"/>
  </g>
  <g>
    <path d="M654.751,37.809v-5.454h.882v.872h.246c.114-.332.294-.576.536-.73.242-.155.533-.232.872-.232.382,0,.697.132.946.396.248.264.372.638.372,1.122v.837h-.836v-.519c0-.346-.068-.598-.205-.759-.136-.161-.35-.241-.641-.241-.261,0-.498.07-.714.209-.215.141-.407.352-.577.637v3.863h-.882Z"/>
    <path d="M663.442,36.964c-.134.297-.329.526-.587.69s-.55.246-.877.246c-.509,0-.904-.18-1.187-.537s-.423-.854-.423-1.49v-1.592c0-.636.188-1.131.563-1.486.376-.354.903-.531,1.582-.531.194,0,.393.022.596.068.203.045.398.107.586.186v-1.981h.873v7.272h-.873v-.845h-.254ZM662.224,37.063c.279,0,.538-.075.777-.228.239-.15.472-.381.695-.69v-2.755c-.17-.121-.35-.211-.541-.268-.19-.058-.396-.087-.613-.087-.442,0-.77.104-.981.31-.213.206-.318.523-.318.954v1.591c0,.4.082.695.245.887.164.191.409.286.736.286Z"/>
    <path d="M654.169,47.809l-.727-3.562-.7,3.562h-.973l-.937-5.454h.836l.618,4.755.646-3.855h.982l.709,3.71.591-4.609h.836l-.937,5.454h-.945Z"/>
    <path d="M661.587,46.618c-.151.448-.383.774-.695.978-.312.203-.786.305-1.423.305-.66,0-1.177-.17-1.55-.51-.373-.339-.559-.839-.559-1.5v-1.591c0-.679.195-1.188.586-1.526.391-.34.898-.51,1.522-.51.631,0,1.137.173,1.519.518.382.346.572.877.572,1.592v.881h-3.327v.637c0,.449.102.77.305.964s.514.291.932.291c.395,0,.681-.062.859-.187.179-.124.316-.322.414-.596l.845.255ZM658.232,44.309v.273h2.455v-.191c0-.479-.104-.827-.31-1.045-.206-.219-.512-.328-.918-.328s-.712.107-.918.318c-.206.213-.31.537-.31.973Z"/>
    <path d="M663.378,47.809v-5.454h.873v.846h.254c.134-.291.332-.521.596-.687s.56-.25.887-.25c.491,0,.879.162,1.163.486.285.324.428.768.428,1.332v3.727h-.873v-3.555c0-.381-.083-.669-.25-.863-.166-.193-.404-.291-.713-.291-.255,0-.51.078-.764.232-.255.154-.497.381-.728.678v3.799h-.873Z"/>
  </g>
  <g>
    <path d="M101.751,293.809v-5.454h.882v.872h.246c.115-.332.294-.576.536-.73.242-.155.533-.232.873-.232.382,0,.697.132.946.396s.373.638.373,1.122v.837h-.836v-.519c0-.346-.068-.598-.205-.759-.136-.161-.35-.241-.641-.241-.261,0-.499.07-.714.209-.215.141-.408.352-.577.637v3.863h-.882Z"/>
    <path d="M110.442,292.964c-.133.297-.329.526-.586.69-.258.164-.55.246-.877.246-.509,0-.904-.18-1.186-.537-.282-.357-.423-.854-.423-1.49v-1.592c0-.636.188-1.131.563-1.486.376-.354.903-.531,1.582-.531.194,0,.392.022.595.068.203.045.398.107.586.186v-1.981h.873v7.272h-.873v-.845h-.254ZM109.224,293.063c.279,0,.538-.075.777-.228.239-.15.471-.381.695-.69v-2.755c-.17-.121-.35-.211-.541-.268-.191-.058-.396-.087-.613-.087-.443,0-.77.104-.982.31-.212.206-.318.523-.318.954v1.591c0,.4.082.695.246.887s.409.286.736.286Z"/>
    <path d="M101.169,303.809l-.727-3.562-.7,3.562h-.973l-.937-5.454h.836l.618,4.755.646-3.855h.982l.709,3.71.591-4.609h.836l-.937,5.454h-.945Z"/>
    <path d="M108.587,302.618c-.151.448-.383.774-.695.978s-.786.305-1.423.305c-.661,0-1.177-.17-1.55-.51-.373-.339-.559-.839-.559-1.5v-1.591c0-.679.195-1.188.586-1.526.391-.34.898-.51,1.522-.51.63,0,1.137.173,1.518.518.382.346.573.877.573,1.592v.881h-3.327v.637c0,.449.102.77.305.964s.514.291.932.291c.394,0,.68-.062.859-.187.179-.124.316-.322.414-.596l.845.255ZM105.233,300.309v.273h2.455v-.191c0-.479-.103-.827-.309-1.045-.206-.219-.512-.328-.918-.328s-.712.107-.918.318c-.206.213-.309.537-.309.973Z"/>
    <path d="M110.378,303.809v-5.454h.873v.846h.254c.133-.291.332-.521.596-.687s.559-.25.886-.25c.491,0,.879.162,1.164.486.285.324.427.768.427,1.332v3.727h-.873v-3.555c0-.381-.083-.669-.25-.863-.167-.193-.404-.291-.713-.291-.255,0-.509.078-.764.232-.255.154-.497.381-.728.678v3.799h-.873Z"/>
  </g>
  <text class="cls-6" transform="translate(38.433 240.809)"><tspan x="0" y="0">wid</tspan></text>
  <polygon class="cls-9" points="267.5 53 267.5 94.109 267.5 100.891 267.5 144 283.5 129 283.5 100.802 283.5 94.198 283.5 68 267.5 53"/>
  <g>
    <line class="cls-9" x1="85" y1="65.5" x2="100.412" y2="65.5"/>
    <polygon points="99.682 67.993 104 65.5 99.682 63.007 99.682 67.993"/>
  </g>
  <g>
    <line class="cls-9" x1="85" y1="87.5" x2="100.412" y2="87.5"/>
    <polygon points="99.682 89.993 104 87.5 99.682 85.007 99.682 89.993"/>
  </g>
  <g>
    <line class="cls-9" x1="85" y1="109.5" x2="100.412" y2="109.5"/>
    <polygon points="99.682 111.993 104 109.5 99.682 107.007 99.682 111.993"/>
  </g>
  <g>
    <line class="cls-9" x1="85" y1="131.5" x2="100.412" y2="131.5"/>
    <polygon points="99.682 133.993 104 131.5 99.682 129.007 99.682 133.993"/>
  </g>
  <polygon class="cls-9" points="84.5 53 84.5 94.109 84.5 100.891 84.5 144 68.5 129 68.5 100.802 68.5 94.198 68.5 68 84.5 53"/>
  <polygon class="cls-9" points="84.5 192 84.5 233.109 84.5 239.891 84.5 283 68.5 268 68.5 239.802 68.5 233.198 68.5 207 84.5 192"/>
  <g>
    <line class="cls-9" x1="385" y1="65.5" x2="402.412" y2="65.5"/>
    <polygon points="401.682 67.993 406 65.5 401.682 63.007 401.682 67.993"/>
  </g>
  <g>
    <line class="cls-9" x1="385" y1="87.5" x2="402.412" y2="87.5"/>
    <polygon points="401.682 89.993 406 87.5 401.682 85.007 401.682 89.993"/>
  </g>
  <g>
    <line class="cls-9" x1="385" y1="109.5" x2="402.412" y2="109.5"/>
    <polygon points="401.682 111.993 406 109.5 401.682 107.007 401.682 111.993"/>
  </g>
  <g>
    <line class="cls-9" x1="385" y1="131.5" x2="402.412" y2="131.5"/>
    <polygon points="401.682 133.993 406 131.5 401.682 129.007 401.682 133.993"/>
  </g>
  <g>
    <line class="cls-9" x1="385" y1="153.5" x2="402.412" y2="153.5"/>
    <polygon points="401.682 155.993 406 153.5 401.682 151.007 401.682 155.993"/>
  </g>
  <g>
    <line class="cls-9" x1="385" y1="175.5" x2="402.412" y2="175.5"/>
    <polygon points="401.682 177.993 406 175.5 401.682 173.007 401.682 177.993"/>
  </g>
  <g>
    <line class="cls-9" x1="385" y1="197.5" x2="402.412" y2="197.5"/>
    <polygon points="401.682 199.993 406 197.5 401.682 195.007 401.682 199.993"/>
  </g>
  <g>
    <line class="cls-9" x1="385" y1="219.5" x2="402.412" y2="219.5"/>
    <polygon points="401.682 221.993 406 219.5 401.682 217.007 401.682 221.993"/>
  </g>
  <polygon class="cls-9" points="384.5 53 384.5 94.109 384.5 100.891 384.5 232 368.5 217 368.5 100.802 368.5 94.198 368.5 68 384.5 53"/>
  <g>
    <line class="cls-9" x1="546" y1="65.5" x2="563.412" y2="65.5"/>
    <polygon points="562.682 67.993 567 65.5 562.682 63.007 562.682 67.993"/>
  </g>
  <g>
    <line class="cls-9" x1="546" y1="87.5" x2="563.412" y2="87.5"/>
    <polygon points="562.682 89.993 567 87.5 562.682 85.007 562.682 89.993"/>
  </g>
  <g>
    <line class="cls-9" x1="546" y1="109.5" x2="563.412" y2="109.5"/>
    <polygon points="562.682 111.993 567 109.5 562.682 107.007 562.682 111.993"/>
  </g>
  <g>
    <line class="cls-9" x1="546" y1="131.5" x2="563.412" y2="131.5"/>
    <polygon points="562.682 133.993 567 131.5 562.682 129.007 562.682 133.993"/>
  </g>
  <g>
    <line class="cls-9" x1="617" y1="109.5" x2="650.412" y2="109.5"/>
    <polygon points="649.682 111.993 654 109.5 649.682 107.007 649.682 111.993"/>
  </g>
  <g>
    <line class="cls-9" x1="617" y1="131.5" x2="693.412" y2="131.5"/>
    <polygon points="692.682 133.993 697 131.5 692.682 129.007 692.682 133.993"/>
  </g>
  <g>
    <line class="cls-9" x1="617" y1="153.5" x2="693.412" y2="153.5"/>
    <polygon points="692.682 155.993 697 153.5 692.682 151.007 692.682 155.993"/>
  </g>
  <g>
    <line class="cls-9" x1="617" y1="175.5" x2="693.412" y2="175.5"/>
    <polygon points="692.682 177.993 697 175.5 692.682 173.007 692.682 177.993"/>
  </g>
  <g>
    <polyline class="cls-9" points="650.412 99.493 636 99.493 636.002 78"/>
    <polygon points="649.682 97 654 99.493 649.682 101.987 649.682 97"/>
  </g>
  <g>
    <line class="cls-9" x1="665" y1="104.5" x2="693.912" y2="104.5"/>
    <polygon points="693.182 106.993 697.5 104.5 693.182 102.007 693.182 106.993"/>
  </g>
  <g>
    <line class="cls-9" x1="546" y1="153.5" x2="563.412" y2="153.5"/>
    <polygon points="562.682 155.993 567 153.5 562.682 151.007 562.682 155.993"/>
  </g>
  <g>
    <line class="cls-9" x1="546" y1="175.5" x2="563.412" y2="175.5"/>
    <polygon points="562.682 177.993 567 175.5 562.682 173.007 562.682 177.993"/>
  </g>
  <g>
    <line class="cls-9" x1="546" y1="197.5" x2="563.412" y2="197.5"/>
    <polygon points="562.682 199.993 567 197.5 562.682 195.007 562.682 199.993"/>
  </g>
  <g>
    <line class="cls-9" x1="546" y1="219.5" x2="563.412" y2="219.5"/>
    <polygon points="562.682 221.993 567 219.5 562.682 217.007 562.682 221.993"/>
  </g>
  <polygon class="cls-7" points="567.5 53 567.5 94.109 567.5 100.891 567.5 232 583.5 217 583.5 100.802 583.5 94.198 583.5 68 567.5 53"/>
  <polygon class="cls-7" points="578.5 53 578.5 94.109 578.5 100.891 578.5 232 594.5 217 594.5 100.802 594.5 94.198 594.5 68 578.5 53"/>
  <polygon class="cls-7" points="589.5 53 589.5 94.109 589.5 100.891 589.5 232 605.5 217 605.5 100.802 605.5 94.198 605.5 68 589.5 53"/>
  <polygon class="cls-7" points="600.5 53 600.5 94.109 600.5 100.891 600.5 232 616.5 217 616.5 100.802 616.5 94.198 616.5 68 600.5 53"/>
  <g>
    <line class="cls-9" x1="107" y1="209.5" x2="125.412" y2="209.5"/>
    <polygon points="124.682 211.993 129 209.5 124.682 207.007 124.682 211.993"/>
  </g>
  <g>
    <line class="cls-9" x1="107" y1="231.5" x2="125.412" y2="231.5"/>
    <polygon points="124.682 233.993 129 231.5 124.682 229.007 124.682 233.993"/>
  </g>
  <g>
    <line class="cls-9" x1="107" y1="253.5" x2="125.412" y2="253.5"/>
    <polygon points="124.682 255.993 129 253.5 124.682 251.007 124.682 255.993"/>
  </g>
  <g>
    <line class="cls-9" x1="107" y1="275.5" x2="125.412" y2="275.5"/>
    <polygon points="124.682 277.993 129 275.5 124.682 273.007 124.682 277.993"/>
  </g>
  <text class="cls-1" transform="translate(173.979 186.571)"><tspan x="0" y="0">PR Counters</tspan></text>
  <g>
    <rect class="cls-8" x="174.363" y="193.5" width="73.137" height="22"/>
    <path d="M247,194v21h-72.137v-21h72.137M248,193h-74.137v23h74.137v-23h0Z"/>
  </g>
  <text class="cls-6" transform="translate(184.468 208.136)"><tspan x="0" y="0">warp0 cnt</tspan></text>
  <g>
    <rect class="cls-8" x="174.363" y="215.5" width="73.137" height="22"/>
    <path d="M247,216v21h-72.137v-21h72.137M248,215h-74.137v23h74.137v-23h0Z"/>
  </g>
  <text class="cls-6" transform="translate(184.468 230.136)"><tspan x="0" y="0">warp1 cnt</tspan></text>
  <g>
    <rect class="cls-8" x="174.363" y="237.5" width="73.137" height="22"/>
    <path d="M247,238v21h-72.137v-21h72.137M248,237h-74.137v23h74.137v-23h0Z"/>
  </g>
  <text class="cls-6" transform="translate(184.468 252.136)"><tspan x="0" y="0">warp2 cnt</tspan></text>
  <g>
    <rect class="cls-8" x="174.363" y="259.5" width="73.137" height="22"/>
    <path d="M247,260v21h-72.137v-21h72.137M248,259h-74.137v23h74.137v-23h0Z"/>
  </g>
  <text class="cls-6" transform="translate(184.468 274.136)"><tspan x="0" y="0">warp3 cnt</tspan></text>
  <line class="cls-9" x1="106.5" y1="284" x2="106.5" y2="209"/>
  <polyline class="cls-9" points="376 61 376 52 360 52"/>
  <polyline class="cls-9" points="190 154.001 329 154.001 329 99"/>
  <text class="cls-6" transform="translate(267.457 37.809)"><tspan x="0" y="0">wid</tspan></text>
  <text class="cls-6" transform="translate(303.457 37.809)"><tspan x="0" y="0">ard</tspan></text>
  <text class="cls-6" transform="translate(701.484 133.809)"><tspan x="0" y="0">prs1</tspan></text>
  <text class="cls-6" transform="translate(701.484 155.809)"><tspan x="0" y="0">prs2</tspan></text>
  <text class="cls-6" transform="translate(701.484 177.809)"><tspan x="0" y="0">prs3</tspan></text>
  <text class="cls-6" transform="translate(707.484 106.809)"><tspan x="0" y="0">prd</tspan></text>
  <text class="cls-6" transform="translate(345.457 93.809)"><tspan x="0" y="0">wen</tspan></text>
  <line class="cls-9" x1="276.5" y1="60.999" x2="276.5" y2="43"/>
  <text class="cls-6" transform="translate(66.457 37.809)"><tspan x="0" y="0">wid</tspan></text>
  <line class="cls-9" x1="75.5" y1="60.999" x2="75.5" y2="43"/>
  <g>
    <path d="M342.937,169.964c-.133.297-.329.526-.586.69-.258.164-.55.246-.877.246-.509,0-.904-.18-1.186-.537-.282-.357-.423-.854-.423-1.49v-1.592c0-.636.188-1.131.563-1.486.376-.354.903-.531,1.582-.531.194,0,.392.022.595.068.203.045.398.107.586.186v-1.981h.873v7.272h-.873v-.845h-.254ZM341.719,170.063c.279,0,.538-.075.777-.228.239-.15.471-.381.695-.69v-2.755c-.17-.121-.35-.211-.541-.268-.191-.058-.396-.087-.613-.087-.443,0-.77.104-.982.31-.212.206-.318.523-.318.954v1.591c0,.4.082.695.246.887s.409.286.736.286Z"/>
    <path d="M345.882,170.809v-.791h1.664v-3.872h-1.664v-.791h2.545v4.663h1.654v.791h-4.2ZM347.991,164.346c-.218,0-.394-.037-.527-.109s-.2-.206-.2-.4v-.062c0-.201.066-.338.2-.414s.309-.113.527-.113.394.037.527.113.2.213.2.414v.062c0,.194-.068.328-.205.4s-.311.109-.523.109Z"/>
    <path d="M351.9,170.809v-5.454h.873v.846h.254c.133-.291.332-.521.596-.687s.559-.25.886-.25c.491,0,.879.162,1.164.486.285.324.427.768.427,1.332v3.727h-.873v-3.555c0-.381-.083-.669-.25-.863-.167-.193-.404-.291-.713-.291-.255,0-.509.078-.764.232-.255.154-.497.381-.728.678v3.799h-.873Z"/>
    <path d="M357.682,166.854v-.872h4.672v.872h-4.672ZM357.682,169.264v-.873h4.672v.873h-4.672Z"/>
    <path d="M321.81,180.809v-5.454h.873v.846h.254c.133-.291.332-.521.596-.687s.559-.25.886-.25c.491,0,.879.162,1.164.486.285.324.427.768.427,1.332v3.727h-.873v-3.555c0-.381-.083-.669-.25-.863-.167-.193-.404-.291-.713-.291-.255,0-.509.078-.764.232-.255.154-.497.381-.728.678v3.799h-.873Z"/>
    <path d="M332.055,179.618c-.151.448-.383.774-.695.978s-.786.305-1.423.305c-.661,0-1.177-.17-1.55-.51-.373-.339-.559-.839-.559-1.5v-1.591c0-.679.195-1.188.586-1.526.391-.34.898-.51,1.522-.51.63,0,1.137.173,1.518.518.382.346.573.877.573,1.592v.881h-3.327v.637c0,.449.102.77.305.964s.514.291.932.291c.394,0,.68-.062.859-.187.179-.124.316-.322.414-.596l.845.255ZM328.701,177.309v.273h2.455v-.191c0-.479-.103-.827-.309-1.045-.206-.219-.512-.328-.918-.328s-.712.107-.918.318c-.206.213-.309.537-.309.973Z"/>
    <path d="M336.673,180.809l-.727-3.562-.7,3.562h-.973l-.937-5.454h.836l.618,4.755.646-3.855h.982l.709,3.71.591-4.609h.836l-.937,5.454h-.945Z"/>
    <path d="M347.937,180.9c-.188,0-.385-.023-.591-.068-.206-.046-.403-.107-.591-.187v1.981h-.873v-7.272h.873v.846h.254c.133-.291.331-.521.591-.687.26-.166.551-.25.873-.25.503,0,.897.18,1.182.541.285.36.427.855.427,1.486v1.591c0,.624-.191,1.116-.573,1.478-.381.36-.906.541-1.572.541ZM347.918,180.127c.442,0,.769-.102.978-.305s.313-.522.313-.959v-1.6c0-.4-.081-.693-.241-.882-.161-.188-.408-.282-.741-.282-.279,0-.536.074-.772.223s-.47.381-.7.695v2.756c.17.114.349.203.537.263.188.062.396.091.627.091Z"/>
    <path d="M352.3,180.809v-5.454h.882v.872h.246c.115-.332.294-.576.536-.73.242-.155.533-.232.873-.232.382,0,.697.132.946.396s.373.638.373,1.122v.837h-.836v-.519c0-.346-.068-.598-.205-.759-.136-.161-.35-.241-.641-.241-.261,0-.499.07-.714.209-.215.141-.408.352-.577.637v3.863h-.882Z"/>
    <path d="M360.991,179.964c-.133.297-.329.526-.586.69-.258.164-.55.246-.877.246-.509,0-.904-.18-1.186-.537-.282-.357-.423-.854-.423-1.49v-1.592c0-.636.188-1.131.563-1.486.376-.354.903-.531,1.582-.531.194,0,.392.022.595.068.203.045.398.107.586.186v-1.981h.873v7.272h-.873v-.845h-.254ZM359.773,180.063c.279,0,.538-.075.777-.228.239-.15.471-.381.695-.69v-2.755c-.17-.121-.35-.211-.541-.268-.191-.058-.396-.087-.613-.087-.443,0-.77.104-.982.31-.212.206-.318.523-.318.954v1.591c0,.4.082.695.246.887s.409.286.736.286Z"/>
  </g>
  <g>
    <line class="cls-9" x1="248" y1="204.5" x2="263.412" y2="204.5"/>
    <polygon points="262.682 206.993 267 204.5 262.682 202.007 262.682 206.993"/>
  </g>
  <g>
    <line class="cls-9" x1="248" y1="226.5" x2="263.412" y2="226.5"/>
    <polygon points="262.682 228.993 267 226.5 262.682 224.007 262.682 228.993"/>
  </g>
  <g>
    <line class="cls-9" x1="248" y1="248.5" x2="263.412" y2="248.5"/>
    <polygon points="262.682 250.993 267 248.5 262.682 246.007 262.682 250.993"/>
  </g>
  <g>
    <line class="cls-9" x1="248" y1="270.5" x2="263.412" y2="270.5"/>
    <polygon points="262.682 272.993 267 270.5 262.682 268.007 262.682 272.993"/>
  </g>
  <polygon class="cls-9" points="267.5 192 267.5 233.109 267.5 239.891 267.5 283 283.5 268 283.5 239.802 283.5 233.198 283.5 207 267.5 192"/>
  <text class="cls-6" transform="translate(265.457 303.809)"><tspan x="0" y="0">wid</tspan></text>
  <line class="cls-9" x1="276.5" y1="292.999" x2="276.5" y2="275"/>
  <polygon class="cls-9" points="303.5 53 303.5 94.109 303.5 100.891 303.5 144 319.5 129 319.5 100.802 319.5 94.198 319.5 68 303.5 53"/>
  <line class="cls-9" x1="312.5" y1="60.999" x2="312.5" y2="43"/>
  <line class="cls-9" x1="660.501" y1="96.501" x2="660.501" y2="51.5"/>
  <text class="cls-6" transform="translate(601.457 244.809)"><tspan x="0" y="0">ard</tspan></text>
  <g>
    <path d="M628.366,62.809v-5.454h.873v.846h.254c.134-.291.332-.521.596-.687s.56-.25.887-.25c.491,0,.879.162,1.163.486.285.324.428.768.428,1.332v3.727h-.873v-3.555c0-.381-.083-.669-.25-.863-.166-.193-.404-.291-.713-.291-.255,0-.51.078-.764.232-.255.154-.497.381-.728.678v3.799h-.873Z"/>
    <path d="M638.611,61.618c-.151.448-.383.774-.695.978-.312.203-.786.305-1.423.305-.66,0-1.177-.17-1.55-.51-.373-.339-.559-.839-.559-1.5v-1.591c0-.679.195-1.188.586-1.526.391-.34.898-.51,1.522-.51.631,0,1.137.173,1.519.518.382.346.572.877.572,1.592v.881h-3.327v.637c0,.449.102.77.305.964s.514.291.932.291c.395,0,.681-.062.859-.187.179-.124.316-.322.414-.596l.845.255ZM635.257,59.309v.273h2.455v-.191c0-.479-.104-.827-.31-1.045-.206-.219-.512-.328-.918-.328s-.712.107-.918.318c-.206.213-.31.537-.31.973Z"/>
    <path d="M643.229,62.809l-.727-3.562-.7,3.562h-.973l-.937-5.454h.836l.618,4.755.646-3.855h.982l.709,3.71.591-4.609h.836l-.937,5.454h-.945Z"/>
    <path d="M630.421,72.9c-.188,0-.385-.023-.591-.068-.206-.046-.403-.107-.591-.187v1.981h-.873v-7.272h.873v.846h.254c.134-.291.331-.521.592-.687.26-.166.551-.25.872-.25.503,0,.897.18,1.182.541.285.36.428.855.428,1.486v1.591c0,.624-.191,1.116-.573,1.478-.381.36-.905.541-1.572.541ZM630.402,72.127c.442,0,.769-.102.978-.305s.313-.522.313-.959v-1.6c0-.4-.08-.693-.24-.882-.161-.188-.408-.282-.741-.282-.279,0-.536.074-.772.223s-.47.381-.7.695v2.756c.17.114.349.203.536.263.188.062.396.091.627.091Z"/>
    <path d="M634.784,72.809v-5.454h.882v.872h.246c.114-.332.294-.576.536-.73.242-.155.533-.232.872-.232.382,0,.697.132.946.396.248.264.372.638.372,1.122v.837h-.836v-.519c0-.346-.068-.598-.205-.759-.136-.161-.35-.241-.641-.241-.261,0-.498.07-.714.209-.215.141-.407.352-.577.637v3.863h-.882Z"/>
    <path d="M643.476,71.964c-.134.297-.329.526-.587.69s-.55.246-.877.246c-.509,0-.904-.18-1.187-.537s-.423-.854-.423-1.49v-1.592c0-.636.188-1.131.563-1.486.376-.354.903-.531,1.582-.531.194,0,.393.022.596.068.203.045.398.107.586.186v-1.981h.873v7.272h-.873v-.845h-.254ZM642.257,72.063c.279,0,.538-.075.777-.228.239-.15.472-.381.695-.69v-2.755c-.17-.121-.35-.211-.541-.268-.19-.058-.396-.087-.613-.087-.442,0-.77.104-.981.31-.213.206-.318.523-.318.954v1.591c0,.4.082.695.245.887.164.191.409.286.736.286Z"/>
  </g>
  <text class="cls-6" transform="translate(560.448 259.809)"><tspan x="0" y="0">ars1</tspan></text>
  <text class="cls-6" transform="translate(571.448 269.809)"><tspan x="0" y="0">ars2</tspan></text>
  <text class="cls-6" transform="translate(586.448 279.809)"><tspan x="0" y="0">ars3</tspan></text>
  <line class="cls-9" x1="576.5" y1="249.501" x2="576.5" y2="224.002"/>
  <line class="cls-9" x1="587.494" y1="259.494" x2="587.494" y2="223.997"/>
  <line class="cls-9" x1="598.5" y1="269.5" x2="598.5" y2="224"/>
  <line class="cls-9" x1="609.5" y1="236" x2="609.5" y2="224"/>
  <line class="cls-9" x1="253.404" y1="68.5" x2="259.452" y2="62.452"/>
  <line class="cls-9" x1="253.404" y1="90.5" x2="259.452" y2="84.452"/>
  <g>
    <line class="cls-9" x1="284" y1="98.5" x2="299.412" y2="98.5"/>
    <polygon points="298.682 100.993 303 98.5 298.682 96.007 298.682 100.993"/>
  </g>
  <g>
    <line class="cls-9" x1="320.011" y1="98.498" x2="364.92" y2="98.498"/>
    <polygon points="364.191 100.991 368.509 98.498 364.191 96.005 364.191 100.991"/>
  </g>
  <g>
    <line class="cls-9" x1="277.012" y1="47.499" x2="337.91" y2="47.501"/>
    <polygon points="337.181 49.994 341.498 47.501 337.181 45.008 337.181 49.994"/>
  </g>
  <g>
    <line class="cls-9" x1="312.014" y1="56.5" x2="337.913" y2="56.499"/>
    <polygon points="337.183 58.993 341.501 56.499 337.183 54.006 337.183 58.993"/>
  </g>
  <g>
    <line class="cls-9" x1="58.5" y1="237.5" x2="64.412" y2="237.5"/>
    <polygon points="63.682 239.993 68 237.5 63.682 235.007 63.682 239.993"/>
  </g>
  <line class="cls-9" x1="289.404" y1="101.5" x2="295.452" y2="95.452"/>
  <line class="cls-9" x1="253.404" y1="112.5" x2="259.452" y2="106.452"/>
  <line class="cls-9" x1="253.404" y1="134.5" x2="259.452" y2="128.452"/>
  <line class="cls-9" x1="90.404" y1="68.5" x2="96.452" y2="62.452"/>
  <line class="cls-9" x1="90.404" y1="90.5" x2="96.452" y2="84.452"/>
  <line class="cls-9" x1="90.404" y1="112.5" x2="96.452" y2="106.452"/>
  <line class="cls-9" x1="90.404" y1="134.5" x2="96.452" y2="128.452"/>
  <text class="cls-1" transform="translate(406.116 47.902)"><tspan x="0" y="0">Rename</tspan><tspan class="cls-13" x="45.357" y="0"> </tspan><tspan class="cls-12" x="48.48" y="0">T</tspan><tspan x="54.48" y="0">able</tspan></text>
  <g>
    <rect class="cls-8" x="406.5" y="54.5" width="139" height="22"/>
    <path d="M545,55v21h-138v-21h138M546,54h-140v23h140v-23h0Z"/>
  </g>
  <text class="cls-3" transform="translate(416.686 69.086)"><tspan x="0" y="0">w0</tspan><tspan class="cls-14" x="12.783" y="0"> </tspan><tspan x="15.015" y="0">AR0</tspan></text>
  <g>
    <rect class="cls-8" x="406.5" y="120.5" width="139" height="22"/>
    <path d="M545,121v21h-138v-21h138M546,120h-140v23h140v-23h0Z"/>
  </g>
  <text class="cls-6" transform="translate(495.259 69.137)"><tspan x="0" y="0">PR=p0</tspan></text>
  <text class="cls-4" transform="translate(473.259 69.137)"><tspan x="0" y="0">→</tspan></text>
  <g>
    <rect class="cls-8" x="406.5" y="76.5" width="139" height="22"/>
    <path d="M545,77v21h-138v-21h138M546,76h-140v23h140v-23h0Z"/>
  </g>
  <text class="cls-3" transform="translate(416.686 91.086)"><tspan x="0" y="0">w0</tspan><tspan class="cls-14" x="12.783" y="0"> </tspan><tspan x="15.015" y="0">AR1</tspan></text>
  <text class="cls-6" transform="translate(495.259 91.137)"><tspan x="0" y="0">PR=p35</tspan></text>
  <text class="cls-4" transform="translate(473.259 91.137)"><tspan x="0" y="0">→</tspan></text>
  <text class="cls-4" transform="translate(477.252 106.885) rotate(90)"><tspan x="0" y="0">..</tspan><tspan class="cls-15" x="4.482" y="0">.</tspan></text>
  <text class="cls-4" transform="translate(477.252 193.885) rotate(90)"><tspan x="0" y="0">..</tspan><tspan class="cls-15" x="4.482" y="0">.</tspan></text>
  <text class="cls-4" transform="translate(473.259 135.137)"><tspan x="0" y="0">→</tspan></text>
  <text class="cls-3" transform="translate(416.686 135.086)"><tspan x="0" y="0">w0</tspan><tspan class="cls-14" x="12.783" y="0"> </tspan><tspan x="15.015" y="0">AR127</tspan></text>
  <text class="cls-6" transform="translate(495.259 135.137)"><tspan x="0" y="0">PR=p7</tspan></text>
  <g>
    <rect class="cls-8" x="406.5" y="142.5" width="139" height="22"/>
    <path d="M545,143v21h-138v-21h138M546,142h-140v23h140v-23h0Z"/>
  </g>
  <text class="cls-3" transform="translate(416.686 157.086)"><tspan x="0" y="0">w1</tspan><tspan class="cls-14" x="12.783" y="0"> </tspan><tspan x="15.015" y="0">AR0</tspan></text>
  <g>
    <rect class="cls-8" x="406.5" y="208.5" width="139" height="22"/>
    <path d="M545,209v21h-138v-21h138M546,208h-140v23h140v-23h0Z"/>
  </g>
  <text class="cls-6" transform="translate(495.259 157.137)"><tspan x="0" y="0">PR=p0</tspan></text>
  <text class="cls-4" transform="translate(473.259 157.137)"><tspan x="0" y="0">→</tspan></text>
  <g>
    <rect class="cls-8" x="406.5" y="164.5" width="139" height="22"/>
    <path d="M545,165v21h-138v-21h138M546,164h-140v23h140v-23h0Z"/>
  </g>
  <text class="cls-3" transform="translate(416.686 179.086)"><tspan x="0" y="0">w1</tspan><tspan class="cls-14" x="12.783" y="0"> </tspan><tspan x="15.015" y="0">AR1</tspan></text>
  <text class="cls-6" transform="translate(495.259 179.137)"><tspan x="0" y="0">PR=p12</tspan></text>
  <text class="cls-4" transform="translate(473.259 179.137)"><tspan x="0" y="0">→</tspan></text>
  <text class="cls-4" transform="translate(473.259 223.137)"><tspan x="0" y="0">→</tspan></text>
  <text class="cls-3" transform="translate(416.686 223.086)"><tspan x="0" y="0">w7</tspan><tspan class="cls-14" x="12.783" y="0"> </tspan><tspan x="15.015" y="0">AR127</tspan></text>
  <text class="cls-6" transform="translate(495.259 223.137)"><tspan x="0" y="0">PR=p15</tspan></text>
  <g>
    <polyline class="cls-9" points="284 238 314.753 238 314.753 186.035 364.412 186.002"/>
    <polygon points="363.684 188.496 368 186 363.681 183.51 363.684 188.496"/>
  </g>
  <g>
    <circle class="cls-9" cx="350.949" cy="52" r="9"/>
    <line class="cls-9" x1="350.949" y1="45" x2="350.949" y2="59"/>
    <line class="cls-9" x1="343.949" y1="52" x2="357.949" y2="52"/>
  </g>
  <g>
    <line class="cls-9" x1="572" y1="65.5" x2="585.412" y2="65.5"/>
    <polygon points="584.682 67.993 589 65.5 584.682 63.007 584.682 67.993"/>
  </g>
  <g>
    <line class="cls-9" x1="572" y1="87.5" x2="585.412" y2="87.5"/>
    <polygon points="584.682 89.993 589 87.5 584.682 85.007 584.682 89.993"/>
  </g>
  <g>
    <line class="cls-9" x1="572" y1="109.5" x2="585.412" y2="109.5"/>
    <polygon points="584.682 111.993 589 109.5 584.682 107.007 584.682 111.993"/>
  </g>
  <g>
    <line class="cls-9" x1="572" y1="131.5" x2="585.412" y2="131.5"/>
    <polygon points="584.682 133.993 589 131.5 584.682 129.007 584.682 133.993"/>
  </g>
  <g>
    <line class="cls-9" x1="572" y1="153.5" x2="585.412" y2="153.5"/>
    <polygon points="584.682 155.993 589 153.5 584.682 151.007 584.682 155.993"/>
  </g>
  <g>
    <line class="cls-9" x1="572" y1="175.5" x2="585.412" y2="175.5"/>
    <polygon points="584.682 177.993 589 175.5 584.682 173.007 584.682 177.993"/>
  </g>
  <g>
    <line class="cls-9" x1="572" y1="197.5" x2="585.412" y2="197.5"/>
    <polygon points="584.682 199.993 589 197.5 584.682 195.007 584.682 199.993"/>
  </g>
  <g>
    <line class="cls-9" x1="572" y1="219.5" x2="585.412" y2="219.5"/>
    <polygon points="584.682 221.993 589 219.5 584.682 217.007 584.682 221.993"/>
  </g>
  <g>
    <line class="cls-9" x1="583" y1="65.5" x2="596.412" y2="65.5"/>
    <polygon points="595.682 67.993 600 65.5 595.682 63.007 595.682 67.993"/>
  </g>
  <g>
    <line class="cls-9" x1="583" y1="87.5" x2="596.412" y2="87.5"/>
    <polygon points="595.682 89.993 600 87.5 595.682 85.007 595.682 89.993"/>
  </g>
  <g>
    <line class="cls-9" x1="583" y1="109.5" x2="596.412" y2="109.5"/>
    <polygon points="595.682 111.993 600 109.5 595.682 107.007 595.682 111.993"/>
  </g>
  <g>
    <line class="cls-9" x1="583" y1="131.5" x2="596.412" y2="131.5"/>
    <polygon points="595.682 133.993 600 131.5 595.682 129.007 595.682 133.993"/>
  </g>
  <g>
    <line class="cls-9" x1="583" y1="153.5" x2="596.412" y2="153.5"/>
    <polygon points="595.682 155.993 600 153.5 595.682 151.007 595.682 155.993"/>
  </g>
  <g>
    <line class="cls-9" x1="583" y1="175.5" x2="596.412" y2="175.5"/>
    <polygon points="595.682 177.993 600 175.5 595.682 173.007 595.682 177.993"/>
  </g>
  <g>
    <line class="cls-9" x1="583" y1="197.5" x2="596.412" y2="197.5"/>
    <polygon points="595.682 199.993 600 197.5 595.682 195.007 595.682 199.993"/>
  </g>
  <g>
    <line class="cls-9" x1="583" y1="219.5" x2="596.412" y2="219.5"/>
    <polygon points="595.682 221.993 600 219.5 595.682 217.007 595.682 221.993"/>
  </g>
  <g>
    <line class="cls-9" x1="561" y1="65.5" x2="574.412" y2="65.5"/>
    <polygon points="573.682 67.993 578 65.5 573.682 63.007 573.682 67.993"/>
  </g>
  <g>
    <line class="cls-9" x1="561" y1="87.5" x2="574.412" y2="87.5"/>
    <polygon points="573.682 89.993 578 87.5 573.682 85.007 573.682 89.993"/>
  </g>
  <g>
    <line class="cls-9" x1="561" y1="109.5" x2="574.412" y2="109.5"/>
    <polygon points="573.682 111.993 578 109.5 573.682 107.007 573.682 111.993"/>
  </g>
  <g>
    <line class="cls-9" x1="561" y1="131.5" x2="574.412" y2="131.5"/>
    <polygon points="573.682 133.993 578 131.5 573.682 129.007 573.682 133.993"/>
  </g>
  <g>
    <line class="cls-9" x1="561" y1="153.5" x2="574.412" y2="153.5"/>
    <polygon points="573.682 155.993 578 153.5 573.682 151.007 573.682 155.993"/>
  </g>
  <g>
    <line class="cls-9" x1="561" y1="175.5" x2="574.412" y2="175.5"/>
    <polygon points="573.682 177.993 578 175.5 573.682 173.007 573.682 177.993"/>
  </g>
  <g>
    <line class="cls-9" x1="561" y1="197.5" x2="574.412" y2="197.5"/>
    <polygon points="573.682 199.993 578 197.5 573.682 195.007 573.682 199.993"/>
  </g>
  <g>
    <line class="cls-9" x1="561" y1="219.5" x2="574.412" y2="219.5"/>
    <polygon points="573.682 221.993 578 219.5 573.682 217.007 573.682 221.993"/>
  </g>
  <g>
    <path class="cls-5" d="M406.836,240.132v-.674c.635-.062,1.078-.165,1.328-.31.25-.146.438-.487.562-1.028h.693v6.963h-.938v-4.951h-1.646Z"/>
    <path class="cls-5" d="M416.108,239.209c.312.576.469,1.366.469,2.368,0,.951-.142,1.737-.425,2.358-.41.893-1.081,1.338-2.012,1.338-.84,0-1.465-.364-1.875-1.094-.342-.608-.513-1.426-.513-2.451,0-.794.103-1.476.308-2.046.384-1.061,1.079-1.592,2.085-1.592.905,0,1.559.373,1.963,1.118ZM415.224,243.867c.271-.403.406-1.155.406-2.256,0-.794-.098-1.447-.293-1.96s-.576-.77-1.14-.77c-.519,0-.897.243-1.137.73-.24.486-.359,1.203-.359,2.15,0,.713.077,1.286.23,1.719.235.661.636.991,1.203.991.457,0,.82-.201,1.091-.605Z"/>
    <path class="cls-5" d="M417.688,243.511c.216-.445.639-.851,1.267-1.216l.938-.542c.42-.244.714-.452.884-.625.267-.271.4-.581.4-.93,0-.408-.122-.731-.366-.972-.244-.239-.57-.359-.977-.359-.602,0-1.019.229-1.25.686-.124.245-.192.585-.205,1.019h-.894c.01-.608.122-1.104.337-1.489.381-.677,1.053-1.016,2.017-1.016.801,0,1.386.217,1.755.649.37.434.554.915.554,1.445,0,.561-.197,1.039-.591,1.436-.228.231-.636.512-1.226.84l-.669.371c-.319.176-.57.344-.752.503-.326.283-.531.598-.615.942h3.818v.83h-4.8c.033-.602.157-1.126.374-1.572Z"/>
    <path class="cls-5" d="M425.884,245.083v-1.709h-3.066v-.859l3.203-4.443h.742v4.536h1.03v.767h-1.03v1.709h-.879ZM425.869,242.607v-3.176l-2.241,3.176h2.241Z"/>
    <path class="cls-5" d="M428.271,239.854h1.138l1.201,1.841,1.216-1.841,1.069.024-1.763,2.524,1.841,2.681h-1.123l-1.299-1.963-1.26,1.963h-1.113l1.841-2.681-1.748-2.549Z"/>
    <path class="cls-5" d="M434.077,240.991c-.257-.26-.386-.599-.386-1.016,0-.521.188-.968.566-1.343.377-.374.912-.562,1.604-.562.67,0,1.195.177,1.575.53.38.353.571.766.571,1.237,0,.437-.111.79-.332,1.06-.124.153-.315.303-.576.449.291.134.52.287.686.459.311.326.466.749.466,1.27,0,.615-.207,1.137-.62,1.565-.414.428-.998.642-1.753.642-.68,0-1.256-.185-1.726-.554-.47-.37-.706-.906-.706-1.609,0-.413.101-.771.303-1.071.202-.302.501-.531.898-.691-.244-.104-.435-.226-.571-.366ZM436.912,244.153c.269-.22.403-.548.403-.984,0-.452-.138-.796-.415-1.03s-.631-.352-1.064-.352c-.42,0-.763.12-1.028.359s-.398.57-.398.993c0,.365.121.68.364.945.243.265.618.397,1.125.397.407,0,.745-.109,1.013-.329ZM436.749,240.695c.218-.217.327-.476.327-.775,0-.262-.104-.501-.312-.72s-.524-.328-.95-.328c-.422,0-.728.109-.916.328s-.283.475-.283.769c0,.329.122.587.365.773.244.186.531.278.863.278.387,0,.688-.108.906-.325Z"/>
    <path class="cls-5" d="M439.258,237.886h.854v2.603c.193-.25.423-.441.691-.573.268-.132.559-.198.873-.198.653,0,1.184.224,1.591.672.406.447.61,1.107.61,1.979,0,.827-.201,1.514-.604,2.061-.401.547-.959.82-1.671.82-.399,0-.735-.096-1.01-.288-.164-.113-.338-.296-.524-.547v.669h-.811v-7.197ZM442.618,243.906c.237-.377.355-.875.355-1.494,0-.55-.118-1.006-.355-1.367-.236-.361-.586-.542-1.046-.542-.401,0-.753.148-1.056.444-.302.297-.453.785-.453,1.465,0,.492.062.891.186,1.196.232.576.665.864,1.298.864.477,0,.834-.188,1.07-.566Z"/>
    <path class="cls-5" d="M450.347,245.083v-1.709h-3.066v-.859l3.203-4.443h.742v4.536h1.03v.767h-1.03v1.709h-.879ZM450.332,242.607v-3.176l-2.241,3.176h2.241Z"/>
    <path class="cls-5" d="M453.467,237.91h3.26c.537,0,.98.08,1.328.239.662.307.993.871.993,1.694,0,.43-.089.781-.267,1.055-.177.273-.426.493-.744.659.279.114.49.264.632.449s.221.487.237.903l.034.962c.01.273.032.478.068.61.059.229.162.375.312.439v.161h-1.191c-.033-.062-.059-.142-.078-.239s-.036-.286-.049-.566l-.059-1.196c-.022-.469-.191-.782-.508-.942-.181-.088-.464-.132-.85-.132h-2.148v3.076h-.972v-7.173ZM456.622,241.196c.443,0,.794-.091,1.052-.273.259-.182.388-.511.388-.986,0-.511-.181-.859-.542-1.045-.192-.098-.45-.146-.773-.146h-2.308v2.451h2.184Z"/>
    <path class="cls-5" d="M460.767,240.132v-.674c.635-.062,1.077-.165,1.328-.31.25-.146.438-.487.562-1.028h.693v6.963h-.938v-4.951h-1.646Z"/>
    <path class="cls-5" d="M466.608,237.91l1.353,5.828,1.621-5.828h1.051l1.625,5.839,1.352-5.839h1.065l-1.885,7.173h-1.021l-1.655-5.947-1.665,5.947h-1.021l-1.875-7.173h1.055Z"/>
    <path class="cls-5" d="M478.232,237.91h.894v.996h-.894v-.996ZM478.232,239.878h.894v5.205h-.894v-5.205Z"/>
    <path class="cls-5" d="M480.454,239.854h.869v.742c.208-.257.396-.444.566-.562.289-.198.618-.298.986-.298.416,0,.752.103,1.006.308.143.117.273.29.391.518.195-.279.425-.487.688-.622.264-.136.56-.203.889-.203.703,0,1.182.254,1.436.762.137.273.205.642.205,1.104v3.481h-.913v-3.633c0-.348-.087-.587-.262-.718-.174-.13-.387-.195-.637-.195-.346,0-.643.116-.892.347-.249.231-.373.617-.373,1.157v3.042h-.894v-3.413c0-.354-.043-.613-.127-.776-.134-.244-.383-.366-.747-.366-.332,0-.634.129-.906.386-.271.258-.407.723-.407,1.396v2.773h-.879v-5.229Z"/>
    <path class="cls-5" d="M488.711,239.878h.859v.693c.176-.237.368-.421.577-.552.297-.195.646-.293,1.048-.293.594,0,1.099.228,1.513.682s.622,1.103.622,1.945c0,1.14-.299,1.953-.897,2.441-.379.31-.82.464-1.323.464-.396,0-.728-.086-.995-.259-.157-.098-.332-.265-.524-.503v2.671h-.879v-7.29ZM492.018,243.978c.272-.344.409-.857.409-1.541,0-.416-.061-.774-.182-1.074-.229-.576-.646-.864-1.254-.864-.611,0-1.029.305-1.255.913-.12.326-.181.739-.181,1.24,0,.404.061.747.181,1.03.229.541.647.811,1.255.811.411,0,.754-.172,1.026-.515Z"/>
    <path class="cls-5" d="M494.37,237.91h.879v7.173h-.879v-7.173Z"/>
    <path class="cls-5" d="M496.753,239.995c.181-.029.317-.13.411-.303.094-.172.141-.371.141-.596,0-.022,0-.043-.003-.061,0-.019-.006-.038-.012-.062h-.537v-1.064h1.045v.981c0,.417-.087.771-.259,1.062-.173.291-.435.458-.786.5v-.459Z"/>
    <path class="cls-5" d="M502.019,239.998c.347.174.61.399.791.676.175.264.292.571.35.923.052.241.078.625.078,1.152h-3.804c.016.532.141.959.373,1.28.232.322.593.482,1.08.482.455,0,.818-.151,1.09-.456.152-.177.26-.381.323-.613h.864c-.023.192-.099.406-.228.643-.128.235-.271.429-.43.578-.266.261-.593.437-.984.527-.21.053-.447.078-.712.078-.647,0-1.195-.236-1.646-.71-.449-.474-.674-1.137-.674-1.99,0-.84.227-1.521.679-2.046.453-.523,1.045-.786,1.776-.786.369,0,.727.087,1.072.262ZM502.334,242.051c-.036-.381-.118-.685-.247-.913-.239-.423-.638-.635-1.196-.635-.4,0-.735.146-1.007.438-.271.291-.415.661-.431,1.11h2.881Z"/>
    <path class="cls-5" d="M507.224,240.015c.155.098.332.269.53.513v-2.642h.845v7.197h-.791v-.728c-.204.322-.446.556-.725.698-.279.144-.599.215-.959.215-.58,0-1.083-.245-1.508-.734-.425-.49-.637-1.142-.637-1.956,0-.762.193-1.422.581-1.979.388-.559.941-.838,1.661-.838.398,0,.732.085,1.002.254ZM505.262,243.936c.236.378.615.566,1.137.566.405,0,.737-.175.998-.524.261-.351.392-.853.392-1.507,0-.66-.135-1.149-.403-1.467s-.601-.477-.996-.477c-.44,0-.798.17-1.071.508-.273.339-.41.837-.41,1.494,0,.561.118,1.029.354,1.406Z"/>
    <path class="cls-5" d="M515.493,241.918c.201-.025.337-.11.405-.253.039-.078.059-.191.059-.338,0-.301-.106-.52-.319-.654-.213-.136-.518-.204-.914-.204-.458,0-.782.125-.975.373-.106.138-.177.342-.209.613h-.82c.016-.646.225-1.096.626-1.349.402-.253.868-.38,1.397-.38.614,0,1.114.117,1.497.352.381.234.571.6.571,1.094v3.013c0,.092.019.165.056.22.038.056.116.083.237.083.039,0,.083-.002.132-.007s.101-.013.156-.022v.649c-.137.039-.241.063-.312.073-.072.01-.17.015-.293.015-.303,0-.522-.107-.659-.322-.072-.113-.122-.274-.151-.483-.18.234-.437.438-.771.61-.336.173-.705.259-1.108.259-.485,0-.882-.146-1.189-.441-.308-.294-.461-.662-.461-1.104,0-.484.151-.859.454-1.126s.699-.431,1.191-.493l1.401-.176ZM513.643,244.293c.186.146.405.219.659.219.309,0,.608-.071.898-.214.488-.237.732-.626.732-1.165v-.707c-.107.068-.245.125-.414.171s-.335.078-.497.098l-.531.068c-.318.043-.558.109-.719.2-.271.152-.407.396-.407.73,0,.254.093.453.278.6Z"/>
    <path class="cls-5" d="M518.774,243.442c.026.293.101.518.224.674.227.283.618.425,1.177.425.332,0,.624-.07.877-.212.252-.142.379-.36.379-.657,0-.225-.102-.396-.303-.513-.129-.071-.384-.154-.765-.249l-.709-.176c-.453-.11-.788-.234-1.003-.371-.384-.237-.575-.566-.575-.986,0-.494.181-.895.542-1.201.36-.306.847-.459,1.457-.459.798,0,1.374.231,1.727.693.222.293.328.609.322.947h-.83c-.017-.197-.089-.377-.215-.539-.207-.229-.565-.345-1.075-.345-.34,0-.597.063-.772.19-.175.126-.262.293-.262.501,0,.227.114.408.345.545.133.081.328.152.587.214l.592.142c.644.153,1.075.302,1.294.444.342.225.513.578.513,1.06,0,.466-.179.868-.537,1.206-.357.339-.901.508-1.634.508-.787,0-1.345-.177-1.673-.529-.328-.354-.504-.79-.526-1.312h.845Z"/>
    <path class="cls-5" d="M406.565,253.511c.216-.445.639-.851,1.267-1.216l.938-.542c.42-.244.714-.452.884-.625.267-.271.4-.581.4-.93,0-.408-.122-.731-.366-.972-.244-.239-.57-.359-.977-.359-.602,0-1.019.229-1.25.686-.124.245-.192.585-.205,1.019h-.894c.01-.608.122-1.104.337-1.489.381-.677,1.053-1.016,2.017-1.016.801,0,1.386.217,1.755.649.37.434.554.915.554,1.445,0,.561-.197,1.039-.591,1.436-.228.231-.636.512-1.226.84l-.669.371c-.319.176-.57.344-.752.503-.326.283-.531.598-.615.942h3.818v.83h-4.8c.033-.602.157-1.126.374-1.572Z"/>
    <path class="cls-5" d="M411.587,249.854h1.138l1.201,1.841,1.216-1.841,1.069.024-1.763,2.524,1.841,2.681h-1.123l-1.299-1.963-1.26,1.963h-1.113l1.841-2.681-1.748-2.549Z"/>
    <path class="cls-5" d="M419.863,249.854h.869v.742c.208-.257.397-.444.566-.562.29-.198.619-.298.986-.298.417,0,.752.103,1.006.308.143.117.273.29.391.518.195-.279.425-.487.688-.622.264-.136.56-.203.889-.203.703,0,1.182.254,1.436.762.137.273.205.642.205,1.104v3.481h-.913v-3.633c0-.348-.087-.587-.261-.718-.174-.13-.387-.195-.637-.195-.345,0-.642.116-.891.347-.249.231-.374.617-.374,1.157v3.042h-.894v-3.413c0-.354-.042-.613-.127-.776-.133-.244-.382-.366-.747-.366-.332,0-.634.129-.906.386-.272.258-.408.723-.408,1.396v2.773h-.879v-5.229Z"/>
    <path class="cls-5" d="M428.193,247.91h.894v.996h-.894v-.996ZM428.193,249.878h.894v5.205h-.894v-5.205Z"/>
    <path class="cls-5" d="M430.439,249.854h.835v.903c.068-.176.236-.39.503-.642.267-.253.575-.379.923-.379.016,0,.044.002.083.005.039.004.106.01.2.02v.928c-.052-.01-.1-.016-.144-.02-.044-.003-.092-.005-.144-.005-.443,0-.783.143-1.021.428-.238.284-.356.612-.356.983v3.008h-.879v-5.229Z"/>
    <path class="cls-5" d="M433.77,249.854h.835v.903c.068-.176.236-.39.503-.642.267-.253.575-.379.923-.379.016,0,.044.002.083.005.039.004.106.01.2.02v.928c-.052-.01-.1-.016-.144-.02-.044-.003-.092-.005-.144-.005-.443,0-.783.143-1.021.428-.238.284-.356.612-.356.983v3.008h-.879v-5.229Z"/>
    <path class="cls-5" d="M440.864,250.376c.462.448.693,1.108.693,1.98,0,.842-.204,1.538-.611,2.088s-1.04.824-1.896.824c-.714,0-1.282-.243-1.702-.729-.42-.485-.63-1.139-.63-1.958,0-.879.221-1.578.664-2.098.443-.521,1.038-.781,1.785-.781.669,0,1.234.225,1.697.674ZM440.318,253.852c.214-.44.321-.931.321-1.471,0-.487-.077-.885-.232-1.19-.245-.48-.666-.722-1.265-.722-.531,0-.917.205-1.159.615-.242.409-.362.903-.362,1.482,0,.556.121,1.019.362,1.39.241.37.624.556,1.149.556.576,0,.971-.22,1.185-.66Z"/>
    <path class="cls-5" d="M442.661,249.854h.835v.903c.068-.176.235-.39.503-.642.267-.253.574-.379.923-.379.016,0,.044.002.083.005.039.004.105.01.2.02v.928c-.053-.01-.101-.016-.145-.02-.044-.003-.092-.005-.144-.005-.443,0-.783.143-1.021.428-.238.284-.356.612-.356.983v3.008h-.879v-5.229Z"/>
    <path class="cls-5" d="M449.196,249.998c.347.174.61.399.791.676.175.264.292.571.35.923.052.241.078.625.078,1.152h-3.804c.016.532.141.959.373,1.28.232.322.593.482,1.08.482.455,0,.818-.151,1.09-.456.152-.177.26-.381.323-.613h.864c-.023.192-.099.406-.228.643-.128.235-.271.429-.43.578-.266.261-.593.437-.984.527-.21.053-.447.078-.712.078-.647,0-1.195-.236-1.646-.71-.449-.474-.674-1.137-.674-1.99,0-.84.227-1.521.679-2.046.453-.523,1.045-.786,1.776-.786.369,0,.727.087,1.072.262ZM449.512,252.051c-.036-.381-.118-.685-.247-.913-.239-.423-.638-.635-1.196-.635-.4,0-.735.146-1.007.438-.271.291-.415.661-.431,1.11h2.881Z"/>
    <path class="cls-5" d="M454.401,250.015c.155.098.332.269.53.513v-2.642h.845v7.197h-.791v-.728c-.204.322-.446.556-.725.698-.279.144-.599.215-.959.215-.58,0-1.083-.245-1.508-.734-.425-.49-.637-1.142-.637-1.956,0-.762.193-1.422.581-1.979.388-.559.941-.838,1.661-.838.398,0,.732.085,1.002.254ZM452.439,253.936c.236.378.615.566,1.137.566.405,0,.737-.175.998-.524.261-.351.392-.853.392-1.507,0-.66-.135-1.149-.403-1.467s-.601-.477-.996-.477c-.44,0-.798.17-1.071.508-.273.339-.41.837-.41,1.494,0,.561.118,1.029.354,1.406Z"/>
    <path class="cls-5" d="M459.909,253.511c.217-.445.639-.851,1.268-1.216l.938-.542c.42-.244.714-.452.884-.625.267-.271.4-.581.4-.93,0-.408-.122-.731-.366-.972-.244-.239-.57-.359-.977-.359-.603,0-1.02.229-1.25.686-.124.245-.192.585-.205,1.019h-.894c.01-.608.122-1.104.337-1.489.381-.677,1.053-1.016,2.017-1.016.801,0,1.386.217,1.755.649.37.434.555.915.555,1.445,0,.561-.197,1.039-.591,1.436-.229.231-.637.512-1.226.84l-.669.371c-.319.176-.57.344-.752.503-.326.283-.531.598-.615.942h3.818v.83h-4.8c.032-.602.157-1.126.373-1.572Z"/>
    <path class="cls-5" d="M465.664,247.91h3.26c.537,0,.98.08,1.328.239.662.307.993.871.993,1.694,0,.43-.089.781-.267,1.055-.177.273-.426.493-.744.659.279.114.49.264.632.449s.221.487.237.903l.034.962c.01.273.032.478.068.61.059.229.162.375.312.439v.161h-1.191c-.033-.062-.059-.142-.078-.239s-.036-.286-.049-.566l-.059-1.196c-.022-.469-.191-.782-.508-.942-.181-.088-.464-.132-.85-.132h-2.148v3.076h-.972v-7.173ZM468.819,251.196c.443,0,.794-.091,1.052-.273.259-.182.388-.511.388-.986,0-.511-.181-.859-.542-1.045-.192-.098-.45-.146-.773-.146h-2.308v2.451h2.184Z"/>
    <path class="cls-5" d="M472.964,250.132v-.674c.635-.062,1.077-.165,1.328-.31.25-.146.438-.487.562-1.028h.693v6.963h-.938v-4.951h-1.646Z"/>
    <path class="cls-5" d="M478.806,247.91l1.353,5.828,1.621-5.828h1.051l1.625,5.839,1.352-5.839h1.065l-1.885,7.173h-1.021l-1.655-5.947-1.665,5.947h-1.021l-1.875-7.173h1.055Z"/>
    <path class="cls-5" d="M490.581,252.769c.022.407.114.737.277.991.311.476.858.713,1.642.713.352,0,.671-.052.96-.156.558-.201.837-.562.837-1.084,0-.391-.118-.669-.354-.835-.24-.162-.615-.304-1.126-.425l-.941-.22c-.614-.143-1.05-.301-1.306-.474-.441-.299-.662-.747-.662-1.343,0-.645.217-1.173.651-1.587.434-.413,1.048-.62,1.844-.62.731,0,1.354.182,1.864.545.512.362.768.943.768,1.74h-.913c-.047-.384-.146-.679-.3-.884-.283-.374-.766-.562-1.446-.562-.549,0-.944.121-1.185.361-.24.241-.36.521-.36.84,0,.352.143.609.426.771.187.104.607.234,1.264.391l.975.229c.47.111.832.263,1.088.454.441.336.662.822.662,1.46,0,.795-.281,1.362-.845,1.704s-1.219.513-1.965.513c-.869,0-1.551-.228-2.043-.684-.492-.452-.733-1.065-.724-1.841h.913Z"/>
    <path class="cls-5" d="M496.733,247.91h3.261c.537,0,.979.08,1.328.239.661.307.992.871.992,1.694,0,.43-.089.781-.266,1.055-.178.273-.426.493-.745.659.28.114.491.264.633.449s.221.487.236.903l.034.962c.01.273.033.478.068.61.059.229.163.375.312.439v.161h-1.191c-.032-.062-.059-.142-.078-.239s-.035-.286-.049-.566l-.059-1.196c-.021-.469-.191-.782-.508-.942-.18-.088-.463-.132-.849-.132h-2.149v3.076h-.972v-7.173ZM499.89,251.196c.443,0,.794-.091,1.052-.273.258-.182.387-.511.387-.986,0-.511-.181-.859-.541-1.045-.193-.098-.451-.146-.774-.146h-2.308v2.451h2.185Z"/>
    <path class="cls-5" d="M505.923,247.91h1.099l2.603,7.173h-1.064l-.728-2.148h-2.837l-.776,2.148h-.996l2.7-7.173ZM507.52,252.144l-1.089-3.169-1.157,3.169h2.246Z"/>
    <path class="cls-5" d="M510.483,247.91h1.393l2.062,6.064,2.048-6.064h1.382v7.173h-.928v-4.233c0-.146.004-.389.01-.728.007-.338.01-.701.01-1.089l-2.048,6.05h-.963l-2.067-6.05v.22c0,.176.005.443.015.804.01.359.015.624.015.793v4.233h-.928v-7.173Z"/>
    <path class="cls-5" d="M519.243,253.442c.026.293.102.518.225.674.226.283.618.425,1.176.425.332,0,.625-.07.877-.212.253-.142.379-.36.379-.657,0-.225-.101-.396-.303-.513-.129-.071-.384-.154-.764-.249l-.71-.176c-.453-.11-.787-.234-1.002-.371-.384-.237-.576-.566-.576-.986,0-.494.181-.895.542-1.201.361-.306.847-.459,1.457-.459.799,0,1.374.231,1.728.693.221.293.328.609.321.947h-.83c-.017-.197-.088-.377-.215-.539-.206-.229-.564-.345-1.074-.345-.34,0-.598.063-.772.19-.175.126-.263.293-.263.501,0,.227.115.408.345.545.133.081.329.152.587.214l.593.142c.644.153,1.074.302,1.293.444.342.225.513.578.513,1.06,0,.466-.179.868-.536,1.206-.357.339-.902.508-1.634.508-.788,0-1.346-.177-1.674-.529-.327-.354-.503-.79-.526-1.312h.845Z"/>
  </g>
  <polygon class="cls-9" points="654.5 92.5 654.5 102.478 654.5 106.928 654.5 116.906 665 109.447 665 106.87 665 102.536 665 99.96 654.5 92.5"/>
  <g>
    <rect class="cls-7" x="630.756" y="80.935" width="10.909" height="16" transform="translate(725.145 -547.275) rotate(90)"/>
    <polygon class="cls-7" points="632.937 88.935 628.39 86.274 628.39 91.596 632.937 88.935"/>
  </g>
  <text class="cls-2" transform="translate(554.982 302.735)"><tspan x="0" y="0">From Decode</tspan></text>
  <text class="cls-2" transform="translate(260.982 21.735)"><tspan x="0" y="0">From Decode</tspan></text>
  <text class="cls-2" transform="translate(742.148 119.189) rotate(90)"><tspan class="cls-12" x="0" y="0">T</tspan><tspan x="6" y="0">o Issue</tspan></text>
  <g>
    <polyline class="cls-9" points="293 99 293 160.5 188.812 160.5 176.5 157.5 57.773 157.5 57.773 99 64.912 99"/>
    <polygon points="64.182 101.493 68.5 99 64.182 96.507 64.182 101.493"/>
  </g>
  <path class="cls-7" d="M184.384,164.612c4.574.892,9.923,0,9.923,0,0,0-5.349-3.566-5.349-7.132s5.349-7.132,5.349-7.132c0,0-5.329-.783-9.923,0-5.233.892-9.691,7.132-9.691,7.132,0,0,4.264,6.075,9.691,7.132Z"/>
</svg>