<?xml version="1.0" encoding="UTF-8"?>
<svg id="Layer_1" data-name="Layer 1" xmlns="http://www.w3.org/2000/svg" viewBox="0 0 545 479">
  <defs>
    <style>
      .cls-1 {
        stroke-dasharray: 1.014 1.014;
      }

      .cls-1, .cls-2, .cls-3, .cls-4, .cls-5 {
        stroke-miterlimit: 10;
      }

      .cls-1, .cls-3 {
        stroke: #666;
      }

      .cls-1, .cls-3, .cls-4, .cls-5 {
        fill: none;
      }

      .cls-2, .cls-6 {
        fill: #fff;
      }

      .cls-2, .cls-4, .cls-5 {
        stroke: #000;
      }

      .cls-7 {
        fill: #666;
      }

      .cls-4 {
        stroke-dasharray: .999 .999;
      }

      .cls-8 {
        opacity: .25;
      }
    </style>
  </defs>
  <rect class="cls-5" x="411.5" y="220" width="71" height="71"/>
  <rect class="cls-5" x="256.5" y="239.5" width="32" height="32"/>
  <rect class="cls-5" x="316.5" y="239.5" width="32" height="32"/>
  <rect class="cls-5" x="256.5" y="298.5" width="32" height="32"/>
  <rect class="cls-5" x="316.5" y="298.5" width="32" height="32"/>
  <rect class="cls-5" x="256.5" y="357.5" width="32" height="32"/>
  <rect class="cls-5" x="316.5" y="357.5" width="32" height="32"/>
  <rect class="cls-5" x="256.5" y="416.5" width="32" height="32"/>
  <rect class="cls-5" x="316.5" y="416.5" width="32" height="32"/>
  <g>
    <line class="cls-3" x1="412.542" y1="255.5" x2="413.042" y2="255.5"/>
    <line class="cls-1" x1="414.056" y1="255.5" x2="480.451" y2="255.5"/>
    <line class="cls-3" x1="480.958" y1="255.5" x2="481.458" y2="255.5"/>
    <polygon class="cls-7" points="414.199 257.545 414.54 257.179 412.734 255.5 414.54 253.822 414.199 253.456 412 255.5 414.199 257.545"/>
    <polygon class="cls-7" points="479.801 257.545 479.46 257.179 481.266 255.5 479.46 253.822 479.801 253.456 482 255.5 479.801 257.545"/>
  </g>
  <path class="cls-7" d="M422.509,202.727c-.74,0-1.302-.264-1.687-.791-.385-.526-.577-1.297-.577-2.309v-1.218c0-1.024.194-1.804.582-2.337s.952-.8,1.691-.8,1.3.267,1.682.8.573,1.312.573,2.337v1.218c0,1.012-.193,1.782-.578,2.309-.385.527-.947.791-1.686.791ZM422.509,201.936c.503,0,.86-.177,1.073-.531.212-.354.318-.944.318-1.769v-1.236c0-.836-.106-1.435-.318-1.795-.212-.36-.57-.541-1.073-.541s-.861.181-1.073.541c-.212.36-.318.959-.318,1.795v1.236c0,.824.106,1.414.318,1.769.212.354.569.531,1.073.531ZM422.509,199.699c-.182,0-.328-.033-.437-.1s-.164-.194-.164-.382v-.427c0-.183.055-.308.164-.378.109-.069.254-.104.437-.104s.326.035.432.104c.106.07.159.195.159.378v.427c0,.188-.055.315-.164.382-.109.066-.252.1-.427.1Z"/>
  <g>
    <path class="cls-7" d="M442.421,174.356v-5.454h.882v.872h.245c.115-.333.294-.577.536-.731s.533-.231.873-.231c.382,0,.697.132.945.396.249.264.373.638.373,1.122v.837h-.837v-.519c0-.346-.067-.599-.204-.759-.137-.161-.35-.241-.641-.241-.261,0-.499.07-.714.209-.215.14-.408.352-.577.637v3.863h-.882Z"/>
    <path class="cls-7" d="M448.438,174.356v-5.454h.882v.872h.246c.114-.333.294-.577.536-.731s.533-.231.872-.231c.382,0,.697.132.946.396.248.264.372.638.372,1.122v.837h-.836v-.519c0-.346-.068-.599-.205-.759-.136-.161-.35-.241-.641-.241-.261,0-.498.07-.714.209-.215.14-.407.352-.577.637v3.863h-.882Z"/>
  </g>
  <g>
    <path class="cls-7" d="M490.849,258.636v-1.545c0-.563.119-1,.358-1.31.239-.309.645-.558,1.214-.745l1.118-.364c.31-.097.532-.223.668-.377.137-.154.205-.383.205-.687v-.382c0-.418-.095-.716-.282-.896-.188-.179-.527-.268-1.018-.268-.467,0-.79.105-.969.318-.179.212-.289.633-.332,1.264l-.882-.092c.043-.83.229-1.418.56-1.763.33-.346.868-.519,1.613-.519.739,0,1.29.153,1.65.459s.541.771.541,1.396v.618c0,.454-.118.813-.354,1.077s-.634.486-1.191.668l-1.118.364c-.291.091-.514.221-.668.391s-.231.445-.231.827v.772h3.646v.791h-4.527Z"/>
    <path class="cls-7" d="M499.103,258.727c-.86,0-1.451-.146-1.772-.436-.321-.291-.503-.84-.546-1.646l.882-.092c.043.576.153.95.332,1.123s.55.259,1.113.259c.51,0,.87-.104,1.082-.313s.318-.52.318-.932v-.445c0-.431-.086-.747-.259-.95s-.459-.305-.859-.305h-2.363v-3.627h4.036v.791h-3.154v2h1.518c.648,0,1.138.165,1.469.495.33.331.495.838.495,1.522v.601c0,.6-.194,1.076-.582,1.427-.388.352-.957.527-1.709.527Z"/>
    <path class="cls-7" d="M505.148,258.727c-.776,0-1.348-.229-1.714-.69-.367-.461-.55-1.097-.55-1.909v-2.272c0-.843.195-1.483.586-1.923s.956-.659,1.695-.659c.673,0,1.175.129,1.505.387.33.257.553.68.668,1.268l-.954.209c-.079-.388-.197-.663-.354-.827-.158-.163-.455-.245-.892-.245-.497,0-.85.138-1.059.413-.209.276-.313.735-.313,1.378v.945h.154c.151-.225.341-.397.568-.519.227-.121.528-.182.904-.182.679,0,1.185.2,1.519.6.333.4.5.919.5,1.555v.2c0,.739-.194,1.303-.582,1.691-.388.388-.949.581-1.682.581ZM505.139,257.936c.473,0,.82-.118,1.041-.355.222-.236.332-.607.332-1.112v-.118c0-.505-.11-.874-.332-1.108-.221-.233-.568-.351-1.041-.351s-.819.117-1.041.351c-.221.234-.331.604-.331,1.108v.118c0,.505.11.876.331,1.112.222.237.568.355,1.041.355Z"/>
  </g>
  <rect class="cls-2" x="96.5" y="239.5" width="32" height="32"/>
  <rect class="cls-2" x="156.5" y="239.5" width="32" height="32"/>
  <rect class="cls-2" x="96.5" y="298.5" width="32" height="32"/>
  <rect class="cls-2" x="156.5" y="298.5" width="32" height="32"/>
  <rect class="cls-2" x="96.5" y="357.5" width="32" height="32"/>
  <rect class="cls-2" x="156.5" y="357.5" width="32" height="32"/>
  <rect class="cls-2" x="96.5" y="416.5" width="32" height="32"/>
  <rect class="cls-2" x="156.5" y="416.5" width="32" height="32"/>
  <g>
    <rect class="cls-6" x="96.5" y="98.5" width="32" height="51"/>
    <path d="M128,99v50h-31v-50h31M129,98h-33v52h33v-52h0Z"/>
  </g>
  <g>
    <rect class="cls-6" x="96.5" y="163.5" width="252" height="34"/>
    <path d="M348,164v33H97v-33h251M349,163H96v35h253v-35h0Z"/>
  </g>
  <polygon class="cls-5" points="203 56.5 220.013 56.5 223.721 56.5 241.827 56.5 233.625 70.5 211.203 70.5 203 56.5"/>
  <polygon class="cls-5" points="409 192 445.093 192 448.813 192 485 192 476.772 206 417.228 206 409 192"/>
  <polygon class="cls-5" points="427.459 164 444.548 164 448.273 164 466.459 164 458.22 178 435.699 178 427.459 164"/>
  <line class="cls-2" x1="96.067" y1="115.5" x2="128.914" y2="115.5"/>
  <line class="cls-2" x1="96.067" y1="132.5" x2="128.914" y2="132.5"/>
  <g>
    <rect class="cls-6" x="156.5" y="98.5" width="32" height="51"/>
    <path d="M188,99v50h-31v-50h31M189,98h-33v52h33v-52h0Z"/>
  </g>
  <line class="cls-2" x1="156.067" y1="115.5" x2="188.914" y2="115.5"/>
  <line class="cls-2" x1="156.067" y1="132.5" x2="188.914" y2="132.5"/>
  <g>
    <rect class="cls-6" x="256.5" y="98.5" width="32" height="51"/>
    <path d="M288,99v50h-31v-50h31M289,98h-33v52h33v-52h0Z"/>
  </g>
  <line class="cls-2" x1="256.067" y1="115.5" x2="288.914" y2="115.5"/>
  <line class="cls-2" x1="256.067" y1="132.5" x2="288.914" y2="132.5"/>
  <g>
    <rect class="cls-6" x="316.5" y="98.5" width="32" height="51"/>
    <path d="M348,99v50h-31v-50h31M349,98h-33v52h33v-52h0Z"/>
  </g>
  <line class="cls-2" x1="316.067" y1="115.5" x2="348.914" y2="115.5"/>
  <line class="cls-2" x1="316.067" y1="132.5" x2="348.914" y2="132.5"/>
  <g>
    <line class="cls-5" x1="222.489" y1="74.588" x2="222.489" y2="84"/>
    <polygon points="219.995 75.318 222.489 71 224.982 75.318 219.995 75.318"/>
  </g>
  <g>
    <line class="cls-5" x1="272.5" y1="153.588" x2="272.5" y2="159.412"/>
    <polygon points="270.007 154.318 272.5 150 274.993 154.318 270.007 154.318"/>
    <polygon points="270.007 158.682 272.5 163 274.993 158.682 270.007 158.682"/>
  </g>
  <g>
    <line class="cls-5" x1="332.5" y1="153.588" x2="332.5" y2="159.412"/>
    <polygon points="330.007 154.318 332.5 150 334.993 154.318 330.007 154.318"/>
    <polygon points="330.007 158.682 332.5 163 334.993 158.682 330.007 158.682"/>
  </g>
  <g>
    <line class="cls-5" x1="437.959" y1="154.088" x2="437.959" y2="159.912"/>
    <polygon points="435.466 154.818 437.959 150.5 440.453 154.818 435.466 154.818"/>
    <polygon points="435.466 159.182 437.959 163.5 440.453 159.182 435.466 159.182"/>
  </g>
  <g>
    <line class="cls-5" x1="455.959" y1="154.088" x2="455.959" y2="159.912"/>
    <polygon points="453.466 154.818 455.959 150.5 458.453 154.818 453.466 154.818"/>
    <polygon points="453.466 159.182 455.959 163.5 458.453 159.182 453.466 159.182"/>
  </g>
  <g>
    <line class="cls-5" x1="446.959" y1="182.088" x2="446.959" y2="187.912"/>
    <polygon points="444.466 182.818 446.959 178.5 449.453 182.818 444.466 182.818"/>
    <polygon points="444.466 187.182 446.959 191.5 449.453 187.182 444.466 187.182"/>
  </g>
  <g>
    <line class="cls-5" x1="447" y1="210.088" x2="447" y2="215.912"/>
    <polygon points="444.507 210.818 447 206.5 449.493 210.818 444.507 210.818"/>
    <polygon points="444.507 215.182 447 219.5 449.493 215.182 444.507 215.182"/>
  </g>
  <g>
    <line class="cls-5" x1="419.961" y1="121.088" x2="419.962" y2="187.912"/>
    <polygon points="417.468 121.818 419.961 117.5 422.455 121.818 417.468 121.818"/>
    <polygon points="417.468 187.182 419.962 191.5 422.455 187.182 417.468 187.182"/>
  </g>
  <g>
    <line class="cls-5" x1="473.5" y1="121.588" x2="473.5" y2="188.412"/>
    <polygon points="471.007 122.318 473.5 118 475.993 122.318 471.007 122.318"/>
    <polygon points="471.007 187.682 473.5 192 475.993 187.682 471.007 187.682"/>
  </g>
  <g>
    <line class="cls-5" x1="172.5" y1="153.588" x2="172.5" y2="159.412"/>
    <polygon points="170.007 154.318 172.5 150 174.993 154.318 170.007 154.318"/>
    <polygon points="170.007 158.682 172.5 163 174.993 158.682 170.007 158.682"/>
  </g>
  <g>
    <line class="cls-5" x1="112.5" y1="153.588" x2="112.5" y2="159.412"/>
    <polygon points="110.007 154.318 112.5 150 114.993 154.318 110.007 154.318"/>
    <polygon points="110.007 158.682 112.5 163 114.993 158.682 110.007 158.682"/>
  </g>
  <g>
    <line class="cls-5" x1="272.5" y1="85" x2="272.5" y2="94.412"/>
    <polygon points="270.007 93.682 272.5 98 274.993 93.682 270.007 93.682"/>
  </g>
  <g>
    <line class="cls-5" x1="332.5" y1="85" x2="332.5" y2="94.412"/>
    <polygon points="330.007 93.682 332.5 98 334.993 93.682 330.007 93.682"/>
  </g>
  <g>
    <line class="cls-5" x1="172.5" y1="85" x2="172.5" y2="94.412"/>
    <polygon points="170.007 93.682 172.5 98 174.993 93.682 170.007 93.682"/>
  </g>
  <g>
    <line class="cls-5" x1="112.5" y1="85" x2="112.5" y2="94.412"/>
    <polygon points="110.007 93.682 112.5 98 114.993 93.682 110.007 93.682"/>
  </g>
  <g>
    <path class="cls-7" d="M97.481,20.149h5.971v1.055h-4.805v2.613h4.225v1.025h-4.225v3.914h-1.166v-8.607Z"/>
    <path class="cls-7" d="M104.588,22.481h1.002v1.084c.082-.211.283-.468.604-.771s.689-.454,1.107-.454c.02,0,.053.002.1.006s.127.012.24.023v1.113c-.062-.012-.12-.02-.173-.023s-.11-.006-.173-.006c-.531,0-.939.171-1.225.513s-.428.735-.428,1.181v3.609h-1.055v-6.275Z"/>
    <path class="cls-7" d="M113.102,23.107c.555.539.832,1.331.832,2.377,0,1.011-.245,1.846-.733,2.506-.488.659-1.247.989-2.274.989-.857,0-1.538-.292-2.042-.875-.504-.584-.756-1.367-.756-2.351,0-1.054.266-1.894.797-2.518.532-.624,1.245-.937,2.141-.937.803,0,1.482.27,2.037.808ZM112.447,27.278c.257-.529.385-1.117.385-1.765,0-.585-.093-1.062-.278-1.428-.293-.578-.799-.866-1.518-.866-.638,0-1.101.245-1.391.737-.29.491-.435,1.085-.435,1.779,0,.667.145,1.223.435,1.668.29.444.749.667,1.379.667.691,0,1.166-.265,1.422-.793Z"/>
    <path class="cls-7" d="M115.229,22.481h1.043v.891c.25-.309.477-.533.68-.674.348-.238.742-.357,1.184-.357.5,0,.902.123,1.207.369.172.141.328.348.469.621.234-.336.51-.585.826-.747s.672-.243,1.066-.243c.844,0,1.418.305,1.723.914.164.328.246.77.246,1.324v4.178h-1.096v-4.359c0-.418-.104-.705-.313-.861s-.464-.234-.765-.234c-.414,0-.771.139-1.069.416s-.448.74-.448,1.389v3.65h-1.072v-4.096c0-.426-.051-.736-.152-.932-.16-.293-.459-.439-.896-.439-.398,0-.761.154-1.087.463s-.489.867-.489,1.676v3.328h-1.055v-6.275Z"/>
    <path class="cls-7" d="M134.788,20.776c.594.574.925,1.227.99,1.957h-1.137c-.126-.555-.379-.994-.757-1.318s-.908-.486-1.591-.486c-.833,0-1.505.298-2.017.895-.512.596-.768,1.51-.768,2.741,0,1.009.231,1.826.693,2.454s1.152.941,2.069.941c.844,0,1.487-.33,1.928-.99.234-.348.409-.805.524-1.371h1.137c-.101.906-.433,1.666-.996,2.279-.676.738-1.587,1.107-2.734,1.107-.989,0-1.819-.303-2.491-.909-.884-.801-1.326-2.038-1.326-3.711,0-1.271.332-2.312.996-3.125.718-.884,1.708-1.325,2.971-1.325,1.077,0,1.913.287,2.508.861Z"/>
    <path class="cls-7" d="M141.772,23.107c.555.539.832,1.331.832,2.377,0,1.011-.245,1.846-.733,2.506-.488.659-1.247.989-2.274.989-.857,0-1.538-.292-2.042-.875-.504-.584-.756-1.367-.756-2.351,0-1.054.266-1.894.797-2.518.532-.624,1.245-.937,2.141-.937.803,0,1.482.27,2.037.808ZM141.117,27.278c.257-.529.385-1.117.385-1.765,0-.585-.093-1.062-.278-1.428-.293-.578-.799-.866-1.518-.866-.638,0-1.101.245-1.391.737-.29.491-.435,1.085-.435,1.779,0,.667.145,1.223.435,1.668.29.444.749.667,1.379.667.691,0,1.166-.265,1.422-.793Z"/>
    <path class="cls-7" d="M143.928,22.481h1.002v1.084c.082-.211.283-.468.604-.771s.689-.454,1.107-.454c.02,0,.053.002.1.006s.127.012.24.023v1.113c-.062-.012-.12-.02-.173-.023s-.11-.006-.173-.006c-.531,0-.939.171-1.225.513s-.428.735-.428,1.181v3.609h-1.055v-6.275Z"/>
    <path class="cls-7" d="M151.771,22.654c.416.209.732.479.949.812.21.316.35.686.419,1.107.062.289.093.75.093,1.383h-4.564c.02.639.168,1.15.448,1.536.279.386.711.579,1.296.579.546,0,.982-.183,1.308-.548.182-.212.311-.457.387-.735h1.037c-.027.23-.118.487-.272.771s-.327.515-.517.694c-.318.312-.711.523-1.18.633-.252.062-.537.094-.855.094-.776,0-1.434-.284-1.974-.853-.54-.568-.81-1.364-.81-2.388,0-1.008.271-1.826.815-2.455.543-.629,1.254-.943,2.131-.943.442,0,.872.104,1.287.313ZM152.149,25.118c-.042-.457-.142-.822-.296-1.096-.287-.508-.765-.762-1.435-.762-.48,0-.883.175-1.208.524s-.498.794-.517,1.333h3.457Z"/>
    <path class="cls-7" d="M162.731,21.708c.375.691.562,1.639.562,2.842,0,1.141-.17,2.084-.51,2.83-.492,1.07-1.297,1.605-2.414,1.605-1.008,0-1.758-.438-2.25-1.312-.41-.73-.615-1.711-.615-2.941,0-.953.123-1.771.369-2.455.461-1.273,1.295-1.91,2.502-1.91,1.086,0,1.871.447,2.355,1.342ZM161.669,27.298c.325-.484.487-1.387.487-2.707,0-.953-.118-1.737-.352-2.353-.235-.615-.691-.923-1.368-.923-.622,0-1.077.292-1.364.876-.288.584-.432,1.444-.432,2.581,0,.855.092,1.543.276,2.062.282.793.763,1.189,1.444,1.189.548,0,.984-.242,1.309-.727Z"/>
  </g>
  <g>
    <path d="M66.193,218.584h3.102c.845,0,1.446.25,1.804.752.209.296.314.638.314,1.025,0,.452-.128.823-.386,1.113-.133.152-.326.293-.576.42.368.14.643.298.825.474.322.312.483.743.483,1.294,0,.462-.146.88-.437,1.255-.436.56-1.128.84-2.079.84h-3.051v-7.173ZM68.931,221.616c.415,0,.737-.058.967-.171.362-.18.543-.502.543-.967,0-.469-.192-.785-.577-.947-.217-.092-.54-.137-.967-.137h-1.751v2.222h1.786ZM69.26,224.927c.601,0,1.03-.173,1.286-.518.161-.219.242-.482.242-.791,0-.521-.235-.876-.705-1.064-.25-.102-.58-.151-.991-.151h-1.947v2.524h2.115Z"/>
    <path d="M76.793,219.883c.312.576.469,1.365.469,2.368,0,.95-.142,1.736-.425,2.358-.41.892-1.081,1.338-2.012,1.338-.84,0-1.465-.365-1.875-1.094-.342-.609-.513-1.426-.513-2.451,0-.795.103-1.477.308-2.046.384-1.062,1.079-1.592,2.085-1.592.905,0,1.559.372,1.963,1.118ZM75.909,224.541c.271-.404.406-1.156.406-2.256,0-.795-.098-1.448-.293-1.961s-.576-.769-1.14-.769c-.519,0-.897.243-1.137.729-.24.487-.359,1.204-.359,2.151,0,.713.077,1.285.23,1.719.235.66.636.991,1.203.991.457,0,.82-.202,1.091-.605Z"/>
  </g>
  <g>
    <path d="M66.193,277.584h3.102c.845,0,1.446.25,1.804.752.209.296.314.638.314,1.025,0,.452-.128.823-.386,1.113-.133.152-.326.293-.576.42.368.14.643.298.825.474.322.312.483.743.483,1.294,0,.462-.146.88-.437,1.255-.436.56-1.128.84-2.079.84h-3.051v-7.173ZM68.931,280.616c.415,0,.737-.058.967-.171.362-.18.543-.502.543-.967,0-.469-.192-.785-.577-.947-.217-.092-.54-.137-.967-.137h-1.751v2.222h1.786ZM69.26,283.927c.601,0,1.03-.173,1.286-.518.161-.219.242-.482.242-.791,0-.521-.235-.876-.705-1.064-.25-.102-.58-.151-.991-.151h-1.947v2.524h2.115Z"/>
    <path d="M73.083,279.806v-.674c.635-.062,1.078-.165,1.328-.311.25-.145.438-.487.562-1.027h.693v6.963h-.938v-4.951h-1.646Z"/>
  </g>
  <g>
    <path d="M66.193,336.584h3.102c.845,0,1.446.25,1.804.752.209.296.314.638.314,1.025,0,.452-.128.823-.386,1.113-.133.152-.326.293-.576.42.368.14.643.298.825.474.322.312.483.743.483,1.294,0,.462-.146.88-.437,1.255-.436.56-1.128.84-2.079.84h-3.051v-7.173ZM68.931,339.616c.415,0,.737-.058.967-.171.362-.18.543-.502.543-.967,0-.469-.192-.785-.577-.947-.217-.092-.54-.137-.967-.137h-1.751v2.222h1.786ZM69.26,342.927c.601,0,1.03-.173,1.286-.518.161-.219.242-.482.242-.791,0-.521-.235-.876-.705-1.064-.25-.102-.58-.151-.991-.151h-1.947v2.524h2.115Z"/>
    <path d="M72.812,342.185c.216-.446.639-.852,1.267-1.216l.938-.542c.42-.244.714-.453.884-.626.267-.271.4-.58.4-.93,0-.407-.122-.731-.366-.971-.244-.24-.57-.359-.977-.359-.602,0-1.019.229-1.25.686-.124.245-.192.584-.205,1.019h-.894c.01-.609.122-1.105.337-1.489.381-.678,1.053-1.016,2.017-1.016.801,0,1.386.216,1.755.649.37.433.554.914.554,1.445,0,.56-.197,1.038-.591,1.436-.228.23-.636.511-1.226.84l-.669.371c-.319.176-.57.343-.752.503-.326.283-.531.597-.615.942h3.818v.83h-4.8c.033-.603.157-1.127.374-1.572Z"/>
  </g>
  <g>
    <path d="M66.193,395.584h3.102c.845,0,1.446.25,1.804.752.209.296.314.638.314,1.025,0,.452-.128.823-.386,1.113-.133.152-.326.293-.576.42.368.14.643.298.825.474.322.312.483.743.483,1.294,0,.462-.146.88-.437,1.255-.436.56-1.128.84-2.079.84h-3.051v-7.173ZM68.931,398.616c.415,0,.737-.058.967-.171.362-.18.543-.502.543-.967,0-.469-.192-.785-.577-.947-.217-.092-.54-.137-.967-.137h-1.751v2.222h1.786ZM69.26,401.927c.601,0,1.03-.173,1.286-.518.161-.219.242-.482.242-.791,0-.521-.235-.876-.705-1.064-.25-.102-.58-.151-.991-.151h-1.947v2.524h2.115Z"/>
    <path d="M72.924,402.266c-.373-.454-.559-1.007-.559-1.657h.918c.039.452.124.781.254.986.228.367.64.552,1.235.552.462,0,.833-.124,1.113-.371.28-.248.42-.566.42-.957,0-.482-.147-.819-.442-1.011-.294-.192-.704-.288-1.228-.288-.059,0-.118,0-.178.002-.06.002-.121.004-.183.008v-.776c.091.01.167.016.229.02.062.003.128.005.2.005.329,0,.599-.053.811-.156.371-.183.557-.508.557-.977,0-.349-.124-.617-.371-.806-.248-.189-.536-.283-.864-.283-.586,0-.991.195-1.216.586-.124.215-.194.521-.21.918h-.869c0-.521.104-.964.312-1.328.358-.651.988-.977,1.89-.977.713,0,1.265.158,1.655.476s.586.777.586,1.38c0,.43-.116.777-.347,1.045-.143.166-.329.296-.557.391.368.101.655.295.862.583s.31.641.31,1.058c0,.667-.22,1.211-.659,1.631s-1.063.63-1.87.63c-.827,0-1.427-.228-1.799-.682Z"/>
  </g>
  <g>
    <path class="cls-7" d="M40.788,352.14v-5.971h1.055v4.805h2.613v-4.225h1.025v4.225h3.914v1.166h-8.607Z"/>
    <path class="cls-7" d="M43.12,345.032v-1.002h1.084c-.211-.082-.468-.283-.771-.604s-.454-.689-.454-1.107c0-.02.002-.053.006-.1s.012-.127.023-.24h1.113c-.012.062-.02.12-.023.173s-.006.11-.006.173c0,.531.171.939.513,1.225s.735.428,1.181.428h3.609v1.055h-6.275Z"/>
    <path class="cls-7" d="M43.747,336.519c.539-.555,1.331-.832,2.376-.832,1.011,0,1.846.245,2.506.733s.989,1.246.989,2.274c0,.857-.292,1.538-.875,2.042-.583.505-1.367.757-2.351.757-1.054,0-1.893-.266-2.518-.797-.624-.532-.937-1.245-.937-2.142,0-.803.27-1.481.808-2.036ZM47.917,337.174c-.529-.258-1.117-.386-1.765-.386-.585,0-1.061.093-1.428.278-.578.293-.866.799-.866,1.518,0,.638.246,1.102.737,1.391s1.085.435,1.779.435c.667,0,1.223-.146,1.668-.435s.667-.749.667-1.379c0-.691-.264-1.166-.793-1.422Z"/>
    <path class="cls-7" d="M43.12,334.392v-1.043h.891c-.309-.25-.533-.477-.674-.68-.238-.348-.357-.742-.357-1.184,0-.5.123-.902.369-1.207.141-.172.348-.328.621-.469-.336-.234-.585-.51-.747-.826s-.243-.672-.243-1.066c0-.844.305-1.418.914-1.723.328-.164.77-.246,1.324-.246h4.178v1.096h-4.359c-.418,0-.705.104-.861.313s-.234.464-.234.765c0,.414.139.771.416,1.069s.74.448,1.389.448h3.65v1.072h-4.096c-.426,0-.736.051-.932.152-.293.16-.439.459-.439.896,0,.398.154.761.463,1.087s.867.489,1.676.489h3.328v1.055h-6.275Z"/>
    <path class="cls-7" d="M41.034,315.191c.449-.844,1.236-1.359,2.361-1.548v1.154c-.629.138-1.087.423-1.374.854-.287.433-.431.979-.431,1.636,0,.78.299,1.438.896,1.972.598.533,1.488.8,2.672.8,1.023,0,1.856-.22,2.499-.66s.964-1.158.964-2.153c0-.762-.226-1.393-.677-1.893-.451-.499-1.181-.755-2.188-.767v2.695h-.967v-3.779h4.605v.75l-1.107.281c.434.388.734.731.902,1.032.289.503.434,1.143.434,1.919,0,1.003-.33,1.866-.99,2.588-.828.788-1.965,1.182-3.41,1.182s-2.588-.385-3.439-1.155c-.812-.73-1.219-1.678-1.219-2.841,0-.797.156-1.486.469-2.067Z"/>
    <path class="cls-7" d="M43.293,307.852c.209-.416.479-.732.812-.949.316-.21.686-.35,1.107-.42.289-.062.75-.093,1.383-.093v4.564c.639-.02,1.151-.169,1.537-.448.386-.278.579-.711.579-1.296,0-.546-.183-.982-.547-1.308-.212-.183-.457-.312-.736-.388v-1.037c.23.027.487.118.771.272s.515.326.694.517c.312.317.523.712.633,1.181.062.252.094.537.094.854,0,.776-.284,1.435-.853,1.974-.568.54-1.364.81-2.388.81-1.008,0-1.826-.271-2.455-.815-.629-.543-.943-1.254-.943-2.131,0-.443.104-.872.313-1.287ZM45.757,307.474c-.457.042-.822.142-1.096.296-.508.287-.762.766-.762,1.436,0,.48.175.883.524,1.209.35.324.794.497,1.333.517v-3.457Z"/>
    <path class="cls-7" d="M43.12,305.054v-1.043h.891c-.309-.25-.533-.477-.674-.68-.238-.348-.357-.742-.357-1.184,0-.5.123-.902.369-1.207.141-.172.348-.328.621-.469-.336-.234-.585-.51-.747-.826s-.243-.672-.243-1.066c0-.844.305-1.418.914-1.723.328-.164.77-.246,1.324-.246h4.178v1.096h-4.359c-.418,0-.705.104-.861.313s-.234.464-.234.765c0,.414.139.771.416,1.069s.74.448,1.389.448h3.65v1.072h-4.096c-.426,0-.736.051-.932.152-.293.16-.439.459-.439.896,0,.398.154.761.463,1.087s.867.489,1.676.489h3.328v1.055h-6.275Z"/>
    <path class="cls-7" d="M43.12,295.058v-1.043h.891c-.309-.25-.533-.477-.674-.68-.238-.348-.357-.742-.357-1.184,0-.5.123-.902.369-1.207.141-.172.348-.328.621-.469-.336-.234-.585-.51-.747-.826s-.243-.672-.243-1.066c0-.844.305-1.418.914-1.723.328-.164.77-.246,1.324-.246h4.178v1.096h-4.359c-.418,0-.705.104-.861.313s-.234.464-.234.765c0,.414.139.771.416,1.069s.74.448,1.389.448h3.65v1.072h-4.096c-.426,0-.736.051-.932.152-.293.16-.439.459-.439.896,0,.398.154.761.463,1.087s.867.489,1.676.489h3.328v1.055h-6.275Z"/>
    <path class="cls-7" d="M40.788,285.062v-1.072h1.195v1.072h-1.195ZM43.149,285.062v-1.072h6.246v1.072h-6.246Z"/>
    <path class="cls-7" d="M43.12,282.396v-1.002h.891c-.367-.297-.631-.611-.791-.943s-.24-.701-.24-1.107c0-.891.311-1.492.932-1.805.34-.172.826-.258,1.459-.258h4.025v1.072h-3.955c-.383,0-.691.057-.926.17-.391.188-.586.527-.586,1.02,0,.25.025.455.076.615.086.289.258.543.516.762.207.176.421.29.642.343s.536.079.946.079h3.287v1.055h-6.275Z"/>
    <path class="cls-7" d="M40.788,275.722v-1.072h1.195v1.072h-1.195ZM43.149,275.722v-1.072h6.246v1.072h-6.246Z"/>
  </g>
  <g>
    <path class="cls-7" d="M282.133,20.149h5.971v1.055h-4.805v2.613h4.225v1.025h-4.225v3.914h-1.166v-8.607Z"/>
    <path class="cls-7" d="M289.241,22.481h1.002v1.084c.082-.211.283-.468.604-.771s.689-.454,1.107-.454c.02,0,.053.002.1.006s.127.012.24.023v1.113c-.062-.012-.12-.02-.173-.023s-.11-.006-.173-.006c-.531,0-.939.171-1.225.513s-.428.735-.428,1.181v3.609h-1.055v-6.275Z"/>
    <path class="cls-7" d="M297.754,23.107c.555.539.832,1.331.832,2.377,0,1.011-.245,1.846-.733,2.506-.488.659-1.247.989-2.274.989-.857,0-1.538-.292-2.042-.875-.504-.584-.756-1.367-.756-2.351,0-1.054.266-1.894.797-2.518.532-.624,1.245-.937,2.141-.937.803,0,1.482.27,2.037.808ZM297.1,27.278c.257-.529.385-1.117.385-1.765,0-.585-.093-1.062-.278-1.428-.293-.578-.799-.866-1.518-.866-.638,0-1.101.245-1.391.737-.29.491-.435,1.085-.435,1.779,0,.667.145,1.223.435,1.668.29.444.749.667,1.379.667.691,0,1.166-.265,1.422-.793Z"/>
    <path class="cls-7" d="M299.881,22.481h1.043v.891c.25-.309.477-.533.68-.674.348-.238.742-.357,1.184-.357.5,0,.902.123,1.207.369.172.141.328.348.469.621.234-.336.51-.585.826-.747s.672-.243,1.066-.243c.844,0,1.418.305,1.723.914.164.328.246.77.246,1.324v4.178h-1.096v-4.359c0-.418-.104-.705-.313-.861s-.464-.234-.765-.234c-.414,0-.771.139-1.069.416s-.448.74-.448,1.389v3.65h-1.072v-4.096c0-.426-.051-.736-.152-.932-.16-.293-.459-.439-.896-.439-.398,0-.761.154-1.087.463s-.489.867-.489,1.676v3.328h-1.055v-6.275Z"/>
    <path class="cls-7" d="M319.44,20.776c.594.574.925,1.227.99,1.957h-1.137c-.126-.555-.379-.994-.757-1.318s-.908-.486-1.591-.486c-.833,0-1.505.298-2.017.895-.512.596-.768,1.51-.768,2.741,0,1.009.231,1.826.693,2.454s1.152.941,2.069.941c.844,0,1.487-.33,1.928-.99.234-.348.409-.805.524-1.371h1.137c-.101.906-.433,1.666-.996,2.279-.676.738-1.587,1.107-2.734,1.107-.989,0-1.819-.303-2.491-.909-.884-.801-1.326-2.038-1.326-3.711,0-1.271.332-2.312.996-3.125.718-.884,1.708-1.325,2.971-1.325,1.077,0,1.913.287,2.508.861Z"/>
    <path class="cls-7" d="M326.424,23.107c.555.539.832,1.331.832,2.377,0,1.011-.245,1.846-.733,2.506-.488.659-1.247.989-2.274.989-.857,0-1.538-.292-2.042-.875-.504-.584-.756-1.367-.756-2.351,0-1.054.266-1.894.797-2.518.532-.624,1.245-.937,2.141-.937.803,0,1.482.27,2.037.808ZM325.77,27.278c.257-.529.385-1.117.385-1.765,0-.585-.093-1.062-.278-1.428-.293-.578-.799-.866-1.518-.866-.638,0-1.101.245-1.391.737-.29.491-.435,1.085-.435,1.779,0,.667.145,1.223.435,1.668.29.444.749.667,1.379.667.691,0,1.166-.265,1.422-.793Z"/>
    <path class="cls-7" d="M328.581,22.481h1.002v1.084c.082-.211.283-.468.604-.771s.689-.454,1.107-.454c.02,0,.053.002.1.006s.127.012.24.023v1.113c-.062-.012-.12-.02-.173-.023s-.11-.006-.173-.006c-.531,0-.939.171-1.225.513s-.428.735-.428,1.181v3.609h-1.055v-6.275Z"/>
    <path class="cls-7" d="M336.423,22.654c.416.209.732.479.949.812.21.316.35.686.419,1.107.062.289.093.75.093,1.383h-4.564c.02.639.168,1.15.448,1.536.279.386.711.579,1.296.579.546,0,.982-.183,1.308-.548.182-.212.311-.457.387-.735h1.037c-.027.23-.118.487-.272.771s-.327.515-.517.694c-.318.312-.711.523-1.18.633-.252.062-.537.094-.855.094-.776,0-1.434-.284-1.974-.853-.54-.568-.81-1.364-.81-2.388,0-1.008.271-1.826.815-2.455.543-.629,1.254-.943,2.131-.943.442,0,.872.104,1.287.313ZM336.801,25.118c-.042-.457-.142-.822-.296-1.096-.287-.508-.765-.762-1.435-.762-.48,0-.883.175-1.208.524s-.498.794-.517,1.333h3.457Z"/>
    <path class="cls-7" d="M342.93,22.815v-.809c.762-.074,1.293-.198,1.594-.372s.525-.585.674-1.233h.832v8.355h-1.125v-5.941h-1.975Z"/>
  </g>
  <g>
    <path d="M322.633,435.096c-.373-.454-.559-1.007-.559-1.657h.918c.039.452.124.781.254.986.228.367.64.552,1.235.552.462,0,.833-.124,1.113-.371.28-.248.42-.566.42-.957,0-.482-.147-.819-.442-1.011-.294-.192-.704-.288-1.228-.288-.059,0-.118,0-.178.002-.06.002-.121.004-.183.008v-.776c.091.01.167.016.229.02.062.003.128.005.2.005.329,0,.599-.053.811-.156.371-.183.557-.508.557-.977,0-.349-.124-.617-.371-.806-.248-.189-.536-.283-.864-.283-.586,0-.991.195-1.216.586-.124.215-.194.521-.21.918h-.869c0-.521.104-.964.312-1.328.358-.651.988-.977,1.89-.977.713,0,1.265.158,1.655.476s.586.777.586,1.38c0,.43-.116.777-.347,1.045-.143.166-.329.296-.557.391.368.101.655.295.862.583s.31.641.31,1.058c0,.667-.22,1.211-.659,1.631s-1.063.63-1.87.63c-.827,0-1.427-.228-1.799-.682Z"/>
    <path d="M328.227,436.612c.225-.039.382-.198.474-.477.049-.146.073-.289.073-.427,0-.022,0-.043-.002-.061-.001-.019-.006-.039-.012-.062h-.532v-1.064h1.045v.986c0,.387-.078.728-.234,1.021s-.426.474-.811.542v-.459Z"/>
    <path d="M333.91,430.636v-.674c.635-.062,1.078-.165,1.328-.311.25-.145.438-.487.562-1.027h.693v6.963h-.938v-4.951h-1.646Z"/>
    <path d="M339.75,433.805c.059.501.292.848.698,1.04.208.098.449.146.723.146.521,0,.907-.166,1.157-.498s.376-.7.376-1.104c0-.488-.149-.866-.447-1.133-.298-.268-.655-.4-1.072-.4-.303,0-.562.059-.779.176s-.401.279-.554.488l-.762-.044.532-3.765h3.633v.85h-2.974l-.298,1.943c.163-.124.317-.217.464-.278.26-.107.562-.161.903-.161.641,0,1.185.206,1.631.62.446.413.669.938.669,1.572,0,.66-.204,1.243-.613,1.748-.409.504-1.061.757-1.956.757-.57,0-1.073-.16-1.511-.481-.438-.32-.683-.812-.735-1.477h.913Z"/>
  </g>
  <g>
    <path d="M109.284,252.713c.312.576.469,1.365.469,2.368,0,.95-.142,1.736-.425,2.358-.41.892-1.081,1.338-2.012,1.338-.84,0-1.465-.365-1.875-1.094-.342-.609-.513-1.426-.513-2.451,0-.795.103-1.477.308-2.046.384-1.062,1.079-1.592,2.085-1.592.905,0,1.559.372,1.963,1.118ZM108.399,257.371c.271-.404.406-1.156.406-2.256,0-.795-.098-1.448-.293-1.961s-.576-.769-1.14-.769c-.519,0-.897.243-1.137.729-.24.487-.359,1.204-.359,2.151,0,.713.077,1.285.23,1.719.235.66.636.991,1.203.991.457,0,.82-.202,1.091-.605Z"/>
    <path d="M111.007,259.612c.225-.039.382-.198.474-.477.049-.146.073-.289.073-.427,0-.022,0-.043-.002-.061-.001-.019-.006-.039-.012-.062h-.532v-1.064h1.045v.986c0,.387-.078.728-.234,1.021s-.426.474-.811.542v-.459Z"/>
    <path d="M120.402,252.713c.312.576.469,1.365.469,2.368,0,.95-.142,1.736-.425,2.358-.41.892-1.081,1.338-2.012,1.338-.84,0-1.465-.365-1.875-1.094-.342-.609-.513-1.426-.513-2.451,0-.795.103-1.477.308-2.046.384-1.062,1.079-1.592,2.085-1.592.905,0,1.559.372,1.963,1.118ZM119.518,257.371c.271-.404.406-1.156.406-2.256,0-.795-.098-1.448-.293-1.961s-.576-.769-1.14-.769c-.519,0-.897.243-1.137.729-.24.487-.359,1.204-.359,2.151,0,.713.077,1.285.23,1.719.235.66.636.991,1.203.991.457,0,.82-.202,1.091-.605Z"/>
  </g>
  <g>
    <polyline class="cls-5" points="130.011 34 130.011 44.999 215 44.999 215 52.412"/>
    <polygon points="212.507 51.682 215 56 217.493 51.682 212.507 51.682"/>
  </g>
  <g>
    <polyline class="cls-5" points="314.989 34 314.989 44.999 230 44.999 230 52.412"/>
    <polygon points="227.507 51.682 230 56 232.493 51.682 227.507 51.682"/>
  </g>
  <line class="cls-5" x1="169.488" y1="48.129" x2="175.536" y2="42.081"/>
  <line class="cls-5" x1="271.488" y1="48.129" x2="277.536" y2="42.081"/>
  <g>
    <path class="cls-7" d="M154.965,54.028v-.674c.635-.062,1.078-.165,1.328-.31.25-.146.438-.487.562-1.028h.693v6.963h-.938v-4.951h-1.646Z"/>
    <path class="cls-7" d="M164.127,52.566c.308.405.461.822.461,1.252h-.869c-.052-.276-.135-.493-.249-.649-.211-.293-.532-.439-.962-.439-.492,0-.882.228-1.172.682s-.451,1.104-.483,1.95c.202-.296.456-.518.762-.664.28-.13.592-.195.938-.195.586,0,1.097.188,1.533.562.436.375.654.933.654,1.675,0,.635-.207,1.197-.62,1.688-.414.489-1.002.734-1.768.734-.654,0-1.219-.248-1.694-.744-.475-.497-.713-1.332-.713-2.508,0-.869.106-1.606.317-2.212.407-1.158,1.151-1.738,2.231-1.738.781,0,1.326.203,1.633.608ZM163.468,57.913c.229-.312.344-.678.344-1.102,0-.357-.103-.699-.308-1.022-.205-.324-.578-.486-1.118-.486-.377,0-.709.126-.994.376-.285.251-.427.629-.427,1.133,0,.443.129.814.388,1.116.259.301.618.451,1.077.451.462,0,.808-.155,1.038-.466Z"/>
    <path class="cls-7" d="M165.277,53.75h1.138l1.201,1.841,1.216-1.841,1.069.024-1.763,2.524,1.841,2.681h-1.123l-1.299-1.963-1.26,1.963h-1.113l1.841-2.681-1.748-2.549Z"/>
    <path class="cls-7" d="M170.929,58.489c-.373-.454-.559-1.007-.559-1.658h.918c.039.453.124.781.254.986.228.368.64.552,1.235.552.462,0,.833-.123,1.113-.371.28-.247.42-.566.42-.957,0-.481-.147-.818-.442-1.011-.294-.191-.704-.288-1.228-.288-.059,0-.118,0-.178.003-.06,0-.121.004-.183.007v-.776c.091.01.167.017.229.02.062.004.128.005.2.005.329,0,.599-.052.811-.156.371-.182.557-.508.557-.977,0-.348-.124-.616-.371-.806-.248-.188-.536-.283-.864-.283-.586,0-.991.195-1.216.586-.124.215-.194.521-.21.918h-.869c0-.521.104-.963.312-1.328.358-.65.988-.977,1.89-.977.713,0,1.265.159,1.655.477s.586.777.586,1.379c0,.43-.116.778-.347,1.045-.143.166-.329.297-.557.391.368.102.655.296.862.584s.31.641.31,1.057c0,.668-.22,1.211-.659,1.631s-1.063.63-1.87.63c-.827,0-1.427-.227-1.799-.681Z"/>
    <path class="cls-7" d="M176.378,57.407c.216-.445.639-.851,1.267-1.216l.938-.542c.42-.244.714-.452.884-.625.267-.271.4-.581.4-.93,0-.408-.122-.731-.366-.972-.244-.239-.57-.359-.977-.359-.602,0-1.019.229-1.25.686-.124.245-.192.585-.205,1.019h-.894c.01-.608.122-1.104.337-1.489.381-.677,1.053-1.016,2.017-1.016.801,0,1.386.217,1.755.649.37.434.554.915.554,1.445,0,.561-.197,1.039-.591,1.436-.228.231-.636.512-1.226.84l-.669.371c-.319.176-.57.344-.752.503-.326.283-.531.598-.615.942h3.818v.83h-4.8c.033-.602.157-1.126.374-1.572Z"/>
    <path class="cls-7" d="M181.825,51.782h.854v2.603c.193-.25.423-.441.691-.573.268-.132.559-.198.873-.198.654,0,1.184.224,1.591.672.407.447.61,1.107.61,1.979,0,.827-.201,1.514-.603,2.061s-.959.82-1.671.82c-.399,0-.735-.096-1.01-.288-.164-.113-.338-.296-.524-.547v.669h-.811v-7.197ZM185.186,57.803c.237-.377.355-.875.355-1.494,0-.55-.118-1.006-.355-1.367-.236-.361-.585-.542-1.046-.542-.401,0-.753.148-1.056.444-.302.297-.453.785-.453,1.465,0,.492.062.891.186,1.196.232.576.665.864,1.298.864.477,0,.834-.188,1.07-.566Z"/>
  </g>
  <line class="cls-5" x1="104" y1="171" x2="341" y2="190"/>
  <line class="cls-5" x1="104.613" y1="190.041" x2="341.613" y2="171.041"/>
  <g>
    <path d="M218.938,128.97h1.225v1.277h-1.225v-1.277Z"/>
    <path d="M222.272,128.97h1.225v1.277h-1.225v-1.277Z"/>
    <path d="M225.606,128.97h1.225v1.277h-1.225v-1.277Z"/>
  </g>
  <g>
    <path d="M218.938,253.97h1.225v1.277h-1.225v-1.277Z"/>
    <path d="M222.272,253.97h1.225v1.277h-1.225v-1.277Z"/>
    <path d="M225.606,253.97h1.225v1.277h-1.225v-1.277Z"/>
  </g>
  <g>
    <path d="M218.938,312.97h1.225v1.277h-1.225v-1.277Z"/>
    <path d="M222.272,312.97h1.225v1.277h-1.225v-1.277Z"/>
    <path d="M225.606,312.97h1.225v1.277h-1.225v-1.277Z"/>
  </g>
  <g>
    <path d="M218.938,430.97h1.225v1.277h-1.225v-1.277Z"/>
    <path d="M222.272,430.97h1.225v1.277h-1.225v-1.277Z"/>
    <path d="M225.606,430.97h1.225v1.277h-1.225v-1.277Z"/>
  </g>
  <g>
    <path d="M218.938,371.97h1.225v1.277h-1.225v-1.277Z"/>
    <path d="M222.272,371.97h1.225v1.277h-1.225v-1.277Z"/>
    <path d="M225.606,371.97h1.225v1.277h-1.225v-1.277Z"/>
  </g>
  <g>
    <polyline class="cls-5" points="143 407.5 136.317 407.5 118 407.5 118 412.412"/>
    <polygon points="115.507 411.682 118 416 120.493 411.682 115.507 411.682"/>
  </g>
  <line class="cls-5" x1="80.5" y1="398.5" x2="326" y2="398.5"/>
  <line class="cls-5" x1="80.5" y1="339.5" x2="326" y2="339.5"/>
  <line class="cls-5" x1="80.5" y1="280.5" x2="326" y2="280.5"/>
  <line class="cls-5" x1="80.5" y1="221.5" x2="326" y2="221.5"/>
  <g>
    <line class="cls-5" x1="106.5" y1="398" x2="106.5" y2="412.412"/>
    <polygon points="104.007 411.682 106.5 416 108.993 411.682 104.007 411.682"/>
  </g>
  <g>
    <polyline class="cls-5" points="143 348.5 136.317 348.5 118 348.5 118 353.412"/>
    <polygon points="115.507 352.682 118 357 120.493 352.682 115.507 352.682"/>
  </g>
  <g>
    <line class="cls-5" x1="106.5" y1="339" x2="106.5" y2="353.412"/>
    <polygon points="104.007 352.682 106.5 357 108.993 352.682 104.007 352.682"/>
  </g>
  <g>
    <polyline class="cls-5" points="143 289.5 136.317 289.5 118 289.5 118 294.412"/>
    <polygon points="115.507 293.682 118 298 120.493 293.682 115.507 293.682"/>
  </g>
  <g>
    <line class="cls-5" x1="106.5" y1="280" x2="106.5" y2="294.412"/>
    <polygon points="104.007 293.682 106.5 298 108.993 293.682 104.007 293.682"/>
  </g>
  <g>
    <polyline class="cls-5" points="143 230.5 136.317 230.5 118 230.5 118 235.412"/>
    <polygon points="115.507 234.682 118 239 120.493 234.682 115.507 234.682"/>
  </g>
  <g>
    <line class="cls-5" x1="106.5" y1="221" x2="106.5" y2="235.412"/>
    <polygon points="104.007 234.682 106.5 239 108.993 234.682 104.007 234.682"/>
  </g>
  <g>
    <polyline class="cls-5" points="203 407.5 196.317 407.5 178 407.5 178 412.412"/>
    <polygon points="175.507 411.682 178 416 180.493 411.682 175.507 411.682"/>
  </g>
  <g>
    <polyline class="cls-5" points="203 348.5 196.317 348.5 178 348.5 178 353.412"/>
    <polygon points="175.507 352.682 178 357 180.493 352.682 175.507 352.682"/>
  </g>
  <g>
    <polyline class="cls-5" points="203 289.5 196.317 289.5 178 289.5 178 294.412"/>
    <polygon points="175.507 293.682 178 298 180.493 293.682 175.507 293.682"/>
  </g>
  <g>
    <polyline class="cls-5" points="203 230.5 196.317 230.5 178 230.5 178 235.412"/>
    <polygon points="175.507 234.682 178 239 180.493 234.682 175.507 234.682"/>
  </g>
  <g>
    <polyline class="cls-5" points="303 407.5 296.317 407.5 278 407.5 278 412.412"/>
    <polygon points="275.507 411.682 278 416 280.493 411.682 275.507 411.682"/>
  </g>
  <g>
    <polyline class="cls-5" points="303 348.5 296.317 348.5 278 348.5 278 353.412"/>
    <polygon points="275.507 352.682 278 357 280.493 352.682 275.507 352.682"/>
  </g>
  <g>
    <polyline class="cls-5" points="303 289.5 296.317 289.5 278 289.5 278 294.412"/>
    <polygon points="275.507 293.682 278 298 280.493 293.682 275.507 293.682"/>
  </g>
  <g>
    <polyline class="cls-5" points="303 230.5 296.317 230.5 278 230.5 278 235.412"/>
    <polygon points="275.507 234.682 278 239 280.493 234.682 275.507 234.682"/>
  </g>
  <g>
    <polyline class="cls-5" points="363 407.5 356.317 407.5 338 407.5 338 412.412"/>
    <polygon points="335.507 411.682 338 416 340.493 411.682 335.507 411.682"/>
  </g>
  <g>
    <polyline class="cls-5" points="363 348.5 356.317 348.5 338 348.5 338 353.412"/>
    <polygon points="335.507 352.682 338 357 340.493 352.682 335.507 352.682"/>
  </g>
  <g>
    <polyline class="cls-5" points="363 289.5 356.317 289.5 338 289.5 338 294.412"/>
    <polygon points="335.507 293.682 338 298 340.493 293.682 335.507 293.682"/>
  </g>
  <g>
    <polyline class="cls-5" points="363 230.5 356.317 230.5 338 230.5 338 235.412"/>
    <polygon points="335.507 234.682 338 239 340.493 234.682 335.507 234.682"/>
  </g>
  <g>
    <line class="cls-5" x1="166.5" y1="221" x2="166.5" y2="235.412"/>
    <polygon points="164.007 234.682 166.5 239 168.993 234.682 164.007 234.682"/>
  </g>
  <g>
    <line class="cls-5" x1="266.5" y1="221" x2="266.5" y2="235.412"/>
    <polygon points="264.007 234.682 266.5 239 268.993 234.682 264.007 234.682"/>
  </g>
  <g>
    <line class="cls-5" x1="326.5" y1="221" x2="326.5" y2="235.412"/>
    <polygon points="324.007 234.682 326.5 239 328.993 234.682 324.007 234.682"/>
  </g>
  <g>
    <line class="cls-5" x1="166.5" y1="280" x2="166.5" y2="294.412"/>
    <polygon points="164.007 293.682 166.5 298 168.993 293.682 164.007 293.682"/>
  </g>
  <g>
    <line class="cls-5" x1="266.5" y1="280" x2="266.5" y2="294.412"/>
    <polygon points="264.007 293.682 266.5 298 268.993 293.682 264.007 293.682"/>
  </g>
  <g>
    <line class="cls-5" x1="326.5" y1="280" x2="326.5" y2="294.412"/>
    <polygon points="324.007 293.682 326.5 298 328.993 293.682 324.007 293.682"/>
  </g>
  <g>
    <line class="cls-5" x1="166.5" y1="339" x2="166.5" y2="353.412"/>
    <polygon points="164.007 352.682 166.5 357 168.993 352.682 164.007 352.682"/>
  </g>
  <g>
    <line class="cls-5" x1="266.5" y1="339" x2="266.5" y2="353.412"/>
    <polygon points="264.007 352.682 266.5 357 268.993 352.682 264.007 352.682"/>
  </g>
  <g>
    <line class="cls-5" x1="326.5" y1="339" x2="326.5" y2="353.412"/>
    <polygon points="324.007 352.682 326.5 357 328.993 352.682 324.007 352.682"/>
  </g>
  <g>
    <line class="cls-5" x1="166.5" y1="398" x2="166.5" y2="412.412"/>
    <polygon points="164.007 411.682 166.5 416 168.993 411.682 164.007 411.682"/>
  </g>
  <g>
    <line class="cls-5" x1="266.5" y1="398" x2="266.5" y2="412.412"/>
    <polygon points="264.007 411.682 266.5 416 268.993 411.682 264.007 411.682"/>
  </g>
  <g>
    <line class="cls-5" x1="326.5" y1="398" x2="326.5" y2="412.412"/>
    <polygon points="324.007 411.682 326.5 416 328.993 411.682 324.007 411.682"/>
  </g>
  <g>
    <polyline class="cls-5" points="112.5 201.192 112.5 212.5 142.5 212.5 142.5 407.5"/>
    <polygon points="110.007 201.921 112.5 197.604 114.993 201.921 110.007 201.921"/>
  </g>
  <g>
    <polyline class="cls-5" points="172.5 201.192 172.5 212.5 202.5 212.5 202.5 407.5"/>
    <polygon points="170.007 201.921 172.5 197.604 174.993 201.921 170.007 201.921"/>
  </g>
  <g>
    <polyline class="cls-5" points="272.5 201.192 272.5 212.5 302.5 212.5 302.5 407.5"/>
    <polygon points="270.007 201.921 272.5 197.604 274.993 201.921 270.007 201.921"/>
  </g>
  <g>
    <polyline class="cls-5" points="332.5 201.192 332.5 212.5 362.5 212.5 362.5 407.5"/>
    <polygon points="330.007 201.921 332.5 197.604 334.993 201.921 330.007 201.921"/>
  </g>
  <g>
    <line class="cls-3" x1="487.5" y1="289.958" x2="487.5" y2="289.458"/>
    <line class="cls-1" x1="487.5" y1="288.444" x2="487.5" y2="222.049"/>
    <line class="cls-3" x1="487.5" y1="221.542" x2="487.5" y2="221.042"/>
    <polygon class="cls-7" points="489.545 288.301 489.179 287.96 487.5 289.766 485.822 287.96 485.456 288.301 487.5 290.5 489.545 288.301"/>
    <polygon class="cls-7" points="489.545 222.699 489.179 223.04 487.501 221.234 485.822 223.04 485.456 222.699 487.501 220.5 489.545 222.699"/>
  </g>
  <g class="cls-8">
    <g>
      <line class="cls-5" x1="348.5" y1="239.5" x2="348.978" y2="239.352"/>
      <line class="cls-4" x1="349.932" y1="239.057" x2="410.545" y2="220.296"/>
      <line class="cls-5" x1="411.022" y1="220.148" x2="411.5" y2="220"/>
    </g>
  </g>
  <g class="cls-8">
    <g>
      <line class="cls-5" x1="348.5" y1="271.5" x2="348.978" y2="271.648"/>
      <line class="cls-4" x1="349.932" y1="271.943" x2="410.545" y2="290.704"/>
      <line class="cls-5" x1="411.022" y1="290.852" x2="411.5" y2="291"/>
    </g>
  </g>
  <line class="cls-5" x1="481" y1="199.5" x2="486" y2="199.5"/>
  <g>
    <rect class="cls-6" x="441" y="253" width="12" height="5"/>
    <g>
      <path class="cls-7" d="M446.524,256.803h-1v1.918h-.882v-1.918h-3.146v-.791l2.772-4.563h1.255v4.563h1v.791ZM442.442,256.012h2.2v-3.563l-2.2,3.563Z"/>
      <path class="cls-7" d="M447.752,258.721v-7.272h2.1c.691,0,1.205.142,1.541.424s.504.711.504,1.288v.419c0,.303-.083.56-.25.769-.166.21-.398.342-.695.396v.264c.37.036.664.187.883.449.218.264.326.602.326,1.013v.399c0,.623-.186,1.088-.559,1.394s-.938.458-1.695.458h-2.154ZM448.633,254.548h1.282c.388,0,.671-.08.851-.24.178-.161.268-.423.268-.787v-.245c0-.363-.09-.627-.268-.791-.18-.163-.463-.245-.851-.245h-1.282v2.309ZM448.633,257.93h1.438c.418,0,.724-.092.918-.276.193-.184.291-.479.291-.883v-.281c0-.404-.098-.697-.291-.878-.194-.182-.5-.272-.918-.272h-1.438v2.591Z"/>
    </g>
  </g>
  <g>
    <path d="M439.627,225.917h3.26c.537,0,.98.08,1.328.239.662.306.993.871.993,1.694,0,.43-.089.781-.267,1.055-.177.273-.426.493-.744.659.279.114.49.264.633.449.141.186.221.486.236.903l.034.962c.01.273.032.477.068.61.059.228.163.374.312.439v.161h-1.191c-.032-.062-.059-.142-.078-.239s-.036-.286-.049-.566l-.059-1.196c-.022-.469-.191-.783-.508-.942-.181-.088-.464-.132-.849-.132h-2.149v3.076h-.972v-7.173ZM442.783,229.203c.443,0,.793-.091,1.051-.273.259-.183.388-.511.388-.986,0-.511-.181-.859-.542-1.045-.192-.098-.45-.146-.773-.146h-2.308v2.451h2.185Z"/>
    <path d="M447.031,225.917l1.353,5.827,1.622-5.827h1.05l1.625,5.839,1.353-5.839h1.065l-1.886,7.173h-1.02l-1.656-5.947-1.664,5.947h-1.021l-1.875-7.173h1.055Z"/>
  </g>
  <line class="cls-5" x1="112" y1="84.5" x2="333" y2="84.5"/>
  <g>
    <path d="M433.772,136.309c-.449,0-.83-.127-1.146-.382-.315-.254-.473-.646-.473-1.173,0-.473.146-.847.437-1.122.291-.276.648-.414,1.073-.414h1.646v-.818c0-.278-.088-.503-.264-.672-.176-.17-.439-.255-.791-.255-.364,0-.633.062-.809.187s-.315.386-.418.786l-.763-.218c.097-.516.31-.903.641-1.164.33-.261.777-.391,1.341-.391.558,0,1.021.132,1.391.396.37.265.555.67.555,1.216v2.532c0,.31.082.508.245.593s.409.097.736.036v.8c-.382.061-.717.032-1.004-.086-.288-.118-.447-.393-.477-.823h-.173c-.152.279-.383.511-.695.695-.312.186-.663.277-1.05.277ZM433.9,135.555c.297,0,.563-.059.8-.174.236-.116.439-.311.609-.585v-.905h-1.427c-.261,0-.47.062-.627.183-.158.122-.236.332-.236.631,0,.269.068.478.205.626.136.149.362.225.677.225Z"/>
    <path d="M440.636,136.309c-.74,0-1.294-.171-1.664-.514-.37-.342-.555-.838-.555-1.486v-1.6c0-.667.185-1.173.555-1.519.369-.345.921-.518,1.654-.518.648,0,1.147.154,1.495.463.349.31.544.776.587,1.4l-.864.046c-.024-.4-.135-.687-.332-.859-.197-.173-.495-.259-.896-.259-.442,0-.774.1-.995.3-.222.2-.332.512-.332.937v1.618c0,.412.11.715.332.909.221.193.556.29,1.004.29.4,0,.698-.07.896-.213.197-.143.305-.384.323-.723l.864.045c-.037.563-.228.985-.573,1.264-.345.279-.845.418-1.5.418Z"/>
    <path d="M446.654,136.309c-.74,0-1.295-.171-1.664-.514-.37-.342-.555-.838-.555-1.486v-1.6c0-.667.185-1.173.555-1.519.369-.345.921-.518,1.654-.518.648,0,1.147.154,1.496.463.348.31.544.776.586,1.4l-.863.046c-.024-.4-.135-.687-.332-.859s-.495-.259-.896-.259c-.442,0-.774.1-.995.3-.222.2-.332.512-.332.937v1.618c0,.412.11.715.332.909.221.193.556.29,1.004.29.4,0,.698-.07.896-.213s.305-.384.323-.723l.863.045c-.036.563-.228.985-.572,1.264-.346.279-.846.418-1.5.418Z"/>
    <path d="M454.681,135.027c-.151.448-.383.774-.695.977-.312.203-.786.305-1.423.305-.66,0-1.177-.169-1.55-.509-.373-.339-.559-.839-.559-1.5v-1.591c0-.679.195-1.188.586-1.527.391-.339.898-.509,1.522-.509.631,0,1.137.173,1.519.518.382.346.572.876.572,1.591v.882h-3.327v.637c0,.448.102.77.305.964.203.193.514.291.932.291.395,0,.681-.062.859-.187s.316-.323.414-.596l.845.255ZM451.326,132.718v.273h2.455v-.191c0-.479-.104-.827-.31-1.046-.206-.218-.512-.327-.918-.327s-.712.106-.918.318-.31.536-.31.973Z"/>
    <path d="M456.48,136.218v-.791h1.664v-5.69h-1.664v-.791h2.546v6.481h1.654v.791h-4.2Z"/>
    <path d="M435.809,146.218v-5.454h.882v.872h.246c.115-.333.294-.577.536-.731s.533-.231.873-.231c.382,0,.697.132.946.396s.373.638.373,1.122v.837h-.836v-.519c0-.346-.068-.599-.205-.759-.136-.161-.35-.241-.641-.241-.261,0-.499.07-.714.209-.215.14-.408.352-.577.637v3.863h-.882Z"/>
    <path d="M445.654,145.027c-.151.448-.384.774-.695.977-.312.203-.786.305-1.423.305-.661,0-1.178-.169-1.55-.509-.373-.339-.559-.839-.559-1.5v-1.591c0-.679.195-1.188.586-1.527.391-.339.898-.509,1.522-.509.63,0,1.137.173,1.518.518.382.346.573.876.573,1.591v.882h-3.327v.637c0,.448.102.77.305.964.203.193.514.291.932.291.394,0,.68-.062.859-.187.179-.124.316-.323.413-.596l.846.255ZM442.3,142.718v.273h2.454v-.191c0-.479-.103-.827-.309-1.046-.206-.218-.513-.327-.918-.327s-.713.106-.919.318-.309.536-.309.973Z"/>
    <path d="M450.772,148.036v-2.663h-.255c-.146.303-.346.534-.6.695-.255.16-.543.24-.864.24-.515,0-.912-.176-1.19-.527-.279-.351-.418-.851-.418-1.5v-1.591c0-.648.203-1.146.608-1.495.406-.349.925-.522,1.555-.522.37,0,.73.047,1.082.141s.67.226.954.396v6.827h-.872ZM449.3,145.473c.272,0,.53-.076.772-.228s.476-.382.7-.69v-2.791c-.176-.109-.359-.189-.55-.241-.191-.052-.393-.077-.604-.077-.382,0-.694.104-.937.313-.243.209-.364.526-.364.95v1.5c0,.424.082.741.246.95.163.209.409.313.736.313Z"/>
    <path d="M455.645,146.309c-.43,0-.847-.063-1.25-.19-.402-.127-.765-.32-1.086-.58l.373-.698c.272.211.58.377.922.497.343.121.689.181,1.041.181.315,0,.594-.051.837-.153.242-.103.363-.301.363-.597,0-.271-.106-.462-.318-.574-.212-.111-.6-.212-1.163-.303-.643-.104-1.118-.274-1.428-.515-.309-.24-.464-.601-.464-1.081,0-.528.187-.931.56-1.208.373-.276.822-.414,1.35-.414.395,0,.777.069,1.15.209s.711.33,1.014.572l-.373.7c-.254-.2-.533-.365-.836-.495-.304-.131-.618-.195-.945-.195-.291,0-.538.058-.741.172-.203.115-.305.312-.305.592,0,.26.104.448.31.563s.594.218,1.163.309c.648.104,1.128.282,1.437.536.31.255.464.606.464,1.055,0,.546-.205.952-.614,1.219-.408.267-.895.399-1.459.399Z"/>
  </g>
  <g>
    <path d="M490.94,201.718v-.791h1.664v-5.69h-1.664v-.791h2.546v6.481h1.654v.791h-4.2Z"/>
    <path d="M499.05,201.809c-.673,0-1.19-.173-1.555-.518-.364-.346-.546-.84-.546-1.482v-1.6c0-.648.182-1.15.546-1.505s.885-.531,1.563-.531c.666,0,1.182.177,1.545.531.364.354.546.856.546,1.505v1.591c0,.648-.182,1.146-.546,1.491-.363.345-.881.518-1.554.518ZM499.05,201.018c.412,0,.72-.097.923-.29.203-.194.305-.5.305-.919v-1.6c0-.424-.102-.738-.305-.941-.203-.202-.511-.304-.923-.304s-.72.102-.923.304c-.203.203-.305.518-.305.941v1.6c0,.419.102.725.305.919.203.193.51.29.923.29Z"/>
    <path d="M505.795,201.718l-.727-3.563-.701,3.563h-.973l-.936-5.454h.836l.618,4.754.646-3.854h.982l.709,3.71.59-4.609h.837l-.937,5.454h-.945Z"/>
    <path d="M513.213,200.527c-.151.448-.383.774-.695.977-.312.203-.786.305-1.423.305-.661,0-1.177-.169-1.55-.509-.373-.339-.559-.839-.559-1.5v-1.591c0-.679.195-1.188.586-1.527.391-.339.898-.509,1.522-.509.63,0,1.137.173,1.519.518.381.346.572.876.572,1.591v.882h-3.327v.637c0,.448.102.77.305.964.203.193.514.291.932.291.394,0,.681-.062.859-.187s.316-.323.413-.596l.846.255ZM509.858,198.218v.273h2.454v-.191c0-.479-.103-.827-.309-1.046-.206-.218-.512-.327-.918-.327s-.713.106-.918.318c-.207.212-.31.536-.31.973Z"/>
    <path d="M517.186,201.809c-.43,0-.848-.063-1.25-.19s-.766-.32-1.086-.58l.373-.698c.271.211.58.377.922.497.342.121.689.181,1.041.181.314,0,.594-.051.836-.153s.364-.301.364-.597c0-.271-.106-.462-.318-.574-.212-.111-.601-.212-1.163-.303-.643-.104-1.119-.274-1.428-.515s-.464-.601-.464-1.081c0-.528.187-.931.56-1.208.373-.276.822-.414,1.35-.414.395,0,.777.069,1.15.209s.711.33,1.014.572l-.373.7c-.254-.2-.533-.365-.836-.495-.304-.131-.619-.195-.945-.195-.291,0-.539.058-.742.172-.203.115-.304.312-.304.592,0,.26.103.448.31.563.205.115.594.218,1.163.309.648.104,1.128.282,1.437.536.309.255.463.606.463,1.055,0,.546-.204.952-.613,1.219-.408.267-.895.399-1.459.399Z"/>
    <path d="M523.994,201.8c-.562,0-1.002-.151-1.318-.454-.314-.304-.473-.746-.473-1.328v-2.963h-1.399v-.791h1.399v-1.818h.883v1.818h2.145v.791h-2.145v2.872c0,.346.08.604.24.777s.396.26.705.26c.205,0,.401-.016.586-.046.186-.03.359-.075.523-.137l.172.81c-.176.061-.374.11-.596.15-.221.039-.462.059-.723.059Z"/>
  </g>
  <g>
    <path d="M409.882,98.272v3.945h-.8v-5.454h.8v.7h.173c.097-.249.23-.442.4-.582.169-.14.352-.209.545-.209.218,0,.4.068.545.204.146.137.249.332.309.587h.182c.103-.249.244-.442.423-.582s.374-.209.586-.209c.279,0,.497.118.655.354.157.236.236.563.236.981v4.209h-.8v-4.082c0-.254-.032-.448-.095-.581-.064-.134-.159-.2-.287-.2-.115,0-.247.08-.396.241-.148.16-.298.386-.45.677v3.945h-.8v-4.082c0-.26-.033-.455-.1-.586-.067-.13-.164-.195-.291-.195-.115,0-.244.079-.386.236-.143.157-.292.385-.45.682Z"/>
    <path d="M417.027,102.309c-.485,0-.873-.166-1.164-.5-.291-.333-.436-.772-.436-1.317v-3.728h.873v3.563c0,.382.079.668.236.859.158.19.4.286.728.286.26,0,.515-.074.764-.223.248-.148.491-.374.727-.678v-3.809h.873v5.454h-.873v-.845h-.254c-.109.278-.299.504-.568.677s-.571.259-.904.259Z"/>
    <path d="M423.545,102.309c-.673,0-1.191-.173-1.555-.518-.364-.346-.545-.84-.545-1.482v-1.6c0-.648.182-1.15.545-1.505s.885-.531,1.563-.531c.667,0,1.182.177,1.545.531.364.354.545.856.545,1.505v1.591c0,.648-.182,1.146-.545,1.491-.363.345-.882.518-1.554.518ZM423.545,101.518c.412,0,.719-.097.922-.29.203-.194.305-.5.305-.919v-1.6c0-.424-.102-.738-.305-.941-.203-.202-.51-.304-.922-.304s-.72.102-.923.304c-.203.203-.305.518-.305.941v1.6c0,.419.102.725.305.919.203.193.51.29.923.29Z"/>
    <path d="M427.463,102.218v-5.454h.873v.846h.254c.133-.291.332-.521.596-.687.264-.167.559-.25.886-.25.491,0,.879.162,1.164.486.285.324.427.768.427,1.332v3.727h-.873v-3.555c0-.382-.083-.669-.25-.863s-.404-.291-.713-.291c-.255,0-.509.077-.764.232-.255.154-.497.38-.728.677v3.8h-.873Z"/>
    <path d="M409.809,112.218v-5.454h.882v.872h.246c.115-.333.294-.577.536-.731s.533-.231.873-.231c.382,0,.697.132.946.396s.373.638.373,1.122v.837h-.836v-.519c0-.346-.068-.599-.205-.759-.136-.161-.35-.241-.641-.241-.261,0-.499.07-.714.209-.215.14-.408.352-.577.637v3.863h-.882Z"/>
    <path d="M419.654,111.027c-.151.448-.383.774-.695.977-.312.203-.786.305-1.423.305-.661,0-1.177-.169-1.55-.509-.373-.339-.559-.839-.559-1.5v-1.591c0-.679.195-1.188.586-1.527.391-.339.898-.509,1.522-.509.63,0,1.137.173,1.518.518.382.346.573.876.573,1.591v.882h-3.327v.637c0,.448.102.77.305.964.203.193.514.291.932.291.394,0,.68-.062.859-.187.179-.124.316-.323.414-.596l.845.255ZM416.3,108.718v.273h2.455v-.191c0-.479-.103-.827-.309-1.046-.206-.218-.512-.327-.918-.327s-.712.106-.918.318-.309.536-.309.973Z"/>
    <path d="M424.772,114.036v-2.663h-.254c-.146.303-.346.534-.6.695-.254.16-.542.24-.864.24-.515,0-.912-.176-1.191-.527-.279-.351-.418-.851-.418-1.5v-1.591c0-.648.203-1.146.609-1.495.406-.349.924-.522,1.555-.522.37,0,.73.047,1.082.141.351.094.669.226.954.396v6.827h-.873ZM423.3,111.473c.272,0,.53-.076.772-.228.243-.151.476-.382.7-.69v-2.791c-.176-.109-.359-.189-.55-.241s-.393-.077-.604-.077c-.382,0-.694.104-.937.313-.243.209-.364.526-.364.95v1.5c0,.424.082.741.246.95s.409.313.736.313Z"/>
    <path d="M429.645,112.309c-.43,0-.847-.063-1.25-.19s-.765-.32-1.086-.58l.373-.698c.272.211.58.377.922.497.342.121.689.181,1.041.181.315,0,.594-.051.836-.153.242-.103.364-.301.364-.597,0-.271-.106-.462-.318-.574-.212-.111-.6-.212-1.164-.303-.643-.104-1.118-.274-1.427-.515s-.464-.601-.464-1.081c0-.528.187-.931.559-1.208.373-.276.823-.414,1.35-.414.394,0,.777.069,1.15.209.373.14.711.33,1.014.572l-.373.7c-.254-.2-.533-.365-.836-.495-.303-.131-.618-.195-.945-.195-.291,0-.538.058-.741.172-.203.115-.304.312-.304.592,0,.26.103.448.309.563s.594.218,1.164.309c.648.104,1.127.282,1.437.536.309.255.463.606.463,1.055,0,.546-.205.952-.614,1.219-.409.267-.895.399-1.459.399Z"/>
  </g>
  <g>
    <path d="M461.618,102.309c-.74,0-1.295-.171-1.664-.514-.37-.342-.555-.838-.555-1.486v-1.6c0-.667.185-1.173.555-1.519.369-.345.921-.518,1.654-.518.648,0,1.147.154,1.496.463.348.31.544.776.586,1.4l-.863.046c-.024-.4-.135-.687-.332-.859s-.495-.259-.896-.259c-.442,0-.774.1-.995.3-.222.2-.332.512-.332.937v1.618c0,.412.11.715.332.909.221.193.556.29,1.004.29.4,0,.698-.07.896-.213s.305-.384.323-.723l.863.045c-.036.563-.228.985-.572,1.264-.346.279-.846.418-1.5.418Z"/>
    <path d="M465.427,102.218v-.791h1.664v-5.69h-1.664v-.791h2.546v6.481h1.654v.791h-4.2Z"/>
    <path d="M473.472,102.309c-.357,0-.713-.053-1.067-.159-.354-.105-.678-.256-.969-.449v-6.755h.873v2.664h.254c.134-.297.329-.527.587-.691s.55-.245.877-.245c.51,0,.905.176,1.187.527.282.352.423.852.423,1.5v1.591c0,.643-.189,1.14-.568,1.49-.379.352-.91.527-1.596.527ZM473.472,101.536c.437,0,.761-.102.973-.305.213-.203.318-.522.318-.959v-1.582c0-.405-.08-.704-.24-.896-.161-.19-.408-.286-.741-.286-.279,0-.538.076-.777.228s-.472.382-.695.69v2.791c.176.109.357.189.545.241.188.052.395.077.618.077Z"/>
    <path d="M479.054,102.309c-.485,0-.873-.166-1.164-.5-.29-.333-.436-.772-.436-1.317v-3.728h.872v3.563c0,.382.079.668.236.859.158.19.4.286.728.286.261,0,.516-.074.764-.223s.491-.374.728-.678v-3.809h.872v5.454h-.872v-.845h-.255c-.109.278-.299.504-.568.677s-.571.259-.904.259Z"/>
    <path d="M485.653,102.309c-.43,0-.847-.063-1.25-.19-.402-.127-.765-.32-1.086-.58l.373-.698c.272.211.58.377.922.497.343.121.689.181,1.041.181.315,0,.594-.051.837-.153.242-.103.363-.301.363-.597,0-.271-.106-.462-.318-.574-.212-.111-.6-.212-1.163-.303-.643-.104-1.118-.274-1.428-.515-.309-.24-.464-.601-.464-1.081,0-.528.187-.931.56-1.208.373-.276.822-.414,1.35-.414.395,0,.777.069,1.15.209s.711.33,1.014.572l-.373.7c-.254-.2-.533-.365-.836-.495-.304-.131-.618-.195-.945-.195-.291,0-.538.058-.741.172-.203.115-.305.312-.305.592,0,.26.104.448.31.563s.594.218,1.163.309c.648.104,1.128.282,1.437.536.31.255.464.606.464,1.055,0,.546-.205.952-.614,1.219-.408.267-.895.399-1.459.399Z"/>
    <path d="M462.809,112.218v-5.454h.882v.872h.246c.114-.333.294-.577.536-.731s.533-.231.872-.231c.382,0,.697.132.946.396.248.264.372.638.372,1.122v.837h-.836v-.519c0-.346-.068-.599-.205-.759-.136-.161-.35-.241-.641-.241-.261,0-.498.07-.714.209-.215.14-.407.352-.577.637v3.863h-.882Z"/>
    <path d="M472.654,111.027c-.151.448-.384.774-.695.977-.312.203-.786.305-1.423.305-.661,0-1.178-.169-1.55-.509-.373-.339-.56-.839-.56-1.5v-1.591c0-.679.195-1.188.587-1.527.391-.339.898-.509,1.522-.509.63,0,1.137.173,1.518.518.382.346.573.876.573,1.591v.882h-3.327v.637c0,.448.102.77.305.964.203.193.514.291.932.291.394,0,.68-.062.859-.187.179-.124.316-.323.413-.596l.846.255ZM469.3,108.718v.273h2.454v-.191c0-.479-.103-.827-.309-1.046-.206-.218-.513-.327-.918-.327s-.713.106-.919.318-.309.536-.309.973Z"/>
    <path d="M477.772,114.036v-2.663h-.255c-.146.303-.346.534-.6.695-.255.16-.543.24-.864.24-.515,0-.912-.176-1.19-.527-.279-.351-.418-.851-.418-1.5v-1.591c0-.648.203-1.146.608-1.495.406-.349.925-.522,1.555-.522.37,0,.73.047,1.082.141s.67.226.954.396v6.827h-.872ZM476.3,111.473c.272,0,.53-.076.772-.228s.476-.382.7-.69v-2.791c-.176-.109-.359-.189-.55-.241-.191-.052-.393-.077-.604-.077-.382,0-.694.104-.937.313-.243.209-.364.526-.364.95v1.5c0,.424.082.741.246.95.163.209.409.313.736.313Z"/>
    <path d="M482.645,112.309c-.43,0-.847-.063-1.25-.19-.402-.127-.765-.32-1.086-.58l.373-.698c.272.211.58.377.922.497.343.121.689.181,1.041.181.315,0,.594-.051.837-.153.242-.103.363-.301.363-.597,0-.271-.106-.462-.318-.574-.212-.111-.6-.212-1.163-.303-.643-.104-1.118-.274-1.428-.515-.309-.24-.464-.601-.464-1.081,0-.528.187-.931.56-1.208.373-.276.822-.414,1.35-.414.395,0,.777.069,1.15.209s.711.33,1.014.572l-.373.7c-.254-.2-.533-.365-.836-.495-.304-.131-.618-.195-.945-.195-.291,0-.538.058-.741.172-.203.115-.305.312-.305.592,0,.26.104.448.31.563s.594.218,1.163.309c.648.104,1.128.282,1.437.536.31.255.464.606.464,1.055,0,.546-.205.952-.614,1.219-.408.267-.895.399-1.459.399Z"/>
  </g>
  <g>
    <path class="cls-7" d="M56.716,135.377c.202-.025.337-.11.405-.253.039-.079.059-.191.059-.339,0-.3-.106-.519-.319-.654s-.517-.203-.914-.203c-.458,0-.783.124-.975.373-.107.138-.177.342-.209.613h-.82c.016-.646.225-1.096.626-1.349.402-.253.868-.38,1.397-.38.614,0,1.114.117,1.497.352.38.234.571.599.571,1.094v3.013c0,.092.019.165.056.22.038.056.116.083.237.083.039,0,.083-.002.132-.008.049-.004.101-.012.156-.021v.649c-.137.039-.241.063-.312.073s-.169.015-.293.015c-.303,0-.522-.107-.659-.322-.072-.114-.122-.275-.151-.483-.179.234-.436.438-.771.61s-.705.259-1.108.259c-.485,0-.881-.147-1.189-.441s-.461-.662-.461-1.104c0-.484.151-.86.454-1.127s.7-.431,1.191-.492l1.401-.176ZM54.865,137.752c.186.146.405.219.659.219.309,0,.609-.071.898-.215.488-.237.732-.625.732-1.165v-.707c-.107.069-.245.126-.414.172s-.335.078-.497.098l-.531.068c-.318.042-.558.109-.718.2-.272.152-.408.396-.408.73,0,.253.093.453.278.6Z"/>
    <path class="cls-7" d="M59.997,136.901c.026.293.101.518.224.674.226.283.618.425,1.176.425.332,0,.625-.071.877-.212.252-.143.379-.361.379-.657,0-.225-.101-.396-.303-.513-.129-.071-.384-.154-.764-.249l-.709-.176c-.453-.11-.788-.234-1.002-.371-.384-.237-.576-.566-.576-.986,0-.495.181-.896.542-1.201.361-.306.847-.459,1.457-.459.798,0,1.374.231,1.727.693.221.293.328.608.322.947h-.83c-.017-.197-.088-.377-.215-.539-.207-.229-.565-.345-1.075-.345-.34,0-.597.063-.772.189-.175.127-.262.294-.262.501,0,.228.115.409.345.545.133.082.329.153.587.215l.592.142c.644.153,1.075.301,1.293.444.342.225.513.578.513,1.06,0,.466-.179.867-.537,1.206-.357.339-.902.508-1.634.508-.788,0-1.345-.177-1.673-.53-.328-.353-.503-.79-.526-1.311h.845Z"/>
    <path class="cls-7" d="M64.997,136.901c.026.293.101.518.224.674.226.283.618.425,1.176.425.332,0,.625-.071.877-.212.252-.143.379-.361.379-.657,0-.225-.101-.396-.303-.513-.129-.071-.384-.154-.764-.249l-.709-.176c-.453-.11-.788-.234-1.002-.371-.384-.237-.576-.566-.576-.986,0-.495.181-.896.542-1.201.361-.306.847-.459,1.457-.459.798,0,1.374.231,1.727.693.221.293.328.608.322.947h-.83c-.017-.197-.088-.377-.215-.539-.207-.229-.565-.345-1.075-.345-.34,0-.597.063-.772.189-.175.127-.262.294-.262.501,0,.228.115.409.345.545.133.082.329.153.587.215l.592.142c.644.153,1.075.301,1.293.444.342.225.513.578.513,1.06,0,.466-.179.867-.537,1.206-.357.339-.902.508-1.634.508-.788,0-1.345-.177-1.673-.53-.328-.353-.503-.79-.526-1.311h.845Z"/>
    <path class="cls-7" d="M72.705,133.456c.346.175.61.4.791.677.175.264.292.571.35.923.052.241.078.625.078,1.152h-3.804c.016.532.141.959.373,1.28s.593.482,1.081.482c.455,0,.818-.152,1.09-.456.152-.177.259-.381.323-.613h.864c-.023.192-.099.406-.227.643-.128.235-.272.429-.43.578-.265.261-.593.437-.984.527-.21.052-.447.078-.712.078-.647,0-1.195-.236-1.645-.711-.45-.473-.674-1.137-.674-1.989,0-.84.227-1.521.679-2.046.453-.524,1.045-.786,1.776-.786.369,0,.726.087,1.072.261ZM73.02,135.51c-.036-.381-.118-.686-.247-.913-.239-.423-.637-.635-1.196-.635-.4,0-.736.146-1.007.438-.271.291-.415.661-.431,1.11h2.881Z"/>
    <path class="cls-7" d="M75.061,133.312h.835v.903c.068-.176.236-.39.503-.643.267-.252.575-.378.923-.378.016,0,.044.002.083.005s.106.01.2.02v.928c-.052-.01-.1-.017-.144-.02s-.092-.005-.144-.005c-.443,0-.783.143-1.021.427-.238.285-.356.613-.356.984v3.008h-.879v-5.229Z"/>
    <path class="cls-7" d="M78.542,131.853h.889v1.46h.835v.718h-.835v3.413c0,.183.062.305.186.366.068.036.182.054.342.054.042,0,.088,0,.137-.003s.106-.008.171-.017v.698c-.101.029-.206.051-.315.063s-.227.02-.354.02c-.41,0-.688-.104-.835-.315-.146-.209-.22-.482-.22-.817v-3.462h-.708v-.718h.708v-1.46Z"/>
    <path class="cls-7" d="M29.221,146.901c.026.293.101.518.224.674.226.283.618.425,1.176.425.332,0,.625-.071.877-.212.252-.143.379-.361.379-.657,0-.225-.101-.396-.303-.513-.129-.071-.384-.154-.764-.249l-.709-.176c-.453-.11-.788-.234-1.002-.371-.384-.237-.576-.566-.576-.986,0-.495.181-.896.542-1.201.361-.306.847-.459,1.457-.459.798,0,1.374.231,1.727.693.221.293.328.608.322.947h-.83c-.017-.197-.088-.377-.215-.539-.207-.229-.565-.345-1.075-.345-.34,0-.597.063-.772.189-.175.127-.262.294-.262.501,0,.228.115.409.345.545.133.082.329.153.587.215l.592.142c.644.153,1.075.301,1.293.444.342.225.513.578.513,1.06,0,.466-.179.867-.537,1.206-.357.339-.902.508-1.634.508-.788,0-1.345-.177-1.673-.53-.328-.353-.503-.79-.526-1.311h.845Z"/>
    <path class="cls-7" d="M36.501,145.377c.202-.025.337-.11.405-.253.039-.079.059-.191.059-.339,0-.3-.106-.519-.319-.654s-.517-.203-.914-.203c-.458,0-.783.124-.975.373-.107.138-.177.342-.209.613h-.82c.016-.646.225-1.096.626-1.349.402-.253.868-.38,1.397-.38.614,0,1.114.117,1.497.352.38.234.571.599.571,1.094v3.013c0,.092.019.165.056.22.038.056.116.083.237.083.039,0,.083-.002.132-.008.049-.004.101-.012.156-.021v.649c-.137.039-.241.063-.312.073s-.169.015-.293.015c-.303,0-.522-.107-.659-.322-.072-.114-.122-.275-.151-.483-.179.234-.436.438-.771.61s-.705.259-1.108.259c-.485,0-.881-.147-1.189-.441s-.461-.662-.461-1.104c0-.484.151-.86.454-1.127s.7-.431,1.191-.492l1.401-.176ZM34.65,147.752c.186.146.405.219.659.219.309,0,.609-.071.898-.215.488-.237.732-.625.732-1.165v-.707c-.107.069-.245.126-.414.172s-.335.078-.497.098l-.531.068c-.318.042-.558.109-.718.2-.272.152-.408.396-.408.73,0,.253.093.453.278.6Z"/>
    <path class="cls-7" d="M39.26,143.312h.869v.742c.208-.257.397-.444.566-.562.29-.198.619-.298.986-.298.417,0,.752.103,1.006.308.143.117.273.29.391.518.195-.28.425-.487.688-.623.264-.135.56-.202.889-.202.703,0,1.182.254,1.436.762.137.273.205.642.205,1.104v3.481h-.913v-3.633c0-.349-.087-.588-.261-.718s-.387-.195-.637-.195c-.345,0-.642.115-.891.347s-.374.617-.374,1.157v3.042h-.894v-3.413c0-.354-.042-.613-.127-.776-.133-.244-.382-.366-.747-.366-.332,0-.634.129-.906.386s-.408.723-.408,1.396v2.773h-.879v-5.229Z"/>
    <path class="cls-7" d="M50.82,143.456c.346.175.61.4.791.677.175.264.292.571.35.923.052.241.078.625.078,1.152h-3.804c.016.532.141.959.373,1.28s.593.482,1.081.482c.455,0,.818-.152,1.09-.456.152-.177.259-.381.323-.613h.864c-.023.192-.099.406-.227.643-.128.235-.272.429-.43.578-.265.261-.593.437-.984.527-.21.052-.447.078-.712.078-.647,0-1.195-.236-1.645-.711-.45-.473-.674-1.137-.674-1.989,0-.84.227-1.521.679-2.046.453-.524,1.045-.786,1.776-.786.369,0,.726.087,1.072.261ZM51.135,145.51c-.036-.381-.118-.686-.247-.913-.239-.423-.637-.635-1.196-.635-.4,0-.736.146-1.007.438-.271.291-.415.661-.431,1.11h2.881Z"/>
    <path class="cls-7" d="M55.954,143.312h.835v.903c.068-.176.236-.39.503-.643.267-.252.575-.378.923-.378.016,0,.044.002.083.005s.106.01.2.02v.928c-.052-.01-.1-.017-.144-.02s-.092-.005-.144-.005c-.443,0-.783.143-1.021.427-.238.285-.356.613-.356.984v3.008h-.879v-5.229Z"/>
    <path class="cls-7" d="M62.49,143.456c.346.175.61.4.791.677.175.264.292.571.35.923.052.241.078.625.078,1.152h-3.804c.016.532.141.959.373,1.28s.593.482,1.081.482c.455,0,.818-.152,1.09-.456.152-.177.259-.381.323-.613h.864c-.023.192-.099.406-.227.643-.128.235-.272.429-.43.578-.265.261-.593.437-.984.527-.21.052-.447.078-.712.078-.647,0-1.195-.236-1.645-.711-.45-.473-.674-1.137-.674-1.989,0-.84.227-1.521.679-2.046.453-.524,1.045-.786,1.776-.786.369,0,.726.087,1.072.261ZM62.805,145.51c-.036-.381-.118-.686-.247-.913-.239-.423-.637-.635-1.196-.635-.4,0-.736.146-1.007.438-.271.291-.415.661-.431,1.11h2.881Z"/>
    <path class="cls-7" d="M67.824,145.377c.202-.025.337-.11.405-.253.039-.079.059-.191.059-.339,0-.3-.106-.519-.319-.654s-.517-.203-.914-.203c-.458,0-.783.124-.975.373-.107.138-.177.342-.209.613h-.82c.016-.646.225-1.096.626-1.349.402-.253.868-.38,1.397-.38.614,0,1.114.117,1.497.352.38.234.571.599.571,1.094v3.013c0,.092.019.165.056.22.038.056.116.083.237.083.039,0,.083-.002.132-.008.049-.004.101-.012.156-.021v.649c-.137.039-.241.063-.312.073s-.169.015-.293.015c-.303,0-.522-.107-.659-.322-.072-.114-.122-.275-.151-.483-.179.234-.436.438-.771.61s-.705.259-1.108.259c-.485,0-.881-.147-1.189-.441s-.461-.662-.461-1.104c0-.484.151-.86.454-1.127s.7-.431,1.191-.492l1.401-.176ZM65.974,147.752c.186.146.405.219.659.219.309,0,.609-.071.898-.215.488-.237.732-.625.732-1.165v-.707c-.107.069-.245.126-.414.172s-.335.078-.497.098l-.531.068c-.318.042-.558.109-.718.2-.272.152-.408.396-.408.73,0,.253.093.453.278.6Z"/>
    <path class="cls-7" d="M73.456,143.474c.156.098.333.269.53.513v-2.642h.845v7.197h-.791v-.728c-.204.322-.446.555-.725.698-.279.144-.599.215-.958.215-.581,0-1.083-.245-1.508-.734-.425-.49-.637-1.143-.637-1.956,0-.762.194-1.422.581-1.979.388-.559.941-.838,1.661-.838.399,0,.733.085,1.002.254ZM71.494,147.395c.236.378.616.566,1.137.566.405,0,.737-.175.998-.524.261-.351.391-.853.391-1.507,0-.661-.134-1.149-.403-1.468-.269-.316-.601-.476-.996-.476-.441,0-.798.169-1.071.508-.274.339-.411.837-.411,1.494,0,.56.118,1.028.354,1.406Z"/>
    <path class="cls-7" d="M79.414,143.312h.972c-.124.336-.399,1.101-.825,2.296-.319.899-.586,1.632-.801,2.198-.507,1.334-.865,2.146-1.073,2.439s-.566.439-1.073.439c-.124,0-.219-.005-.285-.015-.067-.01-.149-.027-.247-.054v-.801c.153.042.263.068.332.078.068.01.128.015.18.015.163,0,.282-.027.358-.08.076-.054.141-.12.192-.197.017-.026.075-.16.176-.4.101-.24.174-.419.219-.535l-1.934-5.384h.996l1.401,4.26,1.411-4.26Z"/>
  </g>
  <g>
    <line class="cls-3" x1="87" y1="141" x2="87.371" y2="141"/>
    <polygon class="cls-7" points="86.964 137.963 86.964 144.037 90 141 86.964 137.963"/>
  </g>
</svg>