<?xml version="1.0" encoding="UTF-8"?>
<svg id="Layer_1" data-name="Layer 1" xmlns="http://www.w3.org/2000/svg" viewBox="0 0 545 479">
  <defs>
    <style>
      .cls-1, .cls-2 {
        font-size: 12px;
      }

      .cls-1, .cls-2, .cls-3, .cls-4 {
        font-family: Helvetica, Helvetica;
      }

      .cls-2, .cls-4, .cls-5, .cls-6 {
        fill: #666;
      }

      .cls-3, .cls-4, .cls-5, .cls-7 {
        font-size: 10px;
      }

      .cls-8 {
        stroke-dasharray: 1.014 1.014;
      }

      .cls-8, .cls-9, .cls-10, .cls-11, .cls-12 {
        stroke-miterlimit: 10;
      }

      .cls-8, .cls-10 {
        stroke: #666;
      }

      .cls-8, .cls-10, .cls-11, .cls-12 {
        fill: none;
      }

      .cls-5, .cls-7 {
        font-family: InputMonoNarrow-Regular, 'Input Mono Narrow';
      }

      .cls-9, .cls-13 {
        fill: #fff;
      }

      .cls-9, .cls-11, .cls-12 {
        stroke: #000;
      }

      .cls-11 {
        stroke-dasharray: .999 .999;
      }

      .cls-14 {
        opacity: .25;
      }

      .cls-15 {
        letter-spacing: -.018em;
      }
    </style>
  </defs>
  <rect class="cls-12" x="411.5" y="220" width="71" height="71"/>
  <rect class="cls-12" x="256.5" y="239.5" width="32" height="32"/>
  <rect class="cls-12" x="316.5" y="239.5" width="32" height="32"/>
  <rect class="cls-12" x="256.5" y="298.5" width="32" height="32"/>
  <rect class="cls-12" x="316.5" y="298.5" width="32" height="32"/>
  <rect class="cls-12" x="256.5" y="357.5" width="32" height="32"/>
  <rect class="cls-12" x="316.5" y="357.5" width="32" height="32"/>
  <rect class="cls-12" x="256.5" y="416.5" width="32" height="32"/>
  <rect class="cls-12" x="316.5" y="416.5" width="32" height="32"/>
  <g>
    <line class="cls-10" x1="412.542" y1="255.5" x2="413.042" y2="255.5"/>
    <line class="cls-8" x1="414.056" y1="255.5" x2="480.451" y2="255.5"/>
    <line class="cls-10" x1="480.958" y1="255.5" x2="481.458" y2="255.5"/>
    <polygon class="cls-6" points="414.199 257.545 414.54 257.179 412.734 255.5 414.54 253.822 414.199 253.456 412 255.5 414.199 257.545"/>
    <polygon class="cls-6" points="479.801 257.545 479.46 257.179 481.266 255.5 479.46 253.822 479.801 253.456 482 255.5 479.801 257.545"/>
  </g>
  <text class="cls-5" transform="translate(419.5 202.636)"><tspan x="0" y="0">0</tspan></text>
  <text class="cls-5" transform="translate(441.112 174.357)"><tspan x="0" y="0">rr</tspan></text>
  <text class="cls-5" transform="translate(490.103 258.636)"><tspan x="0" y="0">256</tspan></text>
  <rect class="cls-9" x="96.5" y="239.5" width="32" height="32"/>
  <rect class="cls-9" x="156.5" y="239.5" width="32" height="32"/>
  <rect class="cls-9" x="96.5" y="298.5" width="32" height="32"/>
  <rect class="cls-9" x="156.5" y="298.5" width="32" height="32"/>
  <rect class="cls-9" x="96.5" y="357.5" width="32" height="32"/>
  <rect class="cls-9" x="156.5" y="357.5" width="32" height="32"/>
  <rect class="cls-9" x="96.5" y="416.5" width="32" height="32"/>
  <rect class="cls-9" x="156.5" y="416.5" width="32" height="32"/>
  <g>
    <rect class="cls-13" x="96.5" y="98.5" width="32" height="51"/>
    <path d="M128,99v50h-31v-50h31M129,98h-33v52h33v-52h0Z"/>
  </g>
  <g>
    <rect class="cls-13" x="96.5" y="163.5" width="252" height="34"/>
    <path d="M348,164v33H97v-33h251M349,163H96v35h253v-35h0Z"/>
  </g>
  <polygon class="cls-12" points="203 56.5 220.013 56.5 223.721 56.5 241.827 56.5 233.625 70.5 211.203 70.5 203 56.5"/>
  <polygon class="cls-12" points="409 192 445.093 192 448.813 192 485 192 476.772 206 417.228 206 409 192"/>
  <polygon class="cls-12" points="427.459 164 444.548 164 448.273 164 466.459 164 458.22 178 435.699 178 427.459 164"/>
  <line class="cls-9" x1="96.067" y1="115.5" x2="128.914" y2="115.5"/>
  <line class="cls-9" x1="96.067" y1="132.5" x2="128.914" y2="132.5"/>
  <g>
    <rect class="cls-13" x="156.5" y="98.5" width="32" height="51"/>
    <path d="M188,99v50h-31v-50h31M189,98h-33v52h33v-52h0Z"/>
  </g>
  <line class="cls-9" x1="156.067" y1="115.5" x2="188.914" y2="115.5"/>
  <line class="cls-9" x1="156.067" y1="132.5" x2="188.914" y2="132.5"/>
  <g>
    <rect class="cls-13" x="256.5" y="98.5" width="32" height="51"/>
    <path d="M288,99v50h-31v-50h31M289,98h-33v52h33v-52h0Z"/>
  </g>
  <line class="cls-9" x1="256.067" y1="115.5" x2="288.914" y2="115.5"/>
  <line class="cls-9" x1="256.067" y1="132.5" x2="288.914" y2="132.5"/>
  <g>
    <rect class="cls-13" x="316.5" y="98.5" width="32" height="51"/>
    <path d="M348,99v50h-31v-50h31M349,98h-33v52h33v-52h0Z"/>
  </g>
  <line class="cls-9" x1="316.067" y1="115.5" x2="348.914" y2="115.5"/>
  <line class="cls-9" x1="316.067" y1="132.5" x2="348.914" y2="132.5"/>
  <g>
    <line class="cls-12" x1="222.489" y1="74.588" x2="222.489" y2="84"/>
    <polygon points="219.995 75.318 222.489 71 224.982 75.318 219.995 75.318"/>
  </g>
  <g>
    <line class="cls-12" x1="272.5" y1="153.588" x2="272.5" y2="159.412"/>
    <polygon points="270.007 154.318 272.5 150 274.993 154.318 270.007 154.318"/>
    <polygon points="270.007 158.682 272.5 163 274.993 158.682 270.007 158.682"/>
  </g>
  <g>
    <line class="cls-12" x1="332.5" y1="153.588" x2="332.5" y2="159.412"/>
    <polygon points="330.007 154.318 332.5 150 334.993 154.318 330.007 154.318"/>
    <polygon points="330.007 158.682 332.5 163 334.993 158.682 330.007 158.682"/>
  </g>
  <g>
    <line class="cls-12" x1="437.959" y1="154.088" x2="437.959" y2="159.912"/>
    <polygon points="435.466 154.818 437.959 150.5 440.453 154.818 435.466 154.818"/>
    <polygon points="435.466 159.182 437.959 163.5 440.453 159.182 435.466 159.182"/>
  </g>
  <g>
    <line class="cls-12" x1="455.959" y1="154.088" x2="455.959" y2="159.912"/>
    <polygon points="453.466 154.818 455.959 150.5 458.453 154.818 453.466 154.818"/>
    <polygon points="453.466 159.182 455.959 163.5 458.453 159.182 453.466 159.182"/>
  </g>
  <g>
    <line class="cls-12" x1="446.959" y1="182.088" x2="446.959" y2="187.912"/>
    <polygon points="444.466 182.818 446.959 178.5 449.453 182.818 444.466 182.818"/>
    <polygon points="444.466 187.182 446.959 191.5 449.453 187.182 444.466 187.182"/>
  </g>
  <g>
    <line class="cls-12" x1="447" y1="210.088" x2="447" y2="215.912"/>
    <polygon points="444.507 210.818 447 206.5 449.493 210.818 444.507 210.818"/>
    <polygon points="444.507 215.182 447 219.5 449.493 215.182 444.507 215.182"/>
  </g>
  <g>
    <line class="cls-12" x1="419.961" y1="121.088" x2="419.962" y2="187.912"/>
    <polygon points="417.468 121.818 419.961 117.5 422.455 121.818 417.468 121.818"/>
    <polygon points="417.468 187.182 419.962 191.5 422.455 187.182 417.468 187.182"/>
  </g>
  <g>
    <line class="cls-12" x1="473.5" y1="121.588" x2="473.5" y2="188.412"/>
    <polygon points="471.007 122.318 473.5 118 475.993 122.318 471.007 122.318"/>
    <polygon points="471.007 187.682 473.5 192 475.993 187.682 471.007 187.682"/>
  </g>
  <g>
    <line class="cls-12" x1="172.5" y1="153.588" x2="172.5" y2="159.412"/>
    <polygon points="170.007 154.318 172.5 150 174.993 154.318 170.007 154.318"/>
    <polygon points="170.007 158.682 172.5 163 174.993 158.682 170.007 158.682"/>
  </g>
  <g>
    <line class="cls-12" x1="112.5" y1="153.588" x2="112.5" y2="159.412"/>
    <polygon points="110.007 154.318 112.5 150 114.993 154.318 110.007 154.318"/>
    <polygon points="110.007 158.682 112.5 163 114.993 158.682 110.007 158.682"/>
  </g>
  <g>
    <line class="cls-12" x1="272.5" y1="85" x2="272.5" y2="94.412"/>
    <polygon points="270.007 93.682 272.5 98 274.993 93.682 270.007 93.682"/>
  </g>
  <g>
    <line class="cls-12" x1="332.5" y1="85" x2="332.5" y2="94.412"/>
    <polygon points="330.007 93.682 332.5 98 334.993 93.682 330.007 93.682"/>
  </g>
  <g>
    <line class="cls-12" x1="172.5" y1="85" x2="172.5" y2="94.412"/>
    <polygon points="170.007 93.682 172.5 98 174.993 93.682 170.007 93.682"/>
  </g>
  <g>
    <line class="cls-12" x1="112.5" y1="85" x2="112.5" y2="94.412"/>
    <polygon points="110.007 93.682 112.5 98 114.993 93.682 110.007 93.682"/>
  </g>
  <text class="cls-2" transform="translate(96.456 28.757)"><tspan x="0" y="0">From Core 0</tspan></text>
  <text class="cls-3" transform="translate(65.456 225.757)"><tspan x="0" y="0">B0</tspan></text>
  <text class="cls-3" transform="translate(65.456 284.757)"><tspan x="0" y="0">B1</tspan></text>
  <text class="cls-3" transform="translate(65.456 343.757)"><tspan x="0" y="0">B2</tspan></text>
  <text class="cls-3" transform="translate(65.456 402.757)"><tspan x="0" y="0">B3</tspan></text>
  <text class="cls-2" transform="translate(43.395 353.165) rotate(-90)"><tspan x="0" y="0">From Gemmini</tspan></text>
  <text class="cls-2" transform="translate(281.108 28.757)"><tspan x="0" y="0">From Core 1</tspan></text>
  <text class="cls-3" transform="translate(321.835 435.587)"><tspan x="0" y="0">3, 15</tspan></text>
  <text class="cls-3" transform="translate(104.616 258.587)"><tspan x="0" y="0">0, 0</tspan></text>
  <g>
    <polyline class="cls-12" points="130.011 34 130.011 44.999 215 44.999 215 52.412"/>
    <polygon points="212.507 51.682 215 56 217.493 51.682 212.507 51.682"/>
  </g>
  <g>
    <polyline class="cls-12" points="314.989 34 314.989 44.999 230 44.999 230 52.412"/>
    <polygon points="227.507 51.682 230 56 232.493 51.682 227.507 51.682"/>
  </g>
  <line class="cls-12" x1="169.488" y1="48.129" x2="175.536" y2="42.081"/>
  <line class="cls-12" x1="271.488" y1="48.129" x2="277.536" y2="42.081"/>
  <text class="cls-4" transform="translate(154.008 58.98)"><tspan x="0" y="0">16x32b</tspan></text>
  <line class="cls-12" x1="104" y1="171" x2="341" y2="190"/>
  <line class="cls-12" x1="104.613" y1="190.041" x2="341.613" y2="171.041"/>
  <text class="cls-1" transform="translate(217.912 130.247)"><tspan x="0" y="0">...</tspan></text>
  <text class="cls-1" transform="translate(217.912 255.247)"><tspan x="0" y="0">...</tspan></text>
  <text class="cls-1" transform="translate(217.912 314.247)"><tspan x="0" y="0">...</tspan></text>
  <text class="cls-1" transform="translate(217.912 432.247)"><tspan x="0" y="0">...</tspan></text>
  <text class="cls-1" transform="translate(217.912 373.247)"><tspan x="0" y="0">...</tspan></text>
  <g>
    <polyline class="cls-12" points="143 407.5 136.317 407.5 118 407.5 118 412.412"/>
    <polygon points="115.507 411.682 118 416 120.493 411.682 115.507 411.682"/>
  </g>
  <line class="cls-12" x1="80.5" y1="398.5" x2="326" y2="398.5"/>
  <line class="cls-12" x1="80.5" y1="339.5" x2="326" y2="339.5"/>
  <line class="cls-12" x1="80.5" y1="280.5" x2="326" y2="280.5"/>
  <line class="cls-12" x1="80.5" y1="221.5" x2="326" y2="221.5"/>
  <g>
    <line class="cls-12" x1="106.5" y1="398" x2="106.5" y2="412.412"/>
    <polygon points="104.007 411.682 106.5 416 108.993 411.682 104.007 411.682"/>
  </g>
  <g>
    <polyline class="cls-12" points="143 348.5 136.317 348.5 118 348.5 118 353.412"/>
    <polygon points="115.507 352.682 118 357 120.493 352.682 115.507 352.682"/>
  </g>
  <g>
    <line class="cls-12" x1="106.5" y1="339" x2="106.5" y2="353.412"/>
    <polygon points="104.007 352.682 106.5 357 108.993 352.682 104.007 352.682"/>
  </g>
  <g>
    <polyline class="cls-12" points="143 289.5 136.317 289.5 118 289.5 118 294.412"/>
    <polygon points="115.507 293.682 118 298 120.493 293.682 115.507 293.682"/>
  </g>
  <g>
    <line class="cls-12" x1="106.5" y1="280" x2="106.5" y2="294.412"/>
    <polygon points="104.007 293.682 106.5 298 108.993 293.682 104.007 293.682"/>
  </g>
  <g>
    <polyline class="cls-12" points="143 230.5 136.317 230.5 118 230.5 118 235.412"/>
    <polygon points="115.507 234.682 118 239 120.493 234.682 115.507 234.682"/>
  </g>
  <g>
    <line class="cls-12" x1="106.5" y1="221" x2="106.5" y2="235.412"/>
    <polygon points="104.007 234.682 106.5 239 108.993 234.682 104.007 234.682"/>
  </g>
  <g>
    <polyline class="cls-12" points="203 407.5 196.317 407.5 178 407.5 178 412.412"/>
    <polygon points="175.507 411.682 178 416 180.493 411.682 175.507 411.682"/>
  </g>
  <g>
    <polyline class="cls-12" points="203 348.5 196.317 348.5 178 348.5 178 353.412"/>
    <polygon points="175.507 352.682 178 357 180.493 352.682 175.507 352.682"/>
  </g>
  <g>
    <polyline class="cls-12" points="203 289.5 196.317 289.5 178 289.5 178 294.412"/>
    <polygon points="175.507 293.682 178 298 180.493 293.682 175.507 293.682"/>
  </g>
  <g>
    <polyline class="cls-12" points="203 230.5 196.317 230.5 178 230.5 178 235.412"/>
    <polygon points="175.507 234.682 178 239 180.493 234.682 175.507 234.682"/>
  </g>
  <g>
    <polyline class="cls-12" points="303 407.5 296.317 407.5 278 407.5 278 412.412"/>
    <polygon points="275.507 411.682 278 416 280.493 411.682 275.507 411.682"/>
  </g>
  <g>
    <polyline class="cls-12" points="303 348.5 296.317 348.5 278 348.5 278 353.412"/>
    <polygon points="275.507 352.682 278 357 280.493 352.682 275.507 352.682"/>
  </g>
  <g>
    <polyline class="cls-12" points="303 289.5 296.317 289.5 278 289.5 278 294.412"/>
    <polygon points="275.507 293.682 278 298 280.493 293.682 275.507 293.682"/>
  </g>
  <g>
    <polyline class="cls-12" points="303 230.5 296.317 230.5 278 230.5 278 235.412"/>
    <polygon points="275.507 234.682 278 239 280.493 234.682 275.507 234.682"/>
  </g>
  <g>
    <polyline class="cls-12" points="363 407.5 356.317 407.5 338 407.5 338 412.412"/>
    <polygon points="335.507 411.682 338 416 340.493 411.682 335.507 411.682"/>
  </g>
  <g>
    <polyline class="cls-12" points="363 348.5 356.317 348.5 338 348.5 338 353.412"/>
    <polygon points="335.507 352.682 338 357 340.493 352.682 335.507 352.682"/>
  </g>
  <g>
    <polyline class="cls-12" points="363 289.5 356.317 289.5 338 289.5 338 294.412"/>
    <polygon points="335.507 293.682 338 298 340.493 293.682 335.507 293.682"/>
  </g>
  <g>
    <polyline class="cls-12" points="363 230.5 356.317 230.5 338 230.5 338 235.412"/>
    <polygon points="335.507 234.682 338 239 340.493 234.682 335.507 234.682"/>
  </g>
  <g>
    <line class="cls-12" x1="166.5" y1="221" x2="166.5" y2="235.412"/>
    <polygon points="164.007 234.682 166.5 239 168.993 234.682 164.007 234.682"/>
  </g>
  <g>
    <line class="cls-12" x1="266.5" y1="221" x2="266.5" y2="235.412"/>
    <polygon points="264.007 234.682 266.5 239 268.993 234.682 264.007 234.682"/>
  </g>
  <g>
    <line class="cls-12" x1="326.5" y1="221" x2="326.5" y2="235.412"/>
    <polygon points="324.007 234.682 326.5 239 328.993 234.682 324.007 234.682"/>
  </g>
  <g>
    <line class="cls-12" x1="166.5" y1="280" x2="166.5" y2="294.412"/>
    <polygon points="164.007 293.682 166.5 298 168.993 293.682 164.007 293.682"/>
  </g>
  <g>
    <line class="cls-12" x1="266.5" y1="280" x2="266.5" y2="294.412"/>
    <polygon points="264.007 293.682 266.5 298 268.993 293.682 264.007 293.682"/>
  </g>
  <g>
    <line class="cls-12" x1="326.5" y1="280" x2="326.5" y2="294.412"/>
    <polygon points="324.007 293.682 326.5 298 328.993 293.682 324.007 293.682"/>
  </g>
  <g>
    <line class="cls-12" x1="166.5" y1="339" x2="166.5" y2="353.412"/>
    <polygon points="164.007 352.682 166.5 357 168.993 352.682 164.007 352.682"/>
  </g>
  <g>
    <line class="cls-12" x1="266.5" y1="339" x2="266.5" y2="353.412"/>
    <polygon points="264.007 352.682 266.5 357 268.993 352.682 264.007 352.682"/>
  </g>
  <g>
    <line class="cls-12" x1="326.5" y1="339" x2="326.5" y2="353.412"/>
    <polygon points="324.007 352.682 326.5 357 328.993 352.682 324.007 352.682"/>
  </g>
  <g>
    <line class="cls-12" x1="166.5" y1="398" x2="166.5" y2="412.412"/>
    <polygon points="164.007 411.682 166.5 416 168.993 411.682 164.007 411.682"/>
  </g>
  <g>
    <line class="cls-12" x1="266.5" y1="398" x2="266.5" y2="412.412"/>
    <polygon points="264.007 411.682 266.5 416 268.993 411.682 264.007 411.682"/>
  </g>
  <g>
    <line class="cls-12" x1="326.5" y1="398" x2="326.5" y2="412.412"/>
    <polygon points="324.007 411.682 326.5 416 328.993 411.682 324.007 411.682"/>
  </g>
  <g>
    <polyline class="cls-12" points="112.5 201.192 112.5 212.5 142.5 212.5 142.5 407.5"/>
    <polygon points="110.007 201.921 112.5 197.604 114.993 201.921 110.007 201.921"/>
  </g>
  <g>
    <polyline class="cls-12" points="172.5 201.192 172.5 212.5 202.5 212.5 202.5 407.5"/>
    <polygon points="170.007 201.921 172.5 197.604 174.993 201.921 170.007 201.921"/>
  </g>
  <g>
    <polyline class="cls-12" points="272.5 201.192 272.5 212.5 302.5 212.5 302.5 407.5"/>
    <polygon points="270.007 201.921 272.5 197.604 274.993 201.921 270.007 201.921"/>
  </g>
  <g>
    <polyline class="cls-12" points="332.5 201.192 332.5 212.5 362.5 212.5 362.5 407.5"/>
    <polygon points="330.007 201.921 332.5 197.604 334.993 201.921 330.007 201.921"/>
  </g>
  <g>
    <line class="cls-10" x1="487.5" y1="289.958" x2="487.5" y2="289.458"/>
    <line class="cls-8" x1="487.5" y1="288.444" x2="487.5" y2="222.049"/>
    <line class="cls-10" x1="487.5" y1="221.542" x2="487.5" y2="221.042"/>
    <polygon class="cls-6" points="489.545 288.301 489.179 287.96 487.5 289.766 485.822 287.96 485.456 288.301 487.5 290.5 489.545 288.301"/>
    <polygon class="cls-6" points="489.545 222.699 489.179 223.04 487.501 221.234 485.822 223.04 485.456 222.699 487.501 220.5 489.545 222.699"/>
  </g>
  <g class="cls-14">
    <g>
      <line class="cls-12" x1="348.5" y1="239.5" x2="348.978" y2="239.352"/>
      <line class="cls-11" x1="349.932" y1="239.057" x2="410.545" y2="220.296"/>
      <line class="cls-12" x1="411.022" y1="220.148" x2="411.5" y2="220"/>
    </g>
  </g>
  <g class="cls-14">
    <g>
      <line class="cls-12" x1="348.5" y1="271.5" x2="348.978" y2="271.648"/>
      <line class="cls-11" x1="349.932" y1="271.943" x2="410.545" y2="290.704"/>
      <line class="cls-12" x1="411.022" y1="290.852" x2="411.5" y2="291"/>
    </g>
  </g>
  <line class="cls-12" x1="481" y1="199.5" x2="486" y2="199.5"/>
  <g>
    <rect class="cls-13" x="441" y="253" width="12" height="5"/>
    <text class="cls-5" transform="translate(440.833 258.721)"><tspan x="0" y="0">4B</tspan></text>
  </g>
  <text class="cls-3" transform="translate(438.748 233.09)"><tspan class="cls-15" x="0" y="0">R</tspan><tspan x="7.046" y="0">W</tspan></text>
  <line class="cls-12" x1="112" y1="84.5" x2="333" y2="84.5"/>
  <g>
    <path d="M433.772,136.309c-.449,0-.83-.127-1.146-.382-.315-.254-.473-.646-.473-1.173,0-.473.146-.847.437-1.122.291-.276.648-.414,1.073-.414h1.646v-.818c0-.278-.088-.503-.264-.672-.176-.17-.439-.255-.791-.255-.364,0-.633.062-.809.187s-.315.386-.418.786l-.763-.218c.097-.516.31-.903.641-1.164.33-.261.777-.391,1.341-.391.558,0,1.021.132,1.391.396.37.265.555.67.555,1.216v2.532c0,.31.082.508.245.593s.409.097.736.036v.8c-.382.061-.717.032-1.004-.086-.288-.118-.447-.393-.477-.823h-.173c-.152.279-.383.511-.695.695-.312.186-.663.277-1.05.277ZM433.9,135.555c.297,0,.563-.059.8-.174.236-.116.439-.311.609-.585v-.905h-1.427c-.261,0-.47.062-.627.183-.158.122-.236.332-.236.631,0,.269.068.478.205.626.136.149.362.225.677.225Z"/>
    <path d="M440.636,136.309c-.74,0-1.294-.171-1.664-.514-.37-.342-.555-.838-.555-1.486v-1.6c0-.667.185-1.173.555-1.519.369-.345.921-.518,1.654-.518.648,0,1.147.154,1.495.463.349.31.544.776.587,1.4l-.864.046c-.024-.4-.135-.687-.332-.859-.197-.173-.495-.259-.896-.259-.442,0-.774.1-.995.3-.222.2-.332.512-.332.937v1.618c0,.412.11.715.332.909.221.193.556.29,1.004.29.4,0,.698-.07.896-.213.197-.143.305-.384.323-.723l.864.045c-.037.563-.228.985-.573,1.264-.345.279-.845.418-1.5.418Z"/>
    <path d="M446.654,136.309c-.74,0-1.295-.171-1.664-.514-.37-.342-.555-.838-.555-1.486v-1.6c0-.667.185-1.173.555-1.519.369-.345.921-.518,1.654-.518.648,0,1.147.154,1.496.463.348.31.544.776.586,1.4l-.863.046c-.024-.4-.135-.687-.332-.859s-.495-.259-.896-.259c-.442,0-.774.1-.995.3-.222.2-.332.512-.332.937v1.618c0,.412.11.715.332.909.221.193.556.29,1.004.29.4,0,.698-.07.896-.213s.305-.384.323-.723l.863.045c-.036.563-.228.985-.572,1.264-.346.279-.846.418-1.5.418Z"/>
    <path d="M454.681,135.027c-.151.448-.383.774-.695.977-.312.203-.786.305-1.423.305-.66,0-1.177-.169-1.55-.509-.373-.339-.559-.839-.559-1.5v-1.591c0-.679.195-1.188.586-1.527.391-.339.898-.509,1.522-.509.631,0,1.137.173,1.519.518.382.346.572.876.572,1.591v.882h-3.327v.637c0,.448.102.77.305.964.203.193.514.291.932.291.395,0,.681-.062.859-.187s.316-.323.414-.596l.845.255ZM451.326,132.718v.273h2.455v-.191c0-.479-.104-.827-.31-1.046-.206-.218-.512-.327-.918-.327s-.712.106-.918.318-.31.536-.31.973Z"/>
    <path d="M456.48,136.218v-.791h1.664v-5.69h-1.664v-.791h2.546v6.481h1.654v.791h-4.2Z"/>
    <path d="M435.809,146.218v-5.454h.882v.872h.246c.115-.333.294-.577.536-.731s.533-.231.873-.231c.382,0,.697.132.946.396s.373.638.373,1.122v.837h-.836v-.519c0-.346-.068-.599-.205-.759-.136-.161-.35-.241-.641-.241-.261,0-.499.07-.714.209-.215.14-.408.352-.577.637v3.863h-.882Z"/>
    <path d="M445.654,145.027c-.151.448-.384.774-.695.977-.312.203-.786.305-1.423.305-.661,0-1.178-.169-1.55-.509-.373-.339-.559-.839-.559-1.5v-1.591c0-.679.195-1.188.586-1.527.391-.339.898-.509,1.522-.509.63,0,1.137.173,1.518.518.382.346.573.876.573,1.591v.882h-3.327v.637c0,.448.102.77.305.964.203.193.514.291.932.291.394,0,.68-.062.859-.187.179-.124.316-.323.413-.596l.846.255ZM442.3,142.718v.273h2.454v-.191c0-.479-.103-.827-.309-1.046-.206-.218-.513-.327-.918-.327s-.713.106-.919.318-.309.536-.309.973Z"/>
    <path d="M450.772,148.036v-2.663h-.255c-.146.303-.346.534-.6.695-.255.16-.543.24-.864.24-.515,0-.912-.176-1.19-.527-.279-.351-.418-.851-.418-1.5v-1.591c0-.648.203-1.146.608-1.495.406-.349.925-.522,1.555-.522.37,0,.73.047,1.082.141s.67.226.954.396v6.827h-.872ZM449.3,145.473c.272,0,.53-.076.772-.228s.476-.382.7-.69v-2.791c-.176-.109-.359-.189-.55-.241-.191-.052-.393-.077-.604-.077-.382,0-.694.104-.937.313-.243.209-.364.526-.364.95v1.5c0,.424.082.741.246.95.163.209.409.313.736.313Z"/>
    <path d="M455.645,146.309c-.43,0-.847-.063-1.25-.19-.402-.127-.765-.32-1.086-.58l.373-.698c.272.211.58.377.922.497.343.121.689.181,1.041.181.315,0,.594-.051.837-.153.242-.103.363-.301.363-.597,0-.271-.106-.462-.318-.574-.212-.111-.6-.212-1.163-.303-.643-.104-1.118-.274-1.428-.515-.309-.24-.464-.601-.464-1.081,0-.528.187-.931.56-1.208.373-.276.822-.414,1.35-.414.395,0,.777.069,1.15.209s.711.33,1.014.572l-.373.7c-.254-.2-.533-.365-.836-.495-.304-.131-.618-.195-.945-.195-.291,0-.538.058-.741.172-.203.115-.305.312-.305.592,0,.26.104.448.31.563s.594.218,1.163.309c.648.104,1.128.282,1.437.536.31.255.464.606.464,1.055,0,.546-.205.952-.614,1.219-.408.267-.895.399-1.459.399Z"/>
  </g>
  <text class="cls-7" transform="translate(490.022 201.718)"><tspan x="0" y="0">lowest</tspan></text>
  <g>
    <path d="M409.882,98.272v3.945h-.8v-5.454h.8v.7h.173c.097-.249.23-.442.4-.582.169-.14.352-.209.545-.209.218,0,.4.068.545.204.146.137.249.332.309.587h.182c.103-.249.244-.442.423-.582s.374-.209.586-.209c.279,0,.497.118.655.354.157.236.236.563.236.981v4.209h-.8v-4.082c0-.254-.032-.448-.095-.581-.064-.134-.159-.2-.287-.2-.115,0-.247.08-.396.241-.148.16-.298.386-.45.677v3.945h-.8v-4.082c0-.26-.033-.455-.1-.586-.067-.13-.164-.195-.291-.195-.115,0-.244.079-.386.236-.143.157-.292.385-.45.682Z"/>
    <path d="M417.027,102.309c-.485,0-.873-.166-1.164-.5-.291-.333-.436-.772-.436-1.317v-3.728h.873v3.563c0,.382.079.668.236.859.158.19.4.286.728.286.26,0,.515-.074.764-.223.248-.148.491-.374.727-.678v-3.809h.873v5.454h-.873v-.845h-.254c-.109.278-.299.504-.568.677s-.571.259-.904.259Z"/>
    <path d="M423.545,102.309c-.673,0-1.191-.173-1.555-.518-.364-.346-.545-.84-.545-1.482v-1.6c0-.648.182-1.15.545-1.505s.885-.531,1.563-.531c.667,0,1.182.177,1.545.531.364.354.545.856.545,1.505v1.591c0,.648-.182,1.146-.545,1.491-.363.345-.882.518-1.554.518ZM423.545,101.518c.412,0,.719-.097.922-.29.203-.194.305-.5.305-.919v-1.6c0-.424-.102-.738-.305-.941-.203-.202-.51-.304-.922-.304s-.72.102-.923.304c-.203.203-.305.518-.305.941v1.6c0,.419.102.725.305.919.203.193.51.29.923.29Z"/>
    <path d="M427.463,102.218v-5.454h.873v.846h.254c.133-.291.332-.521.596-.687.264-.167.559-.25.886-.25.491,0,.879.162,1.164.486.285.324.427.768.427,1.332v3.727h-.873v-3.555c0-.382-.083-.669-.25-.863s-.404-.291-.713-.291c-.255,0-.509.077-.764.232-.255.154-.497.38-.728.677v3.8h-.873Z"/>
    <path d="M409.809,112.218v-5.454h.882v.872h.246c.115-.333.294-.577.536-.731s.533-.231.873-.231c.382,0,.697.132.946.396s.373.638.373,1.122v.837h-.836v-.519c0-.346-.068-.599-.205-.759-.136-.161-.35-.241-.641-.241-.261,0-.499.07-.714.209-.215.14-.408.352-.577.637v3.863h-.882Z"/>
    <path d="M419.654,111.027c-.151.448-.383.774-.695.977-.312.203-.786.305-1.423.305-.661,0-1.177-.169-1.55-.509-.373-.339-.559-.839-.559-1.5v-1.591c0-.679.195-1.188.586-1.527.391-.339.898-.509,1.522-.509.63,0,1.137.173,1.518.518.382.346.573.876.573,1.591v.882h-3.327v.637c0,.448.102.77.305.964.203.193.514.291.932.291.394,0,.68-.062.859-.187.179-.124.316-.323.414-.596l.845.255ZM416.3,108.718v.273h2.455v-.191c0-.479-.103-.827-.309-1.046-.206-.218-.512-.327-.918-.327s-.712.106-.918.318-.309.536-.309.973Z"/>
    <path d="M424.772,114.036v-2.663h-.254c-.146.303-.346.534-.6.695-.254.16-.542.24-.864.24-.515,0-.912-.176-1.191-.527-.279-.351-.418-.851-.418-1.5v-1.591c0-.648.203-1.146.609-1.495.406-.349.924-.522,1.555-.522.37,0,.73.047,1.082.141.351.094.669.226.954.396v6.827h-.873ZM423.3,111.473c.272,0,.53-.076.772-.228.243-.151.476-.382.7-.69v-2.791c-.176-.109-.359-.189-.55-.241s-.393-.077-.604-.077c-.382,0-.694.104-.937.313-.243.209-.364.526-.364.95v1.5c0,.424.082.741.246.95s.409.313.736.313Z"/>
    <path d="M429.645,112.309c-.43,0-.847-.063-1.25-.19s-.765-.32-1.086-.58l.373-.698c.272.211.58.377.922.497.342.121.689.181,1.041.181.315,0,.594-.051.836-.153.242-.103.364-.301.364-.597,0-.271-.106-.462-.318-.574-.212-.111-.6-.212-1.164-.303-.643-.104-1.118-.274-1.427-.515s-.464-.601-.464-1.081c0-.528.187-.931.559-1.208.373-.276.823-.414,1.35-.414.394,0,.777.069,1.15.209.373.14.711.33,1.014.572l-.373.7c-.254-.2-.533-.365-.836-.495-.303-.131-.618-.195-.945-.195-.291,0-.538.058-.741.172-.203.115-.304.312-.304.592,0,.26.103.448.309.563s.594.218,1.164.309c.648.104,1.127.282,1.437.536.309.255.463.606.463,1.055,0,.546-.205.952-.614,1.219-.409.267-.895.399-1.459.399Z"/>
  </g>
  <g>
    <path d="M461.618,102.309c-.74,0-1.295-.171-1.664-.514-.37-.342-.555-.838-.555-1.486v-1.6c0-.667.185-1.173.555-1.519.369-.345.921-.518,1.654-.518.648,0,1.147.154,1.496.463.348.31.544.776.586,1.4l-.863.046c-.024-.4-.135-.687-.332-.859s-.495-.259-.896-.259c-.442,0-.774.1-.995.3-.222.2-.332.512-.332.937v1.618c0,.412.11.715.332.909.221.193.556.29,1.004.29.4,0,.698-.07.896-.213s.305-.384.323-.723l.863.045c-.036.563-.228.985-.572,1.264-.346.279-.846.418-1.5.418Z"/>
    <path d="M465.427,102.218v-.791h1.664v-5.69h-1.664v-.791h2.546v6.481h1.654v.791h-4.2Z"/>
    <path d="M473.472,102.309c-.357,0-.713-.053-1.067-.159-.354-.105-.678-.256-.969-.449v-6.755h.873v2.664h.254c.134-.297.329-.527.587-.691s.55-.245.877-.245c.51,0,.905.176,1.187.527.282.352.423.852.423,1.5v1.591c0,.643-.189,1.14-.568,1.49-.379.352-.91.527-1.596.527ZM473.472,101.536c.437,0,.761-.102.973-.305.213-.203.318-.522.318-.959v-1.582c0-.405-.08-.704-.24-.896-.161-.19-.408-.286-.741-.286-.279,0-.538.076-.777.228s-.472.382-.695.69v2.791c.176.109.357.189.545.241.188.052.395.077.618.077Z"/>
    <path d="M479.054,102.309c-.485,0-.873-.166-1.164-.5-.29-.333-.436-.772-.436-1.317v-3.728h.872v3.563c0,.382.079.668.236.859.158.19.4.286.728.286.261,0,.516-.074.764-.223s.491-.374.728-.678v-3.809h.872v5.454h-.872v-.845h-.255c-.109.278-.299.504-.568.677s-.571.259-.904.259Z"/>
    <path d="M485.653,102.309c-.43,0-.847-.063-1.25-.19-.402-.127-.765-.32-1.086-.58l.373-.698c.272.211.58.377.922.497.343.121.689.181,1.041.181.315,0,.594-.051.837-.153.242-.103.363-.301.363-.597,0-.271-.106-.462-.318-.574-.212-.111-.6-.212-1.163-.303-.643-.104-1.118-.274-1.428-.515-.309-.24-.464-.601-.464-1.081,0-.528.187-.931.56-1.208.373-.276.822-.414,1.35-.414.395,0,.777.069,1.15.209s.711.33,1.014.572l-.373.7c-.254-.2-.533-.365-.836-.495-.304-.131-.618-.195-.945-.195-.291,0-.538.058-.741.172-.203.115-.305.312-.305.592,0,.26.104.448.31.563s.594.218,1.163.309c.648.104,1.128.282,1.437.536.31.255.464.606.464,1.055,0,.546-.205.952-.614,1.219-.408.267-.895.399-1.459.399Z"/>
    <path d="M462.809,112.218v-5.454h.882v.872h.246c.114-.333.294-.577.536-.731s.533-.231.872-.231c.382,0,.697.132.946.396.248.264.372.638.372,1.122v.837h-.836v-.519c0-.346-.068-.599-.205-.759-.136-.161-.35-.241-.641-.241-.261,0-.498.07-.714.209-.215.14-.407.352-.577.637v3.863h-.882Z"/>
    <path d="M472.654,111.027c-.151.448-.384.774-.695.977-.312.203-.786.305-1.423.305-.661,0-1.178-.169-1.55-.509-.373-.339-.56-.839-.56-1.5v-1.591c0-.679.195-1.188.587-1.527.391-.339.898-.509,1.522-.509.63,0,1.137.173,1.518.518.382.346.573.876.573,1.591v.882h-3.327v.637c0,.448.102.77.305.964.203.193.514.291.932.291.394,0,.68-.062.859-.187.179-.124.316-.323.413-.596l.846.255ZM469.3,108.718v.273h2.454v-.191c0-.479-.103-.827-.309-1.046-.206-.218-.513-.327-.918-.327s-.713.106-.919.318-.309.536-.309.973Z"/>
    <path d="M477.772,114.036v-2.663h-.255c-.146.303-.346.534-.6.695-.255.16-.543.24-.864.24-.515,0-.912-.176-1.19-.527-.279-.351-.418-.851-.418-1.5v-1.591c0-.648.203-1.146.608-1.495.406-.349.925-.522,1.555-.522.37,0,.73.047,1.082.141s.67.226.954.396v6.827h-.872ZM476.3,111.473c.272,0,.53-.076.772-.228s.476-.382.7-.69v-2.791c-.176-.109-.359-.189-.55-.241-.191-.052-.393-.077-.604-.077-.382,0-.694.104-.937.313-.243.209-.364.526-.364.95v1.5c0,.424.082.741.246.95.163.209.409.313.736.313Z"/>
    <path d="M482.645,112.309c-.43,0-.847-.063-1.25-.19-.402-.127-.765-.32-1.086-.58l.373-.698c.272.211.58.377.922.497.343.121.689.181,1.041.181.315,0,.594-.051.837-.153.242-.103.363-.301.363-.597,0-.271-.106-.462-.318-.574-.212-.111-.6-.212-1.163-.303-.643-.104-1.118-.274-1.428-.515-.309-.24-.464-.601-.464-1.081,0-.528.187-.931.56-1.208.373-.276.822-.414,1.35-.414.395,0,.777.069,1.15.209s.711.33,1.014.572l-.373.7c-.254-.2-.533-.365-.836-.495-.304-.131-.618-.195-.945-.195-.291,0-.538.058-.741.172-.203.115-.305.312-.305.592,0,.26.104.448.31.563s.594.218,1.163.309c.648.104,1.128.282,1.437.536.31.255.464.606.464,1.055,0,.546-.205.952-.614,1.219-.408.267-.895.399-1.459.399Z"/>
  </g>
  <g>
    <path class="cls-6" d="M56.716,135.377c.202-.025.337-.11.405-.253.039-.079.059-.191.059-.339,0-.3-.106-.519-.319-.654s-.517-.203-.914-.203c-.458,0-.783.124-.975.373-.107.138-.177.342-.209.613h-.82c.016-.646.225-1.096.626-1.349.402-.253.868-.38,1.397-.38.614,0,1.114.117,1.497.352.38.234.571.599.571,1.094v3.013c0,.092.019.165.056.22.038.056.116.083.237.083.039,0,.083-.002.132-.008.049-.004.101-.012.156-.021v.649c-.137.039-.241.063-.312.073s-.169.015-.293.015c-.303,0-.522-.107-.659-.322-.072-.114-.122-.275-.151-.483-.179.234-.436.438-.771.61s-.705.259-1.108.259c-.485,0-.881-.147-1.189-.441s-.461-.662-.461-1.104c0-.484.151-.86.454-1.127s.7-.431,1.191-.492l1.401-.176ZM54.865,137.752c.186.146.405.219.659.219.309,0,.609-.071.898-.215.488-.237.732-.625.732-1.165v-.707c-.107.069-.245.126-.414.172s-.335.078-.497.098l-.531.068c-.318.042-.558.109-.718.2-.272.152-.408.396-.408.73,0,.253.093.453.278.6Z"/>
    <path class="cls-6" d="M59.997,136.901c.026.293.101.518.224.674.226.283.618.425,1.176.425.332,0,.625-.071.877-.212.252-.143.379-.361.379-.657,0-.225-.101-.396-.303-.513-.129-.071-.384-.154-.764-.249l-.709-.176c-.453-.11-.788-.234-1.002-.371-.384-.237-.576-.566-.576-.986,0-.495.181-.896.542-1.201.361-.306.847-.459,1.457-.459.798,0,1.374.231,1.727.693.221.293.328.608.322.947h-.83c-.017-.197-.088-.377-.215-.539-.207-.229-.565-.345-1.075-.345-.34,0-.597.063-.772.189-.175.127-.262.294-.262.501,0,.228.115.409.345.545.133.082.329.153.587.215l.592.142c.644.153,1.075.301,1.293.444.342.225.513.578.513,1.06,0,.466-.179.867-.537,1.206-.357.339-.902.508-1.634.508-.788,0-1.345-.177-1.673-.53-.328-.353-.503-.79-.526-1.311h.845Z"/>
    <path class="cls-6" d="M64.997,136.901c.026.293.101.518.224.674.226.283.618.425,1.176.425.332,0,.625-.071.877-.212.252-.143.379-.361.379-.657,0-.225-.101-.396-.303-.513-.129-.071-.384-.154-.764-.249l-.709-.176c-.453-.11-.788-.234-1.002-.371-.384-.237-.576-.566-.576-.986,0-.495.181-.896.542-1.201.361-.306.847-.459,1.457-.459.798,0,1.374.231,1.727.693.221.293.328.608.322.947h-.83c-.017-.197-.088-.377-.215-.539-.207-.229-.565-.345-1.075-.345-.34,0-.597.063-.772.189-.175.127-.262.294-.262.501,0,.228.115.409.345.545.133.082.329.153.587.215l.592.142c.644.153,1.075.301,1.293.444.342.225.513.578.513,1.06,0,.466-.179.867-.537,1.206-.357.339-.902.508-1.634.508-.788,0-1.345-.177-1.673-.53-.328-.353-.503-.79-.526-1.311h.845Z"/>
    <path class="cls-6" d="M72.705,133.456c.346.175.61.4.791.677.175.264.292.571.35.923.052.241.078.625.078,1.152h-3.804c.016.532.141.959.373,1.28s.593.482,1.081.482c.455,0,.818-.152,1.09-.456.152-.177.259-.381.323-.613h.864c-.023.192-.099.406-.227.643-.128.235-.272.429-.43.578-.265.261-.593.437-.984.527-.21.052-.447.078-.712.078-.647,0-1.195-.236-1.645-.711-.45-.473-.674-1.137-.674-1.989,0-.84.227-1.521.679-2.046.453-.524,1.045-.786,1.776-.786.369,0,.726.087,1.072.261ZM73.02,135.51c-.036-.381-.118-.686-.247-.913-.239-.423-.637-.635-1.196-.635-.4,0-.736.146-1.007.438-.271.291-.415.661-.431,1.11h2.881Z"/>
    <path class="cls-6" d="M75.061,133.312h.835v.903c.068-.176.236-.39.503-.643.267-.252.575-.378.923-.378.016,0,.044.002.083.005s.106.01.2.02v.928c-.052-.01-.1-.017-.144-.02s-.092-.005-.144-.005c-.443,0-.783.143-1.021.427-.238.285-.356.613-.356.984v3.008h-.879v-5.229Z"/>
    <path class="cls-6" d="M78.542,131.853h.889v1.46h.835v.718h-.835v3.413c0,.183.062.305.186.366.068.036.182.054.342.054.042,0,.088,0,.137-.003s.106-.008.171-.017v.698c-.101.029-.206.051-.315.063s-.227.02-.354.02c-.41,0-.688-.104-.835-.315-.146-.209-.22-.482-.22-.817v-3.462h-.708v-.718h.708v-1.46Z"/>
    <path class="cls-6" d="M29.221,146.901c.026.293.101.518.224.674.226.283.618.425,1.176.425.332,0,.625-.071.877-.212.252-.143.379-.361.379-.657,0-.225-.101-.396-.303-.513-.129-.071-.384-.154-.764-.249l-.709-.176c-.453-.11-.788-.234-1.002-.371-.384-.237-.576-.566-.576-.986,0-.495.181-.896.542-1.201.361-.306.847-.459,1.457-.459.798,0,1.374.231,1.727.693.221.293.328.608.322.947h-.83c-.017-.197-.088-.377-.215-.539-.207-.229-.565-.345-1.075-.345-.34,0-.597.063-.772.189-.175.127-.262.294-.262.501,0,.228.115.409.345.545.133.082.329.153.587.215l.592.142c.644.153,1.075.301,1.293.444.342.225.513.578.513,1.06,0,.466-.179.867-.537,1.206-.357.339-.902.508-1.634.508-.788,0-1.345-.177-1.673-.53-.328-.353-.503-.79-.526-1.311h.845Z"/>
    <path class="cls-6" d="M36.501,145.377c.202-.025.337-.11.405-.253.039-.079.059-.191.059-.339,0-.3-.106-.519-.319-.654s-.517-.203-.914-.203c-.458,0-.783.124-.975.373-.107.138-.177.342-.209.613h-.82c.016-.646.225-1.096.626-1.349.402-.253.868-.38,1.397-.38.614,0,1.114.117,1.497.352.38.234.571.599.571,1.094v3.013c0,.092.019.165.056.22.038.056.116.083.237.083.039,0,.083-.002.132-.008.049-.004.101-.012.156-.021v.649c-.137.039-.241.063-.312.073s-.169.015-.293.015c-.303,0-.522-.107-.659-.322-.072-.114-.122-.275-.151-.483-.179.234-.436.438-.771.61s-.705.259-1.108.259c-.485,0-.881-.147-1.189-.441s-.461-.662-.461-1.104c0-.484.151-.86.454-1.127s.7-.431,1.191-.492l1.401-.176ZM34.65,147.752c.186.146.405.219.659.219.309,0,.609-.071.898-.215.488-.237.732-.625.732-1.165v-.707c-.107.069-.245.126-.414.172s-.335.078-.497.098l-.531.068c-.318.042-.558.109-.718.2-.272.152-.408.396-.408.73,0,.253.093.453.278.6Z"/>
    <path class="cls-6" d="M39.26,143.312h.869v.742c.208-.257.397-.444.566-.562.29-.198.619-.298.986-.298.417,0,.752.103,1.006.308.143.117.273.29.391.518.195-.28.425-.487.688-.623.264-.135.56-.202.889-.202.703,0,1.182.254,1.436.762.137.273.205.642.205,1.104v3.481h-.913v-3.633c0-.349-.087-.588-.261-.718s-.387-.195-.637-.195c-.345,0-.642.115-.891.347s-.374.617-.374,1.157v3.042h-.894v-3.413c0-.354-.042-.613-.127-.776-.133-.244-.382-.366-.747-.366-.332,0-.634.129-.906.386s-.408.723-.408,1.396v2.773h-.879v-5.229Z"/>
    <path class="cls-6" d="M50.82,143.456c.346.175.61.4.791.677.175.264.292.571.35.923.052.241.078.625.078,1.152h-3.804c.016.532.141.959.373,1.28s.593.482,1.081.482c.455,0,.818-.152,1.09-.456.152-.177.259-.381.323-.613h.864c-.023.192-.099.406-.227.643-.128.235-.272.429-.43.578-.265.261-.593.437-.984.527-.21.052-.447.078-.712.078-.647,0-1.195-.236-1.645-.711-.45-.473-.674-1.137-.674-1.989,0-.84.227-1.521.679-2.046.453-.524,1.045-.786,1.776-.786.369,0,.726.087,1.072.261ZM51.135,145.51c-.036-.381-.118-.686-.247-.913-.239-.423-.637-.635-1.196-.635-.4,0-.736.146-1.007.438-.271.291-.415.661-.431,1.11h2.881Z"/>
    <path class="cls-6" d="M55.954,143.312h.835v.903c.068-.176.236-.39.503-.643.267-.252.575-.378.923-.378.016,0,.044.002.083.005s.106.01.2.02v.928c-.052-.01-.1-.017-.144-.02s-.092-.005-.144-.005c-.443,0-.783.143-1.021.427-.238.285-.356.613-.356.984v3.008h-.879v-5.229Z"/>
    <path class="cls-6" d="M62.49,143.456c.346.175.61.4.791.677.175.264.292.571.35.923.052.241.078.625.078,1.152h-3.804c.016.532.141.959.373,1.28s.593.482,1.081.482c.455,0,.818-.152,1.09-.456.152-.177.259-.381.323-.613h.864c-.023.192-.099.406-.227.643-.128.235-.272.429-.43.578-.265.261-.593.437-.984.527-.21.052-.447.078-.712.078-.647,0-1.195-.236-1.645-.711-.45-.473-.674-1.137-.674-1.989,0-.84.227-1.521.679-2.046.453-.524,1.045-.786,1.776-.786.369,0,.726.087,1.072.261ZM62.805,145.51c-.036-.381-.118-.686-.247-.913-.239-.423-.637-.635-1.196-.635-.4,0-.736.146-1.007.438-.271.291-.415.661-.431,1.11h2.881Z"/>
    <path class="cls-6" d="M67.824,145.377c.202-.025.337-.11.405-.253.039-.079.059-.191.059-.339,0-.3-.106-.519-.319-.654s-.517-.203-.914-.203c-.458,0-.783.124-.975.373-.107.138-.177.342-.209.613h-.82c.016-.646.225-1.096.626-1.349.402-.253.868-.38,1.397-.38.614,0,1.114.117,1.497.352.38.234.571.599.571,1.094v3.013c0,.092.019.165.056.22.038.056.116.083.237.083.039,0,.083-.002.132-.008.049-.004.101-.012.156-.021v.649c-.137.039-.241.063-.312.073s-.169.015-.293.015c-.303,0-.522-.107-.659-.322-.072-.114-.122-.275-.151-.483-.179.234-.436.438-.771.61s-.705.259-1.108.259c-.485,0-.881-.147-1.189-.441s-.461-.662-.461-1.104c0-.484.151-.86.454-1.127s.7-.431,1.191-.492l1.401-.176ZM65.974,147.752c.186.146.405.219.659.219.309,0,.609-.071.898-.215.488-.237.732-.625.732-1.165v-.707c-.107.069-.245.126-.414.172s-.335.078-.497.098l-.531.068c-.318.042-.558.109-.718.2-.272.152-.408.396-.408.73,0,.253.093.453.278.6Z"/>
    <path class="cls-6" d="M73.456,143.474c.156.098.333.269.53.513v-2.642h.845v7.197h-.791v-.728c-.204.322-.446.555-.725.698-.279.144-.599.215-.958.215-.581,0-1.083-.245-1.508-.734-.425-.49-.637-1.143-.637-1.956,0-.762.194-1.422.581-1.979.388-.559.941-.838,1.661-.838.399,0,.733.085,1.002.254ZM71.494,147.395c.236.378.616.566,1.137.566.405,0,.737-.175.998-.524.261-.351.391-.853.391-1.507,0-.661-.134-1.149-.403-1.468-.269-.316-.601-.476-.996-.476-.441,0-.798.169-1.071.508-.274.339-.411.837-.411,1.494,0,.56.118,1.028.354,1.406Z"/>
    <path class="cls-6" d="M79.414,143.312h.972c-.124.336-.399,1.101-.825,2.296-.319.899-.586,1.632-.801,2.198-.507,1.334-.865,2.146-1.073,2.439s-.566.439-1.073.439c-.124,0-.219-.005-.285-.015-.067-.01-.149-.027-.247-.054v-.801c.153.042.263.068.332.078.068.01.128.015.18.015.163,0,.282-.027.358-.08.076-.054.141-.12.192-.197.017-.026.075-.16.176-.4.101-.24.174-.419.219-.535l-1.934-5.384h.996l1.401,4.26,1.411-4.26Z"/>
  </g>
  <g>
    <line class="cls-10" x1="87" y1="141" x2="87.371" y2="141"/>
    <polygon class="cls-6" points="86.964 137.963 86.964 144.037 90 141 86.964 137.963"/>
  </g>
</svg>