<?xml version="1.0" encoding="UTF-8"?>
<svg xmlns="http://www.w3.org/2000/svg" viewBox="0 0 545 479">
  <defs>
    <style>
      .cls-1 {
        stroke-dasharray: 1.014 1.014;
      }

      .cls-1, .cls-2, .cls-3, .cls-4, .cls-5, .cls-6, .cls-7 {
        stroke-miterlimit: 10;
      }

      .cls-1, .cls-3 {
        stroke: #666;
      }

      .cls-1, .cls-3, .cls-4, .cls-5, .cls-6, .cls-7 {
        fill: none;
      }

      .cls-2, .cls-8 {
        fill: #fff;
      }

      .cls-2, .cls-4, .cls-5, .cls-6, .cls-7 {
        stroke: #000;
      }

      .cls-9 {
        fill: #666;
      }

      .cls-4 {
        stroke-dasharray: .998 .998;
      }

      .cls-10 {
        opacity: .25;
      }

      .cls-6 {
        stroke-dasharray: .984 .984;
      }

      .cls-7 {
        stroke-dasharray: 1.001 1.001;
      }
    </style>
  </defs>
  <g id="Layer_3" data-name="Layer 3">
    <rect class="cls-8" x="0" width="545" height="479"/>
  </g>
  <g id="Layer_1" data-name="Layer 1">
    <rect class="cls-5" x="411.5" y="377.5" width="71" height="71"/>
    <rect class="cls-5" x="256.5" y="239.5" width="32" height="32"/>
    <rect class="cls-5" x="316.5" y="239.5" width="32" height="32"/>
    <rect class="cls-5" x="256.5" y="298.5" width="32" height="32"/>
    <rect class="cls-5" x="316.5" y="298.5" width="32" height="32"/>
    <rect class="cls-5" x="256.5" y="357.5" width="32" height="32"/>
    <rect class="cls-5" x="316.5" y="357.5" width="32" height="32"/>
    <rect class="cls-5" x="256.5" y="416.5" width="32" height="32"/>
    <rect class="cls-5" x="316.5" y="416.5" width="32" height="32"/>
    <g>
      <line class="cls-3" x1="412.542" y1="413" x2="413.042" y2="413"/>
      <line class="cls-1" x1="414.056" y1="413" x2="480.451" y2="413"/>
      <line class="cls-3" x1="480.958" y1="413" x2="481.458" y2="413"/>
      <polygon class="cls-9" points="414.199 415.045 414.54 414.679 412.734 413 414.54 411.322 414.199 410.956 412 413 414.199 415.045"/>
      <polygon class="cls-9" points="479.801 415.045 479.46 414.679 481.266 413 479.46 411.322 479.801 410.956 482 413 479.801 415.045"/>
    </g>
    <path class="cls-9" d="M422.509,360.227c-.74,0-1.302-.264-1.687-.791-.385-.526-.577-1.297-.577-2.309v-1.218c0-1.024.194-1.804.582-2.337s.952-.8,1.691-.8,1.3.267,1.682.8.573,1.312.573,2.337v1.218c0,1.012-.193,1.782-.578,2.309-.385.527-.947.791-1.686.791ZM422.509,359.436c.503,0,.86-.177,1.073-.531.212-.354.318-.944.318-1.769v-1.236c0-.836-.106-1.435-.318-1.795-.212-.36-.57-.541-1.073-.541s-.861.181-1.073.541c-.212.36-.318.959-.318,1.795v1.236c0,.824.106,1.414.318,1.769.212.354.569.531,1.073.531ZM422.509,357.199c-.182,0-.328-.033-.437-.1s-.164-.194-.164-.382v-.427c0-.183.055-.308.164-.378.109-.069.254-.104.437-.104s.326.035.432.104c.106.07.159.195.159.378v.427c0,.188-.055.315-.164.382-.109.066-.252.1-.427.1Z"/>
    <g>
      <path class="cls-9" d="M442.421,331.856v-5.454h.882v.872h.245c.115-.333.294-.577.536-.731s.533-.231.873-.231c.382,0,.697.132.945.396.249.264.373.638.373,1.122v.837h-.837v-.519c0-.346-.067-.599-.204-.759-.137-.161-.35-.241-.641-.241-.261,0-.499.07-.714.209-.215.14-.408.352-.577.637v3.863h-.882Z"/>
      <path class="cls-9" d="M448.438,331.856v-5.454h.882v.872h.246c.114-.333.294-.577.536-.731s.533-.231.872-.231c.382,0,.697.132.946.396.248.264.372.638.372,1.122v.837h-.836v-.519c0-.346-.068-.599-.205-.759-.136-.161-.35-.241-.641-.241-.261,0-.498.07-.714.209-.215.14-.407.352-.577.637v3.863h-.882Z"/>
    </g>
    <g>
      <path class="cls-9" d="M493.085,416.227c-.861,0-1.452-.146-1.773-.436-.321-.291-.503-.84-.545-1.646l.882-.092c.042.576.152.95.332,1.123.179.173.55.259,1.113.259.509,0,.869-.104,1.082-.313.212-.209.318-.52.318-.932v-.445c0-.431-.087-.747-.26-.95s-.459-.305-.858-.305h-2.364v-3.627h4.036v.791h-3.154v2h1.519c.648,0,1.138.165,1.468.495.33.331.496.838.496,1.522v.601c0,.6-.194,1.076-.582,1.427-.388.352-.958.527-1.709.527Z"/>
      <path class="cls-9" d="M497.275,416.136v-.791h1.818v-5.409h-.236c-.17.334-.408.576-.714.728s-.65.197-1.032.137l-.081-.873c.418.043.809-.028,1.173-.214.363-.185.669-.468.918-.85h.854v6.481h1.654v.791h-4.354Z"/>
      <path class="cls-9" d="M502.885,416.136v-1.545c0-.563.119-1,.358-1.31.239-.309.645-.558,1.214-.745l1.118-.364c.31-.097.532-.223.668-.377.137-.154.205-.383.205-.687v-.382c0-.418-.095-.716-.282-.896-.188-.179-.527-.268-1.018-.268-.467,0-.79.105-.969.318-.179.212-.289.633-.332,1.264l-.882-.092c.043-.83.229-1.418.56-1.763.33-.346.868-.519,1.613-.519.739,0,1.29.153,1.65.459s.541.771.541,1.396v.618c0,.454-.118.813-.354,1.077s-.634.486-1.191.668l-1.118.364c-.291.091-.514.221-.668.391s-.231.445-.231.827v.772h3.646v.791h-4.527Z"/>
    </g>
    <rect class="cls-2" x="96.5" y="239.5" width="32" height="32"/>
    <rect class="cls-2" x="156.5" y="239.5" width="32" height="32"/>
    <rect class="cls-2" x="96.5" y="298.5" width="32" height="32"/>
    <rect class="cls-2" x="156.5" y="298.5" width="32" height="32"/>
    <rect class="cls-2" x="96.5" y="357.5" width="32" height="32"/>
    <rect class="cls-2" x="156.5" y="357.5" width="32" height="32"/>
    <rect class="cls-2" x="96.5" y="416.5" width="32" height="32"/>
    <rect class="cls-2" x="156.5" y="416.5" width="32" height="32"/>
    <g>
      <rect class="cls-8" x="96.5" y="98.5" width="32" height="51"/>
      <path d="M128,99v50h-31v-50h31M129,98h-33v52h33v-52h0Z"/>
    </g>
    <g>
      <rect class="cls-8" x="96.5" y="163.5" width="252" height="34"/>
      <path d="M348,164v33H97v-33h251M349,163H96v35h253v-35h0Z"/>
    </g>
    <polygon class="cls-5" points="203 56.5 220.013 56.5 223.721 56.5 241.827 56.5 233.625 70.5 211.203 70.5 203 56.5"/>
    <polygon class="cls-5" points="409 349.5 445.093 349.5 448.813 349.5 485 349.5 476.772 363.5 417.228 363.5 409 349.5"/>
    <polygon class="cls-5" points="427.459 321.5 444.548 321.5 448.273 321.5 466.459 321.5 458.22 335.5 435.699 335.5 427.459 321.5"/>
    <line class="cls-2" x1="96.067" y1="115.5" x2="128.914" y2="115.5"/>
    <line class="cls-2" x1="96.067" y1="132.5" x2="128.914" y2="132.5"/>
    <g>
      <rect class="cls-8" x="156.5" y="98.5" width="32" height="51"/>
      <path d="M188,99v50h-31v-50h31M189,98h-33v52h33v-52h0Z"/>
    </g>
    <line class="cls-2" x1="156.067" y1="115.5" x2="188.914" y2="115.5"/>
    <line class="cls-2" x1="156.067" y1="132.5" x2="188.914" y2="132.5"/>
    <g>
      <rect class="cls-8" x="256.5" y="98.5" width="32" height="51"/>
      <path d="M288,99v50h-31v-50h31M289,98h-33v52h33v-52h0Z"/>
    </g>
    <line class="cls-2" x1="256.067" y1="115.5" x2="288.914" y2="115.5"/>
    <line class="cls-2" x1="256.067" y1="132.5" x2="288.914" y2="132.5"/>
    <g>
      <rect class="cls-8" x="316.5" y="98.5" width="32" height="51"/>
      <path d="M348,99v50h-31v-50h31M349,98h-33v52h33v-52h0Z"/>
    </g>
    <line class="cls-2" x1="316.067" y1="115.5" x2="348.914" y2="115.5"/>
    <line class="cls-2" x1="316.067" y1="132.5" x2="348.914" y2="132.5"/>
    <g>
      <line class="cls-5" x1="222.489" y1="74.588" x2="222.489" y2="84"/>
      <polygon points="219.995 75.318 222.489 71 224.982 75.318 219.995 75.318"/>
    </g>
    <g>
      <line class="cls-5" x1="272.5" y1="153.588" x2="272.5" y2="159.412"/>
      <polygon points="270.007 154.318 272.5 150 274.993 154.318 270.007 154.318"/>
      <polygon points="270.007 158.682 272.5 163 274.993 158.682 270.007 158.682"/>
    </g>
    <g>
      <line class="cls-5" x1="332.5" y1="153.588" x2="332.5" y2="159.412"/>
      <polygon points="330.007 154.318 332.5 150 334.993 154.318 330.007 154.318"/>
      <polygon points="330.007 158.682 332.5 163 334.993 158.682 330.007 158.682"/>
    </g>
    <g>
      <line class="cls-5" x1="437.959" y1="311.588" x2="437.959" y2="317.412"/>
      <polygon points="435.466 312.318 437.959 308 440.453 312.318 435.466 312.318"/>
      <polygon points="435.466 316.682 437.959 321 440.453 316.682 435.466 316.682"/>
    </g>
    <g>
      <line class="cls-5" x1="455.959" y1="311.588" x2="455.959" y2="317.412"/>
      <polygon points="453.466 312.318 455.959 308 458.453 312.318 453.466 312.318"/>
      <polygon points="453.466 316.682 455.959 321 458.453 316.682 453.466 316.682"/>
    </g>
    <g>
      <line class="cls-5" x1="446.959" y1="339.588" x2="446.959" y2="345.412"/>
      <polygon points="444.466 340.318 446.959 336 449.453 340.318 444.466 340.318"/>
      <polygon points="444.466 344.682 446.959 349 449.453 344.682 444.466 344.682"/>
    </g>
    <g>
      <line class="cls-5" x1="447" y1="367.588" x2="447" y2="373.412"/>
      <polygon points="444.507 368.318 447 364 449.493 368.318 444.507 368.318"/>
      <polygon points="444.507 372.682 447 377 449.493 372.682 444.507 372.682"/>
    </g>
    <g>
      <line class="cls-5" x1="419.961" y1="278.588" x2="419.962" y2="345.412"/>
      <polygon points="417.468 279.318 419.961 275 422.455 279.318 417.468 279.318"/>
      <polygon points="417.468 344.682 419.962 349 422.455 344.682 417.468 344.682"/>
    </g>
    <g>
      <line class="cls-5" x1="473.5" y1="278.588" x2="473.5" y2="345.412"/>
      <polygon points="471.007 279.318 473.5 275 475.993 279.318 471.007 279.318"/>
      <polygon points="471.007 344.682 473.5 349 475.993 344.682 471.007 344.682"/>
    </g>
    <g>
      <line class="cls-5" x1="172.5" y1="153.588" x2="172.5" y2="159.412"/>
      <polygon points="170.007 154.318 172.5 150 174.993 154.318 170.007 154.318"/>
      <polygon points="170.007 158.682 172.5 163 174.993 158.682 170.007 158.682"/>
    </g>
    <g>
      <line class="cls-5" x1="112.5" y1="153.588" x2="112.5" y2="159.412"/>
      <polygon points="110.007 154.318 112.5 150 114.993 154.318 110.007 154.318"/>
      <polygon points="110.007 158.682 112.5 163 114.993 158.682 110.007 158.682"/>
    </g>
    <g>
      <line class="cls-5" x1="272.5" y1="85" x2="272.5" y2="94.412"/>
      <polygon points="270.007 93.682 272.5 98 274.993 93.682 270.007 93.682"/>
    </g>
    <g>
      <line class="cls-5" x1="332.5" y1="85" x2="332.5" y2="94.412"/>
      <polygon points="330.007 93.682 332.5 98 334.993 93.682 330.007 93.682"/>
    </g>
    <g>
      <line class="cls-5" x1="172.5" y1="85" x2="172.5" y2="94.412"/>
      <polygon points="170.007 93.682 172.5 98 174.993 93.682 170.007 93.682"/>
    </g>
    <g>
      <line class="cls-5" x1="112.5" y1="85" x2="112.5" y2="94.412"/>
      <polygon points="110.007 93.682 112.5 98 114.993 93.682 110.007 93.682"/>
    </g>
    <g>
      <path class="cls-9" d="M97.481,20.149h5.971v1.055h-4.805v2.613h4.225v1.025h-4.225v3.914h-1.166v-8.607Z"/>
      <path class="cls-9" d="M104.588,22.481h1.002v1.084c.082-.211.283-.468.604-.771s.689-.454,1.107-.454c.02,0,.053.002.1.006s.127.012.24.023v1.113c-.062-.012-.12-.02-.173-.023s-.11-.006-.173-.006c-.531,0-.939.171-1.225.513s-.428.735-.428,1.181v3.609h-1.055v-6.275Z"/>
      <path class="cls-9" d="M113.102,23.107c.555.539.832,1.331.832,2.377,0,1.011-.245,1.846-.733,2.506-.488.659-1.247.989-2.274.989-.857,0-1.538-.292-2.042-.875-.504-.584-.756-1.367-.756-2.351,0-1.054.266-1.894.797-2.518.532-.624,1.245-.937,2.141-.937.803,0,1.482.27,2.037.808ZM112.447,27.278c.257-.529.385-1.117.385-1.765,0-.585-.093-1.062-.278-1.428-.293-.578-.799-.866-1.518-.866-.638,0-1.101.245-1.391.737-.29.491-.435,1.085-.435,1.779,0,.667.145,1.223.435,1.668.29.444.749.667,1.379.667.691,0,1.166-.265,1.422-.793Z"/>
      <path class="cls-9" d="M115.229,22.481h1.043v.891c.25-.309.477-.533.68-.674.348-.238.742-.357,1.184-.357.5,0,.902.123,1.207.369.172.141.328.348.469.621.234-.336.51-.585.826-.747s.672-.243,1.066-.243c.844,0,1.418.305,1.723.914.164.328.246.77.246,1.324v4.178h-1.096v-4.359c0-.418-.104-.705-.313-.861s-.464-.234-.765-.234c-.414,0-.771.139-1.069.416s-.448.74-.448,1.389v3.65h-1.072v-4.096c0-.426-.051-.736-.152-.932-.16-.293-.459-.439-.896-.439-.398,0-.761.154-1.087.463s-.489.867-.489,1.676v3.328h-1.055v-6.275Z"/>
      <path class="cls-9" d="M134.788,20.776c.594.574.925,1.227.99,1.957h-1.137c-.126-.555-.379-.994-.757-1.318s-.908-.486-1.591-.486c-.833,0-1.505.298-2.017.895-.512.596-.768,1.51-.768,2.741,0,1.009.231,1.826.693,2.454s1.152.941,2.069.941c.844,0,1.487-.33,1.928-.99.234-.348.409-.805.524-1.371h1.137c-.101.906-.433,1.666-.996,2.279-.676.738-1.587,1.107-2.734,1.107-.989,0-1.819-.303-2.491-.909-.884-.801-1.326-2.038-1.326-3.711,0-1.271.332-2.312.996-3.125.718-.884,1.708-1.325,2.971-1.325,1.077,0,1.913.287,2.508.861Z"/>
      <path class="cls-9" d="M141.772,23.107c.555.539.832,1.331.832,2.377,0,1.011-.245,1.846-.733,2.506-.488.659-1.247.989-2.274.989-.857,0-1.538-.292-2.042-.875-.504-.584-.756-1.367-.756-2.351,0-1.054.266-1.894.797-2.518.532-.624,1.245-.937,2.141-.937.803,0,1.482.27,2.037.808ZM141.117,27.278c.257-.529.385-1.117.385-1.765,0-.585-.093-1.062-.278-1.428-.293-.578-.799-.866-1.518-.866-.638,0-1.101.245-1.391.737-.29.491-.435,1.085-.435,1.779,0,.667.145,1.223.435,1.668.29.444.749.667,1.379.667.691,0,1.166-.265,1.422-.793Z"/>
      <path class="cls-9" d="M143.928,22.481h1.002v1.084c.082-.211.283-.468.604-.771s.689-.454,1.107-.454c.02,0,.053.002.1.006s.127.012.24.023v1.113c-.062-.012-.12-.02-.173-.023s-.11-.006-.173-.006c-.531,0-.939.171-1.225.513s-.428.735-.428,1.181v3.609h-1.055v-6.275Z"/>
      <path class="cls-9" d="M151.771,22.654c.416.209.732.479.949.812.21.316.35.686.419,1.107.062.289.093.75.093,1.383h-4.564c.02.639.168,1.15.448,1.536.279.386.711.579,1.296.579.546,0,.982-.183,1.308-.548.182-.212.311-.457.387-.735h1.037c-.027.23-.118.487-.272.771s-.327.515-.517.694c-.318.312-.711.523-1.18.633-.252.062-.537.094-.855.094-.776,0-1.434-.284-1.974-.853-.54-.568-.81-1.364-.81-2.388,0-1.008.271-1.826.815-2.455.543-.629,1.254-.943,2.131-.943.442,0,.872.104,1.287.313ZM152.149,25.118c-.042-.457-.142-.822-.296-1.096-.287-.508-.765-.762-1.435-.762-.48,0-.883.175-1.208.524s-.498.794-.517,1.333h3.457Z"/>
      <path class="cls-9" d="M162.731,21.708c.375.691.562,1.639.562,2.842,0,1.141-.17,2.084-.51,2.83-.492,1.07-1.297,1.605-2.414,1.605-1.008,0-1.758-.438-2.25-1.312-.41-.73-.615-1.711-.615-2.941,0-.953.123-1.771.369-2.455.461-1.273,1.295-1.91,2.502-1.91,1.086,0,1.871.447,2.355,1.342ZM161.669,27.298c.325-.484.487-1.387.487-2.707,0-.953-.118-1.737-.352-2.353-.235-.615-.691-.923-1.368-.923-.622,0-1.077.292-1.364.876-.288.584-.432,1.444-.432,2.581,0,.855.092,1.543.276,2.062.282.793.763,1.189,1.444,1.189.548,0,.984-.242,1.309-.727Z"/>
    </g>
    <g>
      <path class="cls-9" d="M389.814,135.149h3.913c.644,0,1.175.096,1.594.287.794.367,1.191,1.045,1.191,2.033,0,.516-.106.938-.319,1.266s-.511.592-.894.791c.336.137.589.316.759.539s.265.584.284,1.084l.041,1.154c.012.328.039.572.082.732.07.273.195.449.375.527v.193h-1.43c-.039-.074-.07-.17-.094-.287s-.043-.344-.059-.68l-.07-1.436c-.026-.562-.229-.939-.609-1.131-.217-.105-.556-.158-1.019-.158h-2.579v3.691h-1.166v-8.607ZM393.601,139.093c.532,0,.953-.109,1.262-.328s.464-.613.464-1.184c0-.613-.216-1.031-.649-1.254-.232-.117-.542-.176-.929-.176h-2.77v2.941h2.621Z"/>
      <path class="cls-9" d="M400.159,135.149h.891l-2.73,8.607h-.891l2.73-8.607Z"/>
      <path class="cls-9" d="M402.245,135.149l1.623,6.993,1.946-6.993h1.26l1.95,7.006,1.623-7.006h1.278l-2.262,8.607h-1.225l-1.986-7.137-1.998,7.137h-1.225l-2.25-8.607h1.266Z"/>
      <path class="cls-9" d="M417.095,140.979c.026.488.137.885.333,1.189.373.57,1.029.855,1.97.855.421,0,.805-.062,1.151-.188.67-.242,1.005-.676,1.005-1.301,0-.469-.142-.803-.426-1.002-.288-.195-.738-.365-1.351-.51l-1.129-.264c-.738-.172-1.26-.361-1.566-.568-.53-.359-.795-.896-.795-1.611,0-.773.26-1.408.781-1.904.521-.496,1.258-.744,2.212-.744.878,0,1.624.218,2.238.653s.921,1.132.921,2.089h-1.096c-.056-.461-.176-.814-.359-1.061-.341-.449-.919-.674-1.736-.674-.659,0-1.133.145-1.421.434-.289.289-.433.625-.433,1.008,0,.422.17.73.511.926.224.125.729.281,1.516.469l1.169.275c.564.133.999.314,1.306.545.53.402.795.986.795,1.752,0,.953-.338,1.635-1.014,2.045s-1.462.615-2.357.615c-1.044,0-1.861-.273-2.451-.82-.591-.543-.88-1.279-.869-2.209h1.096Z"/>
      <path class="cls-9" d="M424.197,135.12h1.055v3.211c.25-.316.475-.539.674-.668.34-.223.764-.334,1.271-.334.91,0,1.527.318,1.852.955.176.348.264.83.264,1.447v4.025h-1.084v-3.955c0-.461-.059-.799-.176-1.014-.191-.344-.551-.516-1.078-.516-.438,0-.834.15-1.189.451s-.533.869-.533,1.705v3.328h-1.055v-8.637Z"/>
      <path class="cls-9" d="M434.234,139.959c.242-.031.404-.133.486-.305.047-.094.07-.229.07-.405,0-.361-.128-.623-.383-.785-.255-.163-.621-.244-1.097-.244-.55,0-.939.149-1.169.447-.129.165-.212.41-.251.736h-.984c.02-.775.27-1.315.752-1.619s1.041-.455,1.677-.455c.737,0,1.336.141,1.797.422.457.281.685.719.685,1.312v3.615c0,.109.022.197.067.264s.14.1.284.1c.047,0,.1-.003.158-.009s.121-.015.188-.026v.779c-.164.047-.289.076-.375.088s-.203.018-.352.018c-.363,0-.627-.129-.791-.387-.086-.137-.146-.33-.182-.58-.215.281-.523.525-.926.732s-.846.311-1.33.311c-.582,0-1.058-.177-1.427-.53-.369-.353-.554-.795-.554-1.325,0-.581.182-1.032.545-1.352.363-.32.84-.518,1.43-.591l1.682-.211ZM432.013,142.808c.223.176.486.264.791.264.371,0,.73-.086,1.078-.258.586-.284.879-.751.879-1.398v-.848c-.129.082-.294.15-.497.206-.203.055-.401.094-.597.117l-.637.082c-.382.051-.669.13-.862.239-.326.184-.489.476-.489.877,0,.304.111.544.334.719Z"/>
      <path class="cls-9" d="M437.574,137.481h1.002v1.084c.082-.211.283-.468.604-.771s.689-.454,1.107-.454c.02,0,.053.002.1.006s.127.012.24.023v1.113c-.062-.012-.12-.02-.173-.023s-.11-.006-.173-.006c-.531,0-.939.171-1.225.513s-.428.735-.428,1.181v3.609h-1.055v-6.275Z"/>
      <path class="cls-9" d="M445.417,137.654c.415.209.731.479.949.812.21.316.35.686.419,1.107.062.289.094.75.094,1.383h-4.564c.02.639.168,1.15.447,1.536s.711.579,1.297.579c.546,0,.982-.183,1.308-.548.183-.212.312-.457.388-.735h1.037c-.027.23-.118.487-.272.771s-.327.515-.517.694c-.318.312-.712.523-1.181.633-.252.062-.537.094-.854.094-.776,0-1.435-.284-1.974-.853-.54-.568-.81-1.364-.81-2.388,0-1.008.271-1.826.815-2.455.543-.629,1.254-.943,2.131-.943.442,0,.872.104,1.287.313ZM445.795,140.118c-.043-.457-.142-.822-.297-1.096-.286-.508-.765-.762-1.435-.762-.48,0-.884.175-1.209.524s-.497.794-.517,1.333h3.457Z"/>
      <path class="cls-9" d="M451.662,137.675c.188.117.399.322.637.615v-3.17h1.014v8.637h-.949v-.873c-.245.387-.535.666-.87.838s-.718.258-1.149.258c-.697,0-1.3-.294-1.81-.882s-.765-1.37-.765-2.347c0-.914.232-1.706.697-2.376s1.129-1.005,1.993-1.005c.479,0,.88.102,1.202.305ZM449.309,142.38c.283.453.738.68,1.363.68.486,0,.886-.21,1.198-.63.313-.42.47-1.022.47-1.808,0-.793-.161-1.38-.484-1.761-.322-.381-.721-.571-1.195-.571-.528,0-.957.203-1.285.609s-.492,1.004-.492,1.793c0,.672.142,1.234.426,1.688Z"/>
      <path class="cls-9" d="M458.416,135.149h3.44c1.168,0,2.073.42,2.718,1.26.574.758.861,1.729.861,2.912,0,.914-.17,1.74-.509,2.479-.598,1.305-1.625,1.957-3.082,1.957h-3.429v-8.607ZM461.628,142.761c.385,0,.702-.041.95-.123.443-.152.807-.445,1.089-.879.226-.348.388-.793.487-1.336.057-.324.086-.625.086-.902,0-1.066-.207-1.895-.622-2.484-.414-.59-1.082-.885-2.002-.885h-2.022v6.609h2.034Z"/>
      <path class="cls-9" d="M470.252,139.959c.242-.031.404-.133.486-.305.047-.094.07-.229.07-.405,0-.361-.128-.623-.383-.785-.256-.163-.621-.244-1.097-.244-.55,0-.939.149-1.17.447-.129.165-.212.41-.251.736h-.984c.02-.775.27-1.315.752-1.619.481-.304,1.041-.455,1.677-.455.737,0,1.336.141,1.797.422.456.281.685.719.685,1.312v3.615c0,.109.022.197.067.264s.14.1.284.1c.047,0,.1-.003.158-.009s.121-.015.188-.026v.779c-.164.047-.289.076-.375.088s-.203.018-.352.018c-.363,0-.627-.129-.791-.387-.086-.137-.146-.33-.182-.58-.215.281-.523.525-.926.732s-.846.311-1.33.311c-.582,0-1.058-.177-1.427-.53-.369-.353-.554-.795-.554-1.325,0-.581.182-1.032.545-1.352.363-.32.84-.518,1.43-.591l1.682-.211ZM468.031,142.808c.223.176.486.264.791.264.371,0,.73-.086,1.078-.258.586-.284.879-.751.879-1.398v-.848c-.129.082-.295.15-.497.206-.203.055-.401.094-.597.117l-.638.082c-.382.051-.669.13-.861.239-.326.184-.489.476-.489.877,0,.304.111.544.334.719Z"/>
      <path class="cls-9" d="M473.773,135.729h1.066v1.752h1.002v.861h-1.002v4.096c0,.219.074.365.223.439.082.043.219.064.41.064.051,0,.105-.002.164-.004.059-.003.127-.01.205-.02v.838c-.121.035-.247.061-.378.076s-.272.023-.425.023c-.492,0-.826-.126-1.002-.378s-.264-.579-.264-.981v-4.154h-.85v-.861h.85v-1.752Z"/>
      <path class="cls-9" d="M480.26,139.959c.242-.031.404-.133.486-.305.047-.094.07-.229.07-.405,0-.361-.128-.623-.383-.785-.256-.163-.621-.244-1.097-.244-.55,0-.939.149-1.17.447-.129.165-.212.41-.251.736h-.984c.02-.775.27-1.315.752-1.619.481-.304,1.041-.455,1.677-.455.737,0,1.336.141,1.797.422.456.281.685.719.685,1.312v3.615c0,.109.022.197.067.264s.14.1.284.1c.047,0,.1-.003.158-.009s.121-.015.188-.026v.779c-.164.047-.289.076-.375.088s-.203.018-.352.018c-.363,0-.627-.129-.791-.387-.086-.137-.146-.33-.182-.58-.215.281-.523.525-.926.732s-.846.311-1.33.311c-.582,0-1.058-.177-1.427-.53-.369-.353-.554-.795-.554-1.325,0-.581.182-1.032.545-1.352.363-.32.84-.518,1.43-.591l1.682-.211ZM478.039,142.808c.223.176.486.264.791.264.371,0,.73-.086,1.078-.258.586-.284.879-.751.879-1.398v-.848c-.129.082-.295.15-.497.206-.203.055-.401.094-.597.117l-.638.082c-.382.051-.669.13-.861.239-.326.184-.489.476-.489.877,0,.304.111.544.334.719Z"/>
      <path class="cls-9" d="M483.482,137.511h1.031v.832c.211-.285.442-.506.693-.662.356-.234.775-.352,1.257-.352.713,0,1.317.272,1.815.817.497.545.746,1.323.746,2.335,0,1.367-.359,2.344-1.077,2.93-.454.371-.984.557-1.588.557-.475,0-.872-.104-1.194-.311-.188-.117-.397-.318-.629-.604v3.205h-1.055v-8.748ZM487.45,142.43c.327-.412.491-1.028.491-1.849,0-.5-.072-.93-.218-1.289-.274-.691-.776-1.037-1.505-1.037-.733,0-1.235.365-1.505,1.096-.146.391-.218.887-.218,1.488,0,.484.072.896.218,1.236.273.648.775.973,1.505.973.493,0,.904-.206,1.231-.618Z"/>
      <path class="cls-9" d="M493.607,139.959c.242-.031.404-.133.486-.305.047-.094.07-.229.07-.405,0-.361-.128-.623-.383-.785-.256-.163-.621-.244-1.097-.244-.55,0-.939.149-1.17.447-.129.165-.212.41-.251.736h-.984c.02-.775.27-1.315.752-1.619.481-.304,1.041-.455,1.677-.455.737,0,1.336.141,1.797.422.456.281.685.719.685,1.312v3.615c0,.109.022.197.067.264s.14.1.284.1c.047,0,.1-.003.158-.009s.121-.015.188-.026v.779c-.164.047-.289.076-.375.088s-.203.018-.352.018c-.363,0-.627-.129-.791-.387-.086-.137-.146-.33-.182-.58-.215.281-.523.525-.926.732s-.846.311-1.33.311c-.582,0-1.058-.177-1.427-.53-.369-.353-.554-.795-.554-1.325,0-.581.182-1.032.545-1.352.363-.32.84-.518,1.43-.591l1.682-.211ZM491.387,142.808c.223.176.486.264.791.264.371,0,.73-.086,1.078-.258.586-.284.879-.751.879-1.398v-.848c-.129.082-.295.15-.497.206-.203.055-.401.094-.597.117l-.638.082c-.382.051-.669.13-.861.239-.326.184-.489.476-.489.877,0,.304.111.544.334.719Z"/>
      <path class="cls-9" d="M497.129,135.729h1.066v1.752h1.002v.861h-1.002v4.096c0,.219.074.365.223.439.082.043.219.064.41.064.051,0,.105-.002.164-.004.059-.003.127-.01.205-.02v.838c-.121.035-.247.061-.378.076s-.272.023-.425.023c-.492,0-.826-.126-1.002-.378s-.264-.579-.264-.981v-4.154h-.85v-.861h.85v-1.752Z"/>
      <path class="cls-9" d="M500.252,135.12h1.055v3.211c.25-.316.475-.539.674-.668.34-.223.764-.334,1.271-.334.91,0,1.527.318,1.852.955.176.348.264.83.264,1.447v4.025h-1.084v-3.955c0-.461-.059-.799-.176-1.014-.191-.344-.551-.516-1.078-.516-.438,0-.834.15-1.189.451s-.533.869-.533,1.705v3.328h-1.055v-8.637Z"/>
    </g>
    <g>
      <path class="cls-9" d="M384.81,168.149h3.913c.644,0,1.175.096,1.594.287.794.367,1.191,1.045,1.191,2.033,0,.516-.106.938-.319,1.266s-.511.592-.894.791c.336.137.589.316.759.539s.265.584.284,1.084l.041,1.154c.012.328.039.572.082.732.07.273.195.449.375.527v.193h-1.43c-.039-.074-.07-.17-.094-.287s-.043-.344-.059-.68l-.07-1.436c-.026-.562-.229-.939-.609-1.131-.217-.105-.556-.158-1.019-.158h-2.579v3.691h-1.166v-8.607ZM388.597,172.093c.532,0,.953-.109,1.262-.328s.464-.613.464-1.184c0-.613-.216-1.031-.649-1.254-.232-.117-.542-.176-.929-.176h-2.77v2.941h2.621Z"/>
      <path class="cls-9" d="M395.155,168.149h.891l-2.73,8.607h-.891l2.73-8.607Z"/>
      <path class="cls-9" d="M397.241,168.149l1.623,6.993,1.946-6.993h1.26l1.95,7.006,1.623-7.006h1.278l-2.262,8.607h-1.225l-1.986-7.137-1.998,7.137h-1.225l-2.25-8.607h1.266Z"/>
      <path class="cls-9" d="M412.091,173.979c.026.488.137.885.333,1.189.373.57,1.029.855,1.97.855.421,0,.805-.062,1.151-.188.67-.242,1.005-.676,1.005-1.301,0-.469-.142-.803-.426-1.002-.288-.195-.738-.365-1.351-.51l-1.129-.264c-.738-.172-1.26-.361-1.566-.568-.53-.359-.795-.896-.795-1.611,0-.773.26-1.408.781-1.904.521-.496,1.258-.744,2.212-.744.878,0,1.624.218,2.238.653s.921,1.132.921,2.089h-1.096c-.056-.461-.176-.814-.359-1.061-.341-.449-.919-.674-1.736-.674-.659,0-1.133.145-1.421.434-.289.289-.433.625-.433,1.008,0,.422.17.73.511.926.224.125.729.281,1.516.469l1.169.275c.564.133.999.314,1.306.545.53.402.795.986.795,1.752,0,.953-.338,1.635-1.014,2.045s-1.462.615-2.357.615c-1.044,0-1.861-.273-2.451-.82-.591-.543-.88-1.279-.869-2.209h1.096Z"/>
      <path class="cls-9" d="M423.069,170.654c.416.209.732.479.949.812.21.316.35.686.419,1.107.062.289.093.75.093,1.383h-4.564c.02.639.168,1.15.448,1.536.279.386.711.579,1.296.579.546,0,.982-.183,1.308-.548.182-.212.311-.457.387-.735h1.037c-.027.23-.118.487-.272.771s-.327.515-.517.694c-.318.312-.711.523-1.18.633-.252.062-.537.094-.855.094-.776,0-1.434-.284-1.974-.853-.54-.568-.81-1.364-.81-2.388,0-1.008.271-1.826.815-2.455.543-.629,1.254-.943,2.131-.943.442,0,.872.104,1.287.313ZM423.447,173.118c-.042-.457-.142-.822-.296-1.096-.287-.508-.765-.762-1.435-.762-.48,0-.883.175-1.208.524s-.498.794-.517,1.333h3.457Z"/>
      <path class="cls-9" d="M425.779,170.511h1.031v.832c.211-.285.442-.506.693-.662.356-.234.775-.352,1.257-.352.713,0,1.318.272,1.815.817s.746,1.323.746,2.335c0,1.367-.359,2.344-1.077,2.93-.455.371-.984.557-1.588.557-.475,0-.873-.104-1.194-.311-.188-.117-.398-.318-.629-.604v3.205h-1.055v-8.748ZM429.747,175.43c.327-.412.491-1.028.491-1.849,0-.5-.072-.93-.218-1.289-.274-.691-.776-1.037-1.505-1.037-.733,0-1.235.365-1.505,1.096-.146.391-.218.887-.218,1.488,0,.484.072.896.218,1.236.274.648.776.973,1.505.973.494,0,.904-.206,1.232-.618Z"/>
      <path class="cls-9" d="M435.904,172.959c.242-.031.404-.133.486-.305.047-.094.07-.229.07-.405,0-.361-.128-.623-.383-.785-.255-.163-.621-.244-1.097-.244-.55,0-.939.149-1.169.447-.129.165-.212.41-.251.736h-.984c.02-.775.27-1.315.752-1.619s1.041-.455,1.677-.455c.737,0,1.336.141,1.797.422.457.281.685.719.685,1.312v3.615c0,.109.022.197.067.264s.14.1.284.1c.047,0,.1-.003.158-.009s.121-.015.188-.026v.779c-.164.047-.289.076-.375.088s-.203.018-.352.018c-.363,0-.627-.129-.791-.387-.086-.137-.146-.33-.182-.58-.215.281-.523.525-.926.732s-.846.311-1.33.311c-.582,0-1.058-.177-1.427-.53-.369-.353-.554-.795-.554-1.325,0-.581.182-1.032.545-1.352.363-.32.84-.518,1.43-.591l1.682-.211ZM433.683,175.808c.223.176.486.264.791.264.371,0,.73-.086,1.078-.258.586-.284.879-.751.879-1.398v-.848c-.129.082-.294.15-.497.206-.203.055-.401.094-.597.117l-.637.082c-.382.051-.669.13-.862.239-.326.184-.489.476-.489.877,0,.304.111.544.334.719Z"/>
      <path class="cls-9" d="M439.244,170.481h1.002v1.084c.082-.211.283-.468.604-.771s.689-.454,1.107-.454c.02,0,.053.002.1.006s.127.012.24.023v1.113c-.062-.012-.12-.02-.173-.023s-.11-.006-.173-.006c-.531,0-.939.171-1.225.513s-.428.735-.428,1.181v3.609h-1.055v-6.275Z"/>
      <path class="cls-9" d="M446.574,172.959c.242-.031.404-.133.486-.305.047-.094.07-.229.07-.405,0-.361-.128-.623-.383-.785-.256-.163-.621-.244-1.097-.244-.55,0-.939.149-1.17.447-.129.165-.212.41-.251.736h-.984c.02-.775.27-1.315.752-1.619.481-.304,1.041-.455,1.677-.455.737,0,1.336.141,1.797.422.456.281.685.719.685,1.312v3.615c0,.109.022.197.067.264s.14.1.284.1c.047,0,.1-.003.158-.009s.121-.015.188-.026v.779c-.164.047-.289.076-.375.088s-.203.018-.352.018c-.363,0-.627-.129-.791-.387-.086-.137-.146-.33-.182-.58-.215.281-.523.525-.926.732s-.846.311-1.33.311c-.582,0-1.058-.177-1.427-.53-.369-.353-.554-.795-.554-1.325,0-.581.182-1.032.545-1.352.363-.32.84-.518,1.43-.591l1.682-.211ZM444.354,175.808c.223.176.486.264.791.264.371,0,.73-.086,1.078-.258.586-.284.879-.751.879-1.398v-.848c-.129.082-.295.15-.497.206-.203.055-.401.094-.597.117l-.638.082c-.382.051-.669.13-.861.239-.326.184-.489.476-.489.877,0,.304.111.544.334.719Z"/>
      <path class="cls-9" d="M450.096,168.729h1.066v1.752h1.002v.861h-1.002v4.096c0,.219.074.365.223.439.082.043.219.064.41.064.051,0,.105-.002.164-.004.059-.003.127-.01.205-.02v.838c-.121.035-.247.061-.378.076s-.272.023-.425.023c-.492,0-.826-.126-1.002-.378s-.264-.579-.264-.981v-4.154h-.85v-.861h.85v-1.752Z"/>
      <path class="cls-9" d="M457.095,170.654c.415.209.731.479.949.812.21.316.35.686.419,1.107.062.289.094.75.094,1.383h-4.564c.02.639.168,1.15.447,1.536s.711.579,1.297.579c.546,0,.982-.183,1.308-.548.183-.212.312-.457.388-.735h1.037c-.027.23-.118.487-.272.771s-.327.515-.517.694c-.318.312-.712.523-1.181.633-.252.062-.537.094-.854.094-.776,0-1.435-.284-1.974-.853-.54-.568-.81-1.364-.81-2.388,0-1.008.271-1.826.815-2.455.543-.629,1.254-.943,2.131-.943.442,0,.872.104,1.287.313ZM457.473,173.118c-.043-.457-.142-.822-.297-1.096-.286-.508-.765-.762-1.435-.762-.48,0-.884.175-1.209.524s-.497.794-.517,1.333h3.457Z"/>
      <path class="cls-9" d="M463.42,168.149h3.44c1.168,0,2.073.42,2.718,1.26.574.758.861,1.729.861,2.912,0,.914-.17,1.74-.509,2.479-.598,1.305-1.625,1.957-3.082,1.957h-3.429v-8.607ZM466.632,175.761c.385,0,.702-.041.95-.123.443-.152.807-.445,1.089-.879.226-.348.388-.793.487-1.336.057-.324.086-.625.086-.902,0-1.066-.207-1.895-.622-2.484-.414-.59-1.082-.885-2.002-.885h-2.022v6.609h2.034Z"/>
      <path class="cls-9" d="M475.256,172.959c.242-.031.404-.133.486-.305.047-.094.07-.229.07-.405,0-.361-.128-.623-.383-.785-.256-.163-.621-.244-1.097-.244-.55,0-.939.149-1.17.447-.129.165-.212.41-.251.736h-.984c.02-.775.27-1.315.752-1.619.481-.304,1.041-.455,1.677-.455.737,0,1.336.141,1.797.422.456.281.685.719.685,1.312v3.615c0,.109.022.197.067.264s.14.1.284.1c.047,0,.1-.003.158-.009s.121-.015.188-.026v.779c-.164.047-.289.076-.375.088s-.203.018-.352.018c-.363,0-.627-.129-.791-.387-.086-.137-.146-.33-.182-.58-.215.281-.523.525-.926.732s-.846.311-1.33.311c-.582,0-1.058-.177-1.427-.53-.369-.353-.554-.795-.554-1.325,0-.581.182-1.032.545-1.352.363-.32.84-.518,1.43-.591l1.682-.211ZM473.035,175.808c.223.176.486.264.791.264.371,0,.73-.086,1.078-.258.586-.284.879-.751.879-1.398v-.848c-.129.082-.295.15-.497.206-.203.055-.401.094-.597.117l-.638.082c-.382.051-.669.13-.861.239-.326.184-.489.476-.489.877,0,.304.111.544.334.719Z"/>
      <path class="cls-9" d="M478.777,168.729h1.066v1.752h1.002v.861h-1.002v4.096c0,.219.074.365.223.439.082.043.219.064.41.064.051,0,.105-.002.164-.004.059-.003.127-.01.205-.02v.838c-.121.035-.247.061-.378.076s-.272.023-.425.023c-.492,0-.826-.126-1.002-.378s-.264-.579-.264-.981v-4.154h-.85v-.861h.85v-1.752Z"/>
      <path class="cls-9" d="M485.264,172.959c.242-.031.404-.133.486-.305.047-.094.07-.229.07-.405,0-.361-.128-.623-.383-.785-.256-.163-.621-.244-1.097-.244-.55,0-.939.149-1.17.447-.129.165-.212.41-.251.736h-.984c.02-.775.27-1.315.752-1.619.481-.304,1.041-.455,1.677-.455.737,0,1.336.141,1.797.422.456.281.685.719.685,1.312v3.615c0,.109.022.197.067.264s.14.1.284.1c.047,0,.1-.003.158-.009s.121-.015.188-.026v.779c-.164.047-.289.076-.375.088s-.203.018-.352.018c-.363,0-.627-.129-.791-.387-.086-.137-.146-.33-.182-.58-.215.281-.523.525-.926.732s-.846.311-1.33.311c-.582,0-1.058-.177-1.427-.53-.369-.353-.554-.795-.554-1.325,0-.581.182-1.032.545-1.352.363-.32.84-.518,1.43-.591l1.682-.211ZM483.043,175.808c.223.176.486.264.791.264.371,0,.73-.086,1.078-.258.586-.284.879-.751.879-1.398v-.848c-.129.082-.295.15-.497.206-.203.055-.401.094-.597.117l-.638.082c-.382.051-.669.13-.861.239-.326.184-.489.476-.489.877,0,.304.111.544.334.719Z"/>
      <path class="cls-9" d="M488.486,170.511h1.031v.832c.211-.285.442-.506.693-.662.356-.234.775-.352,1.257-.352.713,0,1.317.272,1.815.817.497.545.746,1.323.746,2.335,0,1.367-.359,2.344-1.077,2.93-.454.371-.984.557-1.588.557-.475,0-.872-.104-1.194-.311-.188-.117-.397-.318-.629-.604v3.205h-1.055v-8.748ZM492.454,175.43c.327-.412.491-1.028.491-1.849,0-.5-.072-.93-.218-1.289-.274-.691-.776-1.037-1.505-1.037-.733,0-1.235.365-1.505,1.096-.146.391-.218.887-.218,1.488,0,.484.072.896.218,1.236.273.648.775.973,1.505.973.493,0,.904-.206,1.231-.618Z"/>
      <path class="cls-9" d="M498.611,172.959c.242-.031.404-.133.486-.305.047-.094.07-.229.07-.405,0-.361-.128-.623-.383-.785-.256-.163-.621-.244-1.097-.244-.55,0-.939.149-1.17.447-.129.165-.212.41-.251.736h-.984c.02-.775.27-1.315.752-1.619.481-.304,1.041-.455,1.677-.455.737,0,1.336.141,1.797.422.456.281.685.719.685,1.312v3.615c0,.109.022.197.067.264s.14.1.284.1c.047,0,.1-.003.158-.009s.121-.015.188-.026v.779c-.164.047-.289.076-.375.088s-.203.018-.352.018c-.363,0-.627-.129-.791-.387-.086-.137-.146-.33-.182-.58-.215.281-.523.525-.926.732s-.846.311-1.33.311c-.582,0-1.058-.177-1.427-.53-.369-.353-.554-.795-.554-1.325,0-.581.182-1.032.545-1.352.363-.32.84-.518,1.43-.591l1.682-.211ZM496.391,175.808c.223.176.486.264.791.264.371,0,.73-.086,1.078-.258.586-.284.879-.751.879-1.398v-.848c-.129.082-.295.15-.497.206-.203.055-.401.094-.597.117l-.638.082c-.382.051-.669.13-.861.239-.326.184-.489.476-.489.877,0,.304.111.544.334.719Z"/>
      <path class="cls-9" d="M502.133,168.729h1.066v1.752h1.002v.861h-1.002v4.096c0,.219.074.365.223.439.082.043.219.064.41.064.051,0,.105-.002.164-.004.059-.003.127-.01.205-.02v.838c-.121.035-.247.061-.378.076s-.272.023-.425.023c-.492,0-.826-.126-1.002-.378s-.264-.579-.264-.981v-4.154h-.85v-.861h.85v-1.752Z"/>
      <path class="cls-9" d="M505.256,168.12h1.055v3.211c.25-.316.475-.539.674-.668.34-.223.764-.334,1.271-.334.91,0,1.527.318,1.852.955.176.348.264.83.264,1.447v4.025h-1.084v-3.955c0-.461-.059-.799-.176-1.014-.191-.344-.551-.516-1.078-.516-.438,0-.834.15-1.189.451s-.533.869-.533,1.705v3.328h-1.055v-8.637Z"/>
    </g>
    <g>
      <path d="M66.193,218.584h3.102c.845,0,1.446.25,1.804.752.209.296.314.638.314,1.025,0,.452-.128.823-.386,1.113-.133.152-.326.293-.576.42.368.14.643.298.825.474.322.312.483.743.483,1.294,0,.462-.146.88-.437,1.255-.436.56-1.128.84-2.079.84h-3.051v-7.173ZM68.931,221.616c.415,0,.737-.058.967-.171.362-.18.543-.502.543-.967,0-.469-.192-.785-.577-.947-.217-.092-.54-.137-.967-.137h-1.751v2.222h1.786ZM69.26,224.927c.601,0,1.03-.173,1.286-.518.161-.219.242-.482.242-.791,0-.521-.235-.876-.705-1.064-.25-.102-.58-.151-.991-.151h-1.947v2.524h2.115Z"/>
      <path d="M76.793,219.883c.312.576.469,1.365.469,2.368,0,.95-.142,1.736-.425,2.358-.41.892-1.081,1.338-2.012,1.338-.84,0-1.465-.365-1.875-1.094-.342-.609-.513-1.426-.513-2.451,0-.795.103-1.477.308-2.046.384-1.062,1.079-1.592,2.085-1.592.905,0,1.559.372,1.963,1.118ZM75.909,224.541c.271-.404.406-1.156.406-2.256,0-.795-.098-1.448-.293-1.961s-.576-.769-1.14-.769c-.519,0-.897.243-1.137.729-.24.487-.359,1.204-.359,2.151,0,.713.077,1.285.23,1.719.235.66.636.991,1.203.991.457,0,.82-.202,1.091-.605Z"/>
    </g>
    <g>
      <path d="M66.193,277.584h3.102c.845,0,1.446.25,1.804.752.209.296.314.638.314,1.025,0,.452-.128.823-.386,1.113-.133.152-.326.293-.576.42.368.14.643.298.825.474.322.312.483.743.483,1.294,0,.462-.146.88-.437,1.255-.436.56-1.128.84-2.079.84h-3.051v-7.173ZM68.931,280.616c.415,0,.737-.058.967-.171.362-.18.543-.502.543-.967,0-.469-.192-.785-.577-.947-.217-.092-.54-.137-.967-.137h-1.751v2.222h1.786ZM69.26,283.927c.601,0,1.03-.173,1.286-.518.161-.219.242-.482.242-.791,0-.521-.235-.876-.705-1.064-.25-.102-.58-.151-.991-.151h-1.947v2.524h2.115Z"/>
      <path d="M73.083,279.806v-.674c.635-.062,1.078-.165,1.328-.311.25-.145.438-.487.562-1.027h.693v6.963h-.938v-4.951h-1.646Z"/>
    </g>
    <g>
      <path d="M66.193,336.584h3.102c.845,0,1.446.25,1.804.752.209.296.314.638.314,1.025,0,.452-.128.823-.386,1.113-.133.152-.326.293-.576.42.368.14.643.298.825.474.322.312.483.743.483,1.294,0,.462-.146.88-.437,1.255-.436.56-1.128.84-2.079.84h-3.051v-7.173ZM68.931,339.616c.415,0,.737-.058.967-.171.362-.18.543-.502.543-.967,0-.469-.192-.785-.577-.947-.217-.092-.54-.137-.967-.137h-1.751v2.222h1.786ZM69.26,342.927c.601,0,1.03-.173,1.286-.518.161-.219.242-.482.242-.791,0-.521-.235-.876-.705-1.064-.25-.102-.58-.151-.991-.151h-1.947v2.524h2.115Z"/>
      <path d="M72.812,342.185c.216-.446.639-.852,1.267-1.216l.938-.542c.42-.244.714-.453.884-.626.267-.271.4-.58.4-.93,0-.407-.122-.731-.366-.971-.244-.24-.57-.359-.977-.359-.602,0-1.019.229-1.25.686-.124.245-.192.584-.205,1.019h-.894c.01-.609.122-1.105.337-1.489.381-.678,1.053-1.016,2.017-1.016.801,0,1.386.216,1.755.649.37.433.554.914.554,1.445,0,.56-.197,1.038-.591,1.436-.228.23-.636.511-1.226.84l-.669.371c-.319.176-.57.343-.752.503-.326.283-.531.597-.615.942h3.818v.83h-4.8c.033-.603.157-1.127.374-1.572Z"/>
    </g>
    <g>
      <path d="M66.193,395.584h3.102c.845,0,1.446.25,1.804.752.209.296.314.638.314,1.025,0,.452-.128.823-.386,1.113-.133.152-.326.293-.576.42.368.14.643.298.825.474.322.312.483.743.483,1.294,0,.462-.146.88-.437,1.255-.436.56-1.128.84-2.079.84h-3.051v-7.173ZM68.931,398.616c.415,0,.737-.058.967-.171.362-.18.543-.502.543-.967,0-.469-.192-.785-.577-.947-.217-.092-.54-.137-.967-.137h-1.751v2.222h1.786ZM69.26,401.927c.601,0,1.03-.173,1.286-.518.161-.219.242-.482.242-.791,0-.521-.235-.876-.705-1.064-.25-.102-.58-.151-.991-.151h-1.947v2.524h2.115Z"/>
      <path d="M72.924,402.266c-.373-.454-.559-1.007-.559-1.657h.918c.039.452.124.781.254.986.228.367.64.552,1.235.552.462,0,.833-.124,1.113-.371.28-.248.42-.566.42-.957,0-.482-.147-.819-.442-1.011-.294-.192-.704-.288-1.228-.288-.059,0-.118,0-.178.002-.06.002-.121.004-.183.008v-.776c.091.01.167.016.229.02.062.003.128.005.2.005.329,0,.599-.053.811-.156.371-.183.557-.508.557-.977,0-.349-.124-.617-.371-.806-.248-.189-.536-.283-.864-.283-.586,0-.991.195-1.216.586-.124.215-.194.521-.21.918h-.869c0-.521.104-.964.312-1.328.358-.651.988-.977,1.89-.977.713,0,1.265.158,1.655.476s.586.777.586,1.38c0,.43-.116.777-.347,1.045-.143.166-.329.296-.557.391.368.101.655.295.862.583s.31.641.31,1.058c0,.667-.22,1.211-.659,1.631s-1.063.63-1.87.63c-.827,0-1.427-.228-1.799-.682Z"/>
    </g>
    <g>
      <path class="cls-9" d="M40.788,352.14v-5.971h1.055v4.805h2.613v-4.225h1.025v4.225h3.914v1.166h-8.607Z"/>
      <path class="cls-9" d="M43.12,345.032v-1.002h1.084c-.211-.082-.468-.283-.771-.604s-.454-.689-.454-1.107c0-.02.002-.053.006-.1s.012-.127.023-.24h1.113c-.012.062-.02.12-.023.173s-.006.11-.006.173c0,.531.171.939.513,1.225s.735.428,1.181.428h3.609v1.055h-6.275Z"/>
      <path class="cls-9" d="M43.747,336.519c.539-.555,1.331-.832,2.376-.832,1.011,0,1.846.245,2.506.733s.989,1.246.989,2.274c0,.857-.292,1.538-.875,2.042-.583.505-1.367.757-2.351.757-1.054,0-1.893-.266-2.518-.797-.624-.532-.937-1.245-.937-2.142,0-.803.27-1.481.808-2.036ZM47.917,337.174c-.529-.258-1.117-.386-1.765-.386-.585,0-1.061.093-1.428.278-.578.293-.866.799-.866,1.518,0,.638.246,1.102.737,1.391s1.085.435,1.779.435c.667,0,1.223-.146,1.668-.435s.667-.749.667-1.379c0-.691-.264-1.166-.793-1.422Z"/>
      <path class="cls-9" d="M43.12,334.392v-1.043h.891c-.309-.25-.533-.477-.674-.68-.238-.348-.357-.742-.357-1.184,0-.5.123-.902.369-1.207.141-.172.348-.328.621-.469-.336-.234-.585-.51-.747-.826s-.243-.672-.243-1.066c0-.844.305-1.418.914-1.723.328-.164.77-.246,1.324-.246h4.178v1.096h-4.359c-.418,0-.705.104-.861.313s-.234.464-.234.765c0,.414.139.771.416,1.069s.74.448,1.389.448h3.65v1.072h-4.096c-.426,0-.736.051-.932.152-.293.16-.439.459-.439.896,0,.398.154.761.463,1.087s.867.489,1.676.489h3.328v1.055h-6.275Z"/>
      <path class="cls-9" d="M41.034,315.191c.449-.844,1.236-1.359,2.361-1.548v1.154c-.629.138-1.087.423-1.374.854-.287.433-.431.979-.431,1.636,0,.78.299,1.438.896,1.972.598.533,1.488.8,2.672.8,1.023,0,1.856-.22,2.499-.66s.964-1.158.964-2.153c0-.762-.226-1.393-.677-1.893-.451-.499-1.181-.755-2.188-.767v2.695h-.967v-3.779h4.605v.75l-1.107.281c.434.388.734.731.902,1.032.289.503.434,1.143.434,1.919,0,1.003-.33,1.866-.99,2.588-.828.788-1.965,1.182-3.41,1.182s-2.588-.385-3.439-1.155c-.812-.73-1.219-1.678-1.219-2.841,0-.797.156-1.486.469-2.067Z"/>
      <path class="cls-9" d="M43.293,307.852c.209-.416.479-.732.812-.949.316-.21.686-.35,1.107-.42.289-.062.75-.093,1.383-.093v4.564c.639-.02,1.151-.169,1.537-.448.386-.278.579-.711.579-1.296,0-.546-.183-.982-.547-1.308-.212-.183-.457-.312-.736-.388v-1.037c.23.027.487.118.771.272s.515.326.694.517c.312.317.523.712.633,1.181.062.252.094.537.094.854,0,.776-.284,1.435-.853,1.974-.568.54-1.364.81-2.388.81-1.008,0-1.826-.271-2.455-.815-.629-.543-.943-1.254-.943-2.131,0-.443.104-.872.313-1.287ZM45.757,307.474c-.457.042-.822.142-1.096.296-.508.287-.762.766-.762,1.436,0,.48.175.883.524,1.209.35.324.794.497,1.333.517v-3.457Z"/>
      <path class="cls-9" d="M43.12,305.054v-1.043h.891c-.309-.25-.533-.477-.674-.68-.238-.348-.357-.742-.357-1.184,0-.5.123-.902.369-1.207.141-.172.348-.328.621-.469-.336-.234-.585-.51-.747-.826s-.243-.672-.243-1.066c0-.844.305-1.418.914-1.723.328-.164.77-.246,1.324-.246h4.178v1.096h-4.359c-.418,0-.705.104-.861.313s-.234.464-.234.765c0,.414.139.771.416,1.069s.74.448,1.389.448h3.65v1.072h-4.096c-.426,0-.736.051-.932.152-.293.16-.439.459-.439.896,0,.398.154.761.463,1.087s.867.489,1.676.489h3.328v1.055h-6.275Z"/>
      <path class="cls-9" d="M43.12,295.058v-1.043h.891c-.309-.25-.533-.477-.674-.68-.238-.348-.357-.742-.357-1.184,0-.5.123-.902.369-1.207.141-.172.348-.328.621-.469-.336-.234-.585-.51-.747-.826s-.243-.672-.243-1.066c0-.844.305-1.418.914-1.723.328-.164.77-.246,1.324-.246h4.178v1.096h-4.359c-.418,0-.705.104-.861.313s-.234.464-.234.765c0,.414.139.771.416,1.069s.74.448,1.389.448h3.65v1.072h-4.096c-.426,0-.736.051-.932.152-.293.16-.439.459-.439.896,0,.398.154.761.463,1.087s.867.489,1.676.489h3.328v1.055h-6.275Z"/>
      <path class="cls-9" d="M40.788,285.062v-1.072h1.195v1.072h-1.195ZM43.149,285.062v-1.072h6.246v1.072h-6.246Z"/>
      <path class="cls-9" d="M43.12,282.396v-1.002h.891c-.367-.297-.631-.611-.791-.943s-.24-.701-.24-1.107c0-.891.311-1.492.932-1.805.34-.172.826-.258,1.459-.258h4.025v1.072h-3.955c-.383,0-.691.057-.926.17-.391.188-.586.527-.586,1.02,0,.25.025.455.076.615.086.289.258.543.516.762.207.176.421.29.642.343s.536.079.946.079h3.287v1.055h-6.275Z"/>
      <path class="cls-9" d="M40.788,275.722v-1.072h1.195v1.072h-1.195ZM43.149,275.722v-1.072h6.246v1.072h-6.246Z"/>
    </g>
    <g>
      <path class="cls-9" d="M282.133,20.149h5.971v1.055h-4.805v2.613h4.225v1.025h-4.225v3.914h-1.166v-8.607Z"/>
      <path class="cls-9" d="M289.241,22.481h1.002v1.084c.082-.211.283-.468.604-.771s.689-.454,1.107-.454c.02,0,.053.002.1.006s.127.012.24.023v1.113c-.062-.012-.12-.02-.173-.023s-.11-.006-.173-.006c-.531,0-.939.171-1.225.513s-.428.735-.428,1.181v3.609h-1.055v-6.275Z"/>
      <path class="cls-9" d="M297.754,23.107c.555.539.832,1.331.832,2.377,0,1.011-.245,1.846-.733,2.506-.488.659-1.247.989-2.274.989-.857,0-1.538-.292-2.042-.875-.504-.584-.756-1.367-.756-2.351,0-1.054.266-1.894.797-2.518.532-.624,1.245-.937,2.141-.937.803,0,1.482.27,2.037.808ZM297.1,27.278c.257-.529.385-1.117.385-1.765,0-.585-.093-1.062-.278-1.428-.293-.578-.799-.866-1.518-.866-.638,0-1.101.245-1.391.737-.29.491-.435,1.085-.435,1.779,0,.667.145,1.223.435,1.668.29.444.749.667,1.379.667.691,0,1.166-.265,1.422-.793Z"/>
      <path class="cls-9" d="M299.881,22.481h1.043v.891c.25-.309.477-.533.68-.674.348-.238.742-.357,1.184-.357.5,0,.902.123,1.207.369.172.141.328.348.469.621.234-.336.51-.585.826-.747s.672-.243,1.066-.243c.844,0,1.418.305,1.723.914.164.328.246.77.246,1.324v4.178h-1.096v-4.359c0-.418-.104-.705-.313-.861s-.464-.234-.765-.234c-.414,0-.771.139-1.069.416s-.448.74-.448,1.389v3.65h-1.072v-4.096c0-.426-.051-.736-.152-.932-.16-.293-.459-.439-.896-.439-.398,0-.761.154-1.087.463s-.489.867-.489,1.676v3.328h-1.055v-6.275Z"/>
      <path class="cls-9" d="M319.44,20.776c.594.574.925,1.227.99,1.957h-1.137c-.126-.555-.379-.994-.757-1.318s-.908-.486-1.591-.486c-.833,0-1.505.298-2.017.895-.512.596-.768,1.51-.768,2.741,0,1.009.231,1.826.693,2.454s1.152.941,2.069.941c.844,0,1.487-.33,1.928-.99.234-.348.409-.805.524-1.371h1.137c-.101.906-.433,1.666-.996,2.279-.676.738-1.587,1.107-2.734,1.107-.989,0-1.819-.303-2.491-.909-.884-.801-1.326-2.038-1.326-3.711,0-1.271.332-2.312.996-3.125.718-.884,1.708-1.325,2.971-1.325,1.077,0,1.913.287,2.508.861Z"/>
      <path class="cls-9" d="M326.424,23.107c.555.539.832,1.331.832,2.377,0,1.011-.245,1.846-.733,2.506-.488.659-1.247.989-2.274.989-.857,0-1.538-.292-2.042-.875-.504-.584-.756-1.367-.756-2.351,0-1.054.266-1.894.797-2.518.532-.624,1.245-.937,2.141-.937.803,0,1.482.27,2.037.808ZM325.77,27.278c.257-.529.385-1.117.385-1.765,0-.585-.093-1.062-.278-1.428-.293-.578-.799-.866-1.518-.866-.638,0-1.101.245-1.391.737-.29.491-.435,1.085-.435,1.779,0,.667.145,1.223.435,1.668.29.444.749.667,1.379.667.691,0,1.166-.265,1.422-.793Z"/>
      <path class="cls-9" d="M328.581,22.481h1.002v1.084c.082-.211.283-.468.604-.771s.689-.454,1.107-.454c.02,0,.053.002.1.006s.127.012.24.023v1.113c-.062-.012-.12-.02-.173-.023s-.11-.006-.173-.006c-.531,0-.939.171-1.225.513s-.428.735-.428,1.181v3.609h-1.055v-6.275Z"/>
      <path class="cls-9" d="M336.423,22.654c.416.209.732.479.949.812.21.316.35.686.419,1.107.062.289.093.75.093,1.383h-4.564c.02.639.168,1.15.448,1.536.279.386.711.579,1.296.579.546,0,.982-.183,1.308-.548.182-.212.311-.457.387-.735h1.037c-.027.23-.118.487-.272.771s-.327.515-.517.694c-.318.312-.711.523-1.18.633-.252.062-.537.094-.855.094-.776,0-1.434-.284-1.974-.853-.54-.568-.81-1.364-.81-2.388,0-1.008.271-1.826.815-2.455.543-.629,1.254-.943,2.131-.943.442,0,.872.104,1.287.313ZM336.801,25.118c-.042-.457-.142-.822-.296-1.096-.287-.508-.765-.762-1.435-.762-.48,0-.883.175-1.208.524s-.498.794-.517,1.333h3.457Z"/>
      <path class="cls-9" d="M342.93,22.815v-.809c.762-.074,1.293-.198,1.594-.372s.525-.585.674-1.233h.832v8.355h-1.125v-5.941h-1.975Z"/>
    </g>
    <g>
      <path d="M322.633,435.096c-.373-.454-.559-1.007-.559-1.657h.918c.039.452.124.781.254.986.228.367.64.552,1.235.552.462,0,.833-.124,1.113-.371.28-.248.42-.566.42-.957,0-.482-.147-.819-.442-1.011-.294-.192-.704-.288-1.228-.288-.059,0-.118,0-.178.002-.06.002-.121.004-.183.008v-.776c.091.01.167.016.229.02.062.003.128.005.2.005.329,0,.599-.053.811-.156.371-.183.557-.508.557-.977,0-.349-.124-.617-.371-.806-.248-.189-.536-.283-.864-.283-.586,0-.991.195-1.216.586-.124.215-.194.521-.21.918h-.869c0-.521.104-.964.312-1.328.358-.651.988-.977,1.89-.977.713,0,1.265.158,1.655.476s.586.777.586,1.38c0,.43-.116.777-.347,1.045-.143.166-.329.296-.557.391.368.101.655.295.862.583s.31.641.31,1.058c0,.667-.22,1.211-.659,1.631s-1.063.63-1.87.63c-.827,0-1.427-.228-1.799-.682Z"/>
      <path d="M328.227,436.612c.225-.039.382-.198.474-.477.049-.146.073-.289.073-.427,0-.022,0-.043-.002-.061-.001-.019-.006-.039-.012-.062h-.532v-1.064h1.045v.986c0,.387-.078.728-.234,1.021s-.426.474-.811.542v-.459Z"/>
      <path d="M333.91,430.636v-.674c.635-.062,1.078-.165,1.328-.311.25-.145.438-.487.562-1.027h.693v6.963h-.938v-4.951h-1.646Z"/>
      <path d="M339.75,433.805c.059.501.292.848.698,1.04.208.098.449.146.723.146.521,0,.907-.166,1.157-.498s.376-.7.376-1.104c0-.488-.149-.866-.447-1.133-.298-.268-.655-.4-1.072-.4-.303,0-.562.059-.779.176s-.401.279-.554.488l-.762-.044.532-3.765h3.633v.85h-2.974l-.298,1.943c.163-.124.317-.217.464-.278.26-.107.562-.161.903-.161.641,0,1.185.206,1.631.62.446.413.669.938.669,1.572,0,.66-.204,1.243-.613,1.748-.409.504-1.061.757-1.956.757-.57,0-1.073-.16-1.511-.481-.438-.32-.683-.812-.735-1.477h.913Z"/>
    </g>
    <g>
      <path d="M109.284,252.713c.312.576.469,1.365.469,2.368,0,.95-.142,1.736-.425,2.358-.41.892-1.081,1.338-2.012,1.338-.84,0-1.465-.365-1.875-1.094-.342-.609-.513-1.426-.513-2.451,0-.795.103-1.477.308-2.046.384-1.062,1.079-1.592,2.085-1.592.905,0,1.559.372,1.963,1.118ZM108.399,257.371c.271-.404.406-1.156.406-2.256,0-.795-.098-1.448-.293-1.961s-.576-.769-1.14-.769c-.519,0-.897.243-1.137.729-.24.487-.359,1.204-.359,2.151,0,.713.077,1.285.23,1.719.235.66.636.991,1.203.991.457,0,.82-.202,1.091-.605Z"/>
      <path d="M111.007,259.612c.225-.039.382-.198.474-.477.049-.146.073-.289.073-.427,0-.022,0-.043-.002-.061-.001-.019-.006-.039-.012-.062h-.532v-1.064h1.045v.986c0,.387-.078.728-.234,1.021s-.426.474-.811.542v-.459Z"/>
      <path d="M120.402,252.713c.312.576.469,1.365.469,2.368,0,.95-.142,1.736-.425,2.358-.41.892-1.081,1.338-2.012,1.338-.84,0-1.465-.365-1.875-1.094-.342-.609-.513-1.426-.513-2.451,0-.795.103-1.477.308-2.046.384-1.062,1.079-1.592,2.085-1.592.905,0,1.559.372,1.963,1.118ZM119.518,257.371c.271-.404.406-1.156.406-2.256,0-.795-.098-1.448-.293-1.961s-.576-.769-1.14-.769c-.519,0-.897.243-1.137.729-.24.487-.359,1.204-.359,2.151,0,.713.077,1.285.23,1.719.235.66.636.991,1.203.991.457,0,.82-.202,1.091-.605Z"/>
    </g>
    <g>
      <polyline class="cls-5" points="130.011 34 130.011 44.999 215 44.999 215 52.412"/>
      <polygon points="212.507 51.682 215 56 217.493 51.682 212.507 51.682"/>
    </g>
    <g>
      <polyline class="cls-5" points="314.989 34 314.989 44.999 230 44.999 230 52.412"/>
      <polygon points="227.507 51.682 230 56 232.493 51.682 227.507 51.682"/>
    </g>
    <line class="cls-5" x1="169.488" y1="48.129" x2="175.536" y2="42.081"/>
    <line class="cls-5" x1="271.488" y1="48.129" x2="277.536" y2="42.081"/>
    <g>
      <path class="cls-9" d="M154.965,54.028v-.674c.635-.062,1.078-.165,1.328-.31.25-.146.438-.487.562-1.028h.693v6.963h-.938v-4.951h-1.646Z"/>
      <path class="cls-9" d="M164.127,52.566c.308.405.461.822.461,1.252h-.869c-.052-.276-.135-.493-.249-.649-.211-.293-.532-.439-.962-.439-.492,0-.882.228-1.172.682s-.451,1.104-.483,1.95c.202-.296.456-.518.762-.664.28-.13.592-.195.938-.195.586,0,1.097.188,1.533.562.436.375.654.933.654,1.675,0,.635-.207,1.197-.62,1.688-.414.489-1.002.734-1.768.734-.654,0-1.219-.248-1.694-.744-.475-.497-.713-1.332-.713-2.508,0-.869.106-1.606.317-2.212.407-1.158,1.151-1.738,2.231-1.738.781,0,1.326.203,1.633.608ZM163.468,57.913c.229-.312.344-.678.344-1.102,0-.357-.103-.699-.308-1.022-.205-.324-.578-.486-1.118-.486-.377,0-.709.126-.994.376-.285.251-.427.629-.427,1.133,0,.443.129.814.388,1.116.259.301.618.451,1.077.451.462,0,.808-.155,1.038-.466Z"/>
      <path class="cls-9" d="M165.277,53.75h1.138l1.201,1.841,1.216-1.841,1.069.024-1.763,2.524,1.841,2.681h-1.123l-1.299-1.963-1.26,1.963h-1.113l1.841-2.681-1.748-2.549Z"/>
      <path class="cls-9" d="M170.929,58.489c-.373-.454-.559-1.007-.559-1.658h.918c.039.453.124.781.254.986.228.368.64.552,1.235.552.462,0,.833-.123,1.113-.371.28-.247.42-.566.42-.957,0-.481-.147-.818-.442-1.011-.294-.191-.704-.288-1.228-.288-.059,0-.118,0-.178.003-.06,0-.121.004-.183.007v-.776c.091.01.167.017.229.02.062.004.128.005.2.005.329,0,.599-.052.811-.156.371-.182.557-.508.557-.977,0-.348-.124-.616-.371-.806-.248-.188-.536-.283-.864-.283-.586,0-.991.195-1.216.586-.124.215-.194.521-.21.918h-.869c0-.521.104-.963.312-1.328.358-.65.988-.977,1.89-.977.713,0,1.265.159,1.655.477s.586.777.586,1.379c0,.43-.116.778-.347,1.045-.143.166-.329.297-.557.391.368.102.655.296.862.584s.31.641.31,1.057c0,.668-.22,1.211-.659,1.631s-1.063.63-1.87.63c-.827,0-1.427-.227-1.799-.681Z"/>
      <path class="cls-9" d="M176.378,57.407c.216-.445.639-.851,1.267-1.216l.938-.542c.42-.244.714-.452.884-.625.267-.271.4-.581.4-.93,0-.408-.122-.731-.366-.972-.244-.239-.57-.359-.977-.359-.602,0-1.019.229-1.25.686-.124.245-.192.585-.205,1.019h-.894c.01-.608.122-1.104.337-1.489.381-.677,1.053-1.016,2.017-1.016.801,0,1.386.217,1.755.649.37.434.554.915.554,1.445,0,.561-.197,1.039-.591,1.436-.228.231-.636.512-1.226.84l-.669.371c-.319.176-.57.344-.752.503-.326.283-.531.598-.615.942h3.818v.83h-4.8c.033-.602.157-1.126.374-1.572Z"/>
      <path class="cls-9" d="M181.825,51.782h.854v2.603c.193-.25.423-.441.691-.573.268-.132.559-.198.873-.198.654,0,1.184.224,1.591.672.407.447.61,1.107.61,1.979,0,.827-.201,1.514-.603,2.061s-.959.82-1.671.82c-.399,0-.735-.096-1.01-.288-.164-.113-.338-.296-.524-.547v.669h-.811v-7.197ZM185.186,57.803c.237-.377.355-.875.355-1.494,0-.55-.118-1.006-.355-1.367-.236-.361-.585-.542-1.046-.542-.401,0-.753.148-1.056.444-.302.297-.453.785-.453,1.465,0,.492.062.891.186,1.196.232.576.665.864,1.298.864.477,0,.834-.188,1.07-.566Z"/>
    </g>
    <line class="cls-5" x1="104" y1="171" x2="341" y2="190"/>
    <line class="cls-5" x1="104.613" y1="190.041" x2="341.613" y2="171.041"/>
    <g>
      <path d="M218.938,128.97h1.225v1.277h-1.225v-1.277Z"/>
      <path d="M222.272,128.97h1.225v1.277h-1.225v-1.277Z"/>
      <path d="M225.606,128.97h1.225v1.277h-1.225v-1.277Z"/>
    </g>
    <g>
      <path d="M218.938,253.97h1.225v1.277h-1.225v-1.277Z"/>
      <path d="M222.272,253.97h1.225v1.277h-1.225v-1.277Z"/>
      <path d="M225.606,253.97h1.225v1.277h-1.225v-1.277Z"/>
    </g>
    <g>
      <path d="M218.938,312.97h1.225v1.277h-1.225v-1.277Z"/>
      <path d="M222.272,312.97h1.225v1.277h-1.225v-1.277Z"/>
      <path d="M225.606,312.97h1.225v1.277h-1.225v-1.277Z"/>
    </g>
    <g>
      <path d="M218.938,430.97h1.225v1.277h-1.225v-1.277Z"/>
      <path d="M222.272,430.97h1.225v1.277h-1.225v-1.277Z"/>
      <path d="M225.606,430.97h1.225v1.277h-1.225v-1.277Z"/>
    </g>
    <g>
      <path d="M218.938,371.97h1.225v1.277h-1.225v-1.277Z"/>
      <path d="M222.272,371.97h1.225v1.277h-1.225v-1.277Z"/>
      <path d="M225.606,371.97h1.225v1.277h-1.225v-1.277Z"/>
    </g>
    <g>
      <polyline class="cls-5" points="143 407.5 136.317 407.5 118 407.5 118 412.412"/>
      <polygon points="115.507 411.682 118 416 120.493 411.682 115.507 411.682"/>
    </g>
    <line class="cls-5" x1="80.5" y1="398.5" x2="326" y2="398.5"/>
    <line class="cls-5" x1="80.5" y1="339.5" x2="326" y2="339.5"/>
    <line class="cls-5" x1="80.5" y1="280.5" x2="326" y2="280.5"/>
    <line class="cls-5" x1="80.5" y1="221.5" x2="326" y2="221.5"/>
    <g>
      <line class="cls-5" x1="106.5" y1="398" x2="106.5" y2="412.412"/>
      <polygon points="104.007 411.682 106.5 416 108.993 411.682 104.007 411.682"/>
    </g>
    <g>
      <polyline class="cls-5" points="143 348.5 136.317 348.5 118 348.5 118 353.412"/>
      <polygon points="115.507 352.682 118 357 120.493 352.682 115.507 352.682"/>
    </g>
    <g>
      <line class="cls-5" x1="106.5" y1="339" x2="106.5" y2="353.412"/>
      <polygon points="104.007 352.682 106.5 357 108.993 352.682 104.007 352.682"/>
    </g>
    <g>
      <polyline class="cls-5" points="143 289.5 136.317 289.5 118 289.5 118 294.412"/>
      <polygon points="115.507 293.682 118 298 120.493 293.682 115.507 293.682"/>
    </g>
    <g>
      <line class="cls-5" x1="106.5" y1="280" x2="106.5" y2="294.412"/>
      <polygon points="104.007 293.682 106.5 298 108.993 293.682 104.007 293.682"/>
    </g>
    <g>
      <polyline class="cls-5" points="143 230.5 136.317 230.5 118 230.5 118 235.412"/>
      <polygon points="115.507 234.682 118 239 120.493 234.682 115.507 234.682"/>
    </g>
    <g>
      <line class="cls-5" x1="106.5" y1="221" x2="106.5" y2="235.412"/>
      <polygon points="104.007 234.682 106.5 239 108.993 234.682 104.007 234.682"/>
    </g>
    <g>
      <polyline class="cls-5" points="203 407.5 196.317 407.5 178 407.5 178 412.412"/>
      <polygon points="175.507 411.682 178 416 180.493 411.682 175.507 411.682"/>
    </g>
    <g>
      <polyline class="cls-5" points="203 348.5 196.317 348.5 178 348.5 178 353.412"/>
      <polygon points="175.507 352.682 178 357 180.493 352.682 175.507 352.682"/>
    </g>
    <g>
      <polyline class="cls-5" points="203 289.5 196.317 289.5 178 289.5 178 294.412"/>
      <polygon points="175.507 293.682 178 298 180.493 293.682 175.507 293.682"/>
    </g>
    <g>
      <polyline class="cls-5" points="203 230.5 196.317 230.5 178 230.5 178 235.412"/>
      <polygon points="175.507 234.682 178 239 180.493 234.682 175.507 234.682"/>
    </g>
    <g>
      <polyline class="cls-5" points="303 407.5 296.317 407.5 278 407.5 278 412.412"/>
      <polygon points="275.507 411.682 278 416 280.493 411.682 275.507 411.682"/>
    </g>
    <g>
      <polyline class="cls-5" points="303 348.5 296.317 348.5 278 348.5 278 353.412"/>
      <polygon points="275.507 352.682 278 357 280.493 352.682 275.507 352.682"/>
    </g>
    <g>
      <polyline class="cls-5" points="303 289.5 296.317 289.5 278 289.5 278 294.412"/>
      <polygon points="275.507 293.682 278 298 280.493 293.682 275.507 293.682"/>
    </g>
    <g>
      <polyline class="cls-5" points="303 230.5 296.317 230.5 278 230.5 278 235.412"/>
      <polygon points="275.507 234.682 278 239 280.493 234.682 275.507 234.682"/>
    </g>
    <g>
      <polyline class="cls-5" points="363 407.5 356.317 407.5 338 407.5 338 412.412"/>
      <polygon points="335.507 411.682 338 416 340.493 411.682 335.507 411.682"/>
    </g>
    <g>
      <polyline class="cls-5" points="363 348.5 356.317 348.5 338 348.5 338 353.412"/>
      <polygon points="335.507 352.682 338 357 340.493 352.682 335.507 352.682"/>
    </g>
    <g>
      <polyline class="cls-5" points="363 289.5 356.317 289.5 338 289.5 338 294.412"/>
      <polygon points="335.507 293.682 338 298 340.493 293.682 335.507 293.682"/>
    </g>
    <g>
      <polyline class="cls-5" points="363 230.5 356.317 230.5 338 230.5 338 235.412"/>
      <polygon points="335.507 234.682 338 239 340.493 234.682 335.507 234.682"/>
    </g>
    <g>
      <line class="cls-5" x1="166.5" y1="221" x2="166.5" y2="235.412"/>
      <polygon points="164.007 234.682 166.5 239 168.993 234.682 164.007 234.682"/>
    </g>
    <g>
      <line class="cls-5" x1="266.5" y1="221" x2="266.5" y2="235.412"/>
      <polygon points="264.007 234.682 266.5 239 268.993 234.682 264.007 234.682"/>
    </g>
    <g>
      <line class="cls-5" x1="326.5" y1="221" x2="326.5" y2="235.412"/>
      <polygon points="324.007 234.682 326.5 239 328.993 234.682 324.007 234.682"/>
    </g>
    <g>
      <line class="cls-5" x1="166.5" y1="280" x2="166.5" y2="294.412"/>
      <polygon points="164.007 293.682 166.5 298 168.993 293.682 164.007 293.682"/>
    </g>
    <g>
      <line class="cls-5" x1="266.5" y1="280" x2="266.5" y2="294.412"/>
      <polygon points="264.007 293.682 266.5 298 268.993 293.682 264.007 293.682"/>
    </g>
    <g>
      <line class="cls-5" x1="326.5" y1="280" x2="326.5" y2="294.412"/>
      <polygon points="324.007 293.682 326.5 298 328.993 293.682 324.007 293.682"/>
    </g>
    <g>
      <line class="cls-5" x1="166.5" y1="339" x2="166.5" y2="353.412"/>
      <polygon points="164.007 352.682 166.5 357 168.993 352.682 164.007 352.682"/>
    </g>
    <g>
      <line class="cls-5" x1="266.5" y1="339" x2="266.5" y2="353.412"/>
      <polygon points="264.007 352.682 266.5 357 268.993 352.682 264.007 352.682"/>
    </g>
    <g>
      <line class="cls-5" x1="326.5" y1="339" x2="326.5" y2="353.412"/>
      <polygon points="324.007 352.682 326.5 357 328.993 352.682 324.007 352.682"/>
    </g>
    <g>
      <line class="cls-5" x1="166.5" y1="398" x2="166.5" y2="412.412"/>
      <polygon points="164.007 411.682 166.5 416 168.993 411.682 164.007 411.682"/>
    </g>
    <g>
      <line class="cls-5" x1="266.5" y1="398" x2="266.5" y2="412.412"/>
      <polygon points="264.007 411.682 266.5 416 268.993 411.682 264.007 411.682"/>
    </g>
    <g>
      <line class="cls-5" x1="326.5" y1="398" x2="326.5" y2="412.412"/>
      <polygon points="324.007 411.682 326.5 416 328.993 411.682 324.007 411.682"/>
    </g>
    <g>
      <polyline class="cls-5" points="112.5 201.192 112.5 212.5 142.5 212.5 142.5 407.5"/>
      <polygon points="110.007 201.921 112.5 197.604 114.993 201.921 110.007 201.921"/>
    </g>
    <g>
      <polyline class="cls-5" points="172.5 201.192 172.5 212.5 202.5 212.5 202.5 407.5"/>
      <polygon points="170.007 201.921 172.5 197.604 174.993 201.921 170.007 201.921"/>
    </g>
    <g>
      <polyline class="cls-5" points="272.5 201.192 272.5 212.5 302.5 212.5 302.5 407.5"/>
      <polygon points="270.007 201.921 272.5 197.604 274.993 201.921 270.007 201.921"/>
    </g>
    <g>
      <polyline class="cls-5" points="332.5 201.192 332.5 212.5 362.5 212.5 362.5 407.5"/>
      <polygon points="330.007 201.921 332.5 197.604 334.993 201.921 330.007 201.921"/>
    </g>
    <g>
      <line class="cls-3" x1="487.5" y1="447.458" x2="487.5" y2="446.958"/>
      <line class="cls-1" x1="487.5" y1="445.944" x2="487.5" y2="379.549"/>
      <line class="cls-3" x1="487.5" y1="379.042" x2="487.5" y2="378.542"/>
      <polygon class="cls-9" points="489.545 445.801 489.179 445.46 487.5 447.266 485.822 445.46 485.456 445.801 487.5 448 489.545 445.801"/>
      <polygon class="cls-9" points="489.545 380.199 489.179 380.54 487.501 378.734 485.822 380.54 485.456 380.199 487.501 378 489.545 380.199"/>
    </g>
    <g class="cls-10">
      <g>
        <line class="cls-5" x1="348.5" y1="416.5" x2="348.925" y2="416.237"/>
        <line class="cls-7" x1="349.776" y1="415.71" x2="410.649" y2="378.027"/>
        <line class="cls-5" x1="411.075" y1="377.763" x2="411.5" y2="377.5"/>
      </g>
    </g>
    <g class="cls-10">
      <g>
        <line class="cls-5" x1="348.5" y1="448.5" x2="349" y2="448.5"/>
        <line class="cls-6" x1="349.984" y1="448.5" x2="410.508" y2="448.5"/>
        <line class="cls-5" x1="411" y1="448.5" x2="411.5" y2="448.5"/>
      </g>
    </g>
    <g class="cls-10">
      <g>
        <line class="cls-5" x1="37" y1="156.5" x2="37.5" y2="156.5"/>
        <line class="cls-4" x1="38.498" y1="156.5" x2="517.001" y2="156.5"/>
        <line class="cls-5" x1="517.5" y1="156.5" x2="518" y2="156.5"/>
      </g>
    </g>
    <line class="cls-5" x1="481" y1="357" x2="486" y2="357"/>
    <g>
      <rect class="cls-8" x="441" y="410.5" width="12" height="5"/>
      <g>
        <path class="cls-9" d="M446.524,414.303h-1v1.918h-.882v-1.918h-3.146v-.791l2.772-4.563h1.255v4.563h1v.791ZM442.442,413.512h2.2v-3.563l-2.2,3.563Z"/>
        <path class="cls-9" d="M447.752,416.221v-7.272h2.1c.691,0,1.205.142,1.541.424s.504.711.504,1.288v.419c0,.303-.083.56-.25.769-.166.21-.398.342-.695.396v.264c.37.036.664.187.883.449.218.264.326.602.326,1.013v.399c0,.623-.186,1.088-.559,1.394s-.938.458-1.695.458h-2.154ZM448.633,412.048h1.282c.388,0,.671-.08.851-.24.178-.161.268-.423.268-.787v-.245c0-.363-.09-.627-.268-.791-.18-.163-.463-.245-.851-.245h-1.282v2.309ZM448.633,415.43h1.438c.418,0,.724-.092.918-.276.193-.184.291-.479.291-.883v-.281c0-.404-.098-.697-.291-.878-.194-.182-.5-.272-.918-.272h-1.438v2.591Z"/>
      </g>
    </g>
    <g>
      <path d="M434.056,385.639v-.674c.635-.062,1.078-.165,1.328-.311.25-.145.438-.487.562-1.027h.693v6.963h-.938v-4.951h-1.646Z"/>
      <path d="M439.539,383.417h3.26c.537,0,.98.08,1.328.239.662.306.993.871.993,1.694,0,.43-.089.781-.267,1.055-.177.273-.426.493-.744.659.279.114.49.264.633.449.141.186.221.486.236.903l.034.962c.01.273.032.477.068.61.059.228.163.374.312.439v.161h-1.191c-.032-.062-.059-.142-.078-.239s-.036-.286-.049-.566l-.059-1.196c-.022-.469-.191-.783-.508-.942-.181-.088-.464-.132-.849-.132h-2.149v3.076h-.972v-7.173ZM442.695,386.703c.443,0,.793-.091,1.051-.273.259-.183.388-.511.388-.986,0-.511-.181-.859-.542-1.045-.192-.098-.45-.146-.773-.146h-2.308v2.451h2.185Z"/>
      <path d="M446.839,385.639v-.674c.635-.062,1.077-.165,1.328-.311.251-.145.438-.487.562-1.027h.693v6.963h-.938v-4.951h-1.646Z"/>
      <path d="M452.682,383.417l1.352,5.827,1.621-5.827h1.051l1.625,5.839,1.353-5.839h1.065l-1.885,7.173h-1.021l-1.654-5.947-1.666,5.947h-1.02l-1.875-7.173h1.055Z"/>
    </g>
    <line class="cls-5" x1="112" y1="84.5" x2="333" y2="84.5"/>
    <g>
      <path d="M433.772,293.809c-.449,0-.83-.127-1.146-.382-.315-.254-.473-.646-.473-1.173,0-.473.146-.847.437-1.122.291-.276.648-.414,1.073-.414h1.646v-.818c0-.278-.088-.503-.264-.672-.176-.17-.439-.255-.791-.255-.364,0-.633.062-.809.187s-.315.386-.418.786l-.763-.218c.097-.516.31-.903.641-1.164.33-.261.777-.391,1.341-.391.558,0,1.021.132,1.391.396.37.265.555.67.555,1.216v2.532c0,.31.082.508.245.593s.409.097.736.036v.8c-.382.061-.717.032-1.004-.086-.288-.118-.447-.393-.477-.823h-.173c-.152.279-.383.511-.695.695-.312.186-.663.277-1.05.277ZM433.9,293.055c.297,0,.563-.059.8-.174.236-.116.439-.311.609-.585v-.905h-1.427c-.261,0-.47.062-.627.183-.158.122-.236.332-.236.631,0,.269.068.478.205.626.136.149.362.225.677.225Z"/>
      <path d="M440.636,293.809c-.74,0-1.294-.171-1.664-.514-.37-.342-.555-.838-.555-1.486v-1.6c0-.667.185-1.173.555-1.519.369-.345.921-.518,1.654-.518.648,0,1.147.154,1.495.463.349.31.544.776.587,1.4l-.864.046c-.024-.4-.135-.687-.332-.859-.197-.173-.495-.259-.896-.259-.442,0-.774.1-.995.3-.222.2-.332.512-.332.937v1.618c0,.412.11.715.332.909.221.193.556.29,1.004.29.4,0,.698-.07.896-.213.197-.143.305-.384.323-.723l.864.045c-.037.563-.228.985-.573,1.264-.345.279-.845.418-1.5.418Z"/>
      <path d="M446.654,293.809c-.74,0-1.295-.171-1.664-.514-.37-.342-.555-.838-.555-1.486v-1.6c0-.667.185-1.173.555-1.519.369-.345.921-.518,1.654-.518.648,0,1.147.154,1.496.463.348.31.544.776.586,1.4l-.863.046c-.024-.4-.135-.687-.332-.859s-.495-.259-.896-.259c-.442,0-.774.1-.995.3-.222.2-.332.512-.332.937v1.618c0,.412.11.715.332.909.221.193.556.29,1.004.29.4,0,.698-.07.896-.213s.305-.384.323-.723l.863.045c-.036.563-.228.985-.572,1.264-.346.279-.846.418-1.5.418Z"/>
      <path d="M454.681,292.527c-.151.448-.383.774-.695.977-.312.203-.786.305-1.423.305-.66,0-1.177-.169-1.55-.509-.373-.339-.559-.839-.559-1.5v-1.591c0-.679.195-1.188.586-1.527.391-.339.898-.509,1.522-.509.631,0,1.137.173,1.519.518.382.346.572.876.572,1.591v.882h-3.327v.637c0,.448.102.77.305.964.203.193.514.291.932.291.395,0,.681-.062.859-.187s.316-.323.414-.596l.845.255ZM451.326,290.218v.273h2.455v-.191c0-.479-.104-.827-.31-1.046-.206-.218-.512-.327-.918-.327s-.712.106-.918.318-.31.536-.31.973Z"/>
      <path d="M456.48,293.718v-.791h1.664v-5.69h-1.664v-.791h2.546v6.481h1.654v.791h-4.2Z"/>
      <path d="M435.809,303.718v-5.454h.882v.872h.246c.115-.333.294-.577.536-.731s.533-.231.873-.231c.382,0,.697.132.946.396s.373.638.373,1.122v.837h-.836v-.519c0-.346-.068-.599-.205-.759-.136-.161-.35-.241-.641-.241-.261,0-.499.07-.714.209-.215.14-.408.352-.577.637v3.863h-.882Z"/>
      <path d="M445.654,302.527c-.151.448-.384.774-.695.977-.312.203-.786.305-1.423.305-.661,0-1.178-.169-1.55-.509-.373-.339-.559-.839-.559-1.5v-1.591c0-.679.195-1.188.586-1.527.391-.339.898-.509,1.522-.509.63,0,1.137.173,1.518.518.382.346.573.876.573,1.591v.882h-3.327v.637c0,.448.102.77.305.964.203.193.514.291.932.291.394,0,.68-.062.859-.187.179-.124.316-.323.413-.596l.846.255ZM442.3,300.218v.273h2.454v-.191c0-.479-.103-.827-.309-1.046-.206-.218-.513-.327-.918-.327s-.713.106-.919.318-.309.536-.309.973Z"/>
      <path d="M450.772,305.536v-2.663h-.255c-.146.303-.346.534-.6.695-.255.16-.543.24-.864.24-.515,0-.912-.176-1.19-.527-.279-.351-.418-.851-.418-1.5v-1.591c0-.648.203-1.146.608-1.495.406-.349.925-.522,1.555-.522.37,0,.73.047,1.082.141s.67.226.954.396v6.827h-.872ZM449.3,302.973c.272,0,.53-.076.772-.228s.476-.382.7-.69v-2.791c-.176-.109-.359-.189-.55-.241-.191-.052-.393-.077-.604-.077-.382,0-.694.104-.937.313-.243.209-.364.526-.364.95v1.5c0,.424.082.741.246.95.163.209.409.313.736.313Z"/>
      <path d="M455.645,303.809c-.43,0-.847-.063-1.25-.19-.402-.127-.765-.32-1.086-.58l.373-.698c.272.211.58.377.922.497.343.121.689.181,1.041.181.315,0,.594-.051.837-.153.242-.103.363-.301.363-.597,0-.271-.106-.462-.318-.574-.212-.111-.6-.212-1.163-.303-.643-.104-1.118-.274-1.428-.515-.309-.24-.464-.601-.464-1.081,0-.528.187-.931.56-1.208.373-.276.822-.414,1.35-.414.395,0,.777.069,1.15.209s.711.33,1.014.572l-.373.7c-.254-.2-.533-.365-.836-.495-.304-.131-.618-.195-.945-.195-.291,0-.538.058-.741.172-.203.115-.305.312-.305.592,0,.26.104.448.31.563s.594.218,1.163.309c.648.104,1.128.282,1.437.536.31.255.464.606.464,1.055,0,.546-.205.952-.614,1.219-.408.267-.895.399-1.459.399Z"/>
    </g>
    <g>
      <path d="M490.94,359.218v-.791h1.664v-5.69h-1.664v-.791h2.546v6.481h1.654v.791h-4.2Z"/>
      <path d="M499.05,359.309c-.673,0-1.19-.173-1.555-.518-.364-.346-.546-.84-.546-1.482v-1.6c0-.648.182-1.15.546-1.505s.885-.531,1.563-.531c.666,0,1.182.177,1.545.531.364.354.546.856.546,1.505v1.591c0,.648-.182,1.146-.546,1.491-.363.345-.881.518-1.554.518ZM499.05,358.518c.412,0,.72-.097.923-.29.203-.194.305-.5.305-.919v-1.6c0-.424-.102-.738-.305-.941-.203-.202-.511-.304-.923-.304s-.72.102-.923.304c-.203.203-.305.518-.305.941v1.6c0,.419.102.725.305.919.203.193.51.29.923.29Z"/>
      <path d="M505.795,359.218l-.727-3.563-.701,3.563h-.973l-.936-5.454h.836l.618,4.754.646-3.854h.982l.709,3.71.59-4.609h.837l-.937,5.454h-.945Z"/>
      <path d="M513.213,358.027c-.151.448-.383.774-.695.977-.312.203-.786.305-1.423.305-.661,0-1.177-.169-1.55-.509-.373-.339-.559-.839-.559-1.5v-1.591c0-.679.195-1.188.586-1.527.391-.339.898-.509,1.522-.509.63,0,1.137.173,1.519.518.381.346.572.876.572,1.591v.882h-3.327v.637c0,.448.102.77.305.964.203.193.514.291.932.291.394,0,.681-.062.859-.187s.316-.323.413-.596l.846.255ZM509.858,355.718v.273h2.454v-.191c0-.479-.103-.827-.309-1.046-.206-.218-.512-.327-.918-.327s-.713.106-.918.318c-.207.212-.31.536-.31.973Z"/>
      <path d="M517.186,359.309c-.43,0-.848-.063-1.25-.19s-.766-.32-1.086-.58l.373-.698c.271.211.58.377.922.497.342.121.689.181,1.041.181.314,0,.594-.051.836-.153s.364-.301.364-.597c0-.271-.106-.462-.318-.574-.212-.111-.601-.212-1.163-.303-.643-.104-1.119-.274-1.428-.515s-.464-.601-.464-1.081c0-.528.187-.931.56-1.208.373-.276.822-.414,1.35-.414.395,0,.777.069,1.15.209s.711.33,1.014.572l-.373.7c-.254-.2-.533-.365-.836-.495-.304-.131-.619-.195-.945-.195-.291,0-.539.058-.742.172-.203.115-.304.312-.304.592,0,.26.103.448.31.563.205.115.594.218,1.163.309.648.104,1.128.282,1.437.536.309.255.463.606.463,1.055,0,.546-.204.952-.613,1.219-.408.267-.895.399-1.459.399Z"/>
      <path d="M523.994,359.3c-.562,0-1.002-.151-1.318-.454-.314-.304-.473-.746-.473-1.328v-2.963h-1.399v-.791h1.399v-1.818h.883v1.818h2.145v.791h-2.145v2.872c0,.346.08.604.24.777s.396.26.705.26c.205,0,.401-.016.586-.046.186-.03.359-.075.523-.137l.172.81c-.176.061-.374.11-.596.15-.221.039-.462.059-.723.059Z"/>
    </g>
    <g>
      <path d="M409.882,255.772v3.945h-.8v-5.454h.8v.7h.173c.097-.249.23-.442.4-.582.169-.14.352-.209.545-.209.218,0,.4.068.545.204.146.137.249.332.309.587h.182c.103-.249.244-.442.423-.582s.374-.209.586-.209c.279,0,.497.118.655.354.157.236.236.563.236.981v4.209h-.8v-4.082c0-.254-.032-.448-.095-.581-.064-.134-.159-.2-.287-.2-.115,0-.247.08-.396.241-.148.16-.298.386-.45.677v3.945h-.8v-4.082c0-.26-.033-.455-.1-.586-.067-.13-.164-.195-.291-.195-.115,0-.244.079-.386.236-.143.157-.292.385-.45.682Z"/>
      <path d="M417.027,259.809c-.485,0-.873-.166-1.164-.5-.291-.333-.436-.772-.436-1.317v-3.728h.873v3.563c0,.382.079.668.236.859.158.19.4.286.728.286.26,0,.515-.074.764-.223.248-.148.491-.374.727-.678v-3.809h.873v5.454h-.873v-.845h-.254c-.109.278-.299.504-.568.677s-.571.259-.904.259Z"/>
      <path d="M423.545,259.809c-.673,0-1.191-.173-1.555-.518-.364-.346-.545-.84-.545-1.482v-1.6c0-.648.182-1.15.545-1.505s.885-.531,1.563-.531c.667,0,1.182.177,1.545.531.364.354.545.856.545,1.505v1.591c0,.648-.182,1.146-.545,1.491-.363.345-.882.518-1.554.518ZM423.545,259.018c.412,0,.719-.097.922-.29.203-.194.305-.5.305-.919v-1.6c0-.424-.102-.738-.305-.941-.203-.202-.51-.304-.922-.304s-.72.102-.923.304c-.203.203-.305.518-.305.941v1.6c0,.419.102.725.305.919.203.193.51.29.923.29Z"/>
      <path d="M427.463,259.718v-5.454h.873v.846h.254c.133-.291.332-.521.596-.687.264-.167.559-.25.886-.25.491,0,.879.162,1.164.486.285.324.427.768.427,1.332v3.727h-.873v-3.555c0-.382-.083-.669-.25-.863s-.404-.291-.713-.291c-.255,0-.509.077-.764.232-.255.154-.497.38-.728.677v3.8h-.873Z"/>
      <path d="M409.809,269.718v-5.454h.882v.872h.246c.115-.333.294-.577.536-.731s.533-.231.873-.231c.382,0,.697.132.946.396s.373.638.373,1.122v.837h-.836v-.519c0-.346-.068-.599-.205-.759-.136-.161-.35-.241-.641-.241-.261,0-.499.07-.714.209-.215.14-.408.352-.577.637v3.863h-.882Z"/>
      <path d="M419.654,268.527c-.151.448-.383.774-.695.977-.312.203-.786.305-1.423.305-.661,0-1.177-.169-1.55-.509-.373-.339-.559-.839-.559-1.5v-1.591c0-.679.195-1.188.586-1.527.391-.339.898-.509,1.522-.509.63,0,1.137.173,1.518.518.382.346.573.876.573,1.591v.882h-3.327v.637c0,.448.102.77.305.964.203.193.514.291.932.291.394,0,.68-.062.859-.187.179-.124.316-.323.414-.596l.845.255ZM416.3,266.218v.273h2.455v-.191c0-.479-.103-.827-.309-1.046-.206-.218-.512-.327-.918-.327s-.712.106-.918.318-.309.536-.309.973Z"/>
      <path d="M424.772,271.536v-2.663h-.254c-.146.303-.346.534-.6.695-.254.16-.542.24-.864.24-.515,0-.912-.176-1.191-.527-.279-.351-.418-.851-.418-1.5v-1.591c0-.648.203-1.146.609-1.495.406-.349.924-.522,1.555-.522.37,0,.73.047,1.082.141.351.094.669.226.954.396v6.827h-.873ZM423.3,268.973c.272,0,.53-.076.772-.228.243-.151.476-.382.7-.69v-2.791c-.176-.109-.359-.189-.55-.241s-.393-.077-.604-.077c-.382,0-.694.104-.937.313-.243.209-.364.526-.364.95v1.5c0,.424.082.741.246.95s.409.313.736.313Z"/>
      <path d="M429.645,269.809c-.43,0-.847-.063-1.25-.19s-.765-.32-1.086-.58l.373-.698c.272.211.58.377.922.497.342.121.689.181,1.041.181.315,0,.594-.051.836-.153.242-.103.364-.301.364-.597,0-.271-.106-.462-.318-.574-.212-.111-.6-.212-1.164-.303-.643-.104-1.118-.274-1.427-.515s-.464-.601-.464-1.081c0-.528.187-.931.559-1.208.373-.276.823-.414,1.35-.414.394,0,.777.069,1.15.209.373.14.711.33,1.014.572l-.373.7c-.254-.2-.533-.365-.836-.495-.303-.131-.618-.195-.945-.195-.291,0-.538.058-.741.172-.203.115-.304.312-.304.592,0,.26.103.448.309.563s.594.218,1.164.309c.648.104,1.127.282,1.437.536.309.255.463.606.463,1.055,0,.546-.205.952-.614,1.219-.409.267-.895.399-1.459.399Z"/>
    </g>
    <g>
      <path d="M461.618,259.809c-.74,0-1.295-.171-1.664-.514-.37-.342-.555-.838-.555-1.486v-1.6c0-.667.185-1.173.555-1.519.369-.345.921-.518,1.654-.518.648,0,1.147.154,1.496.463.348.31.544.776.586,1.4l-.863.046c-.024-.4-.135-.687-.332-.859s-.495-.259-.896-.259c-.442,0-.774.1-.995.3-.222.2-.332.512-.332.937v1.618c0,.412.11.715.332.909.221.193.556.29,1.004.29.4,0,.698-.07.896-.213s.305-.384.323-.723l.863.045c-.036.563-.228.985-.572,1.264-.346.279-.846.418-1.5.418Z"/>
      <path d="M465.427,259.718v-.791h1.664v-5.69h-1.664v-.791h2.546v6.481h1.654v.791h-4.2Z"/>
      <path d="M473.472,259.809c-.357,0-.713-.053-1.067-.159-.354-.105-.678-.256-.969-.449v-6.755h.873v2.664h.254c.134-.297.329-.527.587-.691s.55-.245.877-.245c.51,0,.905.176,1.187.527.282.352.423.852.423,1.5v1.591c0,.643-.189,1.14-.568,1.49-.379.352-.91.527-1.596.527ZM473.472,259.036c.437,0,.761-.102.973-.305.213-.203.318-.522.318-.959v-1.582c0-.405-.08-.704-.24-.896-.161-.19-.408-.286-.741-.286-.279,0-.538.076-.777.228s-.472.382-.695.69v2.791c.176.109.357.189.545.241.188.052.395.077.618.077Z"/>
      <path d="M479.054,259.809c-.485,0-.873-.166-1.164-.5-.29-.333-.436-.772-.436-1.317v-3.728h.872v3.563c0,.382.079.668.236.859.158.19.4.286.728.286.261,0,.516-.074.764-.223s.491-.374.728-.678v-3.809h.872v5.454h-.872v-.845h-.255c-.109.278-.299.504-.568.677s-.571.259-.904.259Z"/>
      <path d="M485.653,259.809c-.43,0-.847-.063-1.25-.19-.402-.127-.765-.32-1.086-.58l.373-.698c.272.211.58.377.922.497.343.121.689.181,1.041.181.315,0,.594-.051.837-.153.242-.103.363-.301.363-.597,0-.271-.106-.462-.318-.574-.212-.111-.6-.212-1.163-.303-.643-.104-1.118-.274-1.428-.515-.309-.24-.464-.601-.464-1.081,0-.528.187-.931.56-1.208.373-.276.822-.414,1.35-.414.395,0,.777.069,1.15.209s.711.33,1.014.572l-.373.7c-.254-.2-.533-.365-.836-.495-.304-.131-.618-.195-.945-.195-.291,0-.538.058-.741.172-.203.115-.305.312-.305.592,0,.26.104.448.31.563s.594.218,1.163.309c.648.104,1.128.282,1.437.536.31.255.464.606.464,1.055,0,.546-.205.952-.614,1.219-.408.267-.895.399-1.459.399Z"/>
      <path d="M462.809,269.718v-5.454h.882v.872h.246c.114-.333.294-.577.536-.731s.533-.231.872-.231c.382,0,.697.132.946.396.248.264.372.638.372,1.122v.837h-.836v-.519c0-.346-.068-.599-.205-.759-.136-.161-.35-.241-.641-.241-.261,0-.498.07-.714.209-.215.14-.407.352-.577.637v3.863h-.882Z"/>
      <path d="M472.654,268.527c-.151.448-.384.774-.695.977-.312.203-.786.305-1.423.305-.661,0-1.178-.169-1.55-.509-.373-.339-.56-.839-.56-1.5v-1.591c0-.679.195-1.188.587-1.527.391-.339.898-.509,1.522-.509.63,0,1.137.173,1.518.518.382.346.573.876.573,1.591v.882h-3.327v.637c0,.448.102.77.305.964.203.193.514.291.932.291.394,0,.68-.062.859-.187.179-.124.316-.323.413-.596l.846.255ZM469.3,266.218v.273h2.454v-.191c0-.479-.103-.827-.309-1.046-.206-.218-.513-.327-.918-.327s-.713.106-.919.318-.309.536-.309.973Z"/>
      <path d="M477.772,271.536v-2.663h-.255c-.146.303-.346.534-.6.695-.255.16-.543.24-.864.24-.515,0-.912-.176-1.19-.527-.279-.351-.418-.851-.418-1.5v-1.591c0-.648.203-1.146.608-1.495.406-.349.925-.522,1.555-.522.37,0,.73.047,1.082.141s.67.226.954.396v6.827h-.872ZM476.3,268.973c.272,0,.53-.076.772-.228s.476-.382.7-.69v-2.791c-.176-.109-.359-.189-.55-.241-.191-.052-.393-.077-.604-.077-.382,0-.694.104-.937.313-.243.209-.364.526-.364.95v1.5c0,.424.082.741.246.95.163.209.409.313.736.313Z"/>
      <path d="M482.645,269.809c-.43,0-.847-.063-1.25-.19-.402-.127-.765-.32-1.086-.58l.373-.698c.272.211.58.377.922.497.343.121.689.181,1.041.181.315,0,.594-.051.837-.153.242-.103.363-.301.363-.597,0-.271-.106-.462-.318-.574-.212-.111-.6-.212-1.163-.303-.643-.104-1.118-.274-1.428-.515-.309-.24-.464-.601-.464-1.081,0-.528.187-.931.56-1.208.373-.276.822-.414,1.35-.414.395,0,.777.069,1.15.209s.711.33,1.014.572l-.373.7c-.254-.2-.533-.365-.836-.495-.304-.131-.618-.195-.945-.195-.291,0-.538.058-.741.172-.203.115-.305.312-.305.592,0,.26.104.448.31.563s.594.218,1.163.309c.648.104,1.128.282,1.437.536.31.255.464.606.464,1.055,0,.546-.205.952-.614,1.219-.408.267-.895.399-1.459.399Z"/>
    </g>
  </g>
</svg>