<?xml version="1.0" encoding="UTF-8"?>
<svg id="Layer_1" data-name="Layer 1" xmlns="http://www.w3.org/2000/svg" viewBox="0 0 828 555">
  <defs>
    <style>
      .cls-1, .cls-2 {
        font-size: 12px;
      }

      .cls-1, .cls-2, .cls-3 {
        font-family: Helvetica, Helvetica;
      }

      .cls-2, .cls-3, .cls-4 {
        fill: #666;
      }

      .cls-5, .cls-6 {
        font-size: 10px;
      }

      .cls-7, .cls-8 {
        fill: #fff;
      }

      .cls-7, .cls-9 {
        stroke: #000;
        stroke-miterlimit: 10;
      }

      .cls-10, .cls-6 {
        font-family: InputMonoNarrow-Regular, 'Input Mono Narrow';
      }

      .cls-9 {
        fill: none;
      }

      .cls-11 {
        letter-spacing: -.111em;
      }

      .cls-12 {
        letter-spacing: -.018em;
      }

      .cls-13 {
        letter-spacing: -.055em;
      }

      .cls-14 {
        letter-spacing: -.037em;
      }
    </style>
  </defs>
  <text class="cls-1" transform="translate(194.116 25.902)"><tspan x="0" y="0">PC</tspan><tspan class="cls-12" x="16.67" y="0"> </tspan><tspan class="cls-14" x="19.793" y="0">T</tspan><tspan x="26.684" y="0">racker</tspan></text>
  <g>
    <rect class="cls-8" x="194.5" y="33.5" width="143" height="22"/>
    <path d="M337,34v21h-142v-21h142M338,33h-144v23h144v-23h0Z"/>
  </g>
  <text class="cls-5" transform="translate(204.686 47.992)"><tspan class="cls-3" x="0" y="0">warp 0</tspan><tspan class="cls-10" x="30.015" y="0" xml:space="preserve">  PC=0x...  v=1</tspan></text>
  <g>
    <rect class="cls-8" x="194.5" y="55.5" width="143" height="22"/>
    <path d="M337,56v21h-142v-21h142M338,55h-144v23h144v-23h0Z"/>
  </g>
  <text class="cls-5" transform="translate(204.686 69.992)"><tspan class="cls-3" x="0" y="0">warp 1</tspan><tspan class="cls-10" x="30.015" y="0" xml:space="preserve">  PC=0x...  v=1</tspan></text>
  <g>
    <rect class="cls-8" x="194.5" y="77.5" width="143" height="22"/>
    <path d="M337,78v21h-142v-21h142M338,77h-144v23h144v-23h0Z"/>
  </g>
  <text class="cls-5" transform="translate(204.686 91.992)"><tspan class="cls-3" x="0" y="0">warp 2</tspan><tspan class="cls-10" x="30.015" y="0" xml:space="preserve">  PC=0x...  v=1</tspan></text>
  <g>
    <rect class="cls-8" x="194.5" y="99.5" width="143" height="22"/>
    <path d="M337,100v21h-142v-21h142M338,99h-144v23h144v-23h0Z"/>
  </g>
  <text class="cls-5" transform="translate(204.686 113.992)"><tspan class="cls-3" x="0" y="0">warp 3</tspan><tspan class="cls-10" x="30.015" y="0" xml:space="preserve">  PC=0x...  v=0</tspan></text>
  <text class="cls-1" transform="translate(194.116 190.902)"><tspan x="0" y="0">Stall</tspan><tspan class="cls-12" x="23.344" y="0"> </tspan><tspan class="cls-14" x="26.467" y="0">T</tspan><tspan x="33.357" y="0">racker</tspan></text>
  <text class="cls-2" transform="translate(24.614 278.099) rotate(-90)"><tspan x="0" y="0">From </tspan><tspan class="cls-12" x="31.33" y="0">W</tspan><tspan x="42.445" y="0">riteback</tspan></text>
  <text class="cls-2" transform="translate(732.698 263.521) rotate(90)"><tspan class="cls-11" x="0" y="0">T</tspan><tspan x="6" y="0">o Issue</tspan></text>
  <text class="cls-2" transform="translate(800.698 145.293) rotate(90)"><tspan class="cls-11" x="0" y="0">T</tspan><tspan x="6" y="0">o IBu</tspan><tspan class="cls-12" x="34.02" y="0">f</tspan><tspan x="37.143" y="0">fer</tspan></text>
  <text class="cls-2" transform="translate(188.001 531.136)"><tspan x="0" y="0">From Execute</tspan></text>
  <text class="cls-1" transform="translate(120.116 245.902)"><tspan x="0" y="0">=</tspan></text>
  <g>
    <rect class="cls-8" x="194.5" y="198.5" width="143" height="22"/>
    <path d="M337,199v21h-142v-21h142M338,198h-144v23h144v-23h0Z"/>
  </g>
  <g>
    <rect class="cls-8" x="474.5" y="198.5" width="143" height="44"/>
    <path d="M617,199v43h-142v-43h142M618,198h-144v45h144v-45h0Z"/>
  </g>
  <text class="cls-5" transform="translate(204.686 212.992)"><tspan class="cls-3" x="0" y="0">warp 0</tspan><tspan class="cls-10" x="30.015" y="0" xml:space="preserve">  PC=0x...  v=0</tspan></text>
  <g>
    <rect class="cls-8" x="194.5" y="220.5" width="143" height="22"/>
    <path d="M337,221v21h-142v-21h142M338,220h-144v23h144v-23h0Z"/>
  </g>
  <text class="cls-5" transform="translate(204.686 234.992)"><tspan class="cls-3" x="0" y="0">warp 1</tspan><tspan class="cls-10" x="30.015" y="0" xml:space="preserve">  PC=0x...  v=0</tspan></text>
  <g>
    <rect class="cls-8" x="194.5" y="242.5" width="143" height="22"/>
    <path d="M337,243v21h-142v-21h142M338,242h-144v23h144v-23h0Z"/>
  </g>
  <text class="cls-5" transform="translate(204.686 256.992)"><tspan class="cls-3" x="0" y="0">warp 2</tspan><tspan class="cls-10" x="30.015" y="0" xml:space="preserve">  PC=0x...  v=1</tspan></text>
  <g>
    <rect class="cls-8" x="194.5" y="264.5" width="143" height="22"/>
    <path d="M337,265v21h-142v-21h142M338,264h-144v23h144v-23h0Z"/>
  </g>
  <text class="cls-5" transform="translate(204.686 278.992)"><tspan class="cls-3" x="0" y="0">warp 3</tspan><tspan class="cls-10" x="30.015" y="0" xml:space="preserve">  PC=0x...  v=0</tspan></text>
  <text class="cls-1" transform="translate(194.116 340.902)"><tspan x="0" y="0">Thread Mask</tspan><tspan class="cls-12" x="70.025" y="0"> </tspan><tspan class="cls-14" x="73.148" y="0">T</tspan><tspan x="80.039" y="0">racker</tspan></text>
  <g>
    <rect class="cls-8" x="194.5" y="348.5" width="143" height="22"/>
    <path d="M337,349v21h-142v-21h142M338,348h-144v23h144v-23h0Z"/>
  </g>
  <text class="cls-5" transform="translate(204.686 362.992)"><tspan class="cls-3" x="0" y="0">warp 0</tspan><tspan class="cls-10" x="30.015" y="0" xml:space="preserve">  tmask=0b1111</tspan></text>
  <g>
    <rect class="cls-8" x="194.5" y="370.5" width="143" height="22"/>
    <path d="M337,371v21h-142v-21h142M338,370h-144v23h144v-23h0Z"/>
  </g>
  <text class="cls-5" transform="translate(204.686 384.992)"><tspan class="cls-3" x="0" y="0">warp 1</tspan><tspan class="cls-10" x="30.015" y="0" xml:space="preserve">  tmask=0b1111</tspan></text>
  <g>
    <rect class="cls-8" x="194.5" y="392.5" width="143" height="22"/>
    <path d="M337,393v21h-142v-21h142M338,392h-144v23h144v-23h0Z"/>
  </g>
  <text class="cls-5" transform="translate(204.686 406.992)"><tspan class="cls-3" x="0" y="0">warp 2</tspan><tspan class="cls-10" x="30.015" y="0" xml:space="preserve">  tmask=0b1100</tspan></text>
  <g>
    <rect class="cls-8" x="194.5" y="414.5" width="143" height="22"/>
    <path d="M337,415v21h-142v-21h142M338,414h-144v23h144v-23h0Z"/>
  </g>
  <text class="cls-5" transform="translate(204.686 428.992)"><tspan class="cls-3" x="0" y="0">warp 3</tspan><tspan class="cls-10" x="30.015" y="0" xml:space="preserve">  tmask=0b0000</tspan></text>
  <text class="cls-1" transform="translate(474.116 340.902)"><tspan x="0" y="0">IPDOM Stack</tspan></text>
  <g>
    <rect class="cls-8" x="474.5" y="348.5" width="143" height="22"/>
    <path d="M617,349v21h-142v-21h142M618,348h-144v23h144v-23h0Z"/>
  </g>
  <text class="cls-5" transform="translate(484.686 362.992)"><tspan class="cls-3" x="0" y="0">warp 0</tspan><tspan class="cls-10" x="30.015" y="0" xml:space="preserve">  tmask=0b1111</tspan></text>
  <g>
    <rect class="cls-8" x="474.5" y="370.5" width="143" height="22"/>
    <path d="M617,371v21h-142v-21h142M618,370h-144v23h144v-23h0Z"/>
  </g>
  <text class="cls-5" transform="translate(484.686 384.992)"><tspan class="cls-3" x="0" y="0">warp 1</tspan><tspan class="cls-10" x="30.015" y="0" xml:space="preserve">  tmask=0b1111</tspan></text>
  <g>
    <rect class="cls-8" x="474.5" y="392.5" width="143" height="22"/>
    <path d="M617,393v21h-142v-21h142M618,392h-144v23h144v-23h0Z"/>
  </g>
  <text class="cls-5" transform="translate(484.686 406.992)"><tspan class="cls-3" x="0" y="0">warp 2</tspan><tspan class="cls-10" x="30.015" y="0" xml:space="preserve">  tmask=0b1100</tspan></text>
  <g>
    <rect class="cls-8" x="474.5" y="414.5" width="143" height="22"/>
    <path d="M617,415v21h-142v-21h142M618,414h-144v23h144v-23h0Z"/>
  </g>
  <text class="cls-5" transform="translate(484.686 428.992)"><tspan class="cls-3" x="0" y="0">warp 3</tspan><tspan class="cls-10" x="30.015" y="0" xml:space="preserve">  tmask=0b0000</tspan></text>
  <g>
    <line class="cls-9" x1="39.5" y1="242.5" x2="104.412" y2="242.5"/>
    <polygon points="103.682 244.993 108 242.5 103.682 240.007 103.682 244.993"/>
  </g>
  <line class="cls-9" x1="39.5" y1="215.5" x2="107.5" y2="215.5"/>
  <line class="cls-9" x1="40" y1="268.5" x2="108" y2="268.5"/>
  <g>
    <line class="cls-9" x1="140" y1="249.5" x2="190.412" y2="249.5"/>
    <polygon points="189.682 251.993 194 249.5 189.682 247.007 189.682 251.993"/>
  </g>
  <g>
    <line class="cls-9" x1="194" y1="235.5" x2="143.588" y2="235.5"/>
    <polygon points="144.318 233.007 140 235.5 144.318 237.993 144.318 233.007"/>
  </g>
  <g>
    <line class="cls-9" x1="644" y1="286.5" x2="621.588" y2="286.5"/>
    <polygon points="622.318 284.007 618 286.5 622.318 288.993 622.318 284.007"/>
  </g>
  <g>
    <line class="cls-9" x1="618" y1="300.5" x2="640.412" y2="300.5"/>
    <polygon points="639.682 302.993 644 300.5 639.682 298.007 639.682 302.993"/>
  </g>
  <g>
    <line class="cls-9" x1="644" y1="272.5" x2="621.588" y2="272.5"/>
    <polygon points="622.318 270.007 618 272.5 622.318 274.993 622.318 270.007"/>
  </g>
  <g>
    <line class="cls-9" x1="672" y1="220.5" x2="621.588" y2="220.5"/>
    <polygon points="622.318 218.007 618 220.5 622.318 222.993 622.318 218.007"/>
  </g>
  <line class="cls-9" x1="474" y1="220.5" x2="405.5" y2="220.5"/>
  <line class="cls-9" x1="474" y1="236.5" x2="447.5" y2="236.5"/>
  <line class="cls-9" x1="427" y1="392.5" x2="372" y2="392.5"/>
  <text class="cls-6" transform="translate(39.726 237.993)"><tspan x="0" y="0">PC, wid</tspan></text>
  <text class="cls-6" transform="translate(39.726 263.993)"><tspan x="0" y="0">mask set</tspan></text>
  <text class="cls-6" transform="translate(144.726 261.993)"><tspan x="0" y="0">unstall</tspan></text>
  <text class="cls-6" transform="translate(72.635 411.993)"><tspan x="0" y="0">ipdom</tspan><tspan x="-24.072" y="10">popped pc</tspan></text>
  <text class="cls-6" transform="translate(275.726 298.993)"><tspan x="0" y="0">stall(wid)</tspan></text>
  <rect class="cls-9" x="108" y="226.75" width="31.5" height="31.5"/>
  <polygon class="cls-9" points="176 33 176 74.109 176 80.891 176 122 160 107.585 160 80.802 160 74.198 160 47.415 176 33"/>
  <polygon class="cls-9" points="356.5 33 356.5 74.109 356.5 80.891 356.5 122 372.5 107.585 372.5 80.802 372.5 74.198 372.5 47.415 356.5 33"/>
  <polygon class="cls-9" points="125.5 33 125.5 74.109 125.5 80.891 125.5 122 141.5 107.585 141.5 80.802 141.5 74.198 141.5 47.415 125.5 33"/>
  <g>
    <line class="cls-9" x1="176" y1="44.5" x2="190.412" y2="44.5"/>
    <polygon points="189.682 46.993 194 44.5 189.682 42.007 189.682 46.993"/>
  </g>
  <g>
    <line class="cls-9" x1="176" y1="88.5" x2="190.412" y2="88.5"/>
    <polygon points="189.682 90.993 194 88.5 189.682 86.007 189.682 90.993"/>
  </g>
  <g>
    <line class="cls-9" x1="176" y1="110.5" x2="190.412" y2="110.5"/>
    <polygon points="189.682 112.993 194 110.5 189.682 108.007 189.682 112.993"/>
  </g>
  <g>
    <line class="cls-9" x1="176" y1="66.5" x2="190.412" y2="66.5"/>
    <polygon points="189.682 68.993 194 66.5 189.682 64.007 189.682 68.993"/>
  </g>
  <g>
    <line class="cls-9" x1="82.5" y1="55.5" x2="121.412" y2="55.5"/>
    <polygon points="120.682 57.993 125 55.5 120.682 53.007 120.682 57.993"/>
  </g>
  <g>
    <line class="cls-9" x1="107" y1="99.5" x2="121.412" y2="99.5"/>
    <polygon points="120.682 101.993 125 99.5 120.682 97.007 120.682 101.993"/>
  </g>
  <polygon class="cls-9" points="125.5 348 125.5 389.109 125.5 395.891 125.5 437 141.5 422.585 141.5 395.802 141.5 389.198 141.5 362.415 125.5 348"/>
  <g>
    <line class="cls-9" x1="107.5" y1="370.5" x2="121.412" y2="370.5"/>
    <polygon points="120.682 372.993 125 370.5 120.682 368.007 120.682 372.993"/>
  </g>
  <g>
    <line class="cls-9" x1="107" y1="414.5" x2="121.412" y2="414.5"/>
    <polygon points="120.682 416.993 125 414.5 120.682 412.007 120.682 416.993"/>
  </g>
  <g>
    <line class="cls-9" x1="107" y1="77.5" x2="121.412" y2="77.5"/>
    <polygon points="120.682 79.993 125 77.5 120.682 75.007 120.682 79.993"/>
  </g>
  <g>
    <line class="cls-9" x1="338" y1="44.5" x2="352.412" y2="44.5"/>
    <polygon points="351.682 46.993 356 44.5 351.682 42.007 351.682 46.993"/>
  </g>
  <g>
    <line class="cls-9" x1="338" y1="88.5" x2="352.412" y2="88.5"/>
    <polygon points="351.682 90.993 356 88.5 351.682 86.007 351.682 90.993"/>
  </g>
  <g>
    <line class="cls-9" x1="372" y1="77.5" x2="470.912" y2="77.5"/>
    <polygon points="470.182 79.993 474.5 77.5 470.182 75.007 470.182 79.993"/>
  </g>
  <g>
    <line class="cls-9" x1="142" y1="77.5" x2="156.412" y2="77.5"/>
    <polygon points="155.682 79.993 160 77.5 155.682 75.007 155.682 79.993"/>
  </g>
  <g>
    <line class="cls-9" x1="338" y1="110.5" x2="352.412" y2="110.5"/>
    <polygon points="351.682 112.993 356 110.5 351.682 108.007 351.682 112.993"/>
  </g>
  <line class="cls-9" x1="365.501" y1="128.5" x2="365.5" y2="114"/>
  <line class="cls-9" x1="107.5" y1="216" x2="107.5" y2="99"/>
  <line class="cls-9" x1="381" y1="209.5" x2="393.5" y2="209.5"/>
  <g>
    <line class="cls-9" x1="393.5" y1="146.498" x2="470.412" y2="146.498"/>
    <polygon points="469.683 148.991 474 146.498 469.683 144.004 469.683 148.991"/>
  </g>
  <line class="cls-9" x1="617.5" y1="154.496" x2="644.5" y2="154.495"/>
  <g>
    <line class="cls-9" x1="447" y1="163.5" x2="470.412" y2="163.5"/>
    <polygon points="469.683 165.993 474 163.5 469.683 161.007 469.683 165.993"/>
  </g>
  <line class="cls-9" x1="672.501" y1="139.5" x2="738.501" y2="139.5"/>
  <line class="cls-9" x1="672" y1="187.5" x2="708" y2="187.5"/>
  <g>
    <line class="cls-9" x1="707.498" y1="187.502" x2="728.962" y2="208.965"/>
    <polygon points="726.683 210.212 731.499 211.502 730.209 206.686 726.683 210.212"/>
  </g>
  <line class="cls-9" x1="426.5" y1="253.5" x2="707.996" y2="253.5"/>
  <g>
    <line class="cls-9" x1="707.498" y1="253.498" x2="728.962" y2="232.035"/>
    <polygon points="730.209 234.314 731.499 229.498 726.683 230.788 730.209 234.314"/>
  </g>
  <g>
    <line class="cls-9" x1="743.5" y1="220.5" x2="756.412" y2="220.5"/>
    <polygon points="755.682 222.993 760 220.5 755.682 218.007 755.682 222.993"/>
  </g>
  <g>
    <line class="cls-9" x1="672" y1="220.5" x2="721.912" y2="220.5"/>
    <polygon points="721.182 222.993 725.5 220.5 721.182 218.007 721.182 222.993"/>
  </g>
  <line class="cls-9" x1="738.5" y1="151.499" x2="738.5" y2="138.999"/>
  <g>
    <line class="cls-9" x1="546.001" y1="128.911" x2="546.001" y2="120.999"/>
    <polygon points="548.494 128.182 546.001 132.499 543.508 128.182 548.494 128.182"/>
  </g>
  <g>
    <line class="cls-9" x1="743.5" y1="160.753" x2="756.412" y2="160.753"/>
    <polygon points="755.682 163.246 760 160.753 755.682 158.26 755.682 163.246"/>
  </g>
  <line class="cls-9" x1="392.997" y1="209.5" x2="392.997" y2="146"/>
  <line class="cls-9" x1="447.002" y1="188" x2="447.002" y2="163"/>
  <line class="cls-9" x1="644" y1="188" x2="644" y2="154.5"/>
  <line class="cls-9" x1="617.5" y1="77.496" x2="672.5" y2="77.495"/>
  <line class="cls-9" x1="672" y1="221" x2="672" y2="77.5"/>
  <line class="cls-9" x1="266" y1="303.5" x2="405.5" y2="303.5"/>
  <line class="cls-9" x1="447.5" y1="187.5" x2="644.5" y2="187.5"/>
  <line class="cls-9" x1="546" y1="121.5" x2="743.5" y2="121.5"/>
  <line class="cls-9" x1="405.5" y1="304" x2="405.5" y2="220"/>
  <line class="cls-9" x1="447.5" y1="393" x2="447.5" y2="236"/>
  <line class="cls-9" x1="426.5" y1="392.5" x2="426.5" y2="253"/>
  <line class="cls-9" x1="107.5" y1="371" x2="107.5" y2="269"/>
  <g>
    <line class="cls-9" x1="338" y1="66.5" x2="352.412" y2="66.5"/>
    <polygon points="351.682 68.993 356 66.5 351.682 64.007 351.682 68.993"/>
  </g>
  <line class="cls-9" x1="338" y1="209.5" x2="356.5" y2="209.5"/>
  <line class="cls-9" x1="338" y1="253.5" x2="356.987" y2="253.5"/>
  <line class="cls-9" x1="338" y1="275.5" x2="372" y2="275.5"/>
  <line class="cls-9" x1="338" y1="231.5" x2="347" y2="231.5"/>
  <g>
    <line class="cls-9" x1="356" y1="209.5" x2="358.912" y2="209.5"/>
    <polygon points="358.182 211.993 362.5 209.5 358.182 207.007 358.182 211.993"/>
  </g>
  <g>
    <line class="cls-9" x1="371.5" y1="275.5" x2="371.5" y2="222.088"/>
    <polygon points="373.993 222.818 371.5 218.5 369.007 222.818 373.993 222.818"/>
  </g>
  <g>
    <line class="cls-9" x1="356.5" y1="253.5" x2="365.54" y2="220.957"/>
    <polygon points="367.747 222.327 366.5 217.5 362.942 220.993 367.747 222.327"/>
  </g>
  <g>
    <line class="cls-9" x1="346.65" y1="231.65" x2="361.263" y2="217.037"/>
    <polygon points="362.51 219.316 363.8 214.5 358.984 215.79 362.51 219.316"/>
  </g>
  <polygon class="cls-9" points="356.5 348 356.5 389.109 356.5 395.891 356.5 437 372.5 422.585 372.5 395.802 372.5 389.198 372.5 362.415 356.5 348"/>
  <g>
    <line class="cls-9" x1="338" y1="359.5" x2="352.412" y2="359.5"/>
    <polygon points="351.682 361.993 356 359.5 351.682 357.007 351.682 361.993"/>
  </g>
  <g>
    <line class="cls-9" x1="447.5" y1="392.5" x2="470.412" y2="392.5"/>
    <polygon points="469.682 394.993 474 392.5 469.682 390.007 469.682 394.993"/>
  </g>
  <g>
    <line class="cls-9" x1="338" y1="403.5" x2="352.412" y2="403.5"/>
    <polygon points="351.682 405.993 356 403.5 351.682 401.007 351.682 405.993"/>
  </g>
  <g>
    <line class="cls-9" x1="266.5" y1="303" x2="266.5" y2="290.588"/>
    <polygon points="268.993 291.318 266.5 287 264.007 291.318 268.993 291.318"/>
  </g>
  <g>
    <line class="cls-9" x1="338" y1="425.5" x2="352.412" y2="425.5"/>
    <polygon points="351.682 427.993 356 425.5 351.682 423.007 351.682 427.993"/>
  </g>
  <line class="cls-9" x1="365.501" y1="443.5" x2="365.5" y2="429"/>
  <line class="cls-9" x1="298.501" y1="511.5" x2="298.5" y2="497"/>
  <line class="cls-9" x1="298.5" y1="497.5" x2="255.499" y2="497.5"/>
  <line class="cls-9" x1="374.501" y1="511.5" x2="374.5" y2="473"/>
  <g>
    <line class="cls-9" x1="336.5" y1="525.412" x2="336.5" y2="473.5"/>
    <polygon points="338.993 524.682 336.5 529 334.007 524.682 338.993 524.682"/>
  </g>
  <line class="cls-9" x1="412.501" y1="529" x2="412.501" y2="479"/>
  <line class="cls-9" x1="450.499" y1="511.498" x2="450.499" y2="484.998"/>
  <line class="cls-9" x1="526.501" y1="511.5" x2="526.5" y2="497"/>
  <g>
    <line class="cls-9" x1="521.5" y1="474" x2="521.5" y2="440.588"/>
    <polygon points="523.994 441.318 521.5 437 519.007 441.318 523.994 441.318"/>
  </g>
  <g>
    <line class="cls-9" x1="534.004" y1="480" x2="534.004" y2="440.588"/>
    <polygon points="536.497 441.318 534.004 437 531.511 441.318 536.497 441.318"/>
  </g>
  <g>
    <line class="cls-9" x1="546.001" y1="486" x2="546.001" y2="440.588"/>
    <polygon points="548.494 441.318 546.001 437 543.508 441.318 548.494 441.318"/>
  </g>
  <g>
    <line class="cls-9" x1="558.5" y1="492" x2="558.5" y2="440.588"/>
    <polygon points="560.994 441.318 558.5 437 556.007 441.318 560.994 441.318"/>
  </g>
  <g>
    <line class="cls-9" x1="571" y1="498" x2="571" y2="440.588"/>
    <polygon points="573.493 441.318 571 437 568.507 441.318 573.493 441.318"/>
  </g>
  <line class="cls-9" x1="488.5" y1="529" x2="488.501" y2="491"/>
  <g>
    <line class="cls-9" x1="338" y1="381.5" x2="352.412" y2="381.5"/>
    <polygon points="351.682 383.993 356 381.5 351.682 379.007 351.682 383.993"/>
  </g>
  <text class="cls-6" transform="translate(338.76 453.721)"><tspan x="0" y="0">fetch wid</tspan></text>
  <polygon class="cls-9" points="636.5 348 636.5 389.109 636.5 395.891 636.5 437 652.5 422.585 652.5 395.802 652.5 389.198 652.5 362.415 636.5 348"/>
  <g>
    <line class="cls-9" x1="618" y1="359.5" x2="632.412" y2="359.5"/>
    <polygon points="631.682 361.993 636 359.5 631.682 357.007 631.682 361.993"/>
  </g>
  <g>
    <line class="cls-9" x1="618" y1="403.5" x2="632.412" y2="403.5"/>
    <polygon points="631.682 405.993 636 403.5 631.682 401.007 631.682 405.993"/>
  </g>
  <g>
    <line class="cls-9" x1="653" y1="392.5" x2="667.412" y2="392.5"/>
    <polygon points="666.682 394.993 671 392.5 666.682 390.007 666.682 394.993"/>
  </g>
  <g>
    <line class="cls-9" x1="618" y1="425.5" x2="632.412" y2="425.5"/>
    <polygon points="631.682 427.993 636 425.5 631.682 423.007 631.682 427.993"/>
  </g>
  <line class="cls-9" x1="645.501" y1="443.5" x2="645.5" y2="429"/>
  <g>
    <line class="cls-9" x1="618" y1="381.5" x2="632.412" y2="381.5"/>
    <polygon points="631.682 383.993 636 381.5 631.682 379.007 631.682 383.993"/>
  </g>
  <text class="cls-6" transform="translate(627.787 453.721)"><tspan x="0" y="0">ex wid</tspan></text>
  <g>
    <path d="M676.75,389.721v-.791h1.664v-3.873h-1.664v-.791h2.545v4.664h1.654v.791h-4.199ZM678.859,383.257c-.219,0-.395-.036-.527-.109-.134-.073-.2-.206-.2-.4v-.063c0-.2.066-.338.2-.414.133-.076.309-.113.527-.113s.394.038.527.113c.133.076.199.214.199.414v.063c0,.194-.068.327-.204.4s-.311.109-.522.109Z"/>
    <path d="M684.822,389.812c-.188,0-.385-.022-.591-.068-.206-.046-.403-.108-.591-.187v1.982h-.873v-7.273h.873v.846h.254c.134-.291.331-.52.592-.687.26-.167.551-.25.873-.25.502,0,.896.18,1.182.541.285.36.427.856.427,1.486v1.591c0,.624-.19,1.117-.573,1.477-.381.361-.905.541-1.572.541ZM684.805,389.039c.441,0,.768-.102.977-.305s.314-.523.314-.959v-1.6c0-.4-.081-.694-.241-.882-.161-.188-.407-.282-.741-.282-.279,0-.536.074-.772.223s-.47.38-.7.695v2.755c.17.115.349.203.537.263.188.061.396.091.627.091Z"/>
    <path d="M691.859,388.875c-.134.297-.33.527-.587.69-.258.164-.55.246-.878.246-.508,0-.904-.179-1.186-.536-.282-.358-.423-.854-.423-1.491v-1.591c0-.636.188-1.132.563-1.486s.902-.532,1.582-.532c.193,0,.393.022.596.068.203.045.398.107.586.186v-1.982h.873v7.273h-.873v-.845h-.254ZM690.641,388.975c.279,0,.537-.076.777-.227.239-.151.471-.382.695-.691v-2.754c-.17-.122-.35-.211-.541-.269-.191-.057-.396-.086-.613-.086-.443,0-.77.104-.982.309-.212.207-.318.524-.318.955v1.591c0,.4.082.695.246.886s.409.286.736.286Z"/>
    <path d="M696.904,389.812c-.673,0-1.191-.173-1.555-.518-.363-.346-.545-.839-.545-1.482v-1.6c0-.648.182-1.15.545-1.504s.885-.532,1.563-.532c.667,0,1.183.177,1.546.532s.545.856.545,1.504v1.591c0,.648-.182,1.145-.545,1.491-.363.345-.883.518-1.555.518ZM696.904,389.021c.412,0,.719-.097.922-.291s.305-.5.305-.918v-1.6c0-.424-.102-.738-.305-.941-.203-.203-.51-.304-.922-.304s-.72.102-.923.304c-.203.203-.305.517-.305.941v1.6c0,.418.102.725.305.918s.511.291.923.291Z"/>
    <path d="M701.295,385.775v3.945h-.8v-5.455h.8v.7h.173c.097-.249.229-.442.399-.582.17-.139.352-.209.546-.209.218,0,.399.068.546.205.145.136.248.332.309.586h.182c.104-.249.244-.442.423-.582.179-.139.374-.209.587-.209.278,0,.496.118.654.354.157.236.236.563.236.982v4.209h-.801v-4.082c0-.254-.031-.448-.095-.582s-.159-.2-.286-.2c-.115,0-.248.081-.396.241s-.298.386-.449.677v3.945h-.801v-4.082c0-.26-.033-.456-.1-.586s-.164-.196-.291-.196c-.115,0-.244.079-.386.236-.143.158-.292.385-.45.682Z"/>
    <path d="M678.805,399.812c-.188,0-.385-.022-.592-.068-.205-.046-.402-.108-.59-.187v1.982h-.873v-7.273h.873v.846h.254c.133-.291.33-.52.592-.687.26-.167.551-.25.872-.25.503,0,.897.18,1.182.541.285.36.427.856.427,1.486v1.591c0,.624-.19,1.117-.572,1.477-.381.361-.906.541-1.572.541ZM678.786,399.039c.442,0,.769-.102.978-.305s.313-.523.313-.959v-1.6c0-.4-.081-.694-.241-.882s-.407-.282-.74-.282c-.279,0-.537.074-.773.223s-.469.38-.699.695v2.755c.17.115.348.203.536.263.188.061.396.091.627.091Z"/>
    <path d="M684.868,399.812c-.673,0-1.19-.173-1.555-.518-.364-.346-.546-.839-.546-1.482v-1.6c0-.648.182-1.15.546-1.504s.885-.532,1.563-.532c.666,0,1.182.177,1.545.532.364.354.546.856.546,1.504v1.591c0,.648-.182,1.145-.546,1.491-.363.345-.881.518-1.554.518ZM684.868,399.021c.412,0,.72-.097.923-.291s.305-.5.305-.918v-1.6c0-.424-.102-.738-.305-.941-.203-.203-.511-.304-.923-.304s-.72.102-.923.304c-.203.203-.305.517-.305.941v1.6c0,.418.102.725.305.918s.51.291.923.291Z"/>
    <path d="M690.841,399.812c-.188,0-.386-.022-.591-.068-.207-.046-.403-.108-.592-.187v1.982h-.872v-7.273h.872v.846h.255c.134-.291.331-.52.591-.687.261-.167.552-.25.873-.25.503,0,.896.18,1.182.541.285.36.428.856.428,1.486v1.591c0,.624-.191,1.117-.573,1.477-.382.361-.905.541-1.572.541ZM690.822,399.039c.442,0,.769-.102.978-.305s.313-.523.313-.959v-1.6c0-.4-.08-.694-.24-.882-.161-.188-.408-.282-.742-.282-.278,0-.535.074-.771.223s-.471.38-.701.695v2.755c.17.115.35.203.537.263.188.061.396.091.627.091Z"/>
    <path d="M696.859,399.812c-.188,0-.386-.022-.592-.068-.206-.046-.402-.108-.591-.187v1.982h-.872v-7.273h.872v.846h.255c.133-.291.33-.52.591-.687s.552-.25.872-.25c.504,0,.897.18,1.182.541.285.36.428.856.428,1.486v1.591c0,.624-.191,1.117-.572,1.477-.382.361-.906.541-1.572.541ZM696.84,399.039c.443,0,.77-.102.979-.305s.312-.523.312-.959v-1.6c0-.4-.08-.694-.24-.882s-.408-.282-.741-.282c-.278,0-.536.074-.772.223s-.47.38-.7.695v2.755c.17.115.349.203.536.263.188.061.396.091.627.091Z"/>
    <path d="M705.049,398.53c-.15.449-.383.774-.695.977-.312.203-.785.305-1.422.305-.661,0-1.178-.169-1.551-.509s-.559-.839-.559-1.5v-1.591c0-.679.195-1.188.586-1.527s.898-.509,1.523-.509c.63,0,1.137.173,1.518.518.382.346.572.876.572,1.591v.882h-3.326v.637c0,.448.102.77.305.963s.514.291.932.291c.394,0,.68-.062.859-.187.178-.124.316-.323.413-.595l.845.254ZM701.695,396.221v.273h2.454v-.191c0-.479-.103-.828-.31-1.046-.205-.218-.512-.327-.918-.327s-.712.106-.918.318-.309.536-.309.973Z"/>
    <path d="M709.913,398.875c-.134.297-.329.527-.587.69-.258.164-.55.246-.877.246-.509,0-.904-.179-1.186-.536-.283-.358-.424-.854-.424-1.491v-1.591c0-.636.188-1.132.564-1.486.375-.354.902-.532,1.582-.532.193,0,.392.022.595.068.203.045.398.107.587.186v-1.982h.872v7.273h-.872v-.845h-.255ZM708.695,398.975c.278,0,.537-.076.777-.227.238-.151.471-.382.695-.691v-2.754c-.17-.122-.351-.211-.541-.269-.191-.057-.396-.086-.613-.086-.443,0-.771.104-.982.309-.213.207-.318.524-.318.955v1.591c0,.4.082.695.246.886.163.191.408.286.736.286Z"/>
    <path d="M720.932,399.812c-.188,0-.386-.022-.592-.068-.206-.046-.402-.108-.591-.187v1.982h-.872v-7.273h.872v.846h.255c.133-.291.33-.52.591-.687s.552-.25.872-.25c.504,0,.897.18,1.182.541.285.36.428.856.428,1.486v1.591c0,.624-.191,1.117-.572,1.477-.382.361-.906.541-1.572.541ZM720.912,399.039c.443,0,.77-.102.979-.305s.312-.523.312-.959v-1.6c0-.4-.08-.694-.24-.882s-.408-.282-.741-.282c-.278,0-.536.074-.772.223s-.47.38-.7.695v2.755c.17.115.349.203.536.263.188.061.396.091.627.091Z"/>
    <path d="M727.113,399.812c-.74,0-1.295-.171-1.664-.514-.37-.342-.555-.838-.555-1.486v-1.6c0-.667.185-1.172.555-1.518.369-.345.921-.518,1.654-.518.648,0,1.146.154,1.496.463.348.309.543.776.586,1.4l-.863.045c-.025-.4-.135-.687-.332-.859-.197-.172-.496-.259-.896-.259-.441,0-.773.1-.994.3-.223.2-.332.512-.332.937v1.618c0,.412.109.715.332.909.221.194.555.291,1.004.291.4,0,.698-.071.896-.213.196-.143.305-.383.323-.723l.863.045c-.037.563-.228.985-.572,1.264-.346.279-.846.418-1.5.418Z"/>
  </g>
  <text class="cls-6" transform="translate(338.76 138.721)"><tspan x="0" y="0">fetch wid</tspan></text>
  <text class="cls-6" transform="translate(432.787 142.721)"><tspan x="0" y="0">stalls</tspan></text>
  <g>
    <line class="cls-9" x1="716.5" y1="160.494" x2="729.412" y2="160.494"/>
    <polygon points="728.682 162.987 733 160.494 728.682 158.001 728.682 162.987"/>
  </g>
  <text class="cls-6" transform="translate(678.787 163.721)"><tspan x="0" y="0">stalls</tspan></text>
  <text class="cls-6" transform="translate(623.841 138.721)"><tspan x="0" y="0">fetch</tspan><tspan x="0" y="10">wid</tspan></text>
  <text class="cls-6" transform="translate(377.769 72.721)"><tspan x="0" y="0">fetch pc</tspan></text>
  <g>
    <path d="M419.068,207.612c-.212,0-.424-.014-.636-.041-.212-.027-.439-.081-.682-.159l.164-.854c.206.079.4.132.582.159.182.027.36.041.536.041.364,0,.656-.084.877-.254.221-.169.332-.452.332-.845v-4.6h-2.327v-.791h3.209v5.509c0,.624-.197,1.086-.591,1.386s-.882.45-1.464.45ZM420.65,199.257c-.218,0-.394-.036-.527-.109s-.2-.206-.2-.4v-.063c0-.2.066-.338.2-.414.133-.076.309-.113.527-.113s.394.038.527.113c.133.076.2.214.2.414v.063c0,.194-.068.327-.204.4-.137.073-.311.109-.523.109Z"/>
    <path d="M423.768,207.539l3.336-9.091h.863l-3.336,9.091h-.864Z"/>
    <path d="M431.822,205.812c-.357,0-.713-.053-1.068-.159s-.677-.256-.968-.45v-6.755h.873v2.664h.254c.133-.297.329-.527.586-.691.258-.164.55-.246.877-.246.509,0,.905.176,1.187.527s.422.852.422,1.5v1.591c0,.643-.189,1.14-.568,1.491-.379.352-.911.527-1.596.527ZM431.822,205.039c.437,0,.761-.102.973-.305.212-.203.318-.523.318-.959v-1.582c0-.406-.081-.705-.241-.896-.161-.191-.408-.286-.741-.286-.279,0-.538.076-.777.227-.239.152-.471.382-.695.691v2.791c.176.109.357.189.545.241.188.052.394.078.618.078Z"/>
    <path d="M436.204,205.721v-5.455h.882v.873h.246c.115-.333.294-.577.536-.731.242-.155.533-.232.873-.232.382,0,.697.132.946.396s.373.638.373,1.123v.836h-.836v-.518c0-.346-.068-.599-.205-.759-.136-.161-.35-.241-.641-.241-.261,0-.499.07-.714.209-.215.14-.408.352-.577.636v3.864h-.882Z"/>
    <path d="M441.822,207.539l3.336-9.091h.863l-3.336,9.091h-.863Z"/>
    <path d="M450.059,205.812c-.74,0-1.295-.171-1.664-.514-.369-.342-.555-.838-.555-1.486v-1.6c0-.667.186-1.172.555-1.518.369-.345.922-.518,1.654-.518.648,0,1.147.154,1.496.463.348.309.544.776.586,1.4l-.863.045c-.024-.4-.135-.687-.332-.859-.197-.172-.495-.259-.896-.259-.442,0-.774.1-.995.3-.222.2-.332.512-.332.937v1.618c0,.412.11.715.332.909.221.194.556.291,1.004.291.4,0,.699-.071.896-.213.196-.143.305-.383.322-.723l.863.045c-.036.563-.227.985-.572,1.264s-.846.418-1.5.418Z"/>
    <path d="M456.04,205.812c-.431,0-.847-.063-1.25-.19s-.765-.32-1.087-.58l.373-.698c.273.211.58.376.923.497s.689.181,1.041.181c.315,0,.594-.051.837-.153.242-.103.363-.301.363-.597,0-.271-.106-.462-.318-.574-.212-.111-.6-.212-1.164-.303-.643-.104-1.117-.275-1.427-.515s-.464-.6-.464-1.081c0-.529.187-.931.559-1.208.373-.276.823-.415,1.351-.415.394,0,.777.07,1.149.209.373.14.711.331,1.014.573l-.372.7c-.255-.2-.533-.365-.837-.496-.303-.13-.617-.195-.945-.195-.291,0-.537.058-.74.172-.203.115-.305.312-.305.591,0,.26.104.448.309.563.207.115.594.218,1.164.309.648.103,1.127.282,1.437.536.31.255.464.606.464,1.055,0,.545-.205.952-.614,1.218s-.896.4-1.459.4Z"/>
    <path d="M460.276,205.721v-5.455h.882v.873h.246c.114-.333.293-.577.535-.731.242-.155.533-.232.873-.232.382,0,.697.132.945.396.249.264.373.638.373,1.123v.836h-.836v-.518c0-.346-.068-.599-.205-.759s-.35-.241-.641-.241c-.261,0-.498.07-.714.209-.215.14-.407.352-.577.636v3.864h-.882Z"/>
    <path d="M419.932,215.812c-.43,0-.847-.063-1.25-.19s-.765-.32-1.086-.58l.373-.698c.272.211.58.376.922.497s.689.181,1.041.181c.315,0,.594-.051.836-.153.242-.103.364-.301.364-.597,0-.271-.106-.462-.318-.574-.212-.111-.6-.212-1.164-.303-.643-.104-1.118-.275-1.427-.515s-.464-.6-.464-1.081c0-.529.187-.931.559-1.208.373-.276.823-.415,1.35-.415.394,0,.777.07,1.15.209.373.14.711.331,1.014.573l-.373.7c-.254-.2-.533-.365-.836-.496s-.618-.195-.945-.195c-.291,0-.538.058-.741.172-.203.115-.304.312-.304.591,0,.26.103.448.309.563s.594.218,1.164.309c.648.103,1.127.282,1.437.536.309.255.463.606.463,1.055,0,.545-.205.952-.614,1.218-.409.267-.895.4-1.459.4Z"/>
    <path d="M425.823,215.812c-.188,0-.385-.022-.591-.068-.206-.046-.403-.108-.591-.187v1.982h-.873v-7.273h.873v.846h.254c.133-.291.331-.52.591-.687.26-.167.551-.25.873-.25.503,0,.897.18,1.182.541.285.36.427.856.427,1.486v1.591c0,.624-.191,1.117-.573,1.477-.381.361-.906.541-1.572.541ZM425.804,215.039c.442,0,.769-.102.978-.305s.313-.523.313-.959v-1.6c0-.4-.081-.694-.241-.882-.161-.188-.408-.282-.741-.282-.279,0-.536.074-.772.223s-.47.38-.7.695v2.755c.17.115.349.203.537.263.188.061.396.091.627.091Z"/>
    <path d="M429.795,215.721v-.791h1.664v-5.691h-1.664v-.791h2.546v6.482h1.654v.791h-4.2Z"/>
    <path d="M435.804,215.721v-.791h1.664v-3.873h-1.664v-.791h2.545v4.664h1.654v.791h-4.2ZM437.913,209.257c-.218,0-.394-.036-.527-.109s-.2-.206-.2-.4v-.063c0-.2.066-.338.2-.414.133-.076.309-.113.527-.113s.394.038.527.113c.133.076.2.214.2.414v.063c0,.194-.068.327-.205.4s-.311.109-.523.109Z"/>
    <path d="M444.795,215.803c-.563,0-1.003-.152-1.318-.455-.314-.303-.473-.746-.473-1.328v-2.963h-1.4v-.791h1.4v-1.818h.882v1.818h2.146v.791h-2.146v2.873c0,.346.081.604.241.777s.395.259.704.259c.206,0,.401-.015.587-.045.185-.03.359-.076.522-.137l.173.809c-.176.061-.375.111-.596.15-.221.039-.463.059-.723.059Z"/>
    <path d="M447.84,217.539l3.337-9.091h.863l-3.336,9.091h-.864Z"/>
    <path d="M456.831,215.803c-.563,0-1.003-.152-1.318-.455-.315-.303-.473-.746-.473-1.328v-2.963h-1.399v-.791h1.399v-1.818h.882v1.818h2.146v.791h-2.146v2.873c0,.346.08.604.241.777.16.173.396.259.704.259.206,0,.402-.015.586-.045.186-.03.359-.076.523-.137l.173.809c-.177.061-.374.111-.596.15-.222.039-.462.059-.723.059Z"/>
    <path d="M460.35,211.775v3.945h-.801v-5.455h.801v.7h.172c.098-.249.23-.442.4-.582.17-.139.352-.209.545-.209.219,0,.4.068.546.205s.249.332.31.586h.182c.103-.249.244-.442.422-.582.18-.139.375-.209.587-.209.278,0,.497.118.655.354.156.236.236.563.236.982v4.209h-.801v-4.082c0-.254-.031-.448-.096-.582-.063-.133-.158-.2-.286-.2-.115,0-.247.081-.396.241s-.299.386-.449.677v3.945h-.801v-4.082c0-.26-.033-.456-.1-.586s-.164-.196-.291-.196c-.115,0-.244.079-.387.236-.143.158-.292.385-.449.682Z"/>
    <path d="M468.113,215.812c-.74,0-1.295-.171-1.664-.514-.37-.342-.555-.838-.555-1.486v-1.6c0-.667.185-1.172.555-1.518.369-.345.921-.518,1.654-.518.648,0,1.146.154,1.496.463.348.309.543.776.586,1.4l-.863.045c-.025-.4-.135-.687-.332-.859-.197-.172-.496-.259-.896-.259-.441,0-.773.1-.994.3-.223.2-.332.512-.332.937v1.618c0,.412.109.715.332.909.221.194.555.291,1.004.291.4,0,.698-.071.896-.213.196-.143.305-.383.323-.723l.863.045c-.037.563-.228.985-.572,1.264-.346.279-.846.418-1.5.418Z"/>
  </g>
  <text class="cls-6" transform="translate(446.841 231.721)"><tspan x="0" y="0">join</tspan></text>
  <line class="cls-9" x1="167.501" y1="128.5" x2="167.5" y2="114"/>
  <g>
    <path d="M142.069,138.721v-5.455h.882v.873h.246c.115-.333.294-.577.536-.731.242-.155.533-.232.873-.232.382,0,.697.132.946.396s.373.638.373,1.123v.836h-.836v-.518c0-.346-.068-.599-.205-.759-.136-.161-.35-.241-.641-.241-.261,0-.499.07-.714.209-.215.14-.408.352-.577.636v3.864h-.882Z"/>
    <path d="M149.787,138.812c-.673,0-1.191-.173-1.555-.518-.364-.346-.545-.839-.545-1.482v-1.6c0-.648.182-1.15.545-1.504s.885-.532,1.563-.532c.667,0,1.182.177,1.545.532.364.354.545.856.545,1.504v1.591c0,.648-.182,1.145-.545,1.491-.363.345-.882.518-1.554.518ZM149.787,138.021c.412,0,.719-.097.922-.291s.305-.5.305-.918v-1.6c0-.424-.102-.738-.305-.941-.203-.203-.51-.304-.922-.304s-.72.102-.923.304c-.203.203-.305.517-.305.941v1.6c0,.418.102.725.305.918s.51.291.923.291Z"/>
    <path d="M153.714,138.721v-.791h1.664v-5.691h-1.664v-.791h2.546v6.482h1.654v.791h-4.2Z"/>
    <path d="M159.732,138.721v-.791h1.664v-5.691h-1.664v-.791h2.546v6.482h1.654v.791h-4.2Z"/>
    <path d="M167.777,138.812c-.357,0-.713-.053-1.068-.159s-.677-.256-.968-.45v-6.755h.873v2.664h.254c.133-.297.329-.527.586-.691.258-.164.55-.246.877-.246.509,0,.905.176,1.187.527s.422.852.422,1.5v1.591c0,.643-.189,1.14-.568,1.491-.379.352-.911.527-1.596.527ZM167.777,138.039c.437,0,.761-.102.973-.305.212-.203.318-.523.318-.959v-1.582c0-.406-.081-.705-.241-.896-.161-.191-.408-.286-.741-.286-.279,0-.538.076-.777.227-.239.152-.471.382-.695.691v2.791c.176.109.357.189.545.241.188.052.394.078.618.078Z"/>
    <path d="M173.132,138.812c-.449,0-.83-.127-1.146-.382-.315-.254-.473-.646-.473-1.173,0-.473.146-.847.437-1.123s.648-.414,1.073-.414h1.646v-.818c0-.278-.088-.503-.264-.672-.176-.17-.439-.255-.791-.255-.364,0-.633.062-.809.187-.176.125-.315.386-.418.786l-.763-.218c.097-.515.31-.903.641-1.164.33-.26.777-.391,1.341-.391.558,0,1.021.132,1.391.396s.555.669.555,1.216v2.532c0,.31.082.507.245.592s.409.097.736.036v.8c-.382.061-.717.032-1.004-.086-.288-.118-.447-.393-.477-.823h-.173c-.152.279-.383.511-.695.695-.312.185-.663.277-1.05.277ZM173.259,138.057c.297,0,.563-.058.8-.174s.439-.311.609-.585v-.905h-1.427c-.261,0-.47.061-.627.183-.158.122-.236.332-.236.631,0,.268.068.477.205.626.136.149.362.224.677.224Z"/>
    <path d="M179.996,138.812c-.74,0-1.294-.171-1.664-.514-.37-.342-.555-.838-.555-1.486v-1.6c0-.667.185-1.172.555-1.518.369-.345.921-.518,1.654-.518.648,0,1.147.154,1.496.463.348.309.544.776.586,1.4l-.864.045c-.024-.4-.135-.687-.332-.859-.197-.172-.495-.259-.896-.259-.442,0-.774.1-.995.3-.222.2-.332.512-.332.937v1.618c0,.412.11.715.332.909.221.194.556.291,1.004.291.4,0,.698-.071.896-.213.197-.143.305-.383.323-.723l.864.045c-.037.563-.228.985-.573,1.264-.346.279-.846.418-1.5.418Z"/>
    <path d="M185.068,136.239v2.482h-.882v-7.273h.882v4.037h.418l1.591-2.218h1.055l-1.955,2.54,1.927,2.915h-1l-1.618-2.482h-.418Z"/>
    <path d="M189.813,140.539l3.336-9.091h.863l-3.336,9.091h-.864Z"/>
    <path d="M140.878,148.812c-.74,0-1.294-.171-1.664-.514-.37-.342-.555-.838-.555-1.486v-1.6c0-.667.185-1.172.555-1.518.369-.345.921-.518,1.654-.518.648,0,1.147.154,1.496.463.348.309.544.776.586,1.4l-.864.045c-.024-.4-.135-.687-.332-.859-.197-.172-.495-.259-.896-.259-.442,0-.774.1-.995.3-.222.2-.332.512-.332.937v1.618c0,.412.11.715.332.909.221.194.556.291,1.004.291.4,0,.698-.071.896-.213.197-.143.305-.383.323-.723l.864.045c-.037.563-.228.985-.573,1.264-.346.279-.846.418-1.5.418Z"/>
    <path d="M146.778,148.812c-.673,0-1.191-.173-1.555-.518-.364-.346-.545-.839-.545-1.482v-1.6c0-.648.182-1.15.545-1.504s.885-.532,1.563-.532c.667,0,1.182.177,1.545.532.364.354.545.856.545,1.504v1.591c0,.648-.182,1.145-.545,1.491-.363.345-.882.518-1.554.518ZM146.778,148.021c.412,0,.719-.097.922-.291s.305-.5.305-.918v-1.6c0-.424-.102-.738-.305-.941-.203-.203-.51-.304-.922-.304s-.72.102-.923.304c-.203.203-.305.517-.305.941v1.6c0,.418.102.725.305.918s.51.291.923.291Z"/>
    <path d="M151.168,144.775v3.945h-.8v-5.455h.8v.7h.173c.097-.249.23-.442.4-.582.169-.139.352-.209.545-.209.218,0,.4.068.545.205s.249.332.309.586h.182c.103-.249.244-.442.423-.582.179-.139.374-.209.586-.209.279,0,.497.118.655.354.157.236.236.563.236.982v4.209h-.8v-4.082c0-.254-.032-.448-.095-.582-.064-.133-.159-.2-.287-.2-.115,0-.247.081-.396.241s-.298.386-.45.677v3.945h-.8v-4.082c0-.26-.033-.456-.1-.586-.067-.13-.164-.196-.291-.196-.115,0-.244.079-.386.236-.143.158-.292.385-.45.682Z"/>
    <path d="M157.187,144.775v3.945h-.8v-5.455h.8v.7h.173c.097-.249.23-.442.4-.582.169-.139.352-.209.545-.209.218,0,.4.068.545.205s.249.332.309.586h.182c.103-.249.244-.442.423-.582.179-.139.374-.209.586-.209.279,0,.497.118.655.354.157.236.236.563.236.982v4.209h-.8v-4.082c0-.254-.032-.448-.095-.582-.064-.133-.159-.2-.287-.2-.115,0-.247.081-.396.241s-.298.386-.45.677v3.945h-.8v-4.082c0-.26-.033-.456-.1-.586-.067-.13-.164-.196-.291-.196-.115,0-.244.079-.386.236-.143.158-.292.385-.45.682Z"/>
    <path d="M162.732,148.721v-.791h1.664v-3.873h-1.664v-.791h2.545v4.664h1.654v.791h-4.2ZM164.841,142.257c-.218,0-.394-.036-.527-.109s-.2-.206-.2-.4v-.063c0-.2.066-.338.2-.414.133-.076.309-.113.527-.113s.394.038.527.113c.133.076.2.214.2.414v.063c0,.194-.068.327-.205.4s-.311.109-.523.109Z"/>
    <path d="M171.723,148.803c-.563,0-1.003-.152-1.318-.455-.315-.303-.473-.746-.473-1.328v-2.963h-1.4v-.791h1.4v-1.818h.882v1.818h2.146v.791h-2.146v2.873c0,.346.081.604.241.777.16.173.395.259.704.259.206,0,.402-.015.586-.045.185-.03.359-.076.523-.137l.173.809c-.176.061-.375.111-.596.15-.221.039-.462.059-.723.059Z"/>
    <path d="M183.613,148.721l-.727-3.563-.7,3.563h-.973l-.937-5.455h.836l.618,4.754.646-3.854h.982l.709,3.709.591-4.609h.836l-.937,5.455h-.945Z"/>
    <path d="M186.804,148.721v-.791h1.664v-3.873h-1.664v-.791h2.545v4.664h1.654v.791h-4.2ZM188.913,142.257c-.218,0-.394-.036-.527-.109s-.2-.206-.2-.4v-.063c0-.2.066-.338.2-.414.133-.076.309-.113.527-.113s.394.038.527.113c.133.076.2.214.2.414v.063c0,.194-.068.327-.205.4s-.311.109-.523.109Z"/>
    <path d="M195.895,147.875c-.133.297-.329.527-.586.69-.258.164-.55.246-.877.246-.509,0-.904-.179-1.186-.536-.282-.358-.423-.854-.423-1.491v-1.591c0-.636.188-1.132.563-1.486s.903-.532,1.582-.532c.194,0,.392.022.595.068.203.045.398.107.586.186v-1.982h.873v7.273h-.873v-.845h-.254ZM194.677,147.975c.279,0,.538-.076.777-.227.239-.151.471-.382.695-.691v-2.754c-.17-.122-.35-.211-.541-.269-.191-.057-.396-.086-.613-.086-.443,0-.77.104-.982.309-.212.207-.318.524-.318.955v1.591c0,.4.082.695.246.886s.409.286.736.286Z"/>
  </g>
  <polygon class="cls-9" points="176 348 176 389.109 176 395.891 176 437 160 422.585 160 395.802 160 389.198 160 362.415 176 348"/>
  <g>
    <line class="cls-9" x1="176" y1="359.5" x2="190.412" y2="359.5"/>
    <polygon points="189.682 361.993 194 359.5 189.682 357.007 189.682 361.993"/>
  </g>
  <g>
    <line class="cls-9" x1="176" y1="403.5" x2="190.412" y2="403.5"/>
    <polygon points="189.682 405.993 194 403.5 189.682 401.007 189.682 405.993"/>
  </g>
  <g>
    <line class="cls-9" x1="176" y1="425.5" x2="190.412" y2="425.5"/>
    <polygon points="189.682 427.993 194 425.5 189.682 423.007 189.682 427.993"/>
  </g>
  <line class="cls-9" x1="277" y1="473.5" x2="337" y2="473.5"/>
  <line class="cls-9" x1="412.5" y1="479.5" x2="534.5" y2="479.5"/>
  <line class="cls-9" x1="526.5" y1="497.5" x2="571.5" y2="497.5"/>
  <g>
    <line class="cls-9" x1="176" y1="381.5" x2="190.412" y2="381.5"/>
    <polygon points="189.682 383.993 194 381.5 189.682 379.007 189.682 383.993"/>
  </g>
  <g>
    <line class="cls-9" x1="255.004" y1="498" x2="255.004" y2="440.588"/>
    <polygon points="257.497 441.318 255.004 437 252.511 441.318 257.497 441.318"/>
  </g>
  <line class="cls-9" x1="276.997" y1="474.004" x2="276.997" y2="437.004"/>
  <g>
    <line class="cls-9" x1="141.5" y1="392.5" x2="155.912" y2="392.5"/>
    <polygon points="155.182 394.993 159.5 392.5 155.182 390.007 155.182 394.993"/>
  </g>
  <line class="cls-9" x1="167.501" y1="443.5" x2="167.5" y2="429"/>
  <text class="cls-6" transform="translate(128.724 453.721)"><tspan x="0" y="0">predecode/ex/</tspan><tspan x="9.027" y="10">commit wid</tspan></text>
  <text class="cls-6" transform="translate(52.769 58.721)"><tspan x="0" y="0">pc+8</tspan></text>
  <text class="cls-6" transform="translate(36.642 80.721)"><tspan x="0" y="0">rollback pc</tspan></text>
  <text class="cls-6" transform="translate(624.841 51.721)"><tspan x="0" y="0">fetch</tspan><tspan x="0" y="10">pc, wid,</tspan><tspan x="0" y="20">instr</tspan></text>
  <text class="cls-6" transform="translate(676.841 134.721)"><tspan x="0" y="0">wid</tspan></text>
  <text class="cls-6" transform="translate(676.841 215.721)"><tspan x="0" y="0">instr</tspan></text>
  <text class="cls-6" transform="translate(676.841 248.721)"><tspan x="0" y="0">tmask</tspan></text>
  <g>
    <path d="M380.004,377.721v-4.664h-1.418v-.791h1.418v-.364c0-.485.176-.86.527-1.127s.785-.4,1.3-.4c.267,0,.508.027.723.082.215.055.398.112.55.173l-.164.746c-.146-.061-.309-.111-.491-.15-.182-.039-.385-.059-.609-.059-.291,0-.523.056-.695.168-.173.112-.259.295-.259.55v.382h2.063v.791h-2.063v4.664h-.882Z"/>
    <path d="M388.995,376.53c-.151.449-.383.774-.695.977-.312.203-.786.305-1.423.305-.661,0-1.177-.169-1.55-.509-.373-.339-.559-.839-.559-1.5v-1.591c0-.679.195-1.188.586-1.527.391-.339.898-.509,1.522-.509.63,0,1.137.173,1.518.518.382.346.573.876.573,1.591v.882h-3.327v.637c0,.448.102.77.305.963s.514.291.932.291c.394,0,.68-.062.859-.187.179-.124.316-.323.414-.595l.845.254ZM385.641,374.221v.273h2.455v-.191c0-.479-.103-.828-.309-1.046-.206-.218-.512-.327-.918-.327s-.712.106-.918.318-.309.536-.309.973Z"/>
    <path d="M393.759,377.803c-.563,0-1.003-.152-1.318-.455-.315-.303-.473-.746-.473-1.328v-2.963h-1.4v-.791h1.4v-1.818h.882v1.818h2.146v.791h-2.146v2.873c0,.346.081.604.241.777.16.173.395.259.704.259.206,0,.402-.015.586-.045.185-.03.359-.076.523-.137l.173.809c-.176.061-.375.111-.596.15-.221.039-.462.059-.723.059Z"/>
    <path d="M399.022,377.812c-.74,0-1.294-.171-1.664-.514-.37-.342-.555-.838-.555-1.486v-1.6c0-.667.185-1.172.555-1.518.369-.345.921-.518,1.654-.518.648,0,1.147.154,1.496.463.348.309.544.776.586,1.4l-.864.045c-.024-.4-.135-.687-.332-.859-.197-.172-.495-.259-.896-.259-.442,0-.774.1-.995.3-.222.2-.332.512-.332.937v1.618c0,.412.11.715.332.909.221.194.556.291,1.004.291.4,0,.698-.071.896-.213.197-.143.305-.383.323-.723l.864.045c-.037.563-.228.985-.573,1.264-.346.279-.846.418-1.5.418Z"/>
    <path d="M402.822,377.721v-7.273h.873v2.664h.254c.115-.285.305-.512.568-.682.264-.169.565-.254.905-.254.491,0,.88.164,1.168.491.288.328.432.767.432,1.318v3.736h-.873v-3.563c0-.376-.083-.661-.25-.854-.167-.194-.404-.291-.713-.291-.255,0-.509.076-.764.227-.255.152-.497.376-.728.673v3.809h-.873Z"/>
    <path d="M381.723,387.803c-.563,0-1.003-.152-1.318-.455-.315-.303-.473-.746-.473-1.328v-2.963h-1.4v-.791h1.4v-1.818h.882v1.818h2.146v.791h-2.146v2.873c0,.346.081.604.241.777.16.173.395.259.704.259.206,0,.402-.015.586-.045.185-.03.359-.076.523-.137l.173.809c-.176.061-.375.111-.596.15-.221.039-.462.059-.723.059Z"/>
    <path d="M385.241,383.775v3.945h-.8v-5.455h.8v.7h.173c.097-.249.23-.442.4-.582.169-.139.352-.209.545-.209.218,0,.4.068.545.205s.249.332.309.586h.182c.103-.249.244-.442.423-.582.179-.139.374-.209.586-.209.279,0,.497.118.655.354.157.236.236.563.236.982v4.209h-.8v-4.082c0-.254-.032-.448-.095-.582-.064-.133-.159-.2-.287-.2-.115,0-.247.081-.396.241s-.298.386-.45.677v3.945h-.8v-4.082c0-.26-.033-.456-.1-.586-.067-.13-.164-.196-.291-.196-.115,0-.244.079-.386.236-.143.158-.292.385-.45.682Z"/>
    <path d="M392.159,387.812c-.449,0-.83-.127-1.146-.382-.315-.254-.473-.646-.473-1.173,0-.473.146-.847.437-1.123s.648-.414,1.073-.414h1.646v-.818c0-.278-.088-.503-.264-.672-.176-.17-.439-.255-.791-.255-.364,0-.633.062-.809.187-.176.125-.315.386-.418.786l-.763-.218c.097-.515.31-.903.641-1.164.33-.26.777-.391,1.341-.391.558,0,1.021.132,1.391.396s.555.669.555,1.216v2.532c0,.31.082.507.245.592s.409.097.736.036v.8c-.382.061-.717.032-1.004-.086-.288-.118-.447-.393-.477-.823h-.173c-.152.279-.383.511-.695.695-.312.185-.663.277-1.05.277ZM392.286,387.057c.297,0,.563-.058.8-.174s.439-.311.609-.585v-.905h-1.427c-.261,0-.47.061-.627.183-.158.122-.236.332-.236.631,0,.268.068.477.205.626.136.149.362.224.677.224Z"/>
    <path d="M398.986,387.812c-.43,0-.847-.063-1.25-.19s-.765-.32-1.086-.58l.373-.698c.272.211.58.376.922.497s.689.181,1.041.181c.315,0,.594-.051.836-.153.242-.103.364-.301.364-.597,0-.271-.106-.462-.318-.574-.212-.111-.6-.212-1.164-.303-.643-.104-1.118-.275-1.427-.515s-.464-.6-.464-1.081c0-.529.187-.931.559-1.208.373-.276.823-.415,1.35-.415.394,0,.777.07,1.15.209.373.14.711.331,1.014.573l-.373.7c-.254-.2-.533-.365-.836-.496s-.618-.195-.945-.195c-.291,0-.538.058-.741.172-.203.115-.304.312-.304.591,0,.26.103.448.309.563s.594.218,1.164.309c.648.103,1.127.282,1.437.536.309.255.463.606.463,1.055,0,.545-.205.952-.614,1.218-.409.267-.895.4-1.459.4Z"/>
    <path d="M404.095,385.239v2.482h-.882v-7.273h.882v4.037h.418l1.591-2.218h1.055l-1.955,2.54,1.927,2.915h-1l-1.618-2.482h-.418Z"/>
  </g>
  <text class="cls-6" transform="translate(422.841 403.721)"><tspan x="0" y="0">pop(wid)</tspan></text>
  <text class="cls-6" transform="translate(676.841 182.721)"><tspan x="0" y="0">pc</tspan></text>
  <text class="cls-6" transform="translate(635.841 215.721)"><tspan x="0" y="0">instr</tspan></text>
  <text class="cls-6" transform="translate(649.459 274.721)"><tspan x="0" y="0">curr wid</tspan></text>
  <text class="cls-6" transform="translate(649.459 288.721)"><tspan x="0" y="0">valid warps</tspan></text>
  <text class="cls-6" transform="translate(649.459 302.721)"><tspan x="0" y="0">issue wid</tspan></text>
  <text class="cls-6" transform="translate(39.726 210.721)"><tspan x="0" y="0">br/j dest</tspan></text>
  <text class="cls-6" transform="translate(278.162 522.721)"><tspan x="0" y="0">CSR req</tspan></text>
  <text class="cls-6" transform="translate(312.653 538.721)"><tspan x="0" y="0">CSR resp</tspan></text>
  <text class="cls-6" transform="translate(350.153 522.721)"><tspan x="0" y="0">split pc</tspan></text>
  <text class="cls-6" transform="translate(397.681 538.721)"><tspan x="0" y="0">tmask</tspan></text>
  <text class="cls-6" transform="translate(476.689 538.721)"><tspan x="0" y="0">push</tspan></text>
  <text class="cls-6" transform="translate(432.671 522.721)"><tspan x="0" y="0">ex wid</tspan></text>
  <text class="cls-6" transform="translate(496.635 522.721)"><tspan x="0" y="0">taken mask</tspan></text>
  <text class="cls-1" transform="translate(513.099 224.902)"><tspan x="0" y="0">Pre-decoder</tspan></text>
  <g>
    <rect class="cls-8" x="474.5" y="264.5" width="143" height="44"/>
    <path d="M617,265v43h-142v-43h142M618,264h-144v45h144v-45h0Z"/>
  </g>
  <text class="cls-1" transform="translate(496.982 290.902)"><tspan x="0" y="0">Issue </tspan><tspan class="cls-14" x="32.016" y="0">W</tspan><tspan x="42.902" y="0">arp</tspan><tspan class="cls-13" x="60.246" y="0"> </tspan><tspan x="62.924" y="0">Arbiter</tspan></text>
  <g>
    <rect class="cls-8" x="474.5" y="132.5" width="143" height="44"/>
    <path d="M617,133v43h-142v-43h142M618,132h-144v45h144v-45h0Z"/>
  </g>
  <text class="cls-1" transform="translate(496.317 158.902)"><tspan x="0" y="0">Fetch </tspan><tspan class="cls-14" x="33.346" y="0">W</tspan><tspan x="44.232" y="0">arp</tspan><tspan class="cls-13" x="61.576" y="0"> </tspan><tspan x="64.254" y="0">Arbiter</tspan></text>
  <g>
    <rect class="cls-8" x="474.5" y="44.5" width="143" height="66"/>
    <path d="M617,45v65h-142V45h142M618,44h-144v67h144V44h0Z"/>
  </g>
  <text class="cls-1" transform="translate(532.771 81.902)"><tspan x="0" y="0">L0 I$</tspan></text>
  <g>
    <circle class="cls-9" cx="371.5" cy="209.5" r="9"/>
    <line class="cls-9" x1="371.5" y1="202.5" x2="371.5" y2="216.5"/>
    <line class="cls-9" x1="364.5" y1="209.5" x2="378.5" y2="209.5"/>
  </g>
  <g>
    <circle class="cls-9" cx="734.5" cy="220.5" r="9"/>
    <line class="cls-9" x1="734.5" y1="213.5" x2="734.5" y2="227.5"/>
    <line class="cls-9" x1="727.5" y1="220.5" x2="741.5" y2="220.5"/>
  </g>
  <g>
    <rect class="cls-7" x="638.045" y="163" width="10.909" height="16" transform="translate(814.5 -472.5) rotate(90)"/>
    <polygon class="cls-7" points="640.227 171 635.68 168.339 635.68 173.661 640.227 171"/>
  </g>
  <g>
    <rect class="cls-7" x="95.866" y="47.052" width="10.909" height="16"/>
    <polygon class="cls-7" points="101.321 58.325 98.66 62.872 103.982 62.872 101.321 58.325"/>
  </g>
  <text class="cls-6" transform="translate(764.973 163.413)"><tspan x="0" y="0">~en</tspan></text>
  <text class="cls-6" transform="translate(747.946 123.909)"><tspan x="0" y="0">counts</tspan></text>
  <text class="cls-6" transform="translate(764.973 222.636)"><tspan x="0" y="0">din</tspan></text>
  <line class="cls-9" x1="390" y1="180" x2="395.5" y2="174.5"/>
  <line class="cls-9" x1="720" y1="163.25" x2="725.5" y2="157.75"/>
  <line class="cls-9" x1="450.5" y1="485.5" x2="546.5" y2="485.5"/>
  <line class="cls-9" x1="375" y1="473.5" x2="521.5" y2="473.5"/>
  <line class="cls-9" x1="488.5" y1="491.5" x2="558.5" y2="491.5"/>
  <g>
    <path class="cls-4" d="M137.283,11.568h.869v.742c.208-.257.397-.444.566-.562.29-.199.619-.298.986-.298.417,0,.752.103,1.006.308.143.117.273.29.391.518.195-.28.425-.487.688-.623s.56-.203.889-.203c.703,0,1.182.254,1.436.762.137.273.205.641.205,1.104v3.481h-.913v-3.633c0-.348-.087-.587-.261-.718s-.387-.195-.637-.195c-.345,0-.642.116-.891.347s-.374.617-.374,1.157v3.042h-.894v-3.413c0-.355-.042-.614-.127-.776-.133-.244-.382-.366-.747-.366-.332,0-.634.128-.906.386s-.408.723-.408,1.396v2.773h-.879v-5.229Z"/>
    <path class="cls-4" d="M146.492,11.568v3.472c0,.267.041.485.124.654.152.312.436.469.852.469.596,0,1.001-.273,1.217-.82.117-.293.176-.695.176-1.206v-2.568h.879v5.229h-.83l.01-.771c-.112.199-.251.366-.417.503-.329.273-.728.41-1.198.41-.731,0-1.23-.249-1.495-.747-.144-.267-.216-.624-.216-1.069v-3.555h.898Z"/>
    <path class="cls-4" d="M150.676,11.568h1.138l1.201,1.841,1.216-1.841,1.069.024-1.763,2.524,1.841,2.681h-1.123l-1.299-1.963-1.26,1.963h-1.113l1.841-2.681-1.748-2.549Z"/>
    <path class="cls-4" d="M159.404,11.712c.346.174.61.399.791.676.175.264.292.571.35.923.052.241.078.625.078,1.152h-3.804c.016.532.141.959.373,1.28.232.322.593.482,1.081.482.455,0,.818-.152,1.09-.456.152-.177.259-.381.323-.613h.864c-.023.192-.099.406-.227.642s-.272.429-.43.579c-.265.26-.593.436-.984.527-.21.052-.447.078-.712.078-.647,0-1.195-.237-1.645-.71s-.674-1.137-.674-1.99c0-.84.227-1.522.679-2.046.453-.524,1.045-.786,1.776-.786.369,0,.726.087,1.072.261ZM159.719,13.766c-.036-.381-.118-.685-.247-.913-.239-.423-.637-.635-1.196-.635-.4,0-.736.146-1.007.437-.271.292-.415.662-.431,1.111h2.881Z"/>
    <path class="cls-4" d="M162.258,15.157c.026.293.101.518.224.674.226.283.618.425,1.176.425.332,0,.625-.071.877-.212s.379-.36.379-.657c0-.225-.101-.396-.303-.513-.129-.072-.384-.155-.764-.249l-.709-.176c-.453-.111-.788-.234-1.002-.371-.384-.238-.576-.566-.576-.986,0-.495.181-.895.542-1.201.361-.306.847-.459,1.457-.459.798,0,1.374.231,1.727.693.221.293.328.609.322.947h-.83c-.017-.197-.088-.377-.215-.539-.207-.23-.565-.345-1.075-.345-.34,0-.597.063-.772.19-.175.126-.262.293-.262.501,0,.227.115.409.345.545.133.081.329.152.587.214l.592.142c.644.153,1.075.301,1.293.444.342.225.513.578.513,1.06,0,.465-.179.868-.537,1.206-.357.338-.902.508-1.634.508-.788,0-1.345-.177-1.673-.53-.328-.353-.503-.79-.526-1.311h.845Z"/>
    <path class="cls-4" d="M132.483,21.593h.859v.693c.176-.238.369-.421.578-.552.297-.195.646-.293,1.048-.293.594,0,1.098.227,1.513.681.414.454.622,1.103.622,1.946,0,1.139-.299,1.953-.897,2.441-.379.309-.82.464-1.324.464-.396,0-.727-.086-.995-.259-.157-.098-.332-.265-.524-.503v2.671h-.879v-7.29ZM135.79,25.692c.273-.343.409-.857.409-1.541,0-.417-.061-.775-.181-1.074-.229-.576-.647-.864-1.254-.864-.611,0-1.029.304-1.254.913-.121.326-.181.739-.181,1.24,0,.404.061.747.181,1.03.229.541.647.811,1.254.811.412,0,.754-.172,1.026-.515Z"/>
    <path class="cls-4" d="M141.348,21.712c.346.174.61.399.791.676.175.264.292.571.35.923.052.241.078.625.078,1.152h-3.804c.016.532.141.959.373,1.28.232.322.593.482,1.081.482.455,0,.818-.152,1.09-.456.152-.177.259-.381.323-.613h.864c-.023.192-.099.406-.227.642s-.272.429-.43.579c-.265.26-.593.436-.984.527-.21.052-.447.078-.712.078-.647,0-1.195-.237-1.645-.71s-.674-1.137-.674-1.99c0-.84.227-1.522.679-2.046.453-.524,1.045-.786,1.776-.786.369,0,.726.087,1.072.261ZM141.663,23.766c-.036-.381-.118-.685-.247-.913-.239-.423-.637-.635-1.196-.635-.4,0-.736.146-1.007.437-.271.292-.415.662-.431,1.111h2.881Z"/>
    <path class="cls-4" d="M143.704,21.568h.835v.903c.068-.176.236-.39.503-.642s.575-.378.923-.378c.016,0,.044.001.083.005s.106.01.2.02v.928c-.052-.01-.1-.016-.144-.02s-.092-.005-.144-.005c-.443,0-.783.143-1.021.427s-.356.613-.356.984v3.008h-.879v-5.229Z"/>
    <path class="cls-4" d="M150.195,21.568l1.006,4.121,1.021-4.121h.986l1.025,4.097,1.069-4.097h.879l-1.519,5.229h-.913l-1.064-4.048-1.03,4.048h-.913l-1.509-5.229h.962Z"/>
    <path class="cls-4" d="M159.812,23.633c.202-.026.337-.11.405-.253.039-.078.059-.191.059-.338,0-.301-.106-.519-.319-.654-.213-.136-.517-.204-.914-.204-.458,0-.783.125-.975.373-.107.137-.177.342-.209.613h-.82c.016-.646.225-1.096.626-1.349.402-.253.868-.379,1.397-.379.614,0,1.114.117,1.497.352.38.234.571.599.571,1.094v3.013c0,.091.019.165.056.22s.116.083.237.083c.039,0,.083-.002.132-.007s.101-.012.156-.022v.649c-.137.039-.241.063-.312.073s-.169.015-.293.015c-.303,0-.522-.107-.659-.322-.072-.114-.122-.275-.151-.483-.179.234-.436.438-.771.61s-.705.259-1.108.259c-.485,0-.881-.147-1.189-.441-.308-.294-.461-.662-.461-1.104,0-.484.151-.86.454-1.126s.7-.431,1.191-.493l1.401-.176ZM157.961,26.007c.186.146.405.219.659.219.309,0,.609-.071.898-.214.488-.237.732-.625.732-1.165v-.707c-.107.068-.245.125-.414.171s-.335.078-.497.098l-.531.068c-.318.042-.558.109-.718.2-.272.153-.408.396-.408.731,0,.253.093.453.278.599Z"/>
    <path class="cls-4" d="M162.595,21.568h.835v.903c.068-.176.236-.39.503-.642s.575-.378.923-.378c.016,0,.044.001.083.005s.106.01.2.02v.928c-.052-.01-.1-.016-.144-.02s-.092-.005-.144-.005c-.443,0-.783.143-1.021.427s-.356.613-.356.984v3.008h-.879v-5.229Z"/>
    <path class="cls-4" d="M165.828,21.593h.859v.693c.176-.238.369-.421.578-.552.297-.195.646-.293,1.048-.293.594,0,1.098.227,1.513.681.414.454.622,1.103.622,1.946,0,1.139-.299,1.953-.897,2.441-.379.309-.82.464-1.324.464-.396,0-.727-.086-.995-.259-.157-.098-.332-.265-.524-.503v2.671h-.879v-7.29ZM169.134,25.692c.273-.343.409-.857.409-1.541,0-.417-.061-.775-.181-1.074-.229-.576-.647-.864-1.254-.864-.611,0-1.029.304-1.254.913-.121.326-.181.739-.181,1.24,0,.404.061.747.181,1.03.229.541.647.811,1.254.811.412,0,.754-.172,1.026-.515Z"/>
  </g>
  <g>
    <path class="cls-4" d="M137.283,327.568h.869v.742c.208-.257.397-.444.566-.562.29-.199.619-.298.986-.298.417,0,.752.103,1.006.308.143.117.273.29.391.518.195-.28.425-.487.688-.623s.56-.203.889-.203c.703,0,1.182.254,1.436.762.137.273.205.641.205,1.104v3.481h-.913v-3.633c0-.348-.087-.587-.261-.718s-.387-.195-.637-.195c-.345,0-.642.116-.891.347s-.374.617-.374,1.157v3.042h-.894v-3.413c0-.355-.042-.614-.127-.776-.133-.244-.382-.366-.747-.366-.332,0-.634.128-.906.386s-.408.723-.408,1.396v2.773h-.879v-5.229Z"/>
    <path class="cls-4" d="M146.492,327.568v3.472c0,.267.041.485.124.654.152.312.436.469.852.469.596,0,1.001-.273,1.217-.82.117-.293.176-.695.176-1.206v-2.568h.879v5.229h-.83l.01-.771c-.112.199-.251.366-.417.503-.329.273-.728.41-1.198.41-.731,0-1.23-.249-1.495-.747-.144-.267-.216-.624-.216-1.069v-3.555h.898Z"/>
    <path class="cls-4" d="M150.676,327.568h1.138l1.201,1.841,1.216-1.841,1.069.024-1.763,2.524,1.841,2.681h-1.123l-1.299-1.963-1.26,1.963h-1.113l1.841-2.681-1.748-2.549Z"/>
    <path class="cls-4" d="M159.404,327.712c.346.174.61.399.791.676.175.264.292.571.35.923.052.241.078.625.078,1.152h-3.804c.016.532.141.959.373,1.28.232.322.593.482,1.081.482.455,0,.818-.152,1.09-.456.152-.177.259-.381.323-.613h.864c-.023.192-.099.406-.227.642s-.272.429-.43.579c-.265.26-.593.436-.984.527-.21.052-.447.078-.712.078-.647,0-1.195-.237-1.645-.71s-.674-1.137-.674-1.99c0-.84.227-1.522.679-2.046.453-.524,1.045-.786,1.776-.786.369,0,.726.087,1.072.261ZM159.719,329.766c-.036-.381-.118-.685-.247-.913-.239-.423-.637-.635-1.196-.635-.4,0-.736.146-1.007.437-.271.292-.415.662-.431,1.111h2.881Z"/>
    <path class="cls-4" d="M162.258,331.157c.026.293.101.518.224.674.226.283.618.425,1.176.425.332,0,.625-.071.877-.212s.379-.36.379-.657c0-.225-.101-.396-.303-.513-.129-.072-.384-.155-.764-.249l-.709-.176c-.453-.111-.788-.234-1.002-.371-.384-.238-.576-.566-.576-.986,0-.495.181-.895.542-1.201.361-.306.847-.459,1.457-.459.798,0,1.374.231,1.727.693.221.293.328.609.322.947h-.83c-.017-.197-.088-.377-.215-.539-.207-.23-.565-.345-1.075-.345-.34,0-.597.063-.772.19-.175.126-.262.293-.262.501,0,.227.115.409.345.545.133.081.329.152.587.214l.592.142c.644.153,1.075.301,1.293.444.342.225.513.578.513,1.06,0,.465-.179.868-.537,1.206-.357.338-.902.508-1.634.508-.788,0-1.345-.177-1.673-.53-.328-.353-.503-.79-.526-1.311h.845Z"/>
    <path class="cls-4" d="M132.483,337.593h.859v.693c.176-.238.369-.421.578-.552.297-.195.646-.293,1.048-.293.594,0,1.098.227,1.513.681.414.454.622,1.103.622,1.946,0,1.139-.299,1.953-.897,2.441-.379.309-.82.464-1.324.464-.396,0-.727-.086-.995-.259-.157-.098-.332-.265-.524-.503v2.671h-.879v-7.29ZM135.79,341.692c.273-.343.409-.857.409-1.541,0-.417-.061-.775-.181-1.074-.229-.576-.647-.864-1.254-.864-.611,0-1.029.304-1.254.913-.121.326-.181.739-.181,1.24,0,.404.061.747.181,1.03.229.541.647.811,1.254.811.412,0,.754-.172,1.026-.515Z"/>
    <path class="cls-4" d="M141.348,337.712c.346.174.61.399.791.676.175.264.292.571.35.923.052.241.078.625.078,1.152h-3.804c.016.532.141.959.373,1.28.232.322.593.482,1.081.482.455,0,.818-.152,1.09-.456.152-.177.259-.381.323-.613h.864c-.023.192-.099.406-.227.642s-.272.429-.43.579c-.265.26-.593.436-.984.527-.21.052-.447.078-.712.078-.647,0-1.195-.237-1.645-.71s-.674-1.137-.674-1.99c0-.84.227-1.522.679-2.046.453-.524,1.045-.786,1.776-.786.369,0,.726.087,1.072.261ZM141.663,339.766c-.036-.381-.118-.685-.247-.913-.239-.423-.637-.635-1.196-.635-.4,0-.736.146-1.007.437-.271.292-.415.662-.431,1.111h2.881Z"/>
    <path class="cls-4" d="M143.704,337.568h.835v.903c.068-.176.236-.39.503-.642s.575-.378.923-.378c.016,0,.044.001.083.005s.106.01.2.02v.928c-.052-.01-.1-.016-.144-.02s-.092-.005-.144-.005c-.443,0-.783.143-1.021.427s-.356.613-.356.984v3.008h-.879v-5.229Z"/>
    <path class="cls-4" d="M150.195,337.568l1.006,4.121,1.021-4.121h.986l1.025,4.097,1.069-4.097h.879l-1.519,5.229h-.913l-1.064-4.048-1.03,4.048h-.913l-1.509-5.229h.962Z"/>
    <path class="cls-4" d="M159.812,339.633c.202-.026.337-.11.405-.253.039-.078.059-.191.059-.338,0-.301-.106-.519-.319-.654-.213-.136-.517-.204-.914-.204-.458,0-.783.125-.975.373-.107.137-.177.342-.209.613h-.82c.016-.646.225-1.096.626-1.349.402-.253.868-.379,1.397-.379.614,0,1.114.117,1.497.352.38.234.571.599.571,1.094v3.013c0,.091.019.165.056.22s.116.083.237.083c.039,0,.083-.002.132-.007s.101-.012.156-.022v.649c-.137.039-.241.063-.312.073s-.169.015-.293.015c-.303,0-.522-.107-.659-.322-.072-.114-.122-.275-.151-.483-.179.234-.436.438-.771.61s-.705.259-1.108.259c-.485,0-.881-.147-1.189-.441-.308-.294-.461-.662-.461-1.104,0-.484.151-.86.454-1.126s.7-.431,1.191-.493l1.401-.176ZM157.961,342.007c.186.146.405.219.659.219.309,0,.609-.071.898-.214.488-.237.732-.625.732-1.165v-.707c-.107.068-.245.125-.414.171s-.335.078-.497.098l-.531.068c-.318.042-.558.109-.718.2-.272.153-.408.396-.408.731,0,.253.093.453.278.599Z"/>
    <path class="cls-4" d="M162.595,337.568h.835v.903c.068-.176.236-.39.503-.642s.575-.378.923-.378c.016,0,.044.001.083.005s.106.01.2.02v.928c-.052-.01-.1-.016-.144-.02s-.092-.005-.144-.005c-.443,0-.783.143-1.021.427s-.356.613-.356.984v3.008h-.879v-5.229Z"/>
    <path class="cls-4" d="M165.828,337.593h.859v.693c.176-.238.369-.421.578-.552.297-.195.646-.293,1.048-.293.594,0,1.098.227,1.513.681.414.454.622,1.103.622,1.946,0,1.139-.299,1.953-.897,2.441-.379.309-.82.464-1.324.464-.396,0-.727-.086-.995-.259-.157-.098-.332-.265-.524-.503v2.671h-.879v-7.29ZM169.134,341.692c.273-.343.409-.857.409-1.541,0-.417-.061-.775-.181-1.074-.229-.576-.647-.864-1.254-.864-.611,0-1.029.304-1.254.913-.121.326-.181.739-.181,1.24,0,.404.061.747.181,1.03.229.541.647.811,1.254.811.412,0,.754-.172,1.026-.515Z"/>
  </g>
  <polygon class="cls-9" points="733.5 148.252 733.5 158.23 733.5 162.68 733.5 172.658 744 165.198 744 162.622 744 158.288 744 155.711 733.5 148.252"/>
  <polygon class="cls-7" points="545.86 99.683 539.53 110.5 552.19 110.5 545.86 99.683"/>
</svg>